<?xml version="1.0" encoding="UTF-8" standalone="no"?>
<!DOCTYPE svg PUBLIC "-//W3C//DTD SVG 1.1//EN"
 "http://www.w3.org/Graphics/SVG/1.1/DTD/svg11.dtd">
<!-- Generated by graphviz version 12.2.1 (20241206.2353)
 -->
<!-- Pages: 1 -->
<svg width="3920pt" height="874pt"
 viewBox="0.00 0.00 3919.62 873.50" xmlns="http://www.w3.org/2000/svg" xmlns:xlink="http://www.w3.org/1999/xlink">
<g id="graph0" class="graph" transform="scale(1 1) rotate(0) translate(4 869.5)">
<polygon fill="#ffffff" stroke="none" points="-4,4 -4,-869.5 3915.62,-869.5 3915.62,4 -4,4"/>
<!-- DB25 -->
<g id="node1" class="node">
<title>DB25</title>
<polygon fill="#ffffff" stroke="black" points="183.5,-737.25 0,-737.25 0,-357.25 183.5,-357.25 183.5,-737.25"/>
<polygon fill="none" stroke="black" points="0,-713.5 0,-737.25 183.5,-737.25 183.5,-713.5 0,-713.5"/>
<text text-anchor="start" x="74.88" y="-719.95" font-family="arial" font-size="14.00">DB25</text>
<polygon fill="none" stroke="black" points="0,-689.75 0,-713.5 99.17,-713.5 99.17,-689.75 0,-689.75"/>
<text text-anchor="start" x="4.21" y="-696.2" font-family="arial" font-size="14.00">D&#45;Sub 25 Male</text>
<polygon fill="none" stroke="black" points="99.17,-689.75 99.17,-713.5 137.58,-713.5 137.58,-689.75 99.17,-689.75"/>
<text text-anchor="start" x="103.38" y="-696.2" font-family="arial" font-size="14.00">male</text>
<polygon fill="none" stroke="black" points="137.58,-689.75 137.58,-713.5 183.5,-713.5 183.5,-689.75 137.58,-689.75"/>
<text text-anchor="start" x="141.79" y="-696.2" font-family="arial" font-size="14.00">13&#45;pin</text>
<polygon fill="none" stroke="black" points="0,-666 0,-689.75 116.12,-689.75 116.12,-666 0,-666"/>
<text text-anchor="start" x="36.31" y="-672.45" font-family="arial" font-size="14.00">Enc A+</text>
<polygon fill="none" stroke="black" points="116.12,-666 116.12,-689.75 183.5,-689.75 183.5,-666 116.12,-666"/>
<text text-anchor="start" x="146.06" y="-672.45" font-family="arial" font-size="14.00">1</text>
<polygon fill="none" stroke="black" points="0,-642.25 0,-666 116.12,-666 116.12,-642.25 0,-642.25"/>
<text text-anchor="start" x="38.19" y="-648.7" font-family="arial" font-size="14.00">Enc A&#45;</text>
<polygon fill="none" stroke="black" points="116.12,-642.25 116.12,-666 183.5,-666 183.5,-642.25 116.12,-642.25"/>
<text text-anchor="start" x="142.31" y="-648.7" font-family="arial" font-size="14.00">14</text>
<polygon fill="none" stroke="black" points="0,-618.5 0,-642.25 116.12,-642.25 116.12,-618.5 0,-618.5"/>
<text text-anchor="start" x="35.94" y="-624.95" font-family="arial" font-size="14.00">Enc B+</text>
<polygon fill="none" stroke="black" points="116.12,-618.5 116.12,-642.25 183.5,-642.25 183.5,-618.5 116.12,-618.5"/>
<text text-anchor="start" x="146.06" y="-624.95" font-family="arial" font-size="14.00">2</text>
<polygon fill="none" stroke="black" points="0,-594.75 0,-618.5 116.12,-618.5 116.12,-594.75 0,-594.75"/>
<text text-anchor="start" x="37.81" y="-601.2" font-family="arial" font-size="14.00">Enc B&#45;</text>
<polygon fill="none" stroke="black" points="116.12,-594.75 116.12,-618.5 183.5,-618.5 183.5,-594.75 116.12,-594.75"/>
<text text-anchor="start" x="142.31" y="-601.2" font-family="arial" font-size="14.00">15</text>
<polygon fill="none" stroke="black" points="0,-571 0,-594.75 116.12,-594.75 116.12,-571 0,-571"/>
<text text-anchor="start" x="36.31" y="-577.45" font-family="arial" font-size="14.00">Enc Z+</text>
<polygon fill="none" stroke="black" points="116.12,-571 116.12,-594.75 183.5,-594.75 183.5,-571 116.12,-571"/>
<text text-anchor="start" x="146.06" y="-577.45" font-family="arial" font-size="14.00">3</text>
<polygon fill="none" stroke="black" points="0,-547.25 0,-571 116.12,-571 116.12,-547.25 0,-547.25"/>
<text text-anchor="start" x="38.19" y="-553.7" font-family="arial" font-size="14.00">Enc Z&#45;</text>
<polygon fill="none" stroke="black" points="116.12,-547.25 116.12,-571 183.5,-571 183.5,-547.25 116.12,-547.25"/>
<text text-anchor="start" x="142.31" y="-553.7" font-family="arial" font-size="14.00">16</text>
<polygon fill="none" stroke="black" points="0,-523.5 0,-547.25 116.12,-547.25 116.12,-523.5 0,-523.5"/>
<text text-anchor="start" x="45.69" y="-529.95" font-family="arial" font-size="14.00">+5V</text>
<polygon fill="none" stroke="black" points="116.12,-523.5 116.12,-547.25 183.5,-547.25 183.5,-523.5 116.12,-523.5"/>
<text text-anchor="start" x="146.06" y="-529.95" font-family="arial" font-size="14.00">4</text>
<polygon fill="none" stroke="black" points="0,-499.75 0,-523.5 116.12,-523.5 116.12,-499.75 0,-499.75"/>
<text text-anchor="start" x="30.69" y="-506.2" font-family="arial" font-size="14.00">Dig GND</text>
<polygon fill="none" stroke="black" points="116.12,-499.75 116.12,-523.5 183.5,-523.5 183.5,-499.75 116.12,-499.75"/>
<text text-anchor="start" x="142.31" y="-506.2" font-family="arial" font-size="14.00">17</text>
<polygon fill="none" stroke="black" points="0,-476 0,-499.75 116.12,-499.75 116.12,-476 0,-476"/>
<text text-anchor="start" x="29.94" y="-482.45" font-family="arial" font-size="14.00">Pos Limit</text>
<polygon fill="none" stroke="black" points="116.12,-476 116.12,-499.75 183.5,-499.75 183.5,-476 116.12,-476"/>
<text text-anchor="start" x="142.31" y="-482.45" font-family="arial" font-size="14.00">10</text>
<polygon fill="none" stroke="black" points="0,-452.25 0,-476 116.12,-476 116.12,-452.25 0,-452.25"/>
<text text-anchor="start" x="29.19" y="-458.7" font-family="arial" font-size="14.00">Neg Limit</text>
<polygon fill="none" stroke="black" points="116.12,-452.25 116.12,-476 183.5,-476 183.5,-452.25 116.12,-452.25"/>
<text text-anchor="start" x="142.31" y="-458.7" font-family="arial" font-size="14.00">12</text>
<polygon fill="none" stroke="black" points="0,-428.5 0,-452.25 116.12,-452.25 116.12,-428.5 0,-428.5"/>
<text text-anchor="start" x="44.94" y="-434.95" font-family="arial" font-size="14.00">Viso</text>
<polygon fill="none" stroke="black" points="116.12,-428.5 116.12,-452.25 183.5,-452.25 183.5,-428.5 116.12,-428.5"/>
<text text-anchor="start" x="142.31" y="-434.95" font-family="arial" font-size="14.00">13</text>
<polygon fill="none" stroke="black" points="0,-404.75 0,-428.5 116.12,-428.5 116.12,-404.75 0,-404.75"/>
<text text-anchor="start" x="44.56" y="-411.2" font-family="arial" font-size="14.00">Ciso</text>
<polygon fill="none" stroke="black" points="116.12,-404.75 116.12,-428.5 183.5,-428.5 183.5,-404.75 116.12,-404.75"/>
<text text-anchor="start" x="142.31" y="-411.2" font-family="arial" font-size="14.00">22</text>
<polygon fill="none" stroke="black" points="0,-381 0,-404.75 116.12,-404.75 116.12,-381 0,-381"/>
<text text-anchor="start" x="26.19" y="-387.45" font-family="arial" font-size="14.00">Home N/C</text>
<polygon fill="none" stroke="black" points="116.12,-381 116.12,-404.75 183.5,-404.75 183.5,-381 116.12,-381"/>
<text text-anchor="start" x="142.69" y="-387.45" font-family="arial" font-size="14.00">11</text>
<polygon fill="none" stroke="black" points="0,-357.25 0,-381 183.5,-381 183.5,-357.25 0,-357.25"/>
<text text-anchor="start" x="4" y="-363.7" font-family="arial" font-size="14.00">Stage cable (from UMI&#45;7774)</text>
</g>
<!-- ENC -->
<g id="node7" class="node">
<title>ENC</title>
<polygon fill="#ffffff" stroke="black" points="698,-802.62 327.5,-802.62 327.5,-453.88 698,-453.88 698,-802.62"/>
<polygon fill="none" stroke="black" points="327.5,-778.88 327.5,-802.62 698,-802.62 698,-778.88 327.5,-778.88"/>
<text text-anchor="start" x="498.5" y="-785.33" font-family="arial" font-size="14.00">ENC</text>
<polygon fill="none" stroke="black" points="327.5,-755.12 327.5,-778.88 698,-778.88 698,-755.12 327.5,-755.12"/>
<text text-anchor="start" x="505.62" y="-761.58" font-family="arial" font-size="14.00">8x</text>
<text text-anchor="start" x="383.12" y="-739.83" font-family="arial" font-size="14.00"> </text>
<text text-anchor="start" x="338.88" y="-720.08" font-family="arial" font-size="14.00">DB25:1:Enc A+</text>
<text text-anchor="start" x="463.25" y="-720.08" font-family="arial" font-size="14.00"> &#160;&#160;&#160;&#160;1:BK &#160;&#160;&#160;</text>
<text text-anchor="start" x="553.12" y="-720.08" font-family="arial" font-size="14.00">MC508_ENC:1:Enc A+</text>
<polygon fill="#000000" stroke="none" points="327.5,-713.62 327.5,-715.62 698,-715.62 698,-713.62 327.5,-713.62"/>
<polygon fill="#000000" stroke="none" points="327.5,-711.62 327.5,-713.62 698,-713.62 698,-711.62 327.5,-711.62"/>
<polygon fill="#000000" stroke="none" points="327.5,-709.62 327.5,-711.62 698,-711.62 698,-709.62 327.5,-709.62"/>
<polygon fill="#000000" stroke="none" points="327.5,-707.62 327.5,-709.62 698,-709.62 698,-707.62 327.5,-707.62"/>
<polygon fill="#000000" stroke="none" points="327.5,-705.62 327.5,-707.62 698,-707.62 698,-705.62 327.5,-705.62"/>
<text text-anchor="start" x="337" y="-690.33" font-family="arial" font-size="14.00">DB25:14:Enc A&#45;</text>
<text text-anchor="start" x="462.88" y="-690.33" font-family="arial" font-size="14.00"> &#160;&#160;&#160;&#160;2:BN &#160;&#160;&#160;</text>
<text text-anchor="start" x="555.38" y="-690.33" font-family="arial" font-size="14.00">MC508_ENC:2:/Enc A</text>
<polygon fill="#000000" stroke="none" points="327.5,-683.88 327.5,-685.88 698,-685.88 698,-683.88 327.5,-683.88"/>
<polygon fill="#895956" stroke="none" points="327.5,-681.88 327.5,-683.88 698,-683.88 698,-681.88 327.5,-681.88"/>
<polygon fill="#895956" stroke="none" points="327.5,-679.88 327.5,-681.88 698,-681.88 698,-679.88 327.5,-679.88"/>
<polygon fill="#895956" stroke="none" points="327.5,-677.88 327.5,-679.88 698,-679.88 698,-677.88 327.5,-677.88"/>
<polygon fill="#000000" stroke="none" points="327.5,-675.88 327.5,-677.88 698,-677.88 698,-675.88 327.5,-675.88"/>
<text text-anchor="start" x="338.5" y="-660.58" font-family="arial" font-size="14.00">DB25:2:Enc B+</text>
<text text-anchor="start" x="462.5" y="-660.58" font-family="arial" font-size="14.00"> &#160;&#160;&#160;&#160;3:RD &#160;&#160;&#160;</text>
<text text-anchor="start" x="552.75" y="-660.58" font-family="arial" font-size="14.00">MC508_ENC:3:Enc B+</text>
<polygon fill="#000000" stroke="none" points="327.5,-654.12 327.5,-656.12 698,-656.12 698,-654.12 327.5,-654.12"/>
<polygon fill="#ff0000" stroke="none" points="327.5,-652.12 327.5,-654.12 698,-654.12 698,-652.12 327.5,-652.12"/>
<polygon fill="#ff0000" stroke="none" points="327.5,-650.12 327.5,-652.12 698,-652.12 698,-650.12 327.5,-650.12"/>
<polygon fill="#ff0000" stroke="none" points="327.5,-648.12 327.5,-650.12 698,-650.12 698,-648.12 327.5,-648.12"/>
<polygon fill="#000000" stroke="none" points="327.5,-646.12 327.5,-648.12 698,-648.12 698,-646.12 327.5,-646.12"/>
<text text-anchor="start" x="336.62" y="-630.83" font-family="arial" font-size="14.00">DB25:15:Enc B&#45;</text>
<text text-anchor="start" x="461" y="-630.83" font-family="arial" font-size="14.00"> &#160;&#160;&#160;&#160;4:OG &#160;&#160;&#160;</text>
<text text-anchor="start" x="555" y="-630.83" font-family="arial" font-size="14.00">MC508_ENC:4:/Enc B</text>
<polygon fill="#000000" stroke="none" points="327.5,-624.38 327.5,-626.38 698,-626.38 698,-624.38 327.5,-624.38"/>
<polygon fill="#ff8000" stroke="none" points="327.5,-622.38 327.5,-624.38 698,-624.38 698,-622.38 327.5,-622.38"/>
<polygon fill="#ff8000" stroke="none" points="327.5,-620.38 327.5,-622.38 698,-622.38 698,-620.38 327.5,-620.38"/>
<polygon fill="#ff8000" stroke="none" points="327.5,-618.38 327.5,-620.38 698,-620.38 698,-618.38 327.5,-618.38"/>
<polygon fill="#000000" stroke="none" points="327.5,-616.38 327.5,-618.38 698,-618.38 698,-616.38 327.5,-616.38"/>
<text text-anchor="start" x="338.88" y="-601.08" font-family="arial" font-size="14.00">DB25:3:Enc Z+</text>
<text text-anchor="start" x="444.5" y="-601.08" font-family="arial" font-size="14.00"> &#160;&#160;&#160;&#160;5:#90EE90 &#160;&#160;&#160;</text>
<text text-anchor="start" x="549.75" y="-601.08" font-family="arial" font-size="14.00">MC508_ENC:11:Enc Z+</text>
<polygon fill="#000000" stroke="none" points="327.5,-594.62 327.5,-596.62 698,-596.62 698,-594.62 327.5,-594.62"/>
<polygon fill="#90ee90" stroke="none" points="327.5,-592.62 327.5,-594.62 698,-594.62 698,-592.62 327.5,-592.62"/>
<polygon fill="#90ee90" stroke="none" points="327.5,-590.62 327.5,-592.62 698,-592.62 698,-590.62 327.5,-590.62"/>
<polygon fill="#90ee90" stroke="none" points="327.5,-588.62 327.5,-590.62 698,-590.62 698,-588.62 327.5,-588.62"/>
<polygon fill="#000000" stroke="none" points="327.5,-586.62 327.5,-588.62 698,-588.62 698,-586.62 327.5,-586.62"/>
<text text-anchor="start" x="337" y="-571.33" font-family="arial" font-size="14.00">DB25:16:Enc Z&#45;</text>
<text text-anchor="start" x="464" y="-571.33" font-family="arial" font-size="14.00"> &#160;&#160;&#160;&#160;6:LB &#160;&#160;&#160;</text>
<text text-anchor="start" x="551.62" y="-571.33" font-family="arial" font-size="14.00">MC508_ENC:12:/Enc Z</text>
<polygon fill="#000000" stroke="none" points="327.5,-564.88 327.5,-566.88 698,-566.88 698,-564.88 327.5,-564.88"/>
<polygon fill="#a0dfff" stroke="none" points="327.5,-562.88 327.5,-564.88 698,-564.88 698,-562.88 327.5,-562.88"/>
<polygon fill="#a0dfff" stroke="none" points="327.5,-560.88 327.5,-562.88 698,-562.88 698,-560.88 327.5,-560.88"/>
<polygon fill="#a0dfff" stroke="none" points="327.5,-558.88 327.5,-560.88 698,-560.88 698,-558.88 327.5,-558.88"/>
<polygon fill="#000000" stroke="none" points="327.5,-556.88 327.5,-558.88 698,-558.88 698,-556.88 327.5,-556.88"/>
<text text-anchor="start" x="348.25" y="-541.58" font-family="arial" font-size="14.00">DB25:4:+5V</text>
<text text-anchor="start" x="463.25" y="-541.58" font-family="arial" font-size="14.00"> &#160;&#160;&#160;&#160;7:YE &#160;&#160;&#160;</text>
<text text-anchor="start" x="549" y="-541.58" font-family="arial" font-size="14.00">MC508_ENC:5:+5V Enc</text>
<polygon fill="#000000" stroke="none" points="327.5,-535.12 327.5,-537.12 698,-537.12 698,-535.12 327.5,-535.12"/>
<polygon fill="#ffff00" stroke="none" points="327.5,-533.12 327.5,-535.12 698,-535.12 698,-533.12 327.5,-533.12"/>
<polygon fill="#ffff00" stroke="none" points="327.5,-531.12 327.5,-533.12 698,-533.12 698,-531.12 327.5,-531.12"/>
<polygon fill="#ffff00" stroke="none" points="327.5,-529.12 327.5,-531.12 698,-531.12 698,-529.12 327.5,-529.12"/>
<polygon fill="#000000" stroke="none" points="327.5,-527.12 327.5,-529.12 698,-529.12 698,-527.12 327.5,-527.12"/>
<text text-anchor="start" x="329.5" y="-511.82" font-family="arial" font-size="14.00">DB25:17:Dig GND</text>
<text text-anchor="start" x="451.25" y="-511.82" font-family="arial" font-size="14.00"> &#160;&#160;&#160;&#160;8:WHBN &#160;&#160;&#160;</text>
<text text-anchor="start" x="562.88" y="-511.82" font-family="arial" font-size="14.00">MC508_ENC:15:0V</text>
<polygon fill="#000000" stroke="none" points="327.5,-505.38 327.5,-507.38 698,-507.38 698,-505.38 327.5,-505.38"/>
<polygon fill="#ffffff" stroke="none" points="327.5,-503.38 327.5,-505.38 698,-505.38 698,-503.38 327.5,-503.38"/>
<polygon fill="#895956" stroke="none" points="327.5,-501.38 327.5,-503.38 698,-503.38 698,-501.38 327.5,-501.38"/>
<polygon fill="#ffffff" stroke="none" points="327.5,-499.38 327.5,-501.38 698,-501.38 698,-499.38 327.5,-499.38"/>
<polygon fill="#000000" stroke="none" points="327.5,-497.38 327.5,-499.38 698,-499.38 698,-497.38 327.5,-497.38"/>
<text text-anchor="start" x="383.12" y="-482.07" font-family="arial" font-size="14.00"> </text>
<polygon fill="none" stroke="black" points="327.5,-453.88 327.5,-477.62 698,-477.62 698,-453.88 327.5,-453.88"/>
<text text-anchor="start" x="435.12" y="-460.32" font-family="arial" font-size="14.00">Encoder adapter (8 wires)</text>
</g>
<!-- DB25&#45;&#45;ENC -->
<g id="edge1" class="edge">
<title>DB25:e&#45;&#45;ENC:w</title>
<path fill="none" stroke="#000000" stroke-width="2" d="M183.5,-673.88C252.86,-676.43 265.59,-709.18 327.5,-706.63"/>
<path fill="none" stroke="#000000" stroke-width="2" d="M183.5,-675.88C251,-677.15 263.73,-709.9 327.5,-708.63"/>
<path fill="none" stroke="#000000" stroke-width="2" d="M183.5,-677.88C249.13,-677.88 261.87,-710.62 327.5,-710.62"/>
<path fill="none" stroke="#000000" stroke-width="2" d="M183.5,-679.87C247.27,-678.6 260,-711.35 327.5,-712.62"/>
<path fill="none" stroke="#000000" stroke-width="2" d="M183.5,-681.87C245.41,-679.32 258.14,-712.07 327.5,-714.62"/>
</g>
<!-- DB25&#45;&#45;ENC -->
<g id="edge3" class="edge">
<title>DB25:e&#45;&#45;ENC:w</title>
<path fill="none" stroke="#000000" stroke-width="2" d="M183.5,-650.13C252.15,-652.29 265.96,-679.04 327.5,-676.88"/>
<path fill="none" stroke="#895956" stroke-width="2" d="M183.5,-652.13C250.37,-653.21 264.18,-679.96 327.5,-678.88"/>
<path fill="none" stroke="#895956" stroke-width="2" d="M183.5,-654.12C248.59,-654.12 262.41,-680.88 327.5,-680.88"/>
<path fill="none" stroke="#895956" stroke-width="2" d="M183.5,-656.12C246.82,-655.04 260.63,-681.79 327.5,-682.87"/>
<path fill="none" stroke="#000000" stroke-width="2" d="M183.5,-658.12C245.04,-655.96 258.85,-682.71 327.5,-684.87"/>
</g>
<!-- DB25&#45;&#45;ENC -->
<g id="edge5" class="edge">
<title>DB25:e&#45;&#45;ENC:w</title>
<path fill="none" stroke="#000000" stroke-width="2" d="M183.5,-626.38C251.43,-628.07 266.1,-648.82 327.5,-647.13"/>
<path fill="none" stroke="#ff0000" stroke-width="2" d="M183.5,-628.38C249.79,-629.22 264.47,-649.97 327.5,-649.13"/>
<path fill="none" stroke="#ff0000" stroke-width="2" d="M183.5,-630.38C248.16,-630.38 262.84,-651.13 327.5,-651.12"/>
<path fill="none" stroke="#ff0000" stroke-width="2" d="M183.5,-632.37C246.53,-631.53 261.21,-652.28 327.5,-653.12"/>
<path fill="none" stroke="#000000" stroke-width="2" d="M183.5,-634.37C244.9,-632.68 259.57,-653.43 327.5,-655.12"/>
</g>
<!-- DB25&#45;&#45;ENC -->
<g id="edge7" class="edge">
<title>DB25:e&#45;&#45;ENC:w</title>
<path fill="none" stroke="#000000" stroke-width="2" d="M183.5,-602.63C250.61,-603.74 265.94,-618.49 327.5,-617.38"/>
<path fill="none" stroke="#ff8000" stroke-width="2" d="M183.5,-604.63C249.22,-605.18 264.55,-619.93 327.5,-619.38"/>
<path fill="none" stroke="#ff8000" stroke-width="2" d="M183.5,-606.62C247.83,-606.62 263.17,-621.37 327.5,-621.37"/>
<path fill="none" stroke="#ff8000" stroke-width="2" d="M183.5,-608.62C246.45,-608.07 261.78,-622.82 327.5,-623.37"/>
<path fill="none" stroke="#000000" stroke-width="2" d="M183.5,-610.62C245.06,-609.51 260.39,-624.26 327.5,-625.37"/>
</g>
<!-- DB25&#45;&#45;ENC -->
<g id="edge9" class="edge">
<title>DB25:e&#45;&#45;ENC:w</title>
<path fill="none" stroke="#000000" stroke-width="2" d="M183.5,-578.88C249.56,-579.38 265.32,-588.13 327.5,-587.63"/>
<path fill="none" stroke="#90ee90" stroke-width="2" d="M183.5,-580.88C248.59,-581.13 264.35,-589.88 327.5,-589.63"/>
<path fill="none" stroke="#90ee90" stroke-width="2" d="M183.5,-582.88C247.62,-582.87 263.38,-591.62 327.5,-591.63"/>
<path fill="none" stroke="#90ee90" stroke-width="2" d="M183.5,-584.87C246.65,-584.62 262.41,-593.37 327.5,-593.62"/>
<path fill="none" stroke="#000000" stroke-width="2" d="M183.5,-586.87C245.68,-586.37 261.44,-595.12 327.5,-595.62"/>
</g>
<!-- DB25&#45;&#45;ENC -->
<g id="edge11" class="edge">
<title>DB25:e&#45;&#45;ENC:w</title>
<path fill="none" stroke="#000000" stroke-width="2" d="M183.5,-555.13C248.19,-555.18 264.17,-557.93 327.5,-557.88"/>
<path fill="none" stroke="#a0dfff" stroke-width="2" d="M183.5,-557.13C247.85,-557.15 263.83,-559.9 327.5,-559.88"/>
<path fill="none" stroke="#a0dfff" stroke-width="2" d="M183.5,-559.12C247.51,-559.13 263.49,-561.88 327.5,-561.88"/>
<path fill="none" stroke="#a0dfff" stroke-width="2" d="M183.5,-561.12C247.17,-561.1 263.15,-563.85 327.5,-563.87"/>
<path fill="none" stroke="#000000" stroke-width="2" d="M183.5,-563.12C246.83,-563.07 262.81,-565.82 327.5,-565.87"/>
</g>
<!-- DB25&#45;&#45;ENC -->
<g id="edge13" class="edge">
<title>DB25:e&#45;&#45;ENC:w</title>
<path fill="none" stroke="#000000" stroke-width="2" d="M183.5,-531.38C246.72,-531.46 262.69,-528.21 327.5,-528.13"/>
<path fill="none" stroke="#ffff00" stroke-width="2" d="M183.5,-533.38C247.12,-533.42 263.08,-530.17 327.5,-530.13"/>
<path fill="none" stroke="#ffff00" stroke-width="2" d="M183.5,-535.38C247.52,-535.38 263.48,-532.12 327.5,-532.12"/>
<path fill="none" stroke="#ffff00" stroke-width="2" d="M183.5,-537.37C247.92,-537.33 263.88,-534.08 327.5,-534.12"/>
<path fill="none" stroke="#000000" stroke-width="2" d="M183.5,-539.37C248.31,-539.29 264.28,-536.04 327.5,-536.12"/>
</g>
<!-- DB25&#45;&#45;ENC -->
<g id="edge15" class="edge">
<title>DB25:e&#45;&#45;ENC:w</title>
<path fill="none" stroke="#000000" stroke-width="2" d="M183.5,-507.63C245.6,-508.18 261.34,-498.93 327.5,-498.38"/>
<path fill="none" stroke="#ffffff" stroke-width="2" d="M183.5,-509.63C246.62,-509.9 262.35,-500.65 327.5,-500.38"/>
<path fill="none" stroke="#895956" stroke-width="2" d="M183.5,-511.62C247.63,-511.62 263.37,-502.37 327.5,-502.37"/>
<path fill="none" stroke="#ffffff" stroke-width="2" d="M183.5,-513.62C248.65,-513.35 264.38,-504.1 327.5,-504.37"/>
<path fill="none" stroke="#000000" stroke-width="2" d="M183.5,-515.62C249.66,-515.07 265.4,-505.82 327.5,-506.37"/>
</g>
<!-- LPOS -->
<g id="node8" class="node">
<title>LPOS</title>
<polygon fill="#ffffff" stroke="black" points="1948.75,-441.5 1651.75,-441.5 1651.75,-301 1948.75,-301 1948.75,-441.5"/>
<polygon fill="none" stroke="black" points="1651.75,-417.75 1651.75,-441.5 1948.75,-441.5 1948.75,-417.75 1651.75,-417.75"/>
<text text-anchor="start" x="1781.88" y="-424.2" font-family="arial" font-size="14.00">LPOS</text>
<polygon fill="none" stroke="black" points="1651.75,-394 1651.75,-417.75 1948.75,-417.75 1948.75,-394 1651.75,-394"/>
<text text-anchor="start" x="1793.12" y="-400.45" font-family="arial" font-size="14.00">1x</text>
<text text-anchor="start" x="1708.12" y="-378.7" font-family="arial" font-size="14.00"> </text>
<text text-anchor="start" x="1653.75" y="-358.95" font-family="arial" font-size="14.00">DB25:10:Pos Limit</text>
<text text-anchor="start" x="1770.25" y="-358.95" font-family="arial" font-size="14.00"> &#160;&#160;&#160;&#160;1:BU &#160;&#160;&#160;</text>
<text text-anchor="start" x="1838" y="-358.95" font-family="arial" font-size="14.00">MIC2981:1:In Pos</text>
<polygon fill="#000000" stroke="none" points="1651.75,-352.5 1651.75,-354.5 1948.75,-354.5 1948.75,-352.5 1651.75,-352.5"/>
<polygon fill="#0066ff" stroke="none" points="1651.75,-350.5 1651.75,-352.5 1948.75,-352.5 1948.75,-350.5 1651.75,-350.5"/>
<polygon fill="#0066ff" stroke="none" points="1651.75,-348.5 1651.75,-350.5 1948.75,-350.5 1948.75,-348.5 1651.75,-348.5"/>
<polygon fill="#0066ff" stroke="none" points="1651.75,-346.5 1651.75,-348.5 1948.75,-348.5 1948.75,-346.5 1651.75,-346.5"/>
<polygon fill="#000000" stroke="none" points="1651.75,-344.5 1651.75,-346.5 1948.75,-346.5 1948.75,-344.5 1651.75,-344.5"/>
<text text-anchor="start" x="1708.12" y="-329.2" font-family="arial" font-size="14.00"> </text>
<polygon fill="none" stroke="black" points="1651.75,-301 1651.75,-324.75 1948.75,-324.75 1948.75,-301 1651.75,-301"/>
<text text-anchor="start" x="1728.62" y="-307.45" font-family="arial" font-size="14.00">Pos limit → MIC2981 in</text>
</g>
<!-- DB25&#45;&#45;LPOS -->
<g id="edge17" class="edge">
<title>DB25:e&#45;&#45;LPOS:w</title>
<path fill="none" stroke="#000000" stroke-width="2" d="M183.5,-483.88C246.83,-486.63 257.71,-453.37 326.76,-438.32 845.93,-341.92 986.21,-412.52 1507.38,-363.27 1569.52,-358.09 1584.83,-346.33 1651.75,-345.5"/>
<path fill="none" stroke="#0066ff" stroke-width="2" d="M183.5,-485.88C248.73,-487.25 259.61,-453.99 327.13,-440.28 845.03,-343.7 985.31,-414.3 1507.56,-365.26 1570.74,-359.67 1586.05,-347.91 1651.75,-347.5"/>
<path fill="none" stroke="#0066ff" stroke-width="2" d="M183.5,-487.88C250.64,-487.88 261.51,-454.61 327.5,-442.25 844.13,-345.49 984.41,-416.09 1507.75,-367.25 1571.96,-361.26 1587.27,-349.5 1651.75,-349.5"/>
<path fill="none" stroke="#0066ff" stroke-width="2" d="M183.5,-489.87C252.54,-488.5 263.41,-455.23 327.87,-444.22 843.23,-347.28 983.51,-417.88 1507.94,-369.24 1573.17,-362.84 1588.48,-351.09 1651.75,-351.5"/>
<path fill="none" stroke="#000000" stroke-width="2" d="M183.5,-491.87C254.44,-489.12 265.31,-455.85 328.24,-446.18 842.33,-349.06 982.61,-419.66 1508.12,-371.23 1574.39,-364.43 1589.7,-352.67 1651.75,-353.5"/>
</g>
<!-- LNEG -->
<g id="node9" class="node">
<title>LNEG</title>
<polygon fill="#ffffff" stroke="black" points="1507.75,-355.5 1209.25,-355.5 1209.25,-215 1507.75,-215 1507.75,-355.5"/>
<polygon fill="none" stroke="black" points="1209.25,-331.75 1209.25,-355.5 1507.75,-355.5 1507.75,-331.75 1209.25,-331.75"/>
<text text-anchor="start" x="1339.75" y="-338.2" font-family="arial" font-size="14.00">LNEG</text>
<polygon fill="none" stroke="black" points="1209.25,-308 1209.25,-331.75 1507.75,-331.75 1507.75,-308 1209.25,-308"/>
<text text-anchor="start" x="1351.38" y="-314.45" font-family="arial" font-size="14.00">1x</text>
<text text-anchor="start" x="1266.38" y="-292.7" font-family="arial" font-size="14.00"> </text>
<text text-anchor="start" x="1211.25" y="-272.95" font-family="arial" font-size="14.00">DB25:12:Neg Limit</text>
<text text-anchor="start" x="1329.25" y="-272.95" font-family="arial" font-size="14.00"> &#160;&#160;&#160;&#160;1:VT &#160;&#160;&#160;</text>
<text text-anchor="start" x="1395.5" y="-272.95" font-family="arial" font-size="14.00">MIC2981:2:In Neg</text>
<polygon fill="#000000" stroke="none" points="1209.25,-266.5 1209.25,-268.5 1507.75,-268.5 1507.75,-266.5 1209.25,-266.5"/>
<polygon fill="#8000ff" stroke="none" points="1209.25,-264.5 1209.25,-266.5 1507.75,-266.5 1507.75,-264.5 1209.25,-264.5"/>
<polygon fill="#8000ff" stroke="none" points="1209.25,-262.5 1209.25,-264.5 1507.75,-264.5 1507.75,-262.5 1209.25,-262.5"/>
<polygon fill="#8000ff" stroke="none" points="1209.25,-260.5 1209.25,-262.5 1507.75,-262.5 1507.75,-260.5 1209.25,-260.5"/>
<polygon fill="#000000" stroke="none" points="1209.25,-258.5 1209.25,-260.5 1507.75,-260.5 1507.75,-258.5 1209.25,-258.5"/>
<text text-anchor="start" x="1266.38" y="-243.2" font-family="arial" font-size="14.00"> </text>
<polygon fill="none" stroke="black" points="1209.25,-215 1209.25,-238.75 1507.75,-238.75 1507.75,-215 1209.25,-215"/>
<text text-anchor="start" x="1286.12" y="-221.45" font-family="arial" font-size="14.00">Neg limit → MIC2981 in</text>
</g>
<!-- DB25&#45;&#45;LNEG -->
<g id="edge19" class="edge">
<title>DB25:e&#45;&#45;LNEG:w</title>
<path fill="none" stroke="#000000" stroke-width="2" d="M183.5,-460.13C255.18,-464.3 252.24,-398.91 326.15,-369.48 373.51,-352.66 1159.42,-259.53 1209.25,-259.5"/>
<path fill="none" stroke="#8000ff" stroke-width="2" d="M183.5,-462.13C257.18,-464.21 254.24,-398.82 326.83,-371.37 373.75,-354.64 1159.65,-261.51 1209.25,-261.5"/>
<path fill="none" stroke="#8000ff" stroke-width="2" d="M183.5,-464.12C259.18,-464.12 256.24,-398.73 327.5,-373.25 373.98,-356.63 1159.89,-263.5 1209.25,-263.5"/>
<path fill="none" stroke="#8000ff" stroke-width="2" d="M183.5,-466.12C261.18,-464.04 258.24,-398.64 328.17,-375.13 374.22,-358.62 1160.12,-265.49 1209.25,-265.5"/>
<path fill="none" stroke="#000000" stroke-width="2" d="M183.5,-468.12C263.17,-463.95 260.24,-398.55 328.85,-377.02 374.45,-360.6 1160.36,-267.47 1209.25,-267.5"/>
</g>
<!-- LPWR -->
<g id="node16" class="node">
<title>LPWR</title>
<polygon fill="#ffffff" stroke="black" points="633.5,-305.5 392,-305.5 392,-165 633.5,-165 633.5,-305.5"/>
<polygon fill="none" stroke="black" points="392,-281.75 392,-305.5 633.5,-305.5 633.5,-281.75 392,-281.75"/>
<text text-anchor="start" x="492.88" y="-288.2" font-family="arial" font-size="14.00">LPWR</text>
<polygon fill="none" stroke="black" points="392,-258 392,-281.75 633.5,-281.75 633.5,-258 392,-258"/>
<text text-anchor="start" x="505.62" y="-264.45" font-family="arial" font-size="14.00">1x</text>
<text text-anchor="start" x="433.38" y="-242.7" font-family="arial" font-size="14.00"> </text>
<text text-anchor="start" x="394" y="-222.95" font-family="arial" font-size="14.00">DB25:13:Viso</text>
<text text-anchor="start" x="480.5" y="-222.95" font-family="arial" font-size="14.00"> &#160;&#160;&#160;&#160;1:RD &#160;&#160;&#160;</text>
<text text-anchor="start" x="549" y="-222.95" font-family="arial" font-size="14.00">EXT5V:1:+5V</text>
<polygon fill="#000000" stroke="none" points="392,-216.5 392,-218.5 633.5,-218.5 633.5,-216.5 392,-216.5"/>
<polygon fill="#ff0000" stroke="none" points="392,-214.5 392,-216.5 633.5,-216.5 633.5,-214.5 392,-214.5"/>
<polygon fill="#ff0000" stroke="none" points="392,-212.5 392,-214.5 633.5,-214.5 633.5,-212.5 392,-212.5"/>
<polygon fill="#ff0000" stroke="none" points="392,-210.5 392,-212.5 633.5,-212.5 633.5,-210.5 392,-210.5"/>
<polygon fill="#000000" stroke="none" points="392,-208.5 392,-210.5 633.5,-210.5 633.5,-208.5 392,-208.5"/>
<text text-anchor="start" x="433.38" y="-193.2" font-family="arial" font-size="14.00"> </text>
<polygon fill="none" stroke="black" points="392,-165 392,-188.75 633.5,-188.75 633.5,-165 392,-165"/>
<text text-anchor="start" x="468.88" y="-171.45" font-family="arial" font-size="14.00">Viso → Ext 5V</text>
</g>
<!-- DB25&#45;&#45;LPWR -->
<g id="edge33" class="edge">
<title>DB25:e&#45;&#45;LPWR:w</title>
<path fill="none" stroke="#000000" stroke-width="2" d="M183.5,-436.38C316.3,-441.49 250.51,-214.61 391,-209.5"/>
<path fill="none" stroke="#ff0000" stroke-width="2" d="M183.5,-438.38C318.23,-440.93 252.43,-214.06 391,-211.5"/>
<path fill="none" stroke="#ff0000" stroke-width="2" d="M183.5,-440.38C320.15,-440.38 254.35,-213.5 391,-213.5"/>
<path fill="none" stroke="#ff0000" stroke-width="2" d="M183.5,-442.37C322.07,-439.82 256.27,-212.94 391,-215.5"/>
<path fill="none" stroke="#000000" stroke-width="2" d="M183.5,-444.37C323.99,-439.26 258.2,-212.39 391,-217.5"/>
</g>
<!-- LGND -->
<g id="node17" class="node">
<title>LGND</title>
<polygon fill="#ffffff" stroke="black" points="636.12,-140.5 389.38,-140.5 389.38,0 636.12,0 636.12,-140.5"/>
<polygon fill="none" stroke="black" points="389.38,-116.75 389.38,-140.5 636.12,-140.5 636.12,-116.75 389.38,-116.75"/>
<text text-anchor="start" x="493.62" y="-123.2" font-family="arial" font-size="14.00">LGND</text>
<polygon fill="none" stroke="black" points="389.38,-93 389.38,-116.75 636.12,-116.75 636.12,-93 389.38,-93"/>
<text text-anchor="start" x="505.62" y="-99.45" font-family="arial" font-size="14.00">1x</text>
<text text-anchor="start" x="431.12" y="-77.7" font-family="arial" font-size="14.00"> </text>
<text text-anchor="start" x="391.38" y="-57.95" font-family="arial" font-size="14.00">DB25:22:Ciso</text>
<text text-anchor="start" x="478.62" y="-57.95" font-family="arial" font-size="14.00"> &#160;&#160;&#160;&#160;1:BK &#160;&#160;&#160;</text>
<text text-anchor="start" x="545.62" y="-57.95" font-family="arial" font-size="14.00">EXT5V:2:GND</text>
<polygon fill="#000000" stroke="none" points="389.38,-51.5 389.38,-53.5 636.12,-53.5 636.12,-51.5 389.38,-51.5"/>
<polygon fill="#000000" stroke="none" points="389.38,-49.5 389.38,-51.5 636.12,-51.5 636.12,-49.5 389.38,-49.5"/>
<polygon fill="#000000" stroke="none" points="389.38,-47.5 389.38,-49.5 636.12,-49.5 636.12,-47.5 389.38,-47.5"/>
<polygon fill="#000000" stroke="none" points="389.38,-45.5 389.38,-47.5 636.12,-47.5 636.12,-45.5 389.38,-45.5"/>
<polygon fill="#000000" stroke="none" points="389.38,-43.5 389.38,-45.5 636.12,-45.5 636.12,-43.5 389.38,-43.5"/>
<text text-anchor="start" x="431.12" y="-28.2" font-family="arial" font-size="14.00"> </text>
<polygon fill="none" stroke="black" points="389.38,0 389.38,-23.75 636.12,-23.75 636.12,0 389.38,0"/>
<text text-anchor="start" x="451.25" y="-6.45" font-family="arial" font-size="14.00">Ciso → Ext 5V GND</text>
</g>
<!-- DB25&#45;&#45;LGND -->
<g id="edge35" class="edge">
<title>DB25:e&#45;&#45;LGND:w</title>
<path fill="none" stroke="#000000" stroke-width="2" d="M183.5,-412.63C367.11,-418.3 197.5,-50.17 388.38,-44.5"/>
<path fill="none" stroke="#000000" stroke-width="2" d="M183.5,-414.63C368.93,-417.46 199.32,-49.34 388.38,-46.5"/>
<path fill="none" stroke="#000000" stroke-width="2" d="M183.5,-416.62C370.74,-416.62 201.13,-48.5 388.38,-48.5"/>
<path fill="none" stroke="#000000" stroke-width="2" d="M183.5,-418.62C372.56,-415.79 202.95,-47.66 388.38,-50.5"/>
<path fill="none" stroke="#000000" stroke-width="2" d="M183.5,-420.62C374.38,-414.95 204.77,-46.83 388.38,-52.5"/>
</g>
<!-- MC508_ENC -->
<g id="node2" class="node">
<title>MC508_ENC</title>
<polygon fill="#ffffff" stroke="black" points="1058.5,-761.5 848.75,-761.5 848.75,-429 1058.5,-429 1058.5,-761.5"/>
<polygon fill="none" stroke="black" points="848.75,-737.75 848.75,-761.5 1058.5,-761.5 1058.5,-737.75 848.75,-737.75"/>
<text text-anchor="start" x="913.5" y="-744.2" font-family="arial" font-size="14.00">MC508_ENC</text>
<polygon fill="none" stroke="black" points="848.75,-714 848.75,-737.75 960.75,-737.75 960.75,-714 848.75,-714"/>
<text text-anchor="start" x="879.25" y="-720.45" font-family="arial" font-size="14.00">MDR&#45;20</text>
<polygon fill="none" stroke="black" points="960.75,-714 960.75,-737.75 1058.5,-737.75 1058.5,-714 960.75,-714"/>
<text text-anchor="start" x="991.25" y="-720.45" font-family="arial" font-size="14.00">11&#45;pin</text>
<polygon fill="none" stroke="black" points="848.75,-690.25 848.75,-714 902.67,-714 902.67,-690.25 848.75,-690.25"/>
<text text-anchor="start" x="871.96" y="-696.7" font-family="arial" font-size="14.00">1</text>
<polygon fill="none" stroke="black" points="902.67,-690.25 902.67,-714 1004.58,-714 1004.58,-690.25 902.67,-690.25"/>
<text text-anchor="start" x="931.88" y="-696.7" font-family="arial" font-size="14.00">Enc A+</text>
<polygon fill="none" stroke="black" points="1004.58,-690.25 1004.58,-714 1058.5,-714 1058.5,-690.25 1004.58,-690.25"/>
<text text-anchor="start" x="1027.79" y="-696.7" font-family="arial" font-size="14.00">1</text>
<polygon fill="none" stroke="black" points="848.75,-666.5 848.75,-690.25 902.67,-690.25 902.67,-666.5 848.75,-666.5"/>
<text text-anchor="start" x="871.96" y="-672.95" font-family="arial" font-size="14.00">2</text>
<polygon fill="none" stroke="black" points="902.67,-666.5 902.67,-690.25 1004.58,-690.25 1004.58,-666.5 902.67,-666.5"/>
<text text-anchor="start" x="934.12" y="-672.95" font-family="arial" font-size="14.00">/Enc A</text>
<polygon fill="none" stroke="black" points="1004.58,-666.5 1004.58,-690.25 1058.5,-690.25 1058.5,-666.5 1004.58,-666.5"/>
<text text-anchor="start" x="1027.79" y="-672.95" font-family="arial" font-size="14.00">2</text>
<polygon fill="none" stroke="black" points="848.75,-642.75 848.75,-666.5 902.67,-666.5 902.67,-642.75 848.75,-642.75"/>
<text text-anchor="start" x="871.96" y="-649.2" font-family="arial" font-size="14.00">3</text>
<polygon fill="none" stroke="black" points="902.67,-642.75 902.67,-666.5 1004.58,-666.5 1004.58,-642.75 902.67,-642.75"/>
<text text-anchor="start" x="931.5" y="-649.2" font-family="arial" font-size="14.00">Enc B+</text>
<polygon fill="none" stroke="black" points="1004.58,-642.75 1004.58,-666.5 1058.5,-666.5 1058.5,-642.75 1004.58,-642.75"/>
<text text-anchor="start" x="1027.79" y="-649.2" font-family="arial" font-size="14.00">3</text>
<polygon fill="none" stroke="black" points="848.75,-619 848.75,-642.75 902.67,-642.75 902.67,-619 848.75,-619"/>
<text text-anchor="start" x="871.96" y="-625.45" font-family="arial" font-size="14.00">4</text>
<polygon fill="none" stroke="black" points="902.67,-619 902.67,-642.75 1004.58,-642.75 1004.58,-619 902.67,-619"/>
<text text-anchor="start" x="933.75" y="-625.45" font-family="arial" font-size="14.00">/Enc B</text>
<polygon fill="none" stroke="black" points="1004.58,-619 1004.58,-642.75 1058.5,-642.75 1058.5,-619 1004.58,-619"/>
<text text-anchor="start" x="1027.79" y="-625.45" font-family="arial" font-size="14.00">4</text>
<polygon fill="none" stroke="black" points="848.75,-595.25 848.75,-619 902.67,-619 902.67,-595.25 848.75,-595.25"/>
<text text-anchor="start" x="868.58" y="-601.7" font-family="arial" font-size="14.00">11</text>
<polygon fill="none" stroke="black" points="902.67,-595.25 902.67,-619 1004.58,-619 1004.58,-595.25 902.67,-595.25"/>
<text text-anchor="start" x="931.88" y="-601.7" font-family="arial" font-size="14.00">Enc Z+</text>
<polygon fill="none" stroke="black" points="1004.58,-595.25 1004.58,-619 1058.5,-619 1058.5,-595.25 1004.58,-595.25"/>
<text text-anchor="start" x="1024.42" y="-601.7" font-family="arial" font-size="14.00">11</text>
<polygon fill="none" stroke="black" points="848.75,-571.5 848.75,-595.25 902.67,-595.25 902.67,-571.5 848.75,-571.5"/>
<text text-anchor="start" x="868.21" y="-577.95" font-family="arial" font-size="14.00">12</text>
<polygon fill="none" stroke="black" points="902.67,-571.5 902.67,-595.25 1004.58,-595.25 1004.58,-571.5 902.67,-571.5"/>
<text text-anchor="start" x="934.12" y="-577.95" font-family="arial" font-size="14.00">/Enc Z</text>
<polygon fill="none" stroke="black" points="1004.58,-571.5 1004.58,-595.25 1058.5,-595.25 1058.5,-571.5 1004.58,-571.5"/>
<text text-anchor="start" x="1024.04" y="-577.95" font-family="arial" font-size="14.00">12</text>
<polygon fill="none" stroke="black" points="848.75,-547.75 848.75,-571.5 902.67,-571.5 902.67,-547.75 848.75,-547.75"/>
<text text-anchor="start" x="871.96" y="-554.2" font-family="arial" font-size="14.00">5</text>
<polygon fill="none" stroke="black" points="902.67,-547.75 902.67,-571.5 1004.58,-571.5 1004.58,-547.75 902.67,-547.75"/>
<text text-anchor="start" x="927.75" y="-554.2" font-family="arial" font-size="14.00">+5V Enc</text>
<polygon fill="none" stroke="black" points="1004.58,-547.75 1004.58,-571.5 1058.5,-571.5 1058.5,-547.75 1004.58,-547.75"/>
<text text-anchor="start" x="1027.79" y="-554.2" font-family="arial" font-size="14.00">5</text>
<polygon fill="none" stroke="black" points="848.75,-524 848.75,-547.75 902.67,-547.75 902.67,-524 848.75,-524"/>
<text text-anchor="start" x="868.21" y="-530.45" font-family="arial" font-size="14.00">15</text>
<polygon fill="none" stroke="black" points="902.67,-524 902.67,-547.75 1004.58,-547.75 1004.58,-524 902.67,-524"/>
<text text-anchor="start" x="945.38" y="-530.45" font-family="arial" font-size="14.00">0V</text>
<polygon fill="none" stroke="black" points="1004.58,-524 1004.58,-547.75 1058.5,-547.75 1058.5,-524 1004.58,-524"/>
<text text-anchor="start" x="1024.04" y="-530.45" font-family="arial" font-size="14.00">15</text>
<polygon fill="none" stroke="black" points="848.75,-500.25 848.75,-524 902.67,-524 902.67,-500.25 848.75,-500.25"/>
<text text-anchor="start" x="871.96" y="-506.7" font-family="arial" font-size="14.00">9</text>
<polygon fill="none" stroke="black" points="902.67,-500.25 902.67,-524 1004.58,-524 1004.58,-500.25 902.67,-500.25"/>
<text text-anchor="start" x="932.62" y="-506.7" font-family="arial" font-size="14.00">Input A</text>
<polygon fill="none" stroke="black" points="1004.58,-500.25 1004.58,-524 1058.5,-524 1058.5,-500.25 1004.58,-500.25"/>
<text text-anchor="start" x="1027.79" y="-506.7" font-family="arial" font-size="14.00">9</text>
<polygon fill="none" stroke="black" points="848.75,-476.5 848.75,-500.25 902.67,-500.25 902.67,-476.5 848.75,-476.5"/>
<text text-anchor="start" x="868.21" y="-482.95" font-family="arial" font-size="14.00">20</text>
<polygon fill="none" stroke="black" points="902.67,-476.5 902.67,-500.25 1004.58,-500.25 1004.58,-476.5 902.67,-476.5"/>
<text text-anchor="start" x="932.25" y="-482.95" font-family="arial" font-size="14.00">Input B</text>
<polygon fill="none" stroke="black" points="1004.58,-476.5 1004.58,-500.25 1058.5,-500.25 1058.5,-476.5 1004.58,-476.5"/>
<text text-anchor="start" x="1024.04" y="-482.95" font-family="arial" font-size="14.00">20</text>
<polygon fill="none" stroke="black" points="848.75,-452.75 848.75,-476.5 902.67,-476.5 902.67,-452.75 848.75,-452.75"/>
<text text-anchor="start" x="868.21" y="-459.2" font-family="arial" font-size="14.00">10</text>
<polygon fill="none" stroke="black" points="902.67,-452.75 902.67,-476.5 1004.58,-476.5 1004.58,-452.75 902.67,-452.75"/>
<text text-anchor="start" x="922.12" y="-459.2" font-family="arial" font-size="14.00">Input Com</text>
<polygon fill="none" stroke="black" points="1004.58,-452.75 1004.58,-476.5 1058.5,-476.5 1058.5,-452.75 1004.58,-452.75"/>
<text text-anchor="start" x="1024.04" y="-459.2" font-family="arial" font-size="14.00">10</text>
<polygon fill="none" stroke="black" points="848.75,-429 848.75,-452.75 1058.5,-452.75 1058.5,-429 848.75,-429"/>
<text text-anchor="start" x="852.75" y="-435.45" font-family="arial" font-size="14.00">MC508 Encoder Port (ATYPE 76)</text>
</g>
<!-- ICOM_SCSI -->
<g id="node12" class="node">
<title>ICOM_SCSI</title>
<polygon fill="#ffffff" stroke="black" points="1481.5,-807.5 1235.5,-807.5 1235.5,-667 1481.5,-667 1481.5,-807.5"/>
<polygon fill="none" stroke="black" points="1235.5,-783.75 1235.5,-807.5 1481.5,-807.5 1481.5,-783.75 1235.5,-783.75"/>
<text text-anchor="start" x="1320.62" y="-790.2" font-family="arial" font-size="14.00">ICOM_SCSI</text>
<polygon fill="none" stroke="black" points="1235.5,-760 1235.5,-783.75 1481.5,-783.75 1481.5,-760 1235.5,-760"/>
<text text-anchor="start" x="1351.38" y="-766.45" font-family="arial" font-size="14.00">1x</text>
<text text-anchor="start" x="1318.5" y="-744.7" font-family="arial" font-size="14.00"> </text>
<text text-anchor="start" x="1237.5" y="-724.95" font-family="arial" font-size="14.00">MC508_ENC:10:Input Com</text>
<text text-anchor="start" x="1407.25" y="-724.95" font-family="arial" font-size="14.00"> &#160;&#160;&#160;&#160;1:WH &#160;&#160;&#160;</text>
<polygon fill="#000000" stroke="none" points="1235.5,-718.5 1235.5,-720.5 1481.5,-720.5 1481.5,-718.5 1235.5,-718.5"/>
<polygon fill="#ffffff" stroke="none" points="1235.5,-716.5 1235.5,-718.5 1481.5,-718.5 1481.5,-716.5 1235.5,-716.5"/>
<polygon fill="#ffffff" stroke="none" points="1235.5,-714.5 1235.5,-716.5 1481.5,-716.5 1481.5,-714.5 1235.5,-714.5"/>
<polygon fill="#ffffff" stroke="none" points="1235.5,-712.5 1235.5,-714.5 1481.5,-714.5 1481.5,-712.5 1235.5,-712.5"/>
<polygon fill="#000000" stroke="none" points="1235.5,-710.5 1235.5,-712.5 1481.5,-712.5 1481.5,-710.5 1235.5,-710.5"/>
<text text-anchor="start" x="1318.5" y="-695.2" font-family="arial" font-size="14.00"> </text>
<polygon fill="none" stroke="black" points="1235.5,-667 1235.5,-690.75 1481.5,-690.75 1481.5,-667 1235.5,-667"/>
<text text-anchor="start" x="1295.12" y="-673.45" font-family="arial" font-size="14.00">Input Com SCSI wire</text>
</g>
<!-- MC508_ENC&#45;&#45;ICOM_SCSI -->
<g id="edge25" class="edge">
<title>MC508_ENC:e&#45;&#45;ICOM_SCSI:w</title>
<path fill="none" stroke="#000000" stroke-width="2" d="M1059.5,-460.63C1199.18,-466.07 1102.28,-716.94 1234.5,-711.5"/>
<path fill="none" stroke="#ffffff" stroke-width="2" d="M1059.5,-462.63C1197.31,-465.35 1100.42,-716.22 1234.5,-713.5"/>
<path fill="none" stroke="#ffffff" stroke-width="2" d="M1059.5,-464.63C1195.45,-464.62 1098.55,-715.5 1234.5,-715.5"/>
<path fill="none" stroke="#ffffff" stroke-width="2" d="M1059.5,-466.62C1193.58,-463.9 1096.69,-714.78 1234.5,-717.5"/>
<path fill="none" stroke="#000000" stroke-width="2" d="M1059.5,-468.62C1191.72,-463.18 1094.82,-714.06 1234.5,-719.5"/>
</g>
<!-- MIC2981 -->
<g id="node3" class="node">
<title>MIC2981</title>
<polygon fill="#ffffff" stroke="black" points="3379.25,-593.12 3129,-593.12 3129,-379.38 3379.25,-379.38 3379.25,-593.12"/>
<polygon fill="none" stroke="black" points="3129,-569.38 3129,-593.12 3379.25,-593.12 3379.25,-569.38 3129,-569.38"/>
<text text-anchor="start" x="3226.38" y="-575.83" font-family="arial" font-size="14.00">MIC2981</text>
<polygon fill="none" stroke="black" points="3129,-545.62 3129,-569.38 3260.12,-569.38 3260.12,-545.62 3129,-545.62"/>
<text text-anchor="start" x="3173.56" y="-552.08" font-family="arial" font-size="14.00">DIP&#45;18</text>
<polygon fill="none" stroke="black" points="3260.12,-545.62 3260.12,-569.38 3379.25,-569.38 3379.25,-545.62 3260.12,-545.62"/>
<text text-anchor="start" x="3304.69" y="-552.08" font-family="arial" font-size="14.00">6&#45;pin</text>
<polygon fill="none" stroke="black" points="3129,-521.88 3129,-545.62 3200.42,-545.62 3200.42,-521.88 3129,-521.88"/>
<text text-anchor="start" x="3160.96" y="-528.33" font-family="arial" font-size="14.00">1</text>
<polygon fill="none" stroke="black" points="3200.42,-521.88 3200.42,-545.62 3307.83,-545.62 3307.83,-521.88 3200.42,-521.88"/>
<text text-anchor="start" x="3235" y="-528.33" font-family="arial" font-size="14.00">In Pos</text>
<polygon fill="none" stroke="black" points="3307.83,-521.88 3307.83,-545.62 3379.25,-545.62 3379.25,-521.88 3307.83,-521.88"/>
<text text-anchor="start" x="3339.79" y="-528.33" font-family="arial" font-size="14.00">1</text>
<polygon fill="none" stroke="black" points="3129,-498.12 3129,-521.88 3200.42,-521.88 3200.42,-498.12 3129,-498.12"/>
<text text-anchor="start" x="3160.96" y="-504.57" font-family="arial" font-size="14.00">2</text>
<polygon fill="none" stroke="black" points="3200.42,-498.12 3200.42,-521.88 3307.83,-521.88 3307.83,-498.12 3200.42,-498.12"/>
<text text-anchor="start" x="3234.25" y="-504.57" font-family="arial" font-size="14.00">In Neg</text>
<polygon fill="none" stroke="black" points="3307.83,-498.12 3307.83,-521.88 3379.25,-521.88 3379.25,-498.12 3307.83,-498.12"/>
<text text-anchor="start" x="3339.79" y="-504.57" font-family="arial" font-size="14.00">2</text>
<polygon fill="none" stroke="black" points="3129,-474.38 3129,-498.12 3200.42,-498.12 3200.42,-474.38 3129,-474.38"/>
<text text-anchor="start" x="3160.96" y="-480.82" font-family="arial" font-size="14.00">9</text>
<polygon fill="none" stroke="black" points="3200.42,-474.38 3200.42,-498.12 3307.83,-498.12 3307.83,-474.38 3200.42,-474.38"/>
<text text-anchor="start" x="3246.25" y="-480.82" font-family="arial" font-size="14.00">Vs</text>
<polygon fill="none" stroke="black" points="3307.83,-474.38 3307.83,-498.12 3379.25,-498.12 3379.25,-474.38 3307.83,-474.38"/>
<text text-anchor="start" x="3339.79" y="-480.82" font-family="arial" font-size="14.00">9</text>
<polygon fill="none" stroke="black" points="3129,-450.62 3129,-474.38 3200.42,-474.38 3200.42,-450.62 3129,-450.62"/>
<text text-anchor="start" x="3157.21" y="-457.07" font-family="arial" font-size="14.00">10</text>
<polygon fill="none" stroke="black" points="3200.42,-450.62 3200.42,-474.38 3307.83,-474.38 3307.83,-450.62 3200.42,-450.62"/>
<text text-anchor="start" x="3238.75" y="-457.07" font-family="arial" font-size="14.00">GND</text>
<polygon fill="none" stroke="black" points="3307.83,-450.62 3307.83,-474.38 3379.25,-474.38 3379.25,-450.62 3307.83,-450.62"/>
<text text-anchor="start" x="3336.04" y="-457.07" font-family="arial" font-size="14.00">10</text>
<polygon fill="none" stroke="black" points="3129,-426.88 3129,-450.62 3200.42,-450.62 3200.42,-426.88 3129,-426.88"/>
<text text-anchor="start" x="3157.58" y="-433.32" font-family="arial" font-size="14.00">11</text>
<polygon fill="none" stroke="black" points="3200.42,-426.88 3200.42,-450.62 3307.83,-450.62 3307.83,-426.88 3200.42,-426.88"/>
<text text-anchor="start" x="3229.38" y="-433.32" font-family="arial" font-size="14.00">Out Pos</text>
<polygon fill="none" stroke="black" points="3307.83,-426.88 3307.83,-450.62 3379.25,-450.62 3379.25,-426.88 3307.83,-426.88"/>
<text text-anchor="start" x="3336.42" y="-433.32" font-family="arial" font-size="14.00">11</text>
<polygon fill="none" stroke="black" points="3129,-403.12 3129,-426.88 3200.42,-426.88 3200.42,-403.12 3129,-403.12"/>
<text text-anchor="start" x="3157.21" y="-409.57" font-family="arial" font-size="14.00">18</text>
<polygon fill="none" stroke="black" points="3200.42,-403.12 3200.42,-426.88 3307.83,-426.88 3307.83,-403.12 3200.42,-403.12"/>
<text text-anchor="start" x="3228.62" y="-409.57" font-family="arial" font-size="14.00">Out Neg</text>
<polygon fill="none" stroke="black" points="3307.83,-403.12 3307.83,-426.88 3379.25,-426.88 3379.25,-403.12 3307.83,-403.12"/>
<text text-anchor="start" x="3336.04" y="-409.57" font-family="arial" font-size="14.00">18</text>
<polygon fill="none" stroke="black" points="3129,-379.38 3129,-403.12 3379.25,-403.12 3379.25,-379.38 3129,-379.38"/>
<text text-anchor="start" x="3133" y="-385.82" font-family="arial" font-size="14.00">MIC2981/82YN High&#45;Side Source Driver</text>
</g>
<!-- UPOS -->
<g id="node10" class="node">
<title>UPOS</title>
<polygon fill="#ffffff" stroke="black" points="3880.62,-604.5 3539.38,-604.5 3539.38,-464 3880.62,-464 3880.62,-604.5"/>
<polygon fill="none" stroke="black" points="3539.38,-580.75 3539.38,-604.5 3880.62,-604.5 3880.62,-580.75 3539.38,-580.75"/>
<text text-anchor="start" x="3690.5" y="-587.2" font-family="arial" font-size="14.00">UPOS</text>
<polygon fill="none" stroke="black" points="3539.38,-557 3539.38,-580.75 3880.62,-580.75 3880.62,-557 3539.38,-557"/>
<text text-anchor="start" x="3702.88" y="-563.45" font-family="arial" font-size="14.00">1x</text>
<text text-anchor="start" x="3602.88" y="-541.7" font-family="arial" font-size="14.00"> </text>
<text text-anchor="start" x="3541.38" y="-521.95" font-family="arial" font-size="14.00">MIC2981:11:Out Pos</text>
<text text-anchor="start" x="3672.12" y="-521.95" font-family="arial" font-size="14.00"> &#160;&#160;&#160;&#160;1:GY &#160;&#160;&#160;</text>
<text text-anchor="start" x="3741.38" y="-521.95" font-family="arial" font-size="14.00">MC508_ENC:9:Input A</text>
<polygon fill="#000000" stroke="none" points="3539.38,-515.5 3539.38,-517.5 3880.62,-517.5 3880.62,-515.5 3539.38,-515.5"/>
<polygon fill="#999999" stroke="none" points="3539.38,-513.5 3539.38,-515.5 3880.62,-515.5 3880.62,-513.5 3539.38,-513.5"/>
<polygon fill="#999999" stroke="none" points="3539.38,-511.5 3539.38,-513.5 3880.62,-513.5 3880.62,-511.5 3539.38,-511.5"/>
<polygon fill="#999999" stroke="none" points="3539.38,-509.5 3539.38,-511.5 3880.62,-511.5 3880.62,-509.5 3539.38,-509.5"/>
<polygon fill="#000000" stroke="none" points="3539.38,-507.5 3539.38,-509.5 3880.62,-509.5 3880.62,-507.5 3539.38,-507.5"/>
<text text-anchor="start" x="3602.88" y="-492.2" font-family="arial" font-size="14.00"> </text>
<polygon fill="none" stroke="black" points="3539.38,-464 3539.38,-487.75 3880.62,-487.75 3880.62,-464 3539.38,-464"/>
<text text-anchor="start" x="3615.12" y="-470.45" font-family="arial" font-size="14.00">MIC2981 out → MC508 Input A</text>
</g>
<!-- MIC2981&#45;&#45;UPOS -->
<g id="edge21" class="edge">
<title>MIC2981:e&#45;&#45;UPOS:w</title>
<path fill="none" stroke="#000000" stroke-width="2" d="M3379.25,-434.75C3461.19,-438.58 3464.42,-512.33 3538.38,-508.5"/>
<path fill="none" stroke="#999999" stroke-width="2" d="M3379.25,-436.75C3459.2,-438.66 3462.42,-512.41 3538.38,-510.5"/>
<path fill="none" stroke="#999999" stroke-width="2" d="M3379.25,-438.75C3457.2,-438.75 3460.43,-512.5 3538.38,-512.5"/>
<path fill="none" stroke="#999999" stroke-width="2" d="M3379.25,-440.75C3455.2,-438.84 3458.43,-512.59 3538.38,-514.5"/>
<path fill="none" stroke="#000000" stroke-width="2" d="M3379.25,-442.75C3453.2,-438.92 3456.43,-512.67 3538.38,-516.5"/>
</g>
<!-- UNEG -->
<g id="node11" class="node">
<title>UNEG</title>
<polygon fill="#ffffff" stroke="black" points="3896.75,-437.5 3523.25,-437.5 3523.25,-297 3896.75,-297 3896.75,-437.5"/>
<polygon fill="none" stroke="black" points="3523.25,-413.75 3523.25,-437.5 3896.75,-437.5 3896.75,-413.75 3523.25,-413.75"/>
<text text-anchor="start" x="3690.12" y="-420.2" font-family="arial" font-size="14.00">UNEG</text>
<polygon fill="none" stroke="black" points="3523.25,-390 3523.25,-413.75 3896.75,-413.75 3896.75,-390 3523.25,-390"/>
<text text-anchor="start" x="3702.88" y="-396.45" font-family="arial" font-size="14.00">1x</text>
<text text-anchor="start" x="3587.88" y="-374.7" font-family="arial" font-size="14.00"> </text>
<text text-anchor="start" x="3525.25" y="-354.95" font-family="arial" font-size="14.00">MIC2981:18:Out Neg</text>
<text text-anchor="start" x="3658.25" y="-354.95" font-family="arial" font-size="14.00"> &#160;&#160;&#160;&#160;1:WHBU &#160;&#160;&#160;</text>
<text text-anchor="start" x="3749.25" y="-354.95" font-family="arial" font-size="14.00">MC508_ENC:20:Input B</text>
<polygon fill="#000000" stroke="none" points="3523.25,-348.5 3523.25,-350.5 3896.75,-350.5 3896.75,-348.5 3523.25,-348.5"/>
<polygon fill="#ffffff" stroke="none" points="3523.25,-346.5 3523.25,-348.5 3896.75,-348.5 3896.75,-346.5 3523.25,-346.5"/>
<polygon fill="#0066ff" stroke="none" points="3523.25,-344.5 3523.25,-346.5 3896.75,-346.5 3896.75,-344.5 3523.25,-344.5"/>
<polygon fill="#ffffff" stroke="none" points="3523.25,-342.5 3523.25,-344.5 3896.75,-344.5 3896.75,-342.5 3523.25,-342.5"/>
<polygon fill="#000000" stroke="none" points="3523.25,-340.5 3523.25,-342.5 3896.75,-342.5 3896.75,-340.5 3523.25,-340.5"/>
<text text-anchor="start" x="3587.88" y="-325.2" font-family="arial" font-size="14.00"> </text>
<polygon fill="none" stroke="black" points="3523.25,-297 3523.25,-320.75 3896.75,-320.75 3896.75,-297 3523.25,-297"/>
<text text-anchor="start" x="3614.75" y="-303.45" font-family="arial" font-size="14.00">MIC2981 out → MC508 Input B</text>
</g>
<!-- MIC2981&#45;&#45;UNEG -->
<g id="edge23" class="edge">
<title>MIC2981:e&#45;&#45;UNEG:w</title>
<path fill="none" stroke="#000000" stroke-width="2" d="M3379.25,-411C3446.32,-414.89 3448.19,-345.39 3523.25,-341.5"/>
<path fill="none" stroke="#ffffff" stroke-width="2" d="M3379.25,-413C3448.31,-414.95 3450.19,-345.45 3523.25,-343.5"/>
<path fill="none" stroke="#0066ff" stroke-width="2" d="M3379.25,-415C3450.31,-415 3452.19,-345.5 3523.25,-345.5"/>
<path fill="none" stroke="#ffffff" stroke-width="2" d="M3379.25,-417C3452.31,-415.05 3454.19,-345.55 3523.25,-347.5"/>
<path fill="none" stroke="#000000" stroke-width="2" d="M3379.25,-419C3454.31,-415.11 3456.18,-345.61 3523.25,-349.5"/>
</g>
<!-- UGND -->
<g id="node15" class="node">
<title>UGND</title>
<polygon fill="#ffffff" stroke="black" points="3801.88,-770.5 3618.12,-770.5 3618.12,-630 3801.88,-630 3801.88,-770.5"/>
<polygon fill="none" stroke="black" points="3618.12,-746.75 3618.12,-770.5 3801.88,-770.5 3801.88,-746.75 3618.12,-746.75"/>
<text text-anchor="start" x="3689.75" y="-753.2" font-family="arial" font-size="14.00">UGND</text>
<polygon fill="none" stroke="black" points="3618.12,-723 3618.12,-746.75 3801.88,-746.75 3801.88,-723 3618.12,-723"/>
<text text-anchor="start" x="3702.88" y="-729.45" font-family="arial" font-size="14.00">1x</text>
<text text-anchor="start" x="3672.62" y="-707.7" font-family="arial" font-size="14.00"> </text>
<text text-anchor="start" x="3620.12" y="-687.95" font-family="arial" font-size="14.00">MIC2981:10:GND</text>
<text text-anchor="start" x="3732.88" y="-687.95" font-family="arial" font-size="14.00"> &#160;&#160;&#160;&#160;1:BK &#160;&#160;&#160;</text>
<polygon fill="#000000" stroke="none" points="3618.12,-681.5 3618.12,-683.5 3801.88,-683.5 3801.88,-681.5 3618.12,-681.5"/>
<polygon fill="#000000" stroke="none" points="3618.12,-679.5 3618.12,-681.5 3801.88,-681.5 3801.88,-679.5 3618.12,-679.5"/>
<polygon fill="#000000" stroke="none" points="3618.12,-677.5 3618.12,-679.5 3801.88,-679.5 3801.88,-677.5 3618.12,-677.5"/>
<polygon fill="#000000" stroke="none" points="3618.12,-675.5 3618.12,-677.5 3801.88,-677.5 3801.88,-675.5 3618.12,-675.5"/>
<polygon fill="#000000" stroke="none" points="3618.12,-673.5 3618.12,-675.5 3801.88,-675.5 3801.88,-673.5 3618.12,-673.5"/>
<text text-anchor="start" x="3672.62" y="-658.2" font-family="arial" font-size="14.00"> </text>
<polygon fill="none" stroke="black" points="3618.12,-630 3618.12,-653.75 3801.88,-653.75 3801.88,-630 3618.12,-630"/>
<text text-anchor="start" x="3632" y="-636.45" font-family="arial" font-size="14.00">MIC2981 GND → 24V 0V</text>
</g>
<!-- MIC2981&#45;&#45;UGND -->
<g id="edge31" class="edge">
<title>MIC2981:e&#45;&#45;UGND:w</title>
<path fill="none" stroke="#000000" stroke-width="2" d="M3379.25,-458.5C3525.96,-463.36 3478.23,-679.36 3617.12,-674.5"/>
<path fill="none" stroke="#000000" stroke-width="2" d="M3379.25,-460.5C3524.01,-462.93 3476.27,-678.93 3617.12,-676.5"/>
<path fill="none" stroke="#000000" stroke-width="2" d="M3379.25,-462.5C3522.05,-462.5 3474.32,-678.5 3617.12,-678.5"/>
<path fill="none" stroke="#000000" stroke-width="2" d="M3379.25,-464.5C3520.1,-462.07 3472.37,-678.07 3617.12,-680.5"/>
<path fill="none" stroke="#000000" stroke-width="2" d="M3379.25,-466.5C3518.15,-461.64 3470.41,-677.64 3617.12,-682.5"/>
</g>
<!-- TIE_0V -->
<g id="node4" class="node">
<title>TIE_0V</title>
<polygon fill="#ffffff" stroke="black" points="1838,-740 1762.5,-740 1762.5,-692.5 1838,-692.5 1838,-740"/>
<polygon fill="none" stroke="black" points="1762.5,-716.25 1762.5,-740 1838,-740 1838,-716.25 1762.5,-716.25"/>
<text text-anchor="start" x="1781.88" y="-722.7" font-family="arial" font-size="14.00">Splice</text>
<polygon fill="none" stroke="black" points="1762.5,-692.5 1762.5,-716.25 1838,-716.25 1838,-692.5 1762.5,-692.5"/>
<text text-anchor="start" x="1766.5" y="-698.95" font-family="arial" font-size="14.00">0V tie point</text>
</g>
<!-- ICOM_TIE -->
<g id="node13" class="node">
<title>ICOM_TIE</title>
<polygon fill="#ffffff" stroke="black" points="2253.25,-857.5 2092.75,-857.5 2092.75,-717 2253.25,-717 2253.25,-857.5"/>
<polygon fill="none" stroke="black" points="2092.75,-833.75 2092.75,-857.5 2253.25,-857.5 2253.25,-833.75 2092.75,-833.75"/>
<text text-anchor="start" x="2140.38" y="-840.2" font-family="arial" font-size="14.00">ICOM_TIE</text>
<polygon fill="none" stroke="black" points="2092.75,-810 2092.75,-833.75 2253.25,-833.75 2253.25,-810 2092.75,-810"/>
<text text-anchor="start" x="2165.88" y="-816.45" font-family="arial" font-size="14.00">1x</text>
<text text-anchor="start" x="2094.75" y="-794.7" font-family="arial" font-size="14.00"> </text>
<text text-anchor="start" x="2102.5" y="-774.95" font-family="arial" font-size="14.00"> &#160;&#160;&#160;&#160;1:BK &#160;&#160;&#160;</text>
<text text-anchor="start" x="2169.5" y="-774.95" font-family="arial" font-size="14.00">EXT24V:2:0V</text>
<polygon fill="#000000" stroke="none" points="2092.75,-768.5 2092.75,-770.5 2253.25,-770.5 2253.25,-768.5 2092.75,-768.5"/>
<polygon fill="#000000" stroke="none" points="2092.75,-766.5 2092.75,-768.5 2253.25,-768.5 2253.25,-766.5 2092.75,-766.5"/>
<polygon fill="#000000" stroke="none" points="2092.75,-764.5 2092.75,-766.5 2253.25,-766.5 2253.25,-764.5 2092.75,-764.5"/>
<polygon fill="#000000" stroke="none" points="2092.75,-762.5 2092.75,-764.5 2253.25,-764.5 2253.25,-762.5 2092.75,-762.5"/>
<polygon fill="#000000" stroke="none" points="2092.75,-760.5 2092.75,-762.5 2253.25,-762.5 2253.25,-760.5 2092.75,-760.5"/>
<text text-anchor="start" x="2094.75" y="-745.2" font-family="arial" font-size="14.00"> </text>
<polygon fill="none" stroke="black" points="2092.75,-717 2092.75,-740.75 2253.25,-740.75 2253.25,-717 2092.75,-717"/>
<text text-anchor="start" x="2108.5" y="-723.45" font-family="arial" font-size="14.00">Input Com → 24V 0V</text>
</g>
<!-- TIE_0V&#45;&#45;ICOM_TIE -->
<g id="edge27" class="edge">
<title>TIE_0V:e&#45;&#45;ICOM_TIE:w</title>
<path fill="none" stroke="#000000" stroke-width="2" d="M1839,-712.25C1957.48,-714.5 1981.46,-763.75 2092.75,-761.5"/>
<path fill="none" stroke="#000000" stroke-width="2" d="M1839,-714.25C1955.68,-715.37 1979.67,-764.62 2092.75,-763.5"/>
<path fill="none" stroke="#000000" stroke-width="2" d="M1839,-716.25C1953.88,-716.25 1977.87,-765.5 2092.75,-765.5"/>
<path fill="none" stroke="#000000" stroke-width="2" d="M1839,-718.25C1952.08,-717.13 1976.07,-766.38 2092.75,-767.5"/>
<path fill="none" stroke="#000000" stroke-width="2" d="M1839,-720.25C1950.29,-718 1974.27,-767.25 2092.75,-769.5"/>
</g>
<!-- EXT24V -->
<g id="node5" class="node">
<title>EXT24V</title>
<polygon fill="#ffffff" stroke="black" points="2582.25,-841.62 2397.25,-841.62 2397.25,-722.88 2582.25,-722.88 2582.25,-841.62"/>
<polygon fill="none" stroke="black" points="2397.25,-817.88 2397.25,-841.62 2582.25,-841.62 2582.25,-817.88 2397.25,-817.88"/>
<text text-anchor="start" x="2464.62" y="-824.33" font-family="arial" font-size="14.00">EXT24V</text>
<polygon fill="none" stroke="black" points="2397.25,-794.12 2397.25,-817.88 2516.38,-817.88 2516.38,-794.12 2397.25,-794.12"/>
<text text-anchor="start" x="2415.19" y="-800.58" font-family="arial" font-size="14.00">Power Supply</text>
<polygon fill="none" stroke="black" points="2516.38,-794.12 2516.38,-817.88 2582.25,-817.88 2582.25,-794.12 2516.38,-794.12"/>
<text text-anchor="start" x="2534.31" y="-800.58" font-family="arial" font-size="14.00">2&#45;pin</text>
<polygon fill="none" stroke="black" points="2397.25,-770.38 2397.25,-794.12 2450.67,-794.12 2450.67,-770.38 2397.25,-770.38"/>
<text text-anchor="start" x="2420.21" y="-776.83" font-family="arial" font-size="14.00">1</text>
<polygon fill="none" stroke="black" points="2450.67,-770.38 2450.67,-794.12 2528.83,-794.12 2528.83,-770.38 2450.67,-770.38"/>
<text text-anchor="start" x="2473.62" y="-776.83" font-family="arial" font-size="14.00">+24V</text>
<polygon fill="none" stroke="black" points="2528.83,-770.38 2528.83,-794.12 2582.25,-794.12 2582.25,-770.38 2528.83,-770.38"/>
<text text-anchor="start" x="2551.79" y="-776.83" font-family="arial" font-size="14.00">1</text>
<polygon fill="none" stroke="black" points="2397.25,-746.62 2397.25,-770.38 2450.67,-770.38 2450.67,-746.62 2397.25,-746.62"/>
<text text-anchor="start" x="2420.21" y="-753.08" font-family="arial" font-size="14.00">2</text>
<polygon fill="none" stroke="black" points="2450.67,-746.62 2450.67,-770.38 2528.83,-770.38 2528.83,-746.62 2450.67,-746.62"/>
<text text-anchor="start" x="2481.5" y="-753.08" font-family="arial" font-size="14.00">0V</text>
<polygon fill="none" stroke="black" points="2528.83,-746.62 2528.83,-770.38 2582.25,-770.38 2582.25,-746.62 2528.83,-746.62"/>
<text text-anchor="start" x="2551.79" y="-753.08" font-family="arial" font-size="14.00">2</text>
<polygon fill="none" stroke="black" points="2397.25,-722.88 2397.25,-746.62 2582.25,-746.62 2582.25,-722.88 2397.25,-722.88"/>
<text text-anchor="start" x="2401.25" y="-729.33" font-family="arial" font-size="14.00">External 24V (MC508 supply)</text>
</g>
<!-- V24 -->
<g id="node14" class="node">
<title>V24</title>
<polygon fill="#ffffff" stroke="black" points="2985,-865.5 2726.25,-865.5 2726.25,-725 2985,-725 2985,-865.5"/>
<polygon fill="none" stroke="black" points="2726.25,-841.75 2726.25,-865.5 2985,-865.5 2985,-841.75 2726.25,-841.75"/>
<text text-anchor="start" x="2843.62" y="-848.2" font-family="arial" font-size="14.00">V24</text>
<polygon fill="none" stroke="black" points="2726.25,-818 2726.25,-841.75 2985,-841.75 2985,-818 2726.25,-818"/>
<text text-anchor="start" x="2848.5" y="-824.45" font-family="arial" font-size="14.00">1x</text>
<text text-anchor="start" x="2775.12" y="-802.7" font-family="arial" font-size="14.00"> </text>
<text text-anchor="start" x="2728.25" y="-782.95" font-family="arial" font-size="14.00">EXT24V:1:+24V</text>
<text text-anchor="start" x="2829.75" y="-782.95" font-family="arial" font-size="14.00"> &#160;&#160;&#160;&#160;1:YE &#160;&#160;&#160;</text>
<text text-anchor="start" x="2896.75" y="-782.95" font-family="arial" font-size="14.00">MIC2981:9:Vs</text>
<polygon fill="#000000" stroke="none" points="2726.25,-776.5 2726.25,-778.5 2985,-778.5 2985,-776.5 2726.25,-776.5"/>
<polygon fill="#ffff00" stroke="none" points="2726.25,-774.5 2726.25,-776.5 2985,-776.5 2985,-774.5 2726.25,-774.5"/>
<polygon fill="#ffff00" stroke="none" points="2726.25,-772.5 2726.25,-774.5 2985,-774.5 2985,-772.5 2726.25,-772.5"/>
<polygon fill="#ffff00" stroke="none" points="2726.25,-770.5 2726.25,-772.5 2985,-772.5 2985,-770.5 2726.25,-770.5"/>
<polygon fill="#000000" stroke="none" points="2726.25,-768.5 2726.25,-770.5 2985,-770.5 2985,-768.5 2726.25,-768.5"/>
<text text-anchor="start" x="2775.12" y="-753.2" font-family="arial" font-size="14.00"> </text>
<polygon fill="none" stroke="black" points="2726.25,-725 2726.25,-748.75 2985,-748.75 2985,-725 2726.25,-725"/>
<text text-anchor="start" x="2791.12" y="-731.45" font-family="arial" font-size="14.00">+24V → MIC2981 Vs</text>
</g>
<!-- EXT24V&#45;&#45;V24 -->
<g id="edge29" class="edge">
<title>EXT24V:e&#45;&#45;V24:w</title>
<path fill="none" stroke="#000000" stroke-width="2" d="M2582.25,-778.25C2644.43,-778.75 2660.19,-770 2726.25,-769.5"/>
<path fill="none" stroke="#ffff00" stroke-width="2" d="M2582.25,-780.25C2645.4,-780.5 2661.16,-771.75 2726.25,-771.5"/>
<path fill="none" stroke="#ffff00" stroke-width="2" d="M2582.25,-782.25C2646.37,-782.25 2662.13,-773.5 2726.25,-773.5"/>
<path fill="none" stroke="#ffff00" stroke-width="2" d="M2582.25,-784.25C2647.34,-784 2663.1,-775.25 2726.25,-775.5"/>
<path fill="none" stroke="#000000" stroke-width="2" d="M2582.25,-786.25C2648.31,-785.75 2664.07,-777 2726.25,-777.5"/>
</g>
<!-- EXT5V -->
<g id="node6" class="node">
<title>EXT5V</title>
<polygon fill="#ffffff" stroke="black" points="1065.25,-202.62 842,-202.62 842,-83.88 1065.25,-83.88 1065.25,-202.62"/>
<polygon fill="none" stroke="black" points="842,-178.88 842,-202.62 1065.25,-202.62 1065.25,-178.88 842,-178.88"/>
<text text-anchor="start" x="932.25" y="-185.32" font-family="arial" font-size="14.00">EXT5V</text>
<polygon fill="none" stroke="black" points="842,-155.12 842,-178.88 980.25,-178.88 980.25,-155.12 842,-155.12"/>
<text text-anchor="start" x="869.5" y="-161.57" font-family="arial" font-size="14.00">Power Supply</text>
<polygon fill="none" stroke="black" points="980.25,-155.12 980.25,-178.88 1065.25,-178.88 1065.25,-155.12 980.25,-155.12"/>
<text text-anchor="start" x="1007.75" y="-161.57" font-family="arial" font-size="14.00">2&#45;pin</text>
<polygon fill="none" stroke="black" points="842,-131.38 842,-155.12 942,-155.12 942,-131.38 842,-131.38"/>
<text text-anchor="start" x="888.25" y="-137.82" font-family="arial" font-size="14.00">1</text>
<polygon fill="none" stroke="black" points="942,-131.38 942,-155.12 1065.25,-155.12 1065.25,-131.38 942,-131.38"/>
<text text-anchor="start" x="991.25" y="-137.82" font-family="arial" font-size="14.00">+5V</text>
<polygon fill="none" stroke="black" points="842,-107.62 842,-131.38 942,-131.38 942,-107.62 842,-107.62"/>
<text text-anchor="start" x="888.25" y="-114.08" font-family="arial" font-size="14.00">2</text>
<polygon fill="none" stroke="black" points="942,-107.62 942,-131.38 1065.25,-131.38 1065.25,-107.62 942,-107.62"/>
<text text-anchor="start" x="988.25" y="-114.08" font-family="arial" font-size="14.00">GND</text>
<polygon fill="none" stroke="black" points="842,-83.88 842,-107.62 1065.25,-107.62 1065.25,-83.88 842,-83.88"/>
<text text-anchor="start" x="846" y="-90.33" font-family="arial" font-size="14.00">External 5V (opto&#45;interrupter power)</text>
</g>
<!-- ENC&#45;&#45;MC508_ENC -->
<g id="edge2" class="edge">
<title>ENC:e&#45;&#45;MC508_ENC:w</title>
<path fill="none" stroke="#000000" stroke-width="2" d="M698,-706.63C762.82,-707.07 779.25,-698.57 847.75,-698.13"/>
<path fill="none" stroke="#000000" stroke-width="2" d="M698,-708.63C763.74,-708.85 780.17,-700.35 847.75,-700.13"/>
<path fill="none" stroke="#000000" stroke-width="2" d="M698,-710.62C764.66,-710.63 781.09,-702.13 847.75,-702.12"/>
<path fill="none" stroke="#000000" stroke-width="2" d="M698,-712.62C765.58,-712.4 782.01,-703.9 847.75,-704.12"/>
<path fill="none" stroke="#000000" stroke-width="2" d="M698,-714.62C766.5,-714.18 782.93,-705.68 847.75,-706.12"/>
</g>
<!-- ENC&#45;&#45;MC508_ENC -->
<g id="edge4" class="edge">
<title>ENC:e&#45;&#45;MC508_ENC:w</title>
<path fill="none" stroke="#000000" stroke-width="2" d="M698,-676.88C763.97,-676.92 780.59,-674.42 847.75,-674.38"/>
<path fill="none" stroke="#895956" stroke-width="2" d="M698,-678.88C764.27,-678.9 780.89,-676.4 847.75,-676.38"/>
<path fill="none" stroke="#895956" stroke-width="2" d="M698,-680.88C764.56,-680.88 781.19,-678.38 847.75,-678.38"/>
<path fill="none" stroke="#895956" stroke-width="2" d="M698,-682.87C764.86,-682.85 781.48,-680.35 847.75,-680.37"/>
<path fill="none" stroke="#000000" stroke-width="2" d="M698,-684.87C765.16,-684.83 781.78,-682.33 847.75,-682.37"/>
</g>
<!-- ENC&#45;&#45;MC508_ENC -->
<g id="edge6" class="edge">
<title>ENC:e&#45;&#45;MC508_ENC:w</title>
<path fill="none" stroke="#000000" stroke-width="2" d="M698,-647.13C765.4,-647.21 782,-650.71 847.75,-650.63"/>
<path fill="none" stroke="#ff0000" stroke-width="2" d="M698,-649.13C764.99,-649.17 781.59,-652.67 847.75,-652.63"/>
<path fill="none" stroke="#ff0000" stroke-width="2" d="M698,-651.12C764.57,-651.12 781.18,-654.62 847.75,-654.62"/>
<path fill="none" stroke="#ff0000" stroke-width="2" d="M698,-653.12C764.16,-653.08 780.76,-656.58 847.75,-656.62"/>
<path fill="none" stroke="#000000" stroke-width="2" d="M698,-655.12C763.75,-655.04 780.35,-658.54 847.75,-658.62"/>
</g>
<!-- ENC&#45;&#45;MC508_ENC -->
<g id="edge8" class="edge">
<title>ENC:e&#45;&#45;MC508_ENC:w</title>
<path fill="none" stroke="#000000" stroke-width="2" d="M698,-617.38C766.7,-617.92 783.07,-627.42 847.75,-626.88"/>
<path fill="none" stroke="#ff8000" stroke-width="2" d="M698,-619.38C765.69,-619.65 782.06,-629.15 847.75,-628.88"/>
<path fill="none" stroke="#ff8000" stroke-width="2" d="M698,-621.38C764.69,-621.38 781.06,-630.88 847.75,-630.88"/>
<path fill="none" stroke="#ff8000" stroke-width="2" d="M698,-623.37C763.69,-623.1 780.06,-632.6 847.75,-632.87"/>
<path fill="none" stroke="#000000" stroke-width="2" d="M698,-625.37C762.68,-624.83 779.05,-634.33 847.75,-634.87"/>
</g>
<!-- ENC&#45;&#45;MC508_ENC -->
<g id="edge10" class="edge">
<title>ENC:e&#45;&#45;MC508_ENC:w</title>
<path fill="none" stroke="#000000" stroke-width="2" d="M698,-587.63C767.7,-588.76 783.63,-604.26 847.75,-603.13"/>
<path fill="none" stroke="#90ee90" stroke-width="2" d="M698,-589.63C766.31,-590.19 782.23,-605.69 847.75,-605.13"/>
<path fill="none" stroke="#90ee90" stroke-width="2" d="M698,-591.62C764.91,-591.62 780.84,-607.12 847.75,-607.12"/>
<path fill="none" stroke="#90ee90" stroke-width="2" d="M698,-593.62C763.52,-593.06 779.44,-608.56 847.75,-609.12"/>
<path fill="none" stroke="#000000" stroke-width="2" d="M698,-595.62C762.12,-594.49 778.05,-609.99 847.75,-611.12"/>
</g>
<!-- ENC&#45;&#45;MC508_ENC -->
<g id="edge12" class="edge">
<title>ENC:e&#45;&#45;MC508_ENC:w</title>
<path fill="none" stroke="#000000" stroke-width="2" d="M698,-557.88C768.5,-559.56 783.77,-581.06 847.75,-579.38"/>
<path fill="none" stroke="#a0dfff" stroke-width="2" d="M698,-559.88C766.87,-560.72 782.14,-582.22 847.75,-581.38"/>
<path fill="none" stroke="#a0dfff" stroke-width="2" d="M698,-561.88C765.24,-561.88 780.51,-583.38 847.75,-583.38"/>
<path fill="none" stroke="#a0dfff" stroke-width="2" d="M698,-563.87C763.61,-563.03 778.88,-584.53 847.75,-585.37"/>
<path fill="none" stroke="#000000" stroke-width="2" d="M698,-565.87C761.98,-564.19 777.25,-585.69 847.75,-587.37"/>
</g>
<!-- ENC&#45;&#45;MC508_ENC -->
<g id="edge14" class="edge">
<title>ENC:e&#45;&#45;MC508_ENC:w</title>
<path fill="none" stroke="#000000" stroke-width="2" d="M698,-528.13C769.21,-530.27 783.62,-557.77 847.75,-555.63"/>
<path fill="none" stroke="#ffff00" stroke-width="2" d="M698,-530.13C767.44,-531.2 781.85,-558.7 847.75,-557.63"/>
<path fill="none" stroke="#ffff00" stroke-width="2" d="M698,-532.13C765.67,-532.12 780.08,-559.62 847.75,-559.63"/>
<path fill="none" stroke="#ffff00" stroke-width="2" d="M698,-534.12C763.9,-533.05 778.31,-560.55 847.75,-561.62"/>
<path fill="none" stroke="#000000" stroke-width="2" d="M698,-536.12C762.13,-533.98 776.54,-561.48 847.75,-563.62"/>
</g>
<!-- ENC&#45;&#45;MC508_ENC -->
<g id="edge16" class="edge">
<title>ENC:e&#45;&#45;MC508_ENC:w</title>
<path fill="none" stroke="#000000" stroke-width="2" d="M698,-498.38C769.92,-500.89 783.27,-534.39 847.75,-531.88"/>
<path fill="none" stroke="#ffffff" stroke-width="2" d="M698,-500.38C768.06,-501.63 781.41,-535.13 847.75,-533.88"/>
<path fill="none" stroke="#895956" stroke-width="2" d="M698,-502.38C766.2,-502.38 779.55,-535.88 847.75,-535.87"/>
<path fill="none" stroke="#ffffff" stroke-width="2" d="M698,-504.37C764.34,-503.12 777.69,-536.62 847.75,-537.87"/>
<path fill="none" stroke="#000000" stroke-width="2" d="M698,-506.37C762.48,-503.86 775.83,-537.36 847.75,-539.87"/>
</g>
<!-- LPOS&#45;&#45;MIC2981 -->
<g id="edge18" class="edge">
<title>LPOS:e&#45;&#45;MIC2981:w</title>
<path fill="none" stroke="#000000" stroke-width="2" d="M1948.75,-345.5C2483.02,-347.34 2601.46,-531.59 3129,-529.75"/>
<path fill="none" stroke="#0066ff" stroke-width="2" d="M1948.75,-347.5C2481.34,-348.42 2599.77,-532.67 3129,-531.75"/>
<path fill="none" stroke="#0066ff" stroke-width="2" d="M1948.75,-349.5C2479.66,-349.5 2598.09,-533.75 3129,-533.75"/>
<path fill="none" stroke="#0066ff" stroke-width="2" d="M1948.75,-351.5C2477.98,-350.58 2596.41,-534.83 3129,-535.75"/>
<path fill="none" stroke="#000000" stroke-width="2" d="M1948.75,-353.5C2476.29,-351.66 2594.73,-535.91 3129,-537.75"/>
</g>
<!-- LNEG&#45;&#45;MIC2981 -->
<g id="edge20" class="edge">
<title>LNEG:e&#45;&#45;MIC2981:w</title>
<path fill="none" stroke="#000000" stroke-width="2" d="M1507.75,-259.5C1803.01,-259.5 1876.82,-260.25 2172,-260.25 2172,-260.25 2172,-260.25 2490.75,-260.25 2645.1,-261.03 2979.39,-506.78 3129,-506"/>
<path fill="none" stroke="#8000ff" stroke-width="2" d="M1507.75,-261.5C1802.99,-261.5 1876.8,-262.25 2172,-262.25 2172,-262.25 2172,-262.25 2490.75,-262.25 2643.92,-262.64 2978.2,-508.39 3129,-508"/>
<path fill="none" stroke="#8000ff" stroke-width="2" d="M1507.75,-263.5C1802.97,-263.5 1876.78,-264.25 2172,-264.25 2172,-264.25 2172,-264.25 2490.75,-264.25 2642.73,-264.25 2977.02,-510 3129,-510"/>
<path fill="none" stroke="#8000ff" stroke-width="2" d="M1507.75,-265.5C1802.95,-265.5 1876.76,-266.25 2172,-266.25 2172,-266.25 2172,-266.25 2490.75,-266.25 2641.55,-265.86 2975.83,-511.61 3129,-512"/>
<path fill="none" stroke="#000000" stroke-width="2" d="M1507.75,-267.5C1802.93,-267.5 1876.74,-268.25 2172,-268.25 2172,-268.25 2172,-268.25 2490.75,-268.25 2640.36,-267.47 2974.65,-513.22 3129,-514"/>
</g>
<!-- UPOS&#45;&#45;MC508_ENC -->
<g id="edge22" class="edge">
<title>UPOS:e&#45;&#45;MC508_ENC:w</title>
<path fill="none" stroke="#000000" stroke-width="2" d="M3881.62,-508.5C3899.27,-513.34 3892.12,-479.93 3877.83,-466.86 3853.73,-441.46 3575.03,-454.59 3540.79,-467.74 3454.51,-496.66 3471.09,-568.68 3380.75,-608.96 3271.25,-652.94 2972.65,-634.24 2856.62,-634.25 1799.25,-634.25 1799.25,-634.25 1799.25,-634.25 1528.12,-633.5 1461.78,-585.93 1207.98,-501.04 1135.7,-475.06 1126.57,-445.7 1057.66,-432.91 1012.25,-423.11 881.22,-400.18 851.56,-431.85 826.39,-455.77 814.72,-512.92 847.75,-508.13"/>
<path fill="none" stroke="#999999" stroke-width="2" d="M3881.62,-510.5C3901.23,-512.92 3894.07,-479.51 3879.23,-465.43 3853.63,-439.46 3574.94,-452.59 3540.08,-465.87 3452.56,-497.11 3469.14,-569.13 3380,-607.1 3271.38,-650.95 2972.77,-632.25 2856.62,-632.25 1799.25,-632.25 1799.25,-632.25 1799.25,-632.25 1529.28,-631.88 1462.95,-584.3 1208.61,-499.15 1137.61,-474.47 1128.48,-445.11 1058.08,-430.95 1012.59,-421.14 881.56,-398.21 850.16,-430.42 824.43,-455.37 812.76,-512.52 847.75,-510.13"/>
<path fill="none" stroke="#999999" stroke-width="2" d="M3881.62,-512.5C3903.19,-512.5 3896.03,-479.09 3880.62,-464 3853.54,-437.47 3574.84,-450.59 3539.38,-464 3450.61,-497.56 3467.19,-569.58 3379.25,-605.25 3271.5,-648.95 2972.9,-630.25 2856.62,-630.25 1799.25,-630.25 1799.25,-630.25 1799.25,-630.25 1530.45,-630.25 1464.12,-582.68 1209.25,-497.25 1139.52,-473.88 1130.39,-444.52 1058.5,-429 1012.94,-419.17 881.91,-396.24 848.75,-429 822.47,-454.97 810.8,-512.12 847.75,-512.12"/>
<path fill="none" stroke="#999999" stroke-width="2" d="M3881.62,-514.5C3905.14,-512.08 3897.98,-478.67 3882.02,-462.57 3853.44,-435.47 3574.75,-448.59 3538.67,-462.13 3448.66,-498.01 3465.24,-570.03 3378.5,-603.4 3271.63,-646.96 2973.02,-628.25 2856.62,-628.25 1799.25,-628.25 1799.25,-628.25 1799.25,-628.25 1531.61,-628.62 1465.28,-581.05 1209.89,-495.35 1141.43,-473.28 1132.3,-443.92 1058.92,-427.05 1013.28,-417.2 882.25,-394.27 847.34,-427.58 820.51,-454.57 808.84,-511.73 847.75,-514.12"/>
<path fill="none" stroke="#000000" stroke-width="2" d="M3881.62,-516.5C3907.1,-511.66 3899.94,-478.25 3883.42,-461.14 3853.35,-433.47 3574.65,-446.6 3537.96,-460.26 3446.71,-498.45 3463.29,-570.48 3377.75,-601.54 3271.75,-644.96 2973.15,-626.26 2856.62,-626.25 1799.25,-626.25 1799.25,-626.25 1799.25,-626.25 1532.78,-627 1466.45,-579.43 1210.52,-493.46 1143.34,-472.69 1134.21,-443.33 1059.34,-425.09 1013.63,-415.23 882.6,-392.3 845.94,-426.15 818.55,-454.17 806.88,-511.33 847.75,-516.12"/>
</g>
<!-- UNEG&#45;&#45;MC508_ENC -->
<g id="edge24" class="edge">
<title>UNEG:e&#45;&#45;MC508_ENC:w</title>
<path fill="none" stroke="#000000" stroke-width="2" d="M3897.75,-341.5C3915.4,-346.34 3908.24,-312.93 3893.95,-299.86 3781.25,-183.38 3692.13,-291.34 3523.45,-301 2822.71,-335.33 2652.92,-422.05 1948.95,-457.25 1816.45,-463.75 1783.26,-459.92 1651.67,-457.25 1387.11,-451.78 1321.53,-438.31 1058.42,-433 1010.95,-431.93 881.04,-400.21 851.55,-431.85 833.85,-448.33 825.27,-489.2 847.75,-484.38"/>
<path fill="none" stroke="#ffffff" stroke-width="2" d="M3897.75,-343.5C3917.35,-345.92 3910.2,-312.51 3895.35,-298.43 3779.71,-182.11 3690.59,-290.07 3523.35,-299 2821.8,-333.55 2652.01,-420.27 1948.85,-455.25 1816.68,-461.76 1783.49,-457.93 1651.71,-455.25 1387.52,-449.82 1321.93,-436.35 1058.46,-431 1011.42,-429.99 881.51,-398.26 850.15,-430.43 831.89,-447.92 823.31,-488.79 847.75,-486.38"/>
<path fill="none" stroke="#0066ff" stroke-width="2" d="M3897.75,-345.5C3919.31,-345.5 3912.15,-312.09 3896.75,-297 3778.17,-180.84 3689.05,-288.79 3523.25,-297 2820.89,-331.76 2651.11,-418.49 1948.75,-453.25 1816.91,-459.78 1783.72,-455.95 1651.75,-453.25 1387.92,-447.86 1322.33,-434.39 1058.5,-429 1011.9,-428.05 881.99,-396.32 848.75,-429 829.93,-447.5 821.36,-488.38 847.75,-488.37"/>
<path fill="none" stroke="#ffffff" stroke-width="2" d="M3897.75,-347.5C3921.27,-345.08 3914.11,-311.67 3898.15,-295.57 3776.62,-179.56 3687.5,-287.52 3523.15,-295 2819.99,-329.98 2650.2,-416.7 1948.65,-451.25 1817.14,-457.79 1783.95,-453.96 1651.79,-451.25 1388.32,-445.9 1322.73,-432.43 1058.54,-427 1012.37,-426.11 882.46,-394.38 847.35,-427.57 827.97,-447.09 819.4,-487.96 847.75,-490.37"/>
<path fill="none" stroke="#000000" stroke-width="2" d="M3897.75,-349.5C3923.22,-344.66 3916.06,-311.25 3899.55,-294.14 3775.08,-178.29 3685.96,-286.25 3523.05,-293 2819.08,-328.2 2649.29,-414.92 1948.55,-449.25 1817.37,-455.8 1784.18,-451.97 1651.83,-449.25 1388.72,-443.94 1323.14,-430.47 1058.58,-425 1012.85,-424.16 882.93,-392.43 845.95,-426.15 826.02,-446.68 817.44,-487.55 847.75,-492.37"/>
</g>
<!-- ICOM_SCSI&#45;&#45;TIE_0V -->
<g id="edge26" class="edge">
<title>ICOM_SCSI:e&#45;&#45;TIE_0V:w</title>
<path fill="none" stroke="#000000" stroke-width="2" d="M1482.5,-711.5C1606.6,-711.5 1637.6,-712.25 1761.5,-712.25"/>
<path fill="none" stroke="#ffffff" stroke-width="2" d="M1482.5,-713.5C1606.55,-713.5 1637.55,-714.25 1761.5,-714.25"/>
<path fill="none" stroke="#ffffff" stroke-width="2" d="M1482.5,-715.5C1606.5,-715.5 1637.5,-716.25 1761.5,-716.25"/>
<path fill="none" stroke="#ffffff" stroke-width="2" d="M1482.5,-717.5C1606.45,-717.5 1637.45,-718.25 1761.5,-718.25"/>
<path fill="none" stroke="#000000" stroke-width="2" d="M1482.5,-719.5C1606.4,-719.5 1637.4,-720.25 1761.5,-720.25"/>
</g>
<!-- ICOM_TIE&#45;&#45;EXT24V -->
<g id="edge28" class="edge">
<title>ICOM_TIE:e&#45;&#45;EXT24V:w</title>
<path fill="none" stroke="#000000" stroke-width="2" d="M2253.25,-761.5C2315.71,-761.84 2331.56,-754.84 2397.25,-754.5"/>
<path fill="none" stroke="#000000" stroke-width="2" d="M2253.25,-763.5C2316.52,-763.67 2332.37,-756.67 2397.25,-756.5"/>
<path fill="none" stroke="#000000" stroke-width="2" d="M2253.25,-765.5C2317.33,-765.5 2333.17,-758.5 2397.25,-758.5"/>
<path fill="none" stroke="#000000" stroke-width="2" d="M2253.25,-767.5C2318.13,-767.33 2333.98,-760.33 2397.25,-760.5"/>
<path fill="none" stroke="#000000" stroke-width="2" d="M2253.25,-769.5C2318.94,-769.16 2334.79,-762.16 2397.25,-762.5"/>
</g>
<!-- V24&#45;&#45;MIC2981 -->
<g id="edge30" class="edge">
<title>V24:e&#45;&#45;MIC2981:w</title>
<path fill="none" stroke="#000000" stroke-width="2" d="M2985,-769.5C3124.22,-775.27 2982.6,-488.02 3129,-482.25"/>
<path fill="none" stroke="#ffff00" stroke-width="2" d="M2985,-771.5C3126.02,-774.38 2984.4,-487.13 3129,-484.25"/>
<path fill="none" stroke="#ffff00" stroke-width="2" d="M2985,-773.5C3127.81,-773.5 2986.19,-486.25 3129,-486.25"/>
<path fill="none" stroke="#ffff00" stroke-width="2" d="M2985,-775.5C3129.6,-772.62 2987.98,-485.37 3129,-488.25"/>
<path fill="none" stroke="#000000" stroke-width="2" d="M2985,-777.5C3131.4,-771.73 2989.78,-484.48 3129,-490.25"/>
</g>
<!-- UGND&#45;&#45;TIE_0V -->
<g id="edge32" class="edge">
<title>UGND:e&#45;&#45;TIE_0V:w</title>
<path fill="none" stroke="#000000" stroke-width="2" d="M3802.88,-674.5C3820.52,-679.34 3813.37,-645.93 3799.08,-632.86 3773.63,-605.32 3659.85,-632.25 3618.29,-634 3512.81,-638.13 3486.61,-645.66 3379.53,-653.24 3148.12,-669.36 3090.3,-684.13 2856.62,-684.25 2488.75,-684.25 2488.75,-684.25 2488.75,-684.25 2313.07,-684.19 2268.9,-691.71 2093.15,-709.23 1981.05,-720.04 1954.02,-735.72 1838.27,-743.99 1807.57,-744.86 1789.77,-765.81 1759.73,-742.89 1750.98,-733.62 1747.05,-717.18 1761.5,-712.25"/>
<path fill="none" stroke="#000000" stroke-width="2" d="M3802.88,-676.5C3822.48,-678.92 3815.32,-645.51 3800.48,-631.43 3773.17,-603.37 3659.39,-630.3 3618.21,-632 3512.25,-636.2 3486.05,-643.74 3379.39,-651.25 3147.63,-667.42 3089.81,-682.19 2856.62,-682.25 2488.75,-682.25 2488.75,-682.25 2488.75,-682.25 2312.74,-682.22 2268.57,-689.74 2092.95,-707.24 1980.05,-718.31 1953.01,-733.99 1838.14,-742 1806.05,-743.57 1788.25,-764.52 1761.12,-741.44 1752.93,-733.15 1748.99,-716.72 1761.5,-714.25"/>
<path fill="none" stroke="#000000" stroke-width="2" d="M3802.88,-678.5C3824.44,-678.5 3817.28,-645.09 3801.88,-630 3772.71,-601.43 3658.93,-628.36 3618.12,-630 3511.7,-634.28 3485.5,-641.82 3379.25,-649.25 3147.13,-665.49 3089.31,-680.25 2856.62,-680.25 2488.75,-680.25 2488.75,-680.25 2488.75,-680.25 2312.4,-680.25 2268.23,-687.77 2092.75,-705.25 1979.04,-716.58 1952.01,-732.26 1838,-740 1804.52,-742.27 1786.72,-763.22 1762.5,-740 1754.87,-732.69 1750.94,-716.25 1761.5,-716.25"/>
<path fill="none" stroke="#000000" stroke-width="2" d="M3802.88,-680.5C3826.39,-678.08 3819.23,-644.67 3803.27,-628.57 3772.24,-599.48 3658.46,-626.41 3618.04,-628 3511.15,-632.36 3484.95,-639.9 3379.11,-647.25 3146.64,-663.55 3088.82,-678.31 2856.62,-678.25 2488.75,-678.25 2488.75,-678.25 2488.75,-678.25 2312.06,-678.28 2267.9,-685.79 2092.55,-703.26 1978.04,-714.85 1951,-730.53 1837.86,-738 1803,-740.98 1785.2,-761.93 1763.88,-738.56 1756.82,-732.22 1752.88,-715.78 1761.5,-718.25"/>
<path fill="none" stroke="#000000" stroke-width="2" d="M3802.88,-682.5C3828.35,-677.66 3821.19,-644.25 3804.67,-627.14 3771.78,-597.53 3658,-624.47 3617.96,-626 3510.59,-630.44 3484.4,-637.97 3378.97,-645.26 3146.14,-661.61 3088.32,-676.37 2856.62,-676.25 2488.75,-676.25 2488.75,-676.25 2488.75,-676.25 2311.73,-676.31 2267.56,-683.82 2092.35,-701.27 1977.04,-713.12 1950,-728.8 1837.73,-736.01 1801.47,-739.68 1783.67,-760.63 1765.27,-737.11 1758.76,-731.76 1754.82,-715.32 1761.5,-720.25"/>
</g>
<!-- LPWR&#45;&#45;EXT5V -->
<g id="edge34" class="edge">
<title>LPWR:e&#45;&#45;EXT5V:w</title>
<path fill="none" stroke="#000000" stroke-width="2" d="M634.5,-209.5C727.93,-212.78 740.7,-142.53 842,-139.25"/>
<path fill="none" stroke="#ff0000" stroke-width="2" d="M634.5,-211.5C729.9,-213.14 742.67,-142.89 842,-141.25"/>
<path fill="none" stroke="#ff0000" stroke-width="2" d="M634.5,-213.5C731.86,-213.5 744.64,-143.25 842,-143.25"/>
<path fill="none" stroke="#ff0000" stroke-width="2" d="M634.5,-215.5C733.83,-213.86 746.6,-143.61 842,-145.25"/>
<path fill="none" stroke="#000000" stroke-width="2" d="M634.5,-217.5C735.8,-214.22 748.57,-143.97 842,-147.25"/>
</g>
<!-- LGND&#45;&#45;EXT5V -->
<g id="edge36" class="edge">
<title>LGND:e&#45;&#45;EXT5V:w</title>
<path fill="none" stroke="#000000" stroke-width="2" d="M637.12,-44.5C737.44,-47.83 749.57,-118.83 842,-115.5"/>
<path fill="none" stroke="#000000" stroke-width="2" d="M637.12,-46.5C735.46,-48.16 747.6,-119.16 842,-117.5"/>
<path fill="none" stroke="#000000" stroke-width="2" d="M637.12,-48.5C733.49,-48.5 745.63,-119.5 842,-119.5"/>
<path fill="none" stroke="#000000" stroke-width="2" d="M637.12,-50.5C731.52,-48.84 743.66,-119.84 842,-121.5"/>
<path fill="none" stroke="#000000" stroke-width="2" d="M637.12,-52.5C729.55,-49.17 741.69,-120.17 842,-123.5"/>
</g>
</g>
</svg>
