<?xml version="1.0" encoding="UTF-8" standalone="no"?>
<!DOCTYPE svg PUBLIC "-//W3C//DTD SVG 1.1//EN"
 "http://www.w3.org/Graphics/SVG/1.1/DTD/svg11.dtd">
<!-- Generated by graphviz version 12.2.1 (20241206.2353)
 -->
<!-- Pages: 1 -->
<svg width="3302pt" height="883pt"
 viewBox="0.00 0.00 3301.87 882.50" xmlns="http://www.w3.org/2000/svg" xmlns:xlink="http://www.w3.org/1999/xlink">
<g id="graph0" class="graph" transform="scale(1 1) rotate(0) translate(4 878.5)">
<polygon fill="#ffffff" stroke="none" points="-4,4 -4,-878.5 3297.87,-878.5 3297.87,4 -4,4"/>
<!-- DB25 -->
<g id="node1" class="node">
<title>DB25</title>
<polygon fill="#ffffff" stroke="black" points="183.5,-737.25 0,-737.25 0,-357.25 183.5,-357.25 183.5,-737.25"/>
<polygon fill="none" stroke="black" points="0,-713.5 0,-737.25 183.5,-737.25 183.5,-713.5 0,-713.5"/>
<text text-anchor="start" x="74.88" y="-719.95" font-family="arial" font-size="14.00">DB25</text>
<polygon fill="none" stroke="black" points="0,-689.75 0,-713.5 99.17,-713.5 99.17,-689.75 0,-689.75"/>
<text text-anchor="start" x="4.21" y="-696.2" font-family="arial" font-size="14.00">D&#45;Sub 25 Male</text>
<polygon fill="none" stroke="black" points="99.17,-689.75 99.17,-713.5 137.58,-713.5 137.58,-689.75 99.17,-689.75"/>
<text text-anchor="start" x="103.38" y="-696.2" font-family="arial" font-size="14.00">male</text>
<polygon fill="none" stroke="black" points="137.58,-689.75 137.58,-713.5 183.5,-713.5 183.5,-689.75 137.58,-689.75"/>
<text text-anchor="start" x="141.79" y="-696.2" font-family="arial" font-size="14.00">13&#45;pin</text>
<polygon fill="none" stroke="black" points="0,-666 0,-689.75 116.12,-689.75 116.12,-666 0,-666"/>
<text text-anchor="start" x="36.31" y="-672.45" font-family="arial" font-size="14.00">Enc A+</text>
<polygon fill="none" stroke="black" points="116.12,-666 116.12,-689.75 183.5,-689.75 183.5,-666 116.12,-666"/>
<text text-anchor="start" x="146.06" y="-672.45" font-family="arial" font-size="14.00">1</text>
<polygon fill="none" stroke="black" points="0,-642.25 0,-666 116.12,-666 116.12,-642.25 0,-642.25"/>
<text text-anchor="start" x="38.19" y="-648.7" font-family="arial" font-size="14.00">Enc A&#45;</text>
<polygon fill="none" stroke="black" points="116.12,-642.25 116.12,-666 183.5,-666 183.5,-642.25 116.12,-642.25"/>
<text text-anchor="start" x="142.31" y="-648.7" font-family="arial" font-size="14.00">14</text>
<polygon fill="none" stroke="black" points="0,-618.5 0,-642.25 116.12,-642.25 116.12,-618.5 0,-618.5"/>
<text text-anchor="start" x="35.94" y="-624.95" font-family="arial" font-size="14.00">Enc B+</text>
<polygon fill="none" stroke="black" points="116.12,-618.5 116.12,-642.25 183.5,-642.25 183.5,-618.5 116.12,-618.5"/>
<text text-anchor="start" x="146.06" y="-624.95" font-family="arial" font-size="14.00">2</text>
<polygon fill="none" stroke="black" points="0,-594.75 0,-618.5 116.12,-618.5 116.12,-594.75 0,-594.75"/>
<text text-anchor="start" x="37.81" y="-601.2" font-family="arial" font-size="14.00">Enc B&#45;</text>
<polygon fill="none" stroke="black" points="116.12,-594.75 116.12,-618.5 183.5,-618.5 183.5,-594.75 116.12,-594.75"/>
<text text-anchor="start" x="142.31" y="-601.2" font-family="arial" font-size="14.00">15</text>
<polygon fill="none" stroke="black" points="0,-571 0,-594.75 116.12,-594.75 116.12,-571 0,-571"/>
<text text-anchor="start" x="36.31" y="-577.45" font-family="arial" font-size="14.00">Enc Z+</text>
<polygon fill="none" stroke="black" points="116.12,-571 116.12,-594.75 183.5,-594.75 183.5,-571 116.12,-571"/>
<text text-anchor="start" x="146.06" y="-577.45" font-family="arial" font-size="14.00">3</text>
<polygon fill="none" stroke="black" points="0,-547.25 0,-571 116.12,-571 116.12,-547.25 0,-547.25"/>
<text text-anchor="start" x="38.19" y="-553.7" font-family="arial" font-size="14.00">Enc Z&#45;</text>
<polygon fill="none" stroke="black" points="116.12,-547.25 116.12,-571 183.5,-571 183.5,-547.25 116.12,-547.25"/>
<text text-anchor="start" x="142.31" y="-553.7" font-family="arial" font-size="14.00">16</text>
<polygon fill="none" stroke="black" points="0,-523.5 0,-547.25 116.12,-547.25 116.12,-523.5 0,-523.5"/>
<text text-anchor="start" x="45.69" y="-529.95" font-family="arial" font-size="14.00">+5V</text>
<polygon fill="none" stroke="black" points="116.12,-523.5 116.12,-547.25 183.5,-547.25 183.5,-523.5 116.12,-523.5"/>
<text text-anchor="start" x="146.06" y="-529.95" font-family="arial" font-size="14.00">4</text>
<polygon fill="none" stroke="black" points="0,-499.75 0,-523.5 116.12,-523.5 116.12,-499.75 0,-499.75"/>
<text text-anchor="start" x="30.69" y="-506.2" font-family="arial" font-size="14.00">Dig GND</text>
<polygon fill="none" stroke="black" points="116.12,-499.75 116.12,-523.5 183.5,-523.5 183.5,-499.75 116.12,-499.75"/>
<text text-anchor="start" x="142.31" y="-506.2" font-family="arial" font-size="14.00">17</text>
<polygon fill="none" stroke="black" points="0,-476 0,-499.75 116.12,-499.75 116.12,-476 0,-476"/>
<text text-anchor="start" x="28.81" y="-482.45" font-family="arial" font-size="14.00">Fwd Limit</text>
<polygon fill="none" stroke="black" points="116.12,-476 116.12,-499.75 183.5,-499.75 183.5,-476 116.12,-476"/>
<text text-anchor="start" x="142.31" y="-482.45" font-family="arial" font-size="14.00">10</text>
<polygon fill="none" stroke="black" points="0,-452.25 0,-476 116.12,-476 116.12,-452.25 0,-452.25"/>
<text text-anchor="start" x="29.56" y="-458.7" font-family="arial" font-size="14.00">Rev Limit</text>
<polygon fill="none" stroke="black" points="116.12,-452.25 116.12,-476 183.5,-476 183.5,-452.25 116.12,-452.25"/>
<text text-anchor="start" x="142.31" y="-458.7" font-family="arial" font-size="14.00">12</text>
<polygon fill="none" stroke="black" points="0,-428.5 0,-452.25 116.12,-452.25 116.12,-428.5 0,-428.5"/>
<text text-anchor="start" x="44.94" y="-434.95" font-family="arial" font-size="14.00">Viso</text>
<polygon fill="none" stroke="black" points="116.12,-428.5 116.12,-452.25 183.5,-452.25 183.5,-428.5 116.12,-428.5"/>
<text text-anchor="start" x="142.31" y="-434.95" font-family="arial" font-size="14.00">13</text>
<polygon fill="none" stroke="black" points="0,-404.75 0,-428.5 116.12,-428.5 116.12,-404.75 0,-404.75"/>
<text text-anchor="start" x="44.56" y="-411.2" font-family="arial" font-size="14.00">Ciso</text>
<polygon fill="none" stroke="black" points="116.12,-404.75 116.12,-428.5 183.5,-428.5 183.5,-404.75 116.12,-404.75"/>
<text text-anchor="start" x="142.31" y="-411.2" font-family="arial" font-size="14.00">22</text>
<polygon fill="none" stroke="black" points="0,-381 0,-404.75 116.12,-404.75 116.12,-381 0,-381"/>
<text text-anchor="start" x="26.19" y="-387.45" font-family="arial" font-size="14.00">Home N/C</text>
<polygon fill="none" stroke="black" points="116.12,-381 116.12,-404.75 183.5,-404.75 183.5,-381 116.12,-381"/>
<text text-anchor="start" x="142.69" y="-387.45" font-family="arial" font-size="14.00">11</text>
<polygon fill="none" stroke="black" points="0,-357.25 0,-381 183.5,-381 183.5,-357.25 0,-357.25"/>
<text text-anchor="start" x="4" y="-363.7" font-family="arial" font-size="14.00">Stage cable (from UMI&#45;7774)</text>
</g>
<!-- ENC -->
<g id="node6" class="node">
<title>ENC</title>
<polygon fill="#ffffff" stroke="black" points="684.5,-802.62 327.5,-802.62 327.5,-453.88 684.5,-453.88 684.5,-802.62"/>
<polygon fill="none" stroke="black" points="327.5,-778.88 327.5,-802.62 684.5,-802.62 684.5,-778.88 327.5,-778.88"/>
<text text-anchor="start" x="491.75" y="-785.33" font-family="arial" font-size="14.00">ENC</text>
<polygon fill="none" stroke="black" points="327.5,-755.12 327.5,-778.88 684.5,-778.88 684.5,-755.12 327.5,-755.12"/>
<text text-anchor="start" x="498.88" y="-761.58" font-family="arial" font-size="14.00">8x</text>
<text text-anchor="start" x="383.12" y="-739.83" font-family="arial" font-size="14.00"> </text>
<text text-anchor="start" x="338.88" y="-720.08" font-family="arial" font-size="14.00">DB25:1:Enc A+</text>
<text text-anchor="start" x="456.5" y="-720.08" font-family="arial" font-size="14.00"> &#160;&#160;&#160;&#160;1:BK &#160;&#160;&#160;</text>
<text text-anchor="start" x="539.62" y="-720.08" font-family="arial" font-size="14.00">MC508_ENC:1:Enc A+</text>
<polygon fill="#000000" stroke="none" points="327.5,-713.62 327.5,-715.62 684.5,-715.62 684.5,-713.62 327.5,-713.62"/>
<polygon fill="#000000" stroke="none" points="327.5,-711.62 327.5,-713.62 684.5,-713.62 684.5,-711.62 327.5,-711.62"/>
<polygon fill="#000000" stroke="none" points="327.5,-709.62 327.5,-711.62 684.5,-711.62 684.5,-709.62 327.5,-709.62"/>
<polygon fill="#000000" stroke="none" points="327.5,-707.62 327.5,-709.62 684.5,-709.62 684.5,-707.62 327.5,-707.62"/>
<polygon fill="#000000" stroke="none" points="327.5,-705.62 327.5,-707.62 684.5,-707.62 684.5,-705.62 327.5,-705.62"/>
<text text-anchor="start" x="337" y="-690.33" font-family="arial" font-size="14.00">DB25:14:Enc A&#45;</text>
<text text-anchor="start" x="456.12" y="-690.33" font-family="arial" font-size="14.00"> &#160;&#160;&#160;&#160;2:BN &#160;&#160;&#160;</text>
<text text-anchor="start" x="541.88" y="-690.33" font-family="arial" font-size="14.00">MC508_ENC:2:/Enc A</text>
<polygon fill="#000000" stroke="none" points="327.5,-683.88 327.5,-685.88 684.5,-685.88 684.5,-683.88 327.5,-683.88"/>
<polygon fill="#895956" stroke="none" points="327.5,-681.88 327.5,-683.88 684.5,-683.88 684.5,-681.88 327.5,-681.88"/>
<polygon fill="#895956" stroke="none" points="327.5,-679.88 327.5,-681.88 684.5,-681.88 684.5,-679.88 327.5,-679.88"/>
<polygon fill="#895956" stroke="none" points="327.5,-677.88 327.5,-679.88 684.5,-679.88 684.5,-677.88 327.5,-677.88"/>
<polygon fill="#000000" stroke="none" points="327.5,-675.88 327.5,-677.88 684.5,-677.88 684.5,-675.88 327.5,-675.88"/>
<text text-anchor="start" x="338.5" y="-660.58" font-family="arial" font-size="14.00">DB25:2:Enc B+</text>
<text text-anchor="start" x="455.75" y="-660.58" font-family="arial" font-size="14.00"> &#160;&#160;&#160;&#160;3:RD &#160;&#160;&#160;</text>
<text text-anchor="start" x="539.25" y="-660.58" font-family="arial" font-size="14.00">MC508_ENC:3:Enc B+</text>
<polygon fill="#000000" stroke="none" points="327.5,-654.12 327.5,-656.12 684.5,-656.12 684.5,-654.12 327.5,-654.12"/>
<polygon fill="#ff0000" stroke="none" points="327.5,-652.12 327.5,-654.12 684.5,-654.12 684.5,-652.12 327.5,-652.12"/>
<polygon fill="#ff0000" stroke="none" points="327.5,-650.12 327.5,-652.12 684.5,-652.12 684.5,-650.12 327.5,-650.12"/>
<polygon fill="#ff0000" stroke="none" points="327.5,-648.12 327.5,-650.12 684.5,-650.12 684.5,-648.12 327.5,-648.12"/>
<polygon fill="#000000" stroke="none" points="327.5,-646.12 327.5,-648.12 684.5,-648.12 684.5,-646.12 327.5,-646.12"/>
<text text-anchor="start" x="336.62" y="-630.83" font-family="arial" font-size="14.00">DB25:15:Enc B&#45;</text>
<text text-anchor="start" x="454.25" y="-630.83" font-family="arial" font-size="14.00"> &#160;&#160;&#160;&#160;4:OG &#160;&#160;&#160;</text>
<text text-anchor="start" x="541.5" y="-630.83" font-family="arial" font-size="14.00">MC508_ENC:4:/Enc B</text>
<polygon fill="#000000" stroke="none" points="327.5,-624.38 327.5,-626.38 684.5,-626.38 684.5,-624.38 327.5,-624.38"/>
<polygon fill="#ff8000" stroke="none" points="327.5,-622.38 327.5,-624.38 684.5,-624.38 684.5,-622.38 327.5,-622.38"/>
<polygon fill="#ff8000" stroke="none" points="327.5,-620.38 327.5,-622.38 684.5,-622.38 684.5,-620.38 327.5,-620.38"/>
<polygon fill="#ff8000" stroke="none" points="327.5,-618.38 327.5,-620.38 684.5,-620.38 684.5,-618.38 327.5,-618.38"/>
<polygon fill="#000000" stroke="none" points="327.5,-616.38 327.5,-618.38 684.5,-618.38 684.5,-616.38 327.5,-616.38"/>
<text text-anchor="start" x="338.88" y="-601.08" font-family="arial" font-size="14.00">DB25:3:Enc Z+</text>
<text text-anchor="start" x="446" y="-601.08" font-family="arial" font-size="14.00"> &#160;&#160;&#160;&#160;5:GNYE &#160;&#160;&#160;</text>
<text text-anchor="start" x="536.25" y="-601.08" font-family="arial" font-size="14.00">MC508_ENC:11:Enc Z+</text>
<polygon fill="#000000" stroke="none" points="327.5,-594.62 327.5,-596.62 684.5,-596.62 684.5,-594.62 327.5,-594.62"/>
<polygon fill="#00ff00" stroke="none" points="327.5,-592.62 327.5,-594.62 684.5,-594.62 684.5,-592.62 327.5,-592.62"/>
<polygon fill="#ffff00" stroke="none" points="327.5,-590.62 327.5,-592.62 684.5,-592.62 684.5,-590.62 327.5,-590.62"/>
<polygon fill="#00ff00" stroke="none" points="327.5,-588.62 327.5,-590.62 684.5,-590.62 684.5,-588.62 327.5,-588.62"/>
<polygon fill="#000000" stroke="none" points="327.5,-586.62 327.5,-588.62 684.5,-588.62 684.5,-586.62 327.5,-586.62"/>
<text text-anchor="start" x="337" y="-571.33" font-family="arial" font-size="14.00">DB25:16:Enc Z&#45;</text>
<text text-anchor="start" x="447.88" y="-571.33" font-family="arial" font-size="14.00"> &#160;&#160;&#160;&#160;6:LBBU &#160;&#160;&#160;</text>
<text text-anchor="start" x="538.12" y="-571.33" font-family="arial" font-size="14.00">MC508_ENC:12:/Enc Z</text>
<polygon fill="#000000" stroke="none" points="327.5,-564.88 327.5,-566.88 684.5,-566.88 684.5,-564.88 327.5,-564.88"/>
<polygon fill="#a0dfff" stroke="none" points="327.5,-562.88 327.5,-564.88 684.5,-564.88 684.5,-562.88 327.5,-562.88"/>
<polygon fill="#0066ff" stroke="none" points="327.5,-560.88 327.5,-562.88 684.5,-562.88 684.5,-560.88 327.5,-560.88"/>
<polygon fill="#a0dfff" stroke="none" points="327.5,-558.88 327.5,-560.88 684.5,-560.88 684.5,-558.88 327.5,-558.88"/>
<polygon fill="#000000" stroke="none" points="327.5,-556.88 327.5,-558.88 684.5,-558.88 684.5,-556.88 327.5,-556.88"/>
<text text-anchor="start" x="348.25" y="-541.58" font-family="arial" font-size="14.00">DB25:4:+5V</text>
<text text-anchor="start" x="456.5" y="-541.58" font-family="arial" font-size="14.00"> &#160;&#160;&#160;&#160;7:YE &#160;&#160;&#160;</text>
<text text-anchor="start" x="535.5" y="-541.58" font-family="arial" font-size="14.00">MC508_ENC:5:+5V Enc</text>
<polygon fill="#000000" stroke="none" points="327.5,-535.12 327.5,-537.12 684.5,-537.12 684.5,-535.12 327.5,-535.12"/>
<polygon fill="#ffff00" stroke="none" points="327.5,-533.12 327.5,-535.12 684.5,-535.12 684.5,-533.12 327.5,-533.12"/>
<polygon fill="#ffff00" stroke="none" points="327.5,-531.12 327.5,-533.12 684.5,-533.12 684.5,-531.12 327.5,-531.12"/>
<polygon fill="#ffff00" stroke="none" points="327.5,-529.12 327.5,-531.12 684.5,-531.12 684.5,-529.12 327.5,-529.12"/>
<polygon fill="#000000" stroke="none" points="327.5,-527.12 327.5,-529.12 684.5,-529.12 684.5,-527.12 327.5,-527.12"/>
<text text-anchor="start" x="329.5" y="-511.82" font-family="arial" font-size="14.00">DB25:17:Dig GND</text>
<text text-anchor="start" x="444.5" y="-511.82" font-family="arial" font-size="14.00"> &#160;&#160;&#160;&#160;8:BNWH &#160;&#160;&#160;</text>
<text text-anchor="start" x="549.38" y="-511.82" font-family="arial" font-size="14.00">MC508_ENC:15:0V</text>
<polygon fill="#000000" stroke="none" points="327.5,-505.38 327.5,-507.38 684.5,-507.38 684.5,-505.38 327.5,-505.38"/>
<polygon fill="#895956" stroke="none" points="327.5,-503.38 327.5,-505.38 684.5,-505.38 684.5,-503.38 327.5,-503.38"/>
<polygon fill="#ffffff" stroke="none" points="327.5,-501.38 327.5,-503.38 684.5,-503.38 684.5,-501.38 327.5,-501.38"/>
<polygon fill="#895956" stroke="none" points="327.5,-499.38 327.5,-501.38 684.5,-501.38 684.5,-499.38 327.5,-499.38"/>
<polygon fill="#000000" stroke="none" points="327.5,-497.38 327.5,-499.38 684.5,-499.38 684.5,-497.38 327.5,-497.38"/>
<text text-anchor="start" x="383.12" y="-482.07" font-family="arial" font-size="14.00"> </text>
<polygon fill="none" stroke="black" points="327.5,-453.88 327.5,-477.62 684.5,-477.62 684.5,-453.88 327.5,-453.88"/>
<text text-anchor="start" x="428.38" y="-460.32" font-family="arial" font-size="14.00">Encoder adapter (8 wires)</text>
</g>
<!-- DB25&#45;&#45;ENC -->
<g id="edge1" class="edge">
<title>DB25:e&#45;&#45;ENC:w</title>
<path fill="none" stroke="#000000" stroke-width="2" d="M183.5,-673.88C252.86,-676.43 265.59,-709.18 327.5,-706.63"/>
<path fill="none" stroke="#000000" stroke-width="2" d="M183.5,-675.88C251,-677.15 263.73,-709.9 327.5,-708.63"/>
<path fill="none" stroke="#000000" stroke-width="2" d="M183.5,-677.88C249.13,-677.88 261.87,-710.62 327.5,-710.62"/>
<path fill="none" stroke="#000000" stroke-width="2" d="M183.5,-679.87C247.27,-678.6 260,-711.35 327.5,-712.62"/>
<path fill="none" stroke="#000000" stroke-width="2" d="M183.5,-681.87C245.41,-679.32 258.14,-712.07 327.5,-714.62"/>
</g>
<!-- DB25&#45;&#45;ENC -->
<g id="edge3" class="edge">
<title>DB25:e&#45;&#45;ENC:w</title>
<path fill="none" stroke="#000000" stroke-width="2" d="M183.5,-650.13C252.15,-652.29 265.96,-679.04 327.5,-676.88"/>
<path fill="none" stroke="#895956" stroke-width="2" d="M183.5,-652.13C250.37,-653.21 264.18,-679.96 327.5,-678.88"/>
<path fill="none" stroke="#895956" stroke-width="2" d="M183.5,-654.12C248.59,-654.12 262.41,-680.88 327.5,-680.88"/>
<path fill="none" stroke="#895956" stroke-width="2" d="M183.5,-656.12C246.82,-655.04 260.63,-681.79 327.5,-682.87"/>
<path fill="none" stroke="#000000" stroke-width="2" d="M183.5,-658.12C245.04,-655.96 258.85,-682.71 327.5,-684.87"/>
</g>
<!-- DB25&#45;&#45;ENC -->
<g id="edge5" class="edge">
<title>DB25:e&#45;&#45;ENC:w</title>
<path fill="none" stroke="#000000" stroke-width="2" d="M183.5,-626.38C251.43,-628.07 266.1,-648.82 327.5,-647.13"/>
<path fill="none" stroke="#ff0000" stroke-width="2" d="M183.5,-628.38C249.79,-629.22 264.47,-649.97 327.5,-649.13"/>
<path fill="none" stroke="#ff0000" stroke-width="2" d="M183.5,-630.38C248.16,-630.38 262.84,-651.13 327.5,-651.12"/>
<path fill="none" stroke="#ff0000" stroke-width="2" d="M183.5,-632.37C246.53,-631.53 261.21,-652.28 327.5,-653.12"/>
<path fill="none" stroke="#000000" stroke-width="2" d="M183.5,-634.37C244.9,-632.68 259.57,-653.43 327.5,-655.12"/>
</g>
<!-- DB25&#45;&#45;ENC -->
<g id="edge7" class="edge">
<title>DB25:e&#45;&#45;ENC:w</title>
<path fill="none" stroke="#000000" stroke-width="2" d="M183.5,-602.63C250.61,-603.74 265.94,-618.49 327.5,-617.38"/>
<path fill="none" stroke="#ff8000" stroke-width="2" d="M183.5,-604.63C249.22,-605.18 264.55,-619.93 327.5,-619.38"/>
<path fill="none" stroke="#ff8000" stroke-width="2" d="M183.5,-606.62C247.83,-606.62 263.17,-621.37 327.5,-621.37"/>
<path fill="none" stroke="#ff8000" stroke-width="2" d="M183.5,-608.62C246.45,-608.07 261.78,-622.82 327.5,-623.37"/>
<path fill="none" stroke="#000000" stroke-width="2" d="M183.5,-610.62C245.06,-609.51 260.39,-624.26 327.5,-625.37"/>
</g>
<!-- DB25&#45;&#45;ENC -->
<g id="edge9" class="edge">
<title>DB25:e&#45;&#45;ENC:w</title>
<path fill="none" stroke="#000000" stroke-width="2" d="M183.5,-578.88C249.56,-579.38 265.32,-588.13 327.5,-587.63"/>
<path fill="none" stroke="#00ff00" stroke-width="2" d="M183.5,-580.88C248.59,-581.13 264.35,-589.88 327.5,-589.63"/>
<path fill="none" stroke="#ffff00" stroke-width="2" d="M183.5,-582.88C247.62,-582.87 263.38,-591.62 327.5,-591.63"/>
<path fill="none" stroke="#00ff00" stroke-width="2" d="M183.5,-584.87C246.65,-584.62 262.41,-593.37 327.5,-593.62"/>
<path fill="none" stroke="#000000" stroke-width="2" d="M183.5,-586.87C245.68,-586.37 261.44,-595.12 327.5,-595.62"/>
</g>
<!-- DB25&#45;&#45;ENC -->
<g id="edge11" class="edge">
<title>DB25:e&#45;&#45;ENC:w</title>
<path fill="none" stroke="#000000" stroke-width="2" d="M183.5,-555.13C248.19,-555.18 264.17,-557.93 327.5,-557.88"/>
<path fill="none" stroke="#a0dfff" stroke-width="2" d="M183.5,-557.13C247.85,-557.15 263.83,-559.9 327.5,-559.88"/>
<path fill="none" stroke="#0066ff" stroke-width="2" d="M183.5,-559.12C247.51,-559.13 263.49,-561.88 327.5,-561.88"/>
<path fill="none" stroke="#a0dfff" stroke-width="2" d="M183.5,-561.12C247.17,-561.1 263.15,-563.85 327.5,-563.87"/>
<path fill="none" stroke="#000000" stroke-width="2" d="M183.5,-563.12C246.83,-563.07 262.81,-565.82 327.5,-565.87"/>
</g>
<!-- DB25&#45;&#45;ENC -->
<g id="edge13" class="edge">
<title>DB25:e&#45;&#45;ENC:w</title>
<path fill="none" stroke="#000000" stroke-width="2" d="M183.5,-531.38C246.72,-531.46 262.69,-528.21 327.5,-528.13"/>
<path fill="none" stroke="#ffff00" stroke-width="2" d="M183.5,-533.38C247.12,-533.42 263.08,-530.17 327.5,-530.13"/>
<path fill="none" stroke="#ffff00" stroke-width="2" d="M183.5,-535.38C247.52,-535.38 263.48,-532.12 327.5,-532.12"/>
<path fill="none" stroke="#ffff00" stroke-width="2" d="M183.5,-537.37C247.92,-537.33 263.88,-534.08 327.5,-534.12"/>
<path fill="none" stroke="#000000" stroke-width="2" d="M183.5,-539.37C248.31,-539.29 264.28,-536.04 327.5,-536.12"/>
</g>
<!-- DB25&#45;&#45;ENC -->
<g id="edge15" class="edge">
<title>DB25:e&#45;&#45;ENC:w</title>
<path fill="none" stroke="#000000" stroke-width="2" d="M183.5,-507.63C245.6,-508.18 261.34,-498.93 327.5,-498.38"/>
<path fill="none" stroke="#895956" stroke-width="2" d="M183.5,-509.63C246.62,-509.9 262.35,-500.65 327.5,-500.38"/>
<path fill="none" stroke="#ffffff" stroke-width="2" d="M183.5,-511.62C247.63,-511.62 263.37,-502.37 327.5,-502.37"/>
<path fill="none" stroke="#895956" stroke-width="2" d="M183.5,-513.62C248.65,-513.35 264.38,-504.1 327.5,-504.37"/>
<path fill="none" stroke="#000000" stroke-width="2" d="M183.5,-515.62C249.66,-515.07 265.4,-505.82 327.5,-506.37"/>
</g>
<!-- LFWD -->
<g id="node7" class="node">
<title>LFWD</title>
<polygon fill="#ffffff" stroke="black" points="1963.75,-441.5 1662.25,-441.5 1662.25,-301 1963.75,-301 1963.75,-441.5"/>
<polygon fill="none" stroke="black" points="1662.25,-417.75 1662.25,-441.5 1963.75,-441.5 1963.75,-417.75 1662.25,-417.75"/>
<text text-anchor="start" x="1793.5" y="-424.2" font-family="arial" font-size="14.00">LFWD</text>
<polygon fill="none" stroke="black" points="1662.25,-394 1662.25,-417.75 1963.75,-417.75 1963.75,-394 1662.25,-394"/>
<text text-anchor="start" x="1805.88" y="-400.45" font-family="arial" font-size="14.00">1x</text>
<text text-anchor="start" x="1719.75" y="-378.7" font-family="arial" font-size="14.00"> </text>
<text text-anchor="start" x="1664.25" y="-358.95" font-family="arial" font-size="14.00">DB25:10:Fwd Limit</text>
<text text-anchor="start" x="1783" y="-358.95" font-family="arial" font-size="14.00"> &#160;&#160;&#160;&#160;1:BU &#160;&#160;&#160;</text>
<text text-anchor="start" x="1850.75" y="-358.95" font-family="arial" font-size="14.00">MIC2981:1:In Fwd</text>
<polygon fill="#000000" stroke="none" points="1662.25,-352.5 1662.25,-354.5 1963.75,-354.5 1963.75,-352.5 1662.25,-352.5"/>
<polygon fill="#0066ff" stroke="none" points="1662.25,-350.5 1662.25,-352.5 1963.75,-352.5 1963.75,-350.5 1662.25,-350.5"/>
<polygon fill="#0066ff" stroke="none" points="1662.25,-348.5 1662.25,-350.5 1963.75,-350.5 1963.75,-348.5 1662.25,-348.5"/>
<polygon fill="#0066ff" stroke="none" points="1662.25,-346.5 1662.25,-348.5 1963.75,-348.5 1963.75,-346.5 1662.25,-346.5"/>
<polygon fill="#000000" stroke="none" points="1662.25,-344.5 1662.25,-346.5 1963.75,-346.5 1963.75,-344.5 1662.25,-344.5"/>
<text text-anchor="start" x="1719.75" y="-329.2" font-family="arial" font-size="14.00"> </text>
<polygon fill="none" stroke="black" points="1662.25,-301 1662.25,-324.75 1963.75,-324.75 1963.75,-301 1662.25,-301"/>
<text text-anchor="start" x="1740.25" y="-307.45" font-family="arial" font-size="14.00">Fwd limit → MIC2981 in</text>
</g>
<!-- DB25&#45;&#45;LFWD -->
<g id="edge17" class="edge">
<title>DB25:e&#45;&#45;LFWD:w</title>
<path fill="none" stroke="#000000" stroke-width="2" d="M183.5,-483.88C246.83,-486.63 257.71,-453.35 326.76,-438.32 850.54,-341.21 992.07,-412.81 1517.88,-363.27 1580.02,-358.11 1595.33,-346.33 1662.25,-345.5"/>
<path fill="none" stroke="#0066ff" stroke-width="2" d="M183.5,-485.88C248.73,-487.25 259.61,-453.97 327.13,-440.28 849.64,-342.99 991.16,-414.59 1518.06,-365.26 1581.24,-359.69 1596.55,-347.91 1662.25,-347.5"/>
<path fill="none" stroke="#0066ff" stroke-width="2" d="M183.5,-487.88C250.64,-487.88 261.51,-454.59 327.5,-442.25 848.74,-344.78 990.26,-416.37 1518.25,-367.25 1582.46,-361.28 1597.77,-349.5 1662.25,-349.5"/>
<path fill="none" stroke="#0066ff" stroke-width="2" d="M183.5,-489.87C252.54,-488.5 263.41,-455.21 327.87,-444.22 847.83,-346.56 989.36,-418.16 1518.44,-369.24 1583.68,-362.86 1598.99,-351.09 1662.25,-351.5"/>
<path fill="none" stroke="#000000" stroke-width="2" d="M183.5,-491.87C254.44,-489.12 265.31,-455.83 328.24,-446.18 846.93,-348.35 988.45,-419.94 1518.62,-371.23 1584.9,-364.45 1600.2,-352.67 1662.25,-353.5"/>
</g>
<!-- LREV -->
<g id="node8" class="node">
<title>LREV</title>
<polygon fill="#ffffff" stroke="black" points="1506.62,-355.5 1207.38,-355.5 1207.38,-215 1506.62,-215 1506.62,-355.5"/>
<polygon fill="none" stroke="black" points="1207.38,-331.75 1207.38,-355.5 1506.62,-355.5 1506.62,-331.75 1207.38,-331.75"/>
<text text-anchor="start" x="1339.38" y="-338.2" font-family="arial" font-size="14.00">LREV</text>
<polygon fill="none" stroke="black" points="1207.38,-308 1207.38,-331.75 1506.62,-331.75 1506.62,-308 1207.38,-308"/>
<text text-anchor="start" x="1349.88" y="-314.45" font-family="arial" font-size="14.00">1x</text>
<text text-anchor="start" x="1264.12" y="-292.7" font-family="arial" font-size="14.00"> </text>
<text text-anchor="start" x="1209.38" y="-272.95" font-family="arial" font-size="14.00">DB25:12:Rev Limit</text>
<text text-anchor="start" x="1326.62" y="-272.95" font-family="arial" font-size="14.00"> &#160;&#160;&#160;&#160;1:RD &#160;&#160;&#160;</text>
<text text-anchor="start" x="1395.12" y="-272.95" font-family="arial" font-size="14.00">MIC2981:2:In Rev</text>
<polygon fill="#000000" stroke="none" points="1207.38,-266.5 1207.38,-268.5 1506.62,-268.5 1506.62,-266.5 1207.38,-266.5"/>
<polygon fill="#ff0000" stroke="none" points="1207.38,-264.5 1207.38,-266.5 1506.62,-266.5 1506.62,-264.5 1207.38,-264.5"/>
<polygon fill="#ff0000" stroke="none" points="1207.38,-262.5 1207.38,-264.5 1506.62,-264.5 1506.62,-262.5 1207.38,-262.5"/>
<polygon fill="#ff0000" stroke="none" points="1207.38,-260.5 1207.38,-262.5 1506.62,-262.5 1506.62,-260.5 1207.38,-260.5"/>
<polygon fill="#000000" stroke="none" points="1207.38,-258.5 1207.38,-260.5 1506.62,-260.5 1506.62,-258.5 1207.38,-258.5"/>
<text text-anchor="start" x="1264.12" y="-243.2" font-family="arial" font-size="14.00"> </text>
<polygon fill="none" stroke="black" points="1207.38,-215 1207.38,-238.75 1506.62,-238.75 1506.62,-215 1207.38,-215"/>
<text text-anchor="start" x="1285" y="-221.45" font-family="arial" font-size="14.00">Rev limit → MIC2981 in</text>
</g>
<!-- DB25&#45;&#45;LREV -->
<g id="edge19" class="edge">
<title>DB25:e&#45;&#45;LREV:w</title>
<path fill="none" stroke="#000000" stroke-width="2" d="M183.5,-460.13C255.18,-464.3 252.25,-398.92 326.15,-369.48 373.36,-352.7 1156.7,-259.53 1206.38,-259.5"/>
<path fill="none" stroke="#ff0000" stroke-width="2" d="M183.5,-462.13C257.18,-464.21 254.25,-398.83 326.83,-371.37 373.59,-354.69 1156.93,-261.51 1206.38,-261.5"/>
<path fill="none" stroke="#ff0000" stroke-width="2" d="M183.5,-464.12C259.18,-464.12 256.24,-398.74 327.5,-373.25 373.83,-356.67 1157.17,-263.5 1206.38,-263.5"/>
<path fill="none" stroke="#ff0000" stroke-width="2" d="M183.5,-466.12C261.18,-464.04 258.24,-398.65 328.17,-375.13 374.07,-358.66 1157.41,-265.49 1206.38,-265.5"/>
<path fill="none" stroke="#000000" stroke-width="2" d="M183.5,-468.12C263.17,-463.95 260.24,-398.56 328.85,-377.02 374.3,-360.65 1157.64,-267.47 1206.38,-267.5"/>
</g>
<!-- LPWR -->
<g id="node14" class="node">
<title>LPWR</title>
<polygon fill="#ffffff" stroke="black" points="626.75,-305.5 385.25,-305.5 385.25,-165 626.75,-165 626.75,-305.5"/>
<polygon fill="none" stroke="black" points="385.25,-281.75 385.25,-305.5 626.75,-305.5 626.75,-281.75 385.25,-281.75"/>
<text text-anchor="start" x="486.12" y="-288.2" font-family="arial" font-size="14.00">LPWR</text>
<polygon fill="none" stroke="black" points="385.25,-258 385.25,-281.75 626.75,-281.75 626.75,-258 385.25,-258"/>
<text text-anchor="start" x="498.88" y="-264.45" font-family="arial" font-size="14.00">1x</text>
<text text-anchor="start" x="426.62" y="-242.7" font-family="arial" font-size="14.00"> </text>
<text text-anchor="start" x="387.25" y="-222.95" font-family="arial" font-size="14.00">DB25:13:Viso</text>
<text text-anchor="start" x="473.75" y="-222.95" font-family="arial" font-size="14.00"> &#160;&#160;&#160;&#160;1:RD &#160;&#160;&#160;</text>
<text text-anchor="start" x="542.25" y="-222.95" font-family="arial" font-size="14.00">EXT5V:1:+5V</text>
<polygon fill="#000000" stroke="none" points="385.25,-216.5 385.25,-218.5 626.75,-218.5 626.75,-216.5 385.25,-216.5"/>
<polygon fill="#ff0000" stroke="none" points="385.25,-214.5 385.25,-216.5 626.75,-216.5 626.75,-214.5 385.25,-214.5"/>
<polygon fill="#ff0000" stroke="none" points="385.25,-212.5 385.25,-214.5 626.75,-214.5 626.75,-212.5 385.25,-212.5"/>
<polygon fill="#ff0000" stroke="none" points="385.25,-210.5 385.25,-212.5 626.75,-212.5 626.75,-210.5 385.25,-210.5"/>
<polygon fill="#000000" stroke="none" points="385.25,-208.5 385.25,-210.5 626.75,-210.5 626.75,-208.5 385.25,-208.5"/>
<text text-anchor="start" x="426.62" y="-193.2" font-family="arial" font-size="14.00"> </text>
<polygon fill="none" stroke="black" points="385.25,-165 385.25,-188.75 626.75,-188.75 626.75,-165 385.25,-165"/>
<text text-anchor="start" x="462.12" y="-171.45" font-family="arial" font-size="14.00">Viso → Ext 5V</text>
</g>
<!-- DB25&#45;&#45;LPWR -->
<g id="edge31" class="edge">
<title>DB25:e&#45;&#45;LPWR:w</title>
<path fill="none" stroke="#000000" stroke-width="2" d="M183.5,-436.38C314.31,-441.53 245.78,-214.66 384.25,-209.5"/>
<path fill="none" stroke="#ff0000" stroke-width="2" d="M183.5,-438.38C316.23,-440.95 247.7,-214.08 384.25,-211.5"/>
<path fill="none" stroke="#ff0000" stroke-width="2" d="M183.5,-440.38C318.14,-440.37 249.61,-213.5 384.25,-213.5"/>
<path fill="none" stroke="#ff0000" stroke-width="2" d="M183.5,-442.37C320.05,-439.8 251.52,-212.92 384.25,-215.5"/>
<path fill="none" stroke="#000000" stroke-width="2" d="M183.5,-444.37C321.97,-439.22 253.44,-212.34 384.25,-217.5"/>
</g>
<!-- LGND -->
<g id="node15" class="node">
<title>LGND</title>
<polygon fill="#ffffff" stroke="black" points="629.38,-140.5 382.62,-140.5 382.62,0 629.38,0 629.38,-140.5"/>
<polygon fill="none" stroke="black" points="382.62,-116.75 382.62,-140.5 629.38,-140.5 629.38,-116.75 382.62,-116.75"/>
<text text-anchor="start" x="486.88" y="-123.2" font-family="arial" font-size="14.00">LGND</text>
<polygon fill="none" stroke="black" points="382.62,-93 382.62,-116.75 629.38,-116.75 629.38,-93 382.62,-93"/>
<text text-anchor="start" x="498.88" y="-99.45" font-family="arial" font-size="14.00">1x</text>
<text text-anchor="start" x="424.38" y="-77.7" font-family="arial" font-size="14.00"> </text>
<text text-anchor="start" x="384.62" y="-57.95" font-family="arial" font-size="14.00">DB25:22:Ciso</text>
<text text-anchor="start" x="471.88" y="-57.95" font-family="arial" font-size="14.00"> &#160;&#160;&#160;&#160;1:BK &#160;&#160;&#160;</text>
<text text-anchor="start" x="538.88" y="-57.95" font-family="arial" font-size="14.00">EXT5V:2:GND</text>
<polygon fill="#000000" stroke="none" points="382.62,-51.5 382.62,-53.5 629.38,-53.5 629.38,-51.5 382.62,-51.5"/>
<polygon fill="#000000" stroke="none" points="382.62,-49.5 382.62,-51.5 629.38,-51.5 629.38,-49.5 382.62,-49.5"/>
<polygon fill="#000000" stroke="none" points="382.62,-47.5 382.62,-49.5 629.38,-49.5 629.38,-47.5 382.62,-47.5"/>
<polygon fill="#000000" stroke="none" points="382.62,-45.5 382.62,-47.5 629.38,-47.5 629.38,-45.5 382.62,-45.5"/>
<polygon fill="#000000" stroke="none" points="382.62,-43.5 382.62,-45.5 629.38,-45.5 629.38,-43.5 382.62,-43.5"/>
<text text-anchor="start" x="424.38" y="-28.2" font-family="arial" font-size="14.00"> </text>
<polygon fill="none" stroke="black" points="382.62,0 382.62,-23.75 629.38,-23.75 629.38,0 382.62,0"/>
<text text-anchor="start" x="444.5" y="-6.45" font-family="arial" font-size="14.00">Ciso → Ext 5V GND</text>
</g>
<!-- DB25&#45;&#45;LGND -->
<g id="edge33" class="edge">
<title>DB25:e&#45;&#45;LGND:w</title>
<path fill="none" stroke="#000000" stroke-width="2" d="M183.5,-412.63C365.68,-418.33 192.2,-50.21 381.62,-44.5"/>
<path fill="none" stroke="#000000" stroke-width="2" d="M183.5,-414.63C367.49,-417.48 194.01,-49.35 381.62,-46.5"/>
<path fill="none" stroke="#000000" stroke-width="2" d="M183.5,-416.62C369.3,-416.63 195.82,-48.5 381.62,-48.5"/>
<path fill="none" stroke="#000000" stroke-width="2" d="M183.5,-418.62C371.11,-415.77 197.63,-47.65 381.62,-50.5"/>
<path fill="none" stroke="#000000" stroke-width="2" d="M183.5,-420.62C372.92,-414.92 199.44,-46.79 381.62,-52.5"/>
</g>
<!-- MC508_ENC -->
<g id="node2" class="node">
<title>MC508_ENC</title>
<polygon fill="#ffffff" stroke="black" points="1045,-761.5 835.25,-761.5 835.25,-429 1045,-429 1045,-761.5"/>
<polygon fill="none" stroke="black" points="835.25,-737.75 835.25,-761.5 1045,-761.5 1045,-737.75 835.25,-737.75"/>
<text text-anchor="start" x="900" y="-744.2" font-family="arial" font-size="14.00">MC508_ENC</text>
<polygon fill="none" stroke="black" points="835.25,-714 835.25,-737.75 947.25,-737.75 947.25,-714 835.25,-714"/>
<text text-anchor="start" x="865.75" y="-720.45" font-family="arial" font-size="14.00">MDR&#45;20</text>
<polygon fill="none" stroke="black" points="947.25,-714 947.25,-737.75 1045,-737.75 1045,-714 947.25,-714"/>
<text text-anchor="start" x="977.75" y="-720.45" font-family="arial" font-size="14.00">11&#45;pin</text>
<polygon fill="none" stroke="black" points="835.25,-690.25 835.25,-714 889.17,-714 889.17,-690.25 835.25,-690.25"/>
<text text-anchor="start" x="858.46" y="-696.7" font-family="arial" font-size="14.00">1</text>
<polygon fill="none" stroke="black" points="889.17,-690.25 889.17,-714 991.08,-714 991.08,-690.25 889.17,-690.25"/>
<text text-anchor="start" x="918.38" y="-696.7" font-family="arial" font-size="14.00">Enc A+</text>
<polygon fill="none" stroke="black" points="991.08,-690.25 991.08,-714 1045,-714 1045,-690.25 991.08,-690.25"/>
<text text-anchor="start" x="1014.29" y="-696.7" font-family="arial" font-size="14.00">1</text>
<polygon fill="none" stroke="black" points="835.25,-666.5 835.25,-690.25 889.17,-690.25 889.17,-666.5 835.25,-666.5"/>
<text text-anchor="start" x="858.46" y="-672.95" font-family="arial" font-size="14.00">2</text>
<polygon fill="none" stroke="black" points="889.17,-666.5 889.17,-690.25 991.08,-690.25 991.08,-666.5 889.17,-666.5"/>
<text text-anchor="start" x="920.62" y="-672.95" font-family="arial" font-size="14.00">/Enc A</text>
<polygon fill="none" stroke="black" points="991.08,-666.5 991.08,-690.25 1045,-690.25 1045,-666.5 991.08,-666.5"/>
<text text-anchor="start" x="1014.29" y="-672.95" font-family="arial" font-size="14.00">2</text>
<polygon fill="none" stroke="black" points="835.25,-642.75 835.25,-666.5 889.17,-666.5 889.17,-642.75 835.25,-642.75"/>
<text text-anchor="start" x="858.46" y="-649.2" font-family="arial" font-size="14.00">3</text>
<polygon fill="none" stroke="black" points="889.17,-642.75 889.17,-666.5 991.08,-666.5 991.08,-642.75 889.17,-642.75"/>
<text text-anchor="start" x="918" y="-649.2" font-family="arial" font-size="14.00">Enc B+</text>
<polygon fill="none" stroke="black" points="991.08,-642.75 991.08,-666.5 1045,-666.5 1045,-642.75 991.08,-642.75"/>
<text text-anchor="start" x="1014.29" y="-649.2" font-family="arial" font-size="14.00">3</text>
<polygon fill="none" stroke="black" points="835.25,-619 835.25,-642.75 889.17,-642.75 889.17,-619 835.25,-619"/>
<text text-anchor="start" x="858.46" y="-625.45" font-family="arial" font-size="14.00">4</text>
<polygon fill="none" stroke="black" points="889.17,-619 889.17,-642.75 991.08,-642.75 991.08,-619 889.17,-619"/>
<text text-anchor="start" x="920.25" y="-625.45" font-family="arial" font-size="14.00">/Enc B</text>
<polygon fill="none" stroke="black" points="991.08,-619 991.08,-642.75 1045,-642.75 1045,-619 991.08,-619"/>
<text text-anchor="start" x="1014.29" y="-625.45" font-family="arial" font-size="14.00">4</text>
<polygon fill="none" stroke="black" points="835.25,-595.25 835.25,-619 889.17,-619 889.17,-595.25 835.25,-595.25"/>
<text text-anchor="start" x="855.08" y="-601.7" font-family="arial" font-size="14.00">11</text>
<polygon fill="none" stroke="black" points="889.17,-595.25 889.17,-619 991.08,-619 991.08,-595.25 889.17,-595.25"/>
<text text-anchor="start" x="918.38" y="-601.7" font-family="arial" font-size="14.00">Enc Z+</text>
<polygon fill="none" stroke="black" points="991.08,-595.25 991.08,-619 1045,-619 1045,-595.25 991.08,-595.25"/>
<text text-anchor="start" x="1010.92" y="-601.7" font-family="arial" font-size="14.00">11</text>
<polygon fill="none" stroke="black" points="835.25,-571.5 835.25,-595.25 889.17,-595.25 889.17,-571.5 835.25,-571.5"/>
<text text-anchor="start" x="854.71" y="-577.95" font-family="arial" font-size="14.00">12</text>
<polygon fill="none" stroke="black" points="889.17,-571.5 889.17,-595.25 991.08,-595.25 991.08,-571.5 889.17,-571.5"/>
<text text-anchor="start" x="920.62" y="-577.95" font-family="arial" font-size="14.00">/Enc Z</text>
<polygon fill="none" stroke="black" points="991.08,-571.5 991.08,-595.25 1045,-595.25 1045,-571.5 991.08,-571.5"/>
<text text-anchor="start" x="1010.54" y="-577.95" font-family="arial" font-size="14.00">12</text>
<polygon fill="none" stroke="black" points="835.25,-547.75 835.25,-571.5 889.17,-571.5 889.17,-547.75 835.25,-547.75"/>
<text text-anchor="start" x="858.46" y="-554.2" font-family="arial" font-size="14.00">5</text>
<polygon fill="none" stroke="black" points="889.17,-547.75 889.17,-571.5 991.08,-571.5 991.08,-547.75 889.17,-547.75"/>
<text text-anchor="start" x="914.25" y="-554.2" font-family="arial" font-size="14.00">+5V Enc</text>
<polygon fill="none" stroke="black" points="991.08,-547.75 991.08,-571.5 1045,-571.5 1045,-547.75 991.08,-547.75"/>
<text text-anchor="start" x="1014.29" y="-554.2" font-family="arial" font-size="14.00">5</text>
<polygon fill="none" stroke="black" points="835.25,-524 835.25,-547.75 889.17,-547.75 889.17,-524 835.25,-524"/>
<text text-anchor="start" x="854.71" y="-530.45" font-family="arial" font-size="14.00">15</text>
<polygon fill="none" stroke="black" points="889.17,-524 889.17,-547.75 991.08,-547.75 991.08,-524 889.17,-524"/>
<text text-anchor="start" x="931.88" y="-530.45" font-family="arial" font-size="14.00">0V</text>
<polygon fill="none" stroke="black" points="991.08,-524 991.08,-547.75 1045,-547.75 1045,-524 991.08,-524"/>
<text text-anchor="start" x="1010.54" y="-530.45" font-family="arial" font-size="14.00">15</text>
<polygon fill="none" stroke="black" points="835.25,-500.25 835.25,-524 889.17,-524 889.17,-500.25 835.25,-500.25"/>
<text text-anchor="start" x="858.46" y="-506.7" font-family="arial" font-size="14.00">9</text>
<polygon fill="none" stroke="black" points="889.17,-500.25 889.17,-524 991.08,-524 991.08,-500.25 889.17,-500.25"/>
<text text-anchor="start" x="919.12" y="-506.7" font-family="arial" font-size="14.00">Input A</text>
<polygon fill="none" stroke="black" points="991.08,-500.25 991.08,-524 1045,-524 1045,-500.25 991.08,-500.25"/>
<text text-anchor="start" x="1014.29" y="-506.7" font-family="arial" font-size="14.00">9</text>
<polygon fill="none" stroke="black" points="835.25,-476.5 835.25,-500.25 889.17,-500.25 889.17,-476.5 835.25,-476.5"/>
<text text-anchor="start" x="854.71" y="-482.95" font-family="arial" font-size="14.00">20</text>
<polygon fill="none" stroke="black" points="889.17,-476.5 889.17,-500.25 991.08,-500.25 991.08,-476.5 889.17,-476.5"/>
<text text-anchor="start" x="918.75" y="-482.95" font-family="arial" font-size="14.00">Input B</text>
<polygon fill="none" stroke="black" points="991.08,-476.5 991.08,-500.25 1045,-500.25 1045,-476.5 991.08,-476.5"/>
<text text-anchor="start" x="1010.54" y="-482.95" font-family="arial" font-size="14.00">20</text>
<polygon fill="none" stroke="black" points="835.25,-452.75 835.25,-476.5 889.17,-476.5 889.17,-452.75 835.25,-452.75"/>
<text text-anchor="start" x="854.71" y="-459.2" font-family="arial" font-size="14.00">10</text>
<polygon fill="none" stroke="black" points="889.17,-452.75 889.17,-476.5 991.08,-476.5 991.08,-452.75 889.17,-452.75"/>
<text text-anchor="start" x="908.62" y="-459.2" font-family="arial" font-size="14.00">Input Com</text>
<polygon fill="none" stroke="black" points="991.08,-452.75 991.08,-476.5 1045,-476.5 1045,-452.75 991.08,-452.75"/>
<text text-anchor="start" x="1010.54" y="-459.2" font-family="arial" font-size="14.00">10</text>
<polygon fill="none" stroke="black" points="835.25,-429 835.25,-452.75 1045,-452.75 1045,-429 835.25,-429"/>
<text text-anchor="start" x="839.25" y="-435.45" font-family="arial" font-size="14.00">MC508 Encoder Port (ATYPE 76)</text>
</g>
<!-- ICOM -->
<g id="node11" class="node">
<title>ICOM</title>
<polygon fill="#ffffff" stroke="black" points="1518.25,-824.5 1195.75,-824.5 1195.75,-684 1518.25,-684 1518.25,-824.5"/>
<polygon fill="none" stroke="black" points="1195.75,-800.75 1195.75,-824.5 1518.25,-824.5 1518.25,-800.75 1195.75,-800.75"/>
<text text-anchor="start" x="1338.62" y="-807.2" font-family="arial" font-size="14.00">ICOM</text>
<polygon fill="none" stroke="black" points="1195.75,-777 1195.75,-800.75 1518.25,-800.75 1518.25,-777 1195.75,-777"/>
<text text-anchor="start" x="1349.88" y="-783.45" font-family="arial" font-size="14.00">1x</text>
<text text-anchor="start" x="1278.75" y="-761.7" font-family="arial" font-size="14.00"> </text>
<text text-anchor="start" x="1197.75" y="-741.95" font-family="arial" font-size="14.00">MC508_ENC:10:Input Com</text>
<text text-anchor="start" x="1367.5" y="-741.95" font-family="arial" font-size="14.00"> &#160;&#160;&#160;&#160;1:BK &#160;&#160;&#160;</text>
<text text-anchor="start" x="1434.5" y="-741.95" font-family="arial" font-size="14.00">EXT24V:2:0V</text>
<polygon fill="#000000" stroke="none" points="1195.75,-735.5 1195.75,-737.5 1518.25,-737.5 1518.25,-735.5 1195.75,-735.5"/>
<polygon fill="#000000" stroke="none" points="1195.75,-733.5 1195.75,-735.5 1518.25,-735.5 1518.25,-733.5 1195.75,-733.5"/>
<polygon fill="#000000" stroke="none" points="1195.75,-731.5 1195.75,-733.5 1518.25,-733.5 1518.25,-731.5 1195.75,-731.5"/>
<polygon fill="#000000" stroke="none" points="1195.75,-729.5 1195.75,-731.5 1518.25,-731.5 1518.25,-729.5 1195.75,-729.5"/>
<polygon fill="#000000" stroke="none" points="1195.75,-727.5 1195.75,-729.5 1518.25,-729.5 1518.25,-727.5 1195.75,-727.5"/>
<text text-anchor="start" x="1278.75" y="-712.2" font-family="arial" font-size="14.00"> </text>
<polygon fill="none" stroke="black" points="1195.75,-684 1195.75,-707.75 1518.25,-707.75 1518.25,-684 1195.75,-684"/>
<text text-anchor="start" x="1292.5" y="-690.45" font-family="arial" font-size="14.00">Input Com → 24V 0V</text>
</g>
<!-- MC508_ENC&#45;&#45;ICOM -->
<g id="edge25" class="edge">
<title>MC508_ENC:e&#45;&#45;ICOM:w</title>
<path fill="none" stroke="#000000" stroke-width="2" d="M1046,-460.63C1186.03,-466.29 1062.99,-734.17 1195.75,-728.5"/>
<path fill="none" stroke="#000000" stroke-width="2" d="M1046,-462.63C1184.21,-465.46 1061.17,-733.33 1195.75,-730.5"/>
<path fill="none" stroke="#000000" stroke-width="2" d="M1046,-464.62C1182.4,-464.62 1059.35,-732.5 1195.75,-732.5"/>
<path fill="none" stroke="#000000" stroke-width="2" d="M1046,-466.62C1180.58,-463.79 1057.54,-731.67 1195.75,-734.5"/>
<path fill="none" stroke="#000000" stroke-width="2" d="M1046,-468.62C1178.76,-462.96 1055.72,-730.83 1195.75,-736.5"/>
</g>
<!-- MIC2981 -->
<g id="node3" class="node">
<title>MIC2981</title>
<polygon fill="#ffffff" stroke="black" points="2762.25,-610.12 2512,-610.12 2512,-396.38 2762.25,-396.38 2762.25,-610.12"/>
<polygon fill="none" stroke="black" points="2512,-586.38 2512,-610.12 2762.25,-610.12 2762.25,-586.38 2512,-586.38"/>
<text text-anchor="start" x="2609.38" y="-592.83" font-family="arial" font-size="14.00">MIC2981</text>
<polygon fill="none" stroke="black" points="2512,-562.62 2512,-586.38 2643.12,-586.38 2643.12,-562.62 2512,-562.62"/>
<text text-anchor="start" x="2556.56" y="-569.08" font-family="arial" font-size="14.00">DIP&#45;18</text>
<polygon fill="none" stroke="black" points="2643.12,-562.62 2643.12,-586.38 2762.25,-586.38 2762.25,-562.62 2643.12,-562.62"/>
<text text-anchor="start" x="2687.69" y="-569.08" font-family="arial" font-size="14.00">6&#45;pin</text>
<polygon fill="none" stroke="black" points="2512,-538.88 2512,-562.62 2583.17,-562.62 2583.17,-538.88 2512,-538.88"/>
<text text-anchor="start" x="2543.83" y="-545.33" font-family="arial" font-size="14.00">1</text>
<polygon fill="none" stroke="black" points="2583.17,-538.88 2583.17,-562.62 2691.08,-562.62 2691.08,-538.88 2583.17,-538.88"/>
<text text-anchor="start" x="2616.88" y="-545.33" font-family="arial" font-size="14.00">In Fwd</text>
<polygon fill="none" stroke="black" points="2691.08,-538.88 2691.08,-562.62 2762.25,-562.62 2762.25,-538.88 2691.08,-538.88"/>
<text text-anchor="start" x="2722.92" y="-545.33" font-family="arial" font-size="14.00">1</text>
<polygon fill="none" stroke="black" points="2512,-515.12 2512,-538.88 2583.17,-538.88 2583.17,-515.12 2512,-515.12"/>
<text text-anchor="start" x="2543.83" y="-521.58" font-family="arial" font-size="14.00">2</text>
<polygon fill="none" stroke="black" points="2583.17,-515.12 2583.17,-538.88 2691.08,-538.88 2691.08,-515.12 2583.17,-515.12"/>
<text text-anchor="start" x="2617.62" y="-521.58" font-family="arial" font-size="14.00">In Rev</text>
<polygon fill="none" stroke="black" points="2691.08,-515.12 2691.08,-538.88 2762.25,-538.88 2762.25,-515.12 2691.08,-515.12"/>
<text text-anchor="start" x="2722.92" y="-521.58" font-family="arial" font-size="14.00">2</text>
<polygon fill="none" stroke="black" points="2512,-491.38 2512,-515.12 2583.17,-515.12 2583.17,-491.38 2512,-491.38"/>
<text text-anchor="start" x="2543.83" y="-497.82" font-family="arial" font-size="14.00">9</text>
<polygon fill="none" stroke="black" points="2583.17,-491.38 2583.17,-515.12 2691.08,-515.12 2691.08,-491.38 2583.17,-491.38"/>
<text text-anchor="start" x="2629.25" y="-497.82" font-family="arial" font-size="14.00">Vs</text>
<polygon fill="none" stroke="black" points="2691.08,-491.38 2691.08,-515.12 2762.25,-515.12 2762.25,-491.38 2691.08,-491.38"/>
<text text-anchor="start" x="2722.92" y="-497.82" font-family="arial" font-size="14.00">9</text>
<polygon fill="none" stroke="black" points="2512,-467.62 2512,-491.38 2583.17,-491.38 2583.17,-467.62 2512,-467.62"/>
<text text-anchor="start" x="2540.08" y="-474.07" font-family="arial" font-size="14.00">10</text>
<polygon fill="none" stroke="black" points="2583.17,-467.62 2583.17,-491.38 2691.08,-491.38 2691.08,-467.62 2583.17,-467.62"/>
<text text-anchor="start" x="2621.75" y="-474.07" font-family="arial" font-size="14.00">GND</text>
<polygon fill="none" stroke="black" points="2691.08,-467.62 2691.08,-491.38 2762.25,-491.38 2762.25,-467.62 2691.08,-467.62"/>
<text text-anchor="start" x="2719.17" y="-474.07" font-family="arial" font-size="14.00">10</text>
<polygon fill="none" stroke="black" points="2512,-443.88 2512,-467.62 2583.17,-467.62 2583.17,-443.88 2512,-443.88"/>
<text text-anchor="start" x="2540.46" y="-450.32" font-family="arial" font-size="14.00">11</text>
<polygon fill="none" stroke="black" points="2583.17,-443.88 2583.17,-467.62 2691.08,-467.62 2691.08,-443.88 2583.17,-443.88"/>
<text text-anchor="start" x="2611.25" y="-450.32" font-family="arial" font-size="14.00">Out Fwd</text>
<polygon fill="none" stroke="black" points="2691.08,-443.88 2691.08,-467.62 2762.25,-467.62 2762.25,-443.88 2691.08,-443.88"/>
<text text-anchor="start" x="2719.54" y="-450.32" font-family="arial" font-size="14.00">11</text>
<polygon fill="none" stroke="black" points="2512,-420.12 2512,-443.88 2583.17,-443.88 2583.17,-420.12 2512,-420.12"/>
<text text-anchor="start" x="2540.08" y="-426.57" font-family="arial" font-size="14.00">18</text>
<polygon fill="none" stroke="black" points="2583.17,-420.12 2583.17,-443.88 2691.08,-443.88 2691.08,-420.12 2583.17,-420.12"/>
<text text-anchor="start" x="2612" y="-426.57" font-family="arial" font-size="14.00">Out Rev</text>
<polygon fill="none" stroke="black" points="2691.08,-420.12 2691.08,-443.88 2762.25,-443.88 2762.25,-420.12 2691.08,-420.12"/>
<text text-anchor="start" x="2719.17" y="-426.57" font-family="arial" font-size="14.00">18</text>
<polygon fill="none" stroke="black" points="2512,-396.38 2512,-420.12 2762.25,-420.12 2762.25,-396.38 2512,-396.38"/>
<text text-anchor="start" x="2516" y="-402.82" font-family="arial" font-size="14.00">MIC2981/82YN High&#45;Side Source Driver</text>
</g>
<!-- UFWD -->
<g id="node9" class="node">
<title>UFWD</title>
<polygon fill="#ffffff" stroke="black" points="3264.38,-621.5 2920.88,-621.5 2920.88,-481 3264.38,-481 3264.38,-621.5"/>
<polygon fill="none" stroke="black" points="2920.88,-597.75 2920.88,-621.5 3264.38,-621.5 3264.38,-597.75 2920.88,-597.75"/>
<text text-anchor="start" x="3072" y="-604.2" font-family="arial" font-size="14.00">UFWD</text>
<polygon fill="none" stroke="black" points="2920.88,-574 2920.88,-597.75 3264.38,-597.75 3264.38,-574 2920.88,-574"/>
<text text-anchor="start" x="3085.5" y="-580.45" font-family="arial" font-size="14.00">1x</text>
<text text-anchor="start" x="2985.5" y="-558.7" font-family="arial" font-size="14.00"> </text>
<text text-anchor="start" x="2922.88" y="-538.95" font-family="arial" font-size="14.00">MIC2981:11:Out Fwd</text>
<text text-anchor="start" x="3055.88" y="-538.95" font-family="arial" font-size="14.00"> &#160;&#160;&#160;&#160;1:GY &#160;&#160;&#160;</text>
<text text-anchor="start" x="3125.12" y="-538.95" font-family="arial" font-size="14.00">MC508_ENC:9:Input A</text>
<polygon fill="#000000" stroke="none" points="2920.88,-532.5 2920.88,-534.5 3264.38,-534.5 3264.38,-532.5 2920.88,-532.5"/>
<polygon fill="#999999" stroke="none" points="2920.88,-530.5 2920.88,-532.5 3264.38,-532.5 3264.38,-530.5 2920.88,-530.5"/>
<polygon fill="#999999" stroke="none" points="2920.88,-528.5 2920.88,-530.5 3264.38,-530.5 3264.38,-528.5 2920.88,-528.5"/>
<polygon fill="#999999" stroke="none" points="2920.88,-526.5 2920.88,-528.5 3264.38,-528.5 3264.38,-526.5 2920.88,-526.5"/>
<polygon fill="#000000" stroke="none" points="2920.88,-524.5 2920.88,-526.5 3264.38,-526.5 3264.38,-524.5 2920.88,-524.5"/>
<text text-anchor="start" x="2985.5" y="-509.2" font-family="arial" font-size="14.00"> </text>
<polygon fill="none" stroke="black" points="2920.88,-481 2920.88,-504.75 3264.38,-504.75 3264.38,-481 2920.88,-481"/>
<text text-anchor="start" x="2997.75" y="-487.45" font-family="arial" font-size="14.00">MIC2981 out → MC508 Input A</text>
</g>
<!-- MIC2981&#45;&#45;UFWD -->
<g id="edge21" class="edge">
<title>MIC2981:e&#45;&#45;UFWD:w</title>
<path fill="none" stroke="#000000" stroke-width="2" d="M2762.25,-451.75C2843.59,-455.59 2846.53,-529.34 2919.88,-525.5"/>
<path fill="none" stroke="#999999" stroke-width="2" d="M2762.25,-453.75C2841.59,-455.67 2844.53,-529.42 2919.88,-527.5"/>
<path fill="none" stroke="#999999" stroke-width="2" d="M2762.25,-455.75C2839.59,-455.75 2842.53,-529.5 2919.88,-529.5"/>
<path fill="none" stroke="#999999" stroke-width="2" d="M2762.25,-457.75C2837.6,-455.83 2840.53,-529.58 2919.88,-531.5"/>
<path fill="none" stroke="#000000" stroke-width="2" d="M2762.25,-459.75C2835.6,-455.91 2838.53,-529.66 2919.88,-533.5"/>
</g>
<!-- UREV -->
<g id="node10" class="node">
<title>UREV</title>
<polygon fill="#ffffff" stroke="black" points="3279,-454.5 2906.25,-454.5 2906.25,-314 3279,-314 3279,-454.5"/>
<polygon fill="none" stroke="black" points="2906.25,-430.75 2906.25,-454.5 3279,-454.5 3279,-430.75 2906.25,-430.75"/>
<text text-anchor="start" x="3073.88" y="-437.2" font-family="arial" font-size="14.00">UREV</text>
<polygon fill="none" stroke="black" points="2906.25,-407 2906.25,-430.75 3279,-430.75 3279,-407 2906.25,-407"/>
<text text-anchor="start" x="3085.5" y="-413.45" font-family="arial" font-size="14.00">1x</text>
<text text-anchor="start" x="2970.5" y="-391.7" font-family="arial" font-size="14.00"> </text>
<text text-anchor="start" x="2908.25" y="-371.95" font-family="arial" font-size="14.00">MIC2981:18:Out Rev</text>
<text text-anchor="start" x="3040.5" y="-371.95" font-family="arial" font-size="14.00"> &#160;&#160;&#160;&#160;1:BUWH &#160;&#160;&#160;</text>
<text text-anchor="start" x="3131.5" y="-371.95" font-family="arial" font-size="14.00">MC508_ENC:20:Input B</text>
<polygon fill="#000000" stroke="none" points="2906.25,-365.5 2906.25,-367.5 3279,-367.5 3279,-365.5 2906.25,-365.5"/>
<polygon fill="#0066ff" stroke="none" points="2906.25,-363.5 2906.25,-365.5 3279,-365.5 3279,-363.5 2906.25,-363.5"/>
<polygon fill="#ffffff" stroke="none" points="2906.25,-361.5 2906.25,-363.5 3279,-363.5 3279,-361.5 2906.25,-361.5"/>
<polygon fill="#0066ff" stroke="none" points="2906.25,-359.5 2906.25,-361.5 3279,-361.5 3279,-359.5 2906.25,-359.5"/>
<polygon fill="#000000" stroke="none" points="2906.25,-357.5 2906.25,-359.5 3279,-359.5 3279,-357.5 2906.25,-357.5"/>
<text text-anchor="start" x="2970.5" y="-342.2" font-family="arial" font-size="14.00"> </text>
<polygon fill="none" stroke="black" points="2906.25,-314 2906.25,-337.75 3279,-337.75 3279,-314 2906.25,-314"/>
<text text-anchor="start" x="2997.38" y="-320.45" font-family="arial" font-size="14.00">MIC2981 out → MC508 Input B</text>
</g>
<!-- MIC2981&#45;&#45;UREV -->
<g id="edge23" class="edge">
<title>MIC2981:e&#45;&#45;UREV:w</title>
<path fill="none" stroke="#000000" stroke-width="2" d="M2762.25,-428C2829.32,-431.89 2831.19,-362.39 2906.25,-358.5"/>
<path fill="none" stroke="#0066ff" stroke-width="2" d="M2762.25,-430C2831.31,-431.95 2833.19,-362.45 2906.25,-360.5"/>
<path fill="none" stroke="#ffffff" stroke-width="2" d="M2762.25,-432C2833.31,-432 2835.19,-362.5 2906.25,-362.5"/>
<path fill="none" stroke="#0066ff" stroke-width="2" d="M2762.25,-434C2835.31,-432.05 2837.19,-362.55 2906.25,-364.5"/>
<path fill="none" stroke="#000000" stroke-width="2" d="M2762.25,-436C2837.31,-432.11 2839.18,-362.61 2906.25,-366.5"/>
</g>
<!-- UGND -->
<g id="node13" class="node">
<title>UGND</title>
<polygon fill="#ffffff" stroke="black" points="3225.38,-787.5 2959.88,-787.5 2959.88,-647 3225.38,-647 3225.38,-787.5"/>
<polygon fill="none" stroke="black" points="2959.88,-763.75 2959.88,-787.5 3225.38,-787.5 3225.38,-763.75 2959.88,-763.75"/>
<text text-anchor="start" x="3072.38" y="-770.2" font-family="arial" font-size="14.00">UGND</text>
<polygon fill="none" stroke="black" points="2959.88,-740 2959.88,-763.75 3225.38,-763.75 3225.38,-740 2959.88,-740"/>
<text text-anchor="start" x="3085.5" y="-746.45" font-family="arial" font-size="14.00">1x</text>
<text text-anchor="start" x="3014.38" y="-724.7" font-family="arial" font-size="14.00"> </text>
<text text-anchor="start" x="2961.88" y="-704.95" font-family="arial" font-size="14.00">MIC2981:10:GND</text>
<text text-anchor="start" x="3074.62" y="-704.95" font-family="arial" font-size="14.00"> &#160;&#160;&#160;&#160;1:BK &#160;&#160;&#160;</text>
<text text-anchor="start" x="3141.62" y="-704.95" font-family="arial" font-size="14.00">EXT24V:2:0V</text>
<polygon fill="#000000" stroke="none" points="2959.88,-698.5 2959.88,-700.5 3225.38,-700.5 3225.38,-698.5 2959.88,-698.5"/>
<polygon fill="#000000" stroke="none" points="2959.88,-696.5 2959.88,-698.5 3225.38,-698.5 3225.38,-696.5 2959.88,-696.5"/>
<polygon fill="#000000" stroke="none" points="2959.88,-694.5 2959.88,-696.5 3225.38,-696.5 3225.38,-694.5 2959.88,-694.5"/>
<polygon fill="#000000" stroke="none" points="2959.88,-692.5 2959.88,-694.5 3225.38,-694.5 3225.38,-692.5 2959.88,-692.5"/>
<polygon fill="#000000" stroke="none" points="2959.88,-690.5 2959.88,-692.5 3225.38,-692.5 3225.38,-690.5 2959.88,-690.5"/>
<text text-anchor="start" x="3014.38" y="-675.2" font-family="arial" font-size="14.00"> </text>
<polygon fill="none" stroke="black" points="2959.88,-647 2959.88,-670.75 3225.38,-670.75 3225.38,-647 2959.88,-647"/>
<text text-anchor="start" x="3014.62" y="-653.45" font-family="arial" font-size="14.00">MIC2981 GND → 24V 0V</text>
</g>
<!-- MIC2981&#45;&#45;UGND -->
<g id="edge29" class="edge">
<title>MIC2981:e&#45;&#45;UGND:w</title>
<path fill="none" stroke="#000000" stroke-width="2" d="M2762.25,-475.5C2895.91,-480.62 2832.9,-696.62 2958.88,-691.5"/>
<path fill="none" stroke="#000000" stroke-width="2" d="M2762.25,-477.5C2893.99,-480.06 2830.98,-696.06 2958.88,-693.5"/>
<path fill="none" stroke="#000000" stroke-width="2" d="M2762.25,-479.5C2892.07,-479.5 2829.06,-695.5 2958.88,-695.5"/>
<path fill="none" stroke="#000000" stroke-width="2" d="M2762.25,-481.5C2890.15,-478.94 2827.14,-694.94 2958.88,-697.5"/>
<path fill="none" stroke="#000000" stroke-width="2" d="M2762.25,-483.5C2888.23,-478.38 2825.22,-694.38 2958.88,-699.5"/>
</g>
<!-- EXT24V -->
<g id="node4" class="node">
<title>EXT24V</title>
<polygon fill="#ffffff" stroke="black" points="1905.5,-815.62 1720.5,-815.62 1720.5,-696.88 1905.5,-696.88 1905.5,-815.62"/>
<polygon fill="none" stroke="black" points="1720.5,-791.88 1720.5,-815.62 1905.5,-815.62 1905.5,-791.88 1720.5,-791.88"/>
<text text-anchor="start" x="1787.88" y="-798.33" font-family="arial" font-size="14.00">EXT24V</text>
<polygon fill="none" stroke="black" points="1720.5,-768.12 1720.5,-791.88 1839.62,-791.88 1839.62,-768.12 1720.5,-768.12"/>
<text text-anchor="start" x="1738.44" y="-774.58" font-family="arial" font-size="14.00">Power Supply</text>
<polygon fill="none" stroke="black" points="1839.62,-768.12 1839.62,-791.88 1905.5,-791.88 1905.5,-768.12 1839.62,-768.12"/>
<text text-anchor="start" x="1857.56" y="-774.58" font-family="arial" font-size="14.00">2&#45;pin</text>
<polygon fill="none" stroke="black" points="1720.5,-744.38 1720.5,-768.12 1773.92,-768.12 1773.92,-744.38 1720.5,-744.38"/>
<text text-anchor="start" x="1743.46" y="-750.83" font-family="arial" font-size="14.00">1</text>
<polygon fill="none" stroke="black" points="1773.92,-744.38 1773.92,-768.12 1852.08,-768.12 1852.08,-744.38 1773.92,-744.38"/>
<text text-anchor="start" x="1796.88" y="-750.83" font-family="arial" font-size="14.00">+24V</text>
<polygon fill="none" stroke="black" points="1852.08,-744.38 1852.08,-768.12 1905.5,-768.12 1905.5,-744.38 1852.08,-744.38"/>
<text text-anchor="start" x="1875.04" y="-750.83" font-family="arial" font-size="14.00">1</text>
<polygon fill="none" stroke="black" points="1720.5,-720.62 1720.5,-744.38 1773.92,-744.38 1773.92,-720.62 1720.5,-720.62"/>
<text text-anchor="start" x="1743.46" y="-727.08" font-family="arial" font-size="14.00">2</text>
<polygon fill="none" stroke="black" points="1773.92,-720.62 1773.92,-744.38 1852.08,-744.38 1852.08,-720.62 1773.92,-720.62"/>
<text text-anchor="start" x="1804.75" y="-727.08" font-family="arial" font-size="14.00">0V</text>
<polygon fill="none" stroke="black" points="1852.08,-720.62 1852.08,-744.38 1905.5,-744.38 1905.5,-720.62 1852.08,-720.62"/>
<text text-anchor="start" x="1875.04" y="-727.08" font-family="arial" font-size="14.00">2</text>
<polygon fill="none" stroke="black" points="1720.5,-696.88 1720.5,-720.62 1905.5,-720.62 1905.5,-696.88 1720.5,-696.88"/>
<text text-anchor="start" x="1724.5" y="-703.33" font-family="arial" font-size="14.00">External 24V (MC508 supply)</text>
</g>
<!-- V24 -->
<g id="node12" class="node">
<title>V24</title>
<polygon fill="#ffffff" stroke="black" points="2368,-874.5 2107.75,-874.5 2107.75,-734 2368,-734 2368,-874.5"/>
<polygon fill="none" stroke="black" points="2107.75,-850.75 2107.75,-874.5 2368,-874.5 2368,-850.75 2107.75,-850.75"/>
<text text-anchor="start" x="2225.88" y="-857.2" font-family="arial" font-size="14.00">V24</text>
<polygon fill="none" stroke="black" points="2107.75,-827 2107.75,-850.75 2368,-850.75 2368,-827 2107.75,-827"/>
<text text-anchor="start" x="2230.75" y="-833.45" font-family="arial" font-size="14.00">1x</text>
<text text-anchor="start" x="2156.62" y="-811.7" font-family="arial" font-size="14.00"> </text>
<text text-anchor="start" x="2109.75" y="-791.95" font-family="arial" font-size="14.00">EXT24V:1:+24V</text>
<text text-anchor="start" x="2211.25" y="-791.95" font-family="arial" font-size="14.00"> &#160;&#160;&#160;&#160;1:RD &#160;&#160;&#160;</text>
<text text-anchor="start" x="2279.75" y="-791.95" font-family="arial" font-size="14.00">MIC2981:9:Vs</text>
<polygon fill="#000000" stroke="none" points="2107.75,-785.5 2107.75,-787.5 2368,-787.5 2368,-785.5 2107.75,-785.5"/>
<polygon fill="#ff0000" stroke="none" points="2107.75,-783.5 2107.75,-785.5 2368,-785.5 2368,-783.5 2107.75,-783.5"/>
<polygon fill="#ff0000" stroke="none" points="2107.75,-781.5 2107.75,-783.5 2368,-783.5 2368,-781.5 2107.75,-781.5"/>
<polygon fill="#ff0000" stroke="none" points="2107.75,-779.5 2107.75,-781.5 2368,-781.5 2368,-779.5 2107.75,-779.5"/>
<polygon fill="#000000" stroke="none" points="2107.75,-777.5 2107.75,-779.5 2368,-779.5 2368,-777.5 2107.75,-777.5"/>
<text text-anchor="start" x="2156.62" y="-762.2" font-family="arial" font-size="14.00"> </text>
<polygon fill="none" stroke="black" points="2107.75,-734 2107.75,-757.75 2368,-757.75 2368,-734 2107.75,-734"/>
<text text-anchor="start" x="2173.38" y="-740.45" font-family="arial" font-size="14.00">+24V → MIC2981 Vs</text>
</g>
<!-- EXT24V&#45;&#45;V24 -->
<g id="edge27" class="edge">
<title>EXT24V:e&#45;&#45;V24:w</title>
<path fill="none" stroke="#000000" stroke-width="2" d="M1906.5,-752.25C1999.83,-753.76 2020.68,-780.01 2107.75,-778.5"/>
<path fill="none" stroke="#ff0000" stroke-width="2" d="M1906.5,-754.25C1998.27,-755.01 2019.11,-781.26 2107.75,-780.5"/>
<path fill="none" stroke="#ff0000" stroke-width="2" d="M1906.5,-756.25C1996.7,-756.25 2017.55,-782.5 2107.75,-782.5"/>
<path fill="none" stroke="#ff0000" stroke-width="2" d="M1906.5,-758.25C1995.14,-757.49 2015.98,-783.74 2107.75,-784.5"/>
<path fill="none" stroke="#000000" stroke-width="2" d="M1906.5,-760.25C1993.57,-758.74 2014.42,-784.99 2107.75,-786.5"/>
</g>
<!-- EXT5V -->
<g id="node5" class="node">
<title>EXT5V</title>
<polygon fill="#ffffff" stroke="black" points="1051.75,-202.62 828.5,-202.62 828.5,-83.88 1051.75,-83.88 1051.75,-202.62"/>
<polygon fill="none" stroke="black" points="828.5,-178.88 828.5,-202.62 1051.75,-202.62 1051.75,-178.88 828.5,-178.88"/>
<text text-anchor="start" x="918.75" y="-185.32" font-family="arial" font-size="14.00">EXT5V</text>
<polygon fill="none" stroke="black" points="828.5,-155.12 828.5,-178.88 966.75,-178.88 966.75,-155.12 828.5,-155.12"/>
<text text-anchor="start" x="856" y="-161.57" font-family="arial" font-size="14.00">Power Supply</text>
<polygon fill="none" stroke="black" points="966.75,-155.12 966.75,-178.88 1051.75,-178.88 1051.75,-155.12 966.75,-155.12"/>
<text text-anchor="start" x="994.25" y="-161.57" font-family="arial" font-size="14.00">2&#45;pin</text>
<polygon fill="none" stroke="black" points="828.5,-131.38 828.5,-155.12 928.5,-155.12 928.5,-131.38 828.5,-131.38"/>
<text text-anchor="start" x="874.75" y="-137.82" font-family="arial" font-size="14.00">1</text>
<polygon fill="none" stroke="black" points="928.5,-131.38 928.5,-155.12 1051.75,-155.12 1051.75,-131.38 928.5,-131.38"/>
<text text-anchor="start" x="977.75" y="-137.82" font-family="arial" font-size="14.00">+5V</text>
<polygon fill="none" stroke="black" points="828.5,-107.62 828.5,-131.38 928.5,-131.38 928.5,-107.62 828.5,-107.62"/>
<text text-anchor="start" x="874.75" y="-114.08" font-family="arial" font-size="14.00">2</text>
<polygon fill="none" stroke="black" points="928.5,-107.62 928.5,-131.38 1051.75,-131.38 1051.75,-107.62 928.5,-107.62"/>
<text text-anchor="start" x="974.75" y="-114.08" font-family="arial" font-size="14.00">GND</text>
<polygon fill="none" stroke="black" points="828.5,-83.88 828.5,-107.62 1051.75,-107.62 1051.75,-83.88 828.5,-83.88"/>
<text text-anchor="start" x="832.5" y="-90.33" font-family="arial" font-size="14.00">External 5V (opto&#45;interrupter power)</text>
</g>
<!-- ENC&#45;&#45;MC508_ENC -->
<g id="edge2" class="edge">
<title>ENC:e&#45;&#45;MC508_ENC:w</title>
<path fill="none" stroke="#000000" stroke-width="2" d="M684.5,-706.63C749.32,-707.07 765.75,-698.57 834.25,-698.13"/>
<path fill="none" stroke="#000000" stroke-width="2" d="M684.5,-708.63C750.24,-708.85 766.67,-700.35 834.25,-700.13"/>
<path fill="none" stroke="#000000" stroke-width="2" d="M684.5,-710.62C751.16,-710.63 767.59,-702.13 834.25,-702.12"/>
<path fill="none" stroke="#000000" stroke-width="2" d="M684.5,-712.62C752.08,-712.4 768.51,-703.9 834.25,-704.12"/>
<path fill="none" stroke="#000000" stroke-width="2" d="M684.5,-714.62C753,-714.18 769.43,-705.68 834.25,-706.12"/>
</g>
<!-- ENC&#45;&#45;MC508_ENC -->
<g id="edge4" class="edge">
<title>ENC:e&#45;&#45;MC508_ENC:w</title>
<path fill="none" stroke="#000000" stroke-width="2" d="M684.5,-676.88C750.47,-676.92 767.09,-674.42 834.25,-674.38"/>
<path fill="none" stroke="#895956" stroke-width="2" d="M684.5,-678.88C750.77,-678.9 767.39,-676.4 834.25,-676.38"/>
<path fill="none" stroke="#895956" stroke-width="2" d="M684.5,-680.88C751.06,-680.88 767.69,-678.38 834.25,-678.38"/>
<path fill="none" stroke="#895956" stroke-width="2" d="M684.5,-682.87C751.36,-682.85 767.98,-680.35 834.25,-680.37"/>
<path fill="none" stroke="#000000" stroke-width="2" d="M684.5,-684.87C751.66,-684.83 768.28,-682.33 834.25,-682.37"/>
</g>
<!-- ENC&#45;&#45;MC508_ENC -->
<g id="edge6" class="edge">
<title>ENC:e&#45;&#45;MC508_ENC:w</title>
<path fill="none" stroke="#000000" stroke-width="2" d="M684.5,-647.13C751.9,-647.21 768.5,-650.71 834.25,-650.63"/>
<path fill="none" stroke="#ff0000" stroke-width="2" d="M684.5,-649.13C751.49,-649.17 768.09,-652.67 834.25,-652.63"/>
<path fill="none" stroke="#ff0000" stroke-width="2" d="M684.5,-651.12C751.07,-651.12 767.68,-654.62 834.25,-654.62"/>
<path fill="none" stroke="#ff0000" stroke-width="2" d="M684.5,-653.12C750.66,-653.08 767.26,-656.58 834.25,-656.62"/>
<path fill="none" stroke="#000000" stroke-width="2" d="M684.5,-655.12C750.25,-655.04 766.85,-658.54 834.25,-658.62"/>
</g>
<!-- ENC&#45;&#45;MC508_ENC -->
<g id="edge8" class="edge">
<title>ENC:e&#45;&#45;MC508_ENC:w</title>
<path fill="none" stroke="#000000" stroke-width="2" d="M684.5,-617.38C753.2,-617.92 769.57,-627.42 834.25,-626.88"/>
<path fill="none" stroke="#ff8000" stroke-width="2" d="M684.5,-619.38C752.19,-619.65 768.56,-629.15 834.25,-628.88"/>
<path fill="none" stroke="#ff8000" stroke-width="2" d="M684.5,-621.38C751.19,-621.38 767.56,-630.88 834.25,-630.88"/>
<path fill="none" stroke="#ff8000" stroke-width="2" d="M684.5,-623.37C750.19,-623.1 766.56,-632.6 834.25,-632.87"/>
<path fill="none" stroke="#000000" stroke-width="2" d="M684.5,-625.37C749.18,-624.83 765.55,-634.33 834.25,-634.87"/>
</g>
<!-- ENC&#45;&#45;MC508_ENC -->
<g id="edge10" class="edge">
<title>ENC:e&#45;&#45;MC508_ENC:w</title>
<path fill="none" stroke="#000000" stroke-width="2" d="M684.5,-587.63C754.2,-588.76 770.13,-604.26 834.25,-603.13"/>
<path fill="none" stroke="#00ff00" stroke-width="2" d="M684.5,-589.63C752.81,-590.19 768.73,-605.69 834.25,-605.13"/>
<path fill="none" stroke="#ffff00" stroke-width="2" d="M684.5,-591.62C751.41,-591.62 767.34,-607.12 834.25,-607.12"/>
<path fill="none" stroke="#00ff00" stroke-width="2" d="M684.5,-593.62C750.02,-593.06 765.94,-608.56 834.25,-609.12"/>
<path fill="none" stroke="#000000" stroke-width="2" d="M684.5,-595.62C748.62,-594.49 764.55,-609.99 834.25,-611.12"/>
</g>
<!-- ENC&#45;&#45;MC508_ENC -->
<g id="edge12" class="edge">
<title>ENC:e&#45;&#45;MC508_ENC:w</title>
<path fill="none" stroke="#000000" stroke-width="2" d="M684.5,-557.88C755,-559.56 770.27,-581.06 834.25,-579.38"/>
<path fill="none" stroke="#a0dfff" stroke-width="2" d="M684.5,-559.88C753.37,-560.72 768.64,-582.22 834.25,-581.38"/>
<path fill="none" stroke="#0066ff" stroke-width="2" d="M684.5,-561.88C751.74,-561.88 767.01,-583.38 834.25,-583.38"/>
<path fill="none" stroke="#a0dfff" stroke-width="2" d="M684.5,-563.87C750.11,-563.03 765.38,-584.53 834.25,-585.37"/>
<path fill="none" stroke="#000000" stroke-width="2" d="M684.5,-565.87C748.48,-564.19 763.75,-585.69 834.25,-587.37"/>
</g>
<!-- ENC&#45;&#45;MC508_ENC -->
<g id="edge14" class="edge">
<title>ENC:e&#45;&#45;MC508_ENC:w</title>
<path fill="none" stroke="#000000" stroke-width="2" d="M684.5,-528.13C755.71,-530.27 770.12,-557.77 834.25,-555.63"/>
<path fill="none" stroke="#ffff00" stroke-width="2" d="M684.5,-530.13C753.94,-531.2 768.35,-558.7 834.25,-557.63"/>
<path fill="none" stroke="#ffff00" stroke-width="2" d="M684.5,-532.13C752.17,-532.12 766.58,-559.62 834.25,-559.63"/>
<path fill="none" stroke="#ffff00" stroke-width="2" d="M684.5,-534.12C750.4,-533.05 764.81,-560.55 834.25,-561.62"/>
<path fill="none" stroke="#000000" stroke-width="2" d="M684.5,-536.12C748.63,-533.98 763.04,-561.48 834.25,-563.62"/>
</g>
<!-- ENC&#45;&#45;MC508_ENC -->
<g id="edge16" class="edge">
<title>ENC:e&#45;&#45;MC508_ENC:w</title>
<path fill="none" stroke="#000000" stroke-width="2" d="M684.5,-498.38C756.42,-500.89 769.77,-534.39 834.25,-531.88"/>
<path fill="none" stroke="#895956" stroke-width="2" d="M684.5,-500.38C754.56,-501.63 767.91,-535.13 834.25,-533.88"/>
<path fill="none" stroke="#ffffff" stroke-width="2" d="M684.5,-502.38C752.7,-502.38 766.05,-535.88 834.25,-535.87"/>
<path fill="none" stroke="#895956" stroke-width="2" d="M684.5,-504.37C750.84,-503.12 764.19,-536.62 834.25,-537.87"/>
<path fill="none" stroke="#000000" stroke-width="2" d="M684.5,-506.37C748.98,-503.86 762.33,-537.36 834.25,-539.87"/>
</g>
<!-- LFWD&#45;&#45;MIC2981 -->
<g id="edge18" class="edge">
<title>LFWD:e&#45;&#45;MIC2981:w</title>
<path fill="none" stroke="#000000" stroke-width="2" d="M1963.75,-345.5C2227.27,-348.93 2256.39,-550.18 2512,-546.75"/>
<path fill="none" stroke="#0066ff" stroke-width="2" d="M1963.75,-347.5C2225.29,-349.21 2254.41,-550.46 2512,-548.75"/>
<path fill="none" stroke="#0066ff" stroke-width="2" d="M1963.75,-349.5C2223.31,-349.5 2252.44,-550.75 2512,-550.75"/>
<path fill="none" stroke="#0066ff" stroke-width="2" d="M1963.75,-351.5C2221.34,-349.79 2250.46,-551.04 2512,-552.75"/>
<path fill="none" stroke="#000000" stroke-width="2" d="M1963.75,-353.5C2219.36,-350.07 2248.48,-551.32 2512,-554.75"/>
</g>
<!-- LREV&#45;&#45;MIC2981 -->
<g id="edge20" class="edge">
<title>LREV:e&#45;&#45;MIC2981:w</title>
<path fill="none" stroke="#000000" stroke-width="2" d="M1507.62,-259.5C1891.06,-260.03 2029.98,-179.97 2369.96,-368.76 2453.74,-419.4 2421.89,-528.12 2512,-523"/>
<path fill="none" stroke="#ff0000" stroke-width="2" d="M1507.62,-261.5C1892.06,-261.77 2030.98,-181.71 2368.98,-370.51 2451.82,-418.83 2419.97,-527.56 2512,-525"/>
<path fill="none" stroke="#ff0000" stroke-width="2" d="M1507.62,-263.5C1893.06,-263.5 2031.98,-183.44 2368,-372.25 2449.9,-418.27 2418.05,-527 2512,-527"/>
<path fill="none" stroke="#ff0000" stroke-width="2" d="M1507.62,-265.5C1894.06,-265.23 2032.98,-185.17 2367.02,-373.99 2447.99,-417.71 2416.13,-526.44 2512,-529"/>
<path fill="none" stroke="#000000" stroke-width="2" d="M1507.62,-267.5C1895.05,-266.97 2033.98,-186.91 2366.04,-375.74 2446.07,-417.15 2414.21,-525.88 2512,-531"/>
</g>
<!-- UFWD&#45;&#45;MC508_ENC -->
<g id="edge22" class="edge">
<title>UFWD:e&#45;&#45;MC508_ENC:w</title>
<path fill="none" stroke="#000000" stroke-width="2" d="M3265.38,-525.5C3283.02,-530.34 3275.87,-496.93 3261.58,-483.86 3237.3,-458.29 2956.73,-471.42 2922.3,-484.74 2836.55,-513.67 2853.54,-585.65 2763.76,-625.95 2654.2,-670.25 2355.06,-651.24 2238.88,-651.25 1812,-651.25 1812,-651.25 1812,-651.25 1527.51,-650.29 1459.65,-592.15 1194.45,-501.03 1122.41,-474.52 1113.09,-445.75 1044.16,-432.91 998.75,-423.11 867.72,-400.18 838.06,-431.85 812.89,-455.77 801.22,-512.92 834.25,-508.13"/>
<path fill="none" stroke="#999999" stroke-width="2" d="M3265.38,-527.5C3284.98,-529.92 3277.82,-496.51 3262.98,-482.43 3237.2,-456.29 2956.64,-469.42 2921.59,-482.87 2834.6,-514.13 2851.59,-586.11 2763.01,-624.1 2654.32,-668.26 2355.19,-649.25 2238.88,-649.25 1812,-649.25 1812,-649.25 1812,-649.25 1528.81,-648.77 1460.95,-590.63 1195.1,-499.14 1124.32,-473.9 1114.99,-445.13 1044.58,-430.95 999.09,-421.14 868.06,-398.21 836.66,-430.42 810.93,-455.37 799.26,-512.52 834.25,-510.13"/>
<path fill="none" stroke="#999999" stroke-width="2" d="M3265.38,-529.5C3286.94,-529.5 3279.78,-496.09 3264.37,-481 3237.11,-454.29 2956.54,-467.42 2920.87,-481 2832.65,-514.59 2849.65,-586.57 2762.25,-622.25 2654.45,-666.26 2355.31,-647.25 2238.88,-647.25 1812,-647.25 1812,-647.25 1812,-647.25 1530.11,-647.25 1462.25,-589.11 1195.75,-497.25 1126.22,-473.28 1116.89,-444.52 1045,-429 999.44,-419.17 868.41,-396.24 835.25,-429 808.97,-454.97 797.3,-512.12 834.25,-512.12"/>
<path fill="none" stroke="#999999" stroke-width="2" d="M3265.38,-531.5C3288.89,-529.08 3281.73,-495.67 3265.77,-479.57 3237.02,-452.29 2956.45,-465.42 2920.16,-479.13 2830.71,-515.05 2847.7,-587.03 2761.49,-620.4 2654.58,-664.27 2355.44,-645.25 2238.88,-645.25 1812,-645.25 1812,-645.25 1812,-645.25 1531.42,-645.73 1463.55,-587.59 1196.4,-495.36 1128.12,-472.67 1118.79,-443.9 1045.42,-427.05 999.78,-417.2 868.75,-394.27 833.84,-427.58 807.01,-454.57 795.34,-511.73 834.25,-514.12"/>
<path fill="none" stroke="#000000" stroke-width="2" d="M3265.38,-533.5C3290.85,-528.66 3283.69,-495.25 3267.17,-478.14 3236.92,-450.3 2956.36,-463.42 2919.45,-477.26 2828.76,-515.51 2845.75,-587.49 2760.74,-618.55 2654.7,-662.27 2355.57,-643.26 2238.88,-643.25 1812,-643.25 1812,-643.25 1812,-643.25 1532.72,-644.21 1464.85,-586.07 1197.05,-493.47 1130.02,-472.05 1120.7,-443.28 1045.84,-425.09 1000.13,-415.23 869.1,-392.3 832.44,-426.15 805.05,-454.17 793.38,-511.33 834.25,-516.12"/>
</g>
<!-- UREV&#45;&#45;MC508_ENC -->
<g id="edge24" class="edge">
<title>UREV:e&#45;&#45;MC508_ENC:w</title>
<path fill="none" stroke="#000000" stroke-width="2" d="M3280,-358.5C3297.65,-363.34 3290.49,-329.93 3276.2,-316.86 3163.69,-200.68 3074.51,-304.47 2906.54,-317.99 2486.43,-348.17 2388.52,-425.36 1964.04,-457.24 1829.28,-466.98 1795.39,-459.79 1662.17,-457.25 1386.98,-451.78 1318.72,-438.31 1044.92,-433 997.45,-431.97 867.54,-400.21 838.05,-431.85 820.35,-448.33 811.77,-489.2 834.25,-484.38"/>
<path fill="none" stroke="#0066ff" stroke-width="2" d="M3280,-360.5C3299.6,-362.92 3292.45,-329.51 3277.6,-315.43 3162.17,-199.37 3072.99,-303.16 2906.4,-315.99 2485.19,-346.6 2387.29,-423.79 1963.9,-455.24 1829.7,-465.03 1795.81,-457.84 1662.21,-455.25 1387.37,-449.82 1319.1,-436.35 1044.96,-431 997.92,-430.03 868.01,-398.26 836.65,-430.43 818.39,-447.92 809.81,-488.79 834.25,-486.38"/>
<path fill="none" stroke="#ffffff" stroke-width="2" d="M3280,-362.5C3301.56,-362.5 3294.4,-329.09 3279,-314 3160.65,-198.07 3071.47,-301.86 2906.25,-314 2483.95,-345.03 2386.05,-422.22 1963.75,-453.25 1830.11,-463.07 1796.22,-455.88 1662.25,-453.25 1387.76,-447.86 1319.49,-434.39 1045,-429 998.4,-428.08 868.49,-396.32 835.25,-429 816.43,-447.5 807.86,-488.38 834.25,-488.37"/>
<path fill="none" stroke="#0066ff" stroke-width="2" d="M3280,-364.5C3303.52,-362.08 3296.36,-328.67 3280.4,-312.57 3159.14,-196.77 3069.95,-300.56 2906.1,-312.01 2482.71,-343.46 2384.81,-420.65 1963.6,-451.26 1830.53,-461.11 1796.64,-453.92 1662.29,-451.25 1388.15,-445.9 1319.88,-432.43 1045.04,-427 998.87,-426.14 868.96,-394.38 833.85,-427.57 814.47,-447.09 805.9,-487.96 834.25,-490.37"/>
<path fill="none" stroke="#000000" stroke-width="2" d="M3280,-366.5C3305.47,-361.66 3298.31,-328.25 3281.8,-311.14 3157.62,-195.46 3068.44,-299.25 2905.96,-310.01 2481.48,-341.89 2383.57,-419.08 1963.46,-449.26 1830.94,-459.16 1797.05,-451.97 1662.33,-449.25 1388.53,-443.94 1320.27,-430.47 1045.08,-425 999.35,-424.2 869.44,-392.43 832.45,-426.15 812.52,-446.68 803.94,-487.55 834.25,-492.37"/>
</g>
<!-- ICOM&#45;&#45;EXT24V -->
<g id="edge26" class="edge">
<title>ICOM:e&#45;&#45;EXT24V:w</title>
<path fill="none" stroke="#000000" stroke-width="2" d="M1518.25,-728.5C1607.69,-728.5 1630.06,-728.5 1719.5,-728.5"/>
<path fill="none" stroke="#000000" stroke-width="2" d="M1518.25,-730.5C1607.69,-730.5 1630.06,-730.5 1719.5,-730.5"/>
<path fill="none" stroke="#000000" stroke-width="2" d="M1518.25,-732.5C1607.69,-732.5 1630.06,-732.5 1719.5,-732.5"/>
<path fill="none" stroke="#000000" stroke-width="2" d="M1518.25,-734.5C1607.69,-734.5 1630.06,-734.5 1719.5,-734.5"/>
<path fill="none" stroke="#000000" stroke-width="2" d="M1518.25,-736.5C1607.69,-736.5 1630.06,-736.5 1719.5,-736.5"/>
</g>
<!-- V24&#45;&#45;MIC2981 -->
<g id="edge28" class="edge">
<title>V24:e&#45;&#45;MIC2981:w</title>
<path fill="none" stroke="#000000" stroke-width="2" d="M2368,-778.5C2504.04,-784.24 2368.76,-504.99 2512,-499.25"/>
<path fill="none" stroke="#ff0000" stroke-width="2" d="M2368,-780.5C2505.84,-783.37 2370.56,-504.12 2512,-501.25"/>
<path fill="none" stroke="#ff0000" stroke-width="2" d="M2368,-782.5C2507.64,-782.5 2372.36,-503.25 2512,-503.25"/>
<path fill="none" stroke="#ff0000" stroke-width="2" d="M2368,-784.5C2509.44,-781.63 2374.16,-502.38 2512,-505.25"/>
<path fill="none" stroke="#000000" stroke-width="2" d="M2368,-786.5C2511.24,-780.76 2375.96,-501.51 2512,-507.25"/>
</g>
<!-- UGND&#45;&#45;EXT24V -->
<g id="edge30" class="edge">
<title>UGND:e&#45;&#45;EXT24V:w</title>
<path fill="none" stroke="#000000" stroke-width="2" d="M3226.38,-691.5C3244.02,-696.34 3236.87,-662.93 3222.58,-649.86 3204.66,-630.34 2989.7,-649.55 2960.07,-651 2873.34,-654.95 2851.93,-664.34 2762.5,-670.24 2704.41,-673.91 1761.35,-659.91 1723.33,-699.7 1713.2,-708.98 1707.56,-733.4 1719.5,-728.5"/>
<path fill="none" stroke="#000000" stroke-width="2" d="M3226.38,-693.5C3245.98,-695.92 3238.82,-662.51 3223.98,-648.43 3204.48,-628.35 2989.52,-647.56 2959.97,-649 2872.53,-653.11 2851.13,-662.5 2762.38,-668.25 2704.44,-671.91 1761.38,-657.91 1721.92,-698.29 1711.26,-708.53 1705.61,-732.95 1719.5,-730.5"/>
<path fill="none" stroke="#000000" stroke-width="2" d="M3226.38,-695.5C3247.94,-695.5 3240.78,-662.09 3225.38,-647 3204.3,-626.36 2989.34,-645.57 2959.88,-647 2871.73,-651.28 2850.32,-660.67 2762.25,-666.25 2704.47,-669.91 1761.41,-655.91 1720.5,-696.88 1709.31,-708.08 1703.66,-732.5 1719.5,-732.5"/>
<path fill="none" stroke="#000000" stroke-width="2" d="M3226.38,-697.5C3249.89,-695.08 3242.73,-661.67 3226.77,-645.57 3204.12,-624.36 2989.16,-643.58 2959.78,-645 2870.93,-649.45 2849.52,-658.84 2762.12,-664.25 2704.5,-667.91 1761.44,-653.91 1719.08,-695.46 1707.36,-707.63 1701.71,-732.05 1719.5,-734.5"/>
<path fill="none" stroke="#000000" stroke-width="2" d="M3226.38,-699.5C3251.85,-694.66 3244.69,-661.25 3228.17,-644.14 3203.95,-622.37 2988.98,-641.58 2959.68,-643 2870.12,-647.62 2848.72,-657.01 2762,-662.26 2704.53,-665.91 1761.47,-651.91 1717.67,-694.05 1705.41,-707.18 1699.76,-731.6 1719.5,-736.5"/>
</g>
<!-- LPWR&#45;&#45;EXT5V -->
<g id="edge32" class="edge">
<title>LPWR:e&#45;&#45;EXT5V:w</title>
<path fill="none" stroke="#000000" stroke-width="2" d="M627.75,-209.5C718.33,-212.84 730.03,-142.59 828.5,-139.25"/>
<path fill="none" stroke="#ff0000" stroke-width="2" d="M627.75,-211.5C720.3,-213.17 732,-142.92 828.5,-141.25"/>
<path fill="none" stroke="#ff0000" stroke-width="2" d="M627.75,-213.5C722.28,-213.5 733.97,-143.25 828.5,-143.25"/>
<path fill="none" stroke="#ff0000" stroke-width="2" d="M627.75,-215.5C724.25,-213.83 735.95,-143.58 828.5,-145.25"/>
<path fill="none" stroke="#000000" stroke-width="2" d="M627.75,-217.5C726.22,-214.16 737.92,-143.91 828.5,-147.25"/>
</g>
<!-- LGND&#45;&#45;EXT5V -->
<g id="edge34" class="edge">
<title>LGND:e&#45;&#45;EXT5V:w</title>
<path fill="none" stroke="#000000" stroke-width="2" d="M630.38,-44.5C727.87,-47.89 738.91,-118.89 828.5,-115.5"/>
<path fill="none" stroke="#000000" stroke-width="2" d="M630.38,-46.5C725.89,-48.19 736.94,-119.19 828.5,-117.5"/>
<path fill="none" stroke="#000000" stroke-width="2" d="M630.38,-48.5C723.91,-48.5 734.96,-119.5 828.5,-119.5"/>
<path fill="none" stroke="#000000" stroke-width="2" d="M630.38,-50.5C721.94,-48.81 732.98,-119.81 828.5,-121.5"/>
<path fill="none" stroke="#000000" stroke-width="2" d="M630.38,-52.5C719.96,-49.11 731.01,-120.11 828.5,-123.5"/>
</g>
</g>
</svg>
