<?xml version="1.0" encoding="UTF-8" standalone="no"?>
<!DOCTYPE svg PUBLIC "-//W3C//DTD SVG 1.1//EN"
 "http://www.w3.org/Graphics/SVG/1.1/DTD/svg11.dtd">
<!-- Generated by graphviz version 12.2.1 (20241206.2353)
 -->
<!-- Pages: 1 -->
<svg width="3205pt" height="1451pt"
 viewBox="0.00 0.00 3204.88 1450.50" xmlns="http://www.w3.org/2000/svg" xmlns:xlink="http://www.w3.org/1999/xlink">
<g id="graph0" class="graph" transform="scale(1 1) rotate(0) translate(4 1446.5)">
<polygon fill="#ffffff" stroke="none" points="-4,4 -4,-1446.5 3200.88,-1446.5 3200.88,4 -4,4"/>
<!-- MC508_STEP -->
<g id="node1" class="node">
<title>MC508_STEP</title>
<polygon fill="#ffffff" stroke="black" points="313.96,-765 68.21,-765 68.21,-527.5 313.96,-527.5 313.96,-765"/>
<polygon fill="none" stroke="black" points="68.21,-741.25 68.21,-765 313.96,-765 313.96,-741.25 68.21,-741.25"/>
<text text-anchor="start" x="147.58" y="-747.7" font-family="arial" font-size="14.00">MC508_STEP</text>
<polygon fill="none" stroke="black" points="68.21,-717.5 68.21,-741.25 201.58,-741.25 201.58,-717.5 68.21,-717.5"/>
<text text-anchor="start" x="109.4" y="-723.95" font-family="arial" font-size="14.00">MDR&#45;20</text>
<polygon fill="none" stroke="black" points="201.58,-717.5 201.58,-741.25 313.96,-741.25 313.96,-717.5 201.58,-717.5"/>
<text text-anchor="start" x="242.77" y="-723.95" font-family="arial" font-size="14.00">7&#45;pin</text>
<polygon fill="none" stroke="black" points="68.21,-693.75 68.21,-717.5 129.63,-717.5 129.63,-693.75 68.21,-693.75"/>
<text text-anchor="start" x="95.17" y="-700.2" font-family="arial" font-size="14.00">1</text>
<polygon fill="none" stroke="black" points="129.63,-693.75 129.63,-717.5 252.54,-717.5 252.54,-693.75 129.63,-693.75"/>
<text text-anchor="start" x="160.71" y="-700.2" font-family="arial" font-size="14.00">Pulse(N)+</text>
<polygon fill="none" stroke="black" points="252.54,-693.75 252.54,-717.5 313.96,-717.5 313.96,-693.75 252.54,-693.75"/>
<text text-anchor="start" x="279.5" y="-700.2" font-family="arial" font-size="14.00">1</text>
<polygon fill="none" stroke="black" points="68.21,-670 68.21,-693.75 129.63,-693.75 129.63,-670 68.21,-670"/>
<text text-anchor="start" x="95.17" y="-676.45" font-family="arial" font-size="14.00">3</text>
<polygon fill="none" stroke="black" points="129.63,-670 129.63,-693.75 252.54,-693.75 252.54,-670 129.63,-670"/>
<text text-anchor="start" x="168.96" y="-676.45" font-family="arial" font-size="14.00">Dir(N)+</text>
<polygon fill="none" stroke="black" points="252.54,-670 252.54,-693.75 313.96,-693.75 313.96,-670 252.54,-670"/>
<text text-anchor="start" x="279.5" y="-676.45" font-family="arial" font-size="14.00">3</text>
<polygon fill="none" stroke="black" points="68.21,-646.25 68.21,-670 129.63,-670 129.63,-646.25 68.21,-646.25"/>
<text text-anchor="start" x="91.79" y="-652.7" font-family="arial" font-size="14.00">11</text>
<polygon fill="none" stroke="black" points="129.63,-646.25 129.63,-670 252.54,-670 252.54,-646.25 129.63,-646.25"/>
<text text-anchor="start" x="152.83" y="-652.7" font-family="arial" font-size="14.00">Pulse(N+8)+</text>
<polygon fill="none" stroke="black" points="252.54,-646.25 252.54,-670 313.96,-670 313.96,-646.25 252.54,-646.25"/>
<text text-anchor="start" x="276.13" y="-652.7" font-family="arial" font-size="14.00">11</text>
<polygon fill="none" stroke="black" points="68.21,-622.5 68.21,-646.25 129.63,-646.25 129.63,-622.5 68.21,-622.5"/>
<text text-anchor="start" x="91.42" y="-628.95" font-family="arial" font-size="14.00">13</text>
<polygon fill="none" stroke="black" points="129.63,-622.5 129.63,-646.25 252.54,-646.25 252.54,-622.5 129.63,-622.5"/>
<text text-anchor="start" x="161.08" y="-628.95" font-family="arial" font-size="14.00">Dir(N+8)+</text>
<polygon fill="none" stroke="black" points="252.54,-622.5 252.54,-646.25 313.96,-646.25 313.96,-622.5 252.54,-622.5"/>
<text text-anchor="start" x="275.75" y="-628.95" font-family="arial" font-size="14.00">13</text>
<polygon fill="none" stroke="black" points="68.21,-598.75 68.21,-622.5 129.63,-622.5 129.63,-598.75 68.21,-598.75"/>
<text text-anchor="start" x="95.17" y="-605.2" font-family="arial" font-size="14.00">7</text>
<polygon fill="none" stroke="black" points="129.63,-598.75 129.63,-622.5 252.54,-622.5 252.54,-598.75 129.63,-598.75"/>
<text text-anchor="start" x="164.08" y="-605.2" font-family="arial" font-size="14.00">WDOG+</text>
<polygon fill="none" stroke="black" points="252.54,-598.75 252.54,-622.5 313.96,-622.5 313.96,-598.75 252.54,-598.75"/>
<text text-anchor="start" x="279.5" y="-605.2" font-family="arial" font-size="14.00">7</text>
<polygon fill="none" stroke="black" points="68.21,-575 68.21,-598.75 129.63,-598.75 129.63,-575 68.21,-575"/>
<text text-anchor="start" x="95.17" y="-581.45" font-family="arial" font-size="14.00">8</text>
<polygon fill="none" stroke="black" points="129.63,-575 129.63,-598.75 252.54,-598.75 252.54,-575 129.63,-575"/>
<text text-anchor="start" x="165.96" y="-581.45" font-family="arial" font-size="14.00">WDOG&#45;</text>
<polygon fill="none" stroke="black" points="252.54,-575 252.54,-598.75 313.96,-598.75 313.96,-575 252.54,-575"/>
<text text-anchor="start" x="279.5" y="-581.45" font-family="arial" font-size="14.00">8</text>
<polygon fill="none" stroke="black" points="68.21,-551.25 68.21,-575 129.63,-575 129.63,-551.25 68.21,-551.25"/>
<text text-anchor="start" x="91.42" y="-557.7" font-family="arial" font-size="14.00">15</text>
<polygon fill="none" stroke="black" points="129.63,-551.25 129.63,-575 252.54,-575 252.54,-551.25 129.63,-551.25"/>
<text text-anchor="start" x="182.83" y="-557.7" font-family="arial" font-size="14.00">0V</text>
<polygon fill="none" stroke="black" points="252.54,-551.25 252.54,-575 313.96,-575 313.96,-551.25 252.54,-551.25"/>
<text text-anchor="start" x="275.75" y="-557.7" font-family="arial" font-size="14.00">15</text>
<polygon fill="none" stroke="black" points="68.21,-527.5 68.21,-551.25 313.96,-551.25 313.96,-527.5 68.21,-527.5"/>
<text text-anchor="start" x="72.21" y="-533.95" font-family="arial" font-size="14.00">MC508 Stepper Port (ATYPE 43, P849)</text>
</g>
<!-- STEPA_PUL -->
<g id="node6" class="node">
<title>STEPA_PUL</title>
<polygon fill="#ffffff" stroke="black" points="811.96,-1442.5 479.71,-1442.5 479.71,-1302 811.96,-1302 811.96,-1442.5"/>
<polygon fill="none" stroke="black" points="479.71,-1418.75 479.71,-1442.5 811.96,-1442.5 811.96,-1418.75 479.71,-1418.75"/>
<text text-anchor="start" x="607.21" y="-1425.2" font-family="arial" font-size="14.00">STEPA_PUL</text>
<polygon fill="none" stroke="black" points="479.71,-1395 479.71,-1418.75 811.96,-1418.75 811.96,-1395 479.71,-1395"/>
<text text-anchor="start" x="638.71" y="-1401.45" font-family="arial" font-size="14.00">1x</text>
<text text-anchor="start" x="561.21" y="-1379.7" font-family="arial" font-size="14.00"> </text>
<text text-anchor="start" x="481.71" y="-1359.95" font-family="arial" font-size="14.00">MC508_STEP:1:Pulse(N)+</text>
<text text-anchor="start" x="648.46" y="-1359.95" font-family="arial" font-size="14.00"> &#160;&#160;&#160;&#160;1:BK &#160;&#160;&#160;</text>
<text text-anchor="start" x="715.46" y="-1359.95" font-family="arial" font-size="14.00">DRV_A:1:PUL+</text>
<polygon fill="#000000" stroke="none" points="479.71,-1353.5 479.71,-1355.5 811.96,-1355.5 811.96,-1353.5 479.71,-1353.5"/>
<polygon fill="#000000" stroke="none" points="479.71,-1351.5 479.71,-1353.5 811.96,-1353.5 811.96,-1351.5 479.71,-1351.5"/>
<polygon fill="#000000" stroke="none" points="479.71,-1349.5 479.71,-1351.5 811.96,-1351.5 811.96,-1349.5 479.71,-1349.5"/>
<polygon fill="#000000" stroke="none" points="479.71,-1347.5 479.71,-1349.5 811.96,-1349.5 811.96,-1347.5 479.71,-1347.5"/>
<polygon fill="#000000" stroke="none" points="479.71,-1345.5 479.71,-1347.5 811.96,-1347.5 811.96,-1345.5 479.71,-1345.5"/>
<text text-anchor="start" x="561.21" y="-1330.2" font-family="arial" font-size="14.00"> </text>
<polygon fill="none" stroke="black" points="479.71,-1302 479.71,-1325.75 811.96,-1325.75 811.96,-1302 479.71,-1302"/>
<text text-anchor="start" x="608.33" y="-1308.45" font-family="arial" font-size="14.00">Axis N pulse</text>
</g>
<!-- MC508_STEP&#45;&#45;STEPA_PUL -->
<g id="edge1" class="edge">
<title>MC508_STEP:e&#45;&#45;STEPA_PUL:w</title>
<path fill="none" stroke="#000000" stroke-width="2" d="M313.96,-701.63C613.11,-707.83 186.23,-1352.71 478.71,-1346.5"/>
<path fill="none" stroke="#000000" stroke-width="2" d="M313.96,-703.63C611.44,-706.73 184.56,-1351.6 478.71,-1348.5"/>
<path fill="none" stroke="#000000" stroke-width="2" d="M313.96,-705.62C609.78,-705.62 182.89,-1350.5 478.71,-1350.5"/>
<path fill="none" stroke="#000000" stroke-width="2" d="M313.96,-707.62C608.11,-704.52 181.23,-1349.4 478.71,-1352.5"/>
<path fill="none" stroke="#000000" stroke-width="2" d="M313.96,-709.62C606.44,-703.42 179.56,-1348.29 478.71,-1354.5"/>
</g>
<!-- STEPA_DIR -->
<g id="node7" class="node">
<title>STEPA_DIR</title>
<polygon fill="#ffffff" stroke="black" points="802.96,-1277.5 488.71,-1277.5 488.71,-1137 802.96,-1137 802.96,-1277.5"/>
<polygon fill="none" stroke="black" points="488.71,-1253.75 488.71,-1277.5 802.96,-1277.5 802.96,-1253.75 488.71,-1253.75"/>
<text text-anchor="start" x="608.71" y="-1260.2" font-family="arial" font-size="14.00">STEPA_DIR</text>
<polygon fill="none" stroke="black" points="488.71,-1230 488.71,-1253.75 802.96,-1253.75 802.96,-1230 488.71,-1230"/>
<text text-anchor="start" x="638.71" y="-1236.45" font-family="arial" font-size="14.00">1x</text>
<text text-anchor="start" x="561.96" y="-1214.7" font-family="arial" font-size="14.00"> </text>
<text text-anchor="start" x="490.71" y="-1194.95" font-family="arial" font-size="14.00">MC508_STEP:3:Dir(N)+</text>
<text text-anchor="start" x="640.96" y="-1194.95" font-family="arial" font-size="14.00"> &#160;&#160;&#160;&#160;1:RD &#160;&#160;&#160;</text>
<text text-anchor="start" x="709.46" y="-1194.95" font-family="arial" font-size="14.00">DRV_A:3:DIR+</text>
<polygon fill="#000000" stroke="none" points="488.71,-1188.5 488.71,-1190.5 802.96,-1190.5 802.96,-1188.5 488.71,-1188.5"/>
<polygon fill="#ff0000" stroke="none" points="488.71,-1186.5 488.71,-1188.5 802.96,-1188.5 802.96,-1186.5 488.71,-1186.5"/>
<polygon fill="#ff0000" stroke="none" points="488.71,-1184.5 488.71,-1186.5 802.96,-1186.5 802.96,-1184.5 488.71,-1184.5"/>
<polygon fill="#ff0000" stroke="none" points="488.71,-1182.5 488.71,-1184.5 802.96,-1184.5 802.96,-1182.5 488.71,-1182.5"/>
<polygon fill="#000000" stroke="none" points="488.71,-1180.5 488.71,-1182.5 802.96,-1182.5 802.96,-1180.5 488.71,-1180.5"/>
<text text-anchor="start" x="561.96" y="-1165.2" font-family="arial" font-size="14.00"> </text>
<polygon fill="none" stroke="black" points="488.71,-1137 488.71,-1160.75 802.96,-1160.75 802.96,-1137 488.71,-1137"/>
<text text-anchor="start" x="598.96" y="-1143.45" font-family="arial" font-size="14.00">Axis N direction</text>
</g>
<!-- MC508_STEP&#45;&#45;STEPA_DIR -->
<g id="edge3" class="edge">
<title>MC508_STEP:e&#45;&#45;STEPA_DIR:w</title>
<path fill="none" stroke="#000000" stroke-width="2" d="M313.96,-677.88C554.18,-683.92 254.37,-1187.55 487.71,-1181.5"/>
<path fill="none" stroke="#ff0000" stroke-width="2" d="M313.96,-679.88C552.46,-682.9 252.65,-1186.52 487.71,-1183.5"/>
<path fill="none" stroke="#ff0000" stroke-width="2" d="M313.96,-681.88C550.74,-681.87 250.93,-1185.5 487.71,-1185.5"/>
<path fill="none" stroke="#ff0000" stroke-width="2" d="M313.96,-683.87C549.02,-680.85 249.21,-1184.48 487.71,-1187.5"/>
<path fill="none" stroke="#000000" stroke-width="2" d="M313.96,-685.87C547.3,-679.83 247.49,-1183.45 487.71,-1189.5"/>
</g>
<!-- STEPB_PUL -->
<g id="node10" class="node">
<title>STEPB_PUL</title>
<polygon fill="#ffffff" stroke="black" points="833.71,-1063.5 457.96,-1063.5 457.96,-923 833.71,-923 833.71,-1063.5"/>
<polygon fill="none" stroke="black" points="457.96,-1039.75 457.96,-1063.5 833.71,-1063.5 833.71,-1039.75 457.96,-1039.75"/>
<text text-anchor="start" x="606.83" y="-1046.2" font-family="arial" font-size="14.00">STEPB_PUL</text>
<polygon fill="none" stroke="black" points="457.96,-1016 457.96,-1039.75 833.71,-1039.75 833.71,-1016 457.96,-1016"/>
<text text-anchor="start" x="638.71" y="-1022.45" font-family="arial" font-size="14.00">1x</text>
<text text-anchor="start" x="550.71" y="-1000.7" font-family="arial" font-size="14.00"> </text>
<text text-anchor="start" x="459.96" y="-980.95" font-family="arial" font-size="14.00">MC508_STEP:11:Pulse(N+8)+</text>
<text text-anchor="start" x="649.21" y="-980.95" font-family="arial" font-size="14.00"> &#160;&#160;&#160;&#160;1:GNYE &#160;&#160;&#160;</text>
<text text-anchor="start" x="737.21" y="-980.95" font-family="arial" font-size="14.00">DRV_B:1:PUL+</text>
<polygon fill="#000000" stroke="none" points="457.96,-974.5 457.96,-976.5 833.71,-976.5 833.71,-974.5 457.96,-974.5"/>
<polygon fill="#00ff00" stroke="none" points="457.96,-972.5 457.96,-974.5 833.71,-974.5 833.71,-972.5 457.96,-972.5"/>
<polygon fill="#ffff00" stroke="none" points="457.96,-970.5 457.96,-972.5 833.71,-972.5 833.71,-970.5 457.96,-970.5"/>
<polygon fill="#00ff00" stroke="none" points="457.96,-968.5 457.96,-970.5 833.71,-970.5 833.71,-968.5 457.96,-968.5"/>
<polygon fill="#000000" stroke="none" points="457.96,-966.5 457.96,-968.5 833.71,-968.5 833.71,-966.5 457.96,-966.5"/>
<text text-anchor="start" x="550.71" y="-951.2" font-family="arial" font-size="14.00"> </text>
<polygon fill="none" stroke="black" points="457.96,-923 457.96,-946.75 833.71,-946.75 833.71,-923 457.96,-923"/>
<text text-anchor="start" x="600.46" y="-929.45" font-family="arial" font-size="14.00">Axis N+8 pulse</text>
</g>
<!-- MC508_STEP&#45;&#45;STEPB_PUL -->
<g id="edge9" class="edge">
<title>MC508_STEP:e&#45;&#45;STEPB_PUL:w</title>
<path fill="none" stroke="#000000" stroke-width="2" d="M313.96,-654.13C470.79,-659.97 308.23,-973.34 457.96,-967.5"/>
<path fill="none" stroke="#00ff00" stroke-width="2" d="M313.96,-656.13C469.01,-659.05 306.46,-972.42 457.96,-969.5"/>
<path fill="none" stroke="#ffff00" stroke-width="2" d="M313.96,-658.13C467.24,-658.12 304.68,-971.5 457.96,-971.5"/>
<path fill="none" stroke="#00ff00" stroke-width="2" d="M313.96,-660.12C465.46,-657.2 302.91,-970.58 457.96,-973.5"/>
<path fill="none" stroke="#000000" stroke-width="2" d="M313.96,-662.12C463.69,-656.28 301.13,-969.66 457.96,-975.5"/>
</g>
<!-- STEPB_DIR -->
<g id="node11" class="node">
<title>STEPB_DIR</title>
<polygon fill="#ffffff" stroke="black" points="813.83,-733.5 477.83,-733.5 477.83,-593 813.83,-593 813.83,-733.5"/>
<polygon fill="none" stroke="black" points="477.83,-709.75 477.83,-733.5 813.83,-733.5 813.83,-709.75 477.83,-709.75"/>
<text text-anchor="start" x="608.33" y="-716.2" font-family="arial" font-size="14.00">STEPB_DIR</text>
<polygon fill="none" stroke="black" points="477.83,-686 477.83,-709.75 813.83,-709.75 813.83,-686 477.83,-686"/>
<text text-anchor="start" x="638.71" y="-692.45" font-family="arial" font-size="14.00">1x</text>
<text text-anchor="start" x="562.71" y="-670.7" font-family="arial" font-size="14.00"> </text>
<text text-anchor="start" x="479.83" y="-650.95" font-family="arial" font-size="14.00">MC508_STEP:13:Dir(N+8)+</text>
<text text-anchor="start" x="653.33" y="-650.95" font-family="arial" font-size="14.00"> &#160;&#160;&#160;&#160;1:PK &#160;&#160;&#160;</text>
<text text-anchor="start" x="720.33" y="-650.95" font-family="arial" font-size="14.00">DRV_B:3:DIR+</text>
<polygon fill="#000000" stroke="none" points="477.83,-644.5 477.83,-646.5 813.83,-646.5 813.83,-644.5 477.83,-644.5"/>
<polygon fill="#ff66cc" stroke="none" points="477.83,-642.5 477.83,-644.5 813.83,-644.5 813.83,-642.5 477.83,-642.5"/>
<polygon fill="#ff66cc" stroke="none" points="477.83,-640.5 477.83,-642.5 813.83,-642.5 813.83,-640.5 477.83,-640.5"/>
<polygon fill="#ff66cc" stroke="none" points="477.83,-638.5 477.83,-640.5 813.83,-640.5 813.83,-638.5 477.83,-638.5"/>
<polygon fill="#000000" stroke="none" points="477.83,-636.5 477.83,-638.5 813.83,-638.5 813.83,-636.5 477.83,-636.5"/>
<text text-anchor="start" x="562.71" y="-621.2" font-family="arial" font-size="14.00"> </text>
<polygon fill="none" stroke="black" points="477.83,-593 477.83,-616.75 813.83,-616.75 813.83,-593 477.83,-593"/>
<text text-anchor="start" x="591.08" y="-599.45" font-family="arial" font-size="14.00">Axis N+8 direction</text>
</g>
<!-- MC508_STEP&#45;&#45;STEPB_DIR -->
<g id="edge11" class="edge">
<title>MC508_STEP:e&#45;&#45;STEPB_DIR:w</title>
<path fill="none" stroke="#000000" stroke-width="2" d="M313.96,-630.38C387.89,-630.66 405.85,-637.78 476.83,-637.5"/>
<path fill="none" stroke="#ff66cc" stroke-width="2" d="M313.96,-632.38C387.16,-632.52 405.11,-639.64 476.83,-639.5"/>
<path fill="none" stroke="#ff66cc" stroke-width="2" d="M313.96,-634.38C386.42,-634.38 404.38,-641.5 476.83,-641.5"/>
<path fill="none" stroke="#ff66cc" stroke-width="2" d="M313.96,-636.37C385.68,-636.23 403.64,-643.36 476.83,-643.5"/>
<path fill="none" stroke="#000000" stroke-width="2" d="M313.96,-638.37C384.94,-638.09 402.9,-645.22 476.83,-645.5"/>
</g>
<!-- WDA -->
<g id="node16" class="node">
<title>WDA</title>
<polygon fill="#ffffff" stroke="black" points="809.71,-898.5 481.96,-898.5 481.96,-758 809.71,-758 809.71,-898.5"/>
<polygon fill="none" stroke="black" points="481.96,-874.75 481.96,-898.5 809.71,-898.5 809.71,-874.75 481.96,-874.75"/>
<text text-anchor="start" x="629.71" y="-881.2" font-family="arial" font-size="14.00">WDA</text>
<polygon fill="none" stroke="black" points="481.96,-851 481.96,-874.75 809.71,-874.75 809.71,-851 481.96,-851"/>
<text text-anchor="start" x="638.71" y="-857.45" font-family="arial" font-size="14.00">1x</text>
<text text-anchor="start" x="558.21" y="-835.7" font-family="arial" font-size="14.00"> </text>
<text text-anchor="start" x="483.96" y="-815.95" font-family="arial" font-size="14.00">MC508_STEP:8:WDOG&#45;</text>
<text text-anchor="start" x="640.21" y="-815.95" font-family="arial" font-size="14.00"> &#160;&#160;&#160;&#160;1:OG &#160;&#160;&#160;</text>
<text text-anchor="start" x="711.71" y="-815.95" font-family="arial" font-size="14.00">DRV_A:5:ENA+</text>
<polygon fill="#000000" stroke="none" points="481.96,-809.5 481.96,-811.5 809.71,-811.5 809.71,-809.5 481.96,-809.5"/>
<polygon fill="#ff8000" stroke="none" points="481.96,-807.5 481.96,-809.5 809.71,-809.5 809.71,-807.5 481.96,-807.5"/>
<polygon fill="#ff8000" stroke="none" points="481.96,-805.5 481.96,-807.5 809.71,-807.5 809.71,-805.5 481.96,-805.5"/>
<polygon fill="#ff8000" stroke="none" points="481.96,-803.5 481.96,-805.5 809.71,-805.5 809.71,-803.5 481.96,-803.5"/>
<polygon fill="#000000" stroke="none" points="481.96,-801.5 481.96,-803.5 809.71,-803.5 809.71,-801.5 481.96,-801.5"/>
<text text-anchor="start" x="558.21" y="-786.2" font-family="arial" font-size="14.00"> </text>
<polygon fill="none" stroke="black" points="481.96,-758 481.96,-781.75 809.71,-781.75 809.71,-758 481.96,-758"/>
<text text-anchor="start" x="567.83" y="-764.45" font-family="arial" font-size="14.00">WDOG&#45; to Driver A ENA+</text>
</g>
<!-- MC508_STEP&#45;&#45;WDA -->
<g id="edge21" class="edge">
<title>MC508_STEP:e&#45;&#45;WDA:w</title>
<path fill="none" stroke="#000000" stroke-width="2" d="M313.96,-582.88C440.35,-588.22 362.1,-807.84 480.96,-802.5"/>
<path fill="none" stroke="#ff8000" stroke-width="2" d="M313.96,-584.88C438.47,-587.55 360.22,-807.17 480.96,-804.5"/>
<path fill="none" stroke="#ff8000" stroke-width="2" d="M313.96,-586.88C436.58,-586.88 358.34,-806.5 480.96,-806.5"/>
<path fill="none" stroke="#ff8000" stroke-width="2" d="M313.96,-588.87C434.7,-586.2 356.45,-805.83 480.96,-808.5"/>
<path fill="none" stroke="#000000" stroke-width="2" d="M313.96,-590.87C432.82,-585.53 354.57,-805.16 480.96,-810.5"/>
</g>
<!-- WDB -->
<g id="node18" class="node">
<title>WDB</title>
<polygon fill="#ffffff" stroke="black" points="809.71,-449.5 481.96,-449.5 481.96,-309 809.71,-309 809.71,-449.5"/>
<polygon fill="none" stroke="black" points="481.96,-425.75 481.96,-449.5 809.71,-449.5 809.71,-425.75 481.96,-425.75"/>
<text text-anchor="start" x="629.71" y="-432.2" font-family="arial" font-size="14.00">WDB</text>
<polygon fill="none" stroke="black" points="481.96,-402 481.96,-425.75 809.71,-425.75 809.71,-402 481.96,-402"/>
<text text-anchor="start" x="638.71" y="-408.45" font-family="arial" font-size="14.00">1x</text>
<text text-anchor="start" x="558.21" y="-386.7" font-family="arial" font-size="14.00"> </text>
<text text-anchor="start" x="483.96" y="-366.95" font-family="arial" font-size="14.00">MC508_STEP:8:WDOG&#45;</text>
<text text-anchor="start" x="640.21" y="-366.95" font-family="arial" font-size="14.00"> &#160;&#160;&#160;&#160;1:OG &#160;&#160;&#160;</text>
<text text-anchor="start" x="711.71" y="-366.95" font-family="arial" font-size="14.00">DRV_B:5:ENA+</text>
<polygon fill="#000000" stroke="none" points="481.96,-360.5 481.96,-362.5 809.71,-362.5 809.71,-360.5 481.96,-360.5"/>
<polygon fill="#ff8000" stroke="none" points="481.96,-358.5 481.96,-360.5 809.71,-360.5 809.71,-358.5 481.96,-358.5"/>
<polygon fill="#ff8000" stroke="none" points="481.96,-356.5 481.96,-358.5 809.71,-358.5 809.71,-356.5 481.96,-356.5"/>
<polygon fill="#ff8000" stroke="none" points="481.96,-354.5 481.96,-356.5 809.71,-356.5 809.71,-354.5 481.96,-354.5"/>
<polygon fill="#000000" stroke="none" points="481.96,-352.5 481.96,-354.5 809.71,-354.5 809.71,-352.5 481.96,-352.5"/>
<text text-anchor="start" x="558.21" y="-337.2" font-family="arial" font-size="14.00"> </text>
<polygon fill="none" stroke="black" points="481.96,-309 481.96,-332.75 809.71,-332.75 809.71,-309 481.96,-309"/>
<text text-anchor="start" x="567.08" y="-315.45" font-family="arial" font-size="14.00">WDOG&#45; to Driver B ENA+</text>
</g>
<!-- MC508_STEP&#45;&#45;WDB -->
<g id="edge25" class="edge">
<title>MC508_STEP:e&#45;&#45;WDB:w</title>
<path fill="none" stroke="#000000" stroke-width="2" d="M313.96,-582.88C436.31,-588.27 351.11,-358.89 480.96,-353.5"/>
<path fill="none" stroke="#ff8000" stroke-width="2" d="M313.96,-584.88C438.19,-587.57 352.98,-358.2 480.96,-355.5"/>
<path fill="none" stroke="#ff8000" stroke-width="2" d="M313.96,-586.87C440.06,-586.87 354.86,-357.5 480.96,-357.5"/>
<path fill="none" stroke="#ff8000" stroke-width="2" d="M313.96,-588.87C441.94,-586.18 356.73,-356.8 480.96,-359.5"/>
<path fill="none" stroke="#000000" stroke-width="2" d="M313.96,-590.87C443.81,-585.48 358.61,-356.11 480.96,-361.5"/>
</g>
<!-- SGND -->
<g id="node20" class="node">
<title>SGND</title>
<polygon fill="#ffffff" stroke="black" points="1267.21,-140.5 977.71,-140.5 977.71,0 1267.21,0 1267.21,-140.5"/>
<polygon fill="none" stroke="black" points="977.71,-116.75 977.71,-140.5 1267.21,-140.5 1267.21,-116.75 977.71,-116.75"/>
<text text-anchor="start" x="1102.58" y="-123.2" font-family="arial" font-size="14.00">SGND</text>
<polygon fill="none" stroke="black" points="977.71,-93 977.71,-116.75 1267.21,-116.75 1267.21,-93 977.71,-93"/>
<text text-anchor="start" x="1115.33" y="-99.45" font-family="arial" font-size="14.00">1x</text>
<text text-anchor="start" x="1040.83" y="-77.7" font-family="arial" font-size="14.00"> </text>
<text text-anchor="start" x="979.71" y="-57.95" font-family="arial" font-size="14.00">MC508_STEP:15:0V</text>
<text text-anchor="start" x="1109.71" y="-57.95" font-family="arial" font-size="14.00"> &#160;&#160;&#160;&#160;1:BK &#160;&#160;&#160;</text>
<text text-anchor="start" x="1176.71" y="-57.95" font-family="arial" font-size="14.00">EXT5V:2:GND</text>
<polygon fill="#000000" stroke="none" points="977.71,-51.5 977.71,-53.5 1267.21,-53.5 1267.21,-51.5 977.71,-51.5"/>
<polygon fill="#000000" stroke="none" points="977.71,-49.5 977.71,-51.5 1267.21,-51.5 1267.21,-49.5 977.71,-49.5"/>
<polygon fill="#000000" stroke="none" points="977.71,-47.5 977.71,-49.5 1267.21,-49.5 1267.21,-47.5 977.71,-47.5"/>
<polygon fill="#000000" stroke="none" points="977.71,-45.5 977.71,-47.5 1267.21,-47.5 1267.21,-45.5 977.71,-45.5"/>
<polygon fill="#000000" stroke="none" points="977.71,-43.5 977.71,-45.5 1267.21,-45.5 1267.21,-43.5 977.71,-43.5"/>
<text text-anchor="start" x="1040.83" y="-28.2" font-family="arial" font-size="14.00"> </text>
<polygon fill="none" stroke="black" points="977.71,0 977.71,-23.75 1267.21,-23.75 1267.21,0 977.71,0"/>
<text text-anchor="start" x="1071.83" y="-6.45" font-family="arial" font-size="14.00">Signal ground tie</text>
</g>
<!-- MC508_STEP&#45;&#45;SGND -->
<g id="edge29" class="edge">
<title>MC508_STEP:e&#45;&#45;SGND:w</title>
<path fill="none" stroke="#000000" stroke-width="2" d="M313.96,-559.13C492.43,-565.33 319.11,-303.65 455.29,-177.27 636.6,-17.52 740.41,-44.63 977.71,-44.5"/>
<path fill="none" stroke="#000000" stroke-width="2" d="M313.96,-561.13C494.1,-564.23 320.78,-302.55 456.63,-178.76 636.1,-19.46 739.91,-46.56 977.71,-46.5"/>
<path fill="none" stroke="#000000" stroke-width="2" d="M313.96,-563.13C495.76,-563.12 322.44,-301.44 457.96,-180.25 635.59,-21.39 739.4,-48.5 977.71,-48.5"/>
<path fill="none" stroke="#000000" stroke-width="2" d="M313.96,-565.12C497.43,-562.02 324.11,-300.34 459.29,-181.74 635.09,-23.33 738.9,-50.44 977.71,-50.5"/>
<path fill="none" stroke="#000000" stroke-width="2" d="M313.96,-567.12C499.1,-560.92 325.78,-299.23 460.63,-183.23 634.58,-25.26 738.39,-52.37 977.71,-52.5"/>
</g>
<!-- DRV_A -->
<g id="node2" class="node">
<title>DRV_A</title>
<polygon fill="#ffffff" stroke="black" points="1203.33,-1007.12 1041.58,-1007.12 1041.58,-793.38 1203.33,-793.38 1203.33,-1007.12"/>
<polygon fill="none" stroke="black" points="1041.58,-983.38 1041.58,-1007.12 1203.33,-1007.12 1203.33,-983.38 1041.58,-983.38"/>
<text text-anchor="start" x="1099.96" y="-989.83" font-family="arial" font-size="14.00">DRV_A</text>
<polygon fill="none" stroke="black" points="1041.58,-959.62 1041.58,-983.38 1153.96,-983.38 1153.96,-959.62 1041.58,-959.62"/>
<text text-anchor="start" x="1051.27" y="-966.08" font-family="arial" font-size="14.00">Screw Terminal</text>
<polygon fill="none" stroke="black" points="1153.96,-959.62 1153.96,-983.38 1203.33,-983.38 1203.33,-959.62 1153.96,-959.62"/>
<text text-anchor="start" x="1163.65" y="-966.08" font-family="arial" font-size="14.00">6&#45;pin</text>
<polygon fill="none" stroke="black" points="1041.58,-935.88 1041.58,-959.62 1086,-959.62 1086,-935.88 1041.58,-935.88"/>
<text text-anchor="start" x="1060.04" y="-942.33" font-family="arial" font-size="14.00">1</text>
<polygon fill="none" stroke="black" points="1086,-935.88 1086,-959.62 1158.92,-959.62 1158.92,-935.88 1086,-935.88"/>
<text text-anchor="start" x="1105.21" y="-942.33" font-family="arial" font-size="14.00">PUL+</text>
<polygon fill="none" stroke="black" points="1158.92,-935.88 1158.92,-959.62 1203.33,-959.62 1203.33,-935.88 1158.92,-935.88"/>
<text text-anchor="start" x="1177.38" y="-942.33" font-family="arial" font-size="14.00">1</text>
<polygon fill="none" stroke="black" points="1041.58,-912.12 1041.58,-935.88 1086,-935.88 1086,-912.12 1041.58,-912.12"/>
<text text-anchor="start" x="1060.04" y="-918.58" font-family="arial" font-size="14.00">2</text>
<polygon fill="none" stroke="black" points="1086,-912.12 1086,-935.88 1158.92,-935.88 1158.92,-912.12 1086,-912.12"/>
<text text-anchor="start" x="1107.08" y="-918.58" font-family="arial" font-size="14.00">PUL&#45;</text>
<polygon fill="none" stroke="black" points="1158.92,-912.12 1158.92,-935.88 1203.33,-935.88 1203.33,-912.12 1158.92,-912.12"/>
<text text-anchor="start" x="1177.38" y="-918.58" font-family="arial" font-size="14.00">2</text>
<polygon fill="none" stroke="black" points="1041.58,-888.38 1041.58,-912.12 1086,-912.12 1086,-888.38 1041.58,-888.38"/>
<text text-anchor="start" x="1060.04" y="-894.83" font-family="arial" font-size="14.00">3</text>
<polygon fill="none" stroke="black" points="1086,-888.38 1086,-912.12 1158.92,-912.12 1158.92,-888.38 1086,-888.38"/>
<text text-anchor="start" x="1106.71" y="-894.83" font-family="arial" font-size="14.00">DIR+</text>
<polygon fill="none" stroke="black" points="1158.92,-888.38 1158.92,-912.12 1203.33,-912.12 1203.33,-888.38 1158.92,-888.38"/>
<text text-anchor="start" x="1177.38" y="-894.83" font-family="arial" font-size="14.00">3</text>
<polygon fill="none" stroke="black" points="1041.58,-864.62 1041.58,-888.38 1086,-888.38 1086,-864.62 1041.58,-864.62"/>
<text text-anchor="start" x="1060.04" y="-871.08" font-family="arial" font-size="14.00">4</text>
<polygon fill="none" stroke="black" points="1086,-864.62 1086,-888.38 1158.92,-888.38 1158.92,-864.62 1086,-864.62"/>
<text text-anchor="start" x="1108.58" y="-871.08" font-family="arial" font-size="14.00">DIR&#45;</text>
<polygon fill="none" stroke="black" points="1158.92,-864.62 1158.92,-888.38 1203.33,-888.38 1203.33,-864.62 1158.92,-864.62"/>
<text text-anchor="start" x="1177.38" y="-871.08" font-family="arial" font-size="14.00">4</text>
<polygon fill="none" stroke="black" points="1041.58,-840.88 1041.58,-864.62 1086,-864.62 1086,-840.88 1041.58,-840.88"/>
<text text-anchor="start" x="1060.04" y="-847.33" font-family="arial" font-size="14.00">5</text>
<polygon fill="none" stroke="black" points="1086,-840.88 1086,-864.62 1158.92,-864.62 1158.92,-840.88 1086,-840.88"/>
<text text-anchor="start" x="1104.46" y="-847.33" font-family="arial" font-size="14.00">ENA+</text>
<polygon fill="none" stroke="black" points="1158.92,-840.88 1158.92,-864.62 1203.33,-864.62 1203.33,-840.88 1158.92,-840.88"/>
<text text-anchor="start" x="1177.38" y="-847.33" font-family="arial" font-size="14.00">5</text>
<polygon fill="none" stroke="black" points="1041.58,-817.12 1041.58,-840.88 1086,-840.88 1086,-817.12 1041.58,-817.12"/>
<text text-anchor="start" x="1060.04" y="-823.58" font-family="arial" font-size="14.00">6</text>
<polygon fill="none" stroke="black" points="1086,-817.12 1086,-840.88 1158.92,-840.88 1158.92,-817.12 1086,-817.12"/>
<text text-anchor="start" x="1106.33" y="-823.58" font-family="arial" font-size="14.00">ENA&#45;</text>
<polygon fill="none" stroke="black" points="1158.92,-817.12 1158.92,-840.88 1203.33,-840.88 1203.33,-817.12 1158.92,-817.12"/>
<text text-anchor="start" x="1177.38" y="-823.58" font-family="arial" font-size="14.00">6</text>
<polygon fill="none" stroke="black" points="1041.58,-793.38 1041.58,-817.12 1203.33,-817.12 1203.33,-793.38 1041.58,-793.38"/>
<text text-anchor="start" x="1045.58" y="-799.83" font-family="arial" font-size="14.00">KL&#45;4030 Driver A (Axis N)</text>
</g>
<!-- GND_A1 -->
<g id="node8" class="node">
<title>GND_A1</title>
<polygon fill="#ffffff" stroke="black" points="1702.96,-1039.5 1411.21,-1039.5 1411.21,-899 1702.96,-899 1702.96,-1039.5"/>
<polygon fill="none" stroke="black" points="1411.21,-1015.75 1411.21,-1039.5 1702.96,-1039.5 1702.96,-1015.75 1411.21,-1015.75"/>
<text text-anchor="start" x="1529.71" y="-1022.2" font-family="arial" font-size="14.00">GND_A1</text>
<polygon fill="none" stroke="black" points="1411.21,-992 1411.21,-1015.75 1702.96,-1015.75 1702.96,-992 1411.21,-992"/>
<text text-anchor="start" x="1549.96" y="-998.45" font-family="arial" font-size="14.00">1x</text>
<text text-anchor="start" x="1456.71" y="-976.7" font-family="arial" font-size="14.00"> </text>
<text text-anchor="start" x="1413.21" y="-956.95" font-family="arial" font-size="14.00">DRV_A:2:PUL&#45;</text>
<text text-anchor="start" x="1507.96" y="-956.95" font-family="arial" font-size="14.00"> &#160;&#160;&#160;&#160;1:BK &#160;&#160;&#160;</text>
<text text-anchor="start" x="1574.96" y="-956.95" font-family="arial" font-size="14.00">MC508_STEP:15:0V</text>
<polygon fill="#000000" stroke="none" points="1411.21,-950.5 1411.21,-952.5 1702.96,-952.5 1702.96,-950.5 1411.21,-950.5"/>
<polygon fill="#000000" stroke="none" points="1411.21,-948.5 1411.21,-950.5 1702.96,-950.5 1702.96,-948.5 1411.21,-948.5"/>
<polygon fill="#000000" stroke="none" points="1411.21,-946.5 1411.21,-948.5 1702.96,-948.5 1702.96,-946.5 1411.21,-946.5"/>
<polygon fill="#000000" stroke="none" points="1411.21,-944.5 1411.21,-946.5 1702.96,-946.5 1702.96,-944.5 1411.21,-944.5"/>
<polygon fill="#000000" stroke="none" points="1411.21,-942.5 1411.21,-944.5 1702.96,-944.5 1702.96,-942.5 1411.21,-942.5"/>
<text text-anchor="start" x="1456.71" y="-927.2" font-family="arial" font-size="14.00"> </text>
<polygon fill="none" stroke="black" points="1411.21,-899 1411.21,-922.75 1702.96,-922.75 1702.96,-899 1411.21,-899"/>
<text text-anchor="start" x="1493.33" y="-905.45" font-family="arial" font-size="14.00">Driver A PUL&#45; ground</text>
</g>
<!-- DRV_A&#45;&#45;GND_A1 -->
<g id="edge5" class="edge">
<title>DRV_A:e&#45;&#45;GND_A1:w</title>
<path fill="none" stroke="#000000" stroke-width="2" d="M1204.33,-920C1299.8,-921.28 1321.61,-944.78 1411.21,-943.5"/>
<path fill="none" stroke="#000000" stroke-width="2" d="M1204.33,-922C1298.34,-922.64 1320.14,-946.14 1411.21,-945.5"/>
<path fill="none" stroke="#000000" stroke-width="2" d="M1204.33,-924C1296.87,-924 1318.67,-947.5 1411.21,-947.5"/>
<path fill="none" stroke="#000000" stroke-width="2" d="M1204.33,-926C1295.4,-925.36 1317.21,-948.86 1411.21,-949.5"/>
<path fill="none" stroke="#000000" stroke-width="2" d="M1204.33,-928C1293.94,-926.72 1315.74,-950.22 1411.21,-951.5"/>
</g>
<!-- GND_A2 -->
<g id="node9" class="node">
<title>GND_A2</title>
<polygon fill="#ffffff" stroke="black" points="1701.46,-874.5 1412.71,-874.5 1412.71,-734 1701.46,-734 1701.46,-874.5"/>
<polygon fill="none" stroke="black" points="1412.71,-850.75 1412.71,-874.5 1701.46,-874.5 1701.46,-850.75 1412.71,-850.75"/>
<text text-anchor="start" x="1529.71" y="-857.2" font-family="arial" font-size="14.00">GND_A2</text>
<polygon fill="none" stroke="black" points="1412.71,-827 1412.71,-850.75 1701.46,-850.75 1701.46,-827 1412.71,-827"/>
<text text-anchor="start" x="1549.96" y="-833.45" font-family="arial" font-size="14.00">1x</text>
<text text-anchor="start" x="1456.71" y="-811.7" font-family="arial" font-size="14.00"> </text>
<text text-anchor="start" x="1414.71" y="-791.95" font-family="arial" font-size="14.00">DRV_A:4:DIR&#45;</text>
<text text-anchor="start" x="1506.46" y="-791.95" font-family="arial" font-size="14.00"> &#160;&#160;&#160;&#160;1:BK &#160;&#160;&#160;</text>
<text text-anchor="start" x="1573.46" y="-791.95" font-family="arial" font-size="14.00">MC508_STEP:15:0V</text>
<polygon fill="#000000" stroke="none" points="1412.71,-785.5 1412.71,-787.5 1701.46,-787.5 1701.46,-785.5 1412.71,-785.5"/>
<polygon fill="#000000" stroke="none" points="1412.71,-783.5 1412.71,-785.5 1701.46,-785.5 1701.46,-783.5 1412.71,-783.5"/>
<polygon fill="#000000" stroke="none" points="1412.71,-781.5 1412.71,-783.5 1701.46,-783.5 1701.46,-781.5 1412.71,-781.5"/>
<polygon fill="#000000" stroke="none" points="1412.71,-779.5 1412.71,-781.5 1701.46,-781.5 1701.46,-779.5 1412.71,-779.5"/>
<polygon fill="#000000" stroke="none" points="1412.71,-777.5 1412.71,-779.5 1701.46,-779.5 1701.46,-777.5 1412.71,-777.5"/>
<text text-anchor="start" x="1456.71" y="-762.2" font-family="arial" font-size="14.00"> </text>
<polygon fill="none" stroke="black" points="1412.71,-734 1412.71,-757.75 1701.46,-757.75 1701.46,-734 1412.71,-734"/>
<text text-anchor="start" x="1494.83" y="-740.45" font-family="arial" font-size="14.00">Driver A DIR&#45; ground</text>
</g>
<!-- DRV_A&#45;&#45;GND_A2 -->
<g id="edge7" class="edge">
<title>DRV_A:e&#45;&#45;GND_A2:w</title>
<path fill="none" stroke="#000000" stroke-width="2" d="M1204.33,-872.5C1301.53,-876.29 1306.52,-782.29 1411.71,-778.5"/>
<path fill="none" stroke="#000000" stroke-width="2" d="M1204.33,-874.5C1303.53,-876.39 1308.52,-782.39 1411.71,-780.5"/>
<path fill="none" stroke="#000000" stroke-width="2" d="M1204.33,-876.5C1305.53,-876.5 1310.52,-782.5 1411.71,-782.5"/>
<path fill="none" stroke="#000000" stroke-width="2" d="M1204.33,-878.5C1307.53,-876.61 1312.51,-782.61 1411.71,-784.5"/>
<path fill="none" stroke="#000000" stroke-width="2" d="M1204.33,-880.5C1309.52,-876.71 1314.51,-782.71 1411.71,-786.5"/>
</g>
<!-- RA -->
<g id="node17" class="node">
<title>RA</title>
<polygon fill="#ffffff" stroke="black" points="1684.96,-709.5 1429.21,-709.5 1429.21,-569 1684.96,-569 1684.96,-709.5"/>
<polygon fill="none" stroke="black" points="1429.21,-685.75 1429.21,-709.5 1684.96,-709.5 1684.96,-685.75 1429.21,-685.75"/>
<text text-anchor="start" x="1547.71" y="-692.2" font-family="arial" font-size="14.00">RA</text>
<polygon fill="none" stroke="black" points="1429.21,-662 1429.21,-685.75 1684.96,-685.75 1684.96,-662 1429.21,-662"/>
<text text-anchor="start" x="1549.96" y="-668.45" font-family="arial" font-size="14.00">1x</text>
<text text-anchor="start" x="1475.46" y="-646.7" font-family="arial" font-size="14.00"> </text>
<text text-anchor="start" x="1431.21" y="-626.95" font-family="arial" font-size="14.00">DRV_A:6:ENA&#45;</text>
<text text-anchor="start" x="1527.46" y="-626.95" font-family="arial" font-size="14.00"> &#160;&#160;&#160;&#160;1:BK &#160;&#160;&#160;</text>
<text text-anchor="start" x="1594.46" y="-626.95" font-family="arial" font-size="14.00">EXT5V:2:GND</text>
<polygon fill="#000000" stroke="none" points="1429.21,-620.5 1429.21,-622.5 1684.96,-622.5 1684.96,-620.5 1429.21,-620.5"/>
<polygon fill="#000000" stroke="none" points="1429.21,-618.5 1429.21,-620.5 1684.96,-620.5 1684.96,-618.5 1429.21,-618.5"/>
<polygon fill="#000000" stroke="none" points="1429.21,-616.5 1429.21,-618.5 1684.96,-618.5 1684.96,-616.5 1429.21,-616.5"/>
<polygon fill="#000000" stroke="none" points="1429.21,-614.5 1429.21,-616.5 1684.96,-616.5 1684.96,-614.5 1429.21,-614.5"/>
<polygon fill="#000000" stroke="none" points="1429.21,-612.5 1429.21,-614.5 1684.96,-614.5 1684.96,-612.5 1429.21,-612.5"/>
<text text-anchor="start" x="1475.46" y="-597.2" font-family="arial" font-size="14.00"> </text>
<polygon fill="none" stroke="black" points="1429.21,-569 1429.21,-592.75 1684.96,-592.75 1684.96,-569 1429.21,-569"/>
<text text-anchor="start" x="1495.96" y="-575.45" font-family="arial" font-size="14.00">Driver A ENA&#45; return</text>
</g>
<!-- DRV_A&#45;&#45;RA -->
<g id="edge23" class="edge">
<title>DRV_A:e&#45;&#45;RA:w</title>
<path fill="none" stroke="#000000" stroke-width="2" d="M1204.33,-825C1337.32,-829.92 1287.44,-618.42 1428.21,-613.5"/>
<path fill="none" stroke="#000000" stroke-width="2" d="M1204.33,-827C1339.27,-829.46 1289.38,-617.96 1428.21,-615.5"/>
<path fill="none" stroke="#000000" stroke-width="2" d="M1204.33,-829C1341.22,-829 1291.33,-617.5 1428.21,-617.5"/>
<path fill="none" stroke="#000000" stroke-width="2" d="M1204.33,-831C1343.16,-828.54 1293.28,-617.04 1428.21,-619.5"/>
<path fill="none" stroke="#000000" stroke-width="2" d="M1204.33,-833C1345.11,-828.08 1295.22,-616.58 1428.21,-621.5"/>
</g>
<!-- DRV_B -->
<g id="node3" class="node">
<title>DRV_B</title>
<polygon fill="#ffffff" stroke="black" points="1211.96,-500.12 1032.96,-500.12 1032.96,-286.38 1211.96,-286.38 1211.96,-500.12"/>
<polygon fill="none" stroke="black" points="1032.96,-476.38 1032.96,-500.12 1211.96,-500.12 1211.96,-476.38 1032.96,-476.38"/>
<text text-anchor="start" x="1099.96" y="-482.82" font-family="arial" font-size="14.00">DRV_B</text>
<polygon fill="none" stroke="black" points="1032.96,-452.62 1032.96,-476.38 1153.96,-476.38 1153.96,-452.62 1032.96,-452.62"/>
<text text-anchor="start" x="1046.96" y="-459.07" font-family="arial" font-size="14.00">Screw Terminal</text>
<polygon fill="none" stroke="black" points="1153.96,-452.62 1153.96,-476.38 1211.96,-476.38 1211.96,-452.62 1153.96,-452.62"/>
<text text-anchor="start" x="1167.96" y="-459.07" font-family="arial" font-size="14.00">6&#45;pin</text>
<polygon fill="none" stroke="black" points="1032.96,-428.88 1032.96,-452.62 1083.13,-452.62 1083.13,-428.88 1032.96,-428.88"/>
<text text-anchor="start" x="1054.29" y="-435.32" font-family="arial" font-size="14.00">1</text>
<polygon fill="none" stroke="black" points="1083.13,-428.88 1083.13,-452.62 1161.79,-452.62 1161.79,-428.88 1083.13,-428.88"/>
<text text-anchor="start" x="1105.21" y="-435.32" font-family="arial" font-size="14.00">PUL+</text>
<polygon fill="none" stroke="black" points="1161.79,-428.88 1161.79,-452.62 1211.96,-452.62 1211.96,-428.88 1161.79,-428.88"/>
<text text-anchor="start" x="1183.13" y="-435.32" font-family="arial" font-size="14.00">1</text>
<polygon fill="none" stroke="black" points="1032.96,-405.12 1032.96,-428.88 1083.13,-428.88 1083.13,-405.12 1032.96,-405.12"/>
<text text-anchor="start" x="1054.29" y="-411.57" font-family="arial" font-size="14.00">2</text>
<polygon fill="none" stroke="black" points="1083.13,-405.12 1083.13,-428.88 1161.79,-428.88 1161.79,-405.12 1083.13,-405.12"/>
<text text-anchor="start" x="1107.08" y="-411.57" font-family="arial" font-size="14.00">PUL&#45;</text>
<polygon fill="none" stroke="black" points="1161.79,-405.12 1161.79,-428.88 1211.96,-428.88 1211.96,-405.12 1161.79,-405.12"/>
<text text-anchor="start" x="1183.13" y="-411.57" font-family="arial" font-size="14.00">2</text>
<polygon fill="none" stroke="black" points="1032.96,-381.38 1032.96,-405.12 1083.13,-405.12 1083.13,-381.38 1032.96,-381.38"/>
<text text-anchor="start" x="1054.29" y="-387.82" font-family="arial" font-size="14.00">3</text>
<polygon fill="none" stroke="black" points="1083.13,-381.38 1083.13,-405.12 1161.79,-405.12 1161.79,-381.38 1083.13,-381.38"/>
<text text-anchor="start" x="1106.71" y="-387.82" font-family="arial" font-size="14.00">DIR+</text>
<polygon fill="none" stroke="black" points="1161.79,-381.38 1161.79,-405.12 1211.96,-405.12 1211.96,-381.38 1161.79,-381.38"/>
<text text-anchor="start" x="1183.13" y="-387.82" font-family="arial" font-size="14.00">3</text>
<polygon fill="none" stroke="black" points="1032.96,-357.62 1032.96,-381.38 1083.13,-381.38 1083.13,-357.62 1032.96,-357.62"/>
<text text-anchor="start" x="1054.29" y="-364.07" font-family="arial" font-size="14.00">4</text>
<polygon fill="none" stroke="black" points="1083.13,-357.62 1083.13,-381.38 1161.79,-381.38 1161.79,-357.62 1083.13,-357.62"/>
<text text-anchor="start" x="1108.58" y="-364.07" font-family="arial" font-size="14.00">DIR&#45;</text>
<polygon fill="none" stroke="black" points="1161.79,-357.62 1161.79,-381.38 1211.96,-381.38 1211.96,-357.62 1161.79,-357.62"/>
<text text-anchor="start" x="1183.13" y="-364.07" font-family="arial" font-size="14.00">4</text>
<polygon fill="none" stroke="black" points="1032.96,-333.88 1032.96,-357.62 1083.13,-357.62 1083.13,-333.88 1032.96,-333.88"/>
<text text-anchor="start" x="1054.29" y="-340.32" font-family="arial" font-size="14.00">5</text>
<polygon fill="none" stroke="black" points="1083.13,-333.88 1083.13,-357.62 1161.79,-357.62 1161.79,-333.88 1083.13,-333.88"/>
<text text-anchor="start" x="1104.46" y="-340.32" font-family="arial" font-size="14.00">ENA+</text>
<polygon fill="none" stroke="black" points="1161.79,-333.88 1161.79,-357.62 1211.96,-357.62 1211.96,-333.88 1161.79,-333.88"/>
<text text-anchor="start" x="1183.13" y="-340.32" font-family="arial" font-size="14.00">5</text>
<polygon fill="none" stroke="black" points="1032.96,-310.12 1032.96,-333.88 1083.13,-333.88 1083.13,-310.12 1032.96,-310.12"/>
<text text-anchor="start" x="1054.29" y="-316.57" font-family="arial" font-size="14.00">6</text>
<polygon fill="none" stroke="black" points="1083.13,-310.12 1083.13,-333.88 1161.79,-333.88 1161.79,-310.12 1083.13,-310.12"/>
<text text-anchor="start" x="1106.33" y="-316.57" font-family="arial" font-size="14.00">ENA&#45;</text>
<polygon fill="none" stroke="black" points="1161.79,-310.12 1161.79,-333.88 1211.96,-333.88 1211.96,-310.12 1161.79,-310.12"/>
<text text-anchor="start" x="1183.13" y="-316.57" font-family="arial" font-size="14.00">6</text>
<polygon fill="none" stroke="black" points="1032.96,-286.38 1032.96,-310.12 1211.96,-310.12 1211.96,-286.38 1032.96,-286.38"/>
<text text-anchor="start" x="1036.96" y="-292.82" font-family="arial" font-size="14.00">KL&#45;4030 Driver B (Axis N+8)</text>
</g>
<!-- GND_B1 -->
<g id="node12" class="node">
<title>GND_B1</title>
<polygon fill="#ffffff" stroke="black" points="1702.96,-544.5 1411.21,-544.5 1411.21,-404 1702.96,-404 1702.96,-544.5"/>
<polygon fill="none" stroke="black" points="1411.21,-520.75 1411.21,-544.5 1702.96,-544.5 1702.96,-520.75 1411.21,-520.75"/>
<text text-anchor="start" x="1529.71" y="-527.2" font-family="arial" font-size="14.00">GND_B1</text>
<polygon fill="none" stroke="black" points="1411.21,-497 1411.21,-520.75 1702.96,-520.75 1702.96,-497 1411.21,-497"/>
<text text-anchor="start" x="1549.96" y="-503.45" font-family="arial" font-size="14.00">1x</text>
<text text-anchor="start" x="1456.71" y="-481.7" font-family="arial" font-size="14.00"> </text>
<text text-anchor="start" x="1413.21" y="-461.95" font-family="arial" font-size="14.00">DRV_B:2:PUL&#45;</text>
<text text-anchor="start" x="1507.96" y="-461.95" font-family="arial" font-size="14.00"> &#160;&#160;&#160;&#160;1:BK &#160;&#160;&#160;</text>
<text text-anchor="start" x="1574.96" y="-461.95" font-family="arial" font-size="14.00">MC508_STEP:15:0V</text>
<polygon fill="#000000" stroke="none" points="1411.21,-455.5 1411.21,-457.5 1702.96,-457.5 1702.96,-455.5 1411.21,-455.5"/>
<polygon fill="#000000" stroke="none" points="1411.21,-453.5 1411.21,-455.5 1702.96,-455.5 1702.96,-453.5 1411.21,-453.5"/>
<polygon fill="#000000" stroke="none" points="1411.21,-451.5 1411.21,-453.5 1702.96,-453.5 1702.96,-451.5 1411.21,-451.5"/>
<polygon fill="#000000" stroke="none" points="1411.21,-449.5 1411.21,-451.5 1702.96,-451.5 1702.96,-449.5 1411.21,-449.5"/>
<polygon fill="#000000" stroke="none" points="1411.21,-447.5 1411.21,-449.5 1702.96,-449.5 1702.96,-447.5 1411.21,-447.5"/>
<text text-anchor="start" x="1456.71" y="-432.2" font-family="arial" font-size="14.00"> </text>
<polygon fill="none" stroke="black" points="1411.21,-404 1411.21,-427.75 1702.96,-427.75 1702.96,-404 1411.21,-404"/>
<text text-anchor="start" x="1492.58" y="-410.45" font-family="arial" font-size="14.00">Driver B PUL&#45; ground</text>
</g>
<!-- DRV_B&#45;&#45;GND_B1 -->
<g id="edge13" class="edge">
<title>DRV_B:e&#45;&#45;GND_B1:w</title>
<path fill="none" stroke="#000000" stroke-width="2" d="M1212.96,-413C1305.99,-415.1 1325.21,-450.6 1411.21,-448.5"/>
<path fill="none" stroke="#000000" stroke-width="2" d="M1212.96,-415C1304.23,-416.05 1323.46,-451.55 1411.21,-450.5"/>
<path fill="none" stroke="#000000" stroke-width="2" d="M1212.96,-417C1302.47,-417 1321.7,-452.5 1411.21,-452.5"/>
<path fill="none" stroke="#000000" stroke-width="2" d="M1212.96,-419C1300.71,-417.95 1319.94,-453.45 1411.21,-454.5"/>
<path fill="none" stroke="#000000" stroke-width="2" d="M1212.96,-421C1298.96,-418.9 1318.18,-454.4 1411.21,-456.5"/>
</g>
<!-- GND_B2 -->
<g id="node13" class="node">
<title>GND_B2</title>
<polygon fill="#ffffff" stroke="black" points="1701.46,-379.5 1412.71,-379.5 1412.71,-239 1701.46,-239 1701.46,-379.5"/>
<polygon fill="none" stroke="black" points="1412.71,-355.75 1412.71,-379.5 1701.46,-379.5 1701.46,-355.75 1412.71,-355.75"/>
<text text-anchor="start" x="1529.71" y="-362.2" font-family="arial" font-size="14.00">GND_B2</text>
<polygon fill="none" stroke="black" points="1412.71,-332 1412.71,-355.75 1701.46,-355.75 1701.46,-332 1412.71,-332"/>
<text text-anchor="start" x="1549.96" y="-338.45" font-family="arial" font-size="14.00">1x</text>
<text text-anchor="start" x="1456.71" y="-316.7" font-family="arial" font-size="14.00"> </text>
<text text-anchor="start" x="1414.71" y="-296.95" font-family="arial" font-size="14.00">DRV_B:4:DIR&#45;</text>
<text text-anchor="start" x="1506.46" y="-296.95" font-family="arial" font-size="14.00"> &#160;&#160;&#160;&#160;1:BK &#160;&#160;&#160;</text>
<text text-anchor="start" x="1573.46" y="-296.95" font-family="arial" font-size="14.00">MC508_STEP:15:0V</text>
<polygon fill="#000000" stroke="none" points="1412.71,-290.5 1412.71,-292.5 1701.46,-292.5 1701.46,-290.5 1412.71,-290.5"/>
<polygon fill="#000000" stroke="none" points="1412.71,-288.5 1412.71,-290.5 1701.46,-290.5 1701.46,-288.5 1412.71,-288.5"/>
<polygon fill="#000000" stroke="none" points="1412.71,-286.5 1412.71,-288.5 1701.46,-288.5 1701.46,-286.5 1412.71,-286.5"/>
<polygon fill="#000000" stroke="none" points="1412.71,-284.5 1412.71,-286.5 1701.46,-286.5 1701.46,-284.5 1412.71,-284.5"/>
<polygon fill="#000000" stroke="none" points="1412.71,-282.5 1412.71,-284.5 1701.46,-284.5 1701.46,-282.5 1412.71,-282.5"/>
<text text-anchor="start" x="1456.71" y="-267.2" font-family="arial" font-size="14.00"> </text>
<polygon fill="none" stroke="black" points="1412.71,-239 1412.71,-262.75 1701.46,-262.75 1701.46,-239 1412.71,-239"/>
<text text-anchor="start" x="1494.08" y="-245.45" font-family="arial" font-size="14.00">Driver B DIR&#45; ground</text>
</g>
<!-- DRV_B&#45;&#45;GND_B2 -->
<g id="edge15" class="edge">
<title>DRV_B:e&#45;&#45;GND_B2:w</title>
<path fill="none" stroke="#000000" stroke-width="2" d="M1212.96,-365.5C1304.53,-369.13 1312.17,-287.13 1411.71,-283.5"/>
<path fill="none" stroke="#000000" stroke-width="2" d="M1212.96,-367.5C1306.52,-369.31 1314.16,-287.31 1411.71,-285.5"/>
<path fill="none" stroke="#000000" stroke-width="2" d="M1212.96,-369.5C1308.52,-369.5 1316.15,-287.5 1411.71,-287.5"/>
<path fill="none" stroke="#000000" stroke-width="2" d="M1212.96,-371.5C1310.51,-369.69 1318.15,-287.69 1411.71,-289.5"/>
<path fill="none" stroke="#000000" stroke-width="2" d="M1212.96,-373.5C1312.5,-369.87 1320.14,-287.87 1411.71,-291.5"/>
</g>
<!-- RB -->
<g id="node19" class="node">
<title>RB</title>
<polygon fill="#ffffff" stroke="black" points="1684.96,-214.5 1429.21,-214.5 1429.21,-74 1684.96,-74 1684.96,-214.5"/>
<polygon fill="none" stroke="black" points="1429.21,-190.75 1429.21,-214.5 1684.96,-214.5 1684.96,-190.75 1429.21,-190.75"/>
<text text-anchor="start" x="1547.71" y="-197.2" font-family="arial" font-size="14.00">RB</text>
<polygon fill="none" stroke="black" points="1429.21,-167 1429.21,-190.75 1684.96,-190.75 1684.96,-167 1429.21,-167"/>
<text text-anchor="start" x="1549.96" y="-173.45" font-family="arial" font-size="14.00">1x</text>
<text text-anchor="start" x="1475.46" y="-151.7" font-family="arial" font-size="14.00"> </text>
<text text-anchor="start" x="1431.21" y="-131.95" font-family="arial" font-size="14.00">DRV_B:6:ENA&#45;</text>
<text text-anchor="start" x="1527.46" y="-131.95" font-family="arial" font-size="14.00"> &#160;&#160;&#160;&#160;1:BK &#160;&#160;&#160;</text>
<text text-anchor="start" x="1594.46" y="-131.95" font-family="arial" font-size="14.00">EXT5V:2:GND</text>
<polygon fill="#000000" stroke="none" points="1429.21,-125.5 1429.21,-127.5 1684.96,-127.5 1684.96,-125.5 1429.21,-125.5"/>
<polygon fill="#000000" stroke="none" points="1429.21,-123.5 1429.21,-125.5 1684.96,-125.5 1684.96,-123.5 1429.21,-123.5"/>
<polygon fill="#000000" stroke="none" points="1429.21,-121.5 1429.21,-123.5 1684.96,-123.5 1684.96,-121.5 1429.21,-121.5"/>
<polygon fill="#000000" stroke="none" points="1429.21,-119.5 1429.21,-121.5 1684.96,-121.5 1684.96,-119.5 1429.21,-119.5"/>
<polygon fill="#000000" stroke="none" points="1429.21,-117.5 1429.21,-119.5 1684.96,-119.5 1684.96,-117.5 1429.21,-117.5"/>
<text text-anchor="start" x="1475.46" y="-102.2" font-family="arial" font-size="14.00"> </text>
<polygon fill="none" stroke="black" points="1429.21,-74 1429.21,-97.75 1684.96,-97.75 1684.96,-74 1429.21,-74"/>
<text text-anchor="start" x="1495.21" y="-80.45" font-family="arial" font-size="14.00">Driver B ENA&#45; return</text>
</g>
<!-- DRV_B&#45;&#45;RB -->
<g id="edge27" class="edge">
<title>DRV_B:e&#45;&#45;RB:w</title>
<path fill="none" stroke="#000000" stroke-width="2" d="M1212.96,-318C1339.5,-322.89 1293.87,-123.39 1428.21,-118.5"/>
<path fill="none" stroke="#000000" stroke-width="2" d="M1212.96,-320C1341.45,-322.45 1295.82,-122.95 1428.21,-120.5"/>
<path fill="none" stroke="#000000" stroke-width="2" d="M1212.96,-322C1343.4,-322 1297.77,-122.5 1428.21,-122.5"/>
<path fill="none" stroke="#000000" stroke-width="2" d="M1212.96,-324C1345.35,-321.55 1299.72,-122.05 1428.21,-124.5"/>
<path fill="none" stroke="#000000" stroke-width="2" d="M1212.96,-326C1347.3,-321.11 1301.67,-121.61 1428.21,-126.5"/>
</g>
<!-- EXT5V -->
<g id="node4" class="node">
<title>EXT5V</title>
<polygon fill="#ffffff" stroke="black" points="2016.96,-411.62 1846.96,-411.62 1846.96,-292.88 2016.96,-292.88 2016.96,-411.62"/>
<polygon fill="none" stroke="black" points="1846.96,-387.88 1846.96,-411.62 2016.96,-411.62 2016.96,-387.88 1846.96,-387.88"/>
<text text-anchor="start" x="1910.58" y="-394.32" font-family="arial" font-size="14.00">EXT5V</text>
<polygon fill="none" stroke="black" points="1846.96,-364.12 1846.96,-387.88 1958.58,-387.88 1958.58,-364.12 1846.96,-364.12"/>
<text text-anchor="start" x="1861.15" y="-370.57" font-family="arial" font-size="14.00">Power Supply</text>
<polygon fill="none" stroke="black" points="1958.58,-364.12 1958.58,-387.88 2016.96,-387.88 2016.96,-364.12 1958.58,-364.12"/>
<text text-anchor="start" x="1972.77" y="-370.57" font-family="arial" font-size="14.00">2&#45;pin</text>
<polygon fill="none" stroke="black" points="1846.96,-340.38 1846.96,-364.12 1895.88,-364.12 1895.88,-340.38 1846.96,-340.38"/>
<text text-anchor="start" x="1867.67" y="-346.82" font-family="arial" font-size="14.00">1</text>
<polygon fill="none" stroke="black" points="1895.88,-340.38 1895.88,-364.12 1968.04,-364.12 1968.04,-340.38 1895.88,-340.38"/>
<text text-anchor="start" x="1919.58" y="-346.82" font-family="arial" font-size="14.00">+5V</text>
<polygon fill="none" stroke="black" points="1968.04,-340.38 1968.04,-364.12 2016.96,-364.12 2016.96,-340.38 1968.04,-340.38"/>
<text text-anchor="start" x="1988.75" y="-346.82" font-family="arial" font-size="14.00">1</text>
<polygon fill="none" stroke="black" points="1846.96,-316.62 1846.96,-340.38 1895.88,-340.38 1895.88,-316.62 1846.96,-316.62"/>
<text text-anchor="start" x="1867.67" y="-323.07" font-family="arial" font-size="14.00">2</text>
<polygon fill="none" stroke="black" points="1895.88,-316.62 1895.88,-340.38 1968.04,-340.38 1968.04,-316.62 1895.88,-316.62"/>
<text text-anchor="start" x="1916.58" y="-323.07" font-family="arial" font-size="14.00">GND</text>
<polygon fill="none" stroke="black" points="1968.04,-316.62 1968.04,-340.38 2016.96,-340.38 2016.96,-316.62 1968.04,-316.62"/>
<text text-anchor="start" x="1988.75" y="-323.07" font-family="arial" font-size="14.00">2</text>
<polygon fill="none" stroke="black" points="1846.96,-292.88 1846.96,-316.62 2016.96,-316.62 2016.96,-292.88 1846.96,-292.88"/>
<text text-anchor="start" x="1850.96" y="-299.32" font-family="arial" font-size="14.00">External 5V (enable circuit)</text>
</g>
<!-- PWR -->
<g id="node14" class="node">
<title>PWR</title>
<polygon fill="#ffffff" stroke="black" points="2414.46,-650.62 2160.96,-650.62 2160.96,-533.88 2414.46,-533.88 2414.46,-650.62"/>
<polygon fill="none" stroke="black" points="2160.96,-626.88 2160.96,-650.62 2414.46,-650.62 2414.46,-626.88 2160.96,-626.88"/>
<text text-anchor="start" x="2271.58" y="-633.33" font-family="arial" font-size="14.00">PWR</text>
<polygon fill="none" stroke="black" points="2160.96,-603.12 2160.96,-626.88 2414.46,-626.88 2414.46,-603.12 2160.96,-603.12"/>
<text text-anchor="start" x="2280.58" y="-609.58" font-family="arial" font-size="14.00">1x</text>
<text text-anchor="start" x="2202.33" y="-587.83" font-family="arial" font-size="14.00"> </text>
<text text-anchor="start" x="2162.96" y="-568.08" font-family="arial" font-size="14.00">EXT5V:1:+5V</text>
<text text-anchor="start" x="2249.46" y="-568.08" font-family="arial" font-size="14.00"> &#160;&#160;&#160;&#160;1:RD &#160;&#160;&#160;</text>
<text text-anchor="start" x="2317.96" y="-568.08" font-family="arial" font-size="14.00">ESTOP:1:COM</text>
<polygon fill="#000000" stroke="none" points="2160.96,-561.62 2160.96,-563.62 2414.46,-563.62 2414.46,-561.62 2160.96,-561.62"/>
<polygon fill="#ff0000" stroke="none" points="2160.96,-559.62 2160.96,-561.62 2414.46,-561.62 2414.46,-559.62 2160.96,-559.62"/>
<polygon fill="#ff0000" stroke="none" points="2160.96,-557.62 2160.96,-559.62 2414.46,-559.62 2414.46,-557.62 2160.96,-557.62"/>
<polygon fill="#ff0000" stroke="none" points="2160.96,-555.62 2160.96,-557.62 2414.46,-557.62 2414.46,-555.62 2160.96,-555.62"/>
<polygon fill="#000000" stroke="none" points="2160.96,-553.62 2160.96,-555.62 2414.46,-555.62 2414.46,-553.62 2160.96,-553.62"/>
<text text-anchor="start" x="2202.33" y="-538.33" font-family="arial" font-size="14.00"> </text>
</g>
<!-- EXT5V&#45;&#45;PWR -->
<g id="edge17" class="edge">
<title>EXT5V:e&#45;&#45;PWR:w</title>
<path fill="none" stroke="#000000" stroke-width="2" d="M2016.96,-348.25C2132.53,-353.69 2052.85,-560.07 2160.96,-554.63"/>
<path fill="none" stroke="#ff0000" stroke-width="2" d="M2016.96,-350.25C2130.67,-352.97 2050.98,-559.35 2160.96,-556.63"/>
<path fill="none" stroke="#ff0000" stroke-width="2" d="M2016.96,-352.25C2128.8,-352.25 2049.12,-558.62 2160.96,-558.63"/>
<path fill="none" stroke="#ff0000" stroke-width="2" d="M2016.96,-354.25C2126.94,-351.53 2047.25,-557.9 2160.96,-560.62"/>
<path fill="none" stroke="#000000" stroke-width="2" d="M2016.96,-356.25C2125.07,-350.81 2045.38,-557.18 2160.96,-562.62"/>
</g>
<!-- ESTOP -->
<g id="node5" class="node">
<title>ESTOP</title>
<polygon fill="#ffffff" stroke="black" points="2731.46,-841.62 2558.46,-841.62 2558.46,-722.88 2731.46,-722.88 2731.46,-841.62"/>
<polygon fill="none" stroke="black" points="2558.46,-817.88 2558.46,-841.62 2731.46,-841.62 2731.46,-817.88 2558.46,-817.88"/>
<text text-anchor="start" x="2621.71" y="-824.33" font-family="arial" font-size="14.00">ESTOP</text>
<polygon fill="none" stroke="black" points="2558.46,-794.12 2558.46,-817.88 2657.96,-817.88 2657.96,-794.12 2558.46,-794.12"/>
<text text-anchor="start" x="2562.46" y="-800.58" font-family="arial" font-size="14.00">NC Pushbutton</text>
<polygon fill="none" stroke="black" points="2657.96,-794.12 2657.96,-817.88 2695.96,-817.88 2695.96,-794.12 2657.96,-794.12"/>
<text text-anchor="start" x="2661.96" y="-800.58" font-family="arial" font-size="14.00">2&#45;pin</text>
<polygon fill="none" stroke="black" points="2695.96,-794.12 2695.96,-817.88 2723.46,-817.88 2723.46,-794.12 2695.96,-794.12"/>
<text text-anchor="start" x="2699.96" y="-800.58" font-family="arial" font-size="14.00">RD</text>
<polygon fill="#ff0000" stroke="none" points="2723.46,-794.12 2723.46,-817.88 2731.46,-817.88 2731.46,-794.12 2723.46,-794.12"/>
<polygon fill="none" stroke="black" points="2723.46,-794.12 2723.46,-817.88 2731.46,-817.88 2731.46,-794.12 2723.46,-794.12"/>
<polygon fill="none" stroke="black" points="2558.46,-770.38 2558.46,-794.12 2607.63,-794.12 2607.63,-770.38 2558.46,-770.38"/>
<text text-anchor="start" x="2579.29" y="-776.83" font-family="arial" font-size="14.00">1</text>
<polygon fill="none" stroke="black" points="2607.63,-770.38 2607.63,-794.12 2682.29,-794.12 2682.29,-770.38 2607.63,-770.38"/>
<text text-anchor="start" x="2628.46" y="-776.83" font-family="arial" font-size="14.00">COM</text>
<polygon fill="none" stroke="black" points="2682.29,-770.38 2682.29,-794.12 2731.46,-794.12 2731.46,-770.38 2682.29,-770.38"/>
<text text-anchor="start" x="2703.13" y="-776.83" font-family="arial" font-size="14.00">1</text>
<polygon fill="none" stroke="black" points="2558.46,-746.62 2558.46,-770.38 2607.63,-770.38 2607.63,-746.62 2558.46,-746.62"/>
<text text-anchor="start" x="2579.29" y="-753.08" font-family="arial" font-size="14.00">2</text>
<polygon fill="none" stroke="black" points="2607.63,-746.62 2607.63,-770.38 2682.29,-770.38 2682.29,-746.62 2607.63,-746.62"/>
<text text-anchor="start" x="2635.21" y="-753.08" font-family="arial" font-size="14.00">NC</text>
<polygon fill="none" stroke="black" points="2682.29,-746.62 2682.29,-770.38 2731.46,-770.38 2731.46,-746.62 2682.29,-746.62"/>
<text text-anchor="start" x="2703.13" y="-753.08" font-family="arial" font-size="14.00">2</text>
<polygon fill="none" stroke="black" points="2558.46,-722.88 2558.46,-746.62 2731.46,-746.62 2731.46,-722.88 2558.46,-722.88"/>
<text text-anchor="start" x="2594.71" y="-729.33" font-family="arial" font-size="14.00">Emergency Stop</text>
</g>
<!-- ES -->
<g id="node15" class="node">
<title>ES</title>
<polygon fill="#ffffff" stroke="black" points="3188.96,-1020.62 2875.46,-1020.62 2875.46,-903.88 3188.96,-903.88 3188.96,-1020.62"/>
<polygon fill="none" stroke="black" points="2875.46,-996.88 2875.46,-1020.62 3188.96,-1020.62 3188.96,-996.88 2875.46,-996.88"/>
<text text-anchor="start" x="3023.21" y="-1003.33" font-family="arial" font-size="14.00">ES</text>
<polygon fill="none" stroke="black" points="2875.46,-973.12 2875.46,-996.88 3188.96,-996.88 3188.96,-973.12 2875.46,-973.12"/>
<text text-anchor="start" x="3025.08" y="-979.58" font-family="arial" font-size="14.00">1x</text>
<text text-anchor="start" x="2916.08" y="-957.83" font-family="arial" font-size="14.00"> </text>
<text text-anchor="start" x="2877.46" y="-938.08" font-family="arial" font-size="14.00">ESTOP:2:NC</text>
<text text-anchor="start" x="2962.46" y="-938.08" font-family="arial" font-size="14.00"> &#160;&#160;&#160;&#160;1:RD &#160;&#160;&#160;</text>
<text text-anchor="start" x="3030.96" y="-938.08" font-family="arial" font-size="14.00">MC508_STEP:7:WDOG+</text>
<polygon fill="#000000" stroke="none" points="2875.46,-931.62 2875.46,-933.62 3188.96,-933.62 3188.96,-931.62 2875.46,-931.62"/>
<polygon fill="#ff0000" stroke="none" points="2875.46,-929.62 2875.46,-931.62 3188.96,-931.62 3188.96,-929.62 2875.46,-929.62"/>
<polygon fill="#ff0000" stroke="none" points="2875.46,-927.62 2875.46,-929.62 3188.96,-929.62 3188.96,-927.62 2875.46,-927.62"/>
<polygon fill="#ff0000" stroke="none" points="2875.46,-925.62 2875.46,-927.62 3188.96,-927.62 3188.96,-925.62 2875.46,-925.62"/>
<polygon fill="#000000" stroke="none" points="2875.46,-923.62 2875.46,-925.62 3188.96,-925.62 3188.96,-923.62 2875.46,-923.62"/>
<text text-anchor="start" x="2916.08" y="-908.33" font-family="arial" font-size="14.00"> </text>
</g>
<!-- ESTOP&#45;&#45;ES -->
<g id="edge19" class="edge">
<title>ESTOP:e&#45;&#45;ES:w</title>
<path fill="none" stroke="#000000" stroke-width="2" d="M2731.46,-754.5C2834.33,-759.71 2780.21,-929.84 2875.46,-924.63"/>
<path fill="none" stroke="#ff0000" stroke-width="2" d="M2731.46,-756.5C2832.43,-759.11 2778.31,-929.23 2875.46,-926.63"/>
<path fill="none" stroke="#ff0000" stroke-width="2" d="M2731.46,-758.5C2830.52,-758.5 2776.4,-928.62 2875.46,-928.62"/>
<path fill="none" stroke="#ff0000" stroke-width="2" d="M2731.46,-760.5C2828.61,-757.89 2774.49,-928.02 2875.46,-930.62"/>
<path fill="none" stroke="#000000" stroke-width="2" d="M2731.46,-762.5C2826.71,-757.29 2772.59,-927.41 2875.46,-932.62"/>
</g>
<!-- STEPA_PUL&#45;&#45;DRV_A -->
<g id="edge2" class="edge">
<title>STEPA_PUL:e&#45;&#45;DRV_A:w</title>
<path fill="none" stroke="#000000" stroke-width="2" d="M812.96,-1346.5C1014.93,-1352.16 831.33,-949.41 1040.58,-943.75"/>
<path fill="none" stroke="#000000" stroke-width="2" d="M812.96,-1348.5C1016.75,-1351.33 833.15,-948.58 1040.58,-945.75"/>
<path fill="none" stroke="#000000" stroke-width="2" d="M812.96,-1350.5C1018.57,-1350.5 834.97,-947.75 1040.58,-947.75"/>
<path fill="none" stroke="#000000" stroke-width="2" d="M812.96,-1352.5C1020.39,-1349.67 836.79,-946.92 1040.58,-949.75"/>
<path fill="none" stroke="#000000" stroke-width="2" d="M812.96,-1354.5C1022.21,-1348.84 838.61,-946.09 1040.58,-951.75"/>
</g>
<!-- STEPA_DIR&#45;&#45;DRV_A -->
<g id="edge4" class="edge">
<title>STEPA_DIR:e&#45;&#45;DRV_A:w</title>
<path fill="none" stroke="#000000" stroke-width="2" d="M803.96,-1181.5C964.88,-1186.74 872.06,-901.49 1040.58,-896.25"/>
<path fill="none" stroke="#ff0000" stroke-width="2" d="M803.96,-1183.5C966.78,-1186.12 873.96,-900.87 1040.58,-898.25"/>
<path fill="none" stroke="#ff0000" stroke-width="2" d="M803.96,-1185.5C968.68,-1185.5 875.87,-900.25 1040.58,-900.25"/>
<path fill="none" stroke="#ff0000" stroke-width="2" d="M803.96,-1187.5C970.58,-1184.88 877.77,-899.63 1040.58,-902.25"/>
<path fill="none" stroke="#000000" stroke-width="2" d="M803.96,-1189.5C972.48,-1184.26 879.67,-899.01 1040.58,-904.25"/>
</g>
<!-- GND_A1&#45;&#45;MC508_STEP -->
<g id="edge6" class="edge">
<title>GND_A1:e&#45;&#45;MC508_STEP:w</title>
<path fill="none" stroke="#000000" stroke-width="2" d="M1703.96,-943.5C1721.62,-948.39 1714.1,-915.33 1700.09,-901.79 1680.66,-879.74 1442.18,-899.94 1409.89,-889.03 1332.69,-859.34 1331.37,-821.22 1265.19,-784.7 1081.51,-677.3 1035.83,-640.48 832.65,-585.11 777.37,-569.88 371.59,-534.47 313.75,-531.49 201.8,-524.43 143.44,-453.91 71,-530.37 60.76,-539.41 55.27,-564 67.21,-559.13"/>
<path fill="none" stroke="#000000" stroke-width="2" d="M1703.96,-945.5C1723.57,-947.94 1716.05,-914.89 1701.53,-900.4 1680.49,-877.74 1442.01,-897.95 1410.55,-887.14 1334.69,-859.27 1333.37,-821.15 1266.2,-782.98 1082.76,-675.75 1037.08,-638.92 833.18,-583.18 777.55,-567.89 371.77,-532.48 313.86,-529.5 203.34,-523.15 144.98,-452.63 69.6,-528.93 58.81,-538.98 53.32,-563.56 67.21,-561.13"/>
<path fill="none" stroke="#000000" stroke-width="2" d="M1703.96,-947.5C1725.52,-947.5 1718,-914.45 1702.96,-899 1680.32,-875.75 1441.84,-895.96 1411.21,-885.25 1336.69,-859.2 1335.37,-821.08 1267.21,-781.25 1084.02,-674.19 1038.34,-637.37 833.71,-581.25 777.72,-565.9 371.94,-530.49 313.96,-527.5 204.88,-521.87 146.52,-451.36 68.21,-527.5 56.85,-538.54 51.37,-563.12 67.21,-563.13"/>
<path fill="none" stroke="#000000" stroke-width="2" d="M1703.96,-949.5C1727.47,-947.06 1719.95,-914 1704.39,-897.6 1680.15,-873.76 1441.68,-893.97 1411.87,-883.36 1338.68,-859.13 1337.37,-821.01 1268.22,-779.52 1085.27,-672.63 1039.59,-635.81 834.24,-579.32 777.89,-563.9 372.11,-528.5 314.06,-525.5 206.42,-520.6 148.06,-450.08 66.82,-526.07 54.9,-538.11 49.42,-562.69 67.21,-565.12"/>
<path fill="none" stroke="#000000" stroke-width="2" d="M1703.96,-951.5C1729.42,-946.61 1721.9,-913.56 1705.83,-896.21 1679.98,-871.77 1441.51,-891.97 1412.53,-881.47 1340.68,-859.06 1339.37,-820.95 1269.23,-777.8 1086.53,-671.08 1040.85,-634.25 834.77,-577.39 778.07,-561.91 372.29,-526.51 314.17,-523.51 207.96,-519.32 149.6,-448.81 65.42,-524.63 52.95,-537.67 47.47,-562.25 67.21,-567.12"/>
</g>
<!-- GND_A2&#45;&#45;MC508_STEP -->
<g id="edge8" class="edge">
<title>GND_A2:e&#45;&#45;MC508_STEP:w</title>
<path fill="none" stroke="#000000" stroke-width="2" d="M1702.46,-778.5C1720.12,-783.38 1712.63,-750.31 1698.6,-736.8 1679.3,-714.89 1440.95,-738.68 1409.54,-724.89 1322.54,-681.05 1347.77,-607.03 1265.49,-571.86 1076.08,-481.24 526.36,-533.47 313.92,-531.5 201.58,-528.93 143.36,-453.81 71,-530.37 60.76,-539.41 55.27,-564 67.21,-559.13"/>
<path fill="none" stroke="#000000" stroke-width="2" d="M1702.46,-780.5C1722.07,-782.94 1714.58,-749.86 1700.03,-735.4 1679.1,-712.9 1440.75,-736.69 1410.38,-723.07 1324.43,-681.69 1349.66,-607.68 1266.35,-570.06 1075.89,-479.25 526.17,-531.48 313.94,-529.5 203.16,-527.7 144.94,-452.58 69.6,-528.93 58.81,-538.98 53.32,-563.56 67.21,-561.13"/>
<path fill="none" stroke="#000000" stroke-width="2" d="M1702.46,-782.5C1724.02,-782.5 1716.53,-749.42 1701.46,-734 1678.9,-710.91 1440.56,-734.7 1411.21,-721.25 1326.32,-682.34 1351.56,-608.32 1267.21,-568.25 1075.7,-477.26 525.98,-529.49 313.96,-527.5 204.74,-526.48 146.52,-451.36 68.21,-527.5 56.85,-538.54 51.37,-563.12 67.21,-563.13"/>
<path fill="none" stroke="#000000" stroke-width="2" d="M1702.46,-784.5C1725.97,-782.06 1718.48,-748.98 1702.89,-732.6 1678.7,-708.92 1440.36,-732.71 1412.04,-719.43 1328.21,-682.98 1353.45,-608.97 1268.07,-566.44 1075.51,-475.27 525.79,-527.5 313.98,-525.5 206.32,-525.25 148.1,-450.13 66.82,-526.07 54.9,-538.11 49.42,-562.69 67.21,-565.12"/>
<path fill="none" stroke="#000000" stroke-width="2" d="M1702.46,-786.5C1727.92,-781.62 1720.43,-748.54 1704.32,-731.2 1678.5,-706.93 1440.16,-730.72 1412.88,-717.61 1330.11,-683.63 1355.34,-609.61 1268.93,-564.64 1075.32,-473.28 525.6,-525.51 314,-523.5 207.9,-524.03 149.68,-448.91 65.42,-524.63 52.95,-537.67 47.47,-562.25 67.21,-567.12"/>
</g>
<!-- STEPB_PUL&#45;&#45;DRV_B -->
<g id="edge10" class="edge">
<title>STEPB_PUL:e&#45;&#45;DRV_B:w</title>
<path fill="none" stroke="#000000" stroke-width="2" d="M833.71,-967.5C1082.05,-973.49 776.69,-442.74 1031.96,-436.75"/>
<path fill="none" stroke="#00ff00" stroke-width="2" d="M833.71,-969.5C1083.78,-972.5 778.42,-441.75 1031.96,-438.75"/>
<path fill="none" stroke="#ffff00" stroke-width="2" d="M833.71,-971.5C1085.52,-971.5 780.15,-440.75 1031.96,-440.75"/>
<path fill="none" stroke="#00ff00" stroke-width="2" d="M833.71,-973.5C1087.25,-970.5 781.89,-439.75 1031.96,-442.75"/>
<path fill="none" stroke="#000000" stroke-width="2" d="M833.71,-975.5C1088.98,-969.51 783.62,-438.76 1031.96,-444.75"/>
</g>
<!-- STEPB_DIR&#45;&#45;DRV_B -->
<g id="edge12" class="edge">
<title>STEPB_DIR:e&#45;&#45;DRV_B:w</title>
<path fill="none" stroke="#000000" stroke-width="2" d="M814.83,-637.5C957.59,-642.67 881.56,-394.42 1031.96,-389.25"/>
<path fill="none" stroke="#ff66cc" stroke-width="2" d="M814.83,-639.5C959.5,-642.09 883.47,-393.84 1031.96,-391.25"/>
<path fill="none" stroke="#ff66cc" stroke-width="2" d="M814.83,-641.5C961.41,-641.5 885.38,-393.25 1031.96,-393.25"/>
<path fill="none" stroke="#ff66cc" stroke-width="2" d="M814.83,-643.5C963.33,-640.91 887.29,-392.66 1031.96,-395.25"/>
<path fill="none" stroke="#000000" stroke-width="2" d="M814.83,-645.5C965.24,-640.33 889.2,-392.08 1031.96,-397.25"/>
</g>
<!-- GND_B1&#45;&#45;MC508_STEP -->
<g id="edge14" class="edge">
<title>GND_B1:e&#45;&#45;MC508_STEP:w</title>
<path fill="none" stroke="#000000" stroke-width="2" d="M1703.96,-448.5C1721.62,-453.39 1714.1,-420.33 1700.09,-406.79 1680.67,-384.74 1441.9,-405.75 1409.79,-393.99 1330.43,-360.41 1340.77,-300.9 1265.88,-278.02 1097.82,-218.4 630.68,-249.98 459.1,-301.08 258.44,-360.65 -141.01,-566.68 67.21,-559.13"/>
<path fill="none" stroke="#000000" stroke-width="2" d="M1703.96,-450.5C1723.57,-452.94 1716.05,-419.89 1701.53,-405.4 1680.49,-382.74 1441.73,-403.75 1410.5,-392.12 1332.4,-360.76 1342.74,-301.24 1266.54,-276.14 1097.68,-216.41 630.54,-247.99 458.53,-299.17 257.53,-358.87 -141.93,-564.9 67.21,-561.13"/>
<path fill="none" stroke="#000000" stroke-width="2" d="M1703.96,-452.5C1725.52,-452.5 1718,-419.45 1702.96,-404 1680.32,-380.75 1441.55,-401.76 1411.21,-390.25 1334.37,-361.1 1344.71,-301.58 1267.21,-274.25 1097.55,-214.41 630.41,-245.99 457.96,-297.25 256.61,-357.1 -142.85,-563.12 67.21,-563.13"/>
<path fill="none" stroke="#000000" stroke-width="2" d="M1703.96,-454.5C1727.47,-452.06 1719.95,-419 1704.39,-402.6 1680.14,-378.76 1441.38,-399.77 1411.92,-388.38 1336.34,-361.44 1346.68,-301.93 1267.88,-272.36 1097.41,-212.42 630.27,-244 457.39,-295.33 255.69,-355.32 -143.76,-561.35 67.21,-565.12"/>
<path fill="none" stroke="#000000" stroke-width="2" d="M1703.96,-456.5C1729.42,-451.61 1721.9,-418.56 1705.83,-401.21 1679.97,-376.77 1441.2,-397.78 1412.63,-386.51 1338.31,-361.78 1348.65,-302.27 1268.54,-270.48 1097.28,-210.42 630.14,-242 456.82,-293.42 254.78,-353.54 -144.68,-559.57 67.21,-567.12"/>
</g>
<!-- GND_B2&#45;&#45;MC508_STEP -->
<g id="edge16" class="edge">
<title>GND_B2:e&#45;&#45;MC508_STEP:w</title>
<path fill="none" stroke="#000000" stroke-width="2" d="M1702.46,-283.5C1720.11,-288.35 1712.89,-255 1698.65,-241.85 1684.43,-226.04 1291.47,-239.35 1267.19,-239.25 904.71,-236.53 796.29,-128.17 459.23,-243.04 246.13,-314.07 -156.23,-566.51 67.21,-559.13"/>
<path fill="none" stroke="#000000" stroke-width="2" d="M1702.46,-285.5C1722.07,-287.92 1714.84,-254.58 1700.05,-240.42 1684.37,-224.04 1291.4,-237.35 1267.2,-237.25 906.13,-235.11 797.7,-126.76 458.59,-241.15 245.07,-312.38 -157.29,-564.82 67.21,-561.13"/>
<path fill="none" stroke="#000000" stroke-width="2" d="M1702.46,-287.5C1724.02,-287.5 1716.8,-254.15 1701.46,-239 1684.3,-222.04 1291.34,-235.35 1267.21,-235.25 907.54,-233.7 799.12,-125.34 457.96,-239.25 244,-310.69 -158.36,-563.13 67.21,-563.12"/>
<path fill="none" stroke="#000000" stroke-width="2" d="M1702.46,-289.5C1725.97,-287.08 1718.75,-253.73 1702.87,-237.58 1684.23,-220.04 1291.27,-233.36 1267.22,-233.25 908.96,-232.28 800.53,-123.93 457.33,-237.35 242.94,-308.99 -159.42,-561.43 67.21,-565.12"/>
<path fill="none" stroke="#000000" stroke-width="2" d="M1702.46,-291.5C1727.93,-286.65 1720.71,-253.31 1704.27,-236.15 1684.16,-218.05 1291.2,-231.36 1267.23,-231.25 910.37,-230.87 801.94,-122.51 456.69,-235.46 241.88,-307.3 -160.48,-559.74 67.21,-567.12"/>
</g>
<!-- PWR&#45;&#45;ESTOP -->
<g id="edge18" class="edge">
<title>PWR:e&#45;&#45;ESTOP:w</title>
<path fill="none" stroke="#000000" stroke-width="2" d="M2414.46,-554.63C2536.37,-560.15 2443.94,-783.78 2558.46,-778.25"/>
<path fill="none" stroke="#ff0000" stroke-width="2" d="M2414.46,-556.63C2534.52,-559.39 2442.1,-783.01 2558.46,-780.25"/>
<path fill="none" stroke="#ff0000" stroke-width="2" d="M2414.46,-558.63C2532.67,-558.63 2440.25,-782.25 2558.46,-782.25"/>
<path fill="none" stroke="#ff0000" stroke-width="2" d="M2414.46,-560.62C2530.82,-557.86 2438.4,-781.49 2558.46,-784.25"/>
<path fill="none" stroke="#000000" stroke-width="2" d="M2414.46,-562.62C2528.98,-557.1 2436.55,-780.72 2558.46,-786.25"/>
</g>
<!-- ES&#45;&#45;MC508_STEP -->
<g id="edge20" class="edge">
<title>ES:e&#45;&#45;MC508_STEP:w</title>
<path fill="none" stroke="#000000" stroke-width="2" d="M3189.96,-924.63C3197.08,-929.55 3193.01,-912.43 3186.19,-906.76 3091.27,-810.21 3015.78,-884.33 2876.1,-907.82 2607.91,-949.11 2567.57,-1101.27 2288.71,-1104.25 1121.46,-1104.25 1121.46,-1104.25 1121.46,-1104.25 974.57,-1104.19 573.75,-1171.48 455.46,-1078.37 258.81,-914.9 510.56,-678.29 311.52,-530.67 226.98,-464.78 145.41,-454.7 71.02,-530.35 45.85,-554.27 34.18,-611.42 67.21,-606.63"/>
<path fill="none" stroke="#ff0000" stroke-width="2" d="M3189.96,-926.63C3199.02,-929.09 3194.95,-911.96 3187.57,-905.32 3089.87,-808.79 3014.38,-882.9 2875.78,-905.85 2605.98,-948.6 2565.64,-1100.76 2288.71,-1102.25 1121.46,-1102.25 1121.46,-1102.25 1121.46,-1102.25 974.24,-1102.22 573.42,-1169.5 456.71,-1076.81 260.18,-916.36 511.93,-679.75 312.74,-529.08 227.22,-462.79 145.66,-452.72 69.62,-528.92 43.89,-553.87 32.22,-611.02 67.21,-608.63"/>
<path fill="none" stroke="#ff0000" stroke-width="2" d="M3189.96,-928.62C3200.97,-928.62 3196.9,-911.5 3188.96,-903.88 3088.47,-807.36 3012.98,-881.47 2875.46,-903.88 2604.04,-948.09 2563.71,-1100.25 2288.71,-1100.25 1121.46,-1100.25 1121.46,-1100.25 1121.46,-1100.25 973.91,-1100.25 573.09,-1167.53 457.96,-1075.25 261.55,-917.82 513.3,-681.21 313.96,-527.5 227.47,-460.81 145.9,-450.73 68.21,-527.5 41.93,-553.47 30.26,-610.62 67.21,-610.62"/>
<path fill="none" stroke="#ff0000" stroke-width="2" d="M3189.96,-930.62C3202.91,-928.16 3198.85,-911.04 3190.35,-902.43 3087.07,-805.93 3011.58,-880.05 2875.14,-901.9 2602.11,-947.58 2561.77,-1099.74 2288.71,-1098.25 1121.46,-1098.25 1121.46,-1098.25 1121.46,-1098.25 973.58,-1098.28 572.76,-1165.56 459.21,-1073.69 262.92,-919.27 514.67,-682.66 315.18,-525.92 227.71,-458.82 146.15,-448.75 66.8,-526.08 39.97,-553.07 28.3,-610.23 67.21,-612.62"/>
<path fill="none" stroke="#000000" stroke-width="2" d="M3189.96,-932.62C3204.86,-927.7 3200.79,-910.58 3191.73,-900.99 3085.67,-804.51 3010.18,-878.62 2874.82,-899.93 2600.18,-947.06 2559.84,-1099.23 2288.71,-1096.25 1121.46,-1096.25 1121.46,-1096.25 1121.46,-1096.25 973.25,-1096.31 572.43,-1163.59 460.46,-1072.13 264.29,-920.73 516.04,-684.12 316.4,-524.33 227.96,-456.84 146.4,-446.76 65.4,-524.65 38.01,-552.67 26.34,-609.83 67.21,-614.62"/>
</g>
<!-- WDA&#45;&#45;DRV_A -->
<g id="edge22" class="edge">
<title>WDA:e&#45;&#45;DRV_A:w</title>
<path fill="none" stroke="#000000" stroke-width="2" d="M810.71,-802.5C918.55,-804.82 940,-851.07 1040.58,-848.75"/>
<path fill="none" stroke="#ff8000" stroke-width="2" d="M810.71,-804.5C916.74,-805.66 938.19,-851.91 1040.58,-850.75"/>
<path fill="none" stroke="#ff8000" stroke-width="2" d="M810.71,-806.5C914.92,-806.5 936.37,-852.75 1040.58,-852.75"/>
<path fill="none" stroke="#ff8000" stroke-width="2" d="M810.71,-808.5C913.11,-807.34 934.56,-853.59 1040.58,-854.75"/>
<path fill="none" stroke="#000000" stroke-width="2" d="M810.71,-810.5C911.3,-808.18 932.74,-854.43 1040.58,-856.75"/>
</g>
<!-- RA&#45;&#45;EXT5V -->
<g id="edge24" class="edge">
<title>RA:e&#45;&#45;EXT5V:w</title>
<path fill="none" stroke="#000000" stroke-width="2" d="M1685.96,-613.5C1829.36,-619.17 1696.3,-330.17 1846.96,-324.5"/>
<path fill="none" stroke="#000000" stroke-width="2" d="M1685.96,-615.5C1831.17,-618.34 1698.11,-329.34 1846.96,-326.5"/>
<path fill="none" stroke="#000000" stroke-width="2" d="M1685.96,-617.5C1832.99,-617.5 1699.93,-328.5 1846.96,-328.5"/>
<path fill="none" stroke="#000000" stroke-width="2" d="M1685.96,-619.5C1834.81,-616.66 1701.75,-327.66 1846.96,-330.5"/>
<path fill="none" stroke="#000000" stroke-width="2" d="M1685.96,-621.5C1836.62,-615.83 1703.56,-326.83 1846.96,-332.5"/>
</g>
<!-- WDB&#45;&#45;DRV_B -->
<g id="edge26" class="edge">
<title>WDB:e&#45;&#45;DRV_B:w</title>
<path fill="none" stroke="#000000" stroke-width="2" d="M810.71,-353.5C907.44,-353.9 931.75,-342.15 1031.96,-341.75"/>
<path fill="none" stroke="#ff8000" stroke-width="2" d="M810.71,-355.5C908.31,-355.7 932.62,-343.95 1031.96,-343.75"/>
<path fill="none" stroke="#ff8000" stroke-width="2" d="M810.71,-357.5C909.18,-357.5 933.49,-345.75 1031.96,-345.75"/>
<path fill="none" stroke="#ff8000" stroke-width="2" d="M810.71,-359.5C910.05,-359.3 934.36,-347.55 1031.96,-347.75"/>
<path fill="none" stroke="#000000" stroke-width="2" d="M810.71,-361.5C910.92,-361.1 935.23,-349.35 1031.96,-349.75"/>
</g>
<!-- RB&#45;&#45;EXT5V -->
<g id="edge28" class="edge">
<title>RB:e&#45;&#45;EXT5V:w</title>
<path fill="none" stroke="#000000" stroke-width="2" d="M1685.96,-118.5C1805.94,-123.81 1734.54,-329.81 1846.96,-324.5"/>
<path fill="none" stroke="#000000" stroke-width="2" d="M1685.96,-120.5C1804.05,-123.15 1732.65,-329.15 1846.96,-326.5"/>
<path fill="none" stroke="#000000" stroke-width="2" d="M1685.96,-122.5C1802.16,-122.5 1730.76,-328.5 1846.96,-328.5"/>
<path fill="none" stroke="#000000" stroke-width="2" d="M1685.96,-124.5C1800.27,-121.85 1728.87,-327.85 1846.96,-330.5"/>
<path fill="none" stroke="#000000" stroke-width="2" d="M1685.96,-126.5C1798.38,-121.19 1726.98,-327.19 1846.96,-332.5"/>
</g>
<!-- SGND&#45;&#45;EXT5V -->
<g id="edge30" class="edge">
<title>SGND:e&#45;&#45;EXT5V:w</title>
<path fill="none" stroke="#000000" stroke-width="2" d="M1267.21,-44.5C1457.96,-45.86 1535.1,42.2 1705.06,-58.85 1820.94,-134.84 1715.95,-330.39 1846.96,-324.5"/>
<path fill="none" stroke="#000000" stroke-width="2" d="M1267.21,-46.5C1459.47,-47.18 1536.6,40.89 1704.01,-60.55 1819.18,-133.89 1714.19,-329.45 1846.96,-326.5"/>
<path fill="none" stroke="#000000" stroke-width="2" d="M1267.21,-48.5C1460.97,-48.5 1538.1,39.57 1702.96,-62.25 1817.42,-132.94 1712.43,-328.5 1846.96,-328.5"/>
<path fill="none" stroke="#000000" stroke-width="2" d="M1267.21,-50.5C1462.48,-49.82 1539.61,38.25 1701.91,-63.95 1815.66,-132 1710.67,-327.55 1846.96,-330.5"/>
<path fill="none" stroke="#000000" stroke-width="2" d="M1267.21,-52.5C1463.98,-51.14 1541.11,36.93 1700.86,-65.65 1813.9,-131.05 1708.9,-326.61 1846.96,-332.5"/>
</g>
</g>
</svg>
