<?xml version="1.0" encoding="UTF-8" standalone="no"?>
<!DOCTYPE svg PUBLIC "-//W3C//DTD SVG 1.1//EN"
 "http://www.w3.org/Graphics/SVG/1.1/DTD/svg11.dtd">
<!-- Generated by graphviz version 12.2.1 (20241206.2353)
 -->
<!-- Pages: 1 -->
<svg width="3315pt" height="883pt"
 viewBox="0.00 0.00 3315.37 882.50" xmlns="http://www.w3.org/2000/svg" xmlns:xlink="http://www.w3.org/1999/xlink">
<g id="graph0" class="graph" transform="scale(1 1) rotate(0) translate(4 878.5)">
<polygon fill="#ffffff" stroke="none" points="-4,4 -4,-878.5 3311.37,-878.5 3311.37,4 -4,4"/>
<!-- DB25 -->
<g id="node1" class="node">
<title>DB25</title>
<polygon fill="#ffffff" stroke="black" points="183.5,-737.25 0,-737.25 0,-357.25 183.5,-357.25 183.5,-737.25"/>
<polygon fill="none" stroke="black" points="0,-713.5 0,-737.25 183.5,-737.25 183.5,-713.5 0,-713.5"/>
<text text-anchor="start" x="74.88" y="-719.95" font-family="arial" font-size="14.00">DB25</text>
<polygon fill="none" stroke="black" points="0,-689.75 0,-713.5 99.17,-713.5 99.17,-689.75 0,-689.75"/>
<text text-anchor="start" x="4.21" y="-696.2" font-family="arial" font-size="14.00">D&#45;Sub 25 Male</text>
<polygon fill="none" stroke="black" points="99.17,-689.75 99.17,-713.5 137.58,-713.5 137.58,-689.75 99.17,-689.75"/>
<text text-anchor="start" x="103.38" y="-696.2" font-family="arial" font-size="14.00">male</text>
<polygon fill="none" stroke="black" points="137.58,-689.75 137.58,-713.5 183.5,-713.5 183.5,-689.75 137.58,-689.75"/>
<text text-anchor="start" x="141.79" y="-696.2" font-family="arial" font-size="14.00">13&#45;pin</text>
<polygon fill="none" stroke="black" points="0,-666 0,-689.75 116.12,-689.75 116.12,-666 0,-666"/>
<text text-anchor="start" x="36.31" y="-672.45" font-family="arial" font-size="14.00">Enc A+</text>
<polygon fill="none" stroke="black" points="116.12,-666 116.12,-689.75 183.5,-689.75 183.5,-666 116.12,-666"/>
<text text-anchor="start" x="146.06" y="-672.45" font-family="arial" font-size="14.00">1</text>
<polygon fill="none" stroke="black" points="0,-642.25 0,-666 116.12,-666 116.12,-642.25 0,-642.25"/>
<text text-anchor="start" x="38.19" y="-648.7" font-family="arial" font-size="14.00">Enc A&#45;</text>
<polygon fill="none" stroke="black" points="116.12,-642.25 116.12,-666 183.5,-666 183.5,-642.25 116.12,-642.25"/>
<text text-anchor="start" x="142.31" y="-648.7" font-family="arial" font-size="14.00">14</text>
<polygon fill="none" stroke="black" points="0,-618.5 0,-642.25 116.12,-642.25 116.12,-618.5 0,-618.5"/>
<text text-anchor="start" x="35.94" y="-624.95" font-family="arial" font-size="14.00">Enc B+</text>
<polygon fill="none" stroke="black" points="116.12,-618.5 116.12,-642.25 183.5,-642.25 183.5,-618.5 116.12,-618.5"/>
<text text-anchor="start" x="146.06" y="-624.95" font-family="arial" font-size="14.00">2</text>
<polygon fill="none" stroke="black" points="0,-594.75 0,-618.5 116.12,-618.5 116.12,-594.75 0,-594.75"/>
<text text-anchor="start" x="37.81" y="-601.2" font-family="arial" font-size="14.00">Enc B&#45;</text>
<polygon fill="none" stroke="black" points="116.12,-594.75 116.12,-618.5 183.5,-618.5 183.5,-594.75 116.12,-594.75"/>
<text text-anchor="start" x="142.31" y="-601.2" font-family="arial" font-size="14.00">15</text>
<polygon fill="none" stroke="black" points="0,-571 0,-594.75 116.12,-594.75 116.12,-571 0,-571"/>
<text text-anchor="start" x="36.31" y="-577.45" font-family="arial" font-size="14.00">Enc Z+</text>
<polygon fill="none" stroke="black" points="116.12,-571 116.12,-594.75 183.5,-594.75 183.5,-571 116.12,-571"/>
<text text-anchor="start" x="146.06" y="-577.45" font-family="arial" font-size="14.00">3</text>
<polygon fill="none" stroke="black" points="0,-547.25 0,-571 116.12,-571 116.12,-547.25 0,-547.25"/>
<text text-anchor="start" x="38.19" y="-553.7" font-family="arial" font-size="14.00">Enc Z&#45;</text>
<polygon fill="none" stroke="black" points="116.12,-547.25 116.12,-571 183.5,-571 183.5,-547.25 116.12,-547.25"/>
<text text-anchor="start" x="142.31" y="-553.7" font-family="arial" font-size="14.00">16</text>
<polygon fill="none" stroke="black" points="0,-523.5 0,-547.25 116.12,-547.25 116.12,-523.5 0,-523.5"/>
<text text-anchor="start" x="45.69" y="-529.95" font-family="arial" font-size="14.00">+5V</text>
<polygon fill="none" stroke="black" points="116.12,-523.5 116.12,-547.25 183.5,-547.25 183.5,-523.5 116.12,-523.5"/>
<text text-anchor="start" x="146.06" y="-529.95" font-family="arial" font-size="14.00">4</text>
<polygon fill="none" stroke="black" points="0,-499.75 0,-523.5 116.12,-523.5 116.12,-499.75 0,-499.75"/>
<text text-anchor="start" x="30.69" y="-506.2" font-family="arial" font-size="14.00">Dig GND</text>
<polygon fill="none" stroke="black" points="116.12,-499.75 116.12,-523.5 183.5,-523.5 183.5,-499.75 116.12,-499.75"/>
<text text-anchor="start" x="142.31" y="-506.2" font-family="arial" font-size="14.00">17</text>
<polygon fill="none" stroke="black" points="0,-476 0,-499.75 116.12,-499.75 116.12,-476 0,-476"/>
<text text-anchor="start" x="28.81" y="-482.45" font-family="arial" font-size="14.00">Fwd Limit</text>
<polygon fill="none" stroke="black" points="116.12,-476 116.12,-499.75 183.5,-499.75 183.5,-476 116.12,-476"/>
<text text-anchor="start" x="142.31" y="-482.45" font-family="arial" font-size="14.00">10</text>
<polygon fill="none" stroke="black" points="0,-452.25 0,-476 116.12,-476 116.12,-452.25 0,-452.25"/>
<text text-anchor="start" x="29.56" y="-458.7" font-family="arial" font-size="14.00">Rev Limit</text>
<polygon fill="none" stroke="black" points="116.12,-452.25 116.12,-476 183.5,-476 183.5,-452.25 116.12,-452.25"/>
<text text-anchor="start" x="142.31" y="-458.7" font-family="arial" font-size="14.00">12</text>
<polygon fill="none" stroke="black" points="0,-428.5 0,-452.25 116.12,-452.25 116.12,-428.5 0,-428.5"/>
<text text-anchor="start" x="44.94" y="-434.95" font-family="arial" font-size="14.00">Viso</text>
<polygon fill="none" stroke="black" points="116.12,-428.5 116.12,-452.25 183.5,-452.25 183.5,-428.5 116.12,-428.5"/>
<text text-anchor="start" x="142.31" y="-434.95" font-family="arial" font-size="14.00">13</text>
<polygon fill="none" stroke="black" points="0,-404.75 0,-428.5 116.12,-428.5 116.12,-404.75 0,-404.75"/>
<text text-anchor="start" x="44.56" y="-411.2" font-family="arial" font-size="14.00">Ciso</text>
<polygon fill="none" stroke="black" points="116.12,-404.75 116.12,-428.5 183.5,-428.5 183.5,-404.75 116.12,-404.75"/>
<text text-anchor="start" x="142.31" y="-411.2" font-family="arial" font-size="14.00">22</text>
<polygon fill="none" stroke="black" points="0,-381 0,-404.75 116.12,-404.75 116.12,-381 0,-381"/>
<text text-anchor="start" x="26.19" y="-387.45" font-family="arial" font-size="14.00">Home N/C</text>
<polygon fill="none" stroke="black" points="116.12,-381 116.12,-404.75 183.5,-404.75 183.5,-381 116.12,-381"/>
<text text-anchor="start" x="142.69" y="-387.45" font-family="arial" font-size="14.00">11</text>
<polygon fill="none" stroke="black" points="0,-357.25 0,-381 183.5,-381 183.5,-357.25 0,-357.25"/>
<text text-anchor="start" x="4" y="-363.7" font-family="arial" font-size="14.00">Stage cable (from UMI&#45;7774)</text>
</g>
<!-- ENC -->
<g id="node6" class="node">
<title>ENC</title>
<polygon fill="#ffffff" stroke="black" points="698,-802.62 327.5,-802.62 327.5,-453.88 698,-453.88 698,-802.62"/>
<polygon fill="none" stroke="black" points="327.5,-778.88 327.5,-802.62 698,-802.62 698,-778.88 327.5,-778.88"/>
<text text-anchor="start" x="498.5" y="-785.33" font-family="arial" font-size="14.00">ENC</text>
<polygon fill="none" stroke="black" points="327.5,-755.12 327.5,-778.88 698,-778.88 698,-755.12 327.5,-755.12"/>
<text text-anchor="start" x="505.62" y="-761.58" font-family="arial" font-size="14.00">8x</text>
<text text-anchor="start" x="383.12" y="-739.83" font-family="arial" font-size="14.00"> </text>
<text text-anchor="start" x="338.88" y="-720.08" font-family="arial" font-size="14.00">DB25:1:Enc A+</text>
<text text-anchor="start" x="463.25" y="-720.08" font-family="arial" font-size="14.00"> &#160;&#160;&#160;&#160;1:BK &#160;&#160;&#160;</text>
<text text-anchor="start" x="553.12" y="-720.08" font-family="arial" font-size="14.00">MC508_ENC:1:Enc A+</text>
<polygon fill="#000000" stroke="none" points="327.5,-713.62 327.5,-715.62 698,-715.62 698,-713.62 327.5,-713.62"/>
<polygon fill="#000000" stroke="none" points="327.5,-711.62 327.5,-713.62 698,-713.62 698,-711.62 327.5,-711.62"/>
<polygon fill="#000000" stroke="none" points="327.5,-709.62 327.5,-711.62 698,-711.62 698,-709.62 327.5,-709.62"/>
<polygon fill="#000000" stroke="none" points="327.5,-707.62 327.5,-709.62 698,-709.62 698,-707.62 327.5,-707.62"/>
<polygon fill="#000000" stroke="none" points="327.5,-705.62 327.5,-707.62 698,-707.62 698,-705.62 327.5,-705.62"/>
<text text-anchor="start" x="337" y="-690.33" font-family="arial" font-size="14.00">DB25:14:Enc A&#45;</text>
<text text-anchor="start" x="462.88" y="-690.33" font-family="arial" font-size="14.00"> &#160;&#160;&#160;&#160;2:BN &#160;&#160;&#160;</text>
<text text-anchor="start" x="555.38" y="-690.33" font-family="arial" font-size="14.00">MC508_ENC:2:/Enc A</text>
<polygon fill="#000000" stroke="none" points="327.5,-683.88 327.5,-685.88 698,-685.88 698,-683.88 327.5,-683.88"/>
<polygon fill="#895956" stroke="none" points="327.5,-681.88 327.5,-683.88 698,-683.88 698,-681.88 327.5,-681.88"/>
<polygon fill="#895956" stroke="none" points="327.5,-679.88 327.5,-681.88 698,-681.88 698,-679.88 327.5,-679.88"/>
<polygon fill="#895956" stroke="none" points="327.5,-677.88 327.5,-679.88 698,-679.88 698,-677.88 327.5,-677.88"/>
<polygon fill="#000000" stroke="none" points="327.5,-675.88 327.5,-677.88 698,-677.88 698,-675.88 327.5,-675.88"/>
<text text-anchor="start" x="338.5" y="-660.58" font-family="arial" font-size="14.00">DB25:2:Enc B+</text>
<text text-anchor="start" x="462.5" y="-660.58" font-family="arial" font-size="14.00"> &#160;&#160;&#160;&#160;3:RD &#160;&#160;&#160;</text>
<text text-anchor="start" x="552.75" y="-660.58" font-family="arial" font-size="14.00">MC508_ENC:3:Enc B+</text>
<polygon fill="#000000" stroke="none" points="327.5,-654.12 327.5,-656.12 698,-656.12 698,-654.12 327.5,-654.12"/>
<polygon fill="#ff0000" stroke="none" points="327.5,-652.12 327.5,-654.12 698,-654.12 698,-652.12 327.5,-652.12"/>
<polygon fill="#ff0000" stroke="none" points="327.5,-650.12 327.5,-652.12 698,-652.12 698,-650.12 327.5,-650.12"/>
<polygon fill="#ff0000" stroke="none" points="327.5,-648.12 327.5,-650.12 698,-650.12 698,-648.12 327.5,-648.12"/>
<polygon fill="#000000" stroke="none" points="327.5,-646.12 327.5,-648.12 698,-648.12 698,-646.12 327.5,-646.12"/>
<text text-anchor="start" x="336.62" y="-630.83" font-family="arial" font-size="14.00">DB25:15:Enc B&#45;</text>
<text text-anchor="start" x="461" y="-630.83" font-family="arial" font-size="14.00"> &#160;&#160;&#160;&#160;4:OG &#160;&#160;&#160;</text>
<text text-anchor="start" x="555" y="-630.83" font-family="arial" font-size="14.00">MC508_ENC:4:/Enc B</text>
<polygon fill="#000000" stroke="none" points="327.5,-624.38 327.5,-626.38 698,-626.38 698,-624.38 327.5,-624.38"/>
<polygon fill="#ff8000" stroke="none" points="327.5,-622.38 327.5,-624.38 698,-624.38 698,-622.38 327.5,-622.38"/>
<polygon fill="#ff8000" stroke="none" points="327.5,-620.38 327.5,-622.38 698,-622.38 698,-620.38 327.5,-620.38"/>
<polygon fill="#ff8000" stroke="none" points="327.5,-618.38 327.5,-620.38 698,-620.38 698,-618.38 327.5,-618.38"/>
<polygon fill="#000000" stroke="none" points="327.5,-616.38 327.5,-618.38 698,-618.38 698,-616.38 327.5,-616.38"/>
<text text-anchor="start" x="338.88" y="-601.08" font-family="arial" font-size="14.00">DB25:3:Enc Z+</text>
<text text-anchor="start" x="444.5" y="-601.08" font-family="arial" font-size="14.00"> &#160;&#160;&#160;&#160;5:#90EE90 &#160;&#160;&#160;</text>
<text text-anchor="start" x="549.75" y="-601.08" font-family="arial" font-size="14.00">MC508_ENC:11:Enc Z+</text>
<polygon fill="#000000" stroke="none" points="327.5,-594.62 327.5,-596.62 698,-596.62 698,-594.62 327.5,-594.62"/>
<polygon fill="#90ee90" stroke="none" points="327.5,-592.62 327.5,-594.62 698,-594.62 698,-592.62 327.5,-592.62"/>
<polygon fill="#90ee90" stroke="none" points="327.5,-590.62 327.5,-592.62 698,-592.62 698,-590.62 327.5,-590.62"/>
<polygon fill="#90ee90" stroke="none" points="327.5,-588.62 327.5,-590.62 698,-590.62 698,-588.62 327.5,-588.62"/>
<polygon fill="#000000" stroke="none" points="327.5,-586.62 327.5,-588.62 698,-588.62 698,-586.62 327.5,-586.62"/>
<text text-anchor="start" x="337" y="-571.33" font-family="arial" font-size="14.00">DB25:16:Enc Z&#45;</text>
<text text-anchor="start" x="464" y="-571.33" font-family="arial" font-size="14.00"> &#160;&#160;&#160;&#160;6:LB &#160;&#160;&#160;</text>
<text text-anchor="start" x="551.62" y="-571.33" font-family="arial" font-size="14.00">MC508_ENC:12:/Enc Z</text>
<polygon fill="#000000" stroke="none" points="327.5,-564.88 327.5,-566.88 698,-566.88 698,-564.88 327.5,-564.88"/>
<polygon fill="#a0dfff" stroke="none" points="327.5,-562.88 327.5,-564.88 698,-564.88 698,-562.88 327.5,-562.88"/>
<polygon fill="#a0dfff" stroke="none" points="327.5,-560.88 327.5,-562.88 698,-562.88 698,-560.88 327.5,-560.88"/>
<polygon fill="#a0dfff" stroke="none" points="327.5,-558.88 327.5,-560.88 698,-560.88 698,-558.88 327.5,-558.88"/>
<polygon fill="#000000" stroke="none" points="327.5,-556.88 327.5,-558.88 698,-558.88 698,-556.88 327.5,-556.88"/>
<text text-anchor="start" x="348.25" y="-541.58" font-family="arial" font-size="14.00">DB25:4:+5V</text>
<text text-anchor="start" x="463.25" y="-541.58" font-family="arial" font-size="14.00"> &#160;&#160;&#160;&#160;7:YE &#160;&#160;&#160;</text>
<text text-anchor="start" x="549" y="-541.58" font-family="arial" font-size="14.00">MC508_ENC:5:+5V Enc</text>
<polygon fill="#000000" stroke="none" points="327.5,-535.12 327.5,-537.12 698,-537.12 698,-535.12 327.5,-535.12"/>
<polygon fill="#ffff00" stroke="none" points="327.5,-533.12 327.5,-535.12 698,-535.12 698,-533.12 327.5,-533.12"/>
<polygon fill="#ffff00" stroke="none" points="327.5,-531.12 327.5,-533.12 698,-533.12 698,-531.12 327.5,-531.12"/>
<polygon fill="#ffff00" stroke="none" points="327.5,-529.12 327.5,-531.12 698,-531.12 698,-529.12 327.5,-529.12"/>
<polygon fill="#000000" stroke="none" points="327.5,-527.12 327.5,-529.12 698,-529.12 698,-527.12 327.5,-527.12"/>
<text text-anchor="start" x="329.5" y="-511.82" font-family="arial" font-size="14.00">DB25:17:Dig GND</text>
<text text-anchor="start" x="451.25" y="-511.82" font-family="arial" font-size="14.00"> &#160;&#160;&#160;&#160;8:WHBN &#160;&#160;&#160;</text>
<text text-anchor="start" x="562.88" y="-511.82" font-family="arial" font-size="14.00">MC508_ENC:15:0V</text>
<polygon fill="#000000" stroke="none" points="327.5,-505.38 327.5,-507.38 698,-507.38 698,-505.38 327.5,-505.38"/>
<polygon fill="#ffffff" stroke="none" points="327.5,-503.38 327.5,-505.38 698,-505.38 698,-503.38 327.5,-503.38"/>
<polygon fill="#895956" stroke="none" points="327.5,-501.38 327.5,-503.38 698,-503.38 698,-501.38 327.5,-501.38"/>
<polygon fill="#ffffff" stroke="none" points="327.5,-499.38 327.5,-501.38 698,-501.38 698,-499.38 327.5,-499.38"/>
<polygon fill="#000000" stroke="none" points="327.5,-497.38 327.5,-499.38 698,-499.38 698,-497.38 327.5,-497.38"/>
<text text-anchor="start" x="383.12" y="-482.07" font-family="arial" font-size="14.00"> </text>
<polygon fill="none" stroke="black" points="327.5,-453.88 327.5,-477.62 698,-477.62 698,-453.88 327.5,-453.88"/>
<text text-anchor="start" x="435.12" y="-460.32" font-family="arial" font-size="14.00">Encoder adapter (8 wires)</text>
</g>
<!-- DB25&#45;&#45;ENC -->
<g id="edge1" class="edge">
<title>DB25:e&#45;&#45;ENC:w</title>
<path fill="none" stroke="#000000" stroke-width="2" d="M183.5,-673.88C252.86,-676.43 265.59,-709.18 327.5,-706.63"/>
<path fill="none" stroke="#000000" stroke-width="2" d="M183.5,-675.88C251,-677.15 263.73,-709.9 327.5,-708.63"/>
<path fill="none" stroke="#000000" stroke-width="2" d="M183.5,-677.88C249.13,-677.88 261.87,-710.62 327.5,-710.62"/>
<path fill="none" stroke="#000000" stroke-width="2" d="M183.5,-679.87C247.27,-678.6 260,-711.35 327.5,-712.62"/>
<path fill="none" stroke="#000000" stroke-width="2" d="M183.5,-681.87C245.41,-679.32 258.14,-712.07 327.5,-714.62"/>
</g>
<!-- DB25&#45;&#45;ENC -->
<g id="edge3" class="edge">
<title>DB25:e&#45;&#45;ENC:w</title>
<path fill="none" stroke="#000000" stroke-width="2" d="M183.5,-650.13C252.15,-652.29 265.96,-679.04 327.5,-676.88"/>
<path fill="none" stroke="#895956" stroke-width="2" d="M183.5,-652.13C250.37,-653.21 264.18,-679.96 327.5,-678.88"/>
<path fill="none" stroke="#895956" stroke-width="2" d="M183.5,-654.12C248.59,-654.12 262.41,-680.88 327.5,-680.88"/>
<path fill="none" stroke="#895956" stroke-width="2" d="M183.5,-656.12C246.82,-655.04 260.63,-681.79 327.5,-682.87"/>
<path fill="none" stroke="#000000" stroke-width="2" d="M183.5,-658.12C245.04,-655.96 258.85,-682.71 327.5,-684.87"/>
</g>
<!-- DB25&#45;&#45;ENC -->
<g id="edge5" class="edge">
<title>DB25:e&#45;&#45;ENC:w</title>
<path fill="none" stroke="#000000" stroke-width="2" d="M183.5,-626.38C251.43,-628.07 266.1,-648.82 327.5,-647.13"/>
<path fill="none" stroke="#ff0000" stroke-width="2" d="M183.5,-628.38C249.79,-629.22 264.47,-649.97 327.5,-649.13"/>
<path fill="none" stroke="#ff0000" stroke-width="2" d="M183.5,-630.38C248.16,-630.38 262.84,-651.13 327.5,-651.12"/>
<path fill="none" stroke="#ff0000" stroke-width="2" d="M183.5,-632.37C246.53,-631.53 261.21,-652.28 327.5,-653.12"/>
<path fill="none" stroke="#000000" stroke-width="2" d="M183.5,-634.37C244.9,-632.68 259.57,-653.43 327.5,-655.12"/>
</g>
<!-- DB25&#45;&#45;ENC -->
<g id="edge7" class="edge">
<title>DB25:e&#45;&#45;ENC:w</title>
<path fill="none" stroke="#000000" stroke-width="2" d="M183.5,-602.63C250.61,-603.74 265.94,-618.49 327.5,-617.38"/>
<path fill="none" stroke="#ff8000" stroke-width="2" d="M183.5,-604.63C249.22,-605.18 264.55,-619.93 327.5,-619.38"/>
<path fill="none" stroke="#ff8000" stroke-width="2" d="M183.5,-606.62C247.83,-606.62 263.17,-621.37 327.5,-621.37"/>
<path fill="none" stroke="#ff8000" stroke-width="2" d="M183.5,-608.62C246.45,-608.07 261.78,-622.82 327.5,-623.37"/>
<path fill="none" stroke="#000000" stroke-width="2" d="M183.5,-610.62C245.06,-609.51 260.39,-624.26 327.5,-625.37"/>
</g>
<!-- DB25&#45;&#45;ENC -->
<g id="edge9" class="edge">
<title>DB25:e&#45;&#45;ENC:w</title>
<path fill="none" stroke="#000000" stroke-width="2" d="M183.5,-578.88C249.56,-579.38 265.32,-588.13 327.5,-587.63"/>
<path fill="none" stroke="#90ee90" stroke-width="2" d="M183.5,-580.88C248.59,-581.13 264.35,-589.88 327.5,-589.63"/>
<path fill="none" stroke="#90ee90" stroke-width="2" d="M183.5,-582.88C247.62,-582.87 263.38,-591.62 327.5,-591.63"/>
<path fill="none" stroke="#90ee90" stroke-width="2" d="M183.5,-584.87C246.65,-584.62 262.41,-593.37 327.5,-593.62"/>
<path fill="none" stroke="#000000" stroke-width="2" d="M183.5,-586.87C245.68,-586.37 261.44,-595.12 327.5,-595.62"/>
</g>
<!-- DB25&#45;&#45;ENC -->
<g id="edge11" class="edge">
<title>DB25:e&#45;&#45;ENC:w</title>
<path fill="none" stroke="#000000" stroke-width="2" d="M183.5,-555.13C248.19,-555.18 264.17,-557.93 327.5,-557.88"/>
<path fill="none" stroke="#a0dfff" stroke-width="2" d="M183.5,-557.13C247.85,-557.15 263.83,-559.9 327.5,-559.88"/>
<path fill="none" stroke="#a0dfff" stroke-width="2" d="M183.5,-559.12C247.51,-559.13 263.49,-561.88 327.5,-561.88"/>
<path fill="none" stroke="#a0dfff" stroke-width="2" d="M183.5,-561.12C247.17,-561.1 263.15,-563.85 327.5,-563.87"/>
<path fill="none" stroke="#000000" stroke-width="2" d="M183.5,-563.12C246.83,-563.07 262.81,-565.82 327.5,-565.87"/>
</g>
<!-- DB25&#45;&#45;ENC -->
<g id="edge13" class="edge">
<title>DB25:e&#45;&#45;ENC:w</title>
<path fill="none" stroke="#000000" stroke-width="2" d="M183.5,-531.38C246.72,-531.46 262.69,-528.21 327.5,-528.13"/>
<path fill="none" stroke="#ffff00" stroke-width="2" d="M183.5,-533.38C247.12,-533.42 263.08,-530.17 327.5,-530.13"/>
<path fill="none" stroke="#ffff00" stroke-width="2" d="M183.5,-535.38C247.52,-535.38 263.48,-532.12 327.5,-532.12"/>
<path fill="none" stroke="#ffff00" stroke-width="2" d="M183.5,-537.37C247.92,-537.33 263.88,-534.08 327.5,-534.12"/>
<path fill="none" stroke="#000000" stroke-width="2" d="M183.5,-539.37C248.31,-539.29 264.28,-536.04 327.5,-536.12"/>
</g>
<!-- DB25&#45;&#45;ENC -->
<g id="edge15" class="edge">
<title>DB25:e&#45;&#45;ENC:w</title>
<path fill="none" stroke="#000000" stroke-width="2" d="M183.5,-507.63C245.6,-508.18 261.34,-498.93 327.5,-498.38"/>
<path fill="none" stroke="#ffffff" stroke-width="2" d="M183.5,-509.63C246.62,-509.9 262.35,-500.65 327.5,-500.38"/>
<path fill="none" stroke="#895956" stroke-width="2" d="M183.5,-511.62C247.63,-511.62 263.37,-502.37 327.5,-502.37"/>
<path fill="none" stroke="#ffffff" stroke-width="2" d="M183.5,-513.62C248.65,-513.35 264.38,-504.1 327.5,-504.37"/>
<path fill="none" stroke="#000000" stroke-width="2" d="M183.5,-515.62C249.66,-515.07 265.4,-505.82 327.5,-506.37"/>
</g>
<!-- LFWD -->
<g id="node7" class="node">
<title>LFWD</title>
<polygon fill="#ffffff" stroke="black" points="1977.25,-441.5 1675.75,-441.5 1675.75,-301 1977.25,-301 1977.25,-441.5"/>
<polygon fill="none" stroke="black" points="1675.75,-417.75 1675.75,-441.5 1977.25,-441.5 1977.25,-417.75 1675.75,-417.75"/>
<text text-anchor="start" x="1807" y="-424.2" font-family="arial" font-size="14.00">LFWD</text>
<polygon fill="none" stroke="black" points="1675.75,-394 1675.75,-417.75 1977.25,-417.75 1977.25,-394 1675.75,-394"/>
<text text-anchor="start" x="1819.38" y="-400.45" font-family="arial" font-size="14.00">1x</text>
<text text-anchor="start" x="1733.25" y="-378.7" font-family="arial" font-size="14.00"> </text>
<text text-anchor="start" x="1677.75" y="-358.95" font-family="arial" font-size="14.00">DB25:10:Fwd Limit</text>
<text text-anchor="start" x="1796.5" y="-358.95" font-family="arial" font-size="14.00"> &#160;&#160;&#160;&#160;1:BU &#160;&#160;&#160;</text>
<text text-anchor="start" x="1864.25" y="-358.95" font-family="arial" font-size="14.00">MIC2981:1:In Fwd</text>
<polygon fill="#000000" stroke="none" points="1675.75,-352.5 1675.75,-354.5 1977.25,-354.5 1977.25,-352.5 1675.75,-352.5"/>
<polygon fill="#0066ff" stroke="none" points="1675.75,-350.5 1675.75,-352.5 1977.25,-352.5 1977.25,-350.5 1675.75,-350.5"/>
<polygon fill="#0066ff" stroke="none" points="1675.75,-348.5 1675.75,-350.5 1977.25,-350.5 1977.25,-348.5 1675.75,-348.5"/>
<polygon fill="#0066ff" stroke="none" points="1675.75,-346.5 1675.75,-348.5 1977.25,-348.5 1977.25,-346.5 1675.75,-346.5"/>
<polygon fill="#000000" stroke="none" points="1675.75,-344.5 1675.75,-346.5 1977.25,-346.5 1977.25,-344.5 1675.75,-344.5"/>
<text text-anchor="start" x="1733.25" y="-329.2" font-family="arial" font-size="14.00"> </text>
<polygon fill="none" stroke="black" points="1675.75,-301 1675.75,-324.75 1977.25,-324.75 1977.25,-301 1675.75,-301"/>
<text text-anchor="start" x="1753.75" y="-307.45" font-family="arial" font-size="14.00">Fwd limit → MIC2981 in</text>
</g>
<!-- DB25&#45;&#45;LFWD -->
<g id="edge17" class="edge">
<title>DB25:e&#45;&#45;LFWD:w</title>
<path fill="none" stroke="#000000" stroke-width="2" d="M183.5,-483.88C246.83,-486.63 257.7,-453.33 326.77,-438.32 856.47,-340.3 999.59,-413.18 1531.38,-363.27 1593.52,-358.13 1608.82,-346.33 1675.75,-345.5"/>
<path fill="none" stroke="#0066ff" stroke-width="2" d="M183.5,-485.88C248.73,-487.25 259.6,-453.95 327.13,-440.28 855.56,-342.08 998.69,-414.96 1531.57,-365.26 1594.74,-359.71 1610.04,-347.92 1675.75,-347.5"/>
<path fill="none" stroke="#0066ff" stroke-width="2" d="M183.5,-487.88C250.64,-487.88 261.5,-454.57 327.5,-442.25 854.66,-343.86 997.78,-416.74 1531.75,-367.25 1595.96,-361.3 1611.27,-349.5 1675.75,-349.5"/>
<path fill="none" stroke="#0066ff" stroke-width="2" d="M183.5,-489.87C252.54,-488.5 263.41,-455.19 327.87,-444.22 853.75,-345.64 996.87,-418.52 1531.93,-369.24 1597.18,-362.88 1612.49,-351.08 1675.75,-351.5"/>
<path fill="none" stroke="#000000" stroke-width="2" d="M183.5,-491.87C254.44,-489.12 265.31,-455.81 328.23,-446.18 852.84,-347.43 995.96,-420.31 1532.12,-371.23 1598.4,-364.47 1613.71,-352.67 1675.75,-353.5"/>
</g>
<!-- LREV -->
<g id="node8" class="node">
<title>LREV</title>
<polygon fill="#ffffff" stroke="black" points="1520.12,-355.5 1220.88,-355.5 1220.88,-215 1520.12,-215 1520.12,-355.5"/>
<polygon fill="none" stroke="black" points="1220.88,-331.75 1220.88,-355.5 1520.12,-355.5 1520.12,-331.75 1220.88,-331.75"/>
<text text-anchor="start" x="1352.88" y="-338.2" font-family="arial" font-size="14.00">LREV</text>
<polygon fill="none" stroke="black" points="1220.88,-308 1220.88,-331.75 1520.12,-331.75 1520.12,-308 1220.88,-308"/>
<text text-anchor="start" x="1363.38" y="-314.45" font-family="arial" font-size="14.00">1x</text>
<text text-anchor="start" x="1277.62" y="-292.7" font-family="arial" font-size="14.00"> </text>
<text text-anchor="start" x="1222.88" y="-272.95" font-family="arial" font-size="14.00">DB25:12:Rev Limit</text>
<text text-anchor="start" x="1340.12" y="-272.95" font-family="arial" font-size="14.00"> &#160;&#160;&#160;&#160;1:RD &#160;&#160;&#160;</text>
<text text-anchor="start" x="1408.62" y="-272.95" font-family="arial" font-size="14.00">MIC2981:2:In Rev</text>
<polygon fill="#000000" stroke="none" points="1220.88,-266.5 1220.88,-268.5 1520.12,-268.5 1520.12,-266.5 1220.88,-266.5"/>
<polygon fill="#ff0000" stroke="none" points="1220.88,-264.5 1220.88,-266.5 1520.12,-266.5 1520.12,-264.5 1220.88,-264.5"/>
<polygon fill="#ff0000" stroke="none" points="1220.88,-262.5 1220.88,-264.5 1520.12,-264.5 1520.12,-262.5 1220.88,-262.5"/>
<polygon fill="#ff0000" stroke="none" points="1220.88,-260.5 1220.88,-262.5 1520.12,-262.5 1520.12,-260.5 1220.88,-260.5"/>
<polygon fill="#000000" stroke="none" points="1220.88,-258.5 1220.88,-260.5 1520.12,-260.5 1520.12,-258.5 1220.88,-258.5"/>
<text text-anchor="start" x="1277.62" y="-243.2" font-family="arial" font-size="14.00"> </text>
<polygon fill="none" stroke="black" points="1220.88,-215 1220.88,-238.75 1520.12,-238.75 1520.12,-215 1220.88,-215"/>
<text text-anchor="start" x="1298.5" y="-221.45" font-family="arial" font-size="14.00">Rev limit → MIC2981 in</text>
</g>
<!-- DB25&#45;&#45;LREV -->
<g id="edge19" class="edge">
<title>DB25:e&#45;&#45;LREV:w</title>
<path fill="none" stroke="#000000" stroke-width="2" d="M183.5,-460.13C255.18,-464.31 252.23,-398.86 326.16,-369.48 374.08,-352.49 1169.46,-259.53 1219.88,-259.5"/>
<path fill="none" stroke="#ff0000" stroke-width="2" d="M183.5,-462.13C257.18,-464.22 254.22,-398.77 326.83,-371.37 374.31,-354.48 1169.69,-261.51 1219.88,-261.5"/>
<path fill="none" stroke="#ff0000" stroke-width="2" d="M183.5,-464.12C259.18,-464.12 256.22,-398.68 327.5,-373.25 374.55,-356.47 1169.93,-263.5 1219.88,-263.5"/>
<path fill="none" stroke="#ff0000" stroke-width="2" d="M183.5,-466.12C261.18,-464.03 258.22,-398.59 328.17,-375.13 374.78,-358.45 1170.16,-265.49 1219.88,-265.5"/>
<path fill="none" stroke="#000000" stroke-width="2" d="M183.5,-468.12C263.17,-463.94 260.22,-398.5 328.84,-377.02 375.01,-360.44 1170.39,-267.47 1219.88,-267.5"/>
</g>
<!-- LPWR -->
<g id="node14" class="node">
<title>LPWR</title>
<polygon fill="#ffffff" stroke="black" points="633.5,-305.5 392,-305.5 392,-165 633.5,-165 633.5,-305.5"/>
<polygon fill="none" stroke="black" points="392,-281.75 392,-305.5 633.5,-305.5 633.5,-281.75 392,-281.75"/>
<text text-anchor="start" x="492.88" y="-288.2" font-family="arial" font-size="14.00">LPWR</text>
<polygon fill="none" stroke="black" points="392,-258 392,-281.75 633.5,-281.75 633.5,-258 392,-258"/>
<text text-anchor="start" x="505.62" y="-264.45" font-family="arial" font-size="14.00">1x</text>
<text text-anchor="start" x="433.38" y="-242.7" font-family="arial" font-size="14.00"> </text>
<text text-anchor="start" x="394" y="-222.95" font-family="arial" font-size="14.00">DB25:13:Viso</text>
<text text-anchor="start" x="480.5" y="-222.95" font-family="arial" font-size="14.00"> &#160;&#160;&#160;&#160;1:RD &#160;&#160;&#160;</text>
<text text-anchor="start" x="549" y="-222.95" font-family="arial" font-size="14.00">EXT5V:1:+5V</text>
<polygon fill="#000000" stroke="none" points="392,-216.5 392,-218.5 633.5,-218.5 633.5,-216.5 392,-216.5"/>
<polygon fill="#ff0000" stroke="none" points="392,-214.5 392,-216.5 633.5,-216.5 633.5,-214.5 392,-214.5"/>
<polygon fill="#ff0000" stroke="none" points="392,-212.5 392,-214.5 633.5,-214.5 633.5,-212.5 392,-212.5"/>
<polygon fill="#ff0000" stroke="none" points="392,-210.5 392,-212.5 633.5,-212.5 633.5,-210.5 392,-210.5"/>
<polygon fill="#000000" stroke="none" points="392,-208.5 392,-210.5 633.5,-210.5 633.5,-208.5 392,-208.5"/>
<text text-anchor="start" x="433.38" y="-193.2" font-family="arial" font-size="14.00"> </text>
<polygon fill="none" stroke="black" points="392,-165 392,-188.75 633.5,-188.75 633.5,-165 392,-165"/>
<text text-anchor="start" x="468.88" y="-171.45" font-family="arial" font-size="14.00">Viso → Ext 5V</text>
</g>
<!-- DB25&#45;&#45;LPWR -->
<g id="edge31" class="edge">
<title>DB25:e&#45;&#45;LPWR:w</title>
<path fill="none" stroke="#000000" stroke-width="2" d="M183.5,-436.38C316.3,-441.49 250.51,-214.61 391,-209.5"/>
<path fill="none" stroke="#ff0000" stroke-width="2" d="M183.5,-438.38C318.23,-440.93 252.43,-214.06 391,-211.5"/>
<path fill="none" stroke="#ff0000" stroke-width="2" d="M183.5,-440.38C320.15,-440.38 254.35,-213.5 391,-213.5"/>
<path fill="none" stroke="#ff0000" stroke-width="2" d="M183.5,-442.37C322.07,-439.82 256.27,-212.94 391,-215.5"/>
<path fill="none" stroke="#000000" stroke-width="2" d="M183.5,-444.37C323.99,-439.26 258.2,-212.39 391,-217.5"/>
</g>
<!-- LGND -->
<g id="node15" class="node">
<title>LGND</title>
<polygon fill="#ffffff" stroke="black" points="636.12,-140.5 389.38,-140.5 389.38,0 636.12,0 636.12,-140.5"/>
<polygon fill="none" stroke="black" points="389.38,-116.75 389.38,-140.5 636.12,-140.5 636.12,-116.75 389.38,-116.75"/>
<text text-anchor="start" x="493.62" y="-123.2" font-family="arial" font-size="14.00">LGND</text>
<polygon fill="none" stroke="black" points="389.38,-93 389.38,-116.75 636.12,-116.75 636.12,-93 389.38,-93"/>
<text text-anchor="start" x="505.62" y="-99.45" font-family="arial" font-size="14.00">1x</text>
<text text-anchor="start" x="431.12" y="-77.7" font-family="arial" font-size="14.00"> </text>
<text text-anchor="start" x="391.38" y="-57.95" font-family="arial" font-size="14.00">DB25:22:Ciso</text>
<text text-anchor="start" x="478.62" y="-57.95" font-family="arial" font-size="14.00"> &#160;&#160;&#160;&#160;1:BK &#160;&#160;&#160;</text>
<text text-anchor="start" x="545.62" y="-57.95" font-family="arial" font-size="14.00">EXT5V:2:GND</text>
<polygon fill="#000000" stroke="none" points="389.38,-51.5 389.38,-53.5 636.12,-53.5 636.12,-51.5 389.38,-51.5"/>
<polygon fill="#000000" stroke="none" points="389.38,-49.5 389.38,-51.5 636.12,-51.5 636.12,-49.5 389.38,-49.5"/>
<polygon fill="#000000" stroke="none" points="389.38,-47.5 389.38,-49.5 636.12,-49.5 636.12,-47.5 389.38,-47.5"/>
<polygon fill="#000000" stroke="none" points="389.38,-45.5 389.38,-47.5 636.12,-47.5 636.12,-45.5 389.38,-45.5"/>
<polygon fill="#000000" stroke="none" points="389.38,-43.5 389.38,-45.5 636.12,-45.5 636.12,-43.5 389.38,-43.5"/>
<text text-anchor="start" x="431.12" y="-28.2" font-family="arial" font-size="14.00"> </text>
<polygon fill="none" stroke="black" points="389.38,0 389.38,-23.75 636.12,-23.75 636.12,0 389.38,0"/>
<text text-anchor="start" x="451.25" y="-6.45" font-family="arial" font-size="14.00">Ciso → Ext 5V GND</text>
</g>
<!-- DB25&#45;&#45;LGND -->
<g id="edge33" class="edge">
<title>DB25:e&#45;&#45;LGND:w</title>
<path fill="none" stroke="#000000" stroke-width="2" d="M183.5,-412.63C367.11,-418.3 197.5,-50.17 388.38,-44.5"/>
<path fill="none" stroke="#000000" stroke-width="2" d="M183.5,-414.63C368.93,-417.46 199.32,-49.34 388.38,-46.5"/>
<path fill="none" stroke="#000000" stroke-width="2" d="M183.5,-416.62C370.74,-416.62 201.13,-48.5 388.38,-48.5"/>
<path fill="none" stroke="#000000" stroke-width="2" d="M183.5,-418.62C372.56,-415.79 202.95,-47.66 388.38,-50.5"/>
<path fill="none" stroke="#000000" stroke-width="2" d="M183.5,-420.62C374.38,-414.95 204.77,-46.83 388.38,-52.5"/>
</g>
<!-- MC508_ENC -->
<g id="node2" class="node">
<title>MC508_ENC</title>
<polygon fill="#ffffff" stroke="black" points="1058.5,-761.5 848.75,-761.5 848.75,-429 1058.5,-429 1058.5,-761.5"/>
<polygon fill="none" stroke="black" points="848.75,-737.75 848.75,-761.5 1058.5,-761.5 1058.5,-737.75 848.75,-737.75"/>
<text text-anchor="start" x="913.5" y="-744.2" font-family="arial" font-size="14.00">MC508_ENC</text>
<polygon fill="none" stroke="black" points="848.75,-714 848.75,-737.75 960.75,-737.75 960.75,-714 848.75,-714"/>
<text text-anchor="start" x="879.25" y="-720.45" font-family="arial" font-size="14.00">MDR&#45;20</text>
<polygon fill="none" stroke="black" points="960.75,-714 960.75,-737.75 1058.5,-737.75 1058.5,-714 960.75,-714"/>
<text text-anchor="start" x="991.25" y="-720.45" font-family="arial" font-size="14.00">11&#45;pin</text>
<polygon fill="none" stroke="black" points="848.75,-690.25 848.75,-714 902.67,-714 902.67,-690.25 848.75,-690.25"/>
<text text-anchor="start" x="871.96" y="-696.7" font-family="arial" font-size="14.00">1</text>
<polygon fill="none" stroke="black" points="902.67,-690.25 902.67,-714 1004.58,-714 1004.58,-690.25 902.67,-690.25"/>
<text text-anchor="start" x="931.88" y="-696.7" font-family="arial" font-size="14.00">Enc A+</text>
<polygon fill="none" stroke="black" points="1004.58,-690.25 1004.58,-714 1058.5,-714 1058.5,-690.25 1004.58,-690.25"/>
<text text-anchor="start" x="1027.79" y="-696.7" font-family="arial" font-size="14.00">1</text>
<polygon fill="none" stroke="black" points="848.75,-666.5 848.75,-690.25 902.67,-690.25 902.67,-666.5 848.75,-666.5"/>
<text text-anchor="start" x="871.96" y="-672.95" font-family="arial" font-size="14.00">2</text>
<polygon fill="none" stroke="black" points="902.67,-666.5 902.67,-690.25 1004.58,-690.25 1004.58,-666.5 902.67,-666.5"/>
<text text-anchor="start" x="934.12" y="-672.95" font-family="arial" font-size="14.00">/Enc A</text>
<polygon fill="none" stroke="black" points="1004.58,-666.5 1004.58,-690.25 1058.5,-690.25 1058.5,-666.5 1004.58,-666.5"/>
<text text-anchor="start" x="1027.79" y="-672.95" font-family="arial" font-size="14.00">2</text>
<polygon fill="none" stroke="black" points="848.75,-642.75 848.75,-666.5 902.67,-666.5 902.67,-642.75 848.75,-642.75"/>
<text text-anchor="start" x="871.96" y="-649.2" font-family="arial" font-size="14.00">3</text>
<polygon fill="none" stroke="black" points="902.67,-642.75 902.67,-666.5 1004.58,-666.5 1004.58,-642.75 902.67,-642.75"/>
<text text-anchor="start" x="931.5" y="-649.2" font-family="arial" font-size="14.00">Enc B+</text>
<polygon fill="none" stroke="black" points="1004.58,-642.75 1004.58,-666.5 1058.5,-666.5 1058.5,-642.75 1004.58,-642.75"/>
<text text-anchor="start" x="1027.79" y="-649.2" font-family="arial" font-size="14.00">3</text>
<polygon fill="none" stroke="black" points="848.75,-619 848.75,-642.75 902.67,-642.75 902.67,-619 848.75,-619"/>
<text text-anchor="start" x="871.96" y="-625.45" font-family="arial" font-size="14.00">4</text>
<polygon fill="none" stroke="black" points="902.67,-619 902.67,-642.75 1004.58,-642.75 1004.58,-619 902.67,-619"/>
<text text-anchor="start" x="933.75" y="-625.45" font-family="arial" font-size="14.00">/Enc B</text>
<polygon fill="none" stroke="black" points="1004.58,-619 1004.58,-642.75 1058.5,-642.75 1058.5,-619 1004.58,-619"/>
<text text-anchor="start" x="1027.79" y="-625.45" font-family="arial" font-size="14.00">4</text>
<polygon fill="none" stroke="black" points="848.75,-595.25 848.75,-619 902.67,-619 902.67,-595.25 848.75,-595.25"/>
<text text-anchor="start" x="868.58" y="-601.7" font-family="arial" font-size="14.00">11</text>
<polygon fill="none" stroke="black" points="902.67,-595.25 902.67,-619 1004.58,-619 1004.58,-595.25 902.67,-595.25"/>
<text text-anchor="start" x="931.88" y="-601.7" font-family="arial" font-size="14.00">Enc Z+</text>
<polygon fill="none" stroke="black" points="1004.58,-595.25 1004.58,-619 1058.5,-619 1058.5,-595.25 1004.58,-595.25"/>
<text text-anchor="start" x="1024.42" y="-601.7" font-family="arial" font-size="14.00">11</text>
<polygon fill="none" stroke="black" points="848.75,-571.5 848.75,-595.25 902.67,-595.25 902.67,-571.5 848.75,-571.5"/>
<text text-anchor="start" x="868.21" y="-577.95" font-family="arial" font-size="14.00">12</text>
<polygon fill="none" stroke="black" points="902.67,-571.5 902.67,-595.25 1004.58,-595.25 1004.58,-571.5 902.67,-571.5"/>
<text text-anchor="start" x="934.12" y="-577.95" font-family="arial" font-size="14.00">/Enc Z</text>
<polygon fill="none" stroke="black" points="1004.58,-571.5 1004.58,-595.25 1058.5,-595.25 1058.5,-571.5 1004.58,-571.5"/>
<text text-anchor="start" x="1024.04" y="-577.95" font-family="arial" font-size="14.00">12</text>
<polygon fill="none" stroke="black" points="848.75,-547.75 848.75,-571.5 902.67,-571.5 902.67,-547.75 848.75,-547.75"/>
<text text-anchor="start" x="871.96" y="-554.2" font-family="arial" font-size="14.00">5</text>
<polygon fill="none" stroke="black" points="902.67,-547.75 902.67,-571.5 1004.58,-571.5 1004.58,-547.75 902.67,-547.75"/>
<text text-anchor="start" x="927.75" y="-554.2" font-family="arial" font-size="14.00">+5V Enc</text>
<polygon fill="none" stroke="black" points="1004.58,-547.75 1004.58,-571.5 1058.5,-571.5 1058.5,-547.75 1004.58,-547.75"/>
<text text-anchor="start" x="1027.79" y="-554.2" font-family="arial" font-size="14.00">5</text>
<polygon fill="none" stroke="black" points="848.75,-524 848.75,-547.75 902.67,-547.75 902.67,-524 848.75,-524"/>
<text text-anchor="start" x="868.21" y="-530.45" font-family="arial" font-size="14.00">15</text>
<polygon fill="none" stroke="black" points="902.67,-524 902.67,-547.75 1004.58,-547.75 1004.58,-524 902.67,-524"/>
<text text-anchor="start" x="945.38" y="-530.45" font-family="arial" font-size="14.00">0V</text>
<polygon fill="none" stroke="black" points="1004.58,-524 1004.58,-547.75 1058.5,-547.75 1058.5,-524 1004.58,-524"/>
<text text-anchor="start" x="1024.04" y="-530.45" font-family="arial" font-size="14.00">15</text>
<polygon fill="none" stroke="black" points="848.75,-500.25 848.75,-524 902.67,-524 902.67,-500.25 848.75,-500.25"/>
<text text-anchor="start" x="871.96" y="-506.7" font-family="arial" font-size="14.00">9</text>
<polygon fill="none" stroke="black" points="902.67,-500.25 902.67,-524 1004.58,-524 1004.58,-500.25 902.67,-500.25"/>
<text text-anchor="start" x="932.62" y="-506.7" font-family="arial" font-size="14.00">Input A</text>
<polygon fill="none" stroke="black" points="1004.58,-500.25 1004.58,-524 1058.5,-524 1058.5,-500.25 1004.58,-500.25"/>
<text text-anchor="start" x="1027.79" y="-506.7" font-family="arial" font-size="14.00">9</text>
<polygon fill="none" stroke="black" points="848.75,-476.5 848.75,-500.25 902.67,-500.25 902.67,-476.5 848.75,-476.5"/>
<text text-anchor="start" x="868.21" y="-482.95" font-family="arial" font-size="14.00">20</text>
<polygon fill="none" stroke="black" points="902.67,-476.5 902.67,-500.25 1004.58,-500.25 1004.58,-476.5 902.67,-476.5"/>
<text text-anchor="start" x="932.25" y="-482.95" font-family="arial" font-size="14.00">Input B</text>
<polygon fill="none" stroke="black" points="1004.58,-476.5 1004.58,-500.25 1058.5,-500.25 1058.5,-476.5 1004.58,-476.5"/>
<text text-anchor="start" x="1024.04" y="-482.95" font-family="arial" font-size="14.00">20</text>
<polygon fill="none" stroke="black" points="848.75,-452.75 848.75,-476.5 902.67,-476.5 902.67,-452.75 848.75,-452.75"/>
<text text-anchor="start" x="868.21" y="-459.2" font-family="arial" font-size="14.00">10</text>
<polygon fill="none" stroke="black" points="902.67,-452.75 902.67,-476.5 1004.58,-476.5 1004.58,-452.75 902.67,-452.75"/>
<text text-anchor="start" x="922.12" y="-459.2" font-family="arial" font-size="14.00">Input Com</text>
<polygon fill="none" stroke="black" points="1004.58,-452.75 1004.58,-476.5 1058.5,-476.5 1058.5,-452.75 1004.58,-452.75"/>
<text text-anchor="start" x="1024.04" y="-459.2" font-family="arial" font-size="14.00">10</text>
<polygon fill="none" stroke="black" points="848.75,-429 848.75,-452.75 1058.5,-452.75 1058.5,-429 848.75,-429"/>
<text text-anchor="start" x="852.75" y="-435.45" font-family="arial" font-size="14.00">MC508 Encoder Port (ATYPE 76)</text>
</g>
<!-- ICOM -->
<g id="node11" class="node">
<title>ICOM</title>
<polygon fill="#ffffff" stroke="black" points="1531.75,-824.5 1209.25,-824.5 1209.25,-684 1531.75,-684 1531.75,-824.5"/>
<polygon fill="none" stroke="black" points="1209.25,-800.75 1209.25,-824.5 1531.75,-824.5 1531.75,-800.75 1209.25,-800.75"/>
<text text-anchor="start" x="1352.12" y="-807.2" font-family="arial" font-size="14.00">ICOM</text>
<polygon fill="none" stroke="black" points="1209.25,-777 1209.25,-800.75 1531.75,-800.75 1531.75,-777 1209.25,-777"/>
<text text-anchor="start" x="1363.38" y="-783.45" font-family="arial" font-size="14.00">1x</text>
<text text-anchor="start" x="1292.25" y="-761.7" font-family="arial" font-size="14.00"> </text>
<text text-anchor="start" x="1211.25" y="-741.95" font-family="arial" font-size="14.00">MC508_ENC:10:Input Com</text>
<text text-anchor="start" x="1381" y="-741.95" font-family="arial" font-size="14.00"> &#160;&#160;&#160;&#160;1:BK &#160;&#160;&#160;</text>
<text text-anchor="start" x="1448" y="-741.95" font-family="arial" font-size="14.00">EXT24V:2:0V</text>
<polygon fill="#000000" stroke="none" points="1209.25,-735.5 1209.25,-737.5 1531.75,-737.5 1531.75,-735.5 1209.25,-735.5"/>
<polygon fill="#000000" stroke="none" points="1209.25,-733.5 1209.25,-735.5 1531.75,-735.5 1531.75,-733.5 1209.25,-733.5"/>
<polygon fill="#000000" stroke="none" points="1209.25,-731.5 1209.25,-733.5 1531.75,-733.5 1531.75,-731.5 1209.25,-731.5"/>
<polygon fill="#000000" stroke="none" points="1209.25,-729.5 1209.25,-731.5 1531.75,-731.5 1531.75,-729.5 1209.25,-729.5"/>
<polygon fill="#000000" stroke="none" points="1209.25,-727.5 1209.25,-729.5 1531.75,-729.5 1531.75,-727.5 1209.25,-727.5"/>
<text text-anchor="start" x="1292.25" y="-712.2" font-family="arial" font-size="14.00"> </text>
<polygon fill="none" stroke="black" points="1209.25,-684 1209.25,-707.75 1531.75,-707.75 1531.75,-684 1209.25,-684"/>
<text text-anchor="start" x="1306" y="-690.45" font-family="arial" font-size="14.00">Input Com → 24V 0V</text>
</g>
<!-- MC508_ENC&#45;&#45;ICOM -->
<g id="edge25" class="edge">
<title>MC508_ENC:e&#45;&#45;ICOM:w</title>
<path fill="none" stroke="#000000" stroke-width="2" d="M1059.5,-460.63C1199.53,-466.29 1076.49,-734.17 1209.25,-728.5"/>
<path fill="none" stroke="#000000" stroke-width="2" d="M1059.5,-462.63C1197.71,-465.46 1074.67,-733.33 1209.25,-730.5"/>
<path fill="none" stroke="#000000" stroke-width="2" d="M1059.5,-464.62C1195.9,-464.62 1072.85,-732.5 1209.25,-732.5"/>
<path fill="none" stroke="#000000" stroke-width="2" d="M1059.5,-466.62C1194.08,-463.79 1071.04,-731.67 1209.25,-734.5"/>
<path fill="none" stroke="#000000" stroke-width="2" d="M1059.5,-468.62C1192.26,-462.96 1069.22,-730.83 1209.25,-736.5"/>
</g>
<!-- MIC2981 -->
<g id="node3" class="node">
<title>MIC2981</title>
<polygon fill="#ffffff" stroke="black" points="2775.75,-610.12 2525.5,-610.12 2525.5,-396.38 2775.75,-396.38 2775.75,-610.12"/>
<polygon fill="none" stroke="black" points="2525.5,-586.38 2525.5,-610.12 2775.75,-610.12 2775.75,-586.38 2525.5,-586.38"/>
<text text-anchor="start" x="2622.88" y="-592.83" font-family="arial" font-size="14.00">MIC2981</text>
<polygon fill="none" stroke="black" points="2525.5,-562.62 2525.5,-586.38 2656.62,-586.38 2656.62,-562.62 2525.5,-562.62"/>
<text text-anchor="start" x="2570.06" y="-569.08" font-family="arial" font-size="14.00">DIP&#45;18</text>
<polygon fill="none" stroke="black" points="2656.62,-562.62 2656.62,-586.38 2775.75,-586.38 2775.75,-562.62 2656.62,-562.62"/>
<text text-anchor="start" x="2701.19" y="-569.08" font-family="arial" font-size="14.00">6&#45;pin</text>
<polygon fill="none" stroke="black" points="2525.5,-538.88 2525.5,-562.62 2596.67,-562.62 2596.67,-538.88 2525.5,-538.88"/>
<text text-anchor="start" x="2557.33" y="-545.33" font-family="arial" font-size="14.00">1</text>
<polygon fill="none" stroke="black" points="2596.67,-538.88 2596.67,-562.62 2704.58,-562.62 2704.58,-538.88 2596.67,-538.88"/>
<text text-anchor="start" x="2630.38" y="-545.33" font-family="arial" font-size="14.00">In Fwd</text>
<polygon fill="none" stroke="black" points="2704.58,-538.88 2704.58,-562.62 2775.75,-562.62 2775.75,-538.88 2704.58,-538.88"/>
<text text-anchor="start" x="2736.42" y="-545.33" font-family="arial" font-size="14.00">1</text>
<polygon fill="none" stroke="black" points="2525.5,-515.12 2525.5,-538.88 2596.67,-538.88 2596.67,-515.12 2525.5,-515.12"/>
<text text-anchor="start" x="2557.33" y="-521.58" font-family="arial" font-size="14.00">2</text>
<polygon fill="none" stroke="black" points="2596.67,-515.12 2596.67,-538.88 2704.58,-538.88 2704.58,-515.12 2596.67,-515.12"/>
<text text-anchor="start" x="2631.12" y="-521.58" font-family="arial" font-size="14.00">In Rev</text>
<polygon fill="none" stroke="black" points="2704.58,-515.12 2704.58,-538.88 2775.75,-538.88 2775.75,-515.12 2704.58,-515.12"/>
<text text-anchor="start" x="2736.42" y="-521.58" font-family="arial" font-size="14.00">2</text>
<polygon fill="none" stroke="black" points="2525.5,-491.38 2525.5,-515.12 2596.67,-515.12 2596.67,-491.38 2525.5,-491.38"/>
<text text-anchor="start" x="2557.33" y="-497.82" font-family="arial" font-size="14.00">9</text>
<polygon fill="none" stroke="black" points="2596.67,-491.38 2596.67,-515.12 2704.58,-515.12 2704.58,-491.38 2596.67,-491.38"/>
<text text-anchor="start" x="2642.75" y="-497.82" font-family="arial" font-size="14.00">Vs</text>
<polygon fill="none" stroke="black" points="2704.58,-491.38 2704.58,-515.12 2775.75,-515.12 2775.75,-491.38 2704.58,-491.38"/>
<text text-anchor="start" x="2736.42" y="-497.82" font-family="arial" font-size="14.00">9</text>
<polygon fill="none" stroke="black" points="2525.5,-467.62 2525.5,-491.38 2596.67,-491.38 2596.67,-467.62 2525.5,-467.62"/>
<text text-anchor="start" x="2553.58" y="-474.07" font-family="arial" font-size="14.00">10</text>
<polygon fill="none" stroke="black" points="2596.67,-467.62 2596.67,-491.38 2704.58,-491.38 2704.58,-467.62 2596.67,-467.62"/>
<text text-anchor="start" x="2635.25" y="-474.07" font-family="arial" font-size="14.00">GND</text>
<polygon fill="none" stroke="black" points="2704.58,-467.62 2704.58,-491.38 2775.75,-491.38 2775.75,-467.62 2704.58,-467.62"/>
<text text-anchor="start" x="2732.67" y="-474.07" font-family="arial" font-size="14.00">10</text>
<polygon fill="none" stroke="black" points="2525.5,-443.88 2525.5,-467.62 2596.67,-467.62 2596.67,-443.88 2525.5,-443.88"/>
<text text-anchor="start" x="2553.96" y="-450.32" font-family="arial" font-size="14.00">11</text>
<polygon fill="none" stroke="black" points="2596.67,-443.88 2596.67,-467.62 2704.58,-467.62 2704.58,-443.88 2596.67,-443.88"/>
<text text-anchor="start" x="2624.75" y="-450.32" font-family="arial" font-size="14.00">Out Fwd</text>
<polygon fill="none" stroke="black" points="2704.58,-443.88 2704.58,-467.62 2775.75,-467.62 2775.75,-443.88 2704.58,-443.88"/>
<text text-anchor="start" x="2733.04" y="-450.32" font-family="arial" font-size="14.00">11</text>
<polygon fill="none" stroke="black" points="2525.5,-420.12 2525.5,-443.88 2596.67,-443.88 2596.67,-420.12 2525.5,-420.12"/>
<text text-anchor="start" x="2553.58" y="-426.57" font-family="arial" font-size="14.00">18</text>
<polygon fill="none" stroke="black" points="2596.67,-420.12 2596.67,-443.88 2704.58,-443.88 2704.58,-420.12 2596.67,-420.12"/>
<text text-anchor="start" x="2625.5" y="-426.57" font-family="arial" font-size="14.00">Out Rev</text>
<polygon fill="none" stroke="black" points="2704.58,-420.12 2704.58,-443.88 2775.75,-443.88 2775.75,-420.12 2704.58,-420.12"/>
<text text-anchor="start" x="2732.67" y="-426.57" font-family="arial" font-size="14.00">18</text>
<polygon fill="none" stroke="black" points="2525.5,-396.38 2525.5,-420.12 2775.75,-420.12 2775.75,-396.38 2525.5,-396.38"/>
<text text-anchor="start" x="2529.5" y="-402.82" font-family="arial" font-size="14.00">MIC2981/82YN High&#45;Side Source Driver</text>
</g>
<!-- UFWD -->
<g id="node9" class="node">
<title>UFWD</title>
<polygon fill="#ffffff" stroke="black" points="3277.88,-621.5 2934.38,-621.5 2934.38,-481 3277.88,-481 3277.88,-621.5"/>
<polygon fill="none" stroke="black" points="2934.38,-597.75 2934.38,-621.5 3277.88,-621.5 3277.88,-597.75 2934.38,-597.75"/>
<text text-anchor="start" x="3085.5" y="-604.2" font-family="arial" font-size="14.00">UFWD</text>
<polygon fill="none" stroke="black" points="2934.38,-574 2934.38,-597.75 3277.88,-597.75 3277.88,-574 2934.38,-574"/>
<text text-anchor="start" x="3099" y="-580.45" font-family="arial" font-size="14.00">1x</text>
<text text-anchor="start" x="2999" y="-558.7" font-family="arial" font-size="14.00"> </text>
<text text-anchor="start" x="2936.38" y="-538.95" font-family="arial" font-size="14.00">MIC2981:11:Out Fwd</text>
<text text-anchor="start" x="3069.38" y="-538.95" font-family="arial" font-size="14.00"> &#160;&#160;&#160;&#160;1:GY &#160;&#160;&#160;</text>
<text text-anchor="start" x="3138.62" y="-538.95" font-family="arial" font-size="14.00">MC508_ENC:9:Input A</text>
<polygon fill="#000000" stroke="none" points="2934.38,-532.5 2934.38,-534.5 3277.88,-534.5 3277.88,-532.5 2934.38,-532.5"/>
<polygon fill="#999999" stroke="none" points="2934.38,-530.5 2934.38,-532.5 3277.88,-532.5 3277.88,-530.5 2934.38,-530.5"/>
<polygon fill="#999999" stroke="none" points="2934.38,-528.5 2934.38,-530.5 3277.88,-530.5 3277.88,-528.5 2934.38,-528.5"/>
<polygon fill="#999999" stroke="none" points="2934.38,-526.5 2934.38,-528.5 3277.88,-528.5 3277.88,-526.5 2934.38,-526.5"/>
<polygon fill="#000000" stroke="none" points="2934.38,-524.5 2934.38,-526.5 3277.88,-526.5 3277.88,-524.5 2934.38,-524.5"/>
<text text-anchor="start" x="2999" y="-509.2" font-family="arial" font-size="14.00"> </text>
<polygon fill="none" stroke="black" points="2934.38,-481 2934.38,-504.75 3277.88,-504.75 3277.88,-481 2934.38,-481"/>
<text text-anchor="start" x="3011.25" y="-487.45" font-family="arial" font-size="14.00">MIC2981 out → MC508 Input A</text>
</g>
<!-- MIC2981&#45;&#45;UFWD -->
<g id="edge21" class="edge">
<title>MIC2981:e&#45;&#45;UFWD:w</title>
<path fill="none" stroke="#000000" stroke-width="2" d="M2775.75,-451.75C2857.09,-455.59 2860.03,-529.34 2933.38,-525.5"/>
<path fill="none" stroke="#999999" stroke-width="2" d="M2775.75,-453.75C2855.09,-455.67 2858.03,-529.42 2933.38,-527.5"/>
<path fill="none" stroke="#999999" stroke-width="2" d="M2775.75,-455.75C2853.09,-455.75 2856.03,-529.5 2933.38,-529.5"/>
<path fill="none" stroke="#999999" stroke-width="2" d="M2775.75,-457.75C2851.1,-455.83 2854.03,-529.58 2933.38,-531.5"/>
<path fill="none" stroke="#000000" stroke-width="2" d="M2775.75,-459.75C2849.1,-455.91 2852.03,-529.66 2933.38,-533.5"/>
</g>
<!-- UREV -->
<g id="node10" class="node">
<title>UREV</title>
<polygon fill="#ffffff" stroke="black" points="3292.5,-454.5 2919.75,-454.5 2919.75,-314 3292.5,-314 3292.5,-454.5"/>
<polygon fill="none" stroke="black" points="2919.75,-430.75 2919.75,-454.5 3292.5,-454.5 3292.5,-430.75 2919.75,-430.75"/>
<text text-anchor="start" x="3087.38" y="-437.2" font-family="arial" font-size="14.00">UREV</text>
<polygon fill="none" stroke="black" points="2919.75,-407 2919.75,-430.75 3292.5,-430.75 3292.5,-407 2919.75,-407"/>
<text text-anchor="start" x="3099" y="-413.45" font-family="arial" font-size="14.00">1x</text>
<text text-anchor="start" x="2984" y="-391.7" font-family="arial" font-size="14.00"> </text>
<text text-anchor="start" x="2921.75" y="-371.95" font-family="arial" font-size="14.00">MIC2981:18:Out Rev</text>
<text text-anchor="start" x="3054" y="-371.95" font-family="arial" font-size="14.00"> &#160;&#160;&#160;&#160;1:WHBU &#160;&#160;&#160;</text>
<text text-anchor="start" x="3145" y="-371.95" font-family="arial" font-size="14.00">MC508_ENC:20:Input B</text>
<polygon fill="#000000" stroke="none" points="2919.75,-365.5 2919.75,-367.5 3292.5,-367.5 3292.5,-365.5 2919.75,-365.5"/>
<polygon fill="#ffffff" stroke="none" points="2919.75,-363.5 2919.75,-365.5 3292.5,-365.5 3292.5,-363.5 2919.75,-363.5"/>
<polygon fill="#0066ff" stroke="none" points="2919.75,-361.5 2919.75,-363.5 3292.5,-363.5 3292.5,-361.5 2919.75,-361.5"/>
<polygon fill="#ffffff" stroke="none" points="2919.75,-359.5 2919.75,-361.5 3292.5,-361.5 3292.5,-359.5 2919.75,-359.5"/>
<polygon fill="#000000" stroke="none" points="2919.75,-357.5 2919.75,-359.5 3292.5,-359.5 3292.5,-357.5 2919.75,-357.5"/>
<text text-anchor="start" x="2984" y="-342.2" font-family="arial" font-size="14.00"> </text>
<polygon fill="none" stroke="black" points="2919.75,-314 2919.75,-337.75 3292.5,-337.75 3292.5,-314 2919.75,-314"/>
<text text-anchor="start" x="3010.88" y="-320.45" font-family="arial" font-size="14.00">MIC2981 out → MC508 Input B</text>
</g>
<!-- MIC2981&#45;&#45;UREV -->
<g id="edge23" class="edge">
<title>MIC2981:e&#45;&#45;UREV:w</title>
<path fill="none" stroke="#000000" stroke-width="2" d="M2775.75,-428C2842.82,-431.89 2844.69,-362.39 2919.75,-358.5"/>
<path fill="none" stroke="#ffffff" stroke-width="2" d="M2775.75,-430C2844.81,-431.95 2846.69,-362.45 2919.75,-360.5"/>
<path fill="none" stroke="#0066ff" stroke-width="2" d="M2775.75,-432C2846.81,-432 2848.69,-362.5 2919.75,-362.5"/>
<path fill="none" stroke="#ffffff" stroke-width="2" d="M2775.75,-434C2848.81,-432.05 2850.69,-362.55 2919.75,-364.5"/>
<path fill="none" stroke="#000000" stroke-width="2" d="M2775.75,-436C2850.81,-432.11 2852.68,-362.61 2919.75,-366.5"/>
</g>
<!-- UGND -->
<g id="node13" class="node">
<title>UGND</title>
<polygon fill="#ffffff" stroke="black" points="3238.88,-787.5 2973.38,-787.5 2973.38,-647 3238.88,-647 3238.88,-787.5"/>
<polygon fill="none" stroke="black" points="2973.38,-763.75 2973.38,-787.5 3238.88,-787.5 3238.88,-763.75 2973.38,-763.75"/>
<text text-anchor="start" x="3085.88" y="-770.2" font-family="arial" font-size="14.00">UGND</text>
<polygon fill="none" stroke="black" points="2973.38,-740 2973.38,-763.75 3238.88,-763.75 3238.88,-740 2973.38,-740"/>
<text text-anchor="start" x="3099" y="-746.45" font-family="arial" font-size="14.00">1x</text>
<text text-anchor="start" x="3027.88" y="-724.7" font-family="arial" font-size="14.00"> </text>
<text text-anchor="start" x="2975.38" y="-704.95" font-family="arial" font-size="14.00">MIC2981:10:GND</text>
<text text-anchor="start" x="3088.12" y="-704.95" font-family="arial" font-size="14.00"> &#160;&#160;&#160;&#160;1:BK &#160;&#160;&#160;</text>
<text text-anchor="start" x="3155.12" y="-704.95" font-family="arial" font-size="14.00">EXT24V:2:0V</text>
<polygon fill="#000000" stroke="none" points="2973.38,-698.5 2973.38,-700.5 3238.88,-700.5 3238.88,-698.5 2973.38,-698.5"/>
<polygon fill="#000000" stroke="none" points="2973.38,-696.5 2973.38,-698.5 3238.88,-698.5 3238.88,-696.5 2973.38,-696.5"/>
<polygon fill="#000000" stroke="none" points="2973.38,-694.5 2973.38,-696.5 3238.88,-696.5 3238.88,-694.5 2973.38,-694.5"/>
<polygon fill="#000000" stroke="none" points="2973.38,-692.5 2973.38,-694.5 3238.88,-694.5 3238.88,-692.5 2973.38,-692.5"/>
<polygon fill="#000000" stroke="none" points="2973.38,-690.5 2973.38,-692.5 3238.88,-692.5 3238.88,-690.5 2973.38,-690.5"/>
<text text-anchor="start" x="3027.88" y="-675.2" font-family="arial" font-size="14.00"> </text>
<polygon fill="none" stroke="black" points="2973.38,-647 2973.38,-670.75 3238.88,-670.75 3238.88,-647 2973.38,-647"/>
<text text-anchor="start" x="3028.12" y="-653.45" font-family="arial" font-size="14.00">MIC2981 GND → 24V 0V</text>
</g>
<!-- MIC2981&#45;&#45;UGND -->
<g id="edge29" class="edge">
<title>MIC2981:e&#45;&#45;UGND:w</title>
<path fill="none" stroke="#000000" stroke-width="2" d="M2775.75,-475.5C2909.41,-480.62 2846.4,-696.62 2972.38,-691.5"/>
<path fill="none" stroke="#000000" stroke-width="2" d="M2775.75,-477.5C2907.49,-480.06 2844.48,-696.06 2972.38,-693.5"/>
<path fill="none" stroke="#000000" stroke-width="2" d="M2775.75,-479.5C2905.57,-479.5 2842.56,-695.5 2972.38,-695.5"/>
<path fill="none" stroke="#000000" stroke-width="2" d="M2775.75,-481.5C2903.65,-478.94 2840.64,-694.94 2972.38,-697.5"/>
<path fill="none" stroke="#000000" stroke-width="2" d="M2775.75,-483.5C2901.73,-478.38 2838.72,-694.38 2972.38,-699.5"/>
</g>
<!-- EXT24V -->
<g id="node4" class="node">
<title>EXT24V</title>
<polygon fill="#ffffff" stroke="black" points="1919,-815.62 1734,-815.62 1734,-696.88 1919,-696.88 1919,-815.62"/>
<polygon fill="none" stroke="black" points="1734,-791.88 1734,-815.62 1919,-815.62 1919,-791.88 1734,-791.88"/>
<text text-anchor="start" x="1801.38" y="-798.33" font-family="arial" font-size="14.00">EXT24V</text>
<polygon fill="none" stroke="black" points="1734,-768.12 1734,-791.88 1853.12,-791.88 1853.12,-768.12 1734,-768.12"/>
<text text-anchor="start" x="1751.94" y="-774.58" font-family="arial" font-size="14.00">Power Supply</text>
<polygon fill="none" stroke="black" points="1853.12,-768.12 1853.12,-791.88 1919,-791.88 1919,-768.12 1853.12,-768.12"/>
<text text-anchor="start" x="1871.06" y="-774.58" font-family="arial" font-size="14.00">2&#45;pin</text>
<polygon fill="none" stroke="black" points="1734,-744.38 1734,-768.12 1787.42,-768.12 1787.42,-744.38 1734,-744.38"/>
<text text-anchor="start" x="1756.96" y="-750.83" font-family="arial" font-size="14.00">1</text>
<polygon fill="none" stroke="black" points="1787.42,-744.38 1787.42,-768.12 1865.58,-768.12 1865.58,-744.38 1787.42,-744.38"/>
<text text-anchor="start" x="1810.38" y="-750.83" font-family="arial" font-size="14.00">+24V</text>
<polygon fill="none" stroke="black" points="1865.58,-744.38 1865.58,-768.12 1919,-768.12 1919,-744.38 1865.58,-744.38"/>
<text text-anchor="start" x="1888.54" y="-750.83" font-family="arial" font-size="14.00">1</text>
<polygon fill="none" stroke="black" points="1734,-720.62 1734,-744.38 1787.42,-744.38 1787.42,-720.62 1734,-720.62"/>
<text text-anchor="start" x="1756.96" y="-727.08" font-family="arial" font-size="14.00">2</text>
<polygon fill="none" stroke="black" points="1787.42,-720.62 1787.42,-744.38 1865.58,-744.38 1865.58,-720.62 1787.42,-720.62"/>
<text text-anchor="start" x="1818.25" y="-727.08" font-family="arial" font-size="14.00">0V</text>
<polygon fill="none" stroke="black" points="1865.58,-720.62 1865.58,-744.38 1919,-744.38 1919,-720.62 1865.58,-720.62"/>
<text text-anchor="start" x="1888.54" y="-727.08" font-family="arial" font-size="14.00">2</text>
<polygon fill="none" stroke="black" points="1734,-696.88 1734,-720.62 1919,-720.62 1919,-696.88 1734,-696.88"/>
<text text-anchor="start" x="1738" y="-703.33" font-family="arial" font-size="14.00">External 24V (MC508 supply)</text>
</g>
<!-- V24 -->
<g id="node12" class="node">
<title>V24</title>
<polygon fill="#ffffff" stroke="black" points="2381.5,-874.5 2121.25,-874.5 2121.25,-734 2381.5,-734 2381.5,-874.5"/>
<polygon fill="none" stroke="black" points="2121.25,-850.75 2121.25,-874.5 2381.5,-874.5 2381.5,-850.75 2121.25,-850.75"/>
<text text-anchor="start" x="2239.38" y="-857.2" font-family="arial" font-size="14.00">V24</text>
<polygon fill="none" stroke="black" points="2121.25,-827 2121.25,-850.75 2381.5,-850.75 2381.5,-827 2121.25,-827"/>
<text text-anchor="start" x="2244.25" y="-833.45" font-family="arial" font-size="14.00">1x</text>
<text text-anchor="start" x="2170.12" y="-811.7" font-family="arial" font-size="14.00"> </text>
<text text-anchor="start" x="2123.25" y="-791.95" font-family="arial" font-size="14.00">EXT24V:1:+24V</text>
<text text-anchor="start" x="2224.75" y="-791.95" font-family="arial" font-size="14.00"> &#160;&#160;&#160;&#160;1:RD &#160;&#160;&#160;</text>
<text text-anchor="start" x="2293.25" y="-791.95" font-family="arial" font-size="14.00">MIC2981:9:Vs</text>
<polygon fill="#000000" stroke="none" points="2121.25,-785.5 2121.25,-787.5 2381.5,-787.5 2381.5,-785.5 2121.25,-785.5"/>
<polygon fill="#ff0000" stroke="none" points="2121.25,-783.5 2121.25,-785.5 2381.5,-785.5 2381.5,-783.5 2121.25,-783.5"/>
<polygon fill="#ff0000" stroke="none" points="2121.25,-781.5 2121.25,-783.5 2381.5,-783.5 2381.5,-781.5 2121.25,-781.5"/>
<polygon fill="#ff0000" stroke="none" points="2121.25,-779.5 2121.25,-781.5 2381.5,-781.5 2381.5,-779.5 2121.25,-779.5"/>
<polygon fill="#000000" stroke="none" points="2121.25,-777.5 2121.25,-779.5 2381.5,-779.5 2381.5,-777.5 2121.25,-777.5"/>
<text text-anchor="start" x="2170.12" y="-762.2" font-family="arial" font-size="14.00"> </text>
<polygon fill="none" stroke="black" points="2121.25,-734 2121.25,-757.75 2381.5,-757.75 2381.5,-734 2121.25,-734"/>
<text text-anchor="start" x="2186.88" y="-740.45" font-family="arial" font-size="14.00">+24V → MIC2981 Vs</text>
</g>
<!-- EXT24V&#45;&#45;V24 -->
<g id="edge27" class="edge">
<title>EXT24V:e&#45;&#45;V24:w</title>
<path fill="none" stroke="#000000" stroke-width="2" d="M1920,-752.25C2013.33,-753.76 2034.18,-780.01 2121.25,-778.5"/>
<path fill="none" stroke="#ff0000" stroke-width="2" d="M1920,-754.25C2011.77,-755.01 2032.61,-781.26 2121.25,-780.5"/>
<path fill="none" stroke="#ff0000" stroke-width="2" d="M1920,-756.25C2010.2,-756.25 2031.05,-782.5 2121.25,-782.5"/>
<path fill="none" stroke="#ff0000" stroke-width="2" d="M1920,-758.25C2008.64,-757.49 2029.48,-783.74 2121.25,-784.5"/>
<path fill="none" stroke="#000000" stroke-width="2" d="M1920,-760.25C2007.07,-758.74 2027.92,-784.99 2121.25,-786.5"/>
</g>
<!-- EXT5V -->
<g id="node5" class="node">
<title>EXT5V</title>
<polygon fill="#ffffff" stroke="black" points="1065.25,-202.62 842,-202.62 842,-83.88 1065.25,-83.88 1065.25,-202.62"/>
<polygon fill="none" stroke="black" points="842,-178.88 842,-202.62 1065.25,-202.62 1065.25,-178.88 842,-178.88"/>
<text text-anchor="start" x="932.25" y="-185.32" font-family="arial" font-size="14.00">EXT5V</text>
<polygon fill="none" stroke="black" points="842,-155.12 842,-178.88 980.25,-178.88 980.25,-155.12 842,-155.12"/>
<text text-anchor="start" x="869.5" y="-161.57" font-family="arial" font-size="14.00">Power Supply</text>
<polygon fill="none" stroke="black" points="980.25,-155.12 980.25,-178.88 1065.25,-178.88 1065.25,-155.12 980.25,-155.12"/>
<text text-anchor="start" x="1007.75" y="-161.57" font-family="arial" font-size="14.00">2&#45;pin</text>
<polygon fill="none" stroke="black" points="842,-131.38 842,-155.12 942,-155.12 942,-131.38 842,-131.38"/>
<text text-anchor="start" x="888.25" y="-137.82" font-family="arial" font-size="14.00">1</text>
<polygon fill="none" stroke="black" points="942,-131.38 942,-155.12 1065.25,-155.12 1065.25,-131.38 942,-131.38"/>
<text text-anchor="start" x="991.25" y="-137.82" font-family="arial" font-size="14.00">+5V</text>
<polygon fill="none" stroke="black" points="842,-107.62 842,-131.38 942,-131.38 942,-107.62 842,-107.62"/>
<text text-anchor="start" x="888.25" y="-114.08" font-family="arial" font-size="14.00">2</text>
<polygon fill="none" stroke="black" points="942,-107.62 942,-131.38 1065.25,-131.38 1065.25,-107.62 942,-107.62"/>
<text text-anchor="start" x="988.25" y="-114.08" font-family="arial" font-size="14.00">GND</text>
<polygon fill="none" stroke="black" points="842,-83.88 842,-107.62 1065.25,-107.62 1065.25,-83.88 842,-83.88"/>
<text text-anchor="start" x="846" y="-90.33" font-family="arial" font-size="14.00">External 5V (opto&#45;interrupter power)</text>
</g>
<!-- ENC&#45;&#45;MC508_ENC -->
<g id="edge2" class="edge">
<title>ENC:e&#45;&#45;MC508_ENC:w</title>
<path fill="none" stroke="#000000" stroke-width="2" d="M698,-706.63C762.82,-707.07 779.25,-698.57 847.75,-698.13"/>
<path fill="none" stroke="#000000" stroke-width="2" d="M698,-708.63C763.74,-708.85 780.17,-700.35 847.75,-700.13"/>
<path fill="none" stroke="#000000" stroke-width="2" d="M698,-710.62C764.66,-710.63 781.09,-702.13 847.75,-702.12"/>
<path fill="none" stroke="#000000" stroke-width="2" d="M698,-712.62C765.58,-712.4 782.01,-703.9 847.75,-704.12"/>
<path fill="none" stroke="#000000" stroke-width="2" d="M698,-714.62C766.5,-714.18 782.93,-705.68 847.75,-706.12"/>
</g>
<!-- ENC&#45;&#45;MC508_ENC -->
<g id="edge4" class="edge">
<title>ENC:e&#45;&#45;MC508_ENC:w</title>
<path fill="none" stroke="#000000" stroke-width="2" d="M698,-676.88C763.97,-676.92 780.59,-674.42 847.75,-674.38"/>
<path fill="none" stroke="#895956" stroke-width="2" d="M698,-678.88C764.27,-678.9 780.89,-676.4 847.75,-676.38"/>
<path fill="none" stroke="#895956" stroke-width="2" d="M698,-680.88C764.56,-680.88 781.19,-678.38 847.75,-678.38"/>
<path fill="none" stroke="#895956" stroke-width="2" d="M698,-682.87C764.86,-682.85 781.48,-680.35 847.75,-680.37"/>
<path fill="none" stroke="#000000" stroke-width="2" d="M698,-684.87C765.16,-684.83 781.78,-682.33 847.75,-682.37"/>
</g>
<!-- ENC&#45;&#45;MC508_ENC -->
<g id="edge6" class="edge">
<title>ENC:e&#45;&#45;MC508_ENC:w</title>
<path fill="none" stroke="#000000" stroke-width="2" d="M698,-647.13C765.4,-647.21 782,-650.71 847.75,-650.63"/>
<path fill="none" stroke="#ff0000" stroke-width="2" d="M698,-649.13C764.99,-649.17 781.59,-652.67 847.75,-652.63"/>
<path fill="none" stroke="#ff0000" stroke-width="2" d="M698,-651.12C764.57,-651.12 781.18,-654.62 847.75,-654.62"/>
<path fill="none" stroke="#ff0000" stroke-width="2" d="M698,-653.12C764.16,-653.08 780.76,-656.58 847.75,-656.62"/>
<path fill="none" stroke="#000000" stroke-width="2" d="M698,-655.12C763.75,-655.04 780.35,-658.54 847.75,-658.62"/>
</g>
<!-- ENC&#45;&#45;MC508_ENC -->
<g id="edge8" class="edge">
<title>ENC:e&#45;&#45;MC508_ENC:w</title>
<path fill="none" stroke="#000000" stroke-width="2" d="M698,-617.38C766.7,-617.92 783.07,-627.42 847.75,-626.88"/>
<path fill="none" stroke="#ff8000" stroke-width="2" d="M698,-619.38C765.69,-619.65 782.06,-629.15 847.75,-628.88"/>
<path fill="none" stroke="#ff8000" stroke-width="2" d="M698,-621.38C764.69,-621.38 781.06,-630.88 847.75,-630.88"/>
<path fill="none" stroke="#ff8000" stroke-width="2" d="M698,-623.37C763.69,-623.1 780.06,-632.6 847.75,-632.87"/>
<path fill="none" stroke="#000000" stroke-width="2" d="M698,-625.37C762.68,-624.83 779.05,-634.33 847.75,-634.87"/>
</g>
<!-- ENC&#45;&#45;MC508_ENC -->
<g id="edge10" class="edge">
<title>ENC:e&#45;&#45;MC508_ENC:w</title>
<path fill="none" stroke="#000000" stroke-width="2" d="M698,-587.63C767.7,-588.76 783.63,-604.26 847.75,-603.13"/>
<path fill="none" stroke="#90ee90" stroke-width="2" d="M698,-589.63C766.31,-590.19 782.23,-605.69 847.75,-605.13"/>
<path fill="none" stroke="#90ee90" stroke-width="2" d="M698,-591.62C764.91,-591.62 780.84,-607.12 847.75,-607.12"/>
<path fill="none" stroke="#90ee90" stroke-width="2" d="M698,-593.62C763.52,-593.06 779.44,-608.56 847.75,-609.12"/>
<path fill="none" stroke="#000000" stroke-width="2" d="M698,-595.62C762.12,-594.49 778.05,-609.99 847.75,-611.12"/>
</g>
<!-- ENC&#45;&#45;MC508_ENC -->
<g id="edge12" class="edge">
<title>ENC:e&#45;&#45;MC508_ENC:w</title>
<path fill="none" stroke="#000000" stroke-width="2" d="M698,-557.88C768.5,-559.56 783.77,-581.06 847.75,-579.38"/>
<path fill="none" stroke="#a0dfff" stroke-width="2" d="M698,-559.88C766.87,-560.72 782.14,-582.22 847.75,-581.38"/>
<path fill="none" stroke="#a0dfff" stroke-width="2" d="M698,-561.88C765.24,-561.88 780.51,-583.38 847.75,-583.38"/>
<path fill="none" stroke="#a0dfff" stroke-width="2" d="M698,-563.87C763.61,-563.03 778.88,-584.53 847.75,-585.37"/>
<path fill="none" stroke="#000000" stroke-width="2" d="M698,-565.87C761.98,-564.19 777.25,-585.69 847.75,-587.37"/>
</g>
<!-- ENC&#45;&#45;MC508_ENC -->
<g id="edge14" class="edge">
<title>ENC:e&#45;&#45;MC508_ENC:w</title>
<path fill="none" stroke="#000000" stroke-width="2" d="M698,-528.13C769.21,-530.27 783.62,-557.77 847.75,-555.63"/>
<path fill="none" stroke="#ffff00" stroke-width="2" d="M698,-530.13C767.44,-531.2 781.85,-558.7 847.75,-557.63"/>
<path fill="none" stroke="#ffff00" stroke-width="2" d="M698,-532.13C765.67,-532.12 780.08,-559.62 847.75,-559.63"/>
<path fill="none" stroke="#ffff00" stroke-width="2" d="M698,-534.12C763.9,-533.05 778.31,-560.55 847.75,-561.62"/>
<path fill="none" stroke="#000000" stroke-width="2" d="M698,-536.12C762.13,-533.98 776.54,-561.48 847.75,-563.62"/>
</g>
<!-- ENC&#45;&#45;MC508_ENC -->
<g id="edge16" class="edge">
<title>ENC:e&#45;&#45;MC508_ENC:w</title>
<path fill="none" stroke="#000000" stroke-width="2" d="M698,-498.38C769.92,-500.89 783.27,-534.39 847.75,-531.88"/>
<path fill="none" stroke="#ffffff" stroke-width="2" d="M698,-500.38C768.06,-501.63 781.41,-535.13 847.75,-533.88"/>
<path fill="none" stroke="#895956" stroke-width="2" d="M698,-502.38C766.2,-502.38 779.55,-535.88 847.75,-535.87"/>
<path fill="none" stroke="#ffffff" stroke-width="2" d="M698,-504.37C764.34,-503.12 777.69,-536.62 847.75,-537.87"/>
<path fill="none" stroke="#000000" stroke-width="2" d="M698,-506.37C762.48,-503.86 775.83,-537.36 847.75,-539.87"/>
</g>
<!-- LFWD&#45;&#45;MIC2981 -->
<g id="edge18" class="edge">
<title>LFWD:e&#45;&#45;MIC2981:w</title>
<path fill="none" stroke="#000000" stroke-width="2" d="M1977.25,-345.5C2240.77,-348.93 2269.89,-550.18 2525.5,-546.75"/>
<path fill="none" stroke="#0066ff" stroke-width="2" d="M1977.25,-347.5C2238.79,-349.21 2267.91,-550.46 2525.5,-548.75"/>
<path fill="none" stroke="#0066ff" stroke-width="2" d="M1977.25,-349.5C2236.81,-349.5 2265.94,-550.75 2525.5,-550.75"/>
<path fill="none" stroke="#0066ff" stroke-width="2" d="M1977.25,-351.5C2234.84,-349.79 2263.96,-551.04 2525.5,-552.75"/>
<path fill="none" stroke="#000000" stroke-width="2" d="M1977.25,-353.5C2232.86,-350.07 2261.98,-551.32 2525.5,-554.75"/>
</g>
<!-- LREV&#45;&#45;MIC2981 -->
<g id="edge20" class="edge">
<title>LREV:e&#45;&#45;MIC2981:w</title>
<path fill="none" stroke="#000000" stroke-width="2" d="M1521.12,-259.5C1904.56,-260.03 2043.48,-179.97 2383.46,-368.76 2467.24,-419.4 2435.39,-528.12 2525.5,-523"/>
<path fill="none" stroke="#ff0000" stroke-width="2" d="M1521.12,-261.5C1905.56,-261.77 2044.48,-181.71 2382.48,-370.51 2465.32,-418.83 2433.47,-527.56 2525.5,-525"/>
<path fill="none" stroke="#ff0000" stroke-width="2" d="M1521.12,-263.5C1906.56,-263.5 2045.48,-183.44 2381.5,-372.25 2463.4,-418.27 2431.55,-527 2525.5,-527"/>
<path fill="none" stroke="#ff0000" stroke-width="2" d="M1521.12,-265.5C1907.56,-265.23 2046.48,-185.17 2380.52,-373.99 2461.49,-417.71 2429.63,-526.44 2525.5,-529"/>
<path fill="none" stroke="#000000" stroke-width="2" d="M1521.12,-267.5C1908.55,-266.97 2047.48,-186.91 2379.54,-375.74 2459.57,-417.15 2427.71,-525.88 2525.5,-531"/>
</g>
<!-- UFWD&#45;&#45;MC508_ENC -->
<g id="edge22" class="edge">
<title>UFWD:e&#45;&#45;MC508_ENC:w</title>
<path fill="none" stroke="#000000" stroke-width="2" d="M3278.88,-525.5C3296.52,-530.34 3289.37,-496.93 3275.08,-483.86 3250.8,-458.29 2970.23,-471.42 2935.8,-484.74 2850.05,-513.67 2867.04,-585.65 2777.26,-625.95 2667.7,-670.25 2368.56,-651.24 2252.38,-651.25 1825.5,-651.25 1825.5,-651.25 1825.5,-651.25 1541.01,-650.29 1473.15,-592.15 1207.95,-501.03 1135.91,-474.52 1126.59,-445.75 1057.66,-432.91 1012.25,-423.11 881.22,-400.18 851.56,-431.85 826.39,-455.77 814.72,-512.92 847.75,-508.13"/>
<path fill="none" stroke="#999999" stroke-width="2" d="M3278.88,-527.5C3298.48,-529.92 3291.32,-496.51 3276.48,-482.43 3250.7,-456.29 2970.14,-469.42 2935.09,-482.87 2848.1,-514.13 2865.09,-586.11 2776.51,-624.1 2667.82,-668.26 2368.69,-649.25 2252.38,-649.25 1825.5,-649.25 1825.5,-649.25 1825.5,-649.25 1542.31,-648.77 1474.45,-590.63 1208.6,-499.14 1137.82,-473.9 1128.49,-445.13 1058.08,-430.95 1012.59,-421.14 881.56,-398.21 850.16,-430.42 824.43,-455.37 812.76,-512.52 847.75,-510.13"/>
<path fill="none" stroke="#999999" stroke-width="2" d="M3278.88,-529.5C3300.44,-529.5 3293.28,-496.09 3277.87,-481 3250.61,-454.29 2970.04,-467.42 2934.37,-481 2846.15,-514.59 2863.15,-586.57 2775.75,-622.25 2667.95,-666.26 2368.81,-647.25 2252.38,-647.25 1825.5,-647.25 1825.5,-647.25 1825.5,-647.25 1543.61,-647.25 1475.75,-589.11 1209.25,-497.25 1139.72,-473.28 1130.39,-444.52 1058.5,-429 1012.94,-419.17 881.91,-396.24 848.75,-429 822.47,-454.97 810.8,-512.12 847.75,-512.12"/>
<path fill="none" stroke="#999999" stroke-width="2" d="M3278.88,-531.5C3302.39,-529.08 3295.23,-495.67 3279.27,-479.57 3250.52,-452.29 2969.95,-465.42 2933.66,-479.13 2844.21,-515.05 2861.2,-587.03 2774.99,-620.4 2668.08,-664.27 2368.94,-645.25 2252.38,-645.25 1825.5,-645.25 1825.5,-645.25 1825.5,-645.25 1544.92,-645.73 1477.05,-587.59 1209.9,-495.36 1141.62,-472.67 1132.29,-443.9 1058.92,-427.05 1013.28,-417.2 882.25,-394.27 847.34,-427.58 820.51,-454.57 808.84,-511.73 847.75,-514.12"/>
<path fill="none" stroke="#000000" stroke-width="2" d="M3278.88,-533.5C3304.35,-528.66 3297.19,-495.25 3280.67,-478.14 3250.42,-450.3 2969.86,-463.42 2932.95,-477.26 2842.26,-515.51 2859.25,-587.49 2774.24,-618.55 2668.2,-662.27 2369.07,-643.26 2252.38,-643.25 1825.5,-643.25 1825.5,-643.25 1825.5,-643.25 1546.22,-644.21 1478.35,-586.07 1210.55,-493.47 1143.52,-472.05 1134.2,-443.28 1059.34,-425.09 1013.63,-415.23 882.6,-392.3 845.94,-426.15 818.55,-454.17 806.88,-511.33 847.75,-516.12"/>
</g>
<!-- UREV&#45;&#45;MC508_ENC -->
<g id="edge24" class="edge">
<title>UREV:e&#45;&#45;MC508_ENC:w</title>
<path fill="none" stroke="#000000" stroke-width="2" d="M3293.5,-358.5C3311.15,-363.34 3303.99,-329.93 3289.7,-316.86 3177.19,-200.68 3088.01,-304.47 2920.04,-317.99 2499.93,-348.17 2402.02,-425.36 1977.54,-457.24 1842.78,-466.98 1808.89,-459.79 1675.67,-457.25 1400.48,-451.78 1332.22,-438.31 1058.42,-433 1010.95,-431.97 881.04,-400.21 851.55,-431.85 833.85,-448.33 825.27,-489.2 847.75,-484.38"/>
<path fill="none" stroke="#ffffff" stroke-width="2" d="M3293.5,-360.5C3313.1,-362.92 3305.95,-329.51 3291.1,-315.43 3175.67,-199.37 3086.49,-303.16 2919.9,-315.99 2498.69,-346.6 2400.79,-423.79 1977.4,-455.24 1843.2,-465.03 1809.31,-457.84 1675.71,-455.25 1400.87,-449.82 1332.6,-436.35 1058.46,-431 1011.42,-430.03 881.51,-398.26 850.15,-430.43 831.89,-447.92 823.31,-488.79 847.75,-486.38"/>
<path fill="none" stroke="#0066ff" stroke-width="2" d="M3293.5,-362.5C3315.06,-362.5 3307.9,-329.09 3292.5,-314 3174.15,-198.07 3084.97,-301.86 2919.75,-314 2497.45,-345.03 2399.55,-422.22 1977.25,-453.25 1843.61,-463.07 1809.72,-455.88 1675.75,-453.25 1401.26,-447.86 1332.99,-434.39 1058.5,-429 1011.9,-428.08 881.99,-396.32 848.75,-429 829.93,-447.5 821.36,-488.38 847.75,-488.37"/>
<path fill="none" stroke="#ffffff" stroke-width="2" d="M3293.5,-364.5C3317.02,-362.08 3309.86,-328.67 3293.9,-312.57 3172.64,-196.77 3083.45,-300.56 2919.6,-312.01 2496.21,-343.46 2398.31,-420.65 1977.1,-451.26 1844.03,-461.11 1810.14,-453.92 1675.79,-451.25 1401.65,-445.9 1333.38,-432.43 1058.54,-427 1012.37,-426.14 882.46,-394.38 847.35,-427.57 827.97,-447.09 819.4,-487.96 847.75,-490.37"/>
<path fill="none" stroke="#000000" stroke-width="2" d="M3293.5,-366.5C3318.97,-361.66 3311.81,-328.25 3295.3,-311.14 3171.12,-195.46 3081.94,-299.25 2919.46,-310.01 2494.98,-341.89 2397.07,-419.08 1976.96,-449.26 1844.44,-459.16 1810.55,-451.97 1675.83,-449.25 1402.03,-443.94 1333.77,-430.47 1058.58,-425 1012.85,-424.2 882.94,-392.43 845.95,-426.15 826.02,-446.68 817.44,-487.55 847.75,-492.37"/>
</g>
<!-- ICOM&#45;&#45;EXT24V -->
<g id="edge26" class="edge">
<title>ICOM:e&#45;&#45;EXT24V:w</title>
<path fill="none" stroke="#000000" stroke-width="2" d="M1531.75,-728.5C1621.19,-728.5 1643.56,-728.5 1733,-728.5"/>
<path fill="none" stroke="#000000" stroke-width="2" d="M1531.75,-730.5C1621.19,-730.5 1643.56,-730.5 1733,-730.5"/>
<path fill="none" stroke="#000000" stroke-width="2" d="M1531.75,-732.5C1621.19,-732.5 1643.56,-732.5 1733,-732.5"/>
<path fill="none" stroke="#000000" stroke-width="2" d="M1531.75,-734.5C1621.19,-734.5 1643.56,-734.5 1733,-734.5"/>
<path fill="none" stroke="#000000" stroke-width="2" d="M1531.75,-736.5C1621.19,-736.5 1643.56,-736.5 1733,-736.5"/>
</g>
<!-- V24&#45;&#45;MIC2981 -->
<g id="edge28" class="edge">
<title>V24:e&#45;&#45;MIC2981:w</title>
<path fill="none" stroke="#000000" stroke-width="2" d="M2381.5,-778.5C2517.54,-784.24 2382.26,-504.99 2525.5,-499.25"/>
<path fill="none" stroke="#ff0000" stroke-width="2" d="M2381.5,-780.5C2519.34,-783.37 2384.06,-504.12 2525.5,-501.25"/>
<path fill="none" stroke="#ff0000" stroke-width="2" d="M2381.5,-782.5C2521.14,-782.5 2385.86,-503.25 2525.5,-503.25"/>
<path fill="none" stroke="#ff0000" stroke-width="2" d="M2381.5,-784.5C2522.94,-781.63 2387.66,-502.38 2525.5,-505.25"/>
<path fill="none" stroke="#000000" stroke-width="2" d="M2381.5,-786.5C2524.74,-780.76 2389.46,-501.51 2525.5,-507.25"/>
</g>
<!-- UGND&#45;&#45;EXT24V -->
<g id="edge30" class="edge">
<title>UGND:e&#45;&#45;EXT24V:w</title>
<path fill="none" stroke="#000000" stroke-width="2" d="M3239.88,-691.5C3257.52,-696.34 3250.37,-662.93 3236.08,-649.86 3218.16,-630.34 3003.2,-649.55 2973.57,-651 2886.84,-654.95 2865.43,-664.34 2776,-670.24 2717.91,-673.91 1774.85,-659.91 1736.83,-699.7 1726.7,-708.98 1721.06,-733.4 1733,-728.5"/>
<path fill="none" stroke="#000000" stroke-width="2" d="M3239.88,-693.5C3259.48,-695.92 3252.32,-662.51 3237.48,-648.43 3217.98,-628.35 3003.02,-647.56 2973.47,-649 2886.03,-653.11 2864.63,-662.5 2775.88,-668.25 2717.94,-671.91 1774.88,-657.91 1735.42,-698.29 1724.76,-708.53 1719.11,-732.95 1733,-730.5"/>
<path fill="none" stroke="#000000" stroke-width="2" d="M3239.88,-695.5C3261.44,-695.5 3254.28,-662.09 3238.88,-647 3217.8,-626.36 3002.84,-645.57 2973.38,-647 2885.23,-651.28 2863.82,-660.67 2775.75,-666.25 2717.97,-669.91 1774.91,-655.91 1734,-696.88 1722.81,-708.08 1717.16,-732.5 1733,-732.5"/>
<path fill="none" stroke="#000000" stroke-width="2" d="M3239.88,-697.5C3263.39,-695.08 3256.23,-661.67 3240.27,-645.57 3217.62,-624.36 3002.66,-643.58 2973.28,-645 2884.43,-649.45 2863.02,-658.84 2775.62,-664.25 2718,-667.91 1774.94,-653.91 1732.58,-695.46 1720.86,-707.63 1715.21,-732.05 1733,-734.5"/>
<path fill="none" stroke="#000000" stroke-width="2" d="M3239.88,-699.5C3265.35,-694.66 3258.19,-661.25 3241.67,-644.14 3217.45,-622.37 3002.48,-641.58 2973.18,-643 2883.62,-647.62 2862.22,-657.01 2775.5,-662.26 2718.03,-665.91 1774.97,-651.91 1731.17,-694.05 1718.91,-707.18 1713.26,-731.6 1733,-736.5"/>
</g>
<!-- LPWR&#45;&#45;EXT5V -->
<g id="edge32" class="edge">
<title>LPWR:e&#45;&#45;EXT5V:w</title>
<path fill="none" stroke="#000000" stroke-width="2" d="M634.5,-209.5C727.93,-212.78 740.7,-142.53 842,-139.25"/>
<path fill="none" stroke="#ff0000" stroke-width="2" d="M634.5,-211.5C729.9,-213.14 742.67,-142.89 842,-141.25"/>
<path fill="none" stroke="#ff0000" stroke-width="2" d="M634.5,-213.5C731.86,-213.5 744.64,-143.25 842,-143.25"/>
<path fill="none" stroke="#ff0000" stroke-width="2" d="M634.5,-215.5C733.83,-213.86 746.6,-143.61 842,-145.25"/>
<path fill="none" stroke="#000000" stroke-width="2" d="M634.5,-217.5C735.8,-214.22 748.57,-143.97 842,-147.25"/>
</g>
<!-- LGND&#45;&#45;EXT5V -->
<g id="edge34" class="edge">
<title>LGND:e&#45;&#45;EXT5V:w</title>
<path fill="none" stroke="#000000" stroke-width="2" d="M637.12,-44.5C737.44,-47.83 749.57,-118.83 842,-115.5"/>
<path fill="none" stroke="#000000" stroke-width="2" d="M637.12,-46.5C735.46,-48.16 747.6,-119.16 842,-117.5"/>
<path fill="none" stroke="#000000" stroke-width="2" d="M637.12,-48.5C733.49,-48.5 745.63,-119.5 842,-119.5"/>
<path fill="none" stroke="#000000" stroke-width="2" d="M637.12,-50.5C731.52,-48.84 743.66,-119.84 842,-121.5"/>
<path fill="none" stroke="#000000" stroke-width="2" d="M637.12,-52.5C729.55,-49.17 741.69,-120.17 842,-123.5"/>
</g>
</g>
</svg>
