<?xml version="1.0" encoding="UTF-8" standalone="no"?>
<!DOCTYPE svg PUBLIC "-//W3C//DTD SVG 1.1//EN"
 "http://www.w3.org/Graphics/SVG/1.1/DTD/svg11.dtd">
<!-- Generated by graphviz version 12.2.1 (20241206.2353)
 -->
<!-- Pages: 1 -->
<svg width="3814pt" height="871pt"
 viewBox="0.00 0.00 3813.95 871.25" xmlns="http://www.w3.org/2000/svg" xmlns:xlink="http://www.w3.org/1999/xlink">
<g id="graph0" class="graph" transform="scale(1 1) rotate(0) translate(4 867.25)">
<polygon fill="#ffffff" stroke="none" points="-4,4 -4,-867.25 3809.95,-867.25 3809.95,4 -4,4"/>
<!-- MC508_STEP -->
<g id="node1" class="node">
<title>MC508_STEP</title>
<polygon fill="#ffffff" stroke="black" points="263.36,-622.75 17.61,-622.75 17.61,-314 263.36,-314 263.36,-622.75"/>
<polygon fill="none" stroke="black" points="17.61,-599 17.61,-622.75 263.36,-622.75 263.36,-599 17.61,-599"/>
<text text-anchor="start" x="96.98" y="-605.45" font-family="arial" font-size="14.00">MC508_STEP</text>
<polygon fill="none" stroke="black" points="17.61,-575.25 17.61,-599 147.23,-599 147.23,-575.25 17.61,-575.25"/>
<text text-anchor="start" x="56.92" y="-581.7" font-family="arial" font-size="14.00">MDR&#45;20</text>
<polygon fill="none" stroke="black" points="147.23,-575.25 147.23,-599 263.36,-599 263.36,-575.25 147.23,-575.25"/>
<text text-anchor="start" x="186.55" y="-581.7" font-family="arial" font-size="14.00">10&#45;pin</text>
<polygon fill="none" stroke="black" points="17.61,-551.5 17.61,-575.25 79.03,-575.25 79.03,-551.5 17.61,-551.5"/>
<text text-anchor="start" x="44.57" y="-557.95" font-family="arial" font-size="14.00">1</text>
<polygon fill="none" stroke="black" points="79.03,-551.5 79.03,-575.25 201.94,-575.25 201.94,-551.5 79.03,-551.5"/>
<text text-anchor="start" x="110.11" y="-557.95" font-family="arial" font-size="14.00">Pulse(N)+</text>
<polygon fill="none" stroke="black" points="201.94,-551.5 201.94,-575.25 263.36,-575.25 263.36,-551.5 201.94,-551.5"/>
<text text-anchor="start" x="228.9" y="-557.95" font-family="arial" font-size="14.00">1</text>
<polygon fill="none" stroke="black" points="17.61,-527.75 17.61,-551.5 79.03,-551.5 79.03,-527.75 17.61,-527.75"/>
<text text-anchor="start" x="44.57" y="-534.2" font-family="arial" font-size="14.00">2</text>
<polygon fill="none" stroke="black" points="79.03,-527.75 79.03,-551.5 201.94,-551.5 201.94,-527.75 79.03,-527.75"/>
<text text-anchor="start" x="112.36" y="-534.2" font-family="arial" font-size="14.00">/Pulse(N)</text>
<polygon fill="none" stroke="black" points="201.94,-527.75 201.94,-551.5 263.36,-551.5 263.36,-527.75 201.94,-527.75"/>
<text text-anchor="start" x="228.9" y="-534.2" font-family="arial" font-size="14.00">2</text>
<polygon fill="none" stroke="black" points="17.61,-504 17.61,-527.75 79.03,-527.75 79.03,-504 17.61,-504"/>
<text text-anchor="start" x="44.57" y="-510.45" font-family="arial" font-size="14.00">3</text>
<polygon fill="none" stroke="black" points="79.03,-504 79.03,-527.75 201.94,-527.75 201.94,-504 79.03,-504"/>
<text text-anchor="start" x="118.36" y="-510.45" font-family="arial" font-size="14.00">Dir(N)+</text>
<polygon fill="none" stroke="black" points="201.94,-504 201.94,-527.75 263.36,-527.75 263.36,-504 201.94,-504"/>
<text text-anchor="start" x="228.9" y="-510.45" font-family="arial" font-size="14.00">3</text>
<polygon fill="none" stroke="black" points="17.61,-480.25 17.61,-504 79.03,-504 79.03,-480.25 17.61,-480.25"/>
<text text-anchor="start" x="44.57" y="-486.7" font-family="arial" font-size="14.00">4</text>
<polygon fill="none" stroke="black" points="79.03,-480.25 79.03,-504 201.94,-504 201.94,-480.25 79.03,-480.25"/>
<text text-anchor="start" x="120.61" y="-486.7" font-family="arial" font-size="14.00">/Dir(N)</text>
<polygon fill="none" stroke="black" points="201.94,-480.25 201.94,-504 263.36,-504 263.36,-480.25 201.94,-480.25"/>
<text text-anchor="start" x="228.9" y="-486.7" font-family="arial" font-size="14.00">4</text>
<polygon fill="none" stroke="black" points="17.61,-456.5 17.61,-480.25 79.03,-480.25 79.03,-456.5 17.61,-456.5"/>
<text text-anchor="start" x="41.19" y="-462.95" font-family="arial" font-size="14.00">11</text>
<polygon fill="none" stroke="black" points="79.03,-456.5 79.03,-480.25 201.94,-480.25 201.94,-456.5 79.03,-456.5"/>
<text text-anchor="start" x="102.23" y="-462.95" font-family="arial" font-size="14.00">Pulse(N+8)+</text>
<polygon fill="none" stroke="black" points="201.94,-456.5 201.94,-480.25 263.36,-480.25 263.36,-456.5 201.94,-456.5"/>
<text text-anchor="start" x="225.53" y="-462.95" font-family="arial" font-size="14.00">11</text>
<polygon fill="none" stroke="black" points="17.61,-432.75 17.61,-456.5 79.03,-456.5 79.03,-432.75 17.61,-432.75"/>
<text text-anchor="start" x="40.82" y="-439.2" font-family="arial" font-size="14.00">12</text>
<polygon fill="none" stroke="black" points="79.03,-432.75 79.03,-456.5 201.94,-456.5 201.94,-432.75 79.03,-432.75"/>
<text text-anchor="start" x="104.48" y="-439.2" font-family="arial" font-size="14.00">/Pulse(N+8)</text>
<polygon fill="none" stroke="black" points="201.94,-432.75 201.94,-456.5 263.36,-456.5 263.36,-432.75 201.94,-432.75"/>
<text text-anchor="start" x="225.15" y="-439.2" font-family="arial" font-size="14.00">12</text>
<polygon fill="none" stroke="black" points="17.61,-409 17.61,-432.75 79.03,-432.75 79.03,-409 17.61,-409"/>
<text text-anchor="start" x="40.82" y="-415.45" font-family="arial" font-size="14.00">13</text>
<polygon fill="none" stroke="black" points="79.03,-409 79.03,-432.75 201.94,-432.75 201.94,-409 79.03,-409"/>
<text text-anchor="start" x="110.48" y="-415.45" font-family="arial" font-size="14.00">Dir(N+8)+</text>
<polygon fill="none" stroke="black" points="201.94,-409 201.94,-432.75 263.36,-432.75 263.36,-409 201.94,-409"/>
<text text-anchor="start" x="225.15" y="-415.45" font-family="arial" font-size="14.00">13</text>
<polygon fill="none" stroke="black" points="17.61,-385.25 17.61,-409 79.03,-409 79.03,-385.25 17.61,-385.25"/>
<text text-anchor="start" x="40.82" y="-391.7" font-family="arial" font-size="14.00">14</text>
<polygon fill="none" stroke="black" points="79.03,-385.25 79.03,-409 201.94,-409 201.94,-385.25 79.03,-385.25"/>
<text text-anchor="start" x="112.73" y="-391.7" font-family="arial" font-size="14.00">/Dir(N+8)</text>
<polygon fill="none" stroke="black" points="201.94,-385.25 201.94,-409 263.36,-409 263.36,-385.25 201.94,-385.25"/>
<text text-anchor="start" x="225.15" y="-391.7" font-family="arial" font-size="14.00">14</text>
<polygon fill="none" stroke="black" points="17.61,-361.5 17.61,-385.25 79.03,-385.25 79.03,-361.5 17.61,-361.5"/>
<text text-anchor="start" x="44.57" y="-367.95" font-family="arial" font-size="14.00">7</text>
<polygon fill="none" stroke="black" points="79.03,-361.5 79.03,-385.25 201.94,-385.25 201.94,-361.5 79.03,-361.5"/>
<text text-anchor="start" x="113.48" y="-367.95" font-family="arial" font-size="14.00">WDOG+</text>
<polygon fill="none" stroke="black" points="201.94,-361.5 201.94,-385.25 263.36,-385.25 263.36,-361.5 201.94,-361.5"/>
<text text-anchor="start" x="228.9" y="-367.95" font-family="arial" font-size="14.00">7</text>
<polygon fill="none" stroke="black" points="17.61,-337.75 17.61,-361.5 79.03,-361.5 79.03,-337.75 17.61,-337.75"/>
<text text-anchor="start" x="44.57" y="-344.2" font-family="arial" font-size="14.00">8</text>
<polygon fill="none" stroke="black" points="79.03,-337.75 79.03,-361.5 201.94,-361.5 201.94,-337.75 79.03,-337.75"/>
<text text-anchor="start" x="115.36" y="-344.2" font-family="arial" font-size="14.00">WDOG&#45;</text>
<polygon fill="none" stroke="black" points="201.94,-337.75 201.94,-361.5 263.36,-361.5 263.36,-337.75 201.94,-337.75"/>
<text text-anchor="start" x="228.9" y="-344.2" font-family="arial" font-size="14.00">8</text>
<polygon fill="none" stroke="black" points="17.61,-314 17.61,-337.75 263.36,-337.75 263.36,-314 17.61,-314"/>
<text text-anchor="start" x="21.61" y="-320.45" font-family="arial" font-size="14.00">MC508 Stepper Port (ATYPE 43, P849)</text>
</g>
<!-- STEPA -->
<g id="node8" class="node">
<title>STEPA</title>
<polygon fill="#ffffff" stroke="black" points="1266.11,-863.25 929.36,-863.25 929.36,-633.5 1266.11,-633.5 1266.11,-863.25"/>
<polygon fill="none" stroke="black" points="929.36,-839.5 929.36,-863.25 1266.11,-863.25 1266.11,-839.5 929.36,-839.5"/>
<text text-anchor="start" x="1075.98" y="-845.95" font-family="arial" font-size="14.00">STEPA</text>
<polygon fill="none" stroke="black" points="929.36,-815.75 929.36,-839.5 1266.11,-839.5 1266.11,-815.75 929.36,-815.75"/>
<text text-anchor="start" x="1090.61" y="-822.2" font-family="arial" font-size="14.00">4x</text>
<text text-anchor="start" x="1010.86" y="-800.45" font-family="arial" font-size="14.00"> </text>
<text text-anchor="start" x="931.36" y="-780.7" font-family="arial" font-size="14.00">MC508_STEP:1:Pulse(N)+</text>
<text text-anchor="start" x="1100.36" y="-780.7" font-family="arial" font-size="14.00"> &#160;&#160;&#160;&#160;1:BK &#160;&#160;&#160;</text>
<text text-anchor="start" x="1169.61" y="-780.7" font-family="arial" font-size="14.00">DRV_A:1:PUL+</text>
<polygon fill="#000000" stroke="none" points="929.36,-774.25 929.36,-776.25 1266.11,-776.25 1266.11,-774.25 929.36,-774.25"/>
<polygon fill="#000000" stroke="none" points="929.36,-772.25 929.36,-774.25 1266.11,-774.25 1266.11,-772.25 929.36,-772.25"/>
<polygon fill="#000000" stroke="none" points="929.36,-770.25 929.36,-772.25 1266.11,-772.25 1266.11,-770.25 929.36,-770.25"/>
<polygon fill="#000000" stroke="none" points="929.36,-768.25 929.36,-770.25 1266.11,-770.25 1266.11,-768.25 929.36,-768.25"/>
<polygon fill="#000000" stroke="none" points="929.36,-766.25 929.36,-768.25 1266.11,-768.25 1266.11,-766.25 929.36,-766.25"/>
<text text-anchor="start" x="933.61" y="-750.95" font-family="arial" font-size="14.00">MC508_STEP:2:/Pulse(N)</text>
<text text-anchor="start" x="1099.98" y="-750.95" font-family="arial" font-size="14.00"> &#160;&#160;&#160;&#160;2:BN &#160;&#160;&#160;</text>
<text text-anchor="start" x="1171.48" y="-750.95" font-family="arial" font-size="14.00">DRV_A:2:PUL&#45;</text>
<polygon fill="#000000" stroke="none" points="929.36,-744.5 929.36,-746.5 1266.11,-746.5 1266.11,-744.5 929.36,-744.5"/>
<polygon fill="#895956" stroke="none" points="929.36,-742.5 929.36,-744.5 1266.11,-744.5 1266.11,-742.5 929.36,-742.5"/>
<polygon fill="#895956" stroke="none" points="929.36,-740.5 929.36,-742.5 1266.11,-742.5 1266.11,-740.5 929.36,-740.5"/>
<polygon fill="#895956" stroke="none" points="929.36,-738.5 929.36,-740.5 1266.11,-740.5 1266.11,-738.5 929.36,-738.5"/>
<polygon fill="#000000" stroke="none" points="929.36,-736.5 929.36,-738.5 1266.11,-738.5 1266.11,-736.5 929.36,-736.5"/>
<text text-anchor="start" x="939.61" y="-721.2" font-family="arial" font-size="14.00">MC508_STEP:3:Dir(N)+</text>
<text text-anchor="start" x="1099.61" y="-721.2" font-family="arial" font-size="14.00"> &#160;&#160;&#160;&#160;3:RD &#160;&#160;&#160;</text>
<text text-anchor="start" x="1171.11" y="-721.2" font-family="arial" font-size="14.00">DRV_A:3:DIR+</text>
<polygon fill="#000000" stroke="none" points="929.36,-714.75 929.36,-716.75 1266.11,-716.75 1266.11,-714.75 929.36,-714.75"/>
<polygon fill="#ff0000" stroke="none" points="929.36,-712.75 929.36,-714.75 1266.11,-714.75 1266.11,-712.75 929.36,-712.75"/>
<polygon fill="#ff0000" stroke="none" points="929.36,-710.75 929.36,-712.75 1266.11,-712.75 1266.11,-710.75 929.36,-710.75"/>
<polygon fill="#ff0000" stroke="none" points="929.36,-708.75 929.36,-710.75 1266.11,-710.75 1266.11,-708.75 929.36,-708.75"/>
<polygon fill="#000000" stroke="none" points="929.36,-706.75 929.36,-708.75 1266.11,-708.75 1266.11,-706.75 929.36,-706.75"/>
<text text-anchor="start" x="941.86" y="-691.45" font-family="arial" font-size="14.00">MC508_STEP:4:/Dir(N)</text>
<text text-anchor="start" x="1098.11" y="-691.45" font-family="arial" font-size="14.00"> &#160;&#160;&#160;&#160;4:OG &#160;&#160;&#160;</text>
<text text-anchor="start" x="1172.98" y="-691.45" font-family="arial" font-size="14.00">DRV_A:4:DIR&#45;</text>
<polygon fill="#000000" stroke="none" points="929.36,-685 929.36,-687 1266.11,-687 1266.11,-685 929.36,-685"/>
<polygon fill="#ff8000" stroke="none" points="929.36,-683 929.36,-685 1266.11,-685 1266.11,-683 929.36,-683"/>
<polygon fill="#ff8000" stroke="none" points="929.36,-681 929.36,-683 1266.11,-683 1266.11,-681 929.36,-681"/>
<polygon fill="#ff8000" stroke="none" points="929.36,-679 929.36,-681 1266.11,-681 1266.11,-679 929.36,-679"/>
<polygon fill="#000000" stroke="none" points="929.36,-677 929.36,-679 1266.11,-679 1266.11,-677 929.36,-677"/>
<text text-anchor="start" x="1010.86" y="-661.7" font-family="arial" font-size="14.00"> </text>
<polygon fill="none" stroke="black" points="929.36,-633.5 929.36,-657.25 1266.11,-657.25 1266.11,-633.5 929.36,-633.5"/>
<text text-anchor="start" x="1054.23" y="-639.95" font-family="arial" font-size="14.00">Axis N step/dir</text>
</g>
<!-- MC508_STEP&#45;&#45;STEPA -->
<g id="edge1" class="edge">
<title>MC508_STEP:e&#45;&#45;STEPA:w</title>
<path fill="none" stroke="#000000" stroke-width="2" d="M263.36,-559.38C367.51,-564.72 321.73,-693.07 409.18,-733.81 611.79,-840.09 694.24,-768.23 929.36,-767.25"/>
<path fill="none" stroke="#000000" stroke-width="2" d="M263.36,-561.38C365.63,-564.05 319.84,-692.39 408.27,-735.59 613.1,-841.6 695.56,-769.74 929.36,-769.25"/>
<path fill="none" stroke="#000000" stroke-width="2" d="M263.36,-563.37C363.74,-563.38 317.96,-691.72 407.36,-737.38 614.41,-843.11 696.87,-771.25 929.36,-771.25"/>
<path fill="none" stroke="#000000" stroke-width="2" d="M263.36,-565.37C361.86,-562.7 316.08,-691.05 406.45,-739.16 615.73,-844.62 698.19,-772.76 929.36,-773.25"/>
<path fill="none" stroke="#000000" stroke-width="2" d="M263.36,-567.37C359.97,-562.03 314.19,-690.38 405.54,-740.94 617.04,-846.12 699.5,-774.27 929.36,-775.25"/>
</g>
<!-- MC508_STEP&#45;&#45;STEPA -->
<g id="edge3" class="edge">
<title>MC508_STEP:e&#45;&#45;STEPA:w</title>
<path fill="none" stroke="#000000" stroke-width="2" d="M263.36,-535.63C358.28,-540.68 329.19,-646.88 409.1,-681.77 460.2,-706.72 871.32,-737.51 929.36,-737.5"/>
<path fill="none" stroke="#895956" stroke-width="2" d="M263.36,-537.63C356.35,-540.15 327.26,-646.35 408.23,-683.57 460.05,-708.72 871.17,-739.51 929.36,-739.5"/>
<path fill="none" stroke="#895956" stroke-width="2" d="M263.36,-539.63C354.42,-539.62 325.34,-645.83 407.36,-685.38 459.91,-710.71 871.03,-741.5 929.36,-741.5"/>
<path fill="none" stroke="#895956" stroke-width="2" d="M263.36,-541.62C352.49,-539.1 323.41,-645.3 406.49,-687.18 459.76,-712.7 870.88,-743.49 929.36,-743.5"/>
<path fill="none" stroke="#000000" stroke-width="2" d="M263.36,-543.62C350.56,-538.57 321.48,-644.77 405.62,-688.98 459.61,-714.7 870.73,-745.49 929.36,-745.5"/>
</g>
<!-- MC508_STEP&#45;&#45;STEPA -->
<g id="edge5" class="edge">
<title>MC508_STEP:e&#45;&#45;STEPA:w</title>
<path fill="none" stroke="#000000" stroke-width="2" d="M263.36,-511.88C349.08,-516.49 336.18,-598.74 408.94,-626.7 560.81,-694.13 615.64,-652.02 786.02,-679.43 852.77,-691.67 867.22,-709.21 929.36,-707.75"/>
<path fill="none" stroke="#ff0000" stroke-width="2" d="M263.36,-513.88C347.1,-516.18 334.2,-598.43 408.15,-628.54 562.03,-695.72 616.86,-653.6 785.69,-681.4 851.23,-692.94 865.67,-710.48 929.36,-709.75"/>
<path fill="none" stroke="#ff0000" stroke-width="2" d="M263.36,-515.88C345.13,-515.88 332.23,-598.12 407.36,-630.37 563.24,-697.3 618.07,-655.19 785.36,-683.37 849.68,-694.21 864.13,-711.75 929.36,-711.75"/>
<path fill="none" stroke="#ff0000" stroke-width="2" d="M263.36,-517.87C343.15,-515.57 330.25,-597.81 406.57,-632.21 564.46,-698.89 619.29,-656.77 785.03,-685.35 848.14,-695.49 862.59,-713.02 929.36,-713.75"/>
<path fill="none" stroke="#000000" stroke-width="2" d="M263.36,-519.87C341.17,-515.26 328.27,-597.5 405.78,-634.05 565.68,-700.47 620.51,-658.36 784.7,-687.32 846.6,-696.76 861.04,-714.29 929.36,-715.75"/>
</g>
<!-- MC508_STEP&#45;&#45;STEPA -->
<g id="edge7" class="edge">
<title>MC508_STEP:e&#45;&#45;STEPA:w</title>
<path fill="none" stroke="#000000" stroke-width="2" d="M263.36,-488.13C341.51,-492.14 341.28,-552.15 408.67,-572.59 565.05,-628.75 618.33,-583.92 786.34,-624.5 855.46,-644.05 864.94,-681.01 929.36,-678"/>
<path fill="none" stroke="#ff8000" stroke-width="2" d="M263.36,-490.13C339.51,-492.13 339.28,-552.14 408.01,-574.48 566.34,-630.28 619.62,-585.45 785.85,-626.44 853.52,-644.55 863,-681.5 929.36,-680"/>
<path fill="none" stroke="#ff8000" stroke-width="2" d="M263.36,-492.13C337.51,-492.13 337.28,-552.13 407.36,-576.37 567.62,-631.81 620.91,-586.98 785.36,-628.38 851.59,-645.05 861.07,-682 929.36,-682"/>
<path fill="none" stroke="#ff8000" stroke-width="2" d="M263.36,-494.12C335.51,-492.12 335.28,-552.13 406.71,-578.27 568.91,-633.34 622.2,-588.51 784.87,-630.31 849.65,-645.54 859.13,-682.5 929.36,-684"/>
<path fill="none" stroke="#000000" stroke-width="2" d="M263.36,-496.12C333.51,-492.11 333.28,-552.12 406.05,-580.16 570.2,-634.87 623.48,-590.04 784.38,-632.25 847.71,-646.04 857.19,-682.99 929.36,-686"/>
</g>
<!-- STEPB -->
<g id="node9" class="node">
<title>STEPB</title>
<polygon fill="#ffffff" stroke="black" points="785.36,-564.25 407.36,-564.25 407.36,-334.5 785.36,-334.5 785.36,-564.25"/>
<polygon fill="none" stroke="black" points="407.36,-540.5 407.36,-564.25 785.36,-564.25 785.36,-540.5 407.36,-540.5"/>
<text text-anchor="start" x="574.23" y="-546.95" font-family="arial" font-size="14.00">STEPB</text>
<polygon fill="none" stroke="black" points="407.36,-516.75 407.36,-540.5 785.36,-540.5 785.36,-516.75 407.36,-516.75"/>
<text text-anchor="start" x="589.23" y="-523.2" font-family="arial" font-size="14.00">4x</text>
<text text-anchor="start" x="500.11" y="-501.45" font-family="arial" font-size="14.00"> </text>
<text text-anchor="start" x="409.36" y="-481.7" font-family="arial" font-size="14.00">MC508_STEP:11:Pulse(N+8)+</text>
<text text-anchor="start" x="599.73" y="-481.7" font-family="arial" font-size="14.00"> &#160;&#160;&#160;&#160;1:GNYE &#160;&#160;&#160;</text>
<text text-anchor="start" x="688.86" y="-481.7" font-family="arial" font-size="14.00">DRV_B:1:PUL+</text>
<polygon fill="#000000" stroke="none" points="407.36,-475.25 407.36,-477.25 785.36,-477.25 785.36,-475.25 407.36,-475.25"/>
<polygon fill="#00ff00" stroke="none" points="407.36,-473.25 407.36,-475.25 785.36,-475.25 785.36,-473.25 407.36,-473.25"/>
<polygon fill="#ffff00" stroke="none" points="407.36,-471.25 407.36,-473.25 785.36,-473.25 785.36,-471.25 407.36,-471.25"/>
<polygon fill="#00ff00" stroke="none" points="407.36,-469.25 407.36,-471.25 785.36,-471.25 785.36,-469.25 407.36,-469.25"/>
<polygon fill="#000000" stroke="none" points="407.36,-467.25 407.36,-469.25 785.36,-469.25 785.36,-467.25 407.36,-467.25"/>
<text text-anchor="start" x="411.23" y="-451.95" font-family="arial" font-size="14.00">MC508_STEP:12:/Pulse(N+8)</text>
<text text-anchor="start" x="601.61" y="-451.95" font-family="arial" font-size="14.00"> &#160;&#160;&#160;&#160;2:LBBU &#160;&#160;&#160;</text>
<text text-anchor="start" x="690.73" y="-451.95" font-family="arial" font-size="14.00">DRV_B:2:PUL&#45;</text>
<polygon fill="#000000" stroke="none" points="407.36,-445.5 407.36,-447.5 785.36,-447.5 785.36,-445.5 407.36,-445.5"/>
<polygon fill="#a0dfff" stroke="none" points="407.36,-443.5 407.36,-445.5 785.36,-445.5 785.36,-443.5 407.36,-443.5"/>
<polygon fill="#0066ff" stroke="none" points="407.36,-441.5 407.36,-443.5 785.36,-443.5 785.36,-441.5 407.36,-441.5"/>
<polygon fill="#a0dfff" stroke="none" points="407.36,-439.5 407.36,-441.5 785.36,-441.5 785.36,-439.5 407.36,-439.5"/>
<polygon fill="#000000" stroke="none" points="407.36,-437.5 407.36,-439.5 785.36,-439.5 785.36,-437.5 407.36,-437.5"/>
<text text-anchor="start" x="417.23" y="-422.2" font-family="arial" font-size="14.00">MC508_STEP:13:Dir(N+8)+</text>
<text text-anchor="start" x="610.23" y="-422.2" font-family="arial" font-size="14.00"> &#160;&#160;&#160;&#160;3:PK &#160;&#160;&#160;</text>
<text text-anchor="start" x="690.36" y="-422.2" font-family="arial" font-size="14.00">DRV_B:3:DIR+</text>
<polygon fill="#000000" stroke="none" points="407.36,-415.75 407.36,-417.75 785.36,-417.75 785.36,-415.75 407.36,-415.75"/>
<polygon fill="#ff66cc" stroke="none" points="407.36,-413.75 407.36,-415.75 785.36,-415.75 785.36,-413.75 407.36,-413.75"/>
<polygon fill="#ff66cc" stroke="none" points="407.36,-411.75 407.36,-413.75 785.36,-413.75 785.36,-411.75 407.36,-411.75"/>
<polygon fill="#ff66cc" stroke="none" points="407.36,-409.75 407.36,-411.75 785.36,-411.75 785.36,-409.75 407.36,-409.75"/>
<polygon fill="#000000" stroke="none" points="407.36,-407.75 407.36,-409.75 785.36,-409.75 785.36,-407.75 407.36,-407.75"/>
<text text-anchor="start" x="419.48" y="-392.45" font-family="arial" font-size="14.00">MC508_STEP:14:/Dir(N+8)</text>
<text text-anchor="start" x="598.61" y="-392.45" font-family="arial" font-size="14.00"> &#160;&#160;&#160;&#160;4:BKWH &#160;&#160;&#160;</text>
<text text-anchor="start" x="692.23" y="-392.45" font-family="arial" font-size="14.00">DRV_B:4:DIR&#45;</text>
<polygon fill="#000000" stroke="none" points="407.36,-386 407.36,-388 785.36,-388 785.36,-386 407.36,-386"/>
<polygon fill="#000000" stroke="none" points="407.36,-384 407.36,-386 785.36,-386 785.36,-384 407.36,-384"/>
<polygon fill="#ffffff" stroke="none" points="407.36,-382 407.36,-384 785.36,-384 785.36,-382 407.36,-382"/>
<polygon fill="#000000" stroke="none" points="407.36,-380 407.36,-382 785.36,-382 785.36,-380 407.36,-380"/>
<polygon fill="#000000" stroke="none" points="407.36,-378 407.36,-380 785.36,-380 785.36,-378 407.36,-378"/>
<text text-anchor="start" x="500.11" y="-362.7" font-family="arial" font-size="14.00"> </text>
<polygon fill="none" stroke="black" points="407.36,-334.5 407.36,-358.25 785.36,-358.25 785.36,-334.5 407.36,-334.5"/>
<text text-anchor="start" x="544.98" y="-340.95" font-family="arial" font-size="14.00">Axis N+8 step/dir</text>
</g>
<!-- MC508_STEP&#45;&#45;STEPB -->
<g id="edge9" class="edge">
<title>MC508_STEP:e&#45;&#45;STEPB:w</title>
<path fill="none" stroke="#000000" stroke-width="2" d="M263.36,-464.38C328.33,-464.49 344.28,-468.36 407.36,-468.25"/>
<path fill="none" stroke="#00ff00" stroke-width="2" d="M263.36,-466.38C327.86,-466.43 343.81,-470.31 407.36,-470.25"/>
<path fill="none" stroke="#ffff00" stroke-width="2" d="M263.36,-468.38C327.38,-468.37 343.34,-472.25 407.36,-472.25"/>
<path fill="none" stroke="#00ff00" stroke-width="2" d="M263.36,-470.37C326.91,-470.32 342.86,-474.19 407.36,-474.25"/>
<path fill="none" stroke="#000000" stroke-width="2" d="M263.36,-472.37C326.44,-472.26 342.39,-476.14 407.36,-476.25"/>
</g>
<!-- MC508_STEP&#45;&#45;STEPB -->
<g id="edge11" class="edge">
<title>MC508_STEP:e&#45;&#45;STEPB:w</title>
<path fill="none" stroke="#000000" stroke-width="2" d="M263.36,-440.63C326.84,-440.66 342.83,-438.53 407.36,-438.5"/>
<path fill="none" stroke="#a0dfff" stroke-width="2" d="M263.36,-442.63C327.1,-442.64 343.09,-440.52 407.36,-440.5"/>
<path fill="none" stroke="#0066ff" stroke-width="2" d="M263.36,-444.63C327.37,-444.62 343.35,-442.5 407.36,-442.5"/>
<path fill="none" stroke="#a0dfff" stroke-width="2" d="M263.36,-446.62C327.63,-446.61 343.62,-444.48 407.36,-444.5"/>
<path fill="none" stroke="#000000" stroke-width="2" d="M263.36,-448.62C327.89,-448.59 343.88,-446.47 407.36,-446.5"/>
</g>
<!-- MC508_STEP&#45;&#45;STEPB -->
<g id="edge13" class="edge">
<title>MC508_STEP:e&#45;&#45;STEPB:w</title>
<path fill="none" stroke="#000000" stroke-width="2" d="M263.36,-416.88C325.63,-417.32 341.43,-409.19 407.36,-408.75"/>
<path fill="none" stroke="#ff66cc" stroke-width="2" d="M263.36,-418.88C326.55,-419.1 342.34,-410.97 407.36,-410.75"/>
<path fill="none" stroke="#ff66cc" stroke-width="2" d="M263.36,-420.87C327.46,-420.87 343.26,-412.75 407.36,-412.75"/>
<path fill="none" stroke="#ff66cc" stroke-width="2" d="M263.36,-422.87C328.38,-422.65 344.17,-414.53 407.36,-414.75"/>
<path fill="none" stroke="#000000" stroke-width="2" d="M263.36,-424.87C329.29,-424.43 345.09,-416.31 407.36,-416.75"/>
</g>
<!-- MC508_STEP&#45;&#45;STEPB -->
<g id="edge15" class="edge">
<title>MC508_STEP:e&#45;&#45;STEPB:w</title>
<path fill="none" stroke="#000000" stroke-width="2" d="M263.36,-393.13C324.96,-394.18 340.35,-380.05 407.36,-379"/>
<path fill="none" stroke="#000000" stroke-width="2" d="M263.36,-395.13C326.31,-395.65 341.7,-381.53 407.36,-381"/>
<path fill="none" stroke="#ffffff" stroke-width="2" d="M263.36,-397.12C327.67,-397.12 343.05,-383 407.36,-383"/>
<path fill="none" stroke="#000000" stroke-width="2" d="M263.36,-399.12C329.02,-398.6 344.41,-384.47 407.36,-385"/>
<path fill="none" stroke="#000000" stroke-width="2" d="M263.36,-401.12C330.37,-400.07 345.76,-385.95 407.36,-387"/>
</g>
<!-- WD -->
<g id="node12" class="node">
<title>WD</title>
<polygon fill="#ffffff" stroke="black" points="710.36,-116.75 482.36,-116.75 482.36,0 710.36,0 710.36,-116.75"/>
<polygon fill="none" stroke="black" points="482.36,-93 482.36,-116.75 710.36,-116.75 710.36,-93 482.36,-93"/>
<text text-anchor="start" x="584.73" y="-99.45" font-family="arial" font-size="14.00">WD</text>
<polygon fill="none" stroke="black" points="482.36,-69.25 482.36,-93 710.36,-93 710.36,-69.25 482.36,-69.25"/>
<text text-anchor="start" x="589.23" y="-75.7" font-family="arial" font-size="14.00">1x</text>
<text text-anchor="start" x="558.61" y="-53.95" font-family="arial" font-size="14.00"> </text>
<text text-anchor="start" x="484.36" y="-34.2" font-family="arial" font-size="14.00">MC508_STEP:8:WDOG&#45;</text>
<text text-anchor="start" x="640.61" y="-34.2" font-family="arial" font-size="14.00"> &#160;&#160;&#160;&#160;1:BU &#160;&#160;&#160;</text>
<polygon fill="#000000" stroke="none" points="482.36,-27.75 482.36,-29.75 710.36,-29.75 710.36,-27.75 482.36,-27.75"/>
<polygon fill="#0066ff" stroke="none" points="482.36,-25.75 482.36,-27.75 710.36,-27.75 710.36,-25.75 482.36,-25.75"/>
<polygon fill="#0066ff" stroke="none" points="482.36,-23.75 482.36,-25.75 710.36,-25.75 710.36,-23.75 482.36,-23.75"/>
<polygon fill="#0066ff" stroke="none" points="482.36,-21.75 482.36,-23.75 710.36,-23.75 710.36,-21.75 482.36,-21.75"/>
<polygon fill="#000000" stroke="none" points="482.36,-19.75 482.36,-21.75 710.36,-21.75 710.36,-19.75 482.36,-19.75"/>
<text text-anchor="start" x="558.61" y="-4.45" font-family="arial" font-size="14.00"> </text>
</g>
<!-- MC508_STEP&#45;&#45;WD -->
<g id="edge21" class="edge">
<title>MC508_STEP:e&#45;&#45;WD:w</title>
<path fill="none" stroke="#000000" stroke-width="2" d="M263.36,-345.63C433.53,-351.11 303.76,-26.23 481.36,-20.75"/>
<path fill="none" stroke="#0066ff" stroke-width="2" d="M263.36,-347.63C435.39,-350.37 305.62,-25.49 481.36,-22.75"/>
<path fill="none" stroke="#0066ff" stroke-width="2" d="M263.36,-349.62C437.24,-349.62 307.48,-24.75 481.36,-24.75"/>
<path fill="none" stroke="#0066ff" stroke-width="2" d="M263.36,-351.62C439.1,-348.88 309.33,-24.01 481.36,-26.75"/>
<path fill="none" stroke="#000000" stroke-width="2" d="M263.36,-353.62C440.96,-348.14 311.19,-23.27 481.36,-28.75"/>
</g>
<!-- DRV_A -->
<g id="node2" class="node">
<title>DRV_A</title>
<polygon fill="#ffffff" stroke="black" points="1903.73,-826.25 1741.98,-826.25 1741.98,-612.5 1903.73,-612.5 1903.73,-826.25"/>
<polygon fill="none" stroke="black" points="1741.98,-802.5 1741.98,-826.25 1903.73,-826.25 1903.73,-802.5 1741.98,-802.5"/>
<text text-anchor="start" x="1800.36" y="-808.95" font-family="arial" font-size="14.00">DRV_A</text>
<polygon fill="none" stroke="black" points="1741.98,-778.75 1741.98,-802.5 1854.36,-802.5 1854.36,-778.75 1741.98,-778.75"/>
<text text-anchor="start" x="1751.67" y="-785.2" font-family="arial" font-size="14.00">Screw Terminal</text>
<polygon fill="none" stroke="black" points="1854.36,-778.75 1854.36,-802.5 1903.73,-802.5 1903.73,-778.75 1854.36,-778.75"/>
<text text-anchor="start" x="1864.05" y="-785.2" font-family="arial" font-size="14.00">6&#45;pin</text>
<polygon fill="none" stroke="black" points="1741.98,-755 1741.98,-778.75 1786.4,-778.75 1786.4,-755 1741.98,-755"/>
<text text-anchor="start" x="1760.44" y="-761.45" font-family="arial" font-size="14.00">1</text>
<polygon fill="none" stroke="black" points="1786.4,-755 1786.4,-778.75 1859.32,-778.75 1859.32,-755 1786.4,-755"/>
<text text-anchor="start" x="1805.61" y="-761.45" font-family="arial" font-size="14.00">PUL+</text>
<polygon fill="none" stroke="black" points="1859.32,-755 1859.32,-778.75 1903.73,-778.75 1903.73,-755 1859.32,-755"/>
<text text-anchor="start" x="1877.78" y="-761.45" font-family="arial" font-size="14.00">1</text>
<polygon fill="none" stroke="black" points="1741.98,-731.25 1741.98,-755 1786.4,-755 1786.4,-731.25 1741.98,-731.25"/>
<text text-anchor="start" x="1760.44" y="-737.7" font-family="arial" font-size="14.00">2</text>
<polygon fill="none" stroke="black" points="1786.4,-731.25 1786.4,-755 1859.32,-755 1859.32,-731.25 1786.4,-731.25"/>
<text text-anchor="start" x="1807.48" y="-737.7" font-family="arial" font-size="14.00">PUL&#45;</text>
<polygon fill="none" stroke="black" points="1859.32,-731.25 1859.32,-755 1903.73,-755 1903.73,-731.25 1859.32,-731.25"/>
<text text-anchor="start" x="1877.78" y="-737.7" font-family="arial" font-size="14.00">2</text>
<polygon fill="none" stroke="black" points="1741.98,-707.5 1741.98,-731.25 1786.4,-731.25 1786.4,-707.5 1741.98,-707.5"/>
<text text-anchor="start" x="1760.44" y="-713.95" font-family="arial" font-size="14.00">3</text>
<polygon fill="none" stroke="black" points="1786.4,-707.5 1786.4,-731.25 1859.32,-731.25 1859.32,-707.5 1786.4,-707.5"/>
<text text-anchor="start" x="1807.11" y="-713.95" font-family="arial" font-size="14.00">DIR+</text>
<polygon fill="none" stroke="black" points="1859.32,-707.5 1859.32,-731.25 1903.73,-731.25 1903.73,-707.5 1859.32,-707.5"/>
<text text-anchor="start" x="1877.78" y="-713.95" font-family="arial" font-size="14.00">3</text>
<polygon fill="none" stroke="black" points="1741.98,-683.75 1741.98,-707.5 1786.4,-707.5 1786.4,-683.75 1741.98,-683.75"/>
<text text-anchor="start" x="1760.44" y="-690.2" font-family="arial" font-size="14.00">4</text>
<polygon fill="none" stroke="black" points="1786.4,-683.75 1786.4,-707.5 1859.32,-707.5 1859.32,-683.75 1786.4,-683.75"/>
<text text-anchor="start" x="1808.98" y="-690.2" font-family="arial" font-size="14.00">DIR&#45;</text>
<polygon fill="none" stroke="black" points="1859.32,-683.75 1859.32,-707.5 1903.73,-707.5 1903.73,-683.75 1859.32,-683.75"/>
<text text-anchor="start" x="1877.78" y="-690.2" font-family="arial" font-size="14.00">4</text>
<polygon fill="none" stroke="black" points="1741.98,-660 1741.98,-683.75 1786.4,-683.75 1786.4,-660 1741.98,-660"/>
<text text-anchor="start" x="1760.44" y="-666.45" font-family="arial" font-size="14.00">5</text>
<polygon fill="none" stroke="black" points="1786.4,-660 1786.4,-683.75 1859.32,-683.75 1859.32,-660 1786.4,-660"/>
<text text-anchor="start" x="1804.86" y="-666.45" font-family="arial" font-size="14.00">ENA+</text>
<polygon fill="none" stroke="black" points="1859.32,-660 1859.32,-683.75 1903.73,-683.75 1903.73,-660 1859.32,-660"/>
<text text-anchor="start" x="1877.78" y="-666.45" font-family="arial" font-size="14.00">5</text>
<polygon fill="none" stroke="black" points="1741.98,-636.25 1741.98,-660 1786.4,-660 1786.4,-636.25 1741.98,-636.25"/>
<text text-anchor="start" x="1760.44" y="-642.7" font-family="arial" font-size="14.00">6</text>
<polygon fill="none" stroke="black" points="1786.4,-636.25 1786.4,-660 1859.32,-660 1859.32,-636.25 1786.4,-636.25"/>
<text text-anchor="start" x="1806.73" y="-642.7" font-family="arial" font-size="14.00">ENA&#45;</text>
<polygon fill="none" stroke="black" points="1859.32,-636.25 1859.32,-660 1903.73,-660 1903.73,-636.25 1859.32,-636.25"/>
<text text-anchor="start" x="1877.78" y="-642.7" font-family="arial" font-size="14.00">6</text>
<polygon fill="none" stroke="black" points="1741.98,-612.5 1741.98,-636.25 1903.73,-636.25 1903.73,-612.5 1741.98,-612.5"/>
<text text-anchor="start" x="1745.98" y="-618.95" font-family="arial" font-size="14.00">KL&#45;4030 Driver A (Axis N)</text>
</g>
<!-- RA -->
<g id="node14" class="node">
<title>RA</title>
<polygon fill="#ffffff" stroke="black" points="2312.11,-641.75 2056.36,-641.75 2056.36,-525 2312.11,-525 2312.11,-641.75"/>
<polygon fill="none" stroke="black" points="2056.36,-618 2056.36,-641.75 2312.11,-641.75 2312.11,-618 2056.36,-618"/>
<text text-anchor="start" x="2174.86" y="-624.45" font-family="arial" font-size="14.00">RA</text>
<polygon fill="none" stroke="black" points="2056.36,-594.25 2056.36,-618 2312.11,-618 2312.11,-594.25 2056.36,-594.25"/>
<text text-anchor="start" x="2177.11" y="-600.7" font-family="arial" font-size="14.00">1x</text>
<text text-anchor="start" x="2102.61" y="-578.95" font-family="arial" font-size="14.00"> </text>
<text text-anchor="start" x="2058.36" y="-559.2" font-family="arial" font-size="14.00">DRV_A:6:ENA&#45;</text>
<text text-anchor="start" x="2154.61" y="-559.2" font-family="arial" font-size="14.00"> &#160;&#160;&#160;&#160;1:BK &#160;&#160;&#160;</text>
<text text-anchor="start" x="2221.61" y="-559.2" font-family="arial" font-size="14.00">EXT5V:2:GND</text>
<polygon fill="#000000" stroke="none" points="2056.36,-552.75 2056.36,-554.75 2312.11,-554.75 2312.11,-552.75 2056.36,-552.75"/>
<polygon fill="#000000" stroke="none" points="2056.36,-550.75 2056.36,-552.75 2312.11,-552.75 2312.11,-550.75 2056.36,-550.75"/>
<polygon fill="#000000" stroke="none" points="2056.36,-548.75 2056.36,-550.75 2312.11,-550.75 2312.11,-548.75 2056.36,-548.75"/>
<polygon fill="#000000" stroke="none" points="2056.36,-546.75 2056.36,-548.75 2312.11,-548.75 2312.11,-546.75 2056.36,-546.75"/>
<polygon fill="#000000" stroke="none" points="2056.36,-544.75 2056.36,-546.75 2312.11,-546.75 2312.11,-544.75 2056.36,-544.75"/>
<text text-anchor="start" x="2102.61" y="-529.45" font-family="arial" font-size="14.00"> </text>
</g>
<!-- DRV_A&#45;&#45;RA -->
<g id="edge25" class="edge">
<title>DRV_A:e&#45;&#45;RA:w</title>
<path fill="none" stroke="#000000" stroke-width="2" d="M1904.73,-644.13C1981.08,-648.49 1972.05,-550.12 2056.36,-545.75"/>
<path fill="none" stroke="#000000" stroke-width="2" d="M1904.73,-646.13C1983.07,-648.31 1974.04,-549.93 2056.36,-547.75"/>
<path fill="none" stroke="#000000" stroke-width="2" d="M1904.73,-648.13C1985.06,-648.12 1976.03,-549.75 2056.36,-549.75"/>
<path fill="none" stroke="#000000" stroke-width="2" d="M1904.73,-650.12C1987.06,-647.94 1978.02,-549.57 2056.36,-551.75"/>
<path fill="none" stroke="#000000" stroke-width="2" d="M1904.73,-652.12C1989.05,-647.76 1980.01,-549.38 2056.36,-553.75"/>
</g>
<!-- DRV_B -->
<g id="node3" class="node">
<title>DRV_B</title>
<polygon fill="#ffffff" stroke="black" points="1912.36,-500.25 1733.36,-500.25 1733.36,-286.5 1912.36,-286.5 1912.36,-500.25"/>
<polygon fill="none" stroke="black" points="1733.36,-476.5 1733.36,-500.25 1912.36,-500.25 1912.36,-476.5 1733.36,-476.5"/>
<text text-anchor="start" x="1800.36" y="-482.95" font-family="arial" font-size="14.00">DRV_B</text>
<polygon fill="none" stroke="black" points="1733.36,-452.75 1733.36,-476.5 1854.36,-476.5 1854.36,-452.75 1733.36,-452.75"/>
<text text-anchor="start" x="1747.36" y="-459.2" font-family="arial" font-size="14.00">Screw Terminal</text>
<polygon fill="none" stroke="black" points="1854.36,-452.75 1854.36,-476.5 1912.36,-476.5 1912.36,-452.75 1854.36,-452.75"/>
<text text-anchor="start" x="1868.36" y="-459.2" font-family="arial" font-size="14.00">6&#45;pin</text>
<polygon fill="none" stroke="black" points="1733.36,-429 1733.36,-452.75 1783.53,-452.75 1783.53,-429 1733.36,-429"/>
<text text-anchor="start" x="1754.69" y="-435.45" font-family="arial" font-size="14.00">1</text>
<polygon fill="none" stroke="black" points="1783.53,-429 1783.53,-452.75 1862.19,-452.75 1862.19,-429 1783.53,-429"/>
<text text-anchor="start" x="1805.61" y="-435.45" font-family="arial" font-size="14.00">PUL+</text>
<polygon fill="none" stroke="black" points="1862.19,-429 1862.19,-452.75 1912.36,-452.75 1912.36,-429 1862.19,-429"/>
<text text-anchor="start" x="1883.53" y="-435.45" font-family="arial" font-size="14.00">1</text>
<polygon fill="none" stroke="black" points="1733.36,-405.25 1733.36,-429 1783.53,-429 1783.53,-405.25 1733.36,-405.25"/>
<text text-anchor="start" x="1754.69" y="-411.7" font-family="arial" font-size="14.00">2</text>
<polygon fill="none" stroke="black" points="1783.53,-405.25 1783.53,-429 1862.19,-429 1862.19,-405.25 1783.53,-405.25"/>
<text text-anchor="start" x="1807.48" y="-411.7" font-family="arial" font-size="14.00">PUL&#45;</text>
<polygon fill="none" stroke="black" points="1862.19,-405.25 1862.19,-429 1912.36,-429 1912.36,-405.25 1862.19,-405.25"/>
<text text-anchor="start" x="1883.53" y="-411.7" font-family="arial" font-size="14.00">2</text>
<polygon fill="none" stroke="black" points="1733.36,-381.5 1733.36,-405.25 1783.53,-405.25 1783.53,-381.5 1733.36,-381.5"/>
<text text-anchor="start" x="1754.69" y="-387.95" font-family="arial" font-size="14.00">3</text>
<polygon fill="none" stroke="black" points="1783.53,-381.5 1783.53,-405.25 1862.19,-405.25 1862.19,-381.5 1783.53,-381.5"/>
<text text-anchor="start" x="1807.11" y="-387.95" font-family="arial" font-size="14.00">DIR+</text>
<polygon fill="none" stroke="black" points="1862.19,-381.5 1862.19,-405.25 1912.36,-405.25 1912.36,-381.5 1862.19,-381.5"/>
<text text-anchor="start" x="1883.53" y="-387.95" font-family="arial" font-size="14.00">3</text>
<polygon fill="none" stroke="black" points="1733.36,-357.75 1733.36,-381.5 1783.53,-381.5 1783.53,-357.75 1733.36,-357.75"/>
<text text-anchor="start" x="1754.69" y="-364.2" font-family="arial" font-size="14.00">4</text>
<polygon fill="none" stroke="black" points="1783.53,-357.75 1783.53,-381.5 1862.19,-381.5 1862.19,-357.75 1783.53,-357.75"/>
<text text-anchor="start" x="1808.98" y="-364.2" font-family="arial" font-size="14.00">DIR&#45;</text>
<polygon fill="none" stroke="black" points="1862.19,-357.75 1862.19,-381.5 1912.36,-381.5 1912.36,-357.75 1862.19,-357.75"/>
<text text-anchor="start" x="1883.53" y="-364.2" font-family="arial" font-size="14.00">4</text>
<polygon fill="none" stroke="black" points="1733.36,-334 1733.36,-357.75 1783.53,-357.75 1783.53,-334 1733.36,-334"/>
<text text-anchor="start" x="1754.69" y="-340.45" font-family="arial" font-size="14.00">5</text>
<polygon fill="none" stroke="black" points="1783.53,-334 1783.53,-357.75 1862.19,-357.75 1862.19,-334 1783.53,-334"/>
<text text-anchor="start" x="1804.86" y="-340.45" font-family="arial" font-size="14.00">ENA+</text>
<polygon fill="none" stroke="black" points="1862.19,-334 1862.19,-357.75 1912.36,-357.75 1912.36,-334 1862.19,-334"/>
<text text-anchor="start" x="1883.53" y="-340.45" font-family="arial" font-size="14.00">5</text>
<polygon fill="none" stroke="black" points="1733.36,-310.25 1733.36,-334 1783.53,-334 1783.53,-310.25 1733.36,-310.25"/>
<text text-anchor="start" x="1754.69" y="-316.7" font-family="arial" font-size="14.00">6</text>
<polygon fill="none" stroke="black" points="1783.53,-310.25 1783.53,-334 1862.19,-334 1862.19,-310.25 1783.53,-310.25"/>
<text text-anchor="start" x="1806.73" y="-316.7" font-family="arial" font-size="14.00">ENA&#45;</text>
<polygon fill="none" stroke="black" points="1862.19,-310.25 1862.19,-334 1912.36,-334 1912.36,-310.25 1862.19,-310.25"/>
<text text-anchor="start" x="1883.53" y="-316.7" font-family="arial" font-size="14.00">6</text>
<polygon fill="none" stroke="black" points="1733.36,-286.5 1733.36,-310.25 1912.36,-310.25 1912.36,-286.5 1733.36,-286.5"/>
<text text-anchor="start" x="1737.36" y="-292.95" font-family="arial" font-size="14.00">KL&#45;4030 Driver B (Axis N+8)</text>
</g>
<!-- RB -->
<g id="node16" class="node">
<title>RB</title>
<polygon fill="#ffffff" stroke="black" points="2312.11,-414.75 2056.36,-414.75 2056.36,-298 2312.11,-298 2312.11,-414.75"/>
<polygon fill="none" stroke="black" points="2056.36,-391 2056.36,-414.75 2312.11,-414.75 2312.11,-391 2056.36,-391"/>
<text text-anchor="start" x="2174.86" y="-397.45" font-family="arial" font-size="14.00">RB</text>
<polygon fill="none" stroke="black" points="2056.36,-367.25 2056.36,-391 2312.11,-391 2312.11,-367.25 2056.36,-367.25"/>
<text text-anchor="start" x="2177.11" y="-373.7" font-family="arial" font-size="14.00">1x</text>
<text text-anchor="start" x="2102.61" y="-351.95" font-family="arial" font-size="14.00"> </text>
<text text-anchor="start" x="2058.36" y="-332.2" font-family="arial" font-size="14.00">DRV_B:6:ENA&#45;</text>
<text text-anchor="start" x="2154.61" y="-332.2" font-family="arial" font-size="14.00"> &#160;&#160;&#160;&#160;1:BK &#160;&#160;&#160;</text>
<text text-anchor="start" x="2221.61" y="-332.2" font-family="arial" font-size="14.00">EXT5V:2:GND</text>
<polygon fill="#000000" stroke="none" points="2056.36,-325.75 2056.36,-327.75 2312.11,-327.75 2312.11,-325.75 2056.36,-325.75"/>
<polygon fill="#000000" stroke="none" points="2056.36,-323.75 2056.36,-325.75 2312.11,-325.75 2312.11,-323.75 2056.36,-323.75"/>
<polygon fill="#000000" stroke="none" points="2056.36,-321.75 2056.36,-323.75 2312.11,-323.75 2312.11,-321.75 2056.36,-321.75"/>
<polygon fill="#000000" stroke="none" points="2056.36,-319.75 2056.36,-321.75 2312.11,-321.75 2312.11,-319.75 2056.36,-319.75"/>
<polygon fill="#000000" stroke="none" points="2056.36,-317.75 2056.36,-319.75 2312.11,-319.75 2312.11,-317.75 2056.36,-317.75"/>
<text text-anchor="start" x="2102.61" y="-302.45" font-family="arial" font-size="14.00"> </text>
</g>
<!-- DRV_B&#45;&#45;RB -->
<g id="edge31" class="edge">
<title>DRV_B:e&#45;&#45;RB:w</title>
<path fill="none" stroke="#000000" stroke-width="2" d="M1912.36,-318.13C1976.52,-318.13 1992.52,-318.75 2056.36,-318.75"/>
<path fill="none" stroke="#000000" stroke-width="2" d="M1912.36,-320.13C1976.44,-320.13 1992.44,-320.75 2056.36,-320.75"/>
<path fill="none" stroke="#000000" stroke-width="2" d="M1912.36,-322.12C1976.36,-322.13 1992.36,-322.75 2056.36,-322.75"/>
<path fill="none" stroke="#000000" stroke-width="2" d="M1912.36,-324.12C1976.28,-324.12 1992.28,-324.75 2056.36,-324.75"/>
<path fill="none" stroke="#000000" stroke-width="2" d="M1912.36,-326.12C1976.2,-326.12 1992.2,-326.75 2056.36,-326.75"/>
</g>
<!-- EXT5V -->
<g id="node4" class="node">
<title>EXT5V</title>
<polygon fill="#ffffff" stroke="black" points="2626.11,-406.75 2456.11,-406.75 2456.11,-288 2626.11,-288 2626.11,-406.75"/>
<polygon fill="none" stroke="black" points="2456.11,-383 2456.11,-406.75 2626.11,-406.75 2626.11,-383 2456.11,-383"/>
<text text-anchor="start" x="2519.73" y="-389.45" font-family="arial" font-size="14.00">EXT5V</text>
<polygon fill="none" stroke="black" points="2456.11,-359.25 2456.11,-383 2567.73,-383 2567.73,-359.25 2456.11,-359.25"/>
<text text-anchor="start" x="2470.3" y="-365.7" font-family="arial" font-size="14.00">Power Supply</text>
<polygon fill="none" stroke="black" points="2567.73,-359.25 2567.73,-383 2626.11,-383 2626.11,-359.25 2567.73,-359.25"/>
<text text-anchor="start" x="2581.92" y="-365.7" font-family="arial" font-size="14.00">2&#45;pin</text>
<polygon fill="none" stroke="black" points="2456.11,-335.5 2456.11,-359.25 2505.03,-359.25 2505.03,-335.5 2456.11,-335.5"/>
<text text-anchor="start" x="2476.82" y="-341.95" font-family="arial" font-size="14.00">1</text>
<polygon fill="none" stroke="black" points="2505.03,-335.5 2505.03,-359.25 2577.19,-359.25 2577.19,-335.5 2505.03,-335.5"/>
<text text-anchor="start" x="2528.73" y="-341.95" font-family="arial" font-size="14.00">+5V</text>
<polygon fill="none" stroke="black" points="2577.19,-335.5 2577.19,-359.25 2626.11,-359.25 2626.11,-335.5 2577.19,-335.5"/>
<text text-anchor="start" x="2597.9" y="-341.95" font-family="arial" font-size="14.00">1</text>
<polygon fill="none" stroke="black" points="2456.11,-311.75 2456.11,-335.5 2505.03,-335.5 2505.03,-311.75 2456.11,-311.75"/>
<text text-anchor="start" x="2476.82" y="-318.2" font-family="arial" font-size="14.00">2</text>
<polygon fill="none" stroke="black" points="2505.03,-311.75 2505.03,-335.5 2577.19,-335.5 2577.19,-311.75 2505.03,-311.75"/>
<text text-anchor="start" x="2525.73" y="-318.2" font-family="arial" font-size="14.00">GND</text>
<polygon fill="none" stroke="black" points="2577.19,-311.75 2577.19,-335.5 2626.11,-335.5 2626.11,-311.75 2577.19,-311.75"/>
<text text-anchor="start" x="2597.9" y="-318.2" font-family="arial" font-size="14.00">2</text>
<polygon fill="none" stroke="black" points="2456.11,-288 2456.11,-311.75 2626.11,-311.75 2626.11,-288 2456.11,-288"/>
<text text-anchor="start" x="2460.11" y="-294.45" font-family="arial" font-size="14.00">External 5V (enable circuit)</text>
</g>
<!-- PWR -->
<g id="node10" class="node">
<title>PWR</title>
<polygon fill="#ffffff" stroke="black" points="3023.61,-396.75 2770.11,-396.75 2770.11,-280 3023.61,-280 3023.61,-396.75"/>
<polygon fill="none" stroke="black" points="2770.11,-373 2770.11,-396.75 3023.61,-396.75 3023.61,-373 2770.11,-373"/>
<text text-anchor="start" x="2880.73" y="-379.45" font-family="arial" font-size="14.00">PWR</text>
<polygon fill="none" stroke="black" points="2770.11,-349.25 2770.11,-373 3023.61,-373 3023.61,-349.25 2770.11,-349.25"/>
<text text-anchor="start" x="2889.73" y="-355.7" font-family="arial" font-size="14.00">1x</text>
<text text-anchor="start" x="2811.48" y="-333.95" font-family="arial" font-size="14.00"> </text>
<text text-anchor="start" x="2772.11" y="-314.2" font-family="arial" font-size="14.00">EXT5V:1:+5V</text>
<text text-anchor="start" x="2858.61" y="-314.2" font-family="arial" font-size="14.00"> &#160;&#160;&#160;&#160;1:RD &#160;&#160;&#160;</text>
<text text-anchor="start" x="2927.11" y="-314.2" font-family="arial" font-size="14.00">ESTOP:1:COM</text>
<polygon fill="#000000" stroke="none" points="2770.11,-307.75 2770.11,-309.75 3023.61,-309.75 3023.61,-307.75 2770.11,-307.75"/>
<polygon fill="#ff0000" stroke="none" points="2770.11,-305.75 2770.11,-307.75 3023.61,-307.75 3023.61,-305.75 2770.11,-305.75"/>
<polygon fill="#ff0000" stroke="none" points="2770.11,-303.75 2770.11,-305.75 3023.61,-305.75 3023.61,-303.75 2770.11,-303.75"/>
<polygon fill="#ff0000" stroke="none" points="2770.11,-301.75 2770.11,-303.75 3023.61,-303.75 3023.61,-301.75 2770.11,-301.75"/>
<polygon fill="#000000" stroke="none" points="2770.11,-299.75 2770.11,-301.75 3023.61,-301.75 3023.61,-299.75 2770.11,-299.75"/>
<text text-anchor="start" x="2811.48" y="-284.45" font-family="arial" font-size="14.00"> </text>
</g>
<!-- EXT5V&#45;&#45;PWR -->
<g id="edge17" class="edge">
<title>EXT5V:e&#45;&#45;PWR:w</title>
<path fill="none" stroke="#000000" stroke-width="2" d="M2626.11,-343.38C2688.97,-346.42 2699.48,-303.79 2770.11,-300.75"/>
<path fill="none" stroke="#ff0000" stroke-width="2" d="M2626.11,-345.38C2690.91,-346.9 2701.42,-304.27 2770.11,-302.75"/>
<path fill="none" stroke="#ff0000" stroke-width="2" d="M2626.11,-347.38C2692.85,-347.37 2703.36,-304.75 2770.11,-304.75"/>
<path fill="none" stroke="#ff0000" stroke-width="2" d="M2626.11,-349.37C2694.8,-347.85 2705.31,-305.23 2770.11,-306.75"/>
<path fill="none" stroke="#000000" stroke-width="2" d="M2626.11,-351.37C2696.74,-348.33 2707.25,-305.71 2770.11,-308.75"/>
</g>
<!-- ESTOP -->
<g id="node5" class="node">
<title>ESTOP</title>
<polygon fill="#ffffff" stroke="black" points="3340.61,-343.75 3167.61,-343.75 3167.61,-225 3340.61,-225 3340.61,-343.75"/>
<polygon fill="none" stroke="black" points="3167.61,-320 3167.61,-343.75 3340.61,-343.75 3340.61,-320 3167.61,-320"/>
<text text-anchor="start" x="3230.86" y="-326.45" font-family="arial" font-size="14.00">ESTOP</text>
<polygon fill="none" stroke="black" points="3167.61,-296.25 3167.61,-320 3267.11,-320 3267.11,-296.25 3167.61,-296.25"/>
<text text-anchor="start" x="3171.61" y="-302.7" font-family="arial" font-size="14.00">NC Pushbutton</text>
<polygon fill="none" stroke="black" points="3267.11,-296.25 3267.11,-320 3305.11,-320 3305.11,-296.25 3267.11,-296.25"/>
<text text-anchor="start" x="3271.11" y="-302.7" font-family="arial" font-size="14.00">2&#45;pin</text>
<polygon fill="none" stroke="black" points="3305.11,-296.25 3305.11,-320 3332.61,-320 3332.61,-296.25 3305.11,-296.25"/>
<text text-anchor="start" x="3309.11" y="-302.7" font-family="arial" font-size="14.00">RD</text>
<polygon fill="#ff0000" stroke="none" points="3332.61,-296.25 3332.61,-320 3340.61,-320 3340.61,-296.25 3332.61,-296.25"/>
<polygon fill="none" stroke="black" points="3332.61,-296.25 3332.61,-320 3340.61,-320 3340.61,-296.25 3332.61,-296.25"/>
<polygon fill="none" stroke="black" points="3167.61,-272.5 3167.61,-296.25 3216.78,-296.25 3216.78,-272.5 3167.61,-272.5"/>
<text text-anchor="start" x="3188.44" y="-278.95" font-family="arial" font-size="14.00">1</text>
<polygon fill="none" stroke="black" points="3216.78,-272.5 3216.78,-296.25 3291.44,-296.25 3291.44,-272.5 3216.78,-272.5"/>
<text text-anchor="start" x="3237.61" y="-278.95" font-family="arial" font-size="14.00">COM</text>
<polygon fill="none" stroke="black" points="3291.44,-272.5 3291.44,-296.25 3340.61,-296.25 3340.61,-272.5 3291.44,-272.5"/>
<text text-anchor="start" x="3312.28" y="-278.95" font-family="arial" font-size="14.00">1</text>
<polygon fill="none" stroke="black" points="3167.61,-248.75 3167.61,-272.5 3216.78,-272.5 3216.78,-248.75 3167.61,-248.75"/>
<text text-anchor="start" x="3188.44" y="-255.2" font-family="arial" font-size="14.00">2</text>
<polygon fill="none" stroke="black" points="3216.78,-248.75 3216.78,-272.5 3291.44,-272.5 3291.44,-248.75 3216.78,-248.75"/>
<text text-anchor="start" x="3244.36" y="-255.2" font-family="arial" font-size="14.00">NC</text>
<polygon fill="none" stroke="black" points="3291.44,-248.75 3291.44,-272.5 3340.61,-272.5 3340.61,-248.75 3291.44,-248.75"/>
<text text-anchor="start" x="3312.28" y="-255.2" font-family="arial" font-size="14.00">2</text>
<polygon fill="none" stroke="black" points="3167.61,-225 3167.61,-248.75 3340.61,-248.75 3340.61,-225 3167.61,-225"/>
<text text-anchor="start" x="3203.86" y="-231.45" font-family="arial" font-size="14.00">Emergency Stop</text>
</g>
<!-- ES -->
<g id="node11" class="node">
<title>ES</title>
<polygon fill="#ffffff" stroke="black" points="3798.11,-329.75 3484.61,-329.75 3484.61,-213 3798.11,-213 3798.11,-329.75"/>
<polygon fill="none" stroke="black" points="3484.61,-306 3484.61,-329.75 3798.11,-329.75 3798.11,-306 3484.61,-306"/>
<text text-anchor="start" x="3632.36" y="-312.45" font-family="arial" font-size="14.00">ES</text>
<polygon fill="none" stroke="black" points="3484.61,-282.25 3484.61,-306 3798.11,-306 3798.11,-282.25 3484.61,-282.25"/>
<text text-anchor="start" x="3634.23" y="-288.7" font-family="arial" font-size="14.00">1x</text>
<text text-anchor="start" x="3525.23" y="-266.95" font-family="arial" font-size="14.00"> </text>
<text text-anchor="start" x="3486.61" y="-247.2" font-family="arial" font-size="14.00">ESTOP:2:NC</text>
<text text-anchor="start" x="3571.61" y="-247.2" font-family="arial" font-size="14.00"> &#160;&#160;&#160;&#160;1:RD &#160;&#160;&#160;</text>
<text text-anchor="start" x="3640.11" y="-247.2" font-family="arial" font-size="14.00">MC508_STEP:7:WDOG+</text>
<polygon fill="#000000" stroke="none" points="3484.61,-240.75 3484.61,-242.75 3798.11,-242.75 3798.11,-240.75 3484.61,-240.75"/>
<polygon fill="#ff0000" stroke="none" points="3484.61,-238.75 3484.61,-240.75 3798.11,-240.75 3798.11,-238.75 3484.61,-238.75"/>
<polygon fill="#ff0000" stroke="none" points="3484.61,-236.75 3484.61,-238.75 3798.11,-238.75 3798.11,-236.75 3484.61,-236.75"/>
<polygon fill="#ff0000" stroke="none" points="3484.61,-234.75 3484.61,-236.75 3798.11,-236.75 3798.11,-234.75 3484.61,-234.75"/>
<polygon fill="#000000" stroke="none" points="3484.61,-232.75 3484.61,-234.75 3798.11,-234.75 3798.11,-232.75 3484.61,-232.75"/>
<text text-anchor="start" x="3525.23" y="-217.45" font-family="arial" font-size="14.00"> </text>
</g>
<!-- ESTOP&#45;&#45;ES -->
<g id="edge19" class="edge">
<title>ESTOP:e&#45;&#45;ES:w</title>
<path fill="none" stroke="#000000" stroke-width="2" d="M3340.61,-256.63C3402.03,-258.49 3416.42,-235.62 3484.61,-233.75"/>
<path fill="none" stroke="#ff0000" stroke-width="2" d="M3340.61,-258.63C3403.72,-259.56 3418.11,-236.68 3484.61,-235.75"/>
<path fill="none" stroke="#ff0000" stroke-width="2" d="M3340.61,-260.63C3405.41,-260.62 3419.81,-237.75 3484.61,-237.75"/>
<path fill="none" stroke="#ff0000" stroke-width="2" d="M3340.61,-262.62C3407.1,-261.69 3421.5,-238.82 3484.61,-239.75"/>
<path fill="none" stroke="#000000" stroke-width="2" d="M3340.61,-264.62C3408.8,-262.76 3423.19,-239.88 3484.61,-241.75"/>
</g>
<!-- R1 -->
<g id="node6" class="node">
<title>R1</title>
<polygon fill="#ffffff" stroke="black" points="1158.36,-239.12 1037.11,-239.12 1037.11,-191.62 1158.36,-191.62 1158.36,-239.12"/>
<polygon fill="none" stroke="black" points="1037.11,-215.38 1037.11,-239.12 1158.36,-239.12 1158.36,-215.38 1037.11,-215.38"/>
<text text-anchor="start" x="1041.48" y="-221.82" font-family="arial" font-size="14.00">Resistor 330&#45;470R</text>
<polygon fill="none" stroke="black" points="1037.11,-191.62 1037.11,-215.38 1158.36,-215.38 1158.36,-191.62 1037.11,-191.62"/>
<text text-anchor="start" x="1041.11" y="-198.07" font-family="arial" font-size="14.00">ENA current limit A</text>
</g>
<!-- EA -->
<g id="node13" class="node">
<title>EA</title>
<polygon fill="#ffffff" stroke="black" points="1589.36,-646.75 1410.11,-646.75 1410.11,-530 1589.36,-530 1589.36,-646.75"/>
<polygon fill="none" stroke="black" points="1410.11,-623 1410.11,-646.75 1589.36,-646.75 1589.36,-623 1410.11,-623"/>
<text text-anchor="start" x="1490.73" y="-629.45" font-family="arial" font-size="14.00">EA</text>
<polygon fill="none" stroke="black" points="1410.11,-599.25 1410.11,-623 1589.36,-623 1589.36,-599.25 1410.11,-599.25"/>
<text text-anchor="start" x="1492.61" y="-605.7" font-family="arial" font-size="14.00">1x</text>
<text text-anchor="start" x="1412.11" y="-583.95" font-family="arial" font-size="14.00"> </text>
<text text-anchor="start" x="1419.86" y="-564.2" font-family="arial" font-size="14.00"> &#160;&#160;&#160;&#160;1:OG &#160;&#160;&#160;</text>
<text text-anchor="start" x="1491.36" y="-564.2" font-family="arial" font-size="14.00">DRV_A:5:ENA+</text>
<polygon fill="#000000" stroke="none" points="1410.11,-557.75 1410.11,-559.75 1589.36,-559.75 1589.36,-557.75 1410.11,-557.75"/>
<polygon fill="#ff8000" stroke="none" points="1410.11,-555.75 1410.11,-557.75 1589.36,-557.75 1589.36,-555.75 1410.11,-555.75"/>
<polygon fill="#ff8000" stroke="none" points="1410.11,-553.75 1410.11,-555.75 1589.36,-555.75 1589.36,-553.75 1410.11,-553.75"/>
<polygon fill="#ff8000" stroke="none" points="1410.11,-551.75 1410.11,-553.75 1589.36,-553.75 1589.36,-551.75 1410.11,-551.75"/>
<polygon fill="#000000" stroke="none" points="1410.11,-549.75 1410.11,-551.75 1589.36,-551.75 1589.36,-549.75 1410.11,-549.75"/>
<text text-anchor="start" x="1412.11" y="-534.45" font-family="arial" font-size="14.00"> </text>
</g>
<!-- R1&#45;&#45;EA -->
<g id="edge23" class="edge">
<title>R1:e&#45;&#45;EA:w</title>
<path fill="none" stroke="#000000" stroke-width="2" d="M1159.36,-211.38C1350.65,-216.75 1226.33,-556.13 1410.11,-550.75"/>
<path fill="none" stroke="#ff8000" stroke-width="2" d="M1159.36,-213.38C1348.78,-216.06 1224.45,-555.44 1410.11,-552.75"/>
<path fill="none" stroke="#ff8000" stroke-width="2" d="M1159.36,-215.38C1346.9,-215.38 1222.57,-554.75 1410.11,-554.75"/>
<path fill="none" stroke="#ff8000" stroke-width="2" d="M1159.36,-217.37C1345.02,-214.69 1220.69,-554.06 1410.11,-556.75"/>
<path fill="none" stroke="#000000" stroke-width="2" d="M1159.36,-219.37C1343.14,-214 1218.82,-553.37 1410.11,-558.75"/>
</g>
<!-- EB -->
<g id="node15" class="node">
<title>EB</title>
<polygon fill="#ffffff" stroke="black" points="1541.36,-306.75 1458.11,-306.75 1458.11,-190 1541.36,-190 1541.36,-306.75"/>
<polygon fill="none" stroke="black" points="1458.11,-283 1458.11,-306.75 1541.36,-306.75 1541.36,-283 1458.11,-283"/>
<text text-anchor="start" x="1490.73" y="-289.45" font-family="arial" font-size="14.00">EB</text>
<polygon fill="none" stroke="black" points="1458.11,-259.25 1458.11,-283 1541.36,-283 1541.36,-259.25 1458.11,-259.25"/>
<text text-anchor="start" x="1492.61" y="-265.7" font-family="arial" font-size="14.00">1x</text>
<text text-anchor="start" x="1460.11" y="-243.95" font-family="arial" font-size="14.00"> </text>
<text text-anchor="start" x="1467.86" y="-224.2" font-family="arial" font-size="14.00"> &#160;&#160;&#160;&#160;1:OG &#160;&#160;&#160;</text>
<polygon fill="#000000" stroke="none" points="1458.11,-217.75 1458.11,-219.75 1541.36,-219.75 1541.36,-217.75 1458.11,-217.75"/>
<polygon fill="#ff8000" stroke="none" points="1458.11,-215.75 1458.11,-217.75 1541.36,-217.75 1541.36,-215.75 1458.11,-215.75"/>
<polygon fill="#ff8000" stroke="none" points="1458.11,-213.75 1458.11,-215.75 1541.36,-215.75 1541.36,-213.75 1458.11,-213.75"/>
<polygon fill="#ff8000" stroke="none" points="1458.11,-211.75 1458.11,-213.75 1541.36,-213.75 1541.36,-211.75 1458.11,-211.75"/>
<polygon fill="#000000" stroke="none" points="1458.11,-209.75 1458.11,-211.75 1541.36,-211.75 1541.36,-209.75 1458.11,-209.75"/>
<text text-anchor="start" x="1460.11" y="-194.45" font-family="arial" font-size="14.00"> </text>
</g>
<!-- R1&#45;&#45;EB -->
<g id="edge27" class="edge">
<title>R1:e&#45;&#45;EB:w</title>
<path fill="none" stroke="#000000" stroke-width="2" d="M1159.36,-211.38C1291.62,-211.38 1324.7,-210.75 1457.11,-210.75"/>
<path fill="none" stroke="#ff8000" stroke-width="2" d="M1159.36,-213.38C1291.66,-213.38 1324.74,-212.75 1457.11,-212.75"/>
<path fill="none" stroke="#ff8000" stroke-width="2" d="M1159.36,-215.37C1291.69,-215.38 1324.78,-214.75 1457.11,-214.75"/>
<path fill="none" stroke="#ff8000" stroke-width="2" d="M1159.36,-217.37C1291.73,-217.37 1324.81,-216.75 1457.11,-216.75"/>
<path fill="none" stroke="#000000" stroke-width="2" d="M1159.36,-219.37C1291.77,-219.37 1324.85,-218.75 1457.11,-218.75"/>
</g>
<!-- R2 -->
<g id="node7" class="node">
<title>R2</title>
<polygon fill="#ffffff" stroke="black" points="1883.86,-239.12 1761.86,-239.12 1761.86,-191.62 1883.86,-191.62 1883.86,-239.12"/>
<polygon fill="none" stroke="black" points="1761.86,-215.38 1761.86,-239.12 1883.86,-239.12 1883.86,-215.38 1761.86,-215.38"/>
<text text-anchor="start" x="1766.61" y="-221.82" font-family="arial" font-size="14.00">Resistor 330&#45;470R</text>
<polygon fill="none" stroke="black" points="1761.86,-191.62 1761.86,-215.38 1883.86,-215.38 1883.86,-191.62 1761.86,-191.62"/>
<text text-anchor="start" x="1765.86" y="-198.07" font-family="arial" font-size="14.00">ENA current limit B</text>
</g>
<!-- R2&#45;&#45;EB -->
<g id="edge29" class="edge">
<title>R2:e&#45;&#45;EB:w</title>
<path fill="none" stroke="#000000" stroke-width="2" d="M1884.86,-211.38C1933.88,-212 2014.23,-263.29 1761.42,-243.1 1658.89,-230.58 1637.99,-203.42 1540.92,-193.98 1501.63,-188.66 1481.85,-167.07 1460.88,-192.88 1454.06,-198.55 1449.99,-215.67 1457.11,-210.75"/>
<path fill="none" stroke="#ff8000" stroke-width="2" d="M1884.86,-213.38C1932.81,-213.69 2013.15,-264.97 1761.64,-241.11 1660.47,-229.36 1639.57,-202.2 1541.14,-191.99 1503.11,-187.3 1483.32,-165.72 1459.5,-191.44 1452.12,-198.09 1448.05,-215.21 1457.11,-212.75"/>
<path fill="none" stroke="#ff8000" stroke-width="2" d="M1884.86,-215.38C1931.73,-215.38 2012.07,-266.66 1761.86,-239.12 1662.06,-228.14 1641.16,-200.98 1541.36,-190 1504.58,-185.95 1484.8,-164.37 1458.11,-190 1450.17,-197.63 1446.1,-214.75 1457.11,-214.75"/>
<path fill="none" stroke="#ff8000" stroke-width="2" d="M1884.86,-217.37C1930.65,-217.06 2011,-268.35 1762.08,-237.14 1663.64,-226.92 1642.75,-199.76 1541.58,-188.01 1506.06,-184.6 1486.27,-163.02 1456.72,-188.56 1448.22,-197.16 1444.15,-214.29 1457.11,-216.75"/>
<path fill="none" stroke="#000000" stroke-width="2" d="M1884.86,-219.37C1929.58,-218.75 2009.92,-270.03 1762.3,-235.15 1665.23,-225.7 1644.33,-198.54 1541.8,-186.02 1507.53,-183.25 1487.74,-161.67 1455.34,-187.12 1446.28,-196.7 1442.21,-213.83 1457.11,-218.75"/>
</g>
<!-- STEPA&#45;&#45;DRV_A -->
<g id="edge2" class="edge">
<title>STEPA:e&#45;&#45;DRV_A:w</title>
<path fill="none" stroke="#000000" stroke-width="2" d="M1266.11,-767.25C1335.09,-769.31 1348.5,-793.48 1410.53,-798.4 1489.46,-806.84 1510.35,-807.52 1588.9,-798.4 1654.53,-792.66 1668.19,-765.1 1740.98,-762.88"/>
<path fill="none" stroke="#000000" stroke-width="2" d="M1266.11,-769.25C1333.34,-770.28 1346.75,-794.45 1410.32,-800.39 1489.39,-808.84 1510.28,-809.52 1589.13,-800.39 1656.32,-793.55 1669.98,-765.99 1740.98,-764.88"/>
<path fill="none" stroke="#000000" stroke-width="2" d="M1266.11,-771.25C1331.59,-771.25 1345,-795.42 1410.11,-802.38 1489.33,-810.84 1510.22,-811.52 1589.36,-802.38 1658.11,-794.43 1671.77,-766.88 1740.98,-766.87"/>
<path fill="none" stroke="#000000" stroke-width="2" d="M1266.11,-773.25C1329.84,-772.22 1343.25,-796.39 1409.9,-804.36 1489.26,-812.84 1510.15,-813.51 1589.59,-804.36 1659.91,-795.32 1673.57,-767.76 1740.98,-768.87"/>
<path fill="none" stroke="#000000" stroke-width="2" d="M1266.11,-775.25C1328.09,-773.19 1341.5,-797.36 1409.68,-806.35 1489.2,-814.84 1510.09,-815.51 1589.82,-806.35 1661.7,-796.21 1675.36,-768.65 1740.98,-770.87"/>
</g>
<!-- STEPA&#45;&#45;DRV_A -->
<g id="edge4" class="edge">
<title>STEPA:e&#45;&#45;DRV_A:w</title>
<path fill="none" stroke="#000000" stroke-width="2" d="M1266.11,-737.5C1332.19,-737.98 1347.87,-746.44 1410.26,-748.38 1489.6,-751.38 1509.62,-750.8 1589.24,-748.38 1655.25,-746.65 1671.88,-739.45 1740.98,-739.13"/>
<path fill="none" stroke="#895956" stroke-width="2" d="M1266.11,-739.5C1331.24,-739.74 1346.92,-748.2 1410.19,-750.38 1489.66,-753.38 1509.67,-752.8 1589.3,-750.38 1656.05,-748.48 1672.68,-741.29 1740.98,-741.13"/>
<path fill="none" stroke="#895956" stroke-width="2" d="M1266.11,-741.5C1330.29,-741.5 1345.97,-749.96 1410.11,-752.38 1489.72,-755.38 1509.73,-754.8 1589.36,-752.37 1656.84,-750.32 1673.47,-743.12 1740.98,-743.13"/>
<path fill="none" stroke="#895956" stroke-width="2" d="M1266.11,-743.5C1329.34,-743.26 1345.02,-751.72 1410.03,-754.37 1489.78,-757.38 1509.79,-756.8 1589.42,-754.37 1657.64,-752.15 1674.26,-744.96 1740.98,-745.12"/>
<path fill="none" stroke="#000000" stroke-width="2" d="M1266.11,-745.5C1328.39,-745.02 1344.07,-753.48 1409.96,-756.37 1489.83,-759.38 1509.85,-758.8 1589.48,-756.37 1658.43,-753.99 1675.06,-746.8 1740.98,-747.12"/>
</g>
<!-- STEPA&#45;&#45;DRV_A -->
<g id="edge6" class="edge">
<title>STEPA:e&#45;&#45;DRV_A:w</title>
<path fill="none" stroke="#000000" stroke-width="2" d="M1266.11,-707.75C1477.77,-707.79 1530.47,-715.42 1740.98,-715.38"/>
<path fill="none" stroke="#ff0000" stroke-width="2" d="M1266.11,-709.75C1477.48,-709.77 1530.19,-717.4 1740.98,-717.38"/>
<path fill="none" stroke="#ff0000" stroke-width="2" d="M1266.11,-711.75C1477.19,-711.75 1529.9,-719.38 1740.98,-719.37"/>
<path fill="none" stroke="#ff0000" stroke-width="2" d="M1266.11,-713.75C1476.91,-713.73 1529.62,-721.35 1740.98,-721.37"/>
<path fill="none" stroke="#000000" stroke-width="2" d="M1266.11,-715.75C1476.62,-715.71 1529.33,-723.33 1740.98,-723.37"/>
</g>
<!-- STEPA&#45;&#45;DRV_A -->
<g id="edge8" class="edge">
<title>STEPA:e&#45;&#45;DRV_A:w</title>
<path fill="none" stroke="#000000" stroke-width="2" d="M1266.11,-678C1478.26,-678.13 1530.85,-691.75 1740.98,-691.63"/>
<path fill="none" stroke="#ff8000" stroke-width="2" d="M1266.11,-680C1477.75,-680.06 1530.34,-693.69 1740.98,-693.63"/>
<path fill="none" stroke="#ff8000" stroke-width="2" d="M1266.11,-682C1477.25,-682 1529.84,-695.62 1740.98,-695.62"/>
<path fill="none" stroke="#ff8000" stroke-width="2" d="M1266.11,-684C1476.75,-683.94 1529.34,-697.56 1740.98,-697.62"/>
<path fill="none" stroke="#000000" stroke-width="2" d="M1266.11,-686C1476.25,-685.87 1528.84,-699.5 1740.98,-699.62"/>
</g>
<!-- STEPB&#45;&#45;DRV_B -->
<g id="edge10" class="edge">
<title>STEPB:e&#45;&#45;DRV_B:w</title>
<path fill="none" stroke="#000000" stroke-width="2" d="M785.36,-468.25C1143.53,-468.33 1233.96,-487.1 1589.04,-458.39 1650.9,-454.5 1665.69,-438.19 1733.36,-436.88"/>
<path fill="none" stroke="#00ff00" stroke-width="2" d="M785.36,-470.25C1143.13,-470.29 1233.56,-489.06 1589.2,-460.38 1652.38,-455.84 1667.17,-439.53 1733.36,-438.88"/>
<path fill="none" stroke="#ffff00" stroke-width="2" d="M785.36,-472.25C1142.72,-472.25 1233.15,-491.02 1589.36,-462.38 1653.86,-457.19 1668.65,-440.88 1733.36,-440.88"/>
<path fill="none" stroke="#00ff00" stroke-width="2" d="M785.36,-474.25C1142.31,-474.21 1232.74,-492.98 1589.52,-464.37 1655.34,-458.53 1670.13,-442.22 1733.36,-442.87"/>
<path fill="none" stroke="#000000" stroke-width="2" d="M785.36,-476.25C1141.91,-476.17 1232.34,-494.94 1589.68,-466.36 1656.82,-459.87 1671.61,-443.56 1733.36,-444.87"/>
</g>
<!-- STEPB&#45;&#45;DRV_B -->
<g id="edge12" class="edge">
<title>STEPB:e&#45;&#45;DRV_B:w</title>
<path fill="none" stroke="#000000" stroke-width="2" d="M785.36,-438.5C1205.9,-438.61 1310.94,-413.24 1733.36,-413.13"/>
<path fill="none" stroke="#a0dfff" stroke-width="2" d="M785.36,-440.5C1206.37,-440.56 1311.41,-415.18 1733.36,-415.13"/>
<path fill="none" stroke="#0066ff" stroke-width="2" d="M785.36,-442.5C1206.84,-442.5 1311.88,-417.12 1733.36,-417.12"/>
<path fill="none" stroke="#a0dfff" stroke-width="2" d="M785.36,-444.5C1207.31,-444.44 1312.35,-419.07 1733.36,-419.12"/>
<path fill="none" stroke="#000000" stroke-width="2" d="M785.36,-446.5C1207.78,-446.39 1312.81,-421.01 1733.36,-421.12"/>
</g>
<!-- STEPB&#45;&#45;DRV_B -->
<g id="edge14" class="edge">
<title>STEPB:e&#45;&#45;DRV_B:w</title>
<path fill="none" stroke="#000000" stroke-width="2" d="M785.36,-408.75C1206.06,-408.82 1311.21,-389.44 1733.36,-389.38"/>
<path fill="none" stroke="#ff66cc" stroke-width="2" d="M785.36,-410.75C1206.42,-410.78 1311.58,-391.41 1733.36,-391.38"/>
<path fill="none" stroke="#ff66cc" stroke-width="2" d="M785.36,-412.75C1206.78,-412.75 1311.94,-393.37 1733.36,-393.37"/>
<path fill="none" stroke="#ff66cc" stroke-width="2" d="M785.36,-414.75C1207.14,-414.72 1312.3,-395.34 1733.36,-395.37"/>
<path fill="none" stroke="#000000" stroke-width="2" d="M785.36,-416.75C1207.51,-416.68 1312.66,-397.31 1733.36,-397.37"/>
</g>
<!-- STEPB&#45;&#45;DRV_B -->
<g id="edge16" class="edge">
<title>STEPB:e&#45;&#45;DRV_B:w</title>
<path fill="none" stroke="#000000" stroke-width="2" d="M785.36,-379C1206.23,-379.03 1311.48,-365.66 1733.36,-365.63"/>
<path fill="none" stroke="#000000" stroke-width="2" d="M785.36,-381C1206.48,-381.02 1311.73,-367.64 1733.36,-367.63"/>
<path fill="none" stroke="#ffffff" stroke-width="2" d="M785.36,-383C1206.74,-383 1311.98,-369.62 1733.36,-369.62"/>
<path fill="none" stroke="#000000" stroke-width="2" d="M785.36,-385C1206.99,-384.98 1312.24,-371.61 1733.36,-371.62"/>
<path fill="none" stroke="#000000" stroke-width="2" d="M785.36,-387C1207.24,-386.97 1312.49,-373.59 1733.36,-373.62"/>
</g>
<!-- PWR&#45;&#45;ESTOP -->
<g id="edge18" class="edge">
<title>PWR:e&#45;&#45;ESTOP:w</title>
<path fill="none" stroke="#000000" stroke-width="2" d="M3023.61,-300.75C3085.01,-302.41 3099.73,-282.03 3167.61,-280.38"/>
<path fill="none" stroke="#ff0000" stroke-width="2" d="M3023.61,-302.75C3086.63,-303.58 3101.35,-283.2 3167.61,-282.38"/>
<path fill="none" stroke="#ff0000" stroke-width="2" d="M3023.61,-304.75C3088.25,-304.75 3102.97,-284.38 3167.61,-284.38"/>
<path fill="none" stroke="#ff0000" stroke-width="2" d="M3023.61,-306.75C3089.87,-305.92 3104.59,-285.55 3167.61,-286.37"/>
<path fill="none" stroke="#000000" stroke-width="2" d="M3023.61,-308.75C3091.49,-307.09 3106.21,-286.72 3167.61,-288.37"/>
</g>
<!-- ES&#45;&#45;MC508_STEP -->
<g id="edge20" class="edge">
<title>ES:e&#45;&#45;MC508_STEP:w</title>
<path fill="none" stroke="#000000" stroke-width="2" d="M3799.11,-233.75C3806.24,-238.74 3801.92,-221.88 3795.25,-215.79 3521.12,71.39 3301.73,-156.15 2897.86,-157.37 1096.73,-157.37 1096.73,-157.37 1096.73,-157.37 854.16,-157.37 177.34,-135.71 20.62,-316.64 4.09,-334.82 -5.9,-374.36 16.61,-369.38"/>
<path fill="none" stroke="#ff0000" stroke-width="2" d="M3799.11,-235.75C3808.18,-238.25 3803.86,-221.38 3796.68,-214.4 3519.68,72.78 3300.29,-154.76 2897.86,-155.37 1096.73,-155.37 1096.73,-155.37 1096.73,-155.37 854.22,-155.37 177.4,-133.72 19.11,-315.32 2.15,-334.33 -7.84,-373.87 16.61,-371.38"/>
<path fill="none" stroke="#ff0000" stroke-width="2" d="M3799.11,-237.75C3810.12,-237.75 3805.79,-220.88 3798.11,-213 3518.24,74.17 3298.85,-153.38 2897.86,-153.38 1096.73,-153.38 1096.73,-153.38 1096.73,-153.38 854.29,-153.37 177.46,-131.72 17.61,-314 0.21,-333.84 -9.78,-373.38 16.61,-373.37"/>
<path fill="none" stroke="#ff0000" stroke-width="2" d="M3799.11,-239.75C3812.06,-237.25 3807.73,-220.39 3799.54,-211.6 3516.8,75.56 3297.41,-151.99 2897.86,-151.38 1096.73,-151.38 1096.73,-151.38 1096.73,-151.38 854.35,-151.38 177.53,-129.72 16.11,-312.68 -1.73,-333.35 -11.72,-372.88 16.61,-375.37"/>
<path fill="none" stroke="#000000" stroke-width="2" d="M3799.11,-241.75C3813.99,-236.76 3809.67,-219.89 3800.97,-210.21 3515.36,76.94 3295.97,-150.6 2897.86,-149.38 1096.73,-149.38 1096.73,-149.38 1096.73,-149.38 854.42,-149.38 177.59,-127.72 14.6,-311.36 -3.67,-332.86 -13.66,-372.39 16.61,-377.37"/>
</g>
<!-- WD&#45;&#45;R1 -->
<g id="edge22" class="edge">
<title>WD:e&#45;&#45;R1:w</title>
<path fill="none" stroke="#000000" stroke-width="2" d="M711.36,-20.75C882.72,-24.96 872.74,-215.58 1036.11,-211.38"/>
<path fill="none" stroke="#0066ff" stroke-width="2" d="M711.36,-22.75C880.72,-24.85 870.75,-215.48 1036.11,-213.38"/>
<path fill="none" stroke="#0066ff" stroke-width="2" d="M711.36,-24.75C878.72,-24.75 868.75,-215.38 1036.11,-215.37"/>
<path fill="none" stroke="#0066ff" stroke-width="2" d="M711.36,-26.75C876.72,-24.65 866.75,-215.27 1036.11,-217.37"/>
<path fill="none" stroke="#000000" stroke-width="2" d="M711.36,-28.75C874.73,-24.54 864.75,-215.17 1036.11,-219.37"/>
</g>
<!-- EA&#45;&#45;DRV_A -->
<g id="edge24" class="edge">
<title>EA:e&#45;&#45;DRV_A:w</title>
<path fill="none" stroke="#000000" stroke-width="2" d="M1589.36,-550.75C1678.46,-555.38 1659.78,-672.51 1740.98,-667.88"/>
<path fill="none" stroke="#ff8000" stroke-width="2" d="M1589.36,-552.75C1676.49,-555.07 1657.81,-672.19 1740.98,-669.88"/>
<path fill="none" stroke="#ff8000" stroke-width="2" d="M1589.36,-554.75C1674.51,-554.75 1655.83,-671.88 1740.98,-671.88"/>
<path fill="none" stroke="#ff8000" stroke-width="2" d="M1589.36,-556.75C1672.54,-554.43 1653.86,-671.56 1740.98,-673.87"/>
<path fill="none" stroke="#000000" stroke-width="2" d="M1589.36,-558.75C1670.56,-554.12 1651.88,-671.24 1740.98,-675.87"/>
</g>
<!-- RA&#45;&#45;EXT5V -->
<g id="edge26" class="edge">
<title>RA:e&#45;&#45;EXT5V:w</title>
<path fill="none" stroke="#000000" stroke-width="2" d="M2312.11,-545.75C2427.57,-551.29 2333.27,-325.16 2456.11,-319.63"/>
<path fill="none" stroke="#000000" stroke-width="2" d="M2312.11,-547.75C2429.41,-550.52 2335.12,-324.39 2456.11,-321.63"/>
<path fill="none" stroke="#000000" stroke-width="2" d="M2312.11,-549.75C2431.26,-549.75 2336.96,-323.62 2456.11,-323.63"/>
<path fill="none" stroke="#000000" stroke-width="2" d="M2312.11,-551.75C2433.1,-548.98 2338.81,-322.86 2456.11,-325.62"/>
<path fill="none" stroke="#000000" stroke-width="2" d="M2312.11,-553.75C2434.95,-548.21 2340.65,-322.09 2456.11,-327.62"/>
</g>
<!-- EB&#45;&#45;DRV_B -->
<g id="edge30" class="edge">
<title>EB:e&#45;&#45;DRV_B:w</title>
<path fill="none" stroke="#000000" stroke-width="2" d="M1542.36,-210.75C1649.3,-215.2 1634.37,-346.33 1733.36,-341.88"/>
<path fill="none" stroke="#ff8000" stroke-width="2" d="M1542.36,-212.75C1647.32,-214.98 1632.38,-346.1 1733.36,-343.88"/>
<path fill="none" stroke="#ff8000" stroke-width="2" d="M1542.36,-214.75C1645.33,-214.75 1630.39,-345.88 1733.36,-345.88"/>
<path fill="none" stroke="#ff8000" stroke-width="2" d="M1542.36,-216.75C1643.34,-214.52 1628.4,-345.65 1733.36,-347.87"/>
<path fill="none" stroke="#000000" stroke-width="2" d="M1542.36,-218.75C1641.35,-214.3 1626.42,-345.42 1733.36,-349.87"/>
</g>
<!-- EB&#45;&#45;R2 -->
<g id="edge28" class="edge">
<title>EB:e&#45;&#45;R2:w</title>
<path fill="none" stroke="#000000" stroke-width="2" d="M1542.36,-210.75C1639.57,-210.75 1663.85,-211.38 1760.86,-211.38"/>
<path fill="none" stroke="#ff8000" stroke-width="2" d="M1542.36,-212.75C1639.52,-212.75 1663.8,-213.38 1760.86,-213.38"/>
<path fill="none" stroke="#ff8000" stroke-width="2" d="M1542.36,-214.75C1639.47,-214.75 1663.75,-215.37 1760.86,-215.37"/>
<path fill="none" stroke="#ff8000" stroke-width="2" d="M1542.36,-216.75C1639.42,-216.75 1663.7,-217.37 1760.86,-217.37"/>
<path fill="none" stroke="#000000" stroke-width="2" d="M1542.36,-218.75C1639.37,-218.75 1663.65,-219.37 1760.86,-219.37"/>
</g>
<!-- RB&#45;&#45;EXT5V -->
<g id="edge32" class="edge">
<title>RB:e&#45;&#45;EXT5V:w</title>
<path fill="none" stroke="#000000" stroke-width="2" d="M2312.11,-318.75C2376.33,-318.76 2392.33,-319.63 2456.11,-319.63"/>
<path fill="none" stroke="#000000" stroke-width="2" d="M2312.11,-320.75C2376.22,-320.75 2392.22,-321.63 2456.11,-321.63"/>
<path fill="none" stroke="#000000" stroke-width="2" d="M2312.11,-322.75C2376.11,-322.75 2392.11,-323.62 2456.11,-323.62"/>
<path fill="none" stroke="#000000" stroke-width="2" d="M2312.11,-324.75C2376,-324.75 2392,-325.62 2456.11,-325.62"/>
<path fill="none" stroke="#000000" stroke-width="2" d="M2312.11,-326.75C2375.89,-326.74 2391.89,-327.62 2456.11,-327.62"/>
</g>
</g>
</svg>
