<?xml version="1.0" encoding="UTF-8" standalone="no"?>
<!DOCTYPE svg PUBLIC "-//W3C//DTD SVG 1.1//EN"
 "http://www.w3.org/Graphics/SVG/1.1/DTD/svg11.dtd">
<!-- Generated by graphviz version 12.2.1 (20241206.2353)
 -->
<!-- Pages: 1 -->
<svg width="2603pt" height="854pt"
 viewBox="0.00 0.00 2602.92 853.75" xmlns="http://www.w3.org/2000/svg" xmlns:xlink="http://www.w3.org/1999/xlink">
<g id="graph0" class="graph" transform="scale(1 1) rotate(0) translate(4 849.75)">
<polygon fill="#ffffff" stroke="none" points="-4,4 -4,-849.75 2598.92,-849.75 2598.92,4 -4,4"/>
<!-- DB25 -->
<g id="node1" class="node">
<title>DB25</title>
<polygon fill="#ffffff" stroke="black" points="183.5,-780.38 0,-780.38 0,-400.38 183.5,-400.38 183.5,-780.38"/>
<polygon fill="none" stroke="black" points="0,-756.62 0,-780.38 183.5,-780.38 183.5,-756.62 0,-756.62"/>
<text text-anchor="start" x="74.88" y="-763.08" font-family="arial" font-size="14.00">DB25</text>
<polygon fill="none" stroke="black" points="0,-732.88 0,-756.62 99.17,-756.62 99.17,-732.88 0,-732.88"/>
<text text-anchor="start" x="4.21" y="-739.33" font-family="arial" font-size="14.00">D&#45;Sub 25 Male</text>
<polygon fill="none" stroke="black" points="99.17,-732.88 99.17,-756.62 137.58,-756.62 137.58,-732.88 99.17,-732.88"/>
<text text-anchor="start" x="103.38" y="-739.33" font-family="arial" font-size="14.00">male</text>
<polygon fill="none" stroke="black" points="137.58,-732.88 137.58,-756.62 183.5,-756.62 183.5,-732.88 137.58,-732.88"/>
<text text-anchor="start" x="141.79" y="-739.33" font-family="arial" font-size="14.00">13&#45;pin</text>
<polygon fill="none" stroke="black" points="0,-709.12 0,-732.88 116.12,-732.88 116.12,-709.12 0,-709.12"/>
<text text-anchor="start" x="36.31" y="-715.58" font-family="arial" font-size="14.00">Enc A+</text>
<polygon fill="none" stroke="black" points="116.12,-709.12 116.12,-732.88 183.5,-732.88 183.5,-709.12 116.12,-709.12"/>
<text text-anchor="start" x="146.06" y="-715.58" font-family="arial" font-size="14.00">1</text>
<polygon fill="none" stroke="black" points="0,-685.38 0,-709.12 116.12,-709.12 116.12,-685.38 0,-685.38"/>
<text text-anchor="start" x="38.19" y="-691.83" font-family="arial" font-size="14.00">Enc A&#45;</text>
<polygon fill="none" stroke="black" points="116.12,-685.38 116.12,-709.12 183.5,-709.12 183.5,-685.38 116.12,-685.38"/>
<text text-anchor="start" x="142.31" y="-691.83" font-family="arial" font-size="14.00">14</text>
<polygon fill="none" stroke="black" points="0,-661.62 0,-685.38 116.12,-685.38 116.12,-661.62 0,-661.62"/>
<text text-anchor="start" x="35.94" y="-668.08" font-family="arial" font-size="14.00">Enc B+</text>
<polygon fill="none" stroke="black" points="116.12,-661.62 116.12,-685.38 183.5,-685.38 183.5,-661.62 116.12,-661.62"/>
<text text-anchor="start" x="146.06" y="-668.08" font-family="arial" font-size="14.00">2</text>
<polygon fill="none" stroke="black" points="0,-637.88 0,-661.62 116.12,-661.62 116.12,-637.88 0,-637.88"/>
<text text-anchor="start" x="37.81" y="-644.33" font-family="arial" font-size="14.00">Enc B&#45;</text>
<polygon fill="none" stroke="black" points="116.12,-637.88 116.12,-661.62 183.5,-661.62 183.5,-637.88 116.12,-637.88"/>
<text text-anchor="start" x="142.31" y="-644.33" font-family="arial" font-size="14.00">15</text>
<polygon fill="none" stroke="black" points="0,-614.12 0,-637.88 116.12,-637.88 116.12,-614.12 0,-614.12"/>
<text text-anchor="start" x="36.31" y="-620.58" font-family="arial" font-size="14.00">Enc Z+</text>
<polygon fill="none" stroke="black" points="116.12,-614.12 116.12,-637.88 183.5,-637.88 183.5,-614.12 116.12,-614.12"/>
<text text-anchor="start" x="146.06" y="-620.58" font-family="arial" font-size="14.00">3</text>
<polygon fill="none" stroke="black" points="0,-590.38 0,-614.12 116.12,-614.12 116.12,-590.38 0,-590.38"/>
<text text-anchor="start" x="38.19" y="-596.83" font-family="arial" font-size="14.00">Enc Z&#45;</text>
<polygon fill="none" stroke="black" points="116.12,-590.38 116.12,-614.12 183.5,-614.12 183.5,-590.38 116.12,-590.38"/>
<text text-anchor="start" x="142.31" y="-596.83" font-family="arial" font-size="14.00">16</text>
<polygon fill="none" stroke="black" points="0,-566.62 0,-590.38 116.12,-590.38 116.12,-566.62 0,-566.62"/>
<text text-anchor="start" x="45.69" y="-573.08" font-family="arial" font-size="14.00">+5V</text>
<polygon fill="none" stroke="black" points="116.12,-566.62 116.12,-590.38 183.5,-590.38 183.5,-566.62 116.12,-566.62"/>
<text text-anchor="start" x="146.06" y="-573.08" font-family="arial" font-size="14.00">4</text>
<polygon fill="none" stroke="black" points="0,-542.88 0,-566.62 116.12,-566.62 116.12,-542.88 0,-542.88"/>
<text text-anchor="start" x="30.69" y="-549.33" font-family="arial" font-size="14.00">Dig GND</text>
<polygon fill="none" stroke="black" points="116.12,-542.88 116.12,-566.62 183.5,-566.62 183.5,-542.88 116.12,-542.88"/>
<text text-anchor="start" x="142.31" y="-549.33" font-family="arial" font-size="14.00">17</text>
<polygon fill="none" stroke="black" points="0,-519.12 0,-542.88 116.12,-542.88 116.12,-519.12 0,-519.12"/>
<text text-anchor="start" x="28.81" y="-525.58" font-family="arial" font-size="14.00">Fwd Limit</text>
<polygon fill="none" stroke="black" points="116.12,-519.12 116.12,-542.88 183.5,-542.88 183.5,-519.12 116.12,-519.12"/>
<text text-anchor="start" x="142.31" y="-525.58" font-family="arial" font-size="14.00">10</text>
<polygon fill="none" stroke="black" points="0,-495.38 0,-519.12 116.12,-519.12 116.12,-495.38 0,-495.38"/>
<text text-anchor="start" x="29.56" y="-501.82" font-family="arial" font-size="14.00">Rev Limit</text>
<polygon fill="none" stroke="black" points="116.12,-495.38 116.12,-519.12 183.5,-519.12 183.5,-495.38 116.12,-495.38"/>
<text text-anchor="start" x="142.31" y="-501.82" font-family="arial" font-size="14.00">12</text>
<polygon fill="none" stroke="black" points="0,-471.62 0,-495.38 116.12,-495.38 116.12,-471.62 0,-471.62"/>
<text text-anchor="start" x="44.94" y="-478.07" font-family="arial" font-size="14.00">Viso</text>
<polygon fill="none" stroke="black" points="116.12,-471.62 116.12,-495.38 183.5,-495.38 183.5,-471.62 116.12,-471.62"/>
<text text-anchor="start" x="142.31" y="-478.07" font-family="arial" font-size="14.00">13</text>
<polygon fill="none" stroke="black" points="0,-447.88 0,-471.62 116.12,-471.62 116.12,-447.88 0,-447.88"/>
<text text-anchor="start" x="44.56" y="-454.32" font-family="arial" font-size="14.00">Ciso</text>
<polygon fill="none" stroke="black" points="116.12,-447.88 116.12,-471.62 183.5,-471.62 183.5,-447.88 116.12,-447.88"/>
<text text-anchor="start" x="142.31" y="-454.32" font-family="arial" font-size="14.00">22</text>
<polygon fill="none" stroke="black" points="0,-424.12 0,-447.88 116.12,-447.88 116.12,-424.12 0,-424.12"/>
<text text-anchor="start" x="26.19" y="-430.57" font-family="arial" font-size="14.00">Home N/C</text>
<polygon fill="none" stroke="black" points="116.12,-424.12 116.12,-447.88 183.5,-447.88 183.5,-424.12 116.12,-424.12"/>
<text text-anchor="start" x="142.69" y="-430.57" font-family="arial" font-size="14.00">11</text>
<polygon fill="none" stroke="black" points="0,-400.38 0,-424.12 183.5,-424.12 183.5,-400.38 0,-400.38"/>
<text text-anchor="start" x="4" y="-406.82" font-family="arial" font-size="14.00">Stage cable (from UMI&#45;7774)</text>
</g>
<!-- ENC -->
<g id="node5" class="node">
<title>ENC</title>
<polygon fill="#ffffff" stroke="black" points="684.5,-845.75 327.5,-845.75 327.5,-497 684.5,-497 684.5,-845.75"/>
<polygon fill="none" stroke="black" points="327.5,-822 327.5,-845.75 684.5,-845.75 684.5,-822 327.5,-822"/>
<text text-anchor="start" x="491.75" y="-828.45" font-family="arial" font-size="14.00">ENC</text>
<polygon fill="none" stroke="black" points="327.5,-798.25 327.5,-822 684.5,-822 684.5,-798.25 327.5,-798.25"/>
<text text-anchor="start" x="498.88" y="-804.7" font-family="arial" font-size="14.00">8x</text>
<text text-anchor="start" x="383.12" y="-782.95" font-family="arial" font-size="14.00"> </text>
<text text-anchor="start" x="338.88" y="-763.2" font-family="arial" font-size="14.00">DB25:1:Enc A+</text>
<text text-anchor="start" x="456.5" y="-763.2" font-family="arial" font-size="14.00"> &#160;&#160;&#160;&#160;1:BK &#160;&#160;&#160;</text>
<text text-anchor="start" x="539.62" y="-763.2" font-family="arial" font-size="14.00">MC508_ENC:1:Enc A+</text>
<polygon fill="#000000" stroke="none" points="327.5,-756.75 327.5,-758.75 684.5,-758.75 684.5,-756.75 327.5,-756.75"/>
<polygon fill="#000000" stroke="none" points="327.5,-754.75 327.5,-756.75 684.5,-756.75 684.5,-754.75 327.5,-754.75"/>
<polygon fill="#000000" stroke="none" points="327.5,-752.75 327.5,-754.75 684.5,-754.75 684.5,-752.75 327.5,-752.75"/>
<polygon fill="#000000" stroke="none" points="327.5,-750.75 327.5,-752.75 684.5,-752.75 684.5,-750.75 327.5,-750.75"/>
<polygon fill="#000000" stroke="none" points="327.5,-748.75 327.5,-750.75 684.5,-750.75 684.5,-748.75 327.5,-748.75"/>
<text text-anchor="start" x="337" y="-733.45" font-family="arial" font-size="14.00">DB25:14:Enc A&#45;</text>
<text text-anchor="start" x="456.12" y="-733.45" font-family="arial" font-size="14.00"> &#160;&#160;&#160;&#160;2:BN &#160;&#160;&#160;</text>
<text text-anchor="start" x="541.88" y="-733.45" font-family="arial" font-size="14.00">MC508_ENC:2:/Enc A</text>
<polygon fill="#000000" stroke="none" points="327.5,-727 327.5,-729 684.5,-729 684.5,-727 327.5,-727"/>
<polygon fill="#895956" stroke="none" points="327.5,-725 327.5,-727 684.5,-727 684.5,-725 327.5,-725"/>
<polygon fill="#895956" stroke="none" points="327.5,-723 327.5,-725 684.5,-725 684.5,-723 327.5,-723"/>
<polygon fill="#895956" stroke="none" points="327.5,-721 327.5,-723 684.5,-723 684.5,-721 327.5,-721"/>
<polygon fill="#000000" stroke="none" points="327.5,-719 327.5,-721 684.5,-721 684.5,-719 327.5,-719"/>
<text text-anchor="start" x="338.5" y="-703.7" font-family="arial" font-size="14.00">DB25:2:Enc B+</text>
<text text-anchor="start" x="455.75" y="-703.7" font-family="arial" font-size="14.00"> &#160;&#160;&#160;&#160;3:RD &#160;&#160;&#160;</text>
<text text-anchor="start" x="539.25" y="-703.7" font-family="arial" font-size="14.00">MC508_ENC:3:Enc B+</text>
<polygon fill="#000000" stroke="none" points="327.5,-697.25 327.5,-699.25 684.5,-699.25 684.5,-697.25 327.5,-697.25"/>
<polygon fill="#ff0000" stroke="none" points="327.5,-695.25 327.5,-697.25 684.5,-697.25 684.5,-695.25 327.5,-695.25"/>
<polygon fill="#ff0000" stroke="none" points="327.5,-693.25 327.5,-695.25 684.5,-695.25 684.5,-693.25 327.5,-693.25"/>
<polygon fill="#ff0000" stroke="none" points="327.5,-691.25 327.5,-693.25 684.5,-693.25 684.5,-691.25 327.5,-691.25"/>
<polygon fill="#000000" stroke="none" points="327.5,-689.25 327.5,-691.25 684.5,-691.25 684.5,-689.25 327.5,-689.25"/>
<text text-anchor="start" x="336.62" y="-673.95" font-family="arial" font-size="14.00">DB25:15:Enc B&#45;</text>
<text text-anchor="start" x="454.25" y="-673.95" font-family="arial" font-size="14.00"> &#160;&#160;&#160;&#160;4:OG &#160;&#160;&#160;</text>
<text text-anchor="start" x="541.5" y="-673.95" font-family="arial" font-size="14.00">MC508_ENC:4:/Enc B</text>
<polygon fill="#000000" stroke="none" points="327.5,-667.5 327.5,-669.5 684.5,-669.5 684.5,-667.5 327.5,-667.5"/>
<polygon fill="#ff8000" stroke="none" points="327.5,-665.5 327.5,-667.5 684.5,-667.5 684.5,-665.5 327.5,-665.5"/>
<polygon fill="#ff8000" stroke="none" points="327.5,-663.5 327.5,-665.5 684.5,-665.5 684.5,-663.5 327.5,-663.5"/>
<polygon fill="#ff8000" stroke="none" points="327.5,-661.5 327.5,-663.5 684.5,-663.5 684.5,-661.5 327.5,-661.5"/>
<polygon fill="#000000" stroke="none" points="327.5,-659.5 327.5,-661.5 684.5,-661.5 684.5,-659.5 327.5,-659.5"/>
<text text-anchor="start" x="338.88" y="-644.2" font-family="arial" font-size="14.00">DB25:3:Enc Z+</text>
<text text-anchor="start" x="446" y="-644.2" font-family="arial" font-size="14.00"> &#160;&#160;&#160;&#160;5:GNYE &#160;&#160;&#160;</text>
<text text-anchor="start" x="536.25" y="-644.2" font-family="arial" font-size="14.00">MC508_ENC:11:Enc Z+</text>
<polygon fill="#000000" stroke="none" points="327.5,-637.75 327.5,-639.75 684.5,-639.75 684.5,-637.75 327.5,-637.75"/>
<polygon fill="#00ff00" stroke="none" points="327.5,-635.75 327.5,-637.75 684.5,-637.75 684.5,-635.75 327.5,-635.75"/>
<polygon fill="#ffff00" stroke="none" points="327.5,-633.75 327.5,-635.75 684.5,-635.75 684.5,-633.75 327.5,-633.75"/>
<polygon fill="#00ff00" stroke="none" points="327.5,-631.75 327.5,-633.75 684.5,-633.75 684.5,-631.75 327.5,-631.75"/>
<polygon fill="#000000" stroke="none" points="327.5,-629.75 327.5,-631.75 684.5,-631.75 684.5,-629.75 327.5,-629.75"/>
<text text-anchor="start" x="337" y="-614.45" font-family="arial" font-size="14.00">DB25:16:Enc Z&#45;</text>
<text text-anchor="start" x="447.88" y="-614.45" font-family="arial" font-size="14.00"> &#160;&#160;&#160;&#160;6:LBBU &#160;&#160;&#160;</text>
<text text-anchor="start" x="538.12" y="-614.45" font-family="arial" font-size="14.00">MC508_ENC:12:/Enc Z</text>
<polygon fill="#000000" stroke="none" points="327.5,-608 327.5,-610 684.5,-610 684.5,-608 327.5,-608"/>
<polygon fill="#a0dfff" stroke="none" points="327.5,-606 327.5,-608 684.5,-608 684.5,-606 327.5,-606"/>
<polygon fill="#0066ff" stroke="none" points="327.5,-604 327.5,-606 684.5,-606 684.5,-604 327.5,-604"/>
<polygon fill="#a0dfff" stroke="none" points="327.5,-602 327.5,-604 684.5,-604 684.5,-602 327.5,-602"/>
<polygon fill="#000000" stroke="none" points="327.5,-600 327.5,-602 684.5,-602 684.5,-600 327.5,-600"/>
<text text-anchor="start" x="348.25" y="-584.7" font-family="arial" font-size="14.00">DB25:4:+5V</text>
<text text-anchor="start" x="456.5" y="-584.7" font-family="arial" font-size="14.00"> &#160;&#160;&#160;&#160;7:YE &#160;&#160;&#160;</text>
<text text-anchor="start" x="535.5" y="-584.7" font-family="arial" font-size="14.00">MC508_ENC:5:+5V Enc</text>
<polygon fill="#000000" stroke="none" points="327.5,-578.25 327.5,-580.25 684.5,-580.25 684.5,-578.25 327.5,-578.25"/>
<polygon fill="#ffff00" stroke="none" points="327.5,-576.25 327.5,-578.25 684.5,-578.25 684.5,-576.25 327.5,-576.25"/>
<polygon fill="#ffff00" stroke="none" points="327.5,-574.25 327.5,-576.25 684.5,-576.25 684.5,-574.25 327.5,-574.25"/>
<polygon fill="#ffff00" stroke="none" points="327.5,-572.25 327.5,-574.25 684.5,-574.25 684.5,-572.25 327.5,-572.25"/>
<polygon fill="#000000" stroke="none" points="327.5,-570.25 327.5,-572.25 684.5,-572.25 684.5,-570.25 327.5,-570.25"/>
<text text-anchor="start" x="329.5" y="-554.95" font-family="arial" font-size="14.00">DB25:17:Dig GND</text>
<text text-anchor="start" x="444.5" y="-554.95" font-family="arial" font-size="14.00"> &#160;&#160;&#160;&#160;8:BNWH &#160;&#160;&#160;</text>
<text text-anchor="start" x="549.38" y="-554.95" font-family="arial" font-size="14.00">MC508_ENC:15:0V</text>
<polygon fill="#000000" stroke="none" points="327.5,-548.5 327.5,-550.5 684.5,-550.5 684.5,-548.5 327.5,-548.5"/>
<polygon fill="#895956" stroke="none" points="327.5,-546.5 327.5,-548.5 684.5,-548.5 684.5,-546.5 327.5,-546.5"/>
<polygon fill="#ffffff" stroke="none" points="327.5,-544.5 327.5,-546.5 684.5,-546.5 684.5,-544.5 327.5,-544.5"/>
<polygon fill="#895956" stroke="none" points="327.5,-542.5 327.5,-544.5 684.5,-544.5 684.5,-542.5 327.5,-542.5"/>
<polygon fill="#000000" stroke="none" points="327.5,-540.5 327.5,-542.5 684.5,-542.5 684.5,-540.5 327.5,-540.5"/>
<text text-anchor="start" x="383.12" y="-525.2" font-family="arial" font-size="14.00"> </text>
<polygon fill="none" stroke="black" points="327.5,-497 327.5,-520.75 684.5,-520.75 684.5,-497 327.5,-497"/>
<text text-anchor="start" x="428.38" y="-503.45" font-family="arial" font-size="14.00">Encoder adapter (8 wires)</text>
</g>
<!-- DB25&#45;&#45;ENC -->
<g id="edge1" class="edge">
<title>DB25:e&#45;&#45;ENC:w</title>
<path fill="none" stroke="#000000" stroke-width="2" d="M183.5,-717C252.86,-719.55 265.59,-752.3 327.5,-749.75"/>
<path fill="none" stroke="#000000" stroke-width="2" d="M183.5,-719C251,-720.28 263.73,-753.03 327.5,-751.75"/>
<path fill="none" stroke="#000000" stroke-width="2" d="M183.5,-721C249.13,-721 261.87,-753.75 327.5,-753.75"/>
<path fill="none" stroke="#000000" stroke-width="2" d="M183.5,-723C247.27,-721.72 260,-754.47 327.5,-755.75"/>
<path fill="none" stroke="#000000" stroke-width="2" d="M183.5,-725C245.41,-722.45 258.14,-755.2 327.5,-757.75"/>
</g>
<!-- DB25&#45;&#45;ENC -->
<g id="edge3" class="edge">
<title>DB25:e&#45;&#45;ENC:w</title>
<path fill="none" stroke="#000000" stroke-width="2" d="M183.5,-693.25C252.15,-695.42 265.96,-722.17 327.5,-720"/>
<path fill="none" stroke="#895956" stroke-width="2" d="M183.5,-695.25C250.37,-696.33 264.18,-723.08 327.5,-722"/>
<path fill="none" stroke="#895956" stroke-width="2" d="M183.5,-697.25C248.59,-697.25 262.41,-724 327.5,-724"/>
<path fill="none" stroke="#895956" stroke-width="2" d="M183.5,-699.25C246.82,-698.17 260.63,-724.92 327.5,-726"/>
<path fill="none" stroke="#000000" stroke-width="2" d="M183.5,-701.25C245.04,-699.08 258.85,-725.83 327.5,-728"/>
</g>
<!-- DB25&#45;&#45;ENC -->
<g id="edge5" class="edge">
<title>DB25:e&#45;&#45;ENC:w</title>
<path fill="none" stroke="#000000" stroke-width="2" d="M183.5,-669.5C251.43,-671.19 266.1,-691.94 327.5,-690.25"/>
<path fill="none" stroke="#ff0000" stroke-width="2" d="M183.5,-671.5C249.79,-672.35 264.47,-693.1 327.5,-692.25"/>
<path fill="none" stroke="#ff0000" stroke-width="2" d="M183.5,-673.5C248.16,-673.5 262.84,-694.25 327.5,-694.25"/>
<path fill="none" stroke="#ff0000" stroke-width="2" d="M183.5,-675.5C246.53,-674.65 261.21,-695.4 327.5,-696.25"/>
<path fill="none" stroke="#000000" stroke-width="2" d="M183.5,-677.5C244.9,-675.81 259.57,-696.56 327.5,-698.25"/>
</g>
<!-- DB25&#45;&#45;ENC -->
<g id="edge7" class="edge">
<title>DB25:e&#45;&#45;ENC:w</title>
<path fill="none" stroke="#000000" stroke-width="2" d="M183.5,-645.75C250.61,-646.87 265.94,-661.62 327.5,-660.5"/>
<path fill="none" stroke="#ff8000" stroke-width="2" d="M183.5,-647.75C249.22,-648.31 264.55,-663.06 327.5,-662.5"/>
<path fill="none" stroke="#ff8000" stroke-width="2" d="M183.5,-649.75C247.83,-649.75 263.17,-664.5 327.5,-664.5"/>
<path fill="none" stroke="#ff8000" stroke-width="2" d="M183.5,-651.75C246.45,-651.19 261.78,-665.94 327.5,-666.5"/>
<path fill="none" stroke="#000000" stroke-width="2" d="M183.5,-653.75C245.06,-652.63 260.39,-667.38 327.5,-668.5"/>
</g>
<!-- DB25&#45;&#45;ENC -->
<g id="edge9" class="edge">
<title>DB25:e&#45;&#45;ENC:w</title>
<path fill="none" stroke="#000000" stroke-width="2" d="M183.5,-622C249.56,-622.5 265.32,-631.25 327.5,-630.75"/>
<path fill="none" stroke="#00ff00" stroke-width="2" d="M183.5,-624C248.59,-624.25 264.35,-633 327.5,-632.75"/>
<path fill="none" stroke="#ffff00" stroke-width="2" d="M183.5,-626C247.62,-626 263.38,-634.75 327.5,-634.75"/>
<path fill="none" stroke="#00ff00" stroke-width="2" d="M183.5,-628C246.65,-627.75 262.41,-636.5 327.5,-636.75"/>
<path fill="none" stroke="#000000" stroke-width="2" d="M183.5,-630C245.68,-629.5 261.44,-638.25 327.5,-638.75"/>
</g>
<!-- DB25&#45;&#45;ENC -->
<g id="edge11" class="edge">
<title>DB25:e&#45;&#45;ENC:w</title>
<path fill="none" stroke="#000000" stroke-width="2" d="M183.5,-598.25C248.19,-598.31 264.17,-601.06 327.5,-601"/>
<path fill="none" stroke="#a0dfff" stroke-width="2" d="M183.5,-600.25C247.85,-600.28 263.83,-603.03 327.5,-603"/>
<path fill="none" stroke="#0066ff" stroke-width="2" d="M183.5,-602.25C247.51,-602.25 263.49,-605 327.5,-605"/>
<path fill="none" stroke="#a0dfff" stroke-width="2" d="M183.5,-604.25C247.17,-604.22 263.15,-606.97 327.5,-607"/>
<path fill="none" stroke="#000000" stroke-width="2" d="M183.5,-606.25C246.83,-606.19 262.81,-608.94 327.5,-609"/>
</g>
<!-- DB25&#45;&#45;ENC -->
<g id="edge13" class="edge">
<title>DB25:e&#45;&#45;ENC:w</title>
<path fill="none" stroke="#000000" stroke-width="2" d="M183.5,-574.5C246.72,-574.58 262.69,-571.33 327.5,-571.25"/>
<path fill="none" stroke="#ffff00" stroke-width="2" d="M183.5,-576.5C247.12,-576.54 263.08,-573.29 327.5,-573.25"/>
<path fill="none" stroke="#ffff00" stroke-width="2" d="M183.5,-578.5C247.52,-578.5 263.48,-575.25 327.5,-575.25"/>
<path fill="none" stroke="#ffff00" stroke-width="2" d="M183.5,-580.5C247.92,-580.46 263.88,-577.21 327.5,-577.25"/>
<path fill="none" stroke="#000000" stroke-width="2" d="M183.5,-582.5C248.31,-582.42 264.28,-579.17 327.5,-579.25"/>
</g>
<!-- DB25&#45;&#45;ENC -->
<g id="edge15" class="edge">
<title>DB25:e&#45;&#45;ENC:w</title>
<path fill="none" stroke="#000000" stroke-width="2" d="M183.5,-550.75C245.6,-551.3 261.34,-542.05 327.5,-541.5"/>
<path fill="none" stroke="#895956" stroke-width="2" d="M183.5,-552.75C246.62,-553.03 262.35,-543.78 327.5,-543.5"/>
<path fill="none" stroke="#ffffff" stroke-width="2" d="M183.5,-554.75C247.63,-554.75 263.37,-545.5 327.5,-545.5"/>
<path fill="none" stroke="#895956" stroke-width="2" d="M183.5,-556.75C248.65,-556.47 264.38,-547.22 327.5,-547.5"/>
<path fill="none" stroke="#000000" stroke-width="2" d="M183.5,-558.75C249.66,-558.2 265.4,-548.95 327.5,-549.5"/>
</g>
<!-- LFWD -->
<g id="node6" class="node">
<title>LFWD</title>
<polygon fill="#ffffff" stroke="black" points="1135.25,-447.75 828.5,-447.75 828.5,-331 1135.25,-331 1135.25,-447.75"/>
<polygon fill="none" stroke="black" points="828.5,-424 828.5,-447.75 1135.25,-447.75 1135.25,-424 828.5,-424"/>
<text text-anchor="start" x="962.38" y="-430.45" font-family="arial" font-size="14.00">LFWD</text>
<polygon fill="none" stroke="black" points="828.5,-400.25 828.5,-424 1135.25,-424 1135.25,-400.25 828.5,-400.25"/>
<text text-anchor="start" x="974.75" y="-406.7" font-family="arial" font-size="14.00">1x</text>
<text text-anchor="start" x="886" y="-384.95" font-family="arial" font-size="14.00"> </text>
<text text-anchor="start" x="830.5" y="-365.2" font-family="arial" font-size="14.00">DB25:10:Fwd Limit</text>
<text text-anchor="start" x="949.25" y="-365.2" font-family="arial" font-size="14.00"> &#160;&#160;&#160;&#160;1:BU &#160;&#160;&#160;</text>
<text text-anchor="start" x="1017" y="-365.2" font-family="arial" font-size="14.00">LVLSHIFT:1:In Fwd</text>
<polygon fill="#000000" stroke="none" points="828.5,-358.75 828.5,-360.75 1135.25,-360.75 1135.25,-358.75 828.5,-358.75"/>
<polygon fill="#0066ff" stroke="none" points="828.5,-356.75 828.5,-358.75 1135.25,-358.75 1135.25,-356.75 828.5,-356.75"/>
<polygon fill="#0066ff" stroke="none" points="828.5,-354.75 828.5,-356.75 1135.25,-356.75 1135.25,-354.75 828.5,-354.75"/>
<polygon fill="#0066ff" stroke="none" points="828.5,-352.75 828.5,-354.75 1135.25,-354.75 1135.25,-352.75 828.5,-352.75"/>
<polygon fill="#000000" stroke="none" points="828.5,-350.75 828.5,-352.75 1135.25,-352.75 1135.25,-350.75 828.5,-350.75"/>
<text text-anchor="start" x="886" y="-335.45" font-family="arial" font-size="14.00"> </text>
</g>
<!-- DB25&#45;&#45;LFWD -->
<g id="edge17" class="edge">
<title>DB25:e&#45;&#45;LFWD:w</title>
<path fill="none" stroke="#000000" stroke-width="2" d="M183.5,-527C247,-529.34 259.34,-502.27 326.39,-481.53 545.35,-419.4 595.31,-353.34 828.5,-351.75"/>
<path fill="none" stroke="#0066ff" stroke-width="2" d="M183.5,-529C248.82,-530.17 261.16,-503.1 326.95,-483.45 546.95,-420.61 596.91,-354.54 828.5,-353.75"/>
<path fill="none" stroke="#0066ff" stroke-width="2" d="M183.5,-531C250.64,-531 262.98,-503.93 327.5,-485.38 548.54,-421.81 598.5,-355.75 828.5,-355.75"/>
<path fill="none" stroke="#0066ff" stroke-width="2" d="M183.5,-533C252.46,-531.83 264.8,-504.76 328.05,-487.3 550.14,-423.02 600.1,-356.96 828.5,-357.75"/>
<path fill="none" stroke="#000000" stroke-width="2" d="M183.5,-535C254.28,-532.66 266.62,-505.59 328.61,-489.22 551.73,-424.22 601.69,-358.16 828.5,-359.75"/>
</g>
<!-- LREV -->
<g id="node7" class="node">
<title>LREV</title>
<polygon fill="#ffffff" stroke="black" points="1605.12,-274.75 1300.62,-274.75 1300.62,-158 1605.12,-158 1605.12,-274.75"/>
<polygon fill="none" stroke="black" points="1300.62,-251 1300.62,-274.75 1605.12,-274.75 1605.12,-251 1300.62,-251"/>
<text text-anchor="start" x="1435.25" y="-257.45" font-family="arial" font-size="14.00">LREV</text>
<polygon fill="none" stroke="black" points="1300.62,-227.25 1300.62,-251 1605.12,-251 1605.12,-227.25 1300.62,-227.25"/>
<text text-anchor="start" x="1445.75" y="-233.7" font-family="arial" font-size="14.00">1x</text>
<text text-anchor="start" x="1357.38" y="-211.95" font-family="arial" font-size="14.00"> </text>
<text text-anchor="start" x="1302.62" y="-192.2" font-family="arial" font-size="14.00">DB25:12:Rev Limit</text>
<text text-anchor="start" x="1419.88" y="-192.2" font-family="arial" font-size="14.00"> &#160;&#160;&#160;&#160;1:RD &#160;&#160;&#160;</text>
<text text-anchor="start" x="1488.38" y="-192.2" font-family="arial" font-size="14.00">LVLSHIFT:2:In Rev</text>
<polygon fill="#000000" stroke="none" points="1300.62,-185.75 1300.62,-187.75 1605.12,-187.75 1605.12,-185.75 1300.62,-185.75"/>
<polygon fill="#ff0000" stroke="none" points="1300.62,-183.75 1300.62,-185.75 1605.12,-185.75 1605.12,-183.75 1300.62,-183.75"/>
<polygon fill="#ff0000" stroke="none" points="1300.62,-181.75 1300.62,-183.75 1605.12,-183.75 1605.12,-181.75 1300.62,-181.75"/>
<polygon fill="#ff0000" stroke="none" points="1300.62,-179.75 1300.62,-181.75 1605.12,-181.75 1605.12,-179.75 1300.62,-179.75"/>
<polygon fill="#000000" stroke="none" points="1300.62,-177.75 1300.62,-179.75 1605.12,-179.75 1605.12,-177.75 1300.62,-177.75"/>
<text text-anchor="start" x="1357.38" y="-162.45" font-family="arial" font-size="14.00"> </text>
</g>
<!-- DB25&#45;&#45;LREV -->
<g id="edge19" class="edge">
<title>DB25:e&#45;&#45;LREV:w</title>
<path fill="none" stroke="#000000" stroke-width="2" d="M183.5,-503.25C270.42,-508.27 243.34,-405.77 325.63,-358.84 423.98,-307.17 1189.12,-178.81 1299.62,-178.75"/>
<path fill="none" stroke="#ff0000" stroke-width="2" d="M183.5,-505.25C272.35,-507.76 245.28,-405.26 326.57,-360.61 424.31,-309.14 1189.45,-180.78 1299.62,-180.75"/>
<path fill="none" stroke="#ff0000" stroke-width="2" d="M183.5,-507.25C274.29,-507.25 247.21,-404.75 327.5,-362.37 424.65,-311.11 1189.78,-182.75 1299.62,-182.75"/>
<path fill="none" stroke="#ff0000" stroke-width="2" d="M183.5,-509.25C276.22,-506.74 249.14,-404.23 328.43,-364.14 424.98,-313.08 1190.11,-184.72 1299.62,-184.75"/>
<path fill="none" stroke="#000000" stroke-width="2" d="M183.5,-511.25C278.15,-506.23 251.08,-403.72 329.37,-365.91 425.31,-315.05 1190.44,-186.69 1299.62,-186.75"/>
</g>
<!-- LPWR -->
<g id="node11" class="node">
<title>LPWR</title>
<polygon fill="#ffffff" stroke="black" points="626.75,-257.75 385.25,-257.75 385.25,-141 626.75,-141 626.75,-257.75"/>
<polygon fill="none" stroke="black" points="385.25,-234 385.25,-257.75 626.75,-257.75 626.75,-234 385.25,-234"/>
<text text-anchor="start" x="486.12" y="-240.45" font-family="arial" font-size="14.00">LPWR</text>
<polygon fill="none" stroke="black" points="385.25,-210.25 385.25,-234 626.75,-234 626.75,-210.25 385.25,-210.25"/>
<text text-anchor="start" x="498.88" y="-216.7" font-family="arial" font-size="14.00">1x</text>
<text text-anchor="start" x="426.62" y="-194.95" font-family="arial" font-size="14.00"> </text>
<text text-anchor="start" x="387.25" y="-175.2" font-family="arial" font-size="14.00">DB25:13:Viso</text>
<text text-anchor="start" x="473.75" y="-175.2" font-family="arial" font-size="14.00"> &#160;&#160;&#160;&#160;1:RD &#160;&#160;&#160;</text>
<text text-anchor="start" x="542.25" y="-175.2" font-family="arial" font-size="14.00">EXT5V:1:+5V</text>
<polygon fill="#000000" stroke="none" points="385.25,-168.75 385.25,-170.75 626.75,-170.75 626.75,-168.75 385.25,-168.75"/>
<polygon fill="#ff0000" stroke="none" points="385.25,-166.75 385.25,-168.75 626.75,-168.75 626.75,-166.75 385.25,-166.75"/>
<polygon fill="#ff0000" stroke="none" points="385.25,-164.75 385.25,-166.75 626.75,-166.75 626.75,-164.75 385.25,-164.75"/>
<polygon fill="#ff0000" stroke="none" points="385.25,-162.75 385.25,-164.75 626.75,-164.75 626.75,-162.75 385.25,-162.75"/>
<polygon fill="#000000" stroke="none" points="385.25,-160.75 385.25,-162.75 626.75,-162.75 626.75,-160.75 385.25,-160.75"/>
<text text-anchor="start" x="426.62" y="-145.45" font-family="arial" font-size="14.00"> </text>
</g>
<!-- DB25&#45;&#45;LPWR -->
<g id="edge27" class="edge">
<title>DB25:e&#45;&#45;LPWR:w</title>
<path fill="none" stroke="#000000" stroke-width="2" d="M183.5,-479.5C346.86,-485.05 213.52,-167.3 384.25,-161.75"/>
<path fill="none" stroke="#ff0000" stroke-width="2" d="M183.5,-481.5C348.7,-484.27 215.36,-166.52 384.25,-163.75"/>
<path fill="none" stroke="#ff0000" stroke-width="2" d="M183.5,-483.5C350.55,-483.5 217.2,-165.75 384.25,-165.75"/>
<path fill="none" stroke="#ff0000" stroke-width="2" d="M183.5,-485.5C352.39,-482.73 219.05,-164.98 384.25,-167.75"/>
<path fill="none" stroke="#000000" stroke-width="2" d="M183.5,-487.5C354.23,-481.95 220.89,-164.2 384.25,-169.75"/>
</g>
<!-- LGND -->
<g id="node12" class="node">
<title>LGND</title>
<polygon fill="#ffffff" stroke="black" points="629.38,-116.75 382.62,-116.75 382.62,0 629.38,0 629.38,-116.75"/>
<polygon fill="none" stroke="black" points="382.62,-93 382.62,-116.75 629.38,-116.75 629.38,-93 382.62,-93"/>
<text text-anchor="start" x="486.88" y="-99.45" font-family="arial" font-size="14.00">LGND</text>
<polygon fill="none" stroke="black" points="382.62,-69.25 382.62,-93 629.38,-93 629.38,-69.25 382.62,-69.25"/>
<text text-anchor="start" x="498.88" y="-75.7" font-family="arial" font-size="14.00">1x</text>
<text text-anchor="start" x="424.38" y="-53.95" font-family="arial" font-size="14.00"> </text>
<text text-anchor="start" x="384.62" y="-34.2" font-family="arial" font-size="14.00">DB25:22:Ciso</text>
<text text-anchor="start" x="471.88" y="-34.2" font-family="arial" font-size="14.00"> &#160;&#160;&#160;&#160;1:BK &#160;&#160;&#160;</text>
<text text-anchor="start" x="538.88" y="-34.2" font-family="arial" font-size="14.00">EXT5V:2:GND</text>
<polygon fill="#000000" stroke="none" points="382.62,-27.75 382.62,-29.75 629.38,-29.75 629.38,-27.75 382.62,-27.75"/>
<polygon fill="#000000" stroke="none" points="382.62,-25.75 382.62,-27.75 629.38,-27.75 629.38,-25.75 382.62,-25.75"/>
<polygon fill="#000000" stroke="none" points="382.62,-23.75 382.62,-25.75 629.38,-25.75 629.38,-23.75 382.62,-23.75"/>
<polygon fill="#000000" stroke="none" points="382.62,-21.75 382.62,-23.75 629.38,-23.75 629.38,-21.75 382.62,-21.75"/>
<polygon fill="#000000" stroke="none" points="382.62,-19.75 382.62,-21.75 629.38,-21.75 629.38,-19.75 382.62,-19.75"/>
<text text-anchor="start" x="424.38" y="-4.45" font-family="arial" font-size="14.00"> </text>
</g>
<!-- DB25&#45;&#45;LGND -->
<g id="edge29" class="edge">
<title>DB25:e&#45;&#45;LGND:w</title>
<path fill="none" stroke="#000000" stroke-width="2" d="M183.5,-455.75C392.39,-461.6 165.64,-26.6 381.62,-20.75"/>
<path fill="none" stroke="#000000" stroke-width="2" d="M183.5,-457.75C394.17,-460.67 167.41,-25.67 381.62,-22.75"/>
<path fill="none" stroke="#000000" stroke-width="2" d="M183.5,-459.75C395.94,-459.75 169.18,-24.75 381.62,-24.75"/>
<path fill="none" stroke="#000000" stroke-width="2" d="M183.5,-461.75C397.72,-458.83 170.96,-23.83 381.62,-26.75"/>
<path fill="none" stroke="#000000" stroke-width="2" d="M183.5,-463.75C399.49,-457.9 172.73,-22.9 381.62,-28.75"/>
</g>
<!-- MC508_ENC -->
<g id="node2" class="node">
<title>MC508_ENC</title>
<polygon fill="#ffffff" stroke="black" points="1086.75,-804.62 877,-804.62 877,-472.12 1086.75,-472.12 1086.75,-804.62"/>
<polygon fill="none" stroke="black" points="877,-780.88 877,-804.62 1086.75,-804.62 1086.75,-780.88 877,-780.88"/>
<text text-anchor="start" x="941.75" y="-787.33" font-family="arial" font-size="14.00">MC508_ENC</text>
<polygon fill="none" stroke="black" points="877,-757.12 877,-780.88 989,-780.88 989,-757.12 877,-757.12"/>
<text text-anchor="start" x="907.5" y="-763.58" font-family="arial" font-size="14.00">MDR&#45;20</text>
<polygon fill="none" stroke="black" points="989,-757.12 989,-780.88 1086.75,-780.88 1086.75,-757.12 989,-757.12"/>
<text text-anchor="start" x="1019.5" y="-763.58" font-family="arial" font-size="14.00">11&#45;pin</text>
<polygon fill="none" stroke="black" points="877,-733.38 877,-757.12 930.92,-757.12 930.92,-733.38 877,-733.38"/>
<text text-anchor="start" x="900.21" y="-739.83" font-family="arial" font-size="14.00">1</text>
<polygon fill="none" stroke="black" points="930.92,-733.38 930.92,-757.12 1032.83,-757.12 1032.83,-733.38 930.92,-733.38"/>
<text text-anchor="start" x="960.12" y="-739.83" font-family="arial" font-size="14.00">Enc A+</text>
<polygon fill="none" stroke="black" points="1032.83,-733.38 1032.83,-757.12 1086.75,-757.12 1086.75,-733.38 1032.83,-733.38"/>
<text text-anchor="start" x="1056.04" y="-739.83" font-family="arial" font-size="14.00">1</text>
<polygon fill="none" stroke="black" points="877,-709.62 877,-733.38 930.92,-733.38 930.92,-709.62 877,-709.62"/>
<text text-anchor="start" x="900.21" y="-716.08" font-family="arial" font-size="14.00">2</text>
<polygon fill="none" stroke="black" points="930.92,-709.62 930.92,-733.38 1032.83,-733.38 1032.83,-709.62 930.92,-709.62"/>
<text text-anchor="start" x="962.38" y="-716.08" font-family="arial" font-size="14.00">/Enc A</text>
<polygon fill="none" stroke="black" points="1032.83,-709.62 1032.83,-733.38 1086.75,-733.38 1086.75,-709.62 1032.83,-709.62"/>
<text text-anchor="start" x="1056.04" y="-716.08" font-family="arial" font-size="14.00">2</text>
<polygon fill="none" stroke="black" points="877,-685.88 877,-709.62 930.92,-709.62 930.92,-685.88 877,-685.88"/>
<text text-anchor="start" x="900.21" y="-692.33" font-family="arial" font-size="14.00">3</text>
<polygon fill="none" stroke="black" points="930.92,-685.88 930.92,-709.62 1032.83,-709.62 1032.83,-685.88 930.92,-685.88"/>
<text text-anchor="start" x="959.75" y="-692.33" font-family="arial" font-size="14.00">Enc B+</text>
<polygon fill="none" stroke="black" points="1032.83,-685.88 1032.83,-709.62 1086.75,-709.62 1086.75,-685.88 1032.83,-685.88"/>
<text text-anchor="start" x="1056.04" y="-692.33" font-family="arial" font-size="14.00">3</text>
<polygon fill="none" stroke="black" points="877,-662.12 877,-685.88 930.92,-685.88 930.92,-662.12 877,-662.12"/>
<text text-anchor="start" x="900.21" y="-668.58" font-family="arial" font-size="14.00">4</text>
<polygon fill="none" stroke="black" points="930.92,-662.12 930.92,-685.88 1032.83,-685.88 1032.83,-662.12 930.92,-662.12"/>
<text text-anchor="start" x="962" y="-668.58" font-family="arial" font-size="14.00">/Enc B</text>
<polygon fill="none" stroke="black" points="1032.83,-662.12 1032.83,-685.88 1086.75,-685.88 1086.75,-662.12 1032.83,-662.12"/>
<text text-anchor="start" x="1056.04" y="-668.58" font-family="arial" font-size="14.00">4</text>
<polygon fill="none" stroke="black" points="877,-638.38 877,-662.12 930.92,-662.12 930.92,-638.38 877,-638.38"/>
<text text-anchor="start" x="896.83" y="-644.83" font-family="arial" font-size="14.00">11</text>
<polygon fill="none" stroke="black" points="930.92,-638.38 930.92,-662.12 1032.83,-662.12 1032.83,-638.38 930.92,-638.38"/>
<text text-anchor="start" x="960.12" y="-644.83" font-family="arial" font-size="14.00">Enc Z+</text>
<polygon fill="none" stroke="black" points="1032.83,-638.38 1032.83,-662.12 1086.75,-662.12 1086.75,-638.38 1032.83,-638.38"/>
<text text-anchor="start" x="1052.67" y="-644.83" font-family="arial" font-size="14.00">11</text>
<polygon fill="none" stroke="black" points="877,-614.62 877,-638.38 930.92,-638.38 930.92,-614.62 877,-614.62"/>
<text text-anchor="start" x="896.46" y="-621.08" font-family="arial" font-size="14.00">12</text>
<polygon fill="none" stroke="black" points="930.92,-614.62 930.92,-638.38 1032.83,-638.38 1032.83,-614.62 930.92,-614.62"/>
<text text-anchor="start" x="962.38" y="-621.08" font-family="arial" font-size="14.00">/Enc Z</text>
<polygon fill="none" stroke="black" points="1032.83,-614.62 1032.83,-638.38 1086.75,-638.38 1086.75,-614.62 1032.83,-614.62"/>
<text text-anchor="start" x="1052.29" y="-621.08" font-family="arial" font-size="14.00">12</text>
<polygon fill="none" stroke="black" points="877,-590.88 877,-614.62 930.92,-614.62 930.92,-590.88 877,-590.88"/>
<text text-anchor="start" x="900.21" y="-597.33" font-family="arial" font-size="14.00">5</text>
<polygon fill="none" stroke="black" points="930.92,-590.88 930.92,-614.62 1032.83,-614.62 1032.83,-590.88 930.92,-590.88"/>
<text text-anchor="start" x="956" y="-597.33" font-family="arial" font-size="14.00">+5V Enc</text>
<polygon fill="none" stroke="black" points="1032.83,-590.88 1032.83,-614.62 1086.75,-614.62 1086.75,-590.88 1032.83,-590.88"/>
<text text-anchor="start" x="1056.04" y="-597.33" font-family="arial" font-size="14.00">5</text>
<polygon fill="none" stroke="black" points="877,-567.12 877,-590.88 930.92,-590.88 930.92,-567.12 877,-567.12"/>
<text text-anchor="start" x="896.46" y="-573.58" font-family="arial" font-size="14.00">15</text>
<polygon fill="none" stroke="black" points="930.92,-567.12 930.92,-590.88 1032.83,-590.88 1032.83,-567.12 930.92,-567.12"/>
<text text-anchor="start" x="973.62" y="-573.58" font-family="arial" font-size="14.00">0V</text>
<polygon fill="none" stroke="black" points="1032.83,-567.12 1032.83,-590.88 1086.75,-590.88 1086.75,-567.12 1032.83,-567.12"/>
<text text-anchor="start" x="1052.29" y="-573.58" font-family="arial" font-size="14.00">15</text>
<polygon fill="none" stroke="black" points="877,-543.38 877,-567.12 930.92,-567.12 930.92,-543.38 877,-543.38"/>
<text text-anchor="start" x="900.21" y="-549.83" font-family="arial" font-size="14.00">9</text>
<polygon fill="none" stroke="black" points="930.92,-543.38 930.92,-567.12 1032.83,-567.12 1032.83,-543.38 930.92,-543.38"/>
<text text-anchor="start" x="960.88" y="-549.83" font-family="arial" font-size="14.00">Input A</text>
<polygon fill="none" stroke="black" points="1032.83,-543.38 1032.83,-567.12 1086.75,-567.12 1086.75,-543.38 1032.83,-543.38"/>
<text text-anchor="start" x="1056.04" y="-549.83" font-family="arial" font-size="14.00">9</text>
<polygon fill="none" stroke="black" points="877,-519.62 877,-543.38 930.92,-543.38 930.92,-519.62 877,-519.62"/>
<text text-anchor="start" x="896.46" y="-526.08" font-family="arial" font-size="14.00">20</text>
<polygon fill="none" stroke="black" points="930.92,-519.62 930.92,-543.38 1032.83,-543.38 1032.83,-519.62 930.92,-519.62"/>
<text text-anchor="start" x="960.5" y="-526.08" font-family="arial" font-size="14.00">Input B</text>
<polygon fill="none" stroke="black" points="1032.83,-519.62 1032.83,-543.38 1086.75,-543.38 1086.75,-519.62 1032.83,-519.62"/>
<text text-anchor="start" x="1052.29" y="-526.08" font-family="arial" font-size="14.00">20</text>
<polygon fill="none" stroke="black" points="877,-495.88 877,-519.62 930.92,-519.62 930.92,-495.88 877,-495.88"/>
<text text-anchor="start" x="896.46" y="-502.32" font-family="arial" font-size="14.00">10</text>
<polygon fill="none" stroke="black" points="930.92,-495.88 930.92,-519.62 1032.83,-519.62 1032.83,-495.88 930.92,-495.88"/>
<text text-anchor="start" x="950.38" y="-502.32" font-family="arial" font-size="14.00">Input Com</text>
<polygon fill="none" stroke="black" points="1032.83,-495.88 1032.83,-519.62 1086.75,-519.62 1086.75,-495.88 1032.83,-495.88"/>
<text text-anchor="start" x="1052.29" y="-502.32" font-family="arial" font-size="14.00">10</text>
<polygon fill="none" stroke="black" points="877,-472.12 877,-495.88 1086.75,-495.88 1086.75,-472.12 877,-472.12"/>
<text text-anchor="start" x="881" y="-478.57" font-family="arial" font-size="14.00">MC508 Encoder Port (ATYPE 76)</text>
</g>
<!-- ICOM -->
<g id="node10" class="node">
<title>ICOM</title>
<polygon fill="#ffffff" stroke="black" points="1626.5,-439.62 1279.25,-439.62 1279.25,-299.12 1626.5,-299.12 1626.5,-439.62"/>
<polygon fill="none" stroke="black" points="1279.25,-415.88 1279.25,-439.62 1626.5,-439.62 1626.5,-415.88 1279.25,-415.88"/>
<text text-anchor="start" x="1434.5" y="-422.32" font-family="arial" font-size="14.00">ICOM</text>
<polygon fill="none" stroke="black" points="1279.25,-392.12 1279.25,-415.88 1626.5,-415.88 1626.5,-392.12 1279.25,-392.12"/>
<text text-anchor="start" x="1445.75" y="-398.57" font-family="arial" font-size="14.00">1x</text>
<text text-anchor="start" x="1362.25" y="-376.82" font-family="arial" font-size="14.00"> </text>
<text text-anchor="start" x="1281.25" y="-357.07" font-family="arial" font-size="14.00">MC508_ENC:10:Input Com</text>
<text text-anchor="start" x="1451" y="-357.07" font-family="arial" font-size="14.00"> &#160;&#160;&#160;&#160;1:BK &#160;&#160;&#160;</text>
<text text-anchor="start" x="1518" y="-357.07" font-family="arial" font-size="14.00">LVLSHIFT:5:GND</text>
<polygon fill="#000000" stroke="none" points="1279.25,-350.62 1279.25,-352.62 1626.5,-352.62 1626.5,-350.62 1279.25,-350.62"/>
<polygon fill="#000000" stroke="none" points="1279.25,-348.62 1279.25,-350.62 1626.5,-350.62 1626.5,-348.62 1279.25,-348.62"/>
<polygon fill="#000000" stroke="none" points="1279.25,-346.62 1279.25,-348.62 1626.5,-348.62 1626.5,-346.62 1279.25,-346.62"/>
<polygon fill="#000000" stroke="none" points="1279.25,-344.62 1279.25,-346.62 1626.5,-346.62 1626.5,-344.62 1279.25,-344.62"/>
<polygon fill="#000000" stroke="none" points="1279.25,-342.62 1279.25,-344.62 1626.5,-344.62 1626.5,-342.62 1279.25,-342.62"/>
<text text-anchor="start" x="1362.25" y="-327.32" font-family="arial" font-size="14.00"> </text>
<polygon fill="none" stroke="black" points="1279.25,-299.12 1279.25,-322.88 1626.5,-322.88 1626.5,-299.12 1279.25,-299.12"/>
<text text-anchor="start" x="1371.5" y="-305.57" font-family="arial" font-size="14.00">Input common (24V return)</text>
</g>
<!-- MC508_ENC&#45;&#45;ICOM -->
<g id="edge25" class="edge">
<title>MC508_ENC:e&#45;&#45;ICOM:w</title>
<path fill="none" stroke="#000000" stroke-width="2" d="M1087.75,-503.75C1194.76,-508.5 1164.38,-348.37 1279.25,-343.63"/>
<path fill="none" stroke="#000000" stroke-width="2" d="M1087.75,-505.75C1196.73,-508.12 1166.34,-348 1279.25,-345.63"/>
<path fill="none" stroke="#000000" stroke-width="2" d="M1087.75,-507.75C1198.69,-507.75 1168.31,-347.62 1279.25,-347.62"/>
<path fill="none" stroke="#000000" stroke-width="2" d="M1087.75,-509.75C1200.66,-507.38 1170.27,-347.25 1279.25,-349.62"/>
<path fill="none" stroke="#000000" stroke-width="2" d="M1087.75,-511.75C1202.62,-507 1172.24,-346.88 1279.25,-351.62"/>
</g>
<!-- LVLSHIFT -->
<g id="node3" class="node">
<title>LVLSHIFT</title>
<polygon fill="#ffffff" stroke="black" points="2072.5,-495.38 1770.5,-495.38 1770.5,-305.38 2072.5,-305.38 2072.5,-495.38"/>
<polygon fill="none" stroke="black" points="1770.5,-471.62 1770.5,-495.38 2072.5,-495.38 2072.5,-471.62 1770.5,-471.62"/>
<text text-anchor="start" x="1890.38" y="-478.07" font-family="arial" font-size="14.00">LVLSHIFT</text>
<polygon fill="none" stroke="black" points="1770.5,-447.88 1770.5,-471.62 1924.5,-471.62 1924.5,-447.88 1770.5,-447.88"/>
<text text-anchor="start" x="1829.5" y="-454.32" font-family="arial" font-size="14.00">Board</text>
<polygon fill="none" stroke="black" points="1924.5,-447.88 1924.5,-471.62 2072.5,-471.62 2072.5,-447.88 1924.5,-447.88"/>
<text text-anchor="start" x="1983.5" y="-454.32" font-family="arial" font-size="14.00">5&#45;pin</text>
<polygon fill="none" stroke="black" points="1770.5,-424.12 1770.5,-447.88 1856.42,-447.88 1856.42,-424.12 1770.5,-424.12"/>
<text text-anchor="start" x="1809.71" y="-430.57" font-family="arial" font-size="14.00">1</text>
<polygon fill="none" stroke="black" points="1856.42,-424.12 1856.42,-447.88 1986.58,-447.88 1986.58,-424.12 1856.42,-424.12"/>
<text text-anchor="start" x="1901.25" y="-430.57" font-family="arial" font-size="14.00">In Fwd</text>
<polygon fill="none" stroke="black" points="1986.58,-424.12 1986.58,-447.88 2072.5,-447.88 2072.5,-424.12 1986.58,-424.12"/>
<text text-anchor="start" x="2025.79" y="-430.57" font-family="arial" font-size="14.00">1</text>
<polygon fill="none" stroke="black" points="1770.5,-400.38 1770.5,-424.12 1856.42,-424.12 1856.42,-400.38 1770.5,-400.38"/>
<text text-anchor="start" x="1809.71" y="-406.82" font-family="arial" font-size="14.00">2</text>
<polygon fill="none" stroke="black" points="1856.42,-400.38 1856.42,-424.12 1986.58,-424.12 1986.58,-400.38 1856.42,-400.38"/>
<text text-anchor="start" x="1902" y="-406.82" font-family="arial" font-size="14.00">In Rev</text>
<polygon fill="none" stroke="black" points="1986.58,-400.38 1986.58,-424.12 2072.5,-424.12 2072.5,-400.38 1986.58,-400.38"/>
<text text-anchor="start" x="2025.79" y="-406.82" font-family="arial" font-size="14.00">2</text>
<polygon fill="none" stroke="black" points="1770.5,-376.62 1770.5,-400.38 1856.42,-400.38 1856.42,-376.62 1770.5,-376.62"/>
<text text-anchor="start" x="1809.71" y="-383.07" font-family="arial" font-size="14.00">3</text>
<polygon fill="none" stroke="black" points="1856.42,-376.62 1856.42,-400.38 1986.58,-400.38 1986.58,-376.62 1856.42,-376.62"/>
<text text-anchor="start" x="1895.62" y="-383.07" font-family="arial" font-size="14.00">Out Fwd</text>
<polygon fill="none" stroke="black" points="1986.58,-376.62 1986.58,-400.38 2072.5,-400.38 2072.5,-376.62 1986.58,-376.62"/>
<text text-anchor="start" x="2025.79" y="-383.07" font-family="arial" font-size="14.00">3</text>
<polygon fill="none" stroke="black" points="1770.5,-352.88 1770.5,-376.62 1856.42,-376.62 1856.42,-352.88 1770.5,-352.88"/>
<text text-anchor="start" x="1809.71" y="-359.32" font-family="arial" font-size="14.00">4</text>
<polygon fill="none" stroke="black" points="1856.42,-352.88 1856.42,-376.62 1986.58,-376.62 1986.58,-352.88 1856.42,-352.88"/>
<text text-anchor="start" x="1896.38" y="-359.32" font-family="arial" font-size="14.00">Out Rev</text>
<polygon fill="none" stroke="black" points="1986.58,-352.88 1986.58,-376.62 2072.5,-376.62 2072.5,-352.88 1986.58,-352.88"/>
<text text-anchor="start" x="2025.79" y="-359.32" font-family="arial" font-size="14.00">4</text>
<polygon fill="none" stroke="black" points="1770.5,-329.12 1770.5,-352.88 1856.42,-352.88 1856.42,-329.12 1770.5,-329.12"/>
<text text-anchor="start" x="1809.71" y="-335.57" font-family="arial" font-size="14.00">5</text>
<polygon fill="none" stroke="black" points="1856.42,-329.12 1856.42,-352.88 1986.58,-352.88 1986.58,-329.12 1856.42,-329.12"/>
<text text-anchor="start" x="1906.12" y="-335.57" font-family="arial" font-size="14.00">GND</text>
<polygon fill="none" stroke="black" points="1986.58,-329.12 1986.58,-352.88 2072.5,-352.88 2072.5,-329.12 1986.58,-329.12"/>
<text text-anchor="start" x="2025.79" y="-335.57" font-family="arial" font-size="14.00">5</text>
<polygon fill="none" stroke="black" points="1770.5,-305.38 1770.5,-329.12 2072.5,-329.12 2072.5,-305.38 1770.5,-305.38"/>
<text text-anchor="start" x="1774.5" y="-311.82" font-family="arial" font-size="14.00">Level Shift (ULN2003A or similar, 5V to 24V sink)</text>
</g>
<!-- UFWD -->
<g id="node8" class="node">
<title>UFWD</title>
<polygon fill="#ffffff" stroke="black" points="2572.75,-654.75 2230.75,-654.75 2230.75,-538 2572.75,-538 2572.75,-654.75"/>
<polygon fill="none" stroke="black" points="2230.75,-631 2230.75,-654.75 2572.75,-654.75 2572.75,-631 2230.75,-631"/>
<text text-anchor="start" x="2381.12" y="-637.45" font-family="arial" font-size="14.00">UFWD</text>
<polygon fill="none" stroke="black" points="2230.75,-607.25 2230.75,-631 2572.75,-631 2572.75,-607.25 2230.75,-607.25"/>
<text text-anchor="start" x="2394.62" y="-613.7" font-family="arial" font-size="14.00">1x</text>
<text text-anchor="start" x="2294.62" y="-591.95" font-family="arial" font-size="14.00"> </text>
<text text-anchor="start" x="2232.75" y="-572.2" font-family="arial" font-size="14.00">LVLSHIFT:3:Out Fwd</text>
<text text-anchor="start" x="2364.25" y="-572.2" font-family="arial" font-size="14.00"> &#160;&#160;&#160;&#160;1:GY &#160;&#160;&#160;</text>
<text text-anchor="start" x="2433.5" y="-572.2" font-family="arial" font-size="14.00">MC508_ENC:9:Input A</text>
<polygon fill="#000000" stroke="none" points="2230.75,-565.75 2230.75,-567.75 2572.75,-567.75 2572.75,-565.75 2230.75,-565.75"/>
<polygon fill="#999999" stroke="none" points="2230.75,-563.75 2230.75,-565.75 2572.75,-565.75 2572.75,-563.75 2230.75,-563.75"/>
<polygon fill="#999999" stroke="none" points="2230.75,-561.75 2230.75,-563.75 2572.75,-563.75 2572.75,-561.75 2230.75,-561.75"/>
<polygon fill="#999999" stroke="none" points="2230.75,-559.75 2230.75,-561.75 2572.75,-561.75 2572.75,-559.75 2230.75,-559.75"/>
<polygon fill="#000000" stroke="none" points="2230.75,-557.75 2230.75,-559.75 2572.75,-559.75 2572.75,-557.75 2230.75,-557.75"/>
<text text-anchor="start" x="2294.62" y="-542.45" font-family="arial" font-size="14.00"> </text>
</g>
<!-- LVLSHIFT&#45;&#45;UFWD -->
<g id="edge21" class="edge">
<title>LVLSHIFT:e&#45;&#45;UFWD:w</title>
<path fill="none" stroke="#000000" stroke-width="2" d="M2072.5,-384.5C2180.65,-389.63 2129.27,-563.88 2229.75,-558.75"/>
<path fill="none" stroke="#999999" stroke-width="2" d="M2072.5,-386.5C2178.74,-389.07 2127.35,-563.32 2229.75,-560.75"/>
<path fill="none" stroke="#999999" stroke-width="2" d="M2072.5,-388.5C2176.82,-388.5 2125.43,-562.75 2229.75,-562.75"/>
<path fill="none" stroke="#999999" stroke-width="2" d="M2072.5,-390.5C2174.9,-387.93 2123.51,-562.18 2229.75,-564.75"/>
<path fill="none" stroke="#000000" stroke-width="2" d="M2072.5,-392.5C2172.98,-387.37 2121.6,-561.62 2229.75,-566.75"/>
</g>
<!-- UREV -->
<g id="node9" class="node">
<title>UREV</title>
<polygon fill="#ffffff" stroke="black" points="2587,-475.75 2216.5,-475.75 2216.5,-359 2587,-359 2587,-475.75"/>
<polygon fill="none" stroke="black" points="2216.5,-452 2216.5,-475.75 2587,-475.75 2587,-452 2216.5,-452"/>
<text text-anchor="start" x="2383" y="-458.45" font-family="arial" font-size="14.00">UREV</text>
<polygon fill="none" stroke="black" points="2216.5,-428.25 2216.5,-452 2587,-452 2587,-428.25 2216.5,-428.25"/>
<text text-anchor="start" x="2394.62" y="-434.7" font-family="arial" font-size="14.00">1x</text>
<text text-anchor="start" x="2279.62" y="-412.95" font-family="arial" font-size="14.00"> </text>
<text text-anchor="start" x="2218.5" y="-393.2" font-family="arial" font-size="14.00">LVLSHIFT:4:Out Rev</text>
<text text-anchor="start" x="2348.5" y="-393.2" font-family="arial" font-size="14.00"> &#160;&#160;&#160;&#160;1:BUWH &#160;&#160;&#160;</text>
<text text-anchor="start" x="2439.5" y="-393.2" font-family="arial" font-size="14.00">MC508_ENC:20:Input B</text>
<polygon fill="#000000" stroke="none" points="2216.5,-386.75 2216.5,-388.75 2587,-388.75 2587,-386.75 2216.5,-386.75"/>
<polygon fill="#0066ff" stroke="none" points="2216.5,-384.75 2216.5,-386.75 2587,-386.75 2587,-384.75 2216.5,-384.75"/>
<polygon fill="#ffffff" stroke="none" points="2216.5,-382.75 2216.5,-384.75 2587,-384.75 2587,-382.75 2216.5,-382.75"/>
<polygon fill="#0066ff" stroke="none" points="2216.5,-380.75 2216.5,-382.75 2587,-382.75 2587,-380.75 2216.5,-380.75"/>
<polygon fill="#000000" stroke="none" points="2216.5,-378.75 2216.5,-380.75 2587,-380.75 2587,-378.75 2216.5,-378.75"/>
<text text-anchor="start" x="2279.62" y="-363.45" font-family="arial" font-size="14.00"> </text>
</g>
<!-- LVLSHIFT&#45;&#45;UREV -->
<g id="edge23" class="edge">
<title>LVLSHIFT:e&#45;&#45;UREV:w</title>
<path fill="none" stroke="#000000" stroke-width="2" d="M2072.5,-360.75C2140.2,-362.28 2155.09,-381.28 2216.5,-379.75"/>
<path fill="none" stroke="#0066ff" stroke-width="2" d="M2072.5,-362.75C2138.63,-363.52 2153.52,-382.52 2216.5,-381.75"/>
<path fill="none" stroke="#ffffff" stroke-width="2" d="M2072.5,-364.75C2137.05,-364.75 2151.95,-383.75 2216.5,-383.75"/>
<path fill="none" stroke="#0066ff" stroke-width="2" d="M2072.5,-366.75C2135.48,-365.98 2150.37,-384.98 2216.5,-385.75"/>
<path fill="none" stroke="#000000" stroke-width="2" d="M2072.5,-368.75C2133.91,-367.22 2148.8,-386.22 2216.5,-387.75"/>
</g>
<!-- EXT5V -->
<g id="node4" class="node">
<title>EXT5V</title>
<polygon fill="#ffffff" stroke="black" points="1080.38,-167.75 883.38,-167.75 883.38,-49 1080.38,-49 1080.38,-167.75"/>
<polygon fill="none" stroke="black" points="883.38,-144 883.38,-167.75 1080.38,-167.75 1080.38,-144 883.38,-144"/>
<text text-anchor="start" x="960.5" y="-150.45" font-family="arial" font-size="14.00">EXT5V</text>
<polygon fill="none" stroke="black" points="883.38,-120.25 883.38,-144 1008.5,-144 1008.5,-120.25 883.38,-120.25"/>
<text text-anchor="start" x="904.31" y="-126.7" font-family="arial" font-size="14.00">Power Supply</text>
<polygon fill="none" stroke="black" points="1008.5,-120.25 1008.5,-144 1080.38,-144 1080.38,-120.25 1008.5,-120.25"/>
<text text-anchor="start" x="1029.44" y="-126.7" font-family="arial" font-size="14.00">2&#45;pin</text>
<polygon fill="none" stroke="black" points="883.38,-96.5 883.38,-120.25 970.25,-120.25 970.25,-96.5 883.38,-96.5"/>
<text text-anchor="start" x="923.06" y="-102.95" font-family="arial" font-size="14.00">1</text>
<polygon fill="none" stroke="black" points="970.25,-96.5 970.25,-120.25 1080.38,-120.25 1080.38,-96.5 970.25,-96.5"/>
<text text-anchor="start" x="1012.94" y="-102.95" font-family="arial" font-size="14.00">+5V</text>
<polygon fill="none" stroke="black" points="883.38,-72.75 883.38,-96.5 970.25,-96.5 970.25,-72.75 883.38,-72.75"/>
<text text-anchor="start" x="923.06" y="-79.2" font-family="arial" font-size="14.00">2</text>
<polygon fill="none" stroke="black" points="970.25,-72.75 970.25,-96.5 1080.38,-96.5 1080.38,-72.75 970.25,-72.75"/>
<text text-anchor="start" x="1009.94" y="-79.2" font-family="arial" font-size="14.00">GND</text>
<polygon fill="none" stroke="black" points="883.38,-49 883.38,-72.75 1080.38,-72.75 1080.38,-49 883.38,-49"/>
<text text-anchor="start" x="887.38" y="-55.45" font-family="arial" font-size="14.00">External 5V (limit switch power)</text>
</g>
<!-- ENC&#45;&#45;MC508_ENC -->
<g id="edge2" class="edge">
<title>ENC:e&#45;&#45;MC508_ENC:w</title>
<path fill="none" stroke="#000000" stroke-width="2" d="M684.5,-749.75C768.2,-750.04 789.31,-741.54 876,-741.25"/>
<path fill="none" stroke="#000000" stroke-width="2" d="M684.5,-751.75C768.95,-751.89 790.06,-743.39 876,-743.25"/>
<path fill="none" stroke="#000000" stroke-width="2" d="M684.5,-753.75C769.69,-753.75 790.81,-745.25 876,-745.25"/>
<path fill="none" stroke="#000000" stroke-width="2" d="M684.5,-755.75C770.44,-755.61 791.55,-747.11 876,-747.25"/>
<path fill="none" stroke="#000000" stroke-width="2" d="M684.5,-757.75C771.19,-757.46 792.3,-748.96 876,-749.25"/>
</g>
<!-- ENC&#45;&#45;MC508_ENC -->
<g id="edge4" class="edge">
<title>ENC:e&#45;&#45;MC508_ENC:w</title>
<path fill="none" stroke="#000000" stroke-width="2" d="M684.5,-720C769.15,-720.03 790.41,-717.53 876,-717.5"/>
<path fill="none" stroke="#895956" stroke-width="2" d="M684.5,-722C769.38,-722.01 790.65,-719.51 876,-719.5"/>
<path fill="none" stroke="#895956" stroke-width="2" d="M684.5,-724C769.62,-724 790.88,-721.5 876,-721.5"/>
<path fill="none" stroke="#895956" stroke-width="2" d="M684.5,-726C769.85,-725.99 791.12,-723.49 876,-723.5"/>
<path fill="none" stroke="#000000" stroke-width="2" d="M684.5,-728C770.09,-727.97 791.35,-725.47 876,-725.5"/>
</g>
<!-- ENC&#45;&#45;MC508_ENC -->
<g id="edge6" class="edge">
<title>ENC:e&#45;&#45;MC508_ENC:w</title>
<path fill="none" stroke="#000000" stroke-width="2" d="M684.5,-690.25C770.28,-690.3 791.52,-693.8 876,-693.75"/>
<path fill="none" stroke="#ff0000" stroke-width="2" d="M684.5,-692.25C769.95,-692.28 791.2,-695.78 876,-695.75"/>
<path fill="none" stroke="#ff0000" stroke-width="2" d="M684.5,-694.25C769.63,-694.25 790.87,-697.75 876,-697.75"/>
<path fill="none" stroke="#ff0000" stroke-width="2" d="M684.5,-696.25C769.3,-696.22 790.55,-699.72 876,-699.75"/>
<path fill="none" stroke="#000000" stroke-width="2" d="M684.5,-698.25C768.98,-698.2 790.22,-701.7 876,-701.75"/>
</g>
<!-- ENC&#45;&#45;MC508_ENC -->
<g id="edge8" class="edge">
<title>ENC:e&#45;&#45;MC508_ENC:w</title>
<path fill="none" stroke="#000000" stroke-width="2" d="M684.5,-660.5C771.36,-660.85 792.43,-670.35 876,-670"/>
<path fill="none" stroke="#ff8000" stroke-width="2" d="M684.5,-662.5C770.54,-662.68 791.61,-672.18 876,-672"/>
<path fill="none" stroke="#ff8000" stroke-width="2" d="M684.5,-664.5C769.72,-664.5 790.78,-674 876,-674"/>
<path fill="none" stroke="#ff8000" stroke-width="2" d="M684.5,-666.5C768.89,-666.32 789.96,-675.82 876,-676"/>
<path fill="none" stroke="#000000" stroke-width="2" d="M684.5,-668.5C768.07,-668.15 789.14,-677.65 876,-678"/>
</g>
<!-- ENC&#45;&#45;MC508_ENC -->
<g id="edge10" class="edge">
<title>ENC:e&#45;&#45;MC508_ENC:w</title>
<path fill="none" stroke="#000000" stroke-width="2" d="M684.5,-630.75C772.29,-631.55 793.01,-647.05 876,-646.25"/>
<path fill="none" stroke="#00ff00" stroke-width="2" d="M684.5,-632.75C771.09,-633.15 791.81,-648.65 876,-648.25"/>
<path fill="none" stroke="#ffff00" stroke-width="2" d="M684.5,-634.75C769.89,-634.75 790.61,-650.25 876,-650.25"/>
<path fill="none" stroke="#00ff00" stroke-width="2" d="M684.5,-636.75C768.69,-636.35 789.41,-651.85 876,-652.25"/>
<path fill="none" stroke="#000000" stroke-width="2" d="M684.5,-638.75C767.49,-637.95 788.21,-653.45 876,-654.25"/>
</g>
<!-- ENC&#45;&#45;MC508_ENC -->
<g id="edge12" class="edge">
<title>ENC:e&#45;&#45;MC508_ENC:w</title>
<path fill="none" stroke="#000000" stroke-width="2" d="M684.5,-601C773.06,-602.26 793.27,-623.76 876,-622.5"/>
<path fill="none" stroke="#a0dfff" stroke-width="2" d="M684.5,-603C771.6,-603.63 791.81,-625.13 876,-624.5"/>
<path fill="none" stroke="#0066ff" stroke-width="2" d="M684.5,-605C770.15,-605 790.35,-626.5 876,-626.5"/>
<path fill="none" stroke="#a0dfff" stroke-width="2" d="M684.5,-607C768.69,-606.37 788.9,-627.87 876,-628.5"/>
<path fill="none" stroke="#000000" stroke-width="2" d="M684.5,-609C767.23,-607.74 787.44,-629.24 876,-630.5"/>
</g>
<!-- ENC&#45;&#45;MC508_ENC -->
<g id="edge14" class="edge">
<title>ENC:e&#45;&#45;MC508_ENC:w</title>
<path fill="none" stroke="#000000" stroke-width="2" d="M684.5,-571.25C773.75,-572.93 793.28,-600.43 876,-598.75"/>
<path fill="none" stroke="#ffff00" stroke-width="2" d="M684.5,-573.25C772.11,-574.09 791.65,-601.59 876,-600.75"/>
<path fill="none" stroke="#ffff00" stroke-width="2" d="M684.5,-575.25C770.48,-575.25 790.02,-602.75 876,-602.75"/>
<path fill="none" stroke="#ffff00" stroke-width="2" d="M684.5,-577.25C768.85,-576.41 788.39,-603.91 876,-604.75"/>
<path fill="none" stroke="#000000" stroke-width="2" d="M684.5,-579.25C767.22,-577.57 786.75,-605.07 876,-606.75"/>
</g>
<!-- ENC&#45;&#45;MC508_ENC -->
<g id="edge16" class="edge">
<title>ENC:e&#45;&#45;MC508_ENC:w</title>
<path fill="none" stroke="#000000" stroke-width="2" d="M684.5,-541.5C774.4,-543.55 793.09,-577.05 876,-575"/>
<path fill="none" stroke="#895956" stroke-width="2" d="M684.5,-543.5C772.65,-544.53 791.34,-578.03 876,-577"/>
<path fill="none" stroke="#ffffff" stroke-width="2" d="M684.5,-545.5C770.9,-545.5 789.6,-579 876,-579"/>
<path fill="none" stroke="#895956" stroke-width="2" d="M684.5,-547.5C769.16,-546.47 787.85,-579.97 876,-581"/>
<path fill="none" stroke="#000000" stroke-width="2" d="M684.5,-549.5C767.41,-547.45 786.1,-580.95 876,-583"/>
</g>
<!-- LFWD&#45;&#45;LVLSHIFT -->
<g id="edge18" class="edge">
<title>LFWD:e&#45;&#45;LVLSHIFT:w</title>
<path fill="none" stroke="#000000" stroke-width="2" d="M1135.25,-351.75C1216.06,-356.1 1209.69,-429.52 1280.41,-447.55 1424.5,-492.84 1469.88,-456.46 1626.29,-447.38 1688.32,-444.8 1703.68,-432.84 1770.5,-432"/>
<path fill="none" stroke="#0066ff" stroke-width="2" d="M1135.25,-353.75C1214.07,-355.92 1207.69,-429.35 1279.83,-449.46 1425.75,-494.4 1471.13,-458.02 1626.39,-449.38 1689.54,-446.37 1704.91,-434.42 1770.5,-434"/>
<path fill="none" stroke="#0066ff" stroke-width="2" d="M1135.25,-355.75C1212.08,-355.75 1205.7,-429.18 1279.25,-451.38 1427,-495.97 1472.38,-459.58 1626.5,-451.38 1690.77,-447.95 1706.14,-436 1770.5,-436"/>
<path fill="none" stroke="#0066ff" stroke-width="2" d="M1135.25,-357.75C1210.08,-355.58 1203.71,-429.01 1278.67,-453.29 1428.25,-497.53 1473.64,-461.14 1626.61,-453.37 1692,-449.53 1707.36,-437.58 1770.5,-438"/>
<path fill="none" stroke="#000000" stroke-width="2" d="M1135.25,-359.75C1208.09,-355.4 1201.72,-428.83 1278.09,-455.2 1429.5,-499.09 1474.89,-462.7 1626.71,-455.37 1693.23,-451.11 1708.59,-439.16 1770.5,-440"/>
</g>
<!-- LREV&#45;&#45;LVLSHIFT -->
<g id="edge20" class="edge">
<title>LREV:e&#45;&#45;LVLSHIFT:w</title>
<path fill="none" stroke="#000000" stroke-width="2" d="M1606.12,-178.75C1735.33,-184.16 1648.78,-413.66 1770.5,-408.25"/>
<path fill="none" stroke="#ff0000" stroke-width="2" d="M1606.12,-180.75C1733.46,-183.46 1646.91,-412.96 1770.5,-410.25"/>
<path fill="none" stroke="#ff0000" stroke-width="2" d="M1606.12,-182.75C1731.59,-182.75 1645.04,-412.25 1770.5,-412.25"/>
<path fill="none" stroke="#ff0000" stroke-width="2" d="M1606.12,-184.75C1729.72,-182.04 1643.17,-411.54 1770.5,-414.25"/>
<path fill="none" stroke="#000000" stroke-width="2" d="M1606.12,-186.75C1727.85,-181.34 1641.29,-410.84 1770.5,-416.25"/>
</g>
<!-- UFWD&#45;&#45;MC508_ENC -->
<g id="edge22" class="edge">
<title>UFWD:e&#45;&#45;MC508_ENC:w</title>
<path fill="none" stroke="#000000" stroke-width="2" d="M2573.75,-558.75C2580.87,-563.67 2576.8,-546.55 2569.98,-540.88 2466.22,-435.24 2385.72,-534.12 2230.92,-542 2161.81,-544.65 2144.61,-552.07 2072.67,-555.37 1722.22,-569.72 1627.07,-623.27 1278.47,-555.3 1184.61,-534.4 1173.64,-491.06 1085.97,-476.05 1063.61,-471.59 893.3,-459.74 879.81,-474.97 854.64,-498.89 842.97,-556.05 876,-551.25"/>
<path fill="none" stroke="#999999" stroke-width="2" d="M2573.75,-560.75C2582.81,-563.21 2578.74,-546.09 2571.36,-539.44 2464.67,-433.97 2384.17,-532.86 2230.83,-540 2161.02,-542.81 2143.81,-550.24 2072.58,-553.37 1721.24,-567.98 1626.09,-621.53 1278.86,-553.34 1186.55,-533.91 1175.57,-490.57 1086.36,-474.09 1063.75,-469.6 893.44,-457.74 878.41,-473.55 852.68,-498.49 841.01,-555.65 876,-553.25"/>
<path fill="none" stroke="#999999" stroke-width="2" d="M2573.75,-562.75C2584.76,-562.75 2580.69,-545.63 2572.75,-538 2463.12,-432.71 2382.61,-531.59 2230.75,-538 2160.23,-540.97 2143.02,-548.4 2072.5,-551.38 1720.26,-566.23 1625.11,-619.78 1279.25,-551.38 1188.49,-533.42 1177.51,-490.08 1086.75,-472.12 1063.89,-467.6 893.58,-455.74 877,-472.12 850.72,-498.09 839.05,-555.25 876,-555.25"/>
<path fill="none" stroke="#999999" stroke-width="2" d="M2573.75,-564.75C2586.7,-562.29 2582.64,-545.16 2574.14,-536.56 2461.57,-431.45 2381.06,-530.33 2230.67,-536 2159.44,-539.14 2142.23,-546.56 2072.42,-549.38 1719.28,-564.49 1624.12,-618.04 1279.64,-549.41 1190.43,-532.93 1179.45,-489.59 1087.14,-470.16 1064.03,-465.61 893.72,-453.75 875.59,-470.7 848.76,-497.69 837.09,-554.85 876,-557.25"/>
<path fill="none" stroke="#000000" stroke-width="2" d="M2573.75,-566.75C2588.65,-561.83 2584.58,-544.7 2575.52,-535.12 2460.02,-430.19 2379.51,-529.07 2230.58,-534 2158.64,-537.3 2141.44,-544.73 2072.33,-547.38 1718.3,-562.75 1623.14,-616.3 1280.03,-547.45 1192.36,-532.44 1181.39,-489.1 1087.53,-468.2 1064.17,-463.61 893.86,-451.75 874.19,-469.28 846.8,-497.29 835.13,-554.45 876,-559.25"/>
</g>
<!-- UREV&#45;&#45;MC508_ENC -->
<g id="edge24" class="edge">
<title>UREV:e&#45;&#45;MC508_ENC:w</title>
<path fill="none" stroke="#000000" stroke-width="2" d="M2588,-379.75C2595.12,-384.67 2591.05,-367.55 2584.23,-361.88 2470.02,-248.52 2369.94,-298.43 2218.06,-362.68 2135.67,-393.55 2160.93,-470.32 2074.06,-511.06 1869.82,-596.69 1305.07,-481.69 1086.65,-476.12 1063.08,-475.51 893.25,-459.77 879.8,-474.98 862.1,-491.45 853.52,-532.32 876,-527.5"/>
<path fill="none" stroke="#0066ff" stroke-width="2" d="M2588,-381.75C2597.06,-384.21 2592.99,-367.09 2585.61,-360.44 2469.13,-246.73 2369.05,-296.64 2217.28,-360.84 2133.77,-394.18 2159.03,-470.95 2073.28,-509.22 1870.22,-594.73 1305.47,-479.73 1086.7,-474.12 1063.27,-473.52 893.43,-457.78 878.4,-473.55 860.14,-491.04 851.56,-531.91 876,-529.5"/>
<path fill="none" stroke="#ffffff" stroke-width="2" d="M2588,-383.75C2599.01,-383.75 2594.94,-366.63 2587,-359 2468.24,-244.94 2368.16,-294.85 2216.5,-359 2131.87,-394.8 2157.13,-471.57 2072.5,-507.38 1870.62,-592.77 1305.87,-477.77 1086.75,-472.12 1063.45,-471.52 893.62,-455.78 877,-472.13 858.18,-490.63 849.61,-531.5 876,-531.5"/>
<path fill="none" stroke="#0066ff" stroke-width="2" d="M2588,-385.75C2600.95,-383.29 2596.89,-366.16 2588.39,-357.56 2467.34,-243.15 2367.26,-293.06 2215.72,-357.16 2129.97,-395.43 2155.23,-472.2 2071.72,-505.53 1871.02,-590.81 1306.27,-475.81 1086.8,-470.13 1063.64,-469.53 893.8,-453.79 875.6,-470.7 856.22,-490.22 847.65,-531.09 876,-533.5"/>
<path fill="none" stroke="#000000" stroke-width="2" d="M2588,-387.75C2602.9,-382.83 2598.83,-365.7 2589.77,-356.12 2466.45,-241.36 2366.37,-291.27 2214.94,-355.32 2128.07,-396.05 2153.33,-472.82 2070.94,-503.69 1871.42,-588.85 1306.67,-473.85 1086.85,-468.13 1063.82,-467.54 893.99,-451.8 874.2,-469.27 854.27,-489.81 845.69,-530.68 876,-535.5"/>
</g>
<!-- ICOM&#45;&#45;LVLSHIFT -->
<g id="edge26" class="edge">
<title>ICOM:e&#45;&#45;LVLSHIFT:w</title>
<path fill="none" stroke="#000000" stroke-width="2" d="M1626.5,-343.63C1689.03,-343.93 1704.89,-337.31 1770.5,-337"/>
<path fill="none" stroke="#000000" stroke-width="2" d="M1626.5,-345.63C1689.8,-345.78 1705.66,-339.15 1770.5,-339"/>
<path fill="none" stroke="#000000" stroke-width="2" d="M1626.5,-347.62C1690.57,-347.63 1706.43,-341 1770.5,-341"/>
<path fill="none" stroke="#000000" stroke-width="2" d="M1626.5,-349.62C1691.34,-349.47 1707.2,-342.85 1770.5,-343"/>
<path fill="none" stroke="#000000" stroke-width="2" d="M1626.5,-351.62C1692.11,-351.32 1707.97,-344.69 1770.5,-345"/>
</g>
<!-- LPWR&#45;&#45;EXT5V -->
<g id="edge28" class="edge">
<title>LPWR:e&#45;&#45;EXT5V:w</title>
<path fill="none" stroke="#000000" stroke-width="2" d="M627.75,-161.75C740.03,-164.28 762.65,-106.91 882.38,-104.38"/>
<path fill="none" stroke="#ff0000" stroke-width="2" d="M627.75,-163.75C741.89,-165.02 764.51,-107.64 882.38,-106.38"/>
<path fill="none" stroke="#ff0000" stroke-width="2" d="M627.75,-165.75C743.75,-165.75 766.37,-108.38 882.38,-108.37"/>
<path fill="none" stroke="#ff0000" stroke-width="2" d="M627.75,-167.75C745.61,-166.48 768.23,-109.11 882.38,-110.37"/>
<path fill="none" stroke="#000000" stroke-width="2" d="M627.75,-169.75C747.48,-167.22 770.09,-109.84 882.38,-112.37"/>
</g>
<!-- LGND&#45;&#45;EXT5V -->
<g id="edge30" class="edge">
<title>LGND:e&#45;&#45;EXT5V:w</title>
<path fill="none" stroke="#000000" stroke-width="2" d="M630.38,-20.75C749.25,-23.38 771.02,-83.26 882.38,-80.63"/>
<path fill="none" stroke="#000000" stroke-width="2" d="M630.38,-22.75C747.37,-24.07 769.14,-83.94 882.38,-82.63"/>
<path fill="none" stroke="#000000" stroke-width="2" d="M630.38,-24.75C745.49,-24.75 767.26,-84.62 882.38,-84.62"/>
<path fill="none" stroke="#000000" stroke-width="2" d="M630.38,-26.75C743.61,-25.43 765.38,-85.31 882.38,-86.62"/>
<path fill="none" stroke="#000000" stroke-width="2" d="M630.38,-28.75C741.73,-26.12 763.5,-85.99 882.38,-88.62"/>
</g>
</g>
</svg>
