<?xml version="1.0" encoding="UTF-8" standalone="no"?>
<!DOCTYPE svg PUBLIC "-//W3C//DTD SVG 1.1//EN"
 "http://www.w3.org/Graphics/SVG/1.1/DTD/svg11.dtd">
<!-- Generated by graphviz version 12.2.1 (20241206.2353)
 -->
<!-- Pages: 1 -->
<svg width="3837pt" height="1418pt"
 viewBox="0.00 0.00 3837.05 1418.05" xmlns="http://www.w3.org/2000/svg" xmlns:xlink="http://www.w3.org/1999/xlink">
<g id="graph0" class="graph" transform="scale(1 1) rotate(0) translate(4 1414.05)">
<polygon fill="#ffffff" stroke="none" points="-4,4 -4,-1414.05 3833.05,-1414.05 3833.05,4 -4,4"/>
<!-- MC508_STEP -->
<g id="node1" class="node">
<title>MC508_STEP</title>
<polygon fill="#ffffff" stroke="black" points="266.31,-1069.55 20.56,-1069.55 20.56,-832.05 266.31,-832.05 266.31,-1069.55"/>
<polygon fill="none" stroke="black" points="20.56,-1045.8 20.56,-1069.55 266.31,-1069.55 266.31,-1045.8 20.56,-1045.8"/>
<text text-anchor="start" x="99.93" y="-1052.25" font-family="arial" font-size="14.00">MC508_STEP</text>
<polygon fill="none" stroke="black" points="20.56,-1022.05 20.56,-1045.8 153.93,-1045.8 153.93,-1022.05 20.56,-1022.05"/>
<text text-anchor="start" x="61.75" y="-1028.5" font-family="arial" font-size="14.00">MDR&#45;20</text>
<polygon fill="none" stroke="black" points="153.93,-1022.05 153.93,-1045.8 266.31,-1045.8 266.31,-1022.05 153.93,-1022.05"/>
<text text-anchor="start" x="195.12" y="-1028.5" font-family="arial" font-size="14.00">7&#45;pin</text>
<polygon fill="none" stroke="black" points="20.56,-998.3 20.56,-1022.05 81.98,-1022.05 81.98,-998.3 20.56,-998.3"/>
<text text-anchor="start" x="47.52" y="-1004.75" font-family="arial" font-size="14.00">1</text>
<polygon fill="none" stroke="black" points="81.98,-998.3 81.98,-1022.05 204.89,-1022.05 204.89,-998.3 81.98,-998.3"/>
<text text-anchor="start" x="113.06" y="-1004.75" font-family="arial" font-size="14.00">Pulse(N)+</text>
<polygon fill="none" stroke="black" points="204.89,-998.3 204.89,-1022.05 266.31,-1022.05 266.31,-998.3 204.89,-998.3"/>
<text text-anchor="start" x="231.85" y="-1004.75" font-family="arial" font-size="14.00">1</text>
<polygon fill="none" stroke="black" points="20.56,-974.55 20.56,-998.3 81.98,-998.3 81.98,-974.55 20.56,-974.55"/>
<text text-anchor="start" x="47.52" y="-981" font-family="arial" font-size="14.00">3</text>
<polygon fill="none" stroke="black" points="81.98,-974.55 81.98,-998.3 204.89,-998.3 204.89,-974.55 81.98,-974.55"/>
<text text-anchor="start" x="121.31" y="-981" font-family="arial" font-size="14.00">Dir(N)+</text>
<polygon fill="none" stroke="black" points="204.89,-974.55 204.89,-998.3 266.31,-998.3 266.31,-974.55 204.89,-974.55"/>
<text text-anchor="start" x="231.85" y="-981" font-family="arial" font-size="14.00">3</text>
<polygon fill="none" stroke="black" points="20.56,-950.8 20.56,-974.55 81.98,-974.55 81.98,-950.8 20.56,-950.8"/>
<text text-anchor="start" x="44.14" y="-957.25" font-family="arial" font-size="14.00">11</text>
<polygon fill="none" stroke="black" points="81.98,-950.8 81.98,-974.55 204.89,-974.55 204.89,-950.8 81.98,-950.8"/>
<text text-anchor="start" x="105.18" y="-957.25" font-family="arial" font-size="14.00">Pulse(N+8)+</text>
<polygon fill="none" stroke="black" points="204.89,-950.8 204.89,-974.55 266.31,-974.55 266.31,-950.8 204.89,-950.8"/>
<text text-anchor="start" x="228.48" y="-957.25" font-family="arial" font-size="14.00">11</text>
<polygon fill="none" stroke="black" points="20.56,-927.05 20.56,-950.8 81.98,-950.8 81.98,-927.05 20.56,-927.05"/>
<text text-anchor="start" x="43.77" y="-933.5" font-family="arial" font-size="14.00">13</text>
<polygon fill="none" stroke="black" points="81.98,-927.05 81.98,-950.8 204.89,-950.8 204.89,-927.05 81.98,-927.05"/>
<text text-anchor="start" x="113.43" y="-933.5" font-family="arial" font-size="14.00">Dir(N+8)+</text>
<polygon fill="none" stroke="black" points="204.89,-927.05 204.89,-950.8 266.31,-950.8 266.31,-927.05 204.89,-927.05"/>
<text text-anchor="start" x="228.1" y="-933.5" font-family="arial" font-size="14.00">13</text>
<polygon fill="none" stroke="black" points="20.56,-903.3 20.56,-927.05 81.98,-927.05 81.98,-903.3 20.56,-903.3"/>
<text text-anchor="start" x="47.52" y="-909.75" font-family="arial" font-size="14.00">7</text>
<polygon fill="none" stroke="black" points="81.98,-903.3 81.98,-927.05 204.89,-927.05 204.89,-903.3 81.98,-903.3"/>
<text text-anchor="start" x="116.43" y="-909.75" font-family="arial" font-size="14.00">WDOG+</text>
<polygon fill="none" stroke="black" points="204.89,-903.3 204.89,-927.05 266.31,-927.05 266.31,-903.3 204.89,-903.3"/>
<text text-anchor="start" x="231.85" y="-909.75" font-family="arial" font-size="14.00">7</text>
<polygon fill="none" stroke="black" points="20.56,-879.55 20.56,-903.3 81.98,-903.3 81.98,-879.55 20.56,-879.55"/>
<text text-anchor="start" x="47.52" y="-886" font-family="arial" font-size="14.00">8</text>
<polygon fill="none" stroke="black" points="81.98,-879.55 81.98,-903.3 204.89,-903.3 204.89,-879.55 81.98,-879.55"/>
<text text-anchor="start" x="118.31" y="-886" font-family="arial" font-size="14.00">WDOG&#45;</text>
<polygon fill="none" stroke="black" points="204.89,-879.55 204.89,-903.3 266.31,-903.3 266.31,-879.55 204.89,-879.55"/>
<text text-anchor="start" x="231.85" y="-886" font-family="arial" font-size="14.00">8</text>
<polygon fill="none" stroke="black" points="20.56,-855.8 20.56,-879.55 81.98,-879.55 81.98,-855.8 20.56,-855.8"/>
<text text-anchor="start" x="43.77" y="-862.25" font-family="arial" font-size="14.00">15</text>
<polygon fill="none" stroke="black" points="81.98,-855.8 81.98,-879.55 204.89,-879.55 204.89,-855.8 81.98,-855.8"/>
<text text-anchor="start" x="135.18" y="-862.25" font-family="arial" font-size="14.00">0V</text>
<polygon fill="none" stroke="black" points="204.89,-855.8 204.89,-879.55 266.31,-879.55 266.31,-855.8 204.89,-855.8"/>
<text text-anchor="start" x="228.1" y="-862.25" font-family="arial" font-size="14.00">15</text>
<polygon fill="none" stroke="black" points="20.56,-832.05 20.56,-855.8 266.31,-855.8 266.31,-832.05 20.56,-832.05"/>
<text text-anchor="start" x="24.56" y="-838.5" font-family="arial" font-size="14.00">MC508 Stepper Port (ATYPE 43, P849)</text>
</g>
<!-- STEPA_PUL -->
<g id="node8" class="node">
<title>STEPA_PUL</title>
<polygon fill="#ffffff" stroke="black" points="1280.68,-1410.05 948.43,-1410.05 948.43,-1269.55 1280.68,-1269.55 1280.68,-1410.05"/>
<polygon fill="none" stroke="black" points="948.43,-1386.3 948.43,-1410.05 1280.68,-1410.05 1280.68,-1386.3 948.43,-1386.3"/>
<text text-anchor="start" x="1075.93" y="-1392.75" font-family="arial" font-size="14.00">STEPA_PUL</text>
<polygon fill="none" stroke="black" points="948.43,-1362.55 948.43,-1386.3 1280.68,-1386.3 1280.68,-1362.55 948.43,-1362.55"/>
<text text-anchor="start" x="1107.43" y="-1369" font-family="arial" font-size="14.00">1x</text>
<text text-anchor="start" x="1029.93" y="-1347.25" font-family="arial" font-size="14.00"> </text>
<text text-anchor="start" x="950.43" y="-1327.5" font-family="arial" font-size="14.00">MC508_STEP:1:Pulse(N)+</text>
<text text-anchor="start" x="1117.18" y="-1327.5" font-family="arial" font-size="14.00"> &#160;&#160;&#160;&#160;1:BK &#160;&#160;&#160;</text>
<text text-anchor="start" x="1184.18" y="-1327.5" font-family="arial" font-size="14.00">DRV_A:1:PUL+</text>
<polygon fill="#000000" stroke="none" points="948.43,-1321.05 948.43,-1323.05 1280.68,-1323.05 1280.68,-1321.05 948.43,-1321.05"/>
<polygon fill="#000000" stroke="none" points="948.43,-1319.05 948.43,-1321.05 1280.68,-1321.05 1280.68,-1319.05 948.43,-1319.05"/>
<polygon fill="#000000" stroke="none" points="948.43,-1317.05 948.43,-1319.05 1280.68,-1319.05 1280.68,-1317.05 948.43,-1317.05"/>
<polygon fill="#000000" stroke="none" points="948.43,-1315.05 948.43,-1317.05 1280.68,-1317.05 1280.68,-1315.05 948.43,-1315.05"/>
<polygon fill="#000000" stroke="none" points="948.43,-1313.05 948.43,-1315.05 1280.68,-1315.05 1280.68,-1313.05 948.43,-1313.05"/>
<text text-anchor="start" x="1029.93" y="-1297.75" font-family="arial" font-size="14.00"> </text>
<polygon fill="none" stroke="black" points="948.43,-1269.55 948.43,-1293.3 1280.68,-1293.3 1280.68,-1269.55 948.43,-1269.55"/>
<text text-anchor="start" x="1038.43" y="-1276" font-family="arial" font-size="14.00">Axis N pulse (SCSI pin 1)</text>
</g>
<!-- MC508_STEP&#45;&#45;STEPA_PUL -->
<g id="edge1" class="edge">
<title>MC508_STEP:e&#45;&#45;STEPA_PUL:w</title>
<path fill="none" stroke="#000000" stroke-width="2" d="M266.31,-1006.18C411.17,-1012.14 295.01,-1219.11 412.48,-1290.44 608.16,-1420.66 705.53,-1315.34 947.43,-1314.05"/>
<path fill="none" stroke="#000000" stroke-width="2" d="M266.31,-1008.18C409.43,-1011.16 293.27,-1218.13 411.39,-1292.12 609.63,-1422.01 707,-1316.69 947.43,-1316.05"/>
<path fill="none" stroke="#000000" stroke-width="2" d="M266.31,-1010.18C407.68,-1010.18 291.52,-1217.15 410.31,-1293.8 611.1,-1423.37 708.47,-1318.05 947.43,-1318.05"/>
<path fill="none" stroke="#000000" stroke-width="2" d="M266.31,-1012.18C405.94,-1009.2 289.78,-1216.17 409.23,-1295.48 612.57,-1424.73 709.94,-1319.41 947.43,-1320.05"/>
<path fill="none" stroke="#000000" stroke-width="2" d="M266.31,-1014.18C404.19,-1008.22 288.03,-1215.19 408.14,-1297.16 614.04,-1426.09 711.41,-1320.77 947.43,-1322.05"/>
</g>
<!-- STEPA_DIR -->
<g id="node9" class="node">
<title>STEPA_DIR</title>
<polygon fill="#ffffff" stroke="black" points="763.56,-1282.05 449.31,-1282.05 449.31,-1141.55 763.56,-1141.55 763.56,-1282.05"/>
<polygon fill="none" stroke="black" points="449.31,-1258.3 449.31,-1282.05 763.56,-1282.05 763.56,-1258.3 449.31,-1258.3"/>
<text text-anchor="start" x="569.31" y="-1264.75" font-family="arial" font-size="14.00">STEPA_DIR</text>
<polygon fill="none" stroke="black" points="449.31,-1234.55 449.31,-1258.3 763.56,-1258.3 763.56,-1234.55 449.31,-1234.55"/>
<text text-anchor="start" x="599.31" y="-1241" font-family="arial" font-size="14.00">1x</text>
<text text-anchor="start" x="522.56" y="-1219.25" font-family="arial" font-size="14.00"> </text>
<text text-anchor="start" x="451.31" y="-1199.5" font-family="arial" font-size="14.00">MC508_STEP:3:Dir(N)+</text>
<text text-anchor="start" x="601.56" y="-1199.5" font-family="arial" font-size="14.00"> &#160;&#160;&#160;&#160;1:RD &#160;&#160;&#160;</text>
<text text-anchor="start" x="670.06" y="-1199.5" font-family="arial" font-size="14.00">DRV_A:3:DIR+</text>
<polygon fill="#000000" stroke="none" points="449.31,-1193.05 449.31,-1195.05 763.56,-1195.05 763.56,-1193.05 449.31,-1193.05"/>
<polygon fill="#ff0000" stroke="none" points="449.31,-1191.05 449.31,-1193.05 763.56,-1193.05 763.56,-1191.05 449.31,-1191.05"/>
<polygon fill="#ff0000" stroke="none" points="449.31,-1189.05 449.31,-1191.05 763.56,-1191.05 763.56,-1189.05 449.31,-1189.05"/>
<polygon fill="#ff0000" stroke="none" points="449.31,-1187.05 449.31,-1189.05 763.56,-1189.05 763.56,-1187.05 449.31,-1187.05"/>
<polygon fill="#000000" stroke="none" points="449.31,-1185.05 449.31,-1187.05 763.56,-1187.05 763.56,-1185.05 449.31,-1185.05"/>
<text text-anchor="start" x="522.56" y="-1169.75" font-family="arial" font-size="14.00"> </text>
<polygon fill="none" stroke="black" points="449.31,-1141.55 449.31,-1165.3 763.56,-1165.3 763.56,-1141.55 449.31,-1141.55"/>
<text text-anchor="start" x="520.93" y="-1148" font-family="arial" font-size="14.00">Axis N direction (SCSI pin 3)</text>
</g>
<!-- MC508_STEP&#45;&#45;STEPA_DIR -->
<g id="edge3" class="edge">
<title>MC508_STEP:e&#45;&#45;STEPA_DIR:w</title>
<path fill="none" stroke="#000000" stroke-width="2" d="M266.31,-982.43C391.52,-987.57 330.76,-1191.2 448.31,-1186.05"/>
<path fill="none" stroke="#ff0000" stroke-width="2" d="M266.31,-984.43C389.61,-987 328.85,-1190.62 448.31,-1188.05"/>
<path fill="none" stroke="#ff0000" stroke-width="2" d="M266.31,-986.43C387.69,-986.43 326.93,-1190.05 448.31,-1190.05"/>
<path fill="none" stroke="#ff0000" stroke-width="2" d="M266.31,-988.43C385.77,-985.86 325.01,-1189.48 448.31,-1192.05"/>
<path fill="none" stroke="#000000" stroke-width="2" d="M266.31,-990.43C383.86,-985.28 323.1,-1188.91 448.31,-1194.05"/>
</g>
<!-- STEPB_PUL -->
<g id="node10" class="node">
<title>STEPB_PUL</title>
<polygon fill="#ffffff" stroke="black" points="802.56,-1117.05 410.31,-1117.05 410.31,-976.55 802.56,-976.55 802.56,-1117.05"/>
<polygon fill="none" stroke="black" points="410.31,-1093.3 410.31,-1117.05 802.56,-1117.05 802.56,-1093.3 410.31,-1093.3"/>
<text text-anchor="start" x="567.43" y="-1099.75" font-family="arial" font-size="14.00">STEPB_PUL</text>
<polygon fill="none" stroke="black" points="410.31,-1069.55 410.31,-1093.3 802.56,-1093.3 802.56,-1069.55 410.31,-1069.55"/>
<text text-anchor="start" x="599.31" y="-1076" font-family="arial" font-size="14.00">1x</text>
<text text-anchor="start" x="503.06" y="-1054.25" font-family="arial" font-size="14.00"> </text>
<text text-anchor="start" x="412.31" y="-1034.5" font-family="arial" font-size="14.00">MC508_STEP:11:Pulse(N+8)+</text>
<text text-anchor="start" x="601.56" y="-1034.5" font-family="arial" font-size="14.00"> &#160;&#160;&#160;&#160;1:#90EE90 &#160;&#160;&#160;</text>
<text text-anchor="start" x="706.06" y="-1034.5" font-family="arial" font-size="14.00">DRV_B:1:PUL+</text>
<polygon fill="#000000" stroke="none" points="410.31,-1028.05 410.31,-1030.05 802.56,-1030.05 802.56,-1028.05 410.31,-1028.05"/>
<polygon fill="#90ee90" stroke="none" points="410.31,-1026.05 410.31,-1028.05 802.56,-1028.05 802.56,-1026.05 410.31,-1026.05"/>
<polygon fill="#90ee90" stroke="none" points="410.31,-1024.05 410.31,-1026.05 802.56,-1026.05 802.56,-1024.05 410.31,-1024.05"/>
<polygon fill="#90ee90" stroke="none" points="410.31,-1022.05 410.31,-1024.05 802.56,-1024.05 802.56,-1022.05 410.31,-1022.05"/>
<polygon fill="#000000" stroke="none" points="410.31,-1020.05 410.31,-1022.05 802.56,-1022.05 802.56,-1020.05 410.31,-1020.05"/>
<text text-anchor="start" x="503.06" y="-1004.75" font-family="arial" font-size="14.00"> </text>
<polygon fill="none" stroke="black" points="410.31,-976.55 410.31,-1000.3 802.56,-1000.3 802.56,-976.55 410.31,-976.55"/>
<text text-anchor="start" x="519.06" y="-983" font-family="arial" font-size="14.00">Axis N+8 pulse (SCSI pin 11)</text>
</g>
<!-- MC508_STEP&#45;&#45;STEPB_PUL -->
<g id="edge5" class="edge">
<title>MC508_STEP:e&#45;&#45;STEPB_PUL:w</title>
<path fill="none" stroke="#000000" stroke-width="2" d="M266.31,-958.68C340.05,-962.39 344.55,-1024.76 410.31,-1021.05"/>
<path fill="none" stroke="#90ee90" stroke-width="2" d="M266.31,-960.68C338.05,-962.53 342.56,-1024.91 410.31,-1023.05"/>
<path fill="none" stroke="#90ee90" stroke-width="2" d="M266.31,-962.68C336.06,-962.68 340.56,-1025.05 410.31,-1025.05"/>
<path fill="none" stroke="#90ee90" stroke-width="2" d="M266.31,-964.68C334.06,-962.82 338.57,-1025.2 410.31,-1027.05"/>
<path fill="none" stroke="#000000" stroke-width="2" d="M266.31,-966.68C332.07,-962.97 336.57,-1025.34 410.31,-1029.05"/>
</g>
<!-- STEPB_DIR -->
<g id="node11" class="node">
<title>STEPB_DIR</title>
<polygon fill="#ffffff" stroke="black" points="1282.56,-1089.05 946.56,-1089.05 946.56,-948.55 1282.56,-948.55 1282.56,-1089.05"/>
<polygon fill="none" stroke="black" points="946.56,-1065.3 946.56,-1089.05 1282.56,-1089.05 1282.56,-1065.3 946.56,-1065.3"/>
<text text-anchor="start" x="1077.06" y="-1071.75" font-family="arial" font-size="14.00">STEPB_DIR</text>
<polygon fill="none" stroke="black" points="946.56,-1041.55 946.56,-1065.3 1282.56,-1065.3 1282.56,-1041.55 946.56,-1041.55"/>
<text text-anchor="start" x="1107.43" y="-1048" font-family="arial" font-size="14.00">1x</text>
<text text-anchor="start" x="1031.43" y="-1026.25" font-family="arial" font-size="14.00"> </text>
<text text-anchor="start" x="948.56" y="-1006.5" font-family="arial" font-size="14.00">MC508_STEP:13:Dir(N+8)+</text>
<text text-anchor="start" x="1122.06" y="-1006.5" font-family="arial" font-size="14.00"> &#160;&#160;&#160;&#160;1:PK &#160;&#160;&#160;</text>
<text text-anchor="start" x="1189.06" y="-1006.5" font-family="arial" font-size="14.00">DRV_B:3:DIR+</text>
<polygon fill="#000000" stroke="none" points="946.56,-1000.05 946.56,-1002.05 1282.56,-1002.05 1282.56,-1000.05 946.56,-1000.05"/>
<polygon fill="#ff66cc" stroke="none" points="946.56,-998.05 946.56,-1000.05 1282.56,-1000.05 1282.56,-998.05 946.56,-998.05"/>
<polygon fill="#ff66cc" stroke="none" points="946.56,-996.05 946.56,-998.05 1282.56,-998.05 1282.56,-996.05 946.56,-996.05"/>
<polygon fill="#ff66cc" stroke="none" points="946.56,-994.05 946.56,-996.05 1282.56,-996.05 1282.56,-994.05 946.56,-994.05"/>
<polygon fill="#000000" stroke="none" points="946.56,-992.05 946.56,-994.05 1282.56,-994.05 1282.56,-992.05 946.56,-992.05"/>
<text text-anchor="start" x="1031.43" y="-976.75" font-family="arial" font-size="14.00"> </text>
<polygon fill="none" stroke="black" points="946.56,-948.55 946.56,-972.3 1282.56,-972.3 1282.56,-948.55 946.56,-948.55"/>
<text text-anchor="start" x="1017.43" y="-955" font-family="arial" font-size="14.00">Axis N+8 direction (SCSI pin 13)</text>
</g>
<!-- MC508_STEP&#45;&#45;STEPB_DIR -->
<g id="edge7" class="edge">
<title>MC508_STEP:e&#45;&#45;STEPB_DIR:w</title>
<path fill="none" stroke="#000000" stroke-width="2" d="M266.31,-934.93C504.53,-934.95 565.7,-928.88 803.1,-960.84 871.03,-971.6 884.45,-995.07 946.56,-993.05"/>
<path fill="none" stroke="#ff66cc" stroke-width="2" d="M266.31,-936.93C504.72,-936.94 565.9,-930.87 802.83,-962.82 869.29,-972.59 882.71,-996.06 946.56,-995.05"/>
<path fill="none" stroke="#ff66cc" stroke-width="2" d="M266.31,-938.93C504.92,-938.93 566.1,-932.86 802.56,-964.8 867.56,-973.58 880.97,-997.05 946.56,-997.05"/>
<path fill="none" stroke="#ff66cc" stroke-width="2" d="M266.31,-940.93C505.12,-940.92 566.29,-934.85 802.29,-966.78 865.82,-974.57 879.24,-998.05 946.56,-999.05"/>
<path fill="none" stroke="#000000" stroke-width="2" d="M266.31,-942.93C505.32,-942.91 566.49,-936.84 802.02,-968.77 864.08,-975.57 877.5,-999.04 946.56,-1001.05"/>
</g>
<!-- GND_SCSI -->
<g id="node12" class="node">
<title>GND_SCSI</title>
<polygon fill="#ffffff" stroke="black" points="718.93,-868.05 493.93,-868.05 493.93,-727.55 718.93,-727.55 718.93,-868.05"/>
<polygon fill="none" stroke="black" points="493.93,-844.3 493.93,-868.05 718.93,-868.05 718.93,-844.3 493.93,-844.3"/>
<text text-anchor="start" x="571.56" y="-850.75" font-family="arial" font-size="14.00">GND_SCSI</text>
<polygon fill="none" stroke="black" points="493.93,-820.55 493.93,-844.3 718.93,-844.3 718.93,-820.55 493.93,-820.55"/>
<text text-anchor="start" x="599.31" y="-827" font-family="arial" font-size="14.00">1x</text>
<text text-anchor="start" x="557.06" y="-805.25" font-family="arial" font-size="14.00"> </text>
<text text-anchor="start" x="495.93" y="-785.5" font-family="arial" font-size="14.00">MC508_STEP:15:0V</text>
<text text-anchor="start" x="625.93" y="-785.5" font-family="arial" font-size="14.00"> &#160;&#160;&#160;&#160;1:WHBN &#160;&#160;&#160;</text>
<polygon fill="#000000" stroke="none" points="493.93,-779.05 493.93,-781.05 718.93,-781.05 718.93,-779.05 493.93,-779.05"/>
<polygon fill="#ffffff" stroke="none" points="493.93,-777.05 493.93,-779.05 718.93,-779.05 718.93,-777.05 493.93,-777.05"/>
<polygon fill="#895956" stroke="none" points="493.93,-775.05 493.93,-777.05 718.93,-777.05 718.93,-775.05 493.93,-775.05"/>
<polygon fill="#ffffff" stroke="none" points="493.93,-773.05 493.93,-775.05 718.93,-775.05 718.93,-773.05 493.93,-773.05"/>
<polygon fill="#000000" stroke="none" points="493.93,-771.05 493.93,-773.05 718.93,-773.05 718.93,-771.05 493.93,-771.05"/>
<text text-anchor="start" x="557.06" y="-755.75" font-family="arial" font-size="14.00"> </text>
<polygon fill="none" stroke="black" points="493.93,-727.55 493.93,-751.3 718.93,-751.3 718.93,-727.55 493.93,-727.55"/>
<text text-anchor="start" x="541.56" y="-734" font-family="arial" font-size="14.00">0V SCSI wire (pin 15)</text>
</g>
<!-- MC508_STEP&#45;&#45;GND_SCSI -->
<g id="edge9" class="edge">
<title>MC508_STEP:e&#45;&#45;GND_SCSI:w</title>
<path fill="none" stroke="#000000" stroke-width="2" d="M266.31,-863.68C370.97,-867.27 380.31,-775.65 492.93,-772.05"/>
<path fill="none" stroke="#ffffff" stroke-width="2" d="M266.31,-865.68C372.96,-867.47 382.3,-775.85 492.93,-774.05"/>
<path fill="none" stroke="#895956" stroke-width="2" d="M266.31,-867.68C374.95,-867.68 384.29,-776.05 492.93,-776.05"/>
<path fill="none" stroke="#ffffff" stroke-width="2" d="M266.31,-869.68C376.94,-867.88 386.28,-776.26 492.93,-778.05"/>
<path fill="none" stroke="#000000" stroke-width="2" d="M266.31,-871.68C378.93,-868.08 388.27,-776.46 492.93,-780.05"/>
</g>
<!-- WDOG_SCSI -->
<g id="node20" class="node">
<title>WDOG_SCSI</title>
<polygon fill="#ffffff" stroke="black" points="719.68,-545.05 493.18,-545.05 493.18,-404.55 719.68,-404.55 719.68,-545.05"/>
<polygon fill="none" stroke="black" points="493.18,-521.3 493.18,-545.05 719.68,-545.05 719.68,-521.3 493.18,-521.3"/>
<text text-anchor="start" x="564.06" y="-527.75" font-family="arial" font-size="14.00">WDOG_SCSI</text>
<polygon fill="none" stroke="black" points="493.18,-497.55 493.18,-521.3 719.68,-521.3 719.68,-497.55 493.18,-497.55"/>
<text text-anchor="start" x="599.31" y="-504" font-family="arial" font-size="14.00">1x</text>
<text text-anchor="start" x="569.43" y="-482.25" font-family="arial" font-size="14.00"> </text>
<text text-anchor="start" x="495.18" y="-462.5" font-family="arial" font-size="14.00">MC508_STEP:8:WDOG&#45;</text>
<text text-anchor="start" x="651.43" y="-462.5" font-family="arial" font-size="14.00"> &#160;&#160;&#160;&#160;1:VT &#160;&#160;&#160;</text>
<polygon fill="#000000" stroke="none" points="493.18,-456.05 493.18,-458.05 719.68,-458.05 719.68,-456.05 493.18,-456.05"/>
<polygon fill="#8000ff" stroke="none" points="493.18,-454.05 493.18,-456.05 719.68,-456.05 719.68,-454.05 493.18,-454.05"/>
<polygon fill="#8000ff" stroke="none" points="493.18,-452.05 493.18,-454.05 719.68,-454.05 719.68,-452.05 493.18,-452.05"/>
<polygon fill="#8000ff" stroke="none" points="493.18,-450.05 493.18,-452.05 719.68,-452.05 719.68,-450.05 493.18,-450.05"/>
<polygon fill="#000000" stroke="none" points="493.18,-448.05 493.18,-450.05 719.68,-450.05 719.68,-448.05 493.18,-448.05"/>
<text text-anchor="start" x="569.43" y="-432.75" font-family="arial" font-size="14.00"> </text>
<polygon fill="none" stroke="black" points="493.18,-404.55 493.18,-428.3 719.68,-428.3 719.68,-404.55 493.18,-404.55"/>
<text text-anchor="start" x="528.43" y="-411" font-family="arial" font-size="14.00">WDOG&#45; SCSI wire (pin 8)</text>
</g>
<!-- MC508_STEP&#45;&#45;WDOG_SCSI -->
<g id="edge25" class="edge">
<title>MC508_STEP:e&#45;&#45;WDOG_SCSI:w</title>
<path fill="none" stroke="#000000" stroke-width="2" d="M266.31,-887.43C481.89,-893.17 269.41,-454.8 492.18,-449.05"/>
<path fill="none" stroke="#8000ff" stroke-width="2" d="M266.31,-889.43C483.69,-892.3 271.21,-453.92 492.18,-451.05"/>
<path fill="none" stroke="#8000ff" stroke-width="2" d="M266.31,-891.43C485.49,-891.43 273.01,-453.05 492.18,-453.05"/>
<path fill="none" stroke="#8000ff" stroke-width="2" d="M266.31,-893.43C487.29,-890.56 274.81,-452.18 492.18,-455.05"/>
<path fill="none" stroke="#000000" stroke-width="2" d="M266.31,-895.43C489.09,-889.68 276.61,-451.31 492.18,-457.05"/>
</g>
<!-- DRV_A -->
<g id="node2" class="node">
<title>DRV_A</title>
<polygon fill="#ffffff" stroke="black" points="1920.18,-1040.68 1758.43,-1040.68 1758.43,-826.93 1920.18,-826.93 1920.18,-1040.68"/>
<polygon fill="none" stroke="black" points="1758.43,-1016.93 1758.43,-1040.68 1920.18,-1040.68 1920.18,-1016.93 1758.43,-1016.93"/>
<text text-anchor="start" x="1816.81" y="-1023.38" font-family="arial" font-size="14.00">DRV_A</text>
<polygon fill="none" stroke="black" points="1758.43,-993.18 1758.43,-1016.93 1870.81,-1016.93 1870.81,-993.18 1758.43,-993.18"/>
<text text-anchor="start" x="1768.12" y="-999.63" font-family="arial" font-size="14.00">Screw Terminal</text>
<polygon fill="none" stroke="black" points="1870.81,-993.18 1870.81,-1016.93 1920.18,-1016.93 1920.18,-993.18 1870.81,-993.18"/>
<text text-anchor="start" x="1880.5" y="-999.63" font-family="arial" font-size="14.00">6&#45;pin</text>
<polygon fill="none" stroke="black" points="1758.43,-969.43 1758.43,-993.18 1802.85,-993.18 1802.85,-969.43 1758.43,-969.43"/>
<text text-anchor="start" x="1776.89" y="-975.88" font-family="arial" font-size="14.00">1</text>
<polygon fill="none" stroke="black" points="1802.85,-969.43 1802.85,-993.18 1875.77,-993.18 1875.77,-969.43 1802.85,-969.43"/>
<text text-anchor="start" x="1822.06" y="-975.88" font-family="arial" font-size="14.00">PUL+</text>
<polygon fill="none" stroke="black" points="1875.77,-969.43 1875.77,-993.18 1920.18,-993.18 1920.18,-969.43 1875.77,-969.43"/>
<text text-anchor="start" x="1894.23" y="-975.88" font-family="arial" font-size="14.00">1</text>
<polygon fill="none" stroke="black" points="1758.43,-945.68 1758.43,-969.43 1802.85,-969.43 1802.85,-945.68 1758.43,-945.68"/>
<text text-anchor="start" x="1776.89" y="-952.13" font-family="arial" font-size="14.00">2</text>
<polygon fill="none" stroke="black" points="1802.85,-945.68 1802.85,-969.43 1875.77,-969.43 1875.77,-945.68 1802.85,-945.68"/>
<text text-anchor="start" x="1823.93" y="-952.13" font-family="arial" font-size="14.00">PUL&#45;</text>
<polygon fill="none" stroke="black" points="1875.77,-945.68 1875.77,-969.43 1920.18,-969.43 1920.18,-945.68 1875.77,-945.68"/>
<text text-anchor="start" x="1894.23" y="-952.13" font-family="arial" font-size="14.00">2</text>
<polygon fill="none" stroke="black" points="1758.43,-921.93 1758.43,-945.68 1802.85,-945.68 1802.85,-921.93 1758.43,-921.93"/>
<text text-anchor="start" x="1776.89" y="-928.38" font-family="arial" font-size="14.00">3</text>
<polygon fill="none" stroke="black" points="1802.85,-921.93 1802.85,-945.68 1875.77,-945.68 1875.77,-921.93 1802.85,-921.93"/>
<text text-anchor="start" x="1823.56" y="-928.38" font-family="arial" font-size="14.00">DIR+</text>
<polygon fill="none" stroke="black" points="1875.77,-921.93 1875.77,-945.68 1920.18,-945.68 1920.18,-921.93 1875.77,-921.93"/>
<text text-anchor="start" x="1894.23" y="-928.38" font-family="arial" font-size="14.00">3</text>
<polygon fill="none" stroke="black" points="1758.43,-898.18 1758.43,-921.93 1802.85,-921.93 1802.85,-898.18 1758.43,-898.18"/>
<text text-anchor="start" x="1776.89" y="-904.63" font-family="arial" font-size="14.00">4</text>
<polygon fill="none" stroke="black" points="1802.85,-898.18 1802.85,-921.93 1875.77,-921.93 1875.77,-898.18 1802.85,-898.18"/>
<text text-anchor="start" x="1825.43" y="-904.63" font-family="arial" font-size="14.00">DIR&#45;</text>
<polygon fill="none" stroke="black" points="1875.77,-898.18 1875.77,-921.93 1920.18,-921.93 1920.18,-898.18 1875.77,-898.18"/>
<text text-anchor="start" x="1894.23" y="-904.63" font-family="arial" font-size="14.00">4</text>
<polygon fill="none" stroke="black" points="1758.43,-874.43 1758.43,-898.18 1802.85,-898.18 1802.85,-874.43 1758.43,-874.43"/>
<text text-anchor="start" x="1776.89" y="-880.88" font-family="arial" font-size="14.00">5</text>
<polygon fill="none" stroke="black" points="1802.85,-874.43 1802.85,-898.18 1875.77,-898.18 1875.77,-874.43 1802.85,-874.43"/>
<text text-anchor="start" x="1821.31" y="-880.88" font-family="arial" font-size="14.00">ENA+</text>
<polygon fill="none" stroke="black" points="1875.77,-874.43 1875.77,-898.18 1920.18,-898.18 1920.18,-874.43 1875.77,-874.43"/>
<text text-anchor="start" x="1894.23" y="-880.88" font-family="arial" font-size="14.00">5</text>
<polygon fill="none" stroke="black" points="1758.43,-850.68 1758.43,-874.43 1802.85,-874.43 1802.85,-850.68 1758.43,-850.68"/>
<text text-anchor="start" x="1776.89" y="-857.13" font-family="arial" font-size="14.00">6</text>
<polygon fill="none" stroke="black" points="1802.85,-850.68 1802.85,-874.43 1875.77,-874.43 1875.77,-850.68 1802.85,-850.68"/>
<text text-anchor="start" x="1823.18" y="-857.13" font-family="arial" font-size="14.00">ENA&#45;</text>
<polygon fill="none" stroke="black" points="1875.77,-850.68 1875.77,-874.43 1920.18,-874.43 1920.18,-850.68 1875.77,-850.68"/>
<text text-anchor="start" x="1894.23" y="-857.13" font-family="arial" font-size="14.00">6</text>
<polygon fill="none" stroke="black" points="1758.43,-826.93 1758.43,-850.68 1920.18,-850.68 1920.18,-826.93 1758.43,-826.93"/>
<text text-anchor="start" x="1762.43" y="-833.38" font-family="arial" font-size="14.00">KL&#45;4030 Driver A (Axis N)</text>
</g>
<!-- RA -->
<g id="node23" class="node">
<title>RA</title>
<polygon fill="#ffffff" stroke="black" points="2328.56,-870.05 2072.81,-870.05 2072.81,-729.55 2328.56,-729.55 2328.56,-870.05"/>
<polygon fill="none" stroke="black" points="2072.81,-846.3 2072.81,-870.05 2328.56,-870.05 2328.56,-846.3 2072.81,-846.3"/>
<text text-anchor="start" x="2191.31" y="-852.75" font-family="arial" font-size="14.00">RA</text>
<polygon fill="none" stroke="black" points="2072.81,-822.55 2072.81,-846.3 2328.56,-846.3 2328.56,-822.55 2072.81,-822.55"/>
<text text-anchor="start" x="2193.56" y="-829" font-family="arial" font-size="14.00">1x</text>
<text text-anchor="start" x="2119.06" y="-807.25" font-family="arial" font-size="14.00"> </text>
<text text-anchor="start" x="2074.81" y="-787.5" font-family="arial" font-size="14.00">DRV_A:6:ENA&#45;</text>
<text text-anchor="start" x="2171.06" y="-787.5" font-family="arial" font-size="14.00"> &#160;&#160;&#160;&#160;1:BK &#160;&#160;&#160;</text>
<text text-anchor="start" x="2238.06" y="-787.5" font-family="arial" font-size="14.00">EXT5V:2:GND</text>
<polygon fill="#000000" stroke="none" points="2072.81,-781.05 2072.81,-783.05 2328.56,-783.05 2328.56,-781.05 2072.81,-781.05"/>
<polygon fill="#000000" stroke="none" points="2072.81,-779.05 2072.81,-781.05 2328.56,-781.05 2328.56,-779.05 2072.81,-779.05"/>
<polygon fill="#000000" stroke="none" points="2072.81,-777.05 2072.81,-779.05 2328.56,-779.05 2328.56,-777.05 2072.81,-777.05"/>
<polygon fill="#000000" stroke="none" points="2072.81,-775.05 2072.81,-777.05 2328.56,-777.05 2328.56,-775.05 2072.81,-775.05"/>
<polygon fill="#000000" stroke="none" points="2072.81,-773.05 2072.81,-775.05 2328.56,-775.05 2328.56,-773.05 2072.81,-773.05"/>
<text text-anchor="start" x="2119.06" y="-757.75" font-family="arial" font-size="14.00"> </text>
<polygon fill="none" stroke="black" points="2072.81,-729.55 2072.81,-753.3 2328.56,-753.3 2328.56,-729.55 2072.81,-729.55"/>
<text text-anchor="start" x="2139.56" y="-736" font-family="arial" font-size="14.00">Driver A ENA&#45; return</text>
</g>
<!-- DRV_A&#45;&#45;RA -->
<g id="edge31" class="edge">
<title>DRV_A:e&#45;&#45;RA:w</title>
<path fill="none" stroke="#000000" stroke-width="2" d="M1921.18,-858.55C1994.33,-862.68 1991.66,-778.18 2072.81,-774.05"/>
<path fill="none" stroke="#000000" stroke-width="2" d="M1921.18,-860.55C1996.33,-862.62 1993.66,-778.12 2072.81,-776.05"/>
<path fill="none" stroke="#000000" stroke-width="2" d="M1921.18,-862.55C1998.33,-862.55 1995.66,-778.05 2072.81,-778.05"/>
<path fill="none" stroke="#000000" stroke-width="2" d="M1921.18,-864.55C2000.33,-862.49 1997.66,-777.99 2072.81,-780.05"/>
<path fill="none" stroke="#000000" stroke-width="2" d="M1921.18,-866.55C2002.33,-862.43 1999.66,-777.93 2072.81,-782.05"/>
</g>
<!-- DRV_B -->
<g id="node3" class="node">
<title>DRV_B</title>
<polygon fill="#ffffff" stroke="black" points="1928.81,-755.68 1749.81,-755.68 1749.81,-541.93 1928.81,-541.93 1928.81,-755.68"/>
<polygon fill="none" stroke="black" points="1749.81,-731.93 1749.81,-755.68 1928.81,-755.68 1928.81,-731.93 1749.81,-731.93"/>
<text text-anchor="start" x="1816.81" y="-738.38" font-family="arial" font-size="14.00">DRV_B</text>
<polygon fill="none" stroke="black" points="1749.81,-708.18 1749.81,-731.93 1870.81,-731.93 1870.81,-708.18 1749.81,-708.18"/>
<text text-anchor="start" x="1763.81" y="-714.63" font-family="arial" font-size="14.00">Screw Terminal</text>
<polygon fill="none" stroke="black" points="1870.81,-708.18 1870.81,-731.93 1928.81,-731.93 1928.81,-708.18 1870.81,-708.18"/>
<text text-anchor="start" x="1884.81" y="-714.63" font-family="arial" font-size="14.00">6&#45;pin</text>
<polygon fill="none" stroke="black" points="1749.81,-684.43 1749.81,-708.18 1799.98,-708.18 1799.98,-684.43 1749.81,-684.43"/>
<text text-anchor="start" x="1771.14" y="-690.88" font-family="arial" font-size="14.00">1</text>
<polygon fill="none" stroke="black" points="1799.98,-684.43 1799.98,-708.18 1878.64,-708.18 1878.64,-684.43 1799.98,-684.43"/>
<text text-anchor="start" x="1822.06" y="-690.88" font-family="arial" font-size="14.00">PUL+</text>
<polygon fill="none" stroke="black" points="1878.64,-684.43 1878.64,-708.18 1928.81,-708.18 1928.81,-684.43 1878.64,-684.43"/>
<text text-anchor="start" x="1899.98" y="-690.88" font-family="arial" font-size="14.00">1</text>
<polygon fill="none" stroke="black" points="1749.81,-660.68 1749.81,-684.43 1799.98,-684.43 1799.98,-660.68 1749.81,-660.68"/>
<text text-anchor="start" x="1771.14" y="-667.13" font-family="arial" font-size="14.00">2</text>
<polygon fill="none" stroke="black" points="1799.98,-660.68 1799.98,-684.43 1878.64,-684.43 1878.64,-660.68 1799.98,-660.68"/>
<text text-anchor="start" x="1823.93" y="-667.13" font-family="arial" font-size="14.00">PUL&#45;</text>
<polygon fill="none" stroke="black" points="1878.64,-660.68 1878.64,-684.43 1928.81,-684.43 1928.81,-660.68 1878.64,-660.68"/>
<text text-anchor="start" x="1899.98" y="-667.13" font-family="arial" font-size="14.00">2</text>
<polygon fill="none" stroke="black" points="1749.81,-636.93 1749.81,-660.68 1799.98,-660.68 1799.98,-636.93 1749.81,-636.93"/>
<text text-anchor="start" x="1771.14" y="-643.38" font-family="arial" font-size="14.00">3</text>
<polygon fill="none" stroke="black" points="1799.98,-636.93 1799.98,-660.68 1878.64,-660.68 1878.64,-636.93 1799.98,-636.93"/>
<text text-anchor="start" x="1823.56" y="-643.38" font-family="arial" font-size="14.00">DIR+</text>
<polygon fill="none" stroke="black" points="1878.64,-636.93 1878.64,-660.68 1928.81,-660.68 1928.81,-636.93 1878.64,-636.93"/>
<text text-anchor="start" x="1899.98" y="-643.38" font-family="arial" font-size="14.00">3</text>
<polygon fill="none" stroke="black" points="1749.81,-613.18 1749.81,-636.93 1799.98,-636.93 1799.98,-613.18 1749.81,-613.18"/>
<text text-anchor="start" x="1771.14" y="-619.63" font-family="arial" font-size="14.00">4</text>
<polygon fill="none" stroke="black" points="1799.98,-613.18 1799.98,-636.93 1878.64,-636.93 1878.64,-613.18 1799.98,-613.18"/>
<text text-anchor="start" x="1825.43" y="-619.63" font-family="arial" font-size="14.00">DIR&#45;</text>
<polygon fill="none" stroke="black" points="1878.64,-613.18 1878.64,-636.93 1928.81,-636.93 1928.81,-613.18 1878.64,-613.18"/>
<text text-anchor="start" x="1899.98" y="-619.63" font-family="arial" font-size="14.00">4</text>
<polygon fill="none" stroke="black" points="1749.81,-589.43 1749.81,-613.18 1799.98,-613.18 1799.98,-589.43 1749.81,-589.43"/>
<text text-anchor="start" x="1771.14" y="-595.88" font-family="arial" font-size="14.00">5</text>
<polygon fill="none" stroke="black" points="1799.98,-589.43 1799.98,-613.18 1878.64,-613.18 1878.64,-589.43 1799.98,-589.43"/>
<text text-anchor="start" x="1821.31" y="-595.88" font-family="arial" font-size="14.00">ENA+</text>
<polygon fill="none" stroke="black" points="1878.64,-589.43 1878.64,-613.18 1928.81,-613.18 1928.81,-589.43 1878.64,-589.43"/>
<text text-anchor="start" x="1899.98" y="-595.88" font-family="arial" font-size="14.00">5</text>
<polygon fill="none" stroke="black" points="1749.81,-565.68 1749.81,-589.43 1799.98,-589.43 1799.98,-565.68 1749.81,-565.68"/>
<text text-anchor="start" x="1771.14" y="-572.13" font-family="arial" font-size="14.00">6</text>
<polygon fill="none" stroke="black" points="1799.98,-565.68 1799.98,-589.43 1878.64,-589.43 1878.64,-565.68 1799.98,-565.68"/>
<text text-anchor="start" x="1823.18" y="-572.13" font-family="arial" font-size="14.00">ENA&#45;</text>
<polygon fill="none" stroke="black" points="1878.64,-565.68 1878.64,-589.43 1928.81,-589.43 1928.81,-565.68 1878.64,-565.68"/>
<text text-anchor="start" x="1899.98" y="-572.13" font-family="arial" font-size="14.00">6</text>
<polygon fill="none" stroke="black" points="1749.81,-541.93 1749.81,-565.68 1928.81,-565.68 1928.81,-541.93 1749.81,-541.93"/>
<text text-anchor="start" x="1753.81" y="-548.38" font-family="arial" font-size="14.00">KL&#45;4030 Driver B (Axis N+8)</text>
</g>
<!-- RB -->
<g id="node24" class="node">
<title>RB</title>
<polygon fill="#ffffff" stroke="black" points="2328.56,-652.05 2072.81,-652.05 2072.81,-511.55 2328.56,-511.55 2328.56,-652.05"/>
<polygon fill="none" stroke="black" points="2072.81,-628.3 2072.81,-652.05 2328.56,-652.05 2328.56,-628.3 2072.81,-628.3"/>
<text text-anchor="start" x="2191.31" y="-634.75" font-family="arial" font-size="14.00">RB</text>
<polygon fill="none" stroke="black" points="2072.81,-604.55 2072.81,-628.3 2328.56,-628.3 2328.56,-604.55 2072.81,-604.55"/>
<text text-anchor="start" x="2193.56" y="-611" font-family="arial" font-size="14.00">1x</text>
<text text-anchor="start" x="2119.06" y="-589.25" font-family="arial" font-size="14.00"> </text>
<text text-anchor="start" x="2074.81" y="-569.5" font-family="arial" font-size="14.00">DRV_B:6:ENA&#45;</text>
<text text-anchor="start" x="2171.06" y="-569.5" font-family="arial" font-size="14.00"> &#160;&#160;&#160;&#160;1:BK &#160;&#160;&#160;</text>
<text text-anchor="start" x="2238.06" y="-569.5" font-family="arial" font-size="14.00">EXT5V:2:GND</text>
<polygon fill="#000000" stroke="none" points="2072.81,-563.05 2072.81,-565.05 2328.56,-565.05 2328.56,-563.05 2072.81,-563.05"/>
<polygon fill="#000000" stroke="none" points="2072.81,-561.05 2072.81,-563.05 2328.56,-563.05 2328.56,-561.05 2072.81,-561.05"/>
<polygon fill="#000000" stroke="none" points="2072.81,-559.05 2072.81,-561.05 2328.56,-561.05 2328.56,-559.05 2072.81,-559.05"/>
<polygon fill="#000000" stroke="none" points="2072.81,-557.05 2072.81,-559.05 2328.56,-559.05 2328.56,-557.05 2072.81,-557.05"/>
<polygon fill="#000000" stroke="none" points="2072.81,-555.05 2072.81,-557.05 2328.56,-557.05 2328.56,-555.05 2072.81,-555.05"/>
<text text-anchor="start" x="2119.06" y="-539.75" font-family="arial" font-size="14.00"> </text>
<polygon fill="none" stroke="black" points="2072.81,-511.55 2072.81,-535.3 2328.56,-535.3 2328.56,-511.55 2072.81,-511.55"/>
<text text-anchor="start" x="2138.81" y="-518" font-family="arial" font-size="14.00">Driver B ENA&#45; return</text>
</g>
<!-- DRV_B&#45;&#45;RB -->
<g id="edge33" class="edge">
<title>DRV_B:e&#45;&#45;RB:w</title>
<path fill="none" stroke="#000000" stroke-width="2" d="M1928.81,-573.55C1990.25,-574.94 2005.31,-557.44 2072.81,-556.05"/>
<path fill="none" stroke="#000000" stroke-width="2" d="M1928.81,-575.55C1991.76,-576.25 2006.82,-558.75 2072.81,-558.05"/>
<path fill="none" stroke="#000000" stroke-width="2" d="M1928.81,-577.55C1993.28,-577.55 2008.34,-560.05 2072.81,-560.05"/>
<path fill="none" stroke="#000000" stroke-width="2" d="M1928.81,-579.55C1994.8,-578.86 2009.86,-561.36 2072.81,-562.05"/>
<path fill="none" stroke="#000000" stroke-width="2" d="M1928.81,-581.55C1996.31,-580.16 2011.37,-562.66 2072.81,-564.05"/>
</g>
<!-- TIE_0V -->
<g id="node4" class="node">
<title>TIE_0V</title>
<polygon fill="#ffffff" stroke="black" points="1152.31,-766.55 1076.81,-766.55 1076.81,-719.05 1152.31,-719.05 1152.31,-766.55"/>
<polygon fill="none" stroke="black" points="1076.81,-742.8 1076.81,-766.55 1152.31,-766.55 1152.31,-742.8 1076.81,-742.8"/>
<text text-anchor="start" x="1096.18" y="-749.25" font-family="arial" font-size="14.00">Splice</text>
<polygon fill="none" stroke="black" points="1076.81,-719.05 1076.81,-742.8 1152.31,-742.8 1152.31,-719.05 1076.81,-719.05"/>
<text text-anchor="start" x="1080.81" y="-725.5" font-family="arial" font-size="14.00">0V tie point</text>
</g>
<!-- GND_A1 -->
<g id="node13" class="node">
<title>GND_A1</title>
<polygon fill="#ffffff" stroke="black" points="1600.93,-1096.05 1431.43,-1096.05 1431.43,-955.55 1600.93,-955.55 1600.93,-1096.05"/>
<polygon fill="none" stroke="black" points="1431.43,-1072.3 1431.43,-1096.05 1600.93,-1096.05 1600.93,-1072.3 1431.43,-1072.3"/>
<text text-anchor="start" x="1488.81" y="-1078.75" font-family="arial" font-size="14.00">GND_A1</text>
<polygon fill="none" stroke="black" points="1431.43,-1048.55 1431.43,-1072.3 1600.93,-1072.3 1600.93,-1048.55 1431.43,-1048.55"/>
<text text-anchor="start" x="1509.06" y="-1055" font-family="arial" font-size="14.00">1x</text>
<text text-anchor="start" x="1433.43" y="-1033.25" font-family="arial" font-size="14.00"> </text>
<text text-anchor="start" x="1441.18" y="-1013.5" font-family="arial" font-size="14.00"> &#160;&#160;&#160;&#160;1:BK &#160;&#160;&#160;</text>
<text text-anchor="start" x="1508.18" y="-1013.5" font-family="arial" font-size="14.00">DRV_A:2:PUL&#45;</text>
<polygon fill="#000000" stroke="none" points="1431.43,-1007.05 1431.43,-1009.05 1600.93,-1009.05 1600.93,-1007.05 1431.43,-1007.05"/>
<polygon fill="#000000" stroke="none" points="1431.43,-1005.05 1431.43,-1007.05 1600.93,-1007.05 1600.93,-1005.05 1431.43,-1005.05"/>
<polygon fill="#000000" stroke="none" points="1431.43,-1003.05 1431.43,-1005.05 1600.93,-1005.05 1600.93,-1003.05 1431.43,-1003.05"/>
<polygon fill="#000000" stroke="none" points="1431.43,-1001.05 1431.43,-1003.05 1600.93,-1003.05 1600.93,-1001.05 1431.43,-1001.05"/>
<polygon fill="#000000" stroke="none" points="1431.43,-999.05 1431.43,-1001.05 1600.93,-1001.05 1600.93,-999.05 1431.43,-999.05"/>
<text text-anchor="start" x="1433.43" y="-983.75" font-family="arial" font-size="14.00"> </text>
<polygon fill="none" stroke="black" points="1431.43,-955.55 1431.43,-979.3 1600.93,-979.3 1600.93,-955.55 1431.43,-955.55"/>
<text text-anchor="start" x="1452.43" y="-962" font-family="arial" font-size="14.00">Driver A PUL&#45; ground</text>
</g>
<!-- TIE_0V&#45;&#45;GND_A1 -->
<g id="edge11" class="edge">
<title>TIE_0V:e&#45;&#45;GND_A1:w</title>
<path fill="none" stroke="#000000" stroke-width="2" d="M1153.31,-738.8C1326.47,-743.72 1265.06,-1004.97 1430.43,-1000.05"/>
<path fill="none" stroke="#000000" stroke-width="2" d="M1153.31,-740.8C1324.53,-743.26 1263.11,-1004.51 1430.43,-1002.05"/>
<path fill="none" stroke="#000000" stroke-width="2" d="M1153.31,-742.8C1322.58,-742.8 1261.17,-1004.05 1430.43,-1004.05"/>
<path fill="none" stroke="#000000" stroke-width="2" d="M1153.31,-744.8C1320.63,-742.34 1259.22,-1003.59 1430.43,-1006.05"/>
<path fill="none" stroke="#000000" stroke-width="2" d="M1153.31,-746.8C1318.68,-741.89 1257.27,-1003.14 1430.43,-1008.05"/>
</g>
<!-- GND_A2 -->
<g id="node14" class="node">
<title>GND_A2</title>
<polygon fill="#ffffff" stroke="black" points="1599.43,-931.05 1432.93,-931.05 1432.93,-790.55 1599.43,-790.55 1599.43,-931.05"/>
<polygon fill="none" stroke="black" points="1432.93,-907.3 1432.93,-931.05 1599.43,-931.05 1599.43,-907.3 1432.93,-907.3"/>
<text text-anchor="start" x="1488.81" y="-913.75" font-family="arial" font-size="14.00">GND_A2</text>
<polygon fill="none" stroke="black" points="1432.93,-883.55 1432.93,-907.3 1599.43,-907.3 1599.43,-883.55 1432.93,-883.55"/>
<text text-anchor="start" x="1509.06" y="-890" font-family="arial" font-size="14.00">1x</text>
<text text-anchor="start" x="1434.93" y="-868.25" font-family="arial" font-size="14.00"> </text>
<text text-anchor="start" x="1442.68" y="-848.5" font-family="arial" font-size="14.00"> &#160;&#160;&#160;&#160;1:BK &#160;&#160;&#160;</text>
<text text-anchor="start" x="1509.68" y="-848.5" font-family="arial" font-size="14.00">DRV_A:4:DIR&#45;</text>
<polygon fill="#000000" stroke="none" points="1432.93,-842.05 1432.93,-844.05 1599.43,-844.05 1599.43,-842.05 1432.93,-842.05"/>
<polygon fill="#000000" stroke="none" points="1432.93,-840.05 1432.93,-842.05 1599.43,-842.05 1599.43,-840.05 1432.93,-840.05"/>
<polygon fill="#000000" stroke="none" points="1432.93,-838.05 1432.93,-840.05 1599.43,-840.05 1599.43,-838.05 1432.93,-838.05"/>
<polygon fill="#000000" stroke="none" points="1432.93,-836.05 1432.93,-838.05 1599.43,-838.05 1599.43,-836.05 1432.93,-836.05"/>
<polygon fill="#000000" stroke="none" points="1432.93,-834.05 1432.93,-836.05 1599.43,-836.05 1599.43,-834.05 1432.93,-834.05"/>
<text text-anchor="start" x="1434.93" y="-818.75" font-family="arial" font-size="14.00"> </text>
<polygon fill="none" stroke="black" points="1432.93,-790.55 1432.93,-814.3 1599.43,-814.3 1599.43,-790.55 1432.93,-790.55"/>
<text text-anchor="start" x="1453.93" y="-797" font-family="arial" font-size="14.00">Driver A DIR&#45; ground</text>
</g>
<!-- TIE_0V&#45;&#45;GND_A2 -->
<g id="edge13" class="edge">
<title>TIE_0V:e&#45;&#45;GND_A2:w</title>
<path fill="none" stroke="#000000" stroke-width="2" d="M1153.31,-738.8C1288.27,-742.12 1304.86,-838.37 1431.93,-835.05"/>
<path fill="none" stroke="#000000" stroke-width="2" d="M1153.31,-740.8C1286.29,-742.46 1302.89,-838.71 1431.93,-837.05"/>
<path fill="none" stroke="#000000" stroke-width="2" d="M1153.31,-742.8C1284.32,-742.8 1300.92,-839.05 1431.93,-839.05"/>
<path fill="none" stroke="#000000" stroke-width="2" d="M1153.31,-744.8C1282.35,-743.14 1298.95,-839.39 1431.93,-841.05"/>
<path fill="none" stroke="#000000" stroke-width="2" d="M1153.31,-746.8C1280.38,-743.48 1296.98,-839.73 1431.93,-843.05"/>
</g>
<!-- GND_B1 -->
<g id="node15" class="node">
<title>GND_B1</title>
<polygon fill="#ffffff" stroke="black" points="1600.93,-766.05 1431.43,-766.05 1431.43,-625.55 1600.93,-625.55 1600.93,-766.05"/>
<polygon fill="none" stroke="black" points="1431.43,-742.3 1431.43,-766.05 1600.93,-766.05 1600.93,-742.3 1431.43,-742.3"/>
<text text-anchor="start" x="1488.81" y="-748.75" font-family="arial" font-size="14.00">GND_B1</text>
<polygon fill="none" stroke="black" points="1431.43,-718.55 1431.43,-742.3 1600.93,-742.3 1600.93,-718.55 1431.43,-718.55"/>
<text text-anchor="start" x="1509.06" y="-725" font-family="arial" font-size="14.00">1x</text>
<text text-anchor="start" x="1433.43" y="-703.25" font-family="arial" font-size="14.00"> </text>
<text text-anchor="start" x="1441.18" y="-683.5" font-family="arial" font-size="14.00"> &#160;&#160;&#160;&#160;1:BK &#160;&#160;&#160;</text>
<text text-anchor="start" x="1508.18" y="-683.5" font-family="arial" font-size="14.00">DRV_B:2:PUL&#45;</text>
<polygon fill="#000000" stroke="none" points="1431.43,-677.05 1431.43,-679.05 1600.93,-679.05 1600.93,-677.05 1431.43,-677.05"/>
<polygon fill="#000000" stroke="none" points="1431.43,-675.05 1431.43,-677.05 1600.93,-677.05 1600.93,-675.05 1431.43,-675.05"/>
<polygon fill="#000000" stroke="none" points="1431.43,-673.05 1431.43,-675.05 1600.93,-675.05 1600.93,-673.05 1431.43,-673.05"/>
<polygon fill="#000000" stroke="none" points="1431.43,-671.05 1431.43,-673.05 1600.93,-673.05 1600.93,-671.05 1431.43,-671.05"/>
<polygon fill="#000000" stroke="none" points="1431.43,-669.05 1431.43,-671.05 1600.93,-671.05 1600.93,-669.05 1431.43,-669.05"/>
<text text-anchor="start" x="1433.43" y="-653.75" font-family="arial" font-size="14.00"> </text>
<polygon fill="none" stroke="black" points="1431.43,-625.55 1431.43,-649.3 1600.93,-649.3 1600.93,-625.55 1431.43,-625.55"/>
<text text-anchor="start" x="1451.68" y="-632" font-family="arial" font-size="14.00">Driver B PUL&#45; ground</text>
</g>
<!-- TIE_0V&#45;&#45;GND_B1 -->
<g id="edge15" class="edge">
<title>TIE_0V:e&#45;&#45;GND_B1:w</title>
<path fill="none" stroke="#000000" stroke-width="2" d="M1153.31,-738.8C1276.42,-741.52 1299.75,-672.77 1430.43,-670.05"/>
<path fill="none" stroke="#000000" stroke-width="2" d="M1153.31,-740.8C1278.32,-742.16 1301.64,-673.41 1430.43,-672.05"/>
<path fill="none" stroke="#000000" stroke-width="2" d="M1153.31,-742.8C1280.21,-742.8 1303.53,-674.05 1430.43,-674.05"/>
<path fill="none" stroke="#000000" stroke-width="2" d="M1153.31,-744.8C1282.1,-743.45 1305.43,-674.7 1430.43,-676.05"/>
<path fill="none" stroke="#000000" stroke-width="2" d="M1153.31,-746.8C1284,-744.09 1307.32,-675.34 1430.43,-678.05"/>
</g>
<!-- GND_B2 -->
<g id="node16" class="node">
<title>GND_B2</title>
<polygon fill="#ffffff" stroke="black" points="1599.43,-601.05 1432.93,-601.05 1432.93,-460.55 1599.43,-460.55 1599.43,-601.05"/>
<polygon fill="none" stroke="black" points="1432.93,-577.3 1432.93,-601.05 1599.43,-601.05 1599.43,-577.3 1432.93,-577.3"/>
<text text-anchor="start" x="1488.81" y="-583.75" font-family="arial" font-size="14.00">GND_B2</text>
<polygon fill="none" stroke="black" points="1432.93,-553.55 1432.93,-577.3 1599.43,-577.3 1599.43,-553.55 1432.93,-553.55"/>
<text text-anchor="start" x="1509.06" y="-560" font-family="arial" font-size="14.00">1x</text>
<text text-anchor="start" x="1434.93" y="-538.25" font-family="arial" font-size="14.00"> </text>
<text text-anchor="start" x="1442.68" y="-518.5" font-family="arial" font-size="14.00"> &#160;&#160;&#160;&#160;1:BK &#160;&#160;&#160;</text>
<text text-anchor="start" x="1509.68" y="-518.5" font-family="arial" font-size="14.00">DRV_B:4:DIR&#45;</text>
<polygon fill="#000000" stroke="none" points="1432.93,-512.05 1432.93,-514.05 1599.43,-514.05 1599.43,-512.05 1432.93,-512.05"/>
<polygon fill="#000000" stroke="none" points="1432.93,-510.05 1432.93,-512.05 1599.43,-512.05 1599.43,-510.05 1432.93,-510.05"/>
<polygon fill="#000000" stroke="none" points="1432.93,-508.05 1432.93,-510.05 1599.43,-510.05 1599.43,-508.05 1432.93,-508.05"/>
<polygon fill="#000000" stroke="none" points="1432.93,-506.05 1432.93,-508.05 1599.43,-508.05 1599.43,-506.05 1432.93,-506.05"/>
<polygon fill="#000000" stroke="none" points="1432.93,-504.05 1432.93,-506.05 1599.43,-506.05 1599.43,-504.05 1432.93,-504.05"/>
<text text-anchor="start" x="1434.93" y="-488.75" font-family="arial" font-size="14.00"> </text>
<polygon fill="none" stroke="black" points="1432.93,-460.55 1432.93,-484.3 1599.43,-484.3 1599.43,-460.55 1432.93,-460.55"/>
<text text-anchor="start" x="1453.18" y="-467" font-family="arial" font-size="14.00">Driver B DIR&#45; ground</text>
</g>
<!-- TIE_0V&#45;&#45;GND_B2 -->
<g id="edge17" class="edge">
<title>TIE_0V:e&#45;&#45;GND_B2:w</title>
<path fill="none" stroke="#000000" stroke-width="2" d="M1153.31,-738.8C1311.02,-743.55 1266.37,-509.8 1431.93,-505.05"/>
<path fill="none" stroke="#000000" stroke-width="2" d="M1153.31,-740.8C1312.99,-743.18 1268.33,-509.43 1431.93,-507.05"/>
<path fill="none" stroke="#000000" stroke-width="2" d="M1153.31,-742.8C1314.95,-742.8 1270.29,-509.05 1431.93,-509.05"/>
<path fill="none" stroke="#000000" stroke-width="2" d="M1153.31,-744.8C1316.91,-742.43 1272.26,-508.68 1431.93,-511.05"/>
<path fill="none" stroke="#000000" stroke-width="2" d="M1153.31,-746.8C1318.88,-742.05 1274.22,-508.3 1431.93,-513.05"/>
</g>
<!-- SGND -->
<g id="node17" class="node">
<title>SGND</title>
<polygon fill="#ffffff" stroke="black" points="1922.93,-516.05 1755.68,-516.05 1755.68,-375.55 1922.93,-375.55 1922.93,-516.05"/>
<polygon fill="none" stroke="black" points="1755.68,-492.3 1755.68,-516.05 1922.93,-516.05 1922.93,-492.3 1755.68,-492.3"/>
<text text-anchor="start" x="1819.43" y="-498.75" font-family="arial" font-size="14.00">SGND</text>
<polygon fill="none" stroke="black" points="1755.68,-468.55 1755.68,-492.3 1922.93,-492.3 1922.93,-468.55 1755.68,-468.55"/>
<text text-anchor="start" x="1832.18" y="-475" font-family="arial" font-size="14.00">1x</text>
<text text-anchor="start" x="1757.68" y="-453.25" font-family="arial" font-size="14.00"> </text>
<text text-anchor="start" x="1765.43" y="-433.5" font-family="arial" font-size="14.00"> &#160;&#160;&#160;&#160;1:BK &#160;&#160;&#160;</text>
<text text-anchor="start" x="1832.43" y="-433.5" font-family="arial" font-size="14.00">EXT5V:2:GND</text>
<polygon fill="#000000" stroke="none" points="1755.68,-427.05 1755.68,-429.05 1922.93,-429.05 1922.93,-427.05 1755.68,-427.05"/>
<polygon fill="#000000" stroke="none" points="1755.68,-425.05 1755.68,-427.05 1922.93,-427.05 1922.93,-425.05 1755.68,-425.05"/>
<polygon fill="#000000" stroke="none" points="1755.68,-423.05 1755.68,-425.05 1922.93,-425.05 1922.93,-423.05 1755.68,-423.05"/>
<polygon fill="#000000" stroke="none" points="1755.68,-421.05 1755.68,-423.05 1922.93,-423.05 1922.93,-421.05 1755.68,-421.05"/>
<polygon fill="#000000" stroke="none" points="1755.68,-419.05 1755.68,-421.05 1922.93,-421.05 1922.93,-419.05 1755.68,-419.05"/>
<text text-anchor="start" x="1757.68" y="-403.75" font-family="arial" font-size="14.00"> </text>
<polygon fill="none" stroke="black" points="1755.68,-375.55 1755.68,-399.3 1922.93,-399.3 1922.93,-375.55 1755.68,-375.55"/>
<text text-anchor="start" x="1766.93" y="-382" font-family="arial" font-size="14.00">Signal ground to EXT5V</text>
</g>
<!-- TIE_0V&#45;&#45;SGND -->
<g id="edge19" class="edge">
<title>TIE_0V:e&#45;&#45;SGND:w</title>
<path fill="none" stroke="#000000" stroke-width="2" d="M1153.31,-738.8C1327.87,-743.97 1262,-527.34 1424.83,-445.2 1560.78,-382.21 1610.88,-420.89 1754.68,-420.05"/>
<path fill="none" stroke="#000000" stroke-width="2" d="M1153.31,-740.8C1329.79,-743.38 1263.91,-526.76 1425.69,-447 1559.56,-383.79 1609.66,-422.47 1754.68,-422.05"/>
<path fill="none" stroke="#000000" stroke-width="2" d="M1153.31,-742.8C1331.7,-742.8 1265.82,-526.17 1426.56,-448.8 1558.34,-385.37 1608.44,-424.05 1754.68,-424.05"/>
<path fill="none" stroke="#000000" stroke-width="2" d="M1153.31,-744.8C1333.61,-742.22 1267.74,-525.59 1427.43,-450.6 1557.11,-386.95 1607.22,-425.64 1754.68,-426.05"/>
<path fill="none" stroke="#000000" stroke-width="2" d="M1153.31,-746.8C1335.53,-741.64 1269.65,-525.01 1428.29,-452.41 1555.89,-388.54 1605.99,-427.22 1754.68,-428.05"/>
</g>
<!-- EXT5V -->
<g id="node5" class="node">
<title>EXT5V</title>
<polygon fill="#ffffff" stroke="black" points="2642.56,-567.18 2472.56,-567.18 2472.56,-448.43 2642.56,-448.43 2642.56,-567.18"/>
<polygon fill="none" stroke="black" points="2472.56,-543.43 2472.56,-567.18 2642.56,-567.18 2642.56,-543.43 2472.56,-543.43"/>
<text text-anchor="start" x="2536.18" y="-549.88" font-family="arial" font-size="14.00">EXT5V</text>
<polygon fill="none" stroke="black" points="2472.56,-519.68 2472.56,-543.43 2584.18,-543.43 2584.18,-519.68 2472.56,-519.68"/>
<text text-anchor="start" x="2486.75" y="-526.13" font-family="arial" font-size="14.00">Power Supply</text>
<polygon fill="none" stroke="black" points="2584.18,-519.68 2584.18,-543.43 2642.56,-543.43 2642.56,-519.68 2584.18,-519.68"/>
<text text-anchor="start" x="2598.37" y="-526.13" font-family="arial" font-size="14.00">2&#45;pin</text>
<polygon fill="none" stroke="black" points="2472.56,-495.93 2472.56,-519.68 2521.48,-519.68 2521.48,-495.93 2472.56,-495.93"/>
<text text-anchor="start" x="2493.27" y="-502.38" font-family="arial" font-size="14.00">1</text>
<polygon fill="none" stroke="black" points="2521.48,-495.93 2521.48,-519.68 2593.64,-519.68 2593.64,-495.93 2521.48,-495.93"/>
<text text-anchor="start" x="2545.18" y="-502.38" font-family="arial" font-size="14.00">+5V</text>
<polygon fill="none" stroke="black" points="2593.64,-495.93 2593.64,-519.68 2642.56,-519.68 2642.56,-495.93 2593.64,-495.93"/>
<text text-anchor="start" x="2614.35" y="-502.38" font-family="arial" font-size="14.00">1</text>
<polygon fill="none" stroke="black" points="2472.56,-472.18 2472.56,-495.93 2521.48,-495.93 2521.48,-472.18 2472.56,-472.18"/>
<text text-anchor="start" x="2493.27" y="-478.63" font-family="arial" font-size="14.00">2</text>
<polygon fill="none" stroke="black" points="2521.48,-472.18 2521.48,-495.93 2593.64,-495.93 2593.64,-472.18 2521.48,-472.18"/>
<text text-anchor="start" x="2542.18" y="-478.63" font-family="arial" font-size="14.00">GND</text>
<polygon fill="none" stroke="black" points="2593.64,-472.18 2593.64,-495.93 2642.56,-495.93 2642.56,-472.18 2593.64,-472.18"/>
<text text-anchor="start" x="2614.35" y="-478.63" font-family="arial" font-size="14.00">2</text>
<polygon fill="none" stroke="black" points="2472.56,-448.43 2472.56,-472.18 2642.56,-472.18 2642.56,-448.43 2472.56,-448.43"/>
<text text-anchor="start" x="2476.56" y="-454.88" font-family="arial" font-size="14.00">External 5V (enable circuit)</text>
</g>
<!-- PWR -->
<g id="node18" class="node">
<title>PWR</title>
<polygon fill="#ffffff" stroke="black" points="3040.06,-504.05 2786.56,-504.05 2786.56,-363.55 3040.06,-363.55 3040.06,-504.05"/>
<polygon fill="none" stroke="black" points="2786.56,-480.3 2786.56,-504.05 3040.06,-504.05 3040.06,-480.3 2786.56,-480.3"/>
<text text-anchor="start" x="2897.18" y="-486.75" font-family="arial" font-size="14.00">PWR</text>
<polygon fill="none" stroke="black" points="2786.56,-456.55 2786.56,-480.3 3040.06,-480.3 3040.06,-456.55 2786.56,-456.55"/>
<text text-anchor="start" x="2906.18" y="-463" font-family="arial" font-size="14.00">1x</text>
<text text-anchor="start" x="2827.93" y="-441.25" font-family="arial" font-size="14.00"> </text>
<text text-anchor="start" x="2788.56" y="-421.5" font-family="arial" font-size="14.00">EXT5V:1:+5V</text>
<text text-anchor="start" x="2875.06" y="-421.5" font-family="arial" font-size="14.00"> &#160;&#160;&#160;&#160;1:RD &#160;&#160;&#160;</text>
<text text-anchor="start" x="2943.56" y="-421.5" font-family="arial" font-size="14.00">ESTOP:1:COM</text>
<polygon fill="#000000" stroke="none" points="2786.56,-415.05 2786.56,-417.05 3040.06,-417.05 3040.06,-415.05 2786.56,-415.05"/>
<polygon fill="#ff0000" stroke="none" points="2786.56,-413.05 2786.56,-415.05 3040.06,-415.05 3040.06,-413.05 2786.56,-413.05"/>
<polygon fill="#ff0000" stroke="none" points="2786.56,-411.05 2786.56,-413.05 3040.06,-413.05 3040.06,-411.05 2786.56,-411.05"/>
<polygon fill="#ff0000" stroke="none" points="2786.56,-409.05 2786.56,-411.05 3040.06,-411.05 3040.06,-409.05 2786.56,-409.05"/>
<polygon fill="#000000" stroke="none" points="2786.56,-407.05 2786.56,-409.05 3040.06,-409.05 3040.06,-407.05 2786.56,-407.05"/>
<text text-anchor="start" x="2827.93" y="-391.75" font-family="arial" font-size="14.00"> </text>
<polygon fill="none" stroke="black" points="2786.56,-363.55 2786.56,-387.3 3040.06,-387.3 3040.06,-363.55 2786.56,-363.55"/>
<text text-anchor="start" x="2872.06" y="-370" font-family="arial" font-size="14.00">+5V to E&#45;stop</text>
</g>
<!-- EXT5V&#45;&#45;PWR -->
<g id="edge21" class="edge">
<title>EXT5V:e&#45;&#45;PWR:w</title>
<path fill="none" stroke="#000000" stroke-width="2" d="M2642.56,-503.8C2715.44,-508.21 2705.72,-412.46 2786.56,-408.05"/>
<path fill="none" stroke="#ff0000" stroke-width="2" d="M2642.56,-505.8C2717.43,-508 2707.71,-412.25 2786.56,-410.05"/>
<path fill="none" stroke="#ff0000" stroke-width="2" d="M2642.56,-507.8C2719.42,-507.8 2709.7,-412.05 2786.56,-412.05"/>
<path fill="none" stroke="#ff0000" stroke-width="2" d="M2642.56,-509.8C2721.41,-507.6 2711.69,-411.85 2786.56,-414.05"/>
<path fill="none" stroke="#000000" stroke-width="2" d="M2642.56,-511.8C2723.4,-507.4 2713.68,-411.65 2786.56,-416.05"/>
</g>
<!-- ESTOP -->
<g id="node6" class="node">
<title>ESTOP</title>
<polygon fill="#ffffff" stroke="black" points="3357.06,-394.18 3184.06,-394.18 3184.06,-275.43 3357.06,-275.43 3357.06,-394.18"/>
<polygon fill="none" stroke="black" points="3184.06,-370.43 3184.06,-394.18 3357.06,-394.18 3357.06,-370.43 3184.06,-370.43"/>
<text text-anchor="start" x="3247.31" y="-376.88" font-family="arial" font-size="14.00">ESTOP</text>
<polygon fill="none" stroke="black" points="3184.06,-346.68 3184.06,-370.43 3283.56,-370.43 3283.56,-346.68 3184.06,-346.68"/>
<text text-anchor="start" x="3188.06" y="-353.13" font-family="arial" font-size="14.00">NC Pushbutton</text>
<polygon fill="none" stroke="black" points="3283.56,-346.68 3283.56,-370.43 3321.56,-370.43 3321.56,-346.68 3283.56,-346.68"/>
<text text-anchor="start" x="3287.56" y="-353.13" font-family="arial" font-size="14.00">2&#45;pin</text>
<polygon fill="none" stroke="black" points="3321.56,-346.68 3321.56,-370.43 3349.06,-370.43 3349.06,-346.68 3321.56,-346.68"/>
<text text-anchor="start" x="3325.56" y="-353.13" font-family="arial" font-size="14.00">RD</text>
<polygon fill="#ff0000" stroke="none" points="3349.06,-346.68 3349.06,-370.43 3357.06,-370.43 3357.06,-346.68 3349.06,-346.68"/>
<polygon fill="none" stroke="black" points="3349.06,-346.68 3349.06,-370.43 3357.06,-370.43 3357.06,-346.68 3349.06,-346.68"/>
<polygon fill="none" stroke="black" points="3184.06,-322.93 3184.06,-346.68 3233.23,-346.68 3233.23,-322.93 3184.06,-322.93"/>
<text text-anchor="start" x="3204.89" y="-329.38" font-family="arial" font-size="14.00">1</text>
<polygon fill="none" stroke="black" points="3233.23,-322.93 3233.23,-346.68 3307.89,-346.68 3307.89,-322.93 3233.23,-322.93"/>
<text text-anchor="start" x="3254.06" y="-329.38" font-family="arial" font-size="14.00">COM</text>
<polygon fill="none" stroke="black" points="3307.89,-322.93 3307.89,-346.68 3357.06,-346.68 3357.06,-322.93 3307.89,-322.93"/>
<text text-anchor="start" x="3328.73" y="-329.38" font-family="arial" font-size="14.00">1</text>
<polygon fill="none" stroke="black" points="3184.06,-299.18 3184.06,-322.93 3233.23,-322.93 3233.23,-299.18 3184.06,-299.18"/>
<text text-anchor="start" x="3204.89" y="-305.63" font-family="arial" font-size="14.00">2</text>
<polygon fill="none" stroke="black" points="3233.23,-299.18 3233.23,-322.93 3307.89,-322.93 3307.89,-299.18 3233.23,-299.18"/>
<text text-anchor="start" x="3260.81" y="-305.63" font-family="arial" font-size="14.00">NC</text>
<polygon fill="none" stroke="black" points="3307.89,-299.18 3307.89,-322.93 3357.06,-322.93 3357.06,-299.18 3307.89,-299.18"/>
<text text-anchor="start" x="3328.73" y="-305.63" font-family="arial" font-size="14.00">2</text>
<polygon fill="none" stroke="black" points="3184.06,-275.43 3184.06,-299.18 3357.06,-299.18 3357.06,-275.43 3184.06,-275.43"/>
<text text-anchor="start" x="3220.31" y="-281.88" font-family="arial" font-size="14.00">Emergency Stop</text>
</g>
<!-- ES -->
<g id="node19" class="node">
<title>ES</title>
<polygon fill="#ffffff" stroke="black" points="3814.56,-325.05 3501.06,-325.05 3501.06,-184.55 3814.56,-184.55 3814.56,-325.05"/>
<polygon fill="none" stroke="black" points="3501.06,-301.3 3501.06,-325.05 3814.56,-325.05 3814.56,-301.3 3501.06,-301.3"/>
<text text-anchor="start" x="3648.81" y="-307.75" font-family="arial" font-size="14.00">ES</text>
<polygon fill="none" stroke="black" points="3501.06,-277.55 3501.06,-301.3 3814.56,-301.3 3814.56,-277.55 3501.06,-277.55"/>
<text text-anchor="start" x="3650.68" y="-284" font-family="arial" font-size="14.00">1x</text>
<text text-anchor="start" x="3541.68" y="-262.25" font-family="arial" font-size="14.00"> </text>
<text text-anchor="start" x="3503.06" y="-242.5" font-family="arial" font-size="14.00">ESTOP:2:NC</text>
<text text-anchor="start" x="3588.06" y="-242.5" font-family="arial" font-size="14.00"> &#160;&#160;&#160;&#160;1:RD &#160;&#160;&#160;</text>
<text text-anchor="start" x="3656.56" y="-242.5" font-family="arial" font-size="14.00">MC508_STEP:7:WDOG+</text>
<polygon fill="#000000" stroke="none" points="3501.06,-236.05 3501.06,-238.05 3814.56,-238.05 3814.56,-236.05 3501.06,-236.05"/>
<polygon fill="#ff0000" stroke="none" points="3501.06,-234.05 3501.06,-236.05 3814.56,-236.05 3814.56,-234.05 3501.06,-234.05"/>
<polygon fill="#ff0000" stroke="none" points="3501.06,-232.05 3501.06,-234.05 3814.56,-234.05 3814.56,-232.05 3501.06,-232.05"/>
<polygon fill="#ff0000" stroke="none" points="3501.06,-230.05 3501.06,-232.05 3814.56,-232.05 3814.56,-230.05 3501.06,-230.05"/>
<polygon fill="#000000" stroke="none" points="3501.06,-228.05 3501.06,-230.05 3814.56,-230.05 3814.56,-228.05 3501.06,-228.05"/>
<text text-anchor="start" x="3541.68" y="-212.75" font-family="arial" font-size="14.00"> </text>
<polygon fill="none" stroke="black" points="3501.06,-184.55 3501.06,-208.3 3814.56,-208.3 3814.56,-184.55 3501.06,-184.55"/>
<text text-anchor="start" x="3601.93" y="-191" font-family="arial" font-size="14.00">E&#45;stop to WDOG+</text>
</g>
<!-- ESTOP&#45;&#45;ES -->
<g id="edge23" class="edge">
<title>ESTOP:e&#45;&#45;ES:w</title>
<path fill="none" stroke="#000000" stroke-width="2" d="M3357.06,-307.05C3425.85,-311.13 3424.27,-233.13 3501.06,-229.05"/>
<path fill="none" stroke="#ff0000" stroke-width="2" d="M3357.06,-309.05C3427.85,-311.09 3426.27,-233.09 3501.06,-231.05"/>
<path fill="none" stroke="#ff0000" stroke-width="2" d="M3357.06,-311.05C3429.85,-311.05 3428.27,-233.05 3501.06,-233.05"/>
<path fill="none" stroke="#ff0000" stroke-width="2" d="M3357.06,-313.05C3431.85,-311.01 3430.27,-233.01 3501.06,-235.05"/>
<path fill="none" stroke="#000000" stroke-width="2" d="M3357.06,-315.05C3433.84,-310.97 3432.27,-232.97 3501.06,-237.05"/>
</g>
<!-- TIE_WDOG -->
<g id="node7" class="node">
<title>TIE_WDOG</title>
<polygon fill="#ffffff" stroke="black" points="1169.18,-319.55 1059.93,-319.55 1059.93,-272.05 1169.18,-272.05 1169.18,-319.55"/>
<polygon fill="none" stroke="black" points="1059.93,-295.8 1059.93,-319.55 1169.18,-319.55 1169.18,-295.8 1059.93,-295.8"/>
<text text-anchor="start" x="1096.18" y="-302.25" font-family="arial" font-size="14.00">Splice</text>
<polygon fill="none" stroke="black" points="1059.93,-272.05 1059.93,-295.8 1169.18,-295.8 1169.18,-272.05 1059.93,-272.05"/>
<text text-anchor="start" x="1063.93" y="-278.5" font-family="arial" font-size="14.00">WDOG&#45; tie point</text>
</g>
<!-- WDA -->
<g id="node21" class="node">
<title>WDA</title>
<polygon fill="#ffffff" stroke="black" points="1605.81,-387.05 1426.56,-387.05 1426.56,-246.55 1605.81,-246.55 1605.81,-387.05"/>
<polygon fill="none" stroke="black" points="1426.56,-363.3 1426.56,-387.05 1605.81,-387.05 1605.81,-363.3 1426.56,-363.3"/>
<text text-anchor="start" x="1500.06" y="-369.75" font-family="arial" font-size="14.00">WDA</text>
<polygon fill="none" stroke="black" points="1426.56,-339.55 1426.56,-363.3 1605.81,-363.3 1605.81,-339.55 1426.56,-339.55"/>
<text text-anchor="start" x="1509.06" y="-346" font-family="arial" font-size="14.00">1x</text>
<text text-anchor="start" x="1428.56" y="-324.25" font-family="arial" font-size="14.00"> </text>
<text text-anchor="start" x="1436.31" y="-304.5" font-family="arial" font-size="14.00"> &#160;&#160;&#160;&#160;1:OG &#160;&#160;&#160;</text>
<text text-anchor="start" x="1507.81" y="-304.5" font-family="arial" font-size="14.00">DRV_A:5:ENA+</text>
<polygon fill="#000000" stroke="none" points="1426.56,-298.05 1426.56,-300.05 1605.81,-300.05 1605.81,-298.05 1426.56,-298.05"/>
<polygon fill="#ff8000" stroke="none" points="1426.56,-296.05 1426.56,-298.05 1605.81,-298.05 1605.81,-296.05 1426.56,-296.05"/>
<polygon fill="#ff8000" stroke="none" points="1426.56,-294.05 1426.56,-296.05 1605.81,-296.05 1605.81,-294.05 1426.56,-294.05"/>
<polygon fill="#ff8000" stroke="none" points="1426.56,-292.05 1426.56,-294.05 1605.81,-294.05 1605.81,-292.05 1426.56,-292.05"/>
<polygon fill="#000000" stroke="none" points="1426.56,-290.05 1426.56,-292.05 1605.81,-292.05 1605.81,-290.05 1426.56,-290.05"/>
<text text-anchor="start" x="1428.56" y="-274.75" font-family="arial" font-size="14.00"> </text>
<polygon fill="none" stroke="black" points="1426.56,-246.55 1426.56,-270.3 1605.81,-270.3 1605.81,-246.55 1426.56,-246.55"/>
<text text-anchor="start" x="1431.43" y="-253" font-family="arial" font-size="14.00">WDOG tie to Driver A ENA+</text>
</g>
<!-- TIE_WDOG&#45;&#45;WDA -->
<g id="edge27" class="edge">
<title>TIE_WDOG:e&#45;&#45;WDA:w</title>
<path fill="none" stroke="#000000" stroke-width="2" d="M1170.18,-291.8C1284.02,-291.8 1312.51,-291.05 1426.56,-291.05"/>
<path fill="none" stroke="#ff8000" stroke-width="2" d="M1170.18,-293.8C1284.08,-293.8 1312.56,-293.05 1426.56,-293.05"/>
<path fill="none" stroke="#ff8000" stroke-width="2" d="M1170.18,-295.8C1284.13,-295.8 1312.61,-295.05 1426.56,-295.05"/>
<path fill="none" stroke="#ff8000" stroke-width="2" d="M1170.18,-297.8C1284.18,-297.8 1312.67,-297.05 1426.56,-297.05"/>
<path fill="none" stroke="#000000" stroke-width="2" d="M1170.18,-299.8C1284.24,-299.8 1312.72,-299.05 1426.56,-299.05"/>
</g>
<!-- WDB -->
<g id="node22" class="node">
<title>WDB</title>
<polygon fill="#ffffff" stroke="black" points="1605.81,-222.05 1426.56,-222.05 1426.56,-81.55 1605.81,-81.55 1605.81,-222.05"/>
<polygon fill="none" stroke="black" points="1426.56,-198.3 1426.56,-222.05 1605.81,-222.05 1605.81,-198.3 1426.56,-198.3"/>
<text text-anchor="start" x="1500.06" y="-204.75" font-family="arial" font-size="14.00">WDB</text>
<polygon fill="none" stroke="black" points="1426.56,-174.55 1426.56,-198.3 1605.81,-198.3 1605.81,-174.55 1426.56,-174.55"/>
<text text-anchor="start" x="1509.06" y="-181" font-family="arial" font-size="14.00">1x</text>
<text text-anchor="start" x="1428.56" y="-159.25" font-family="arial" font-size="14.00"> </text>
<text text-anchor="start" x="1436.31" y="-139.5" font-family="arial" font-size="14.00"> &#160;&#160;&#160;&#160;1:OG &#160;&#160;&#160;</text>
<text text-anchor="start" x="1507.81" y="-139.5" font-family="arial" font-size="14.00">DRV_B:5:ENA+</text>
<polygon fill="#000000" stroke="none" points="1426.56,-133.05 1426.56,-135.05 1605.81,-135.05 1605.81,-133.05 1426.56,-133.05"/>
<polygon fill="#ff8000" stroke="none" points="1426.56,-131.05 1426.56,-133.05 1605.81,-133.05 1605.81,-131.05 1426.56,-131.05"/>
<polygon fill="#ff8000" stroke="none" points="1426.56,-129.05 1426.56,-131.05 1605.81,-131.05 1605.81,-129.05 1426.56,-129.05"/>
<polygon fill="#ff8000" stroke="none" points="1426.56,-127.05 1426.56,-129.05 1605.81,-129.05 1605.81,-127.05 1426.56,-127.05"/>
<polygon fill="#000000" stroke="none" points="1426.56,-125.05 1426.56,-127.05 1605.81,-127.05 1605.81,-125.05 1426.56,-125.05"/>
<text text-anchor="start" x="1428.56" y="-109.75" font-family="arial" font-size="14.00"> </text>
<polygon fill="none" stroke="black" points="1426.56,-81.55 1426.56,-105.3 1605.81,-105.3 1605.81,-81.55 1426.56,-81.55"/>
<text text-anchor="start" x="1430.68" y="-88" font-family="arial" font-size="14.00">WDOG tie to Driver B ENA+</text>
</g>
<!-- TIE_WDOG&#45;&#45;WDB -->
<g id="edge29" class="edge">
<title>TIE_WDOG:e&#45;&#45;WDB:w</title>
<path fill="none" stroke="#000000" stroke-width="2" d="M1170.18,-291.8C1301.89,-296.16 1286.89,-130.41 1426.56,-126.05"/>
<path fill="none" stroke="#ff8000" stroke-width="2" d="M1170.18,-293.8C1303.88,-295.98 1288.88,-130.23 1426.56,-128.05"/>
<path fill="none" stroke="#ff8000" stroke-width="2" d="M1170.18,-295.8C1305.87,-295.8 1290.88,-130.05 1426.56,-130.05"/>
<path fill="none" stroke="#ff8000" stroke-width="2" d="M1170.18,-297.8C1307.86,-295.62 1292.87,-129.87 1426.56,-132.05"/>
<path fill="none" stroke="#000000" stroke-width="2" d="M1170.18,-299.8C1309.85,-295.44 1294.86,-129.69 1426.56,-134.05"/>
</g>
<!-- STEPA_PUL&#45;&#45;DRV_A -->
<g id="edge2" class="edge">
<title>STEPA_PUL:e&#45;&#45;DRV_A:w</title>
<path fill="none" stroke="#000000" stroke-width="2" d="M1281.68,-1314.05C1430.04,-1314.28 1488.39,-1334.74 1603.45,-1248.57 1713.56,-1172.35 1616.06,-983.13 1757.43,-977.3"/>
<path fill="none" stroke="#000000" stroke-width="2" d="M1281.68,-1316.05C1429.38,-1316.17 1487.73,-1336.63 1604.63,-1250.19 1715.33,-1171.44 1617.84,-982.22 1757.43,-979.3"/>
<path fill="none" stroke="#000000" stroke-width="2" d="M1281.68,-1318.05C1428.72,-1318.05 1487.07,-1338.52 1605.81,-1251.8 1717.11,-1170.52 1619.61,-981.3 1757.43,-981.3"/>
<path fill="none" stroke="#000000" stroke-width="2" d="M1281.68,-1320.05C1428.06,-1319.94 1486.41,-1340.4 1606.99,-1253.42 1718.89,-1169.61 1621.39,-980.39 1757.43,-983.3"/>
<path fill="none" stroke="#000000" stroke-width="2" d="M1281.68,-1322.05C1427.4,-1321.83 1485.74,-1342.29 1608.17,-1255.03 1720.67,-1168.69 1623.17,-979.47 1757.43,-985.3"/>
</g>
<!-- STEPA_DIR&#45;&#45;DRV_A -->
<g id="edge4" class="edge">
<title>STEPA_DIR:e&#45;&#45;DRV_A:w</title>
<path fill="none" stroke="#000000" stroke-width="2" d="M764.56,-1186.05C952.36,-1186.14 1445.15,-1292.08 1603.79,-1198.35 1720.48,-1134.7 1617.03,-935.65 1757.43,-929.8"/>
<path fill="none" stroke="#ff0000" stroke-width="2" d="M764.56,-1188.05C951.94,-1188.1 1444.73,-1294.03 1604.8,-1200.07 1722.25,-1133.78 1618.81,-934.72 1757.43,-931.8"/>
<path fill="none" stroke="#ff0000" stroke-width="2" d="M764.56,-1190.05C951.52,-1190.05 1444.31,-1295.99 1605.81,-1201.8 1724.03,-1132.86 1620.58,-933.8 1757.43,-933.8"/>
<path fill="none" stroke="#ff0000" stroke-width="2" d="M764.56,-1192.05C951.1,-1192.01 1443.88,-1297.95 1606.82,-1203.53 1725.8,-1131.94 1622.36,-932.88 1757.43,-935.8"/>
<path fill="none" stroke="#000000" stroke-width="2" d="M764.56,-1194.05C950.68,-1193.96 1443.46,-1299.9 1607.83,-1205.26 1727.58,-1131.01 1624.13,-931.96 1757.43,-937.8"/>
</g>
<!-- STEPB_PUL&#45;&#45;DRV_B -->
<g id="edge6" class="edge">
<title>STEPB_PUL:e&#45;&#45;DRV_B:w</title>
<path fill="none" stroke="#000000" stroke-width="2" d="M802.56,-1021.05C878.87,-1024.89 881.13,-1080.4 947.68,-1096.96 1088.3,-1137.97 1487.94,-1223.21 1603.46,-1137.57 1770.51,-1021 1538.9,-698.64 1749.81,-692.3"/>
<path fill="none" stroke="#90ee90" stroke-width="2" d="M802.56,-1023.05C876.87,-1024.97 879.13,-1080.48 947.12,-1098.88 1087.88,-1139.93 1487.53,-1225.17 1604.63,-1139.19 1772.14,-1019.83 1540.52,-697.47 1749.81,-694.3"/>
<path fill="none" stroke="#90ee90" stroke-width="2" d="M802.56,-1025.05C874.87,-1025.05 877.14,-1080.56 946.56,-1100.8 1087.46,-1141.89 1487.11,-1227.12 1605.81,-1140.8 1773.76,-1018.67 1542.15,-696.3 1749.81,-696.3"/>
<path fill="none" stroke="#90ee90" stroke-width="2" d="M802.56,-1027.05C872.88,-1025.13 875.14,-1080.64 946,-1102.72 1087.05,-1143.84 1486.69,-1229.08 1606.99,-1142.42 1775.38,-1017.5 1543.77,-695.14 1749.81,-698.3"/>
<path fill="none" stroke="#000000" stroke-width="2" d="M802.56,-1029.05C870.88,-1025.22 873.14,-1080.72 945.44,-1104.64 1086.63,-1145.8 1486.27,-1231.04 1608.16,-1144.04 1777.01,-1016.33 1545.39,-693.97 1749.81,-700.3"/>
</g>
<!-- STEPB_DIR&#45;&#45;DRV_B -->
<g id="edge8" class="edge">
<title>STEPB_DIR:e&#45;&#45;DRV_B:w</title>
<path fill="none" stroke="#000000" stroke-width="2" d="M1282.56,-993.05C1367.25,-997.67 1354.07,-1082.42 1427.85,-1104.02 1503.89,-1129.94 1543.51,-1151.44 1603.44,-1104.58 1774.91,-983.61 1532.77,-651.16 1749.81,-644.8"/>
<path fill="none" stroke="#ff66cc" stroke-width="2" d="M1282.56,-995.05C1365.28,-997.36 1352.1,-1082.11 1427.2,-1105.91 1502.94,-1131.69 1542.55,-1153.2 1604.63,-1106.19 1776.52,-982.43 1534.39,-649.98 1749.81,-646.8"/>
<path fill="none" stroke="#ff66cc" stroke-width="2" d="M1282.56,-997.05C1363.3,-997.05 1350.12,-1081.81 1426.56,-1107.8 1501.98,-1133.45 1541.6,-1154.96 1605.81,-1107.8 1778.14,-981.26 1536.01,-648.8 1749.81,-648.8"/>
<path fill="none" stroke="#ff66cc" stroke-width="2" d="M1282.56,-999.05C1361.32,-996.75 1348.14,-1081.5 1425.92,-1109.7 1501.03,-1135.21 1540.64,-1156.71 1606.99,-1109.41 1779.76,-980.08 1537.62,-647.63 1749.81,-650.8"/>
<path fill="none" stroke="#000000" stroke-width="2" d="M1282.56,-1001.05C1359.35,-996.44 1346.17,-1081.19 1425.27,-1111.59 1500.08,-1136.97 1539.69,-1158.47 1608.18,-1111.03 1781.37,-978.9 1539.24,-646.45 1749.81,-652.8"/>
</g>
<!-- GND_SCSI&#45;&#45;TIE_0V -->
<g id="edge10" class="edge">
<title>GND_SCSI:e&#45;&#45;TIE_0V:w</title>
<path fill="none" stroke="#000000" stroke-width="2" d="M719.93,-772.05C876.16,-773.04 914.33,-739.79 1075.81,-738.8"/>
<path fill="none" stroke="#ffffff" stroke-width="2" d="M719.93,-774.05C877.48,-774.54 915.64,-741.29 1075.81,-740.8"/>
<path fill="none" stroke="#895956" stroke-width="2" d="M719.93,-776.05C878.79,-776.05 916.95,-742.8 1075.81,-742.8"/>
<path fill="none" stroke="#ffffff" stroke-width="2" d="M719.93,-778.05C880.1,-777.56 918.27,-744.31 1075.81,-744.8"/>
<path fill="none" stroke="#000000" stroke-width="2" d="M719.93,-780.05C881.42,-779.07 919.58,-745.82 1075.81,-746.8"/>
</g>
<!-- GND_A1&#45;&#45;DRV_A -->
<g id="edge12" class="edge">
<title>GND_A1:e&#45;&#45;DRV_A:w</title>
<path fill="none" stroke="#000000" stroke-width="2" d="M1601.93,-1000.05C1670.18,-1003.11 1681.41,-956.61 1757.43,-953.55"/>
<path fill="none" stroke="#000000" stroke-width="2" d="M1601.93,-1002.05C1672.13,-1003.58 1683.36,-957.08 1757.43,-955.55"/>
<path fill="none" stroke="#000000" stroke-width="2" d="M1601.93,-1004.05C1674.07,-1004.05 1685.3,-957.55 1757.43,-957.55"/>
<path fill="none" stroke="#000000" stroke-width="2" d="M1601.93,-1006.05C1676.01,-1004.52 1687.24,-958.02 1757.43,-959.55"/>
<path fill="none" stroke="#000000" stroke-width="2" d="M1601.93,-1008.05C1677.96,-1004.99 1689.19,-958.49 1757.43,-961.55"/>
</g>
<!-- GND_A2&#45;&#45;DRV_A -->
<g id="edge14" class="edge">
<title>GND_A2:e&#45;&#45;DRV_A:w</title>
<path fill="none" stroke="#000000" stroke-width="2" d="M1600.43,-835.05C1681.01,-838.84 1684.85,-909.84 1757.43,-906.05"/>
<path fill="none" stroke="#000000" stroke-width="2" d="M1600.43,-837.05C1679.01,-838.94 1682.85,-909.94 1757.43,-908.05"/>
<path fill="none" stroke="#000000" stroke-width="2" d="M1600.43,-839.05C1677.02,-839.05 1680.85,-910.05 1757.43,-910.05"/>
<path fill="none" stroke="#000000" stroke-width="2" d="M1600.43,-841.05C1675.02,-839.16 1678.86,-910.16 1757.43,-912.05"/>
<path fill="none" stroke="#000000" stroke-width="2" d="M1600.43,-843.05C1673.02,-839.27 1676.86,-910.27 1757.43,-914.05"/>
</g>
<!-- GND_B1&#45;&#45;DRV_B -->
<g id="edge16" class="edge">
<title>GND_B1:e&#45;&#45;DRV_B:w</title>
<path fill="none" stroke="#000000" stroke-width="2" d="M1601.93,-670.05C1667.3,-670.07 1683.72,-668.57 1749.81,-668.55"/>
<path fill="none" stroke="#000000" stroke-width="2" d="M1601.93,-672.05C1667.48,-672.06 1683.9,-670.56 1749.81,-670.55"/>
<path fill="none" stroke="#000000" stroke-width="2" d="M1601.93,-674.05C1667.66,-674.05 1684.08,-672.55 1749.81,-672.55"/>
<path fill="none" stroke="#000000" stroke-width="2" d="M1601.93,-676.05C1667.84,-676.04 1684.27,-674.54 1749.81,-674.55"/>
<path fill="none" stroke="#000000" stroke-width="2" d="M1601.93,-678.05C1668.02,-678.04 1684.45,-676.54 1749.81,-676.55"/>
</g>
<!-- GND_B2&#45;&#45;DRV_B -->
<g id="edge18" class="edge">
<title>GND_B2:e&#45;&#45;DRV_B:w</title>
<path fill="none" stroke="#000000" stroke-width="2" d="M1600.43,-505.05C1688.44,-509.69 1669.7,-625.69 1749.81,-621.05"/>
<path fill="none" stroke="#000000" stroke-width="2" d="M1600.43,-507.05C1686.47,-509.37 1667.73,-625.37 1749.81,-623.05"/>
<path fill="none" stroke="#000000" stroke-width="2" d="M1600.43,-509.05C1684.49,-509.05 1665.75,-625.05 1749.81,-625.05"/>
<path fill="none" stroke="#000000" stroke-width="2" d="M1600.43,-511.05C1682.52,-508.73 1663.78,-624.73 1749.81,-627.05"/>
<path fill="none" stroke="#000000" stroke-width="2" d="M1600.43,-513.05C1680.54,-508.41 1661.8,-624.41 1749.81,-629.05"/>
</g>
<!-- SGND&#45;&#45;EXT5V -->
<g id="edge20" class="edge">
<title>SGND:e&#45;&#45;EXT5V:w</title>
<path fill="none" stroke="#000000" stroke-width="2" d="M1923.93,-420.05C2172.1,-421.27 2230.15,-481.27 2472.56,-480.05"/>
<path fill="none" stroke="#000000" stroke-width="2" d="M1923.93,-422.05C2170.66,-422.66 2228.71,-482.66 2472.56,-482.05"/>
<path fill="none" stroke="#000000" stroke-width="2" d="M1923.93,-424.05C2169.22,-424.05 2227.27,-484.05 2472.56,-484.05"/>
<path fill="none" stroke="#000000" stroke-width="2" d="M1923.93,-426.05C2167.78,-425.44 2225.84,-485.44 2472.56,-486.05"/>
<path fill="none" stroke="#000000" stroke-width="2" d="M1923.93,-428.05C2166.35,-426.83 2224.4,-486.83 2472.56,-488.05"/>
</g>
<!-- PWR&#45;&#45;ESTOP -->
<g id="edge22" class="edge">
<title>PWR:e&#45;&#45;ESTOP:w</title>
<path fill="none" stroke="#000000" stroke-width="2" d="M3040.06,-408.05C3108.69,-412.12 3107.43,-334.87 3184.06,-330.8"/>
<path fill="none" stroke="#ff0000" stroke-width="2" d="M3040.06,-410.05C3110.69,-412.09 3109.43,-334.84 3184.06,-332.8"/>
<path fill="none" stroke="#ff0000" stroke-width="2" d="M3040.06,-412.05C3112.69,-412.05 3111.43,-334.8 3184.06,-334.8"/>
<path fill="none" stroke="#ff0000" stroke-width="2" d="M3040.06,-414.05C3114.69,-412.02 3113.43,-334.77 3184.06,-336.8"/>
<path fill="none" stroke="#000000" stroke-width="2" d="M3040.06,-416.05C3116.69,-411.99 3115.43,-334.74 3184.06,-338.8"/>
</g>
<!-- ES&#45;&#45;MC508_STEP -->
<g id="edge24" class="edge">
<title>ES:e&#45;&#45;MC508_STEP:w</title>
<path fill="none" stroke="#000000" stroke-width="2" d="M3815.56,-229.05C3833.25,-234.06 3824.88,-201.78 3811.55,-187.19 3550.31,116.96 3321.55,-48.05 2914.31,-48.8 1113.56,-48.8 1113.56,-48.8 1113.56,-48.8 768.31,-46.78 690.93,-183.1 412.74,-395.98 204.46,-554.91 116.23,-592.3 24.29,-833.49 10.81,-868.32 -13.82,-916.98 19.56,-911.18"/>
<path fill="none" stroke="#ff0000" stroke-width="2" d="M3815.56,-231.05C3835.18,-233.55 3826.82,-201.28 3813.05,-185.87 3549.14,118.58 3320.38,-46.42 2914.31,-46.8 1113.56,-46.8 1113.56,-46.8 1113.56,-46.8 766.57,-45.79 689.19,-182.11 411.52,-394.39 203.68,-553.07 115.45,-590.46 22.43,-832.77 9.02,-867.42 -15.6,-916.08 19.56,-913.18"/>
<path fill="none" stroke="#ff0000" stroke-width="2" d="M3815.56,-233.05C3837.12,-233.05 3828.76,-200.78 3814.56,-184.55 3547.97,120.2 3319.21,-44.8 2914.31,-44.8 1113.56,-44.8 1113.56,-44.8 1113.56,-44.8 764.83,-44.8 687.45,-181.12 410.31,-392.8 202.9,-551.22 114.67,-588.62 20.56,-832.05 7.24,-866.51 -17.39,-915.18 19.56,-915.18"/>
<path fill="none" stroke="#ff0000" stroke-width="2" d="M3815.56,-235.05C3839.06,-232.55 3830.69,-200.28 3816.07,-183.24 3546.8,121.82 3318.04,-43.18 2914.31,-42.8 1113.56,-42.8 1113.56,-42.8 1113.56,-42.8 763.09,-43.82 685.71,-180.14 409.1,-391.21 202.12,-549.38 113.89,-586.78 18.69,-831.33 5.45,-865.61 -19.17,-914.27 19.56,-917.18"/>
<path fill="none" stroke="#000000" stroke-width="2" d="M3815.56,-237.05C3840.99,-232.05 3832.63,-199.78 3817.57,-181.92 3545.63,123.45 3316.87,-41.56 2914.31,-40.8 1113.56,-40.8 1113.56,-40.8 1113.56,-40.8 761.35,-42.83 683.97,-179.15 407.88,-389.62 201.34,-547.54 113.11,-584.93 16.83,-830.61 3.67,-864.71 -20.96,-913.37 19.56,-919.18"/>
</g>
<!-- WDOG_SCSI&#45;&#45;TIE_WDOG -->
<g id="edge26" class="edge">
<title>WDOG_SCSI:e&#45;&#45;TIE_WDOG:w</title>
<path fill="none" stroke="#000000" stroke-width="2" d="M720.68,-449.05C882.47,-452.88 889.15,-295.63 1058.93,-291.8"/>
<path fill="none" stroke="#8000ff" stroke-width="2" d="M720.68,-451.05C884.47,-452.97 891.15,-295.72 1058.93,-293.8"/>
<path fill="none" stroke="#8000ff" stroke-width="2" d="M720.68,-453.05C886.47,-453.05 893.15,-295.8 1058.93,-295.8"/>
<path fill="none" stroke="#8000ff" stroke-width="2" d="M720.68,-455.05C888.47,-453.14 895.15,-295.89 1058.93,-297.8"/>
<path fill="none" stroke="#000000" stroke-width="2" d="M720.68,-457.05C890.47,-453.22 897.15,-295.97 1058.93,-299.8"/>
</g>
<!-- WDA&#45;&#45;DRV_A -->
<g id="edge28" class="edge">
<title>WDA:e&#45;&#45;DRV_A:w</title>
<path fill="none" stroke="#000000" stroke-width="2" d="M1605.81,-291.05C1880.43,-297.26 1489.49,-888.51 1757.43,-882.3"/>
<path fill="none" stroke="#ff8000" stroke-width="2" d="M1605.81,-293.05C1878.76,-296.16 1487.82,-887.41 1757.43,-884.3"/>
<path fill="none" stroke="#ff8000" stroke-width="2" d="M1605.81,-295.05C1877.09,-295.05 1486.15,-886.3 1757.43,-886.3"/>
<path fill="none" stroke="#ff8000" stroke-width="2" d="M1605.81,-297.05C1875.42,-293.95 1484.49,-885.2 1757.43,-888.3"/>
<path fill="none" stroke="#000000" stroke-width="2" d="M1605.81,-299.05C1873.75,-292.85 1482.82,-884.1 1757.43,-890.3"/>
</g>
<!-- WDB&#45;&#45;DRV_B -->
<g id="edge30" class="edge">
<title>WDB:e&#45;&#45;DRV_B:w</title>
<path fill="none" stroke="#000000" stroke-width="2" d="M1605.81,-126.05C1828.21,-132.17 1534.2,-603.42 1749.81,-597.3"/>
<path fill="none" stroke="#ff8000" stroke-width="2" d="M1605.81,-128.05C1826.51,-131.11 1532.5,-602.36 1749.81,-599.3"/>
<path fill="none" stroke="#ff8000" stroke-width="2" d="M1605.81,-130.05C1824.81,-130.05 1530.81,-601.3 1749.81,-601.3"/>
<path fill="none" stroke="#ff8000" stroke-width="2" d="M1605.81,-132.05C1823.12,-128.99 1529.11,-600.24 1749.81,-603.3"/>
<path fill="none" stroke="#000000" stroke-width="2" d="M1605.81,-134.05C1821.42,-127.94 1527.41,-599.19 1749.81,-605.3"/>
</g>
<!-- RA&#45;&#45;EXT5V -->
<g id="edge32" class="edge">
<title>RA:e&#45;&#45;EXT5V:w</title>
<path fill="none" stroke="#000000" stroke-width="2" d="M2328.56,-774.05C2470.48,-779.84 2323.48,-485.84 2472.56,-480.05"/>
<path fill="none" stroke="#000000" stroke-width="2" d="M2328.56,-776.05C2472.27,-778.95 2325.27,-484.95 2472.56,-482.05"/>
<path fill="none" stroke="#000000" stroke-width="2" d="M2328.56,-778.05C2474.06,-778.05 2327.06,-484.05 2472.56,-484.05"/>
<path fill="none" stroke="#000000" stroke-width="2" d="M2328.56,-780.05C2475.85,-777.16 2328.85,-483.16 2472.56,-486.05"/>
<path fill="none" stroke="#000000" stroke-width="2" d="M2328.56,-782.05C2477.64,-776.26 2330.64,-482.26 2472.56,-488.05"/>
</g>
<!-- RB&#45;&#45;EXT5V -->
<g id="edge34" class="edge">
<title>RB:e&#45;&#45;EXT5V:w</title>
<path fill="none" stroke="#000000" stroke-width="2" d="M2328.56,-556.05C2396.93,-560.09 2396.19,-484.09 2472.56,-480.05"/>
<path fill="none" stroke="#000000" stroke-width="2" d="M2328.56,-558.05C2398.93,-560.07 2398.19,-484.07 2472.56,-482.05"/>
<path fill="none" stroke="#000000" stroke-width="2" d="M2328.56,-560.05C2400.93,-560.05 2400.19,-484.05 2472.56,-484.05"/>
<path fill="none" stroke="#000000" stroke-width="2" d="M2328.56,-562.05C2402.93,-560.03 2402.19,-484.03 2472.56,-486.05"/>
<path fill="none" stroke="#000000" stroke-width="2" d="M2328.56,-564.05C2404.93,-560.01 2404.19,-484.01 2472.56,-488.05"/>
</g>
</g>
</svg>
