<?xml version="1.0" encoding="UTF-8" standalone="no"?>
<!DOCTYPE svg PUBLIC "-//W3C//DTD SVG 1.1//EN"
 "http://www.w3.org/Graphics/SVG/1.1/DTD/svg11.dtd">
<!-- Generated by graphviz version 12.2.1 (20241206.2353)
 -->
<!-- Pages: 1 -->
<svg width="3221pt" height="1451pt"
 viewBox="0.00 0.00 3221.38 1450.50" xmlns="http://www.w3.org/2000/svg" xmlns:xlink="http://www.w3.org/1999/xlink">
<g id="graph0" class="graph" transform="scale(1 1) rotate(0) translate(4 1446.5)">
<polygon fill="#ffffff" stroke="none" points="-4,4 -4,-1446.5 3217.38,-1446.5 3217.38,4 -4,4"/>
<!-- MC508_STEP -->
<g id="node1" class="node">
<title>MC508_STEP</title>
<polygon fill="#ffffff" stroke="black" points="313.96,-765 68.21,-765 68.21,-527.5 313.96,-527.5 313.96,-765"/>
<polygon fill="none" stroke="black" points="68.21,-741.25 68.21,-765 313.96,-765 313.96,-741.25 68.21,-741.25"/>
<text text-anchor="start" x="147.59" y="-747.7" font-family="arial" font-size="14.00">MC508_STEP</text>
<polygon fill="none" stroke="black" points="68.21,-717.5 68.21,-741.25 201.59,-741.25 201.59,-717.5 68.21,-717.5"/>
<text text-anchor="start" x="109.4" y="-723.95" font-family="arial" font-size="14.00">MDR&#45;20</text>
<polygon fill="none" stroke="black" points="201.59,-717.5 201.59,-741.25 313.96,-741.25 313.96,-717.5 201.59,-717.5"/>
<text text-anchor="start" x="242.77" y="-723.95" font-family="arial" font-size="14.00">7&#45;pin</text>
<polygon fill="none" stroke="black" points="68.21,-693.75 68.21,-717.5 129.63,-717.5 129.63,-693.75 68.21,-693.75"/>
<text text-anchor="start" x="95.17" y="-700.2" font-family="arial" font-size="14.00">1</text>
<polygon fill="none" stroke="black" points="129.63,-693.75 129.63,-717.5 252.54,-717.5 252.54,-693.75 129.63,-693.75"/>
<text text-anchor="start" x="160.71" y="-700.2" font-family="arial" font-size="14.00">Pulse(N)+</text>
<polygon fill="none" stroke="black" points="252.54,-693.75 252.54,-717.5 313.96,-717.5 313.96,-693.75 252.54,-693.75"/>
<text text-anchor="start" x="279.5" y="-700.2" font-family="arial" font-size="14.00">1</text>
<polygon fill="none" stroke="black" points="68.21,-670 68.21,-693.75 129.63,-693.75 129.63,-670 68.21,-670"/>
<text text-anchor="start" x="95.17" y="-676.45" font-family="arial" font-size="14.00">3</text>
<polygon fill="none" stroke="black" points="129.63,-670 129.63,-693.75 252.54,-693.75 252.54,-670 129.63,-670"/>
<text text-anchor="start" x="168.96" y="-676.45" font-family="arial" font-size="14.00">Dir(N)+</text>
<polygon fill="none" stroke="black" points="252.54,-670 252.54,-693.75 313.96,-693.75 313.96,-670 252.54,-670"/>
<text text-anchor="start" x="279.5" y="-676.45" font-family="arial" font-size="14.00">3</text>
<polygon fill="none" stroke="black" points="68.21,-646.25 68.21,-670 129.63,-670 129.63,-646.25 68.21,-646.25"/>
<text text-anchor="start" x="91.79" y="-652.7" font-family="arial" font-size="14.00">11</text>
<polygon fill="none" stroke="black" points="129.63,-646.25 129.63,-670 252.54,-670 252.54,-646.25 129.63,-646.25"/>
<text text-anchor="start" x="152.84" y="-652.7" font-family="arial" font-size="14.00">Pulse(N+8)+</text>
<polygon fill="none" stroke="black" points="252.54,-646.25 252.54,-670 313.96,-670 313.96,-646.25 252.54,-646.25"/>
<text text-anchor="start" x="276.13" y="-652.7" font-family="arial" font-size="14.00">11</text>
<polygon fill="none" stroke="black" points="68.21,-622.5 68.21,-646.25 129.63,-646.25 129.63,-622.5 68.21,-622.5"/>
<text text-anchor="start" x="91.42" y="-628.95" font-family="arial" font-size="14.00">13</text>
<polygon fill="none" stroke="black" points="129.63,-622.5 129.63,-646.25 252.54,-646.25 252.54,-622.5 129.63,-622.5"/>
<text text-anchor="start" x="161.09" y="-628.95" font-family="arial" font-size="14.00">Dir(N+8)+</text>
<polygon fill="none" stroke="black" points="252.54,-622.5 252.54,-646.25 313.96,-646.25 313.96,-622.5 252.54,-622.5"/>
<text text-anchor="start" x="275.75" y="-628.95" font-family="arial" font-size="14.00">13</text>
<polygon fill="none" stroke="black" points="68.21,-598.75 68.21,-622.5 129.63,-622.5 129.63,-598.75 68.21,-598.75"/>
<text text-anchor="start" x="95.17" y="-605.2" font-family="arial" font-size="14.00">7</text>
<polygon fill="none" stroke="black" points="129.63,-598.75 129.63,-622.5 252.54,-622.5 252.54,-598.75 129.63,-598.75"/>
<text text-anchor="start" x="164.09" y="-605.2" font-family="arial" font-size="14.00">WDOG+</text>
<polygon fill="none" stroke="black" points="252.54,-598.75 252.54,-622.5 313.96,-622.5 313.96,-598.75 252.54,-598.75"/>
<text text-anchor="start" x="279.5" y="-605.2" font-family="arial" font-size="14.00">7</text>
<polygon fill="none" stroke="black" points="68.21,-575 68.21,-598.75 129.63,-598.75 129.63,-575 68.21,-575"/>
<text text-anchor="start" x="95.17" y="-581.45" font-family="arial" font-size="14.00">8</text>
<polygon fill="none" stroke="black" points="129.63,-575 129.63,-598.75 252.54,-598.75 252.54,-575 129.63,-575"/>
<text text-anchor="start" x="165.96" y="-581.45" font-family="arial" font-size="14.00">WDOG&#45;</text>
<polygon fill="none" stroke="black" points="252.54,-575 252.54,-598.75 313.96,-598.75 313.96,-575 252.54,-575"/>
<text text-anchor="start" x="279.5" y="-581.45" font-family="arial" font-size="14.00">8</text>
<polygon fill="none" stroke="black" points="68.21,-551.25 68.21,-575 129.63,-575 129.63,-551.25 68.21,-551.25"/>
<text text-anchor="start" x="91.42" y="-557.7" font-family="arial" font-size="14.00">15</text>
<polygon fill="none" stroke="black" points="129.63,-551.25 129.63,-575 252.54,-575 252.54,-551.25 129.63,-551.25"/>
<text text-anchor="start" x="182.84" y="-557.7" font-family="arial" font-size="14.00">0V</text>
<polygon fill="none" stroke="black" points="252.54,-551.25 252.54,-575 313.96,-575 313.96,-551.25 252.54,-551.25"/>
<text text-anchor="start" x="275.75" y="-557.7" font-family="arial" font-size="14.00">15</text>
<polygon fill="none" stroke="black" points="68.21,-527.5 68.21,-551.25 313.96,-551.25 313.96,-527.5 68.21,-527.5"/>
<text text-anchor="start" x="72.21" y="-533.95" font-family="arial" font-size="14.00">MC508 Stepper Port (ATYPE 43, P849)</text>
</g>
<!-- STEPA_PUL -->
<g id="node6" class="node">
<title>STEPA_PUL</title>
<polygon fill="#ffffff" stroke="black" points="820.21,-1442.5 487.96,-1442.5 487.96,-1302 820.21,-1302 820.21,-1442.5"/>
<polygon fill="none" stroke="black" points="487.96,-1418.75 487.96,-1442.5 820.21,-1442.5 820.21,-1418.75 487.96,-1418.75"/>
<text text-anchor="start" x="615.46" y="-1425.2" font-family="arial" font-size="14.00">STEPA_PUL</text>
<polygon fill="none" stroke="black" points="487.96,-1395 487.96,-1418.75 820.21,-1418.75 820.21,-1395 487.96,-1395"/>
<text text-anchor="start" x="646.96" y="-1401.45" font-family="arial" font-size="14.00">1x</text>
<text text-anchor="start" x="569.46" y="-1379.7" font-family="arial" font-size="14.00"> </text>
<text text-anchor="start" x="489.96" y="-1359.95" font-family="arial" font-size="14.00">MC508_STEP:1:Pulse(N)+</text>
<text text-anchor="start" x="656.71" y="-1359.95" font-family="arial" font-size="14.00"> &#160;&#160;&#160;&#160;1:BK &#160;&#160;&#160;</text>
<text text-anchor="start" x="723.71" y="-1359.95" font-family="arial" font-size="14.00">DRV_A:1:PUL+</text>
<polygon fill="#000000" stroke="none" points="487.96,-1353.5 487.96,-1355.5 820.21,-1355.5 820.21,-1353.5 487.96,-1353.5"/>
<polygon fill="#000000" stroke="none" points="487.96,-1351.5 487.96,-1353.5 820.21,-1353.5 820.21,-1351.5 487.96,-1351.5"/>
<polygon fill="#000000" stroke="none" points="487.96,-1349.5 487.96,-1351.5 820.21,-1351.5 820.21,-1349.5 487.96,-1349.5"/>
<polygon fill="#000000" stroke="none" points="487.96,-1347.5 487.96,-1349.5 820.21,-1349.5 820.21,-1347.5 487.96,-1347.5"/>
<polygon fill="#000000" stroke="none" points="487.96,-1345.5 487.96,-1347.5 820.21,-1347.5 820.21,-1345.5 487.96,-1345.5"/>
<text text-anchor="start" x="569.46" y="-1330.2" font-family="arial" font-size="14.00"> </text>
<polygon fill="none" stroke="black" points="487.96,-1302 487.96,-1325.75 820.21,-1325.75 820.21,-1302 487.96,-1302"/>
<text text-anchor="start" x="616.59" y="-1308.45" font-family="arial" font-size="14.00">Axis N pulse</text>
</g>
<!-- MC508_STEP&#45;&#45;STEPA_PUL -->
<g id="edge1" class="edge">
<title>MC508_STEP:e&#45;&#45;STEPA_PUL:w</title>
<path fill="none" stroke="#000000" stroke-width="2" d="M313.96,-701.63C614.06,-707.81 193.57,-1352.68 486.96,-1346.5"/>
<path fill="none" stroke="#000000" stroke-width="2" d="M313.96,-703.63C612.38,-706.72 191.89,-1351.59 486.96,-1348.5"/>
<path fill="none" stroke="#000000" stroke-width="2" d="M313.96,-705.62C610.71,-705.63 190.22,-1350.5 486.96,-1350.5"/>
<path fill="none" stroke="#000000" stroke-width="2" d="M313.96,-707.62C609.03,-704.53 188.54,-1349.41 486.96,-1352.5"/>
<path fill="none" stroke="#000000" stroke-width="2" d="M313.96,-709.62C607.36,-703.44 186.86,-1348.32 486.96,-1354.5"/>
</g>
<!-- STEPA_DIR -->
<g id="node7" class="node">
<title>STEPA_DIR</title>
<polygon fill="#ffffff" stroke="black" points="811.21,-1277.5 496.96,-1277.5 496.96,-1137 811.21,-1137 811.21,-1277.5"/>
<polygon fill="none" stroke="black" points="496.96,-1253.75 496.96,-1277.5 811.21,-1277.5 811.21,-1253.75 496.96,-1253.75"/>
<text text-anchor="start" x="616.96" y="-1260.2" font-family="arial" font-size="14.00">STEPA_DIR</text>
<polygon fill="none" stroke="black" points="496.96,-1230 496.96,-1253.75 811.21,-1253.75 811.21,-1230 496.96,-1230"/>
<text text-anchor="start" x="646.96" y="-1236.45" font-family="arial" font-size="14.00">1x</text>
<text text-anchor="start" x="570.21" y="-1214.7" font-family="arial" font-size="14.00"> </text>
<text text-anchor="start" x="498.96" y="-1194.95" font-family="arial" font-size="14.00">MC508_STEP:3:Dir(N)+</text>
<text text-anchor="start" x="649.21" y="-1194.95" font-family="arial" font-size="14.00"> &#160;&#160;&#160;&#160;1:RD &#160;&#160;&#160;</text>
<text text-anchor="start" x="717.71" y="-1194.95" font-family="arial" font-size="14.00">DRV_A:3:DIR+</text>
<polygon fill="#000000" stroke="none" points="496.96,-1188.5 496.96,-1190.5 811.21,-1190.5 811.21,-1188.5 496.96,-1188.5"/>
<polygon fill="#ff0000" stroke="none" points="496.96,-1186.5 496.96,-1188.5 811.21,-1188.5 811.21,-1186.5 496.96,-1186.5"/>
<polygon fill="#ff0000" stroke="none" points="496.96,-1184.5 496.96,-1186.5 811.21,-1186.5 811.21,-1184.5 496.96,-1184.5"/>
<polygon fill="#ff0000" stroke="none" points="496.96,-1182.5 496.96,-1184.5 811.21,-1184.5 811.21,-1182.5 496.96,-1182.5"/>
<polygon fill="#000000" stroke="none" points="496.96,-1180.5 496.96,-1182.5 811.21,-1182.5 811.21,-1180.5 496.96,-1180.5"/>
<text text-anchor="start" x="570.21" y="-1165.2" font-family="arial" font-size="14.00"> </text>
<polygon fill="none" stroke="black" points="496.96,-1137 496.96,-1160.75 811.21,-1160.75 811.21,-1137 496.96,-1137"/>
<text text-anchor="start" x="607.21" y="-1143.45" font-family="arial" font-size="14.00">Axis N direction</text>
</g>
<!-- MC508_STEP&#45;&#45;STEPA_DIR -->
<g id="edge3" class="edge">
<title>MC508_STEP:e&#45;&#45;STEPA_DIR:w</title>
<path fill="none" stroke="#000000" stroke-width="2" d="M313.96,-677.88C555.42,-683.89 261.41,-1187.52 495.96,-1181.5"/>
<path fill="none" stroke="#ff0000" stroke-width="2" d="M313.96,-679.88C553.69,-682.88 259.69,-1186.51 495.96,-1183.5"/>
<path fill="none" stroke="#ff0000" stroke-width="2" d="M313.96,-681.87C551.96,-681.88 257.96,-1185.5 495.96,-1185.5"/>
<path fill="none" stroke="#ff0000" stroke-width="2" d="M313.96,-683.87C550.23,-680.87 256.23,-1184.49 495.96,-1187.5"/>
<path fill="none" stroke="#000000" stroke-width="2" d="M313.96,-685.87C548.51,-679.86 254.51,-1183.48 495.96,-1189.5"/>
</g>
<!-- STEPB_PUL -->
<g id="node10" class="node">
<title>STEPB_PUL</title>
<polygon fill="#ffffff" stroke="black" points="850.21,-1063.5 457.96,-1063.5 457.96,-923 850.21,-923 850.21,-1063.5"/>
<polygon fill="none" stroke="black" points="457.96,-1039.75 457.96,-1063.5 850.21,-1063.5 850.21,-1039.75 457.96,-1039.75"/>
<text text-anchor="start" x="615.09" y="-1046.2" font-family="arial" font-size="14.00">STEPB_PUL</text>
<polygon fill="none" stroke="black" points="457.96,-1016 457.96,-1039.75 850.21,-1039.75 850.21,-1016 457.96,-1016"/>
<text text-anchor="start" x="646.96" y="-1022.45" font-family="arial" font-size="14.00">1x</text>
<text text-anchor="start" x="550.71" y="-1000.7" font-family="arial" font-size="14.00"> </text>
<text text-anchor="start" x="459.96" y="-980.95" font-family="arial" font-size="14.00">MC508_STEP:11:Pulse(N+8)+</text>
<text text-anchor="start" x="649.21" y="-980.95" font-family="arial" font-size="14.00"> &#160;&#160;&#160;&#160;1:#90EE90 &#160;&#160;&#160;</text>
<text text-anchor="start" x="753.71" y="-980.95" font-family="arial" font-size="14.00">DRV_B:1:PUL+</text>
<polygon fill="#000000" stroke="none" points="457.96,-974.5 457.96,-976.5 850.21,-976.5 850.21,-974.5 457.96,-974.5"/>
<polygon fill="#90ee90" stroke="none" points="457.96,-972.5 457.96,-974.5 850.21,-974.5 850.21,-972.5 457.96,-972.5"/>
<polygon fill="#90ee90" stroke="none" points="457.96,-970.5 457.96,-972.5 850.21,-972.5 850.21,-970.5 457.96,-970.5"/>
<polygon fill="#90ee90" stroke="none" points="457.96,-968.5 457.96,-970.5 850.21,-970.5 850.21,-968.5 457.96,-968.5"/>
<polygon fill="#000000" stroke="none" points="457.96,-966.5 457.96,-968.5 850.21,-968.5 850.21,-966.5 457.96,-966.5"/>
<text text-anchor="start" x="550.71" y="-951.2" font-family="arial" font-size="14.00"> </text>
<polygon fill="none" stroke="black" points="457.96,-923 457.96,-946.75 850.21,-946.75 850.21,-923 457.96,-923"/>
<text text-anchor="start" x="608.71" y="-929.45" font-family="arial" font-size="14.00">Axis N+8 pulse</text>
</g>
<!-- MC508_STEP&#45;&#45;STEPB_PUL -->
<g id="edge9" class="edge">
<title>MC508_STEP:e&#45;&#45;STEPB_PUL:w</title>
<path fill="none" stroke="#000000" stroke-width="2" d="M313.96,-654.13C470.79,-659.97 308.23,-973.34 457.96,-967.5"/>
<path fill="none" stroke="#90ee90" stroke-width="2" d="M313.96,-656.13C469.01,-659.05 306.46,-972.42 457.96,-969.5"/>
<path fill="none" stroke="#90ee90" stroke-width="2" d="M313.96,-658.13C467.24,-658.12 304.68,-971.5 457.96,-971.5"/>
<path fill="none" stroke="#90ee90" stroke-width="2" d="M313.96,-660.12C465.46,-657.2 302.91,-970.58 457.96,-973.5"/>
<path fill="none" stroke="#000000" stroke-width="2" d="M313.96,-662.12C463.69,-656.28 301.13,-969.66 457.96,-975.5"/>
</g>
<!-- STEPB_DIR -->
<g id="node11" class="node">
<title>STEPB_DIR</title>
<polygon fill="#ffffff" stroke="black" points="822.09,-733.5 486.09,-733.5 486.09,-593 822.09,-593 822.09,-733.5"/>
<polygon fill="none" stroke="black" points="486.09,-709.75 486.09,-733.5 822.09,-733.5 822.09,-709.75 486.09,-709.75"/>
<text text-anchor="start" x="616.59" y="-716.2" font-family="arial" font-size="14.00">STEPB_DIR</text>
<polygon fill="none" stroke="black" points="486.09,-686 486.09,-709.75 822.09,-709.75 822.09,-686 486.09,-686"/>
<text text-anchor="start" x="646.96" y="-692.45" font-family="arial" font-size="14.00">1x</text>
<text text-anchor="start" x="570.96" y="-670.7" font-family="arial" font-size="14.00"> </text>
<text text-anchor="start" x="488.09" y="-650.95" font-family="arial" font-size="14.00">MC508_STEP:13:Dir(N+8)+</text>
<text text-anchor="start" x="661.59" y="-650.95" font-family="arial" font-size="14.00"> &#160;&#160;&#160;&#160;1:PK &#160;&#160;&#160;</text>
<text text-anchor="start" x="728.59" y="-650.95" font-family="arial" font-size="14.00">DRV_B:3:DIR+</text>
<polygon fill="#000000" stroke="none" points="486.09,-644.5 486.09,-646.5 822.09,-646.5 822.09,-644.5 486.09,-644.5"/>
<polygon fill="#ff66cc" stroke="none" points="486.09,-642.5 486.09,-644.5 822.09,-644.5 822.09,-642.5 486.09,-642.5"/>
<polygon fill="#ff66cc" stroke="none" points="486.09,-640.5 486.09,-642.5 822.09,-642.5 822.09,-640.5 486.09,-640.5"/>
<polygon fill="#ff66cc" stroke="none" points="486.09,-638.5 486.09,-640.5 822.09,-640.5 822.09,-638.5 486.09,-638.5"/>
<polygon fill="#000000" stroke="none" points="486.09,-636.5 486.09,-638.5 822.09,-638.5 822.09,-636.5 486.09,-636.5"/>
<text text-anchor="start" x="570.96" y="-621.2" font-family="arial" font-size="14.00"> </text>
<polygon fill="none" stroke="black" points="486.09,-593 486.09,-616.75 822.09,-616.75 822.09,-593 486.09,-593"/>
<text text-anchor="start" x="599.34" y="-599.45" font-family="arial" font-size="14.00">Axis N+8 direction</text>
</g>
<!-- MC508_STEP&#45;&#45;STEPB_DIR -->
<g id="edge11" class="edge">
<title>MC508_STEP:e&#45;&#45;STEPB_DIR:w</title>
<path fill="none" stroke="#000000" stroke-width="2" d="M313.96,-630.38C391.49,-630.63 410.38,-637.76 485.09,-637.5"/>
<path fill="none" stroke="#ff66cc" stroke-width="2" d="M313.96,-632.38C390.79,-632.5 409.67,-639.63 485.09,-639.5"/>
<path fill="none" stroke="#ff66cc" stroke-width="2" d="M313.96,-634.38C390.08,-634.37 408.96,-641.5 485.09,-641.5"/>
<path fill="none" stroke="#ff66cc" stroke-width="2" d="M313.96,-636.37C389.38,-636.25 408.26,-643.37 485.09,-643.5"/>
<path fill="none" stroke="#000000" stroke-width="2" d="M313.96,-638.37C388.67,-638.12 407.55,-645.24 485.09,-645.5"/>
</g>
<!-- WDA -->
<g id="node16" class="node">
<title>WDA</title>
<polygon fill="#ffffff" stroke="black" points="817.96,-898.5 490.21,-898.5 490.21,-758 817.96,-758 817.96,-898.5"/>
<polygon fill="none" stroke="black" points="490.21,-874.75 490.21,-898.5 817.96,-898.5 817.96,-874.75 490.21,-874.75"/>
<text text-anchor="start" x="637.96" y="-881.2" font-family="arial" font-size="14.00">WDA</text>
<polygon fill="none" stroke="black" points="490.21,-851 490.21,-874.75 817.96,-874.75 817.96,-851 490.21,-851"/>
<text text-anchor="start" x="646.96" y="-857.45" font-family="arial" font-size="14.00">1x</text>
<text text-anchor="start" x="566.46" y="-835.7" font-family="arial" font-size="14.00"> </text>
<text text-anchor="start" x="492.21" y="-815.95" font-family="arial" font-size="14.00">MC508_STEP:8:WDOG&#45;</text>
<text text-anchor="start" x="648.46" y="-815.95" font-family="arial" font-size="14.00"> &#160;&#160;&#160;&#160;1:OG &#160;&#160;&#160;</text>
<text text-anchor="start" x="719.96" y="-815.95" font-family="arial" font-size="14.00">DRV_A:5:ENA+</text>
<polygon fill="#000000" stroke="none" points="490.21,-809.5 490.21,-811.5 817.96,-811.5 817.96,-809.5 490.21,-809.5"/>
<polygon fill="#ff8000" stroke="none" points="490.21,-807.5 490.21,-809.5 817.96,-809.5 817.96,-807.5 490.21,-807.5"/>
<polygon fill="#ff8000" stroke="none" points="490.21,-805.5 490.21,-807.5 817.96,-807.5 817.96,-805.5 490.21,-805.5"/>
<polygon fill="#ff8000" stroke="none" points="490.21,-803.5 490.21,-805.5 817.96,-805.5 817.96,-803.5 490.21,-803.5"/>
<polygon fill="#000000" stroke="none" points="490.21,-801.5 490.21,-803.5 817.96,-803.5 817.96,-801.5 490.21,-801.5"/>
<text text-anchor="start" x="566.46" y="-786.2" font-family="arial" font-size="14.00"> </text>
<polygon fill="none" stroke="black" points="490.21,-758 490.21,-781.75 817.96,-781.75 817.96,-758 490.21,-758"/>
<text text-anchor="start" x="576.09" y="-764.45" font-family="arial" font-size="14.00">WDOG&#45; to Driver A ENA+</text>
</g>
<!-- MC508_STEP&#45;&#45;WDA -->
<g id="edge21" class="edge">
<title>MC508_STEP:e&#45;&#45;WDA:w</title>
<path fill="none" stroke="#000000" stroke-width="2" d="M313.96,-582.88C442.63,-588.16 368.12,-807.79 489.21,-802.5"/>
<path fill="none" stroke="#ff8000" stroke-width="2" d="M313.96,-584.88C440.73,-587.52 366.23,-807.14 489.21,-804.5"/>
<path fill="none" stroke="#ff8000" stroke-width="2" d="M313.96,-586.87C438.84,-586.88 364.33,-806.5 489.21,-806.5"/>
<path fill="none" stroke="#ff8000" stroke-width="2" d="M313.96,-588.87C436.95,-586.23 362.44,-805.86 489.21,-808.5"/>
<path fill="none" stroke="#000000" stroke-width="2" d="M313.96,-590.87C435.05,-585.59 360.54,-805.21 489.21,-810.5"/>
</g>
<!-- WDB -->
<g id="node18" class="node">
<title>WDB</title>
<polygon fill="#ffffff" stroke="black" points="817.96,-449.5 490.21,-449.5 490.21,-309 817.96,-309 817.96,-449.5"/>
<polygon fill="none" stroke="black" points="490.21,-425.75 490.21,-449.5 817.96,-449.5 817.96,-425.75 490.21,-425.75"/>
<text text-anchor="start" x="637.96" y="-432.2" font-family="arial" font-size="14.00">WDB</text>
<polygon fill="none" stroke="black" points="490.21,-402 490.21,-425.75 817.96,-425.75 817.96,-402 490.21,-402"/>
<text text-anchor="start" x="646.96" y="-408.45" font-family="arial" font-size="14.00">1x</text>
<text text-anchor="start" x="566.46" y="-386.7" font-family="arial" font-size="14.00"> </text>
<text text-anchor="start" x="492.21" y="-366.95" font-family="arial" font-size="14.00">MC508_STEP:8:WDOG&#45;</text>
<text text-anchor="start" x="648.46" y="-366.95" font-family="arial" font-size="14.00"> &#160;&#160;&#160;&#160;1:OG &#160;&#160;&#160;</text>
<text text-anchor="start" x="719.96" y="-366.95" font-family="arial" font-size="14.00">DRV_B:5:ENA+</text>
<polygon fill="#000000" stroke="none" points="490.21,-360.5 490.21,-362.5 817.96,-362.5 817.96,-360.5 490.21,-360.5"/>
<polygon fill="#ff8000" stroke="none" points="490.21,-358.5 490.21,-360.5 817.96,-360.5 817.96,-358.5 490.21,-358.5"/>
<polygon fill="#ff8000" stroke="none" points="490.21,-356.5 490.21,-358.5 817.96,-358.5 817.96,-356.5 490.21,-356.5"/>
<polygon fill="#ff8000" stroke="none" points="490.21,-354.5 490.21,-356.5 817.96,-356.5 817.96,-354.5 490.21,-354.5"/>
<polygon fill="#000000" stroke="none" points="490.21,-352.5 490.21,-354.5 817.96,-354.5 817.96,-352.5 490.21,-352.5"/>
<text text-anchor="start" x="566.46" y="-337.2" font-family="arial" font-size="14.00"> </text>
<polygon fill="none" stroke="black" points="490.21,-309 490.21,-332.75 817.96,-332.75 817.96,-309 490.21,-309"/>
<text text-anchor="start" x="575.34" y="-315.45" font-family="arial" font-size="14.00">WDOG&#45; to Driver B ENA+</text>
</g>
<!-- MC508_STEP&#45;&#45;WDB -->
<g id="edge25" class="edge">
<title>MC508_STEP:e&#45;&#45;WDB:w</title>
<path fill="none" stroke="#000000" stroke-width="2" d="M313.96,-582.88C438.48,-588.21 357.15,-358.84 489.21,-353.5"/>
<path fill="none" stroke="#ff8000" stroke-width="2" d="M313.96,-584.88C440.37,-587.54 359.03,-358.17 489.21,-355.5"/>
<path fill="none" stroke="#ff8000" stroke-width="2" d="M313.96,-586.88C442.25,-586.88 360.92,-357.5 489.21,-357.5"/>
<path fill="none" stroke="#ff8000" stroke-width="2" d="M313.96,-588.87C444.14,-586.21 362.8,-356.83 489.21,-359.5"/>
<path fill="none" stroke="#000000" stroke-width="2" d="M313.96,-590.87C446.02,-585.54 364.69,-356.16 489.21,-361.5"/>
</g>
<!-- SGND -->
<g id="node20" class="node">
<title>SGND</title>
<polygon fill="#ffffff" stroke="black" points="1283.71,-140.5 994.21,-140.5 994.21,0 1283.71,0 1283.71,-140.5"/>
<polygon fill="none" stroke="black" points="994.21,-116.75 994.21,-140.5 1283.71,-140.5 1283.71,-116.75 994.21,-116.75"/>
<text text-anchor="start" x="1119.09" y="-123.2" font-family="arial" font-size="14.00">SGND</text>
<polygon fill="none" stroke="black" points="994.21,-93 994.21,-116.75 1283.71,-116.75 1283.71,-93 994.21,-93"/>
<text text-anchor="start" x="1131.84" y="-99.45" font-family="arial" font-size="14.00">1x</text>
<text text-anchor="start" x="1057.34" y="-77.7" font-family="arial" font-size="14.00"> </text>
<text text-anchor="start" x="996.21" y="-57.95" font-family="arial" font-size="14.00">MC508_STEP:15:0V</text>
<text text-anchor="start" x="1126.21" y="-57.95" font-family="arial" font-size="14.00"> &#160;&#160;&#160;&#160;1:BK &#160;&#160;&#160;</text>
<text text-anchor="start" x="1193.21" y="-57.95" font-family="arial" font-size="14.00">EXT5V:2:GND</text>
<polygon fill="#000000" stroke="none" points="994.21,-51.5 994.21,-53.5 1283.71,-53.5 1283.71,-51.5 994.21,-51.5"/>
<polygon fill="#000000" stroke="none" points="994.21,-49.5 994.21,-51.5 1283.71,-51.5 1283.71,-49.5 994.21,-49.5"/>
<polygon fill="#000000" stroke="none" points="994.21,-47.5 994.21,-49.5 1283.71,-49.5 1283.71,-47.5 994.21,-47.5"/>
<polygon fill="#000000" stroke="none" points="994.21,-45.5 994.21,-47.5 1283.71,-47.5 1283.71,-45.5 994.21,-45.5"/>
<polygon fill="#000000" stroke="none" points="994.21,-43.5 994.21,-45.5 1283.71,-45.5 1283.71,-43.5 994.21,-43.5"/>
<text text-anchor="start" x="1057.34" y="-28.2" font-family="arial" font-size="14.00"> </text>
<polygon fill="none" stroke="black" points="994.21,0 994.21,-23.75 1283.71,-23.75 1283.71,0 994.21,0"/>
<text text-anchor="start" x="1088.34" y="-6.45" font-family="arial" font-size="14.00">Signal ground tie</text>
</g>
<!-- MC508_STEP&#45;&#45;SGND -->
<g id="edge29" class="edge">
<title>MC508_STEP:e&#45;&#45;SGND:w</title>
<path fill="none" stroke="#000000" stroke-width="2" d="M313.96,-559.13C492.43,-565.33 318.67,-303.15 455.31,-177.26 642.61,-13.48 749.91,-44.66 994.21,-44.5"/>
<path fill="none" stroke="#000000" stroke-width="2" d="M313.96,-561.13C494.1,-564.23 320.33,-302.05 456.63,-178.75 642.06,-15.4 749.35,-46.58 994.21,-46.5"/>
<path fill="none" stroke="#000000" stroke-width="2" d="M313.96,-563.13C495.76,-563.12 322,-300.95 457.96,-180.25 641.5,-17.32 748.79,-48.5 994.21,-48.5"/>
<path fill="none" stroke="#000000" stroke-width="2" d="M313.96,-565.12C497.43,-562.02 323.67,-299.84 459.29,-181.75 640.94,-19.24 748.23,-50.42 994.21,-50.5"/>
<path fill="none" stroke="#000000" stroke-width="2" d="M313.96,-567.12C499.1,-560.92 325.33,-298.74 460.62,-183.24 640.38,-21.16 747.67,-52.34 994.21,-52.5"/>
</g>
<!-- DRV_A -->
<g id="node2" class="node">
<title>DRV_A</title>
<polygon fill="#ffffff" stroke="black" points="1219.84,-1007.12 1058.09,-1007.12 1058.09,-793.38 1219.84,-793.38 1219.84,-1007.12"/>
<polygon fill="none" stroke="black" points="1058.09,-983.38 1058.09,-1007.12 1219.84,-1007.12 1219.84,-983.38 1058.09,-983.38"/>
<text text-anchor="start" x="1116.46" y="-989.83" font-family="arial" font-size="14.00">DRV_A</text>
<polygon fill="none" stroke="black" points="1058.09,-959.62 1058.09,-983.38 1170.46,-983.38 1170.46,-959.62 1058.09,-959.62"/>
<text text-anchor="start" x="1067.77" y="-966.08" font-family="arial" font-size="14.00">Screw Terminal</text>
<polygon fill="none" stroke="black" points="1170.46,-959.62 1170.46,-983.38 1219.84,-983.38 1219.84,-959.62 1170.46,-959.62"/>
<text text-anchor="start" x="1180.15" y="-966.08" font-family="arial" font-size="14.00">6&#45;pin</text>
<polygon fill="none" stroke="black" points="1058.09,-935.88 1058.09,-959.62 1102.5,-959.62 1102.5,-935.88 1058.09,-935.88"/>
<text text-anchor="start" x="1076.54" y="-942.33" font-family="arial" font-size="14.00">1</text>
<polygon fill="none" stroke="black" points="1102.5,-935.88 1102.5,-959.62 1175.42,-959.62 1175.42,-935.88 1102.5,-935.88"/>
<text text-anchor="start" x="1121.71" y="-942.33" font-family="arial" font-size="14.00">PUL+</text>
<polygon fill="none" stroke="black" points="1175.42,-935.88 1175.42,-959.62 1219.84,-959.62 1219.84,-935.88 1175.42,-935.88"/>
<text text-anchor="start" x="1193.88" y="-942.33" font-family="arial" font-size="14.00">1</text>
<polygon fill="none" stroke="black" points="1058.09,-912.12 1058.09,-935.88 1102.5,-935.88 1102.5,-912.12 1058.09,-912.12"/>
<text text-anchor="start" x="1076.54" y="-918.58" font-family="arial" font-size="14.00">2</text>
<polygon fill="none" stroke="black" points="1102.5,-912.12 1102.5,-935.88 1175.42,-935.88 1175.42,-912.12 1102.5,-912.12"/>
<text text-anchor="start" x="1123.59" y="-918.58" font-family="arial" font-size="14.00">PUL&#45;</text>
<polygon fill="none" stroke="black" points="1175.42,-912.12 1175.42,-935.88 1219.84,-935.88 1219.84,-912.12 1175.42,-912.12"/>
<text text-anchor="start" x="1193.88" y="-918.58" font-family="arial" font-size="14.00">2</text>
<polygon fill="none" stroke="black" points="1058.09,-888.38 1058.09,-912.12 1102.5,-912.12 1102.5,-888.38 1058.09,-888.38"/>
<text text-anchor="start" x="1076.54" y="-894.83" font-family="arial" font-size="14.00">3</text>
<polygon fill="none" stroke="black" points="1102.5,-888.38 1102.5,-912.12 1175.42,-912.12 1175.42,-888.38 1102.5,-888.38"/>
<text text-anchor="start" x="1123.21" y="-894.83" font-family="arial" font-size="14.00">DIR+</text>
<polygon fill="none" stroke="black" points="1175.42,-888.38 1175.42,-912.12 1219.84,-912.12 1219.84,-888.38 1175.42,-888.38"/>
<text text-anchor="start" x="1193.88" y="-894.83" font-family="arial" font-size="14.00">3</text>
<polygon fill="none" stroke="black" points="1058.09,-864.62 1058.09,-888.38 1102.5,-888.38 1102.5,-864.62 1058.09,-864.62"/>
<text text-anchor="start" x="1076.54" y="-871.08" font-family="arial" font-size="14.00">4</text>
<polygon fill="none" stroke="black" points="1102.5,-864.62 1102.5,-888.38 1175.42,-888.38 1175.42,-864.62 1102.5,-864.62"/>
<text text-anchor="start" x="1125.09" y="-871.08" font-family="arial" font-size="14.00">DIR&#45;</text>
<polygon fill="none" stroke="black" points="1175.42,-864.62 1175.42,-888.38 1219.84,-888.38 1219.84,-864.62 1175.42,-864.62"/>
<text text-anchor="start" x="1193.88" y="-871.08" font-family="arial" font-size="14.00">4</text>
<polygon fill="none" stroke="black" points="1058.09,-840.88 1058.09,-864.62 1102.5,-864.62 1102.5,-840.88 1058.09,-840.88"/>
<text text-anchor="start" x="1076.54" y="-847.33" font-family="arial" font-size="14.00">5</text>
<polygon fill="none" stroke="black" points="1102.5,-840.88 1102.5,-864.62 1175.42,-864.62 1175.42,-840.88 1102.5,-840.88"/>
<text text-anchor="start" x="1120.96" y="-847.33" font-family="arial" font-size="14.00">ENA+</text>
<polygon fill="none" stroke="black" points="1175.42,-840.88 1175.42,-864.62 1219.84,-864.62 1219.84,-840.88 1175.42,-840.88"/>
<text text-anchor="start" x="1193.88" y="-847.33" font-family="arial" font-size="14.00">5</text>
<polygon fill="none" stroke="black" points="1058.09,-817.12 1058.09,-840.88 1102.5,-840.88 1102.5,-817.12 1058.09,-817.12"/>
<text text-anchor="start" x="1076.54" y="-823.58" font-family="arial" font-size="14.00">6</text>
<polygon fill="none" stroke="black" points="1102.5,-817.12 1102.5,-840.88 1175.42,-840.88 1175.42,-817.12 1102.5,-817.12"/>
<text text-anchor="start" x="1122.84" y="-823.58" font-family="arial" font-size="14.00">ENA&#45;</text>
<polygon fill="none" stroke="black" points="1175.42,-817.12 1175.42,-840.88 1219.84,-840.88 1219.84,-817.12 1175.42,-817.12"/>
<text text-anchor="start" x="1193.88" y="-823.58" font-family="arial" font-size="14.00">6</text>
<polygon fill="none" stroke="black" points="1058.09,-793.38 1058.09,-817.12 1219.84,-817.12 1219.84,-793.38 1058.09,-793.38"/>
<text text-anchor="start" x="1062.09" y="-799.83" font-family="arial" font-size="14.00">KL&#45;4030 Driver A (Axis N)</text>
</g>
<!-- GND_A1 -->
<g id="node8" class="node">
<title>GND_A1</title>
<polygon fill="#ffffff" stroke="black" points="1719.46,-1039.5 1427.71,-1039.5 1427.71,-899 1719.46,-899 1719.46,-1039.5"/>
<polygon fill="none" stroke="black" points="1427.71,-1015.75 1427.71,-1039.5 1719.46,-1039.5 1719.46,-1015.75 1427.71,-1015.75"/>
<text text-anchor="start" x="1546.21" y="-1022.2" font-family="arial" font-size="14.00">GND_A1</text>
<polygon fill="none" stroke="black" points="1427.71,-992 1427.71,-1015.75 1719.46,-1015.75 1719.46,-992 1427.71,-992"/>
<text text-anchor="start" x="1566.46" y="-998.45" font-family="arial" font-size="14.00">1x</text>
<text text-anchor="start" x="1473.21" y="-976.7" font-family="arial" font-size="14.00"> </text>
<text text-anchor="start" x="1429.71" y="-956.95" font-family="arial" font-size="14.00">DRV_A:2:PUL&#45;</text>
<text text-anchor="start" x="1524.46" y="-956.95" font-family="arial" font-size="14.00"> &#160;&#160;&#160;&#160;1:BK &#160;&#160;&#160;</text>
<text text-anchor="start" x="1591.46" y="-956.95" font-family="arial" font-size="14.00">MC508_STEP:15:0V</text>
<polygon fill="#000000" stroke="none" points="1427.71,-950.5 1427.71,-952.5 1719.46,-952.5 1719.46,-950.5 1427.71,-950.5"/>
<polygon fill="#000000" stroke="none" points="1427.71,-948.5 1427.71,-950.5 1719.46,-950.5 1719.46,-948.5 1427.71,-948.5"/>
<polygon fill="#000000" stroke="none" points="1427.71,-946.5 1427.71,-948.5 1719.46,-948.5 1719.46,-946.5 1427.71,-946.5"/>
<polygon fill="#000000" stroke="none" points="1427.71,-944.5 1427.71,-946.5 1719.46,-946.5 1719.46,-944.5 1427.71,-944.5"/>
<polygon fill="#000000" stroke="none" points="1427.71,-942.5 1427.71,-944.5 1719.46,-944.5 1719.46,-942.5 1427.71,-942.5"/>
<text text-anchor="start" x="1473.21" y="-927.2" font-family="arial" font-size="14.00"> </text>
<polygon fill="none" stroke="black" points="1427.71,-899 1427.71,-922.75 1719.46,-922.75 1719.46,-899 1427.71,-899"/>
<text text-anchor="start" x="1509.84" y="-905.45" font-family="arial" font-size="14.00">Driver A PUL&#45; ground</text>
</g>
<!-- DRV_A&#45;&#45;GND_A1 -->
<g id="edge5" class="edge">
<title>DRV_A:e&#45;&#45;GND_A1:w</title>
<path fill="none" stroke="#000000" stroke-width="2" d="M1220.84,-920C1316.3,-921.28 1338.11,-944.78 1427.71,-943.5"/>
<path fill="none" stroke="#000000" stroke-width="2" d="M1220.84,-922C1314.84,-922.64 1336.64,-946.14 1427.71,-945.5"/>
<path fill="none" stroke="#000000" stroke-width="2" d="M1220.84,-924C1313.37,-924 1335.18,-947.5 1427.71,-947.5"/>
<path fill="none" stroke="#000000" stroke-width="2" d="M1220.84,-926C1311.91,-925.36 1333.71,-948.86 1427.71,-949.5"/>
<path fill="none" stroke="#000000" stroke-width="2" d="M1220.84,-928C1310.44,-926.72 1332.24,-950.22 1427.71,-951.5"/>
</g>
<!-- GND_A2 -->
<g id="node9" class="node">
<title>GND_A2</title>
<polygon fill="#ffffff" stroke="black" points="1717.96,-874.5 1429.21,-874.5 1429.21,-734 1717.96,-734 1717.96,-874.5"/>
<polygon fill="none" stroke="black" points="1429.21,-850.75 1429.21,-874.5 1717.96,-874.5 1717.96,-850.75 1429.21,-850.75"/>
<text text-anchor="start" x="1546.21" y="-857.2" font-family="arial" font-size="14.00">GND_A2</text>
<polygon fill="none" stroke="black" points="1429.21,-827 1429.21,-850.75 1717.96,-850.75 1717.96,-827 1429.21,-827"/>
<text text-anchor="start" x="1566.46" y="-833.45" font-family="arial" font-size="14.00">1x</text>
<text text-anchor="start" x="1473.21" y="-811.7" font-family="arial" font-size="14.00"> </text>
<text text-anchor="start" x="1431.21" y="-791.95" font-family="arial" font-size="14.00">DRV_A:4:DIR&#45;</text>
<text text-anchor="start" x="1522.96" y="-791.95" font-family="arial" font-size="14.00"> &#160;&#160;&#160;&#160;1:BK &#160;&#160;&#160;</text>
<text text-anchor="start" x="1589.96" y="-791.95" font-family="arial" font-size="14.00">MC508_STEP:15:0V</text>
<polygon fill="#000000" stroke="none" points="1429.21,-785.5 1429.21,-787.5 1717.96,-787.5 1717.96,-785.5 1429.21,-785.5"/>
<polygon fill="#000000" stroke="none" points="1429.21,-783.5 1429.21,-785.5 1717.96,-785.5 1717.96,-783.5 1429.21,-783.5"/>
<polygon fill="#000000" stroke="none" points="1429.21,-781.5 1429.21,-783.5 1717.96,-783.5 1717.96,-781.5 1429.21,-781.5"/>
<polygon fill="#000000" stroke="none" points="1429.21,-779.5 1429.21,-781.5 1717.96,-781.5 1717.96,-779.5 1429.21,-779.5"/>
<polygon fill="#000000" stroke="none" points="1429.21,-777.5 1429.21,-779.5 1717.96,-779.5 1717.96,-777.5 1429.21,-777.5"/>
<text text-anchor="start" x="1473.21" y="-762.2" font-family="arial" font-size="14.00"> </text>
<polygon fill="none" stroke="black" points="1429.21,-734 1429.21,-757.75 1717.96,-757.75 1717.96,-734 1429.21,-734"/>
<text text-anchor="start" x="1511.34" y="-740.45" font-family="arial" font-size="14.00">Driver A DIR&#45; ground</text>
</g>
<!-- DRV_A&#45;&#45;GND_A2 -->
<g id="edge7" class="edge">
<title>DRV_A:e&#45;&#45;GND_A2:w</title>
<path fill="none" stroke="#000000" stroke-width="2" d="M1220.84,-872.5C1318.03,-876.29 1323.02,-782.29 1428.21,-778.5"/>
<path fill="none" stroke="#000000" stroke-width="2" d="M1220.84,-874.5C1320.03,-876.39 1325.02,-782.39 1428.21,-780.5"/>
<path fill="none" stroke="#000000" stroke-width="2" d="M1220.84,-876.5C1322.03,-876.5 1327.02,-782.5 1428.21,-782.5"/>
<path fill="none" stroke="#000000" stroke-width="2" d="M1220.84,-878.5C1324.03,-876.61 1329.01,-782.61 1428.21,-784.5"/>
<path fill="none" stroke="#000000" stroke-width="2" d="M1220.84,-880.5C1326.02,-876.71 1331.01,-782.71 1428.21,-786.5"/>
</g>
<!-- RA -->
<g id="node17" class="node">
<title>RA</title>
<polygon fill="#ffffff" stroke="black" points="1701.46,-709.5 1445.71,-709.5 1445.71,-569 1701.46,-569 1701.46,-709.5"/>
<polygon fill="none" stroke="black" points="1445.71,-685.75 1445.71,-709.5 1701.46,-709.5 1701.46,-685.75 1445.71,-685.75"/>
<text text-anchor="start" x="1564.21" y="-692.2" font-family="arial" font-size="14.00">RA</text>
<polygon fill="none" stroke="black" points="1445.71,-662 1445.71,-685.75 1701.46,-685.75 1701.46,-662 1445.71,-662"/>
<text text-anchor="start" x="1566.46" y="-668.45" font-family="arial" font-size="14.00">1x</text>
<text text-anchor="start" x="1491.96" y="-646.7" font-family="arial" font-size="14.00"> </text>
<text text-anchor="start" x="1447.71" y="-626.95" font-family="arial" font-size="14.00">DRV_A:6:ENA&#45;</text>
<text text-anchor="start" x="1543.96" y="-626.95" font-family="arial" font-size="14.00"> &#160;&#160;&#160;&#160;1:BK &#160;&#160;&#160;</text>
<text text-anchor="start" x="1610.96" y="-626.95" font-family="arial" font-size="14.00">EXT5V:2:GND</text>
<polygon fill="#000000" stroke="none" points="1445.71,-620.5 1445.71,-622.5 1701.46,-622.5 1701.46,-620.5 1445.71,-620.5"/>
<polygon fill="#000000" stroke="none" points="1445.71,-618.5 1445.71,-620.5 1701.46,-620.5 1701.46,-618.5 1445.71,-618.5"/>
<polygon fill="#000000" stroke="none" points="1445.71,-616.5 1445.71,-618.5 1701.46,-618.5 1701.46,-616.5 1445.71,-616.5"/>
<polygon fill="#000000" stroke="none" points="1445.71,-614.5 1445.71,-616.5 1701.46,-616.5 1701.46,-614.5 1445.71,-614.5"/>
<polygon fill="#000000" stroke="none" points="1445.71,-612.5 1445.71,-614.5 1701.46,-614.5 1701.46,-612.5 1445.71,-612.5"/>
<text text-anchor="start" x="1491.96" y="-597.2" font-family="arial" font-size="14.00"> </text>
<polygon fill="none" stroke="black" points="1445.71,-569 1445.71,-592.75 1701.46,-592.75 1701.46,-569 1445.71,-569"/>
<text text-anchor="start" x="1512.46" y="-575.45" font-family="arial" font-size="14.00">Driver A ENA&#45; return</text>
</g>
<!-- DRV_A&#45;&#45;RA -->
<g id="edge23" class="edge">
<title>DRV_A:e&#45;&#45;RA:w</title>
<path fill="none" stroke="#000000" stroke-width="2" d="M1220.84,-825C1353.82,-829.92 1303.94,-618.42 1444.71,-613.5"/>
<path fill="none" stroke="#000000" stroke-width="2" d="M1220.84,-827C1355.77,-829.46 1305.88,-617.96 1444.71,-615.5"/>
<path fill="none" stroke="#000000" stroke-width="2" d="M1220.84,-829C1357.72,-829 1307.83,-617.5 1444.71,-617.5"/>
<path fill="none" stroke="#000000" stroke-width="2" d="M1220.84,-831C1359.66,-828.54 1309.78,-617.04 1444.71,-619.5"/>
<path fill="none" stroke="#000000" stroke-width="2" d="M1220.84,-833C1361.61,-828.08 1311.72,-616.58 1444.71,-621.5"/>
</g>
<!-- DRV_B -->
<g id="node3" class="node">
<title>DRV_B</title>
<polygon fill="#ffffff" stroke="black" points="1228.46,-500.12 1049.46,-500.12 1049.46,-286.38 1228.46,-286.38 1228.46,-500.12"/>
<polygon fill="none" stroke="black" points="1049.46,-476.38 1049.46,-500.12 1228.46,-500.12 1228.46,-476.38 1049.46,-476.38"/>
<text text-anchor="start" x="1116.46" y="-482.82" font-family="arial" font-size="14.00">DRV_B</text>
<polygon fill="none" stroke="black" points="1049.46,-452.62 1049.46,-476.38 1170.46,-476.38 1170.46,-452.62 1049.46,-452.62"/>
<text text-anchor="start" x="1063.46" y="-459.07" font-family="arial" font-size="14.00">Screw Terminal</text>
<polygon fill="none" stroke="black" points="1170.46,-452.62 1170.46,-476.38 1228.46,-476.38 1228.46,-452.62 1170.46,-452.62"/>
<text text-anchor="start" x="1184.46" y="-459.07" font-family="arial" font-size="14.00">6&#45;pin</text>
<polygon fill="none" stroke="black" points="1049.46,-428.88 1049.46,-452.62 1099.63,-452.62 1099.63,-428.88 1049.46,-428.88"/>
<text text-anchor="start" x="1070.79" y="-435.32" font-family="arial" font-size="14.00">1</text>
<polygon fill="none" stroke="black" points="1099.63,-428.88 1099.63,-452.62 1178.29,-452.62 1178.29,-428.88 1099.63,-428.88"/>
<text text-anchor="start" x="1121.71" y="-435.32" font-family="arial" font-size="14.00">PUL+</text>
<polygon fill="none" stroke="black" points="1178.29,-428.88 1178.29,-452.62 1228.46,-452.62 1228.46,-428.88 1178.29,-428.88"/>
<text text-anchor="start" x="1199.63" y="-435.32" font-family="arial" font-size="14.00">1</text>
<polygon fill="none" stroke="black" points="1049.46,-405.12 1049.46,-428.88 1099.63,-428.88 1099.63,-405.12 1049.46,-405.12"/>
<text text-anchor="start" x="1070.79" y="-411.57" font-family="arial" font-size="14.00">2</text>
<polygon fill="none" stroke="black" points="1099.63,-405.12 1099.63,-428.88 1178.29,-428.88 1178.29,-405.12 1099.63,-405.12"/>
<text text-anchor="start" x="1123.59" y="-411.57" font-family="arial" font-size="14.00">PUL&#45;</text>
<polygon fill="none" stroke="black" points="1178.29,-405.12 1178.29,-428.88 1228.46,-428.88 1228.46,-405.12 1178.29,-405.12"/>
<text text-anchor="start" x="1199.63" y="-411.57" font-family="arial" font-size="14.00">2</text>
<polygon fill="none" stroke="black" points="1049.46,-381.38 1049.46,-405.12 1099.63,-405.12 1099.63,-381.38 1049.46,-381.38"/>
<text text-anchor="start" x="1070.79" y="-387.82" font-family="arial" font-size="14.00">3</text>
<polygon fill="none" stroke="black" points="1099.63,-381.38 1099.63,-405.12 1178.29,-405.12 1178.29,-381.38 1099.63,-381.38"/>
<text text-anchor="start" x="1123.21" y="-387.82" font-family="arial" font-size="14.00">DIR+</text>
<polygon fill="none" stroke="black" points="1178.29,-381.38 1178.29,-405.12 1228.46,-405.12 1228.46,-381.38 1178.29,-381.38"/>
<text text-anchor="start" x="1199.63" y="-387.82" font-family="arial" font-size="14.00">3</text>
<polygon fill="none" stroke="black" points="1049.46,-357.62 1049.46,-381.38 1099.63,-381.38 1099.63,-357.62 1049.46,-357.62"/>
<text text-anchor="start" x="1070.79" y="-364.07" font-family="arial" font-size="14.00">4</text>
<polygon fill="none" stroke="black" points="1099.63,-357.62 1099.63,-381.38 1178.29,-381.38 1178.29,-357.62 1099.63,-357.62"/>
<text text-anchor="start" x="1125.09" y="-364.07" font-family="arial" font-size="14.00">DIR&#45;</text>
<polygon fill="none" stroke="black" points="1178.29,-357.62 1178.29,-381.38 1228.46,-381.38 1228.46,-357.62 1178.29,-357.62"/>
<text text-anchor="start" x="1199.63" y="-364.07" font-family="arial" font-size="14.00">4</text>
<polygon fill="none" stroke="black" points="1049.46,-333.88 1049.46,-357.62 1099.63,-357.62 1099.63,-333.88 1049.46,-333.88"/>
<text text-anchor="start" x="1070.79" y="-340.32" font-family="arial" font-size="14.00">5</text>
<polygon fill="none" stroke="black" points="1099.63,-333.88 1099.63,-357.62 1178.29,-357.62 1178.29,-333.88 1099.63,-333.88"/>
<text text-anchor="start" x="1120.96" y="-340.32" font-family="arial" font-size="14.00">ENA+</text>
<polygon fill="none" stroke="black" points="1178.29,-333.88 1178.29,-357.62 1228.46,-357.62 1228.46,-333.88 1178.29,-333.88"/>
<text text-anchor="start" x="1199.63" y="-340.32" font-family="arial" font-size="14.00">5</text>
<polygon fill="none" stroke="black" points="1049.46,-310.12 1049.46,-333.88 1099.63,-333.88 1099.63,-310.12 1049.46,-310.12"/>
<text text-anchor="start" x="1070.79" y="-316.57" font-family="arial" font-size="14.00">6</text>
<polygon fill="none" stroke="black" points="1099.63,-310.12 1099.63,-333.88 1178.29,-333.88 1178.29,-310.12 1099.63,-310.12"/>
<text text-anchor="start" x="1122.84" y="-316.57" font-family="arial" font-size="14.00">ENA&#45;</text>
<polygon fill="none" stroke="black" points="1178.29,-310.12 1178.29,-333.88 1228.46,-333.88 1228.46,-310.12 1178.29,-310.12"/>
<text text-anchor="start" x="1199.63" y="-316.57" font-family="arial" font-size="14.00">6</text>
<polygon fill="none" stroke="black" points="1049.46,-286.38 1049.46,-310.12 1228.46,-310.12 1228.46,-286.38 1049.46,-286.38"/>
<text text-anchor="start" x="1053.46" y="-292.82" font-family="arial" font-size="14.00">KL&#45;4030 Driver B (Axis N+8)</text>
</g>
<!-- GND_B1 -->
<g id="node12" class="node">
<title>GND_B1</title>
<polygon fill="#ffffff" stroke="black" points="1719.46,-544.5 1427.71,-544.5 1427.71,-404 1719.46,-404 1719.46,-544.5"/>
<polygon fill="none" stroke="black" points="1427.71,-520.75 1427.71,-544.5 1719.46,-544.5 1719.46,-520.75 1427.71,-520.75"/>
<text text-anchor="start" x="1546.21" y="-527.2" font-family="arial" font-size="14.00">GND_B1</text>
<polygon fill="none" stroke="black" points="1427.71,-497 1427.71,-520.75 1719.46,-520.75 1719.46,-497 1427.71,-497"/>
<text text-anchor="start" x="1566.46" y="-503.45" font-family="arial" font-size="14.00">1x</text>
<text text-anchor="start" x="1473.21" y="-481.7" font-family="arial" font-size="14.00"> </text>
<text text-anchor="start" x="1429.71" y="-461.95" font-family="arial" font-size="14.00">DRV_B:2:PUL&#45;</text>
<text text-anchor="start" x="1524.46" y="-461.95" font-family="arial" font-size="14.00"> &#160;&#160;&#160;&#160;1:BK &#160;&#160;&#160;</text>
<text text-anchor="start" x="1591.46" y="-461.95" font-family="arial" font-size="14.00">MC508_STEP:15:0V</text>
<polygon fill="#000000" stroke="none" points="1427.71,-455.5 1427.71,-457.5 1719.46,-457.5 1719.46,-455.5 1427.71,-455.5"/>
<polygon fill="#000000" stroke="none" points="1427.71,-453.5 1427.71,-455.5 1719.46,-455.5 1719.46,-453.5 1427.71,-453.5"/>
<polygon fill="#000000" stroke="none" points="1427.71,-451.5 1427.71,-453.5 1719.46,-453.5 1719.46,-451.5 1427.71,-451.5"/>
<polygon fill="#000000" stroke="none" points="1427.71,-449.5 1427.71,-451.5 1719.46,-451.5 1719.46,-449.5 1427.71,-449.5"/>
<polygon fill="#000000" stroke="none" points="1427.71,-447.5 1427.71,-449.5 1719.46,-449.5 1719.46,-447.5 1427.71,-447.5"/>
<text text-anchor="start" x="1473.21" y="-432.2" font-family="arial" font-size="14.00"> </text>
<polygon fill="none" stroke="black" points="1427.71,-404 1427.71,-427.75 1719.46,-427.75 1719.46,-404 1427.71,-404"/>
<text text-anchor="start" x="1509.09" y="-410.45" font-family="arial" font-size="14.00">Driver B PUL&#45; ground</text>
</g>
<!-- DRV_B&#45;&#45;GND_B1 -->
<g id="edge13" class="edge">
<title>DRV_B:e&#45;&#45;GND_B1:w</title>
<path fill="none" stroke="#000000" stroke-width="2" d="M1229.46,-413C1322.49,-415.1 1341.72,-450.6 1427.71,-448.5"/>
<path fill="none" stroke="#000000" stroke-width="2" d="M1229.46,-415C1320.73,-416.05 1339.96,-451.55 1427.71,-450.5"/>
<path fill="none" stroke="#000000" stroke-width="2" d="M1229.46,-417C1318.97,-417 1338.2,-452.5 1427.71,-452.5"/>
<path fill="none" stroke="#000000" stroke-width="2" d="M1229.46,-419C1317.21,-417.95 1336.44,-453.45 1427.71,-454.5"/>
<path fill="none" stroke="#000000" stroke-width="2" d="M1229.46,-421C1315.46,-418.9 1334.68,-454.4 1427.71,-456.5"/>
</g>
<!-- GND_B2 -->
<g id="node13" class="node">
<title>GND_B2</title>
<polygon fill="#ffffff" stroke="black" points="1717.96,-379.5 1429.21,-379.5 1429.21,-239 1717.96,-239 1717.96,-379.5"/>
<polygon fill="none" stroke="black" points="1429.21,-355.75 1429.21,-379.5 1717.96,-379.5 1717.96,-355.75 1429.21,-355.75"/>
<text text-anchor="start" x="1546.21" y="-362.2" font-family="arial" font-size="14.00">GND_B2</text>
<polygon fill="none" stroke="black" points="1429.21,-332 1429.21,-355.75 1717.96,-355.75 1717.96,-332 1429.21,-332"/>
<text text-anchor="start" x="1566.46" y="-338.45" font-family="arial" font-size="14.00">1x</text>
<text text-anchor="start" x="1473.21" y="-316.7" font-family="arial" font-size="14.00"> </text>
<text text-anchor="start" x="1431.21" y="-296.95" font-family="arial" font-size="14.00">DRV_B:4:DIR&#45;</text>
<text text-anchor="start" x="1522.96" y="-296.95" font-family="arial" font-size="14.00"> &#160;&#160;&#160;&#160;1:BK &#160;&#160;&#160;</text>
<text text-anchor="start" x="1589.96" y="-296.95" font-family="arial" font-size="14.00">MC508_STEP:15:0V</text>
<polygon fill="#000000" stroke="none" points="1429.21,-290.5 1429.21,-292.5 1717.96,-292.5 1717.96,-290.5 1429.21,-290.5"/>
<polygon fill="#000000" stroke="none" points="1429.21,-288.5 1429.21,-290.5 1717.96,-290.5 1717.96,-288.5 1429.21,-288.5"/>
<polygon fill="#000000" stroke="none" points="1429.21,-286.5 1429.21,-288.5 1717.96,-288.5 1717.96,-286.5 1429.21,-286.5"/>
<polygon fill="#000000" stroke="none" points="1429.21,-284.5 1429.21,-286.5 1717.96,-286.5 1717.96,-284.5 1429.21,-284.5"/>
<polygon fill="#000000" stroke="none" points="1429.21,-282.5 1429.21,-284.5 1717.96,-284.5 1717.96,-282.5 1429.21,-282.5"/>
<text text-anchor="start" x="1473.21" y="-267.2" font-family="arial" font-size="14.00"> </text>
<polygon fill="none" stroke="black" points="1429.21,-239 1429.21,-262.75 1717.96,-262.75 1717.96,-239 1429.21,-239"/>
<text text-anchor="start" x="1510.59" y="-245.45" font-family="arial" font-size="14.00">Driver B DIR&#45; ground</text>
</g>
<!-- DRV_B&#45;&#45;GND_B2 -->
<g id="edge15" class="edge">
<title>DRV_B:e&#45;&#45;GND_B2:w</title>
<path fill="none" stroke="#000000" stroke-width="2" d="M1229.46,-365.5C1321.03,-369.13 1328.67,-287.13 1428.21,-283.5"/>
<path fill="none" stroke="#000000" stroke-width="2" d="M1229.46,-367.5C1323.03,-369.31 1330.66,-287.31 1428.21,-285.5"/>
<path fill="none" stroke="#000000" stroke-width="2" d="M1229.46,-369.5C1325.02,-369.5 1332.65,-287.5 1428.21,-287.5"/>
<path fill="none" stroke="#000000" stroke-width="2" d="M1229.46,-371.5C1327.01,-369.69 1334.65,-287.69 1428.21,-289.5"/>
<path fill="none" stroke="#000000" stroke-width="2" d="M1229.46,-373.5C1329,-369.87 1336.64,-287.87 1428.21,-291.5"/>
</g>
<!-- RB -->
<g id="node19" class="node">
<title>RB</title>
<polygon fill="#ffffff" stroke="black" points="1701.46,-214.5 1445.71,-214.5 1445.71,-74 1701.46,-74 1701.46,-214.5"/>
<polygon fill="none" stroke="black" points="1445.71,-190.75 1445.71,-214.5 1701.46,-214.5 1701.46,-190.75 1445.71,-190.75"/>
<text text-anchor="start" x="1564.21" y="-197.2" font-family="arial" font-size="14.00">RB</text>
<polygon fill="none" stroke="black" points="1445.71,-167 1445.71,-190.75 1701.46,-190.75 1701.46,-167 1445.71,-167"/>
<text text-anchor="start" x="1566.46" y="-173.45" font-family="arial" font-size="14.00">1x</text>
<text text-anchor="start" x="1491.96" y="-151.7" font-family="arial" font-size="14.00"> </text>
<text text-anchor="start" x="1447.71" y="-131.95" font-family="arial" font-size="14.00">DRV_B:6:ENA&#45;</text>
<text text-anchor="start" x="1543.96" y="-131.95" font-family="arial" font-size="14.00"> &#160;&#160;&#160;&#160;1:BK &#160;&#160;&#160;</text>
<text text-anchor="start" x="1610.96" y="-131.95" font-family="arial" font-size="14.00">EXT5V:2:GND</text>
<polygon fill="#000000" stroke="none" points="1445.71,-125.5 1445.71,-127.5 1701.46,-127.5 1701.46,-125.5 1445.71,-125.5"/>
<polygon fill="#000000" stroke="none" points="1445.71,-123.5 1445.71,-125.5 1701.46,-125.5 1701.46,-123.5 1445.71,-123.5"/>
<polygon fill="#000000" stroke="none" points="1445.71,-121.5 1445.71,-123.5 1701.46,-123.5 1701.46,-121.5 1445.71,-121.5"/>
<polygon fill="#000000" stroke="none" points="1445.71,-119.5 1445.71,-121.5 1701.46,-121.5 1701.46,-119.5 1445.71,-119.5"/>
<polygon fill="#000000" stroke="none" points="1445.71,-117.5 1445.71,-119.5 1701.46,-119.5 1701.46,-117.5 1445.71,-117.5"/>
<text text-anchor="start" x="1491.96" y="-102.2" font-family="arial" font-size="14.00"> </text>
<polygon fill="none" stroke="black" points="1445.71,-74 1445.71,-97.75 1701.46,-97.75 1701.46,-74 1445.71,-74"/>
<text text-anchor="start" x="1511.71" y="-80.45" font-family="arial" font-size="14.00">Driver B ENA&#45; return</text>
</g>
<!-- DRV_B&#45;&#45;RB -->
<g id="edge27" class="edge">
<title>DRV_B:e&#45;&#45;RB:w</title>
<path fill="none" stroke="#000000" stroke-width="2" d="M1229.46,-318C1356,-322.89 1310.37,-123.39 1444.71,-118.5"/>
<path fill="none" stroke="#000000" stroke-width="2" d="M1229.46,-320C1357.95,-322.45 1312.32,-122.95 1444.71,-120.5"/>
<path fill="none" stroke="#000000" stroke-width="2" d="M1229.46,-322C1359.9,-322 1314.27,-122.5 1444.71,-122.5"/>
<path fill="none" stroke="#000000" stroke-width="2" d="M1229.46,-324C1361.85,-321.55 1316.22,-122.05 1444.71,-124.5"/>
<path fill="none" stroke="#000000" stroke-width="2" d="M1229.46,-326C1363.8,-321.11 1318.17,-121.61 1444.71,-126.5"/>
</g>
<!-- EXT5V -->
<g id="node4" class="node">
<title>EXT5V</title>
<polygon fill="#ffffff" stroke="black" points="2033.46,-411.62 1863.46,-411.62 1863.46,-292.88 2033.46,-292.88 2033.46,-411.62"/>
<polygon fill="none" stroke="black" points="1863.46,-387.88 1863.46,-411.62 2033.46,-411.62 2033.46,-387.88 1863.46,-387.88"/>
<text text-anchor="start" x="1927.09" y="-394.32" font-family="arial" font-size="14.00">EXT5V</text>
<polygon fill="none" stroke="black" points="1863.46,-364.12 1863.46,-387.88 1975.09,-387.88 1975.09,-364.12 1863.46,-364.12"/>
<text text-anchor="start" x="1877.65" y="-370.57" font-family="arial" font-size="14.00">Power Supply</text>
<polygon fill="none" stroke="black" points="1975.09,-364.12 1975.09,-387.88 2033.46,-387.88 2033.46,-364.12 1975.09,-364.12"/>
<text text-anchor="start" x="1989.27" y="-370.57" font-family="arial" font-size="14.00">2&#45;pin</text>
<polygon fill="none" stroke="black" points="1863.46,-340.38 1863.46,-364.12 1912.38,-364.12 1912.38,-340.38 1863.46,-340.38"/>
<text text-anchor="start" x="1884.17" y="-346.82" font-family="arial" font-size="14.00">1</text>
<polygon fill="none" stroke="black" points="1912.38,-340.38 1912.38,-364.12 1984.54,-364.12 1984.54,-340.38 1912.38,-340.38"/>
<text text-anchor="start" x="1936.09" y="-346.82" font-family="arial" font-size="14.00">+5V</text>
<polygon fill="none" stroke="black" points="1984.54,-340.38 1984.54,-364.12 2033.46,-364.12 2033.46,-340.38 1984.54,-340.38"/>
<text text-anchor="start" x="2005.25" y="-346.82" font-family="arial" font-size="14.00">1</text>
<polygon fill="none" stroke="black" points="1863.46,-316.62 1863.46,-340.38 1912.38,-340.38 1912.38,-316.62 1863.46,-316.62"/>
<text text-anchor="start" x="1884.17" y="-323.07" font-family="arial" font-size="14.00">2</text>
<polygon fill="none" stroke="black" points="1912.38,-316.62 1912.38,-340.38 1984.54,-340.38 1984.54,-316.62 1912.38,-316.62"/>
<text text-anchor="start" x="1933.09" y="-323.07" font-family="arial" font-size="14.00">GND</text>
<polygon fill="none" stroke="black" points="1984.54,-316.62 1984.54,-340.38 2033.46,-340.38 2033.46,-316.62 1984.54,-316.62"/>
<text text-anchor="start" x="2005.25" y="-323.07" font-family="arial" font-size="14.00">2</text>
<polygon fill="none" stroke="black" points="1863.46,-292.88 1863.46,-316.62 2033.46,-316.62 2033.46,-292.88 1863.46,-292.88"/>
<text text-anchor="start" x="1867.46" y="-299.32" font-family="arial" font-size="14.00">External 5V (enable circuit)</text>
</g>
<!-- PWR -->
<g id="node14" class="node">
<title>PWR</title>
<polygon fill="#ffffff" stroke="black" points="2430.96,-650.62 2177.46,-650.62 2177.46,-533.88 2430.96,-533.88 2430.96,-650.62"/>
<polygon fill="none" stroke="black" points="2177.46,-626.88 2177.46,-650.62 2430.96,-650.62 2430.96,-626.88 2177.46,-626.88"/>
<text text-anchor="start" x="2288.09" y="-633.33" font-family="arial" font-size="14.00">PWR</text>
<polygon fill="none" stroke="black" points="2177.46,-603.12 2177.46,-626.88 2430.96,-626.88 2430.96,-603.12 2177.46,-603.12"/>
<text text-anchor="start" x="2297.09" y="-609.58" font-family="arial" font-size="14.00">1x</text>
<text text-anchor="start" x="2218.84" y="-587.83" font-family="arial" font-size="14.00"> </text>
<text text-anchor="start" x="2179.46" y="-568.08" font-family="arial" font-size="14.00">EXT5V:1:+5V</text>
<text text-anchor="start" x="2265.96" y="-568.08" font-family="arial" font-size="14.00"> &#160;&#160;&#160;&#160;1:RD &#160;&#160;&#160;</text>
<text text-anchor="start" x="2334.46" y="-568.08" font-family="arial" font-size="14.00">ESTOP:1:COM</text>
<polygon fill="#000000" stroke="none" points="2177.46,-561.62 2177.46,-563.62 2430.96,-563.62 2430.96,-561.62 2177.46,-561.62"/>
<polygon fill="#ff0000" stroke="none" points="2177.46,-559.62 2177.46,-561.62 2430.96,-561.62 2430.96,-559.62 2177.46,-559.62"/>
<polygon fill="#ff0000" stroke="none" points="2177.46,-557.62 2177.46,-559.62 2430.96,-559.62 2430.96,-557.62 2177.46,-557.62"/>
<polygon fill="#ff0000" stroke="none" points="2177.46,-555.62 2177.46,-557.62 2430.96,-557.62 2430.96,-555.62 2177.46,-555.62"/>
<polygon fill="#000000" stroke="none" points="2177.46,-553.62 2177.46,-555.62 2430.96,-555.62 2430.96,-553.62 2177.46,-553.62"/>
<text text-anchor="start" x="2218.84" y="-538.33" font-family="arial" font-size="14.00"> </text>
</g>
<!-- EXT5V&#45;&#45;PWR -->
<g id="edge17" class="edge">
<title>EXT5V:e&#45;&#45;PWR:w</title>
<path fill="none" stroke="#000000" stroke-width="2" d="M2033.46,-348.25C2149.04,-353.69 2069.35,-560.07 2177.46,-554.63"/>
<path fill="none" stroke="#ff0000" stroke-width="2" d="M2033.46,-350.25C2147.17,-352.97 2067.48,-559.35 2177.46,-556.63"/>
<path fill="none" stroke="#ff0000" stroke-width="2" d="M2033.46,-352.25C2145.3,-352.25 2065.62,-558.63 2177.46,-558.63"/>
<path fill="none" stroke="#ff0000" stroke-width="2" d="M2033.46,-354.25C2143.44,-351.53 2063.75,-557.9 2177.46,-560.62"/>
<path fill="none" stroke="#000000" stroke-width="2" d="M2033.46,-356.25C2141.57,-350.81 2061.89,-557.18 2177.46,-562.62"/>
</g>
<!-- ESTOP -->
<g id="node5" class="node">
<title>ESTOP</title>
<polygon fill="#ffffff" stroke="black" points="2747.96,-841.62 2574.96,-841.62 2574.96,-722.88 2747.96,-722.88 2747.96,-841.62"/>
<polygon fill="none" stroke="black" points="2574.96,-817.88 2574.96,-841.62 2747.96,-841.62 2747.96,-817.88 2574.96,-817.88"/>
<text text-anchor="start" x="2638.21" y="-824.33" font-family="arial" font-size="14.00">ESTOP</text>
<polygon fill="none" stroke="black" points="2574.96,-794.12 2574.96,-817.88 2674.46,-817.88 2674.46,-794.12 2574.96,-794.12"/>
<text text-anchor="start" x="2578.96" y="-800.58" font-family="arial" font-size="14.00">NC Pushbutton</text>
<polygon fill="none" stroke="black" points="2674.46,-794.12 2674.46,-817.88 2712.46,-817.88 2712.46,-794.12 2674.46,-794.12"/>
<text text-anchor="start" x="2678.46" y="-800.58" font-family="arial" font-size="14.00">2&#45;pin</text>
<polygon fill="none" stroke="black" points="2712.46,-794.12 2712.46,-817.88 2739.96,-817.88 2739.96,-794.12 2712.46,-794.12"/>
<text text-anchor="start" x="2716.46" y="-800.58" font-family="arial" font-size="14.00">RD</text>
<polygon fill="#ff0000" stroke="none" points="2739.96,-794.12 2739.96,-817.88 2747.96,-817.88 2747.96,-794.12 2739.96,-794.12"/>
<polygon fill="none" stroke="black" points="2739.96,-794.12 2739.96,-817.88 2747.96,-817.88 2747.96,-794.12 2739.96,-794.12"/>
<polygon fill="none" stroke="black" points="2574.96,-770.38 2574.96,-794.12 2624.13,-794.12 2624.13,-770.38 2574.96,-770.38"/>
<text text-anchor="start" x="2595.79" y="-776.83" font-family="arial" font-size="14.00">1</text>
<polygon fill="none" stroke="black" points="2624.13,-770.38 2624.13,-794.12 2698.79,-794.12 2698.79,-770.38 2624.13,-770.38"/>
<text text-anchor="start" x="2644.96" y="-776.83" font-family="arial" font-size="14.00">COM</text>
<polygon fill="none" stroke="black" points="2698.79,-770.38 2698.79,-794.12 2747.96,-794.12 2747.96,-770.38 2698.79,-770.38"/>
<text text-anchor="start" x="2719.63" y="-776.83" font-family="arial" font-size="14.00">1</text>
<polygon fill="none" stroke="black" points="2574.96,-746.62 2574.96,-770.38 2624.13,-770.38 2624.13,-746.62 2574.96,-746.62"/>
<text text-anchor="start" x="2595.79" y="-753.08" font-family="arial" font-size="14.00">2</text>
<polygon fill="none" stroke="black" points="2624.13,-746.62 2624.13,-770.38 2698.79,-770.38 2698.79,-746.62 2624.13,-746.62"/>
<text text-anchor="start" x="2651.71" y="-753.08" font-family="arial" font-size="14.00">NC</text>
<polygon fill="none" stroke="black" points="2698.79,-746.62 2698.79,-770.38 2747.96,-770.38 2747.96,-746.62 2698.79,-746.62"/>
<text text-anchor="start" x="2719.63" y="-753.08" font-family="arial" font-size="14.00">2</text>
<polygon fill="none" stroke="black" points="2574.96,-722.88 2574.96,-746.62 2747.96,-746.62 2747.96,-722.88 2574.96,-722.88"/>
<text text-anchor="start" x="2611.21" y="-729.33" font-family="arial" font-size="14.00">Emergency Stop</text>
</g>
<!-- ES -->
<g id="node15" class="node">
<title>ES</title>
<polygon fill="#ffffff" stroke="black" points="3205.46,-1020.62 2891.96,-1020.62 2891.96,-903.88 3205.46,-903.88 3205.46,-1020.62"/>
<polygon fill="none" stroke="black" points="2891.96,-996.88 2891.96,-1020.62 3205.46,-1020.62 3205.46,-996.88 2891.96,-996.88"/>
<text text-anchor="start" x="3039.71" y="-1003.33" font-family="arial" font-size="14.00">ES</text>
<polygon fill="none" stroke="black" points="2891.96,-973.12 2891.96,-996.88 3205.46,-996.88 3205.46,-973.12 2891.96,-973.12"/>
<text text-anchor="start" x="3041.59" y="-979.58" font-family="arial" font-size="14.00">1x</text>
<text text-anchor="start" x="2932.59" y="-957.83" font-family="arial" font-size="14.00"> </text>
<text text-anchor="start" x="2893.96" y="-938.08" font-family="arial" font-size="14.00">ESTOP:2:NC</text>
<text text-anchor="start" x="2978.96" y="-938.08" font-family="arial" font-size="14.00"> &#160;&#160;&#160;&#160;1:RD &#160;&#160;&#160;</text>
<text text-anchor="start" x="3047.46" y="-938.08" font-family="arial" font-size="14.00">MC508_STEP:7:WDOG+</text>
<polygon fill="#000000" stroke="none" points="2891.96,-931.62 2891.96,-933.62 3205.46,-933.62 3205.46,-931.62 2891.96,-931.62"/>
<polygon fill="#ff0000" stroke="none" points="2891.96,-929.62 2891.96,-931.62 3205.46,-931.62 3205.46,-929.62 2891.96,-929.62"/>
<polygon fill="#ff0000" stroke="none" points="2891.96,-927.62 2891.96,-929.62 3205.46,-929.62 3205.46,-927.62 2891.96,-927.62"/>
<polygon fill="#ff0000" stroke="none" points="2891.96,-925.62 2891.96,-927.62 3205.46,-927.62 3205.46,-925.62 2891.96,-925.62"/>
<polygon fill="#000000" stroke="none" points="2891.96,-923.62 2891.96,-925.62 3205.46,-925.62 3205.46,-923.62 2891.96,-923.62"/>
<text text-anchor="start" x="2932.59" y="-908.33" font-family="arial" font-size="14.00"> </text>
</g>
<!-- ESTOP&#45;&#45;ES -->
<g id="edge19" class="edge">
<title>ESTOP:e&#45;&#45;ES:w</title>
<path fill="none" stroke="#000000" stroke-width="2" d="M2747.96,-754.5C2850.83,-759.71 2796.71,-929.84 2891.96,-924.63"/>
<path fill="none" stroke="#ff0000" stroke-width="2" d="M2747.96,-756.5C2848.93,-759.11 2794.81,-929.23 2891.96,-926.63"/>
<path fill="none" stroke="#ff0000" stroke-width="2" d="M2747.96,-758.5C2847.02,-758.5 2792.9,-928.62 2891.96,-928.62"/>
<path fill="none" stroke="#ff0000" stroke-width="2" d="M2747.96,-760.5C2845.12,-757.89 2790.99,-928.02 2891.96,-930.62"/>
<path fill="none" stroke="#000000" stroke-width="2" d="M2747.96,-762.5C2843.21,-757.29 2789.09,-927.41 2891.96,-932.62"/>
</g>
<!-- STEPA_PUL&#45;&#45;DRV_A -->
<g id="edge2" class="edge">
<title>STEPA_PUL:e&#45;&#45;DRV_A:w</title>
<path fill="none" stroke="#000000" stroke-width="2" d="M821.21,-1346.5C1024.99,-1352.12 845.99,-949.37 1057.09,-943.75"/>
<path fill="none" stroke="#000000" stroke-width="2" d="M821.21,-1348.5C1026.82,-1351.31 847.82,-948.56 1057.09,-945.75"/>
<path fill="none" stroke="#000000" stroke-width="2" d="M821.21,-1350.5C1028.65,-1350.5 849.65,-947.75 1057.09,-947.75"/>
<path fill="none" stroke="#000000" stroke-width="2" d="M821.21,-1352.5C1030.48,-1349.69 851.47,-946.94 1057.09,-949.75"/>
<path fill="none" stroke="#000000" stroke-width="2" d="M821.21,-1354.5C1032.31,-1348.88 853.3,-946.13 1057.09,-951.75"/>
</g>
<!-- STEPA_DIR&#45;&#45;DRV_A -->
<g id="edge4" class="edge">
<title>STEPA_DIR:e&#45;&#45;DRV_A:w</title>
<path fill="none" stroke="#000000" stroke-width="2" d="M812.21,-1181.5C975.48,-1186.69 886.18,-901.44 1057.09,-896.25"/>
<path fill="none" stroke="#ff0000" stroke-width="2" d="M812.21,-1183.5C977.39,-1186.1 888.09,-900.85 1057.09,-898.25"/>
<path fill="none" stroke="#ff0000" stroke-width="2" d="M812.21,-1185.5C979.3,-1185.5 890,-900.25 1057.09,-900.25"/>
<path fill="none" stroke="#ff0000" stroke-width="2" d="M812.21,-1187.5C981.2,-1184.9 891.91,-899.65 1057.09,-902.25"/>
<path fill="none" stroke="#000000" stroke-width="2" d="M812.21,-1189.5C983.11,-1184.31 893.82,-899.06 1057.09,-904.25"/>
</g>
<!-- GND_A1&#45;&#45;MC508_STEP -->
<g id="edge6" class="edge">
<title>GND_A1:e&#45;&#45;MC508_STEP:w</title>
<path fill="none" stroke="#000000" stroke-width="2" d="M1720.46,-943.5C1738.12,-948.39 1730.6,-915.33 1716.6,-901.79 1697.16,-879.74 1458.68,-899.94 1426.39,-889.03 1349.19,-859.34 1347.87,-821.22 1281.69,-784.7 1097.99,-677.29 1052.4,-640.14 849.16,-585.11 792.1,-569.49 373.43,-534.48 313.76,-531.5 201.79,-524.59 143.43,-453.91 71,-530.37 60.76,-539.41 55.28,-564 67.21,-559.13"/>
<path fill="none" stroke="#000000" stroke-width="2" d="M1720.46,-945.5C1740.07,-947.94 1732.55,-914.89 1718.03,-900.4 1696.99,-877.74 1458.51,-897.95 1427.05,-887.14 1351.19,-859.27 1349.87,-821.15 1282.7,-782.98 1099.25,-675.74 1053.66,-638.59 849.68,-583.18 792.27,-567.5 373.6,-532.48 313.86,-529.5 203.33,-523.32 144.98,-452.63 69.61,-528.93 58.81,-538.98 53.32,-563.56 67.21,-561.13"/>
<path fill="none" stroke="#000000" stroke-width="2" d="M1720.46,-947.5C1742.02,-947.5 1734.5,-914.45 1719.46,-899 1696.82,-875.75 1458.35,-895.96 1427.71,-885.25 1353.19,-859.2 1351.87,-821.08 1283.71,-781.25 1100.52,-674.19 1054.93,-637.04 850.21,-581.25 792.44,-565.5 373.77,-530.49 313.96,-527.5 204.87,-522.05 146.52,-451.36 68.21,-527.5 56.85,-538.54 51.37,-563.12 67.21,-563.13"/>
<path fill="none" stroke="#000000" stroke-width="2" d="M1720.46,-949.5C1743.97,-947.06 1736.45,-914 1720.89,-897.6 1696.65,-873.76 1458.18,-893.97 1428.37,-883.36 1355.19,-859.13 1353.87,-821.01 1284.72,-779.52 1101.78,-672.64 1056.19,-635.49 850.74,-579.32 792.6,-563.51 373.93,-528.5 314.06,-525.5 206.42,-520.77 148.06,-450.09 66.82,-526.07 54.9,-538.11 49.42,-562.69 67.21,-565.12"/>
<path fill="none" stroke="#000000" stroke-width="2" d="M1720.46,-951.5C1745.92,-946.61 1738.4,-913.56 1722.33,-896.21 1696.48,-871.77 1458.01,-891.97 1429.03,-881.47 1357.18,-859.06 1355.87,-820.95 1285.73,-777.8 1103.04,-671.09 1057.45,-633.94 851.26,-577.39 792.77,-561.52 374.1,-526.5 314.16,-523.5 207.96,-519.5 149.6,-448.81 65.42,-524.63 52.95,-537.67 47.47,-562.25 67.21,-567.12"/>
</g>
<!-- GND_A2&#45;&#45;MC508_STEP -->
<g id="edge8" class="edge">
<title>GND_A2:e&#45;&#45;MC508_STEP:w</title>
<path fill="none" stroke="#000000" stroke-width="2" d="M1718.96,-778.5C1736.62,-783.38 1729.13,-750.31 1715.1,-736.8 1695.8,-714.89 1457.45,-738.68 1426.04,-724.89 1339.04,-681.05 1364.27,-607.03 1281.99,-571.86 1089.27,-479.67 530.02,-533.44 313.92,-531.5 201.58,-528.96 143.36,-453.81 71,-530.37 60.76,-539.41 55.28,-564 67.21,-559.13"/>
<path fill="none" stroke="#000000" stroke-width="2" d="M1718.96,-780.5C1738.57,-782.94 1731.08,-749.86 1716.53,-735.4 1695.6,-712.9 1457.25,-736.69 1426.88,-723.07 1340.93,-681.69 1366.16,-607.68 1282.85,-570.06 1089.08,-477.68 529.83,-531.45 313.94,-529.5 203.16,-527.73 144.94,-452.58 69.61,-528.93 58.81,-538.98 53.32,-563.56 67.21,-561.13"/>
<path fill="none" stroke="#000000" stroke-width="2" d="M1718.96,-782.5C1740.52,-782.5 1733.03,-749.42 1717.96,-734 1695.4,-710.91 1457.06,-734.7 1427.71,-721.25 1342.82,-682.34 1368.06,-608.32 1283.71,-568.25 1088.89,-475.69 529.64,-529.46 313.96,-527.5 204.74,-526.51 146.52,-451.36 68.21,-527.5 56.85,-538.54 51.37,-563.12 67.21,-563.13"/>
<path fill="none" stroke="#000000" stroke-width="2" d="M1718.96,-784.5C1742.47,-782.06 1734.98,-748.98 1719.39,-732.6 1695.2,-708.92 1456.86,-732.71 1428.54,-719.43 1344.72,-682.98 1369.95,-608.97 1284.57,-566.44 1088.7,-473.7 529.45,-527.47 313.98,-525.5 206.32,-525.28 148.1,-450.13 66.82,-526.07 54.9,-538.11 49.42,-562.69 67.21,-565.12"/>
<path fill="none" stroke="#000000" stroke-width="2" d="M1718.96,-786.5C1744.42,-781.62 1736.93,-748.54 1720.82,-731.2 1695,-706.93 1456.66,-730.72 1429.38,-717.61 1346.61,-683.63 1371.84,-609.61 1285.43,-564.64 1088.51,-471.71 529.26,-525.48 314,-523.5 207.91,-524.06 149.68,-448.91 65.42,-524.63 52.95,-537.67 47.47,-562.25 67.21,-567.12"/>
</g>
<!-- STEPB_PUL&#45;&#45;DRV_B -->
<g id="edge10" class="edge">
<title>STEPB_PUL:e&#45;&#45;DRV_B:w</title>
<path fill="none" stroke="#000000" stroke-width="2" d="M850.21,-967.5C1098.55,-973.49 793.19,-442.74 1048.46,-436.75"/>
<path fill="none" stroke="#90ee90" stroke-width="2" d="M850.21,-969.5C1100.29,-972.5 794.92,-441.75 1048.46,-438.75"/>
<path fill="none" stroke="#90ee90" stroke-width="2" d="M850.21,-971.5C1102.02,-971.5 796.65,-440.75 1048.46,-440.75"/>
<path fill="none" stroke="#90ee90" stroke-width="2" d="M850.21,-973.5C1103.75,-970.5 798.39,-439.75 1048.46,-442.75"/>
<path fill="none" stroke="#000000" stroke-width="2" d="M850.21,-975.5C1105.49,-969.51 800.12,-438.76 1048.46,-444.75"/>
</g>
<!-- STEPB_DIR&#45;&#45;DRV_B -->
<g id="edge12" class="edge">
<title>STEPB_DIR:e&#45;&#45;DRV_B:w</title>
<path fill="none" stroke="#000000" stroke-width="2" d="M823.09,-637.5C968.27,-642.62 895.6,-394.37 1048.46,-389.25"/>
<path fill="none" stroke="#ff66cc" stroke-width="2" d="M823.09,-639.5C970.19,-642.06 897.52,-393.81 1048.46,-391.25"/>
<path fill="none" stroke="#ff66cc" stroke-width="2" d="M823.09,-641.5C972.11,-641.5 899.44,-393.25 1048.46,-393.25"/>
<path fill="none" stroke="#ff66cc" stroke-width="2" d="M823.09,-643.5C974.02,-640.94 901.36,-392.69 1048.46,-395.25"/>
<path fill="none" stroke="#000000" stroke-width="2" d="M823.09,-645.5C975.94,-640.38 903.28,-392.13 1048.46,-397.25"/>
</g>
<!-- GND_B1&#45;&#45;MC508_STEP -->
<g id="edge14" class="edge">
<title>GND_B1:e&#45;&#45;MC508_STEP:w</title>
<path fill="none" stroke="#000000" stroke-width="2" d="M1720.46,-448.5C1738.12,-453.39 1730.6,-420.33 1716.6,-406.79 1697.17,-384.74 1458.4,-405.75 1426.29,-393.99 1346.93,-360.41 1357.27,-300.9 1282.38,-278.02 1110.86,-217.19 634.23,-249.06 459.1,-301.08 258.4,-360.51 -141.01,-566.68 67.21,-559.13"/>
<path fill="none" stroke="#000000" stroke-width="2" d="M1720.46,-450.5C1740.07,-452.94 1732.55,-419.89 1718.03,-405.4 1696.99,-382.74 1458.23,-403.75 1427,-392.12 1348.9,-360.76 1359.24,-301.24 1283.05,-276.14 1110.72,-215.19 634.09,-247.06 458.53,-299.17 257.49,-358.74 -141.93,-564.9 67.21,-561.13"/>
<path fill="none" stroke="#000000" stroke-width="2" d="M1720.46,-452.5C1742.02,-452.5 1734.5,-419.45 1719.46,-404 1696.82,-380.75 1458.05,-401.76 1427.71,-390.25 1350.87,-361.1 1361.21,-301.58 1283.71,-274.25 1110.59,-213.19 633.96,-245.07 457.96,-297.25 256.57,-356.96 -142.85,-563.13 67.21,-563.13"/>
<path fill="none" stroke="#000000" stroke-width="2" d="M1720.46,-454.5C1743.97,-452.06 1736.45,-419 1720.89,-402.6 1696.64,-378.76 1457.88,-399.77 1428.42,-388.38 1352.84,-361.44 1363.19,-301.93 1284.38,-272.36 1110.46,-211.2 633.83,-243.07 457.39,-295.33 255.65,-355.18 -143.76,-561.35 67.21,-565.12"/>
<path fill="none" stroke="#000000" stroke-width="2" d="M1720.46,-456.5C1745.92,-451.61 1738.4,-418.56 1722.33,-401.21 1696.47,-376.77 1457.7,-397.78 1429.13,-386.51 1354.81,-361.78 1365.16,-302.27 1285.04,-270.48 1110.32,-209.2 633.69,-241.08 456.82,-293.42 254.74,-353.41 -144.68,-559.57 67.21,-567.12"/>
</g>
<!-- GND_B2&#45;&#45;MC508_STEP -->
<g id="edge16" class="edge">
<title>GND_B2:e&#45;&#45;MC508_STEP:w</title>
<path fill="none" stroke="#000000" stroke-width="2" d="M1718.96,-283.5C1736.61,-288.35 1729.39,-255 1715.15,-241.85 1700.93,-226.04 1307.97,-239.35 1283.69,-239.25 913.88,-236.49 803.26,-125.89 459.23,-243.04 246.12,-314.05 -156.23,-566.51 67.21,-559.13"/>
<path fill="none" stroke="#000000" stroke-width="2" d="M1718.96,-285.5C1738.57,-287.92 1731.34,-254.58 1716.56,-240.42 1700.87,-224.04 1307.9,-237.35 1283.7,-237.25 915.3,-235.08 804.67,-124.48 458.59,-241.15 245.06,-312.36 -157.29,-564.82 67.21,-561.13"/>
<path fill="none" stroke="#000000" stroke-width="2" d="M1718.96,-287.5C1740.52,-287.5 1733.3,-254.15 1717.96,-239 1700.8,-222.04 1307.84,-235.35 1283.71,-235.25 916.71,-233.67 806.09,-123.06 457.96,-239.25 244,-310.66 -158.36,-563.12 67.21,-563.12"/>
<path fill="none" stroke="#000000" stroke-width="2" d="M1718.96,-289.5C1742.48,-287.08 1735.25,-253.73 1719.37,-237.58 1700.73,-220.04 1307.77,-233.36 1283.72,-233.25 918.12,-232.25 807.5,-121.65 457.33,-237.35 242.93,-308.97 -159.42,-561.43 67.21,-565.12"/>
<path fill="none" stroke="#000000" stroke-width="2" d="M1718.96,-291.5C1744.43,-286.65 1737.21,-253.31 1720.77,-236.15 1700.66,-218.05 1307.7,-231.36 1283.73,-231.25 919.54,-230.84 808.92,-120.23 456.69,-235.46 241.87,-307.27 -160.48,-559.74 67.21,-567.12"/>
</g>
<!-- PWR&#45;&#45;ESTOP -->
<g id="edge18" class="edge">
<title>PWR:e&#45;&#45;ESTOP:w</title>
<path fill="none" stroke="#000000" stroke-width="2" d="M2430.96,-554.63C2552.87,-560.15 2460.45,-783.78 2574.96,-778.25"/>
<path fill="none" stroke="#ff0000" stroke-width="2" d="M2430.96,-556.63C2551.02,-559.39 2458.6,-783.01 2574.96,-780.25"/>
<path fill="none" stroke="#ff0000" stroke-width="2" d="M2430.96,-558.63C2549.17,-558.63 2456.75,-782.25 2574.96,-782.25"/>
<path fill="none" stroke="#ff0000" stroke-width="2" d="M2430.96,-560.62C2547.32,-557.86 2454.9,-781.49 2574.96,-784.25"/>
<path fill="none" stroke="#000000" stroke-width="2" d="M2430.96,-562.62C2545.48,-557.1 2453.05,-780.72 2574.96,-786.25"/>
</g>
<!-- ES&#45;&#45;MC508_STEP -->
<g id="edge20" class="edge">
<title>ES:e&#45;&#45;MC508_STEP:w</title>
<path fill="none" stroke="#000000" stroke-width="2" d="M3206.46,-924.63C3213.58,-929.55 3209.51,-912.43 3202.69,-906.76 3107.77,-810.21 3032.28,-884.33 2892.6,-907.82 2624.41,-949.11 2584.07,-1101.27 2305.21,-1104.25 1137.96,-1104.25 1137.96,-1104.25 1137.96,-1104.25 987.42,-1104.19 576.66,-1173.71 455.46,-1078.37 258.74,-914.99 510.56,-678.29 311.52,-530.67 226.98,-464.78 145.42,-454.7 71.02,-530.35 45.85,-554.27 34.18,-611.42 67.21,-606.63"/>
<path fill="none" stroke="#ff0000" stroke-width="2" d="M3206.46,-926.63C3215.52,-929.09 3211.46,-911.96 3204.08,-905.32 3106.37,-808.79 3030.88,-882.9 2892.28,-905.85 2622.48,-948.6 2582.14,-1100.76 2305.21,-1102.25 1137.96,-1102.25 1137.96,-1102.25 1137.96,-1102.25 987.08,-1102.22 576.33,-1171.74 456.71,-1076.81 260.11,-916.45 511.93,-679.75 312.74,-529.08 227.22,-462.79 145.66,-452.72 69.62,-528.92 43.89,-553.87 32.22,-611.02 67.21,-608.63"/>
<path fill="none" stroke="#ff0000" stroke-width="2" d="M3206.46,-928.62C3217.47,-928.62 3213.4,-911.5 3205.46,-903.88 3104.97,-807.36 3029.48,-881.47 2891.96,-903.88 2620.54,-948.09 2580.21,-1100.25 2305.21,-1100.25 1137.96,-1100.25 1137.96,-1100.25 1137.96,-1100.25 986.75,-1100.25 575.99,-1169.77 457.96,-1075.25 261.48,-917.91 513.3,-681.21 313.96,-527.5 227.47,-460.81 145.91,-450.73 68.21,-527.5 41.93,-553.47 30.26,-610.62 67.21,-610.62"/>
<path fill="none" stroke="#ff0000" stroke-width="2" d="M3206.46,-930.62C3219.42,-928.16 3215.35,-911.04 3206.85,-902.43 3103.57,-805.93 3028.08,-880.05 2891.64,-901.9 2618.61,-947.58 2578.27,-1099.74 2305.21,-1098.25 1137.96,-1098.25 1137.96,-1098.25 1137.96,-1098.25 986.41,-1098.28 575.66,-1167.8 459.21,-1073.69 262.85,-919.36 514.67,-682.66 315.18,-525.92 227.71,-458.82 146.15,-448.75 66.81,-526.08 39.97,-553.07 28.3,-610.23 67.21,-612.62"/>
<path fill="none" stroke="#000000" stroke-width="2" d="M3206.46,-932.62C3221.36,-927.7 3217.29,-910.58 3208.23,-900.99 3102.17,-804.51 3026.68,-878.62 2891.32,-899.93 2616.68,-947.06 2576.34,-1099.23 2305.21,-1096.25 1137.96,-1096.25 1137.96,-1096.25 1137.96,-1096.25 986.08,-1096.31 575.32,-1165.83 460.46,-1072.13 264.22,-920.82 516.04,-684.12 316.4,-524.33 227.96,-456.84 146.4,-446.76 65.4,-524.65 38.01,-552.67 26.34,-609.83 67.21,-614.62"/>
</g>
<!-- WDA&#45;&#45;DRV_A -->
<g id="edge22" class="edge">
<title>WDA:e&#45;&#45;DRV_A:w</title>
<path fill="none" stroke="#000000" stroke-width="2" d="M818.96,-802.5C930.37,-804.75 952.87,-851 1057.09,-848.75"/>
<path fill="none" stroke="#ff8000" stroke-width="2" d="M818.96,-804.5C928.57,-805.62 951.07,-851.87 1057.09,-850.75"/>
<path fill="none" stroke="#ff8000" stroke-width="2" d="M818.96,-806.5C926.77,-806.5 949.27,-852.75 1057.09,-852.75"/>
<path fill="none" stroke="#ff8000" stroke-width="2" d="M818.96,-808.5C924.97,-807.38 947.48,-853.63 1057.09,-854.75"/>
<path fill="none" stroke="#000000" stroke-width="2" d="M818.96,-810.5C923.18,-808.25 945.68,-854.5 1057.09,-856.75"/>
</g>
<!-- RA&#45;&#45;EXT5V -->
<g id="edge24" class="edge">
<title>RA:e&#45;&#45;EXT5V:w</title>
<path fill="none" stroke="#000000" stroke-width="2" d="M1702.46,-613.5C1845.86,-619.17 1712.8,-330.17 1863.46,-324.5"/>
<path fill="none" stroke="#000000" stroke-width="2" d="M1702.46,-615.5C1847.68,-618.34 1714.61,-329.34 1863.46,-326.5"/>
<path fill="none" stroke="#000000" stroke-width="2" d="M1702.46,-617.5C1849.49,-617.5 1716.43,-328.5 1863.46,-328.5"/>
<path fill="none" stroke="#000000" stroke-width="2" d="M1702.46,-619.5C1851.31,-616.66 1718.25,-327.66 1863.46,-330.5"/>
<path fill="none" stroke="#000000" stroke-width="2" d="M1702.46,-621.5C1853.13,-615.83 1720.06,-326.83 1863.46,-332.5"/>
</g>
<!-- WDB&#45;&#45;DRV_B -->
<g id="edge26" class="edge">
<title>WDB:e&#45;&#45;DRV_B:w</title>
<path fill="none" stroke="#000000" stroke-width="2" d="M818.96,-353.5C919.41,-353.87 944.64,-342.12 1048.46,-341.75"/>
<path fill="none" stroke="#ff8000" stroke-width="2" d="M818.96,-355.5C920.25,-355.69 945.48,-343.94 1048.46,-343.75"/>
<path fill="none" stroke="#ff8000" stroke-width="2" d="M818.96,-357.5C921.09,-357.5 946.33,-345.75 1048.46,-345.75"/>
<path fill="none" stroke="#ff8000" stroke-width="2" d="M818.96,-359.5C921.94,-359.31 947.17,-347.56 1048.46,-347.75"/>
<path fill="none" stroke="#000000" stroke-width="2" d="M818.96,-361.5C922.78,-361.13 948.02,-349.38 1048.46,-349.75"/>
</g>
<!-- RB&#45;&#45;EXT5V -->
<g id="edge28" class="edge">
<title>RB:e&#45;&#45;EXT5V:w</title>
<path fill="none" stroke="#000000" stroke-width="2" d="M1702.46,-118.5C1822.44,-123.81 1751.04,-329.81 1863.46,-324.5"/>
<path fill="none" stroke="#000000" stroke-width="2" d="M1702.46,-120.5C1820.55,-123.15 1749.15,-329.15 1863.46,-326.5"/>
<path fill="none" stroke="#000000" stroke-width="2" d="M1702.46,-122.5C1818.66,-122.5 1747.26,-328.5 1863.46,-328.5"/>
<path fill="none" stroke="#000000" stroke-width="2" d="M1702.46,-124.5C1816.77,-121.85 1745.37,-327.85 1863.46,-330.5"/>
<path fill="none" stroke="#000000" stroke-width="2" d="M1702.46,-126.5C1814.88,-121.19 1743.48,-327.19 1863.46,-332.5"/>
</g>
<!-- SGND&#45;&#45;EXT5V -->
<g id="edge30" class="edge">
<title>SGND:e&#45;&#45;EXT5V:w</title>
<path fill="none" stroke="#000000" stroke-width="2" d="M1283.71,-44.5C1474.46,-45.86 1551.6,42.2 1721.56,-58.85 1837.45,-134.84 1732.45,-330.39 1863.46,-324.5"/>
<path fill="none" stroke="#000000" stroke-width="2" d="M1283.71,-46.5C1475.97,-47.18 1553.1,40.89 1720.51,-60.55 1835.68,-133.89 1730.69,-329.45 1863.46,-326.5"/>
<path fill="none" stroke="#000000" stroke-width="2" d="M1283.71,-48.5C1477.47,-48.5 1554.61,39.57 1719.46,-62.25 1833.92,-132.94 1728.93,-328.5 1863.46,-328.5"/>
<path fill="none" stroke="#000000" stroke-width="2" d="M1283.71,-50.5C1478.98,-49.82 1556.11,38.25 1718.41,-63.95 1832.16,-132 1727.17,-327.55 1863.46,-330.5"/>
<path fill="none" stroke="#000000" stroke-width="2" d="M1283.71,-52.5C1480.48,-51.14 1557.61,36.93 1717.36,-65.65 1830.4,-131.05 1725.4,-326.61 1863.46,-332.5"/>
</g>
</g>
</svg>
