<?xml version="1.0" encoding="UTF-8" standalone="no"?>
<!DOCTYPE svg PUBLIC "-//W3C//DTD SVG 1.1//EN"
 "http://www.w3.org/Graphics/SVG/1.1/DTD/svg11.dtd">
<!-- Generated by graphviz version 12.2.1 (20241206.2353)
 -->
<!-- Pages: 1 -->
<svg width="3836pt" height="1361pt"
 viewBox="0.00 0.00 3836.34 1361.38" xmlns="http://www.w3.org/2000/svg" xmlns:xlink="http://www.w3.org/1999/xlink">
<g id="graph0" class="graph" transform="scale(1 1) rotate(0) translate(4 1357.38)">
<polygon fill="#ffffff" stroke="none" points="-4,4 -4,-1357.38 3832.34,-1357.38 3832.34,4 -4,4"/>
<!-- MC508_STEP -->
<g id="node1" class="node">
<title>MC508_STEP</title>
<polygon fill="#ffffff" stroke="black" points="266.5,-1019.88 20.75,-1019.88 20.75,-782.38 266.5,-782.38 266.5,-1019.88"/>
<polygon fill="none" stroke="black" points="20.75,-996.13 20.75,-1019.88 266.5,-1019.88 266.5,-996.13 20.75,-996.13"/>
<text text-anchor="start" x="100.13" y="-1002.58" font-family="arial" font-size="14.00">MC508_STEP</text>
<polygon fill="none" stroke="black" points="20.75,-972.38 20.75,-996.13 154.13,-996.13 154.13,-972.38 20.75,-972.38"/>
<text text-anchor="start" x="61.94" y="-978.83" font-family="arial" font-size="14.00">MDR&#45;20</text>
<polygon fill="none" stroke="black" points="154.13,-972.38 154.13,-996.13 266.5,-996.13 266.5,-972.38 154.13,-972.38"/>
<text text-anchor="start" x="195.31" y="-978.83" font-family="arial" font-size="14.00">7&#45;pin</text>
<polygon fill="none" stroke="black" points="20.75,-948.63 20.75,-972.38 82.17,-972.38 82.17,-948.63 20.75,-948.63"/>
<text text-anchor="start" x="47.71" y="-955.08" font-family="arial" font-size="14.00">1</text>
<polygon fill="none" stroke="black" points="82.17,-948.63 82.17,-972.38 205.08,-972.38 205.08,-948.63 82.17,-948.63"/>
<text text-anchor="start" x="113.25" y="-955.08" font-family="arial" font-size="14.00">Pulse(N)+</text>
<polygon fill="none" stroke="black" points="205.08,-948.63 205.08,-972.38 266.5,-972.38 266.5,-948.63 205.08,-948.63"/>
<text text-anchor="start" x="232.04" y="-955.08" font-family="arial" font-size="14.00">1</text>
<polygon fill="none" stroke="black" points="20.75,-924.88 20.75,-948.63 82.17,-948.63 82.17,-924.88 20.75,-924.88"/>
<text text-anchor="start" x="47.71" y="-931.33" font-family="arial" font-size="14.00">3</text>
<polygon fill="none" stroke="black" points="82.17,-924.88 82.17,-948.63 205.08,-948.63 205.08,-924.88 82.17,-924.88"/>
<text text-anchor="start" x="121.5" y="-931.33" font-family="arial" font-size="14.00">Dir(N)+</text>
<polygon fill="none" stroke="black" points="205.08,-924.88 205.08,-948.63 266.5,-948.63 266.5,-924.88 205.08,-924.88"/>
<text text-anchor="start" x="232.04" y="-931.33" font-family="arial" font-size="14.00">3</text>
<polygon fill="none" stroke="black" points="20.75,-901.13 20.75,-924.88 82.17,-924.88 82.17,-901.13 20.75,-901.13"/>
<text text-anchor="start" x="44.33" y="-907.58" font-family="arial" font-size="14.00">11</text>
<polygon fill="none" stroke="black" points="82.17,-901.13 82.17,-924.88 205.08,-924.88 205.08,-901.13 82.17,-901.13"/>
<text text-anchor="start" x="105.38" y="-907.58" font-family="arial" font-size="14.00">Pulse(N+8)+</text>
<polygon fill="none" stroke="black" points="205.08,-901.13 205.08,-924.88 266.5,-924.88 266.5,-901.13 205.08,-901.13"/>
<text text-anchor="start" x="228.67" y="-907.58" font-family="arial" font-size="14.00">11</text>
<polygon fill="none" stroke="black" points="20.75,-877.38 20.75,-901.13 82.17,-901.13 82.17,-877.38 20.75,-877.38"/>
<text text-anchor="start" x="43.96" y="-883.83" font-family="arial" font-size="14.00">13</text>
<polygon fill="none" stroke="black" points="82.17,-877.38 82.17,-901.13 205.08,-901.13 205.08,-877.38 82.17,-877.38"/>
<text text-anchor="start" x="113.63" y="-883.83" font-family="arial" font-size="14.00">Dir(N+8)+</text>
<polygon fill="none" stroke="black" points="205.08,-877.38 205.08,-901.13 266.5,-901.13 266.5,-877.38 205.08,-877.38"/>
<text text-anchor="start" x="228.29" y="-883.83" font-family="arial" font-size="14.00">13</text>
<polygon fill="none" stroke="black" points="20.75,-853.63 20.75,-877.38 82.17,-877.38 82.17,-853.63 20.75,-853.63"/>
<text text-anchor="start" x="47.71" y="-860.08" font-family="arial" font-size="14.00">7</text>
<polygon fill="none" stroke="black" points="82.17,-853.63 82.17,-877.38 205.08,-877.38 205.08,-853.63 82.17,-853.63"/>
<text text-anchor="start" x="116.63" y="-860.08" font-family="arial" font-size="14.00">WDOG+</text>
<polygon fill="none" stroke="black" points="205.08,-853.63 205.08,-877.38 266.5,-877.38 266.5,-853.63 205.08,-853.63"/>
<text text-anchor="start" x="232.04" y="-860.08" font-family="arial" font-size="14.00">7</text>
<polygon fill="none" stroke="black" points="20.75,-829.88 20.75,-853.63 82.17,-853.63 82.17,-829.88 20.75,-829.88"/>
<text text-anchor="start" x="47.71" y="-836.33" font-family="arial" font-size="14.00">8</text>
<polygon fill="none" stroke="black" points="82.17,-829.88 82.17,-853.63 205.08,-853.63 205.08,-829.88 82.17,-829.88"/>
<text text-anchor="start" x="118.5" y="-836.33" font-family="arial" font-size="14.00">WDOG&#45;</text>
<polygon fill="none" stroke="black" points="205.08,-829.88 205.08,-853.63 266.5,-853.63 266.5,-829.88 205.08,-829.88"/>
<text text-anchor="start" x="232.04" y="-836.33" font-family="arial" font-size="14.00">8</text>
<polygon fill="none" stroke="black" points="20.75,-806.13 20.75,-829.88 82.17,-829.88 82.17,-806.13 20.75,-806.13"/>
<text text-anchor="start" x="43.96" y="-812.58" font-family="arial" font-size="14.00">15</text>
<polygon fill="none" stroke="black" points="82.17,-806.13 82.17,-829.88 205.08,-829.88 205.08,-806.13 82.17,-806.13"/>
<text text-anchor="start" x="135.38" y="-812.58" font-family="arial" font-size="14.00">0V</text>
<polygon fill="none" stroke="black" points="205.08,-806.13 205.08,-829.88 266.5,-829.88 266.5,-806.13 205.08,-806.13"/>
<text text-anchor="start" x="228.29" y="-812.58" font-family="arial" font-size="14.00">15</text>
<polygon fill="none" stroke="black" points="20.75,-782.38 20.75,-806.13 266.5,-806.13 266.5,-782.38 20.75,-782.38"/>
<text text-anchor="start" x="24.75" y="-788.83" font-family="arial" font-size="14.00">MC508 Stepper Port (ATYPE 43, P849)</text>
</g>
<!-- STEPA_PUL -->
<g id="node8" class="node">
<title>STEPA_PUL</title>
<polygon fill="#ffffff" stroke="black" points="1280.88,-1353.38 948.63,-1353.38 948.63,-1212.88 1280.88,-1212.88 1280.88,-1353.38"/>
<polygon fill="none" stroke="black" points="948.63,-1329.63 948.63,-1353.38 1280.88,-1353.38 1280.88,-1329.63 948.63,-1329.63"/>
<text text-anchor="start" x="1076.13" y="-1336.08" font-family="arial" font-size="14.00">STEPA_PUL</text>
<polygon fill="none" stroke="black" points="948.63,-1305.88 948.63,-1329.63 1280.88,-1329.63 1280.88,-1305.88 948.63,-1305.88"/>
<text text-anchor="start" x="1107.63" y="-1312.33" font-family="arial" font-size="14.00">1x</text>
<text text-anchor="start" x="1030.13" y="-1290.58" font-family="arial" font-size="14.00"> </text>
<text text-anchor="start" x="950.63" y="-1270.83" font-family="arial" font-size="14.00">MC508_STEP:1:Pulse(N)+</text>
<text text-anchor="start" x="1117.38" y="-1270.83" font-family="arial" font-size="14.00"> &#160;&#160;&#160;&#160;1:BK &#160;&#160;&#160;</text>
<text text-anchor="start" x="1184.38" y="-1270.83" font-family="arial" font-size="14.00">DRV_A:1:PUL+</text>
<polygon fill="#000000" stroke="none" points="948.63,-1264.38 948.63,-1266.38 1280.88,-1266.38 1280.88,-1264.38 948.63,-1264.38"/>
<polygon fill="#000000" stroke="none" points="948.63,-1262.38 948.63,-1264.38 1280.88,-1264.38 1280.88,-1262.38 948.63,-1262.38"/>
<polygon fill="#000000" stroke="none" points="948.63,-1260.38 948.63,-1262.38 1280.88,-1262.38 1280.88,-1260.38 948.63,-1260.38"/>
<polygon fill="#000000" stroke="none" points="948.63,-1258.38 948.63,-1260.38 1280.88,-1260.38 1280.88,-1258.38 948.63,-1258.38"/>
<polygon fill="#000000" stroke="none" points="948.63,-1256.38 948.63,-1258.38 1280.88,-1258.38 1280.88,-1256.38 948.63,-1256.38"/>
<text text-anchor="start" x="1030.13" y="-1241.08" font-family="arial" font-size="14.00"> </text>
<polygon fill="none" stroke="black" points="948.63,-1212.88 948.63,-1236.63 1280.88,-1236.63 1280.88,-1212.88 948.63,-1212.88"/>
<text text-anchor="start" x="1038.63" y="-1219.33" font-family="arial" font-size="14.00">Axis N pulse (SCSI pin 1)</text>
</g>
<!-- MC508_STEP&#45;&#45;STEPA_PUL -->
<g id="edge1" class="edge">
<title>MC508_STEP:e&#45;&#45;STEPA_PUL:w</title>
<path fill="none" stroke="#000000" stroke-width="2" d="M266.5,-956.5C411.36,-962.46 294.7,-1170.21 412.65,-1240.75 609.01,-1369.69 705.77,-1258.75 947.63,-1257.38"/>
<path fill="none" stroke="#000000" stroke-width="2" d="M266.5,-958.5C409.62,-961.48 292.96,-1169.23 411.57,-1242.44 610.52,-1371.01 707.27,-1260.06 947.63,-1259.38"/>
<path fill="none" stroke="#000000" stroke-width="2" d="M266.5,-960.5C407.87,-960.5 291.22,-1168.25 410.5,-1244.13 612.03,-1372.32 708.78,-1261.38 947.63,-1261.38"/>
<path fill="none" stroke="#000000" stroke-width="2" d="M266.5,-962.5C406.13,-959.52 289.47,-1167.27 409.43,-1245.82 613.54,-1373.64 710.29,-1262.69 947.63,-1263.38"/>
<path fill="none" stroke="#000000" stroke-width="2" d="M266.5,-964.5C404.38,-958.54 287.73,-1166.29 408.35,-1247.5 615.04,-1374.95 711.8,-1264.01 947.63,-1265.38"/>
</g>
<!-- STEPA_DIR -->
<g id="node9" class="node">
<title>STEPA_DIR</title>
<polygon fill="#ffffff" stroke="black" points="763.75,-1232.38 449.5,-1232.38 449.5,-1091.88 763.75,-1091.88 763.75,-1232.38"/>
<polygon fill="none" stroke="black" points="449.5,-1208.63 449.5,-1232.38 763.75,-1232.38 763.75,-1208.63 449.5,-1208.63"/>
<text text-anchor="start" x="569.5" y="-1215.08" font-family="arial" font-size="14.00">STEPA_DIR</text>
<polygon fill="none" stroke="black" points="449.5,-1184.88 449.5,-1208.63 763.75,-1208.63 763.75,-1184.88 449.5,-1184.88"/>
<text text-anchor="start" x="599.5" y="-1191.33" font-family="arial" font-size="14.00">1x</text>
<text text-anchor="start" x="522.75" y="-1169.58" font-family="arial" font-size="14.00"> </text>
<text text-anchor="start" x="451.5" y="-1149.83" font-family="arial" font-size="14.00">MC508_STEP:3:Dir(N)+</text>
<text text-anchor="start" x="601.75" y="-1149.83" font-family="arial" font-size="14.00"> &#160;&#160;&#160;&#160;1:RD &#160;&#160;&#160;</text>
<text text-anchor="start" x="670.25" y="-1149.83" font-family="arial" font-size="14.00">DRV_A:3:DIR+</text>
<polygon fill="#000000" stroke="none" points="449.5,-1143.38 449.5,-1145.38 763.75,-1145.38 763.75,-1143.38 449.5,-1143.38"/>
<polygon fill="#ff0000" stroke="none" points="449.5,-1141.38 449.5,-1143.38 763.75,-1143.38 763.75,-1141.38 449.5,-1141.38"/>
<polygon fill="#ff0000" stroke="none" points="449.5,-1139.38 449.5,-1141.38 763.75,-1141.38 763.75,-1139.38 449.5,-1139.38"/>
<polygon fill="#ff0000" stroke="none" points="449.5,-1137.38 449.5,-1139.38 763.75,-1139.38 763.75,-1137.38 449.5,-1137.38"/>
<polygon fill="#000000" stroke="none" points="449.5,-1135.38 449.5,-1137.38 763.75,-1137.38 763.75,-1135.38 449.5,-1135.38"/>
<text text-anchor="start" x="522.75" y="-1120.08" font-family="arial" font-size="14.00"> </text>
<polygon fill="none" stroke="black" points="449.5,-1091.88 449.5,-1115.63 763.75,-1115.63 763.75,-1091.88 449.5,-1091.88"/>
<text text-anchor="start" x="521.13" y="-1098.33" font-family="arial" font-size="14.00">Axis N direction (SCSI pin 3)</text>
</g>
<!-- MC508_STEP&#45;&#45;STEPA_DIR -->
<g id="edge3" class="edge">
<title>MC508_STEP:e&#45;&#45;STEPA_DIR:w</title>
<path fill="none" stroke="#000000" stroke-width="2" d="M266.5,-932.75C391.71,-937.9 330.95,-1141.52 448.5,-1136.38"/>
<path fill="none" stroke="#ff0000" stroke-width="2" d="M266.5,-934.75C389.8,-937.32 329.04,-1140.95 448.5,-1138.38"/>
<path fill="none" stroke="#ff0000" stroke-width="2" d="M266.5,-936.75C387.88,-936.75 327.12,-1140.38 448.5,-1140.38"/>
<path fill="none" stroke="#ff0000" stroke-width="2" d="M266.5,-938.75C385.96,-936.18 325.2,-1139.81 448.5,-1142.38"/>
<path fill="none" stroke="#000000" stroke-width="2" d="M266.5,-940.75C384.05,-935.61 323.29,-1139.23 448.5,-1144.38"/>
</g>
<!-- STEPB_PUL -->
<g id="node10" class="node">
<title>STEPB_PUL</title>
<polygon fill="#ffffff" stroke="black" points="802.75,-1067.38 410.5,-1067.38 410.5,-926.88 802.75,-926.88 802.75,-1067.38"/>
<polygon fill="none" stroke="black" points="410.5,-1043.63 410.5,-1067.38 802.75,-1067.38 802.75,-1043.63 410.5,-1043.63"/>
<text text-anchor="start" x="567.63" y="-1050.08" font-family="arial" font-size="14.00">STEPB_PUL</text>
<polygon fill="none" stroke="black" points="410.5,-1019.88 410.5,-1043.63 802.75,-1043.63 802.75,-1019.88 410.5,-1019.88"/>
<text text-anchor="start" x="599.5" y="-1026.33" font-family="arial" font-size="14.00">1x</text>
<text text-anchor="start" x="503.25" y="-1004.58" font-family="arial" font-size="14.00"> </text>
<text text-anchor="start" x="412.5" y="-984.83" font-family="arial" font-size="14.00">MC508_STEP:11:Pulse(N+8)+</text>
<text text-anchor="start" x="601.75" y="-984.83" font-family="arial" font-size="14.00"> &#160;&#160;&#160;&#160;1:#90EE90 &#160;&#160;&#160;</text>
<text text-anchor="start" x="706.25" y="-984.83" font-family="arial" font-size="14.00">DRV_B:1:PUL+</text>
<polygon fill="#000000" stroke="none" points="410.5,-978.38 410.5,-980.38 802.75,-980.38 802.75,-978.38 410.5,-978.38"/>
<polygon fill="#90ee90" stroke="none" points="410.5,-976.38 410.5,-978.38 802.75,-978.38 802.75,-976.38 410.5,-976.38"/>
<polygon fill="#90ee90" stroke="none" points="410.5,-974.38 410.5,-976.38 802.75,-976.38 802.75,-974.38 410.5,-974.38"/>
<polygon fill="#90ee90" stroke="none" points="410.5,-972.38 410.5,-974.38 802.75,-974.38 802.75,-972.38 410.5,-972.38"/>
<polygon fill="#000000" stroke="none" points="410.5,-970.38 410.5,-972.38 802.75,-972.38 802.75,-970.38 410.5,-970.38"/>
<text text-anchor="start" x="503.25" y="-955.08" font-family="arial" font-size="14.00"> </text>
<polygon fill="none" stroke="black" points="410.5,-926.88 410.5,-950.63 802.75,-950.63 802.75,-926.88 410.5,-926.88"/>
<text text-anchor="start" x="519.25" y="-933.33" font-family="arial" font-size="14.00">Axis N+8 pulse (SCSI pin 11)</text>
</g>
<!-- MC508_STEP&#45;&#45;STEPB_PUL -->
<g id="edge5" class="edge">
<title>MC508_STEP:e&#45;&#45;STEPB_PUL:w</title>
<path fill="none" stroke="#000000" stroke-width="2" d="M266.5,-909C340.24,-912.71 344.74,-975.09 410.5,-971.38"/>
<path fill="none" stroke="#90ee90" stroke-width="2" d="M266.5,-911C338.24,-912.86 342.75,-975.23 410.5,-973.38"/>
<path fill="none" stroke="#90ee90" stroke-width="2" d="M266.5,-913C336.25,-913 340.75,-975.38 410.5,-975.38"/>
<path fill="none" stroke="#90ee90" stroke-width="2" d="M266.5,-915C334.25,-913.15 338.76,-975.52 410.5,-977.38"/>
<path fill="none" stroke="#000000" stroke-width="2" d="M266.5,-917C332.26,-913.29 336.76,-975.67 410.5,-979.38"/>
</g>
<!-- STEPB_DIR -->
<g id="node11" class="node">
<title>STEPB_DIR</title>
<polygon fill="#ffffff" stroke="black" points="1282.75,-1018.38 946.75,-1018.38 946.75,-877.88 1282.75,-877.88 1282.75,-1018.38"/>
<polygon fill="none" stroke="black" points="946.75,-994.63 946.75,-1018.38 1282.75,-1018.38 1282.75,-994.63 946.75,-994.63"/>
<text text-anchor="start" x="1077.25" y="-1001.08" font-family="arial" font-size="14.00">STEPB_DIR</text>
<polygon fill="none" stroke="black" points="946.75,-970.88 946.75,-994.63 1282.75,-994.63 1282.75,-970.88 946.75,-970.88"/>
<text text-anchor="start" x="1107.63" y="-977.33" font-family="arial" font-size="14.00">1x</text>
<text text-anchor="start" x="1031.63" y="-955.58" font-family="arial" font-size="14.00"> </text>
<text text-anchor="start" x="948.75" y="-935.83" font-family="arial" font-size="14.00">MC508_STEP:13:Dir(N+8)+</text>
<text text-anchor="start" x="1122.25" y="-935.83" font-family="arial" font-size="14.00"> &#160;&#160;&#160;&#160;1:PK &#160;&#160;&#160;</text>
<text text-anchor="start" x="1189.25" y="-935.83" font-family="arial" font-size="14.00">DRV_B:3:DIR+</text>
<polygon fill="#000000" stroke="none" points="946.75,-929.38 946.75,-931.38 1282.75,-931.38 1282.75,-929.38 946.75,-929.38"/>
<polygon fill="#ff66cc" stroke="none" points="946.75,-927.38 946.75,-929.38 1282.75,-929.38 1282.75,-927.38 946.75,-927.38"/>
<polygon fill="#ff66cc" stroke="none" points="946.75,-925.38 946.75,-927.38 1282.75,-927.38 1282.75,-925.38 946.75,-925.38"/>
<polygon fill="#ff66cc" stroke="none" points="946.75,-923.38 946.75,-925.38 1282.75,-925.38 1282.75,-923.38 946.75,-923.38"/>
<polygon fill="#000000" stroke="none" points="946.75,-921.38 946.75,-923.38 1282.75,-923.38 1282.75,-921.38 946.75,-921.38"/>
<text text-anchor="start" x="1031.63" y="-906.08" font-family="arial" font-size="14.00"> </text>
<polygon fill="none" stroke="black" points="946.75,-877.88 946.75,-901.63 1282.75,-901.63 1282.75,-877.88 946.75,-877.88"/>
<text text-anchor="start" x="1017.63" y="-884.33" font-family="arial" font-size="14.00">Axis N+8 direction (SCSI pin 13)</text>
</g>
<!-- MC508_STEP&#45;&#45;STEPB_DIR -->
<g id="edge7" class="edge">
<title>MC508_STEP:e&#45;&#45;STEPB_DIR:w</title>
<path fill="none" stroke="#000000" stroke-width="2" d="M266.5,-885.25C505.83,-885.32 565.33,-896.15 803,-911.14 868.48,-915.54 884.22,-922.74 946.75,-922.38"/>
<path fill="none" stroke="#ff66cc" stroke-width="2" d="M266.5,-887.25C505.47,-887.29 564.97,-898.12 802.88,-913.13 867.65,-917.36 883.39,-924.56 946.75,-924.38"/>
<path fill="none" stroke="#ff66cc" stroke-width="2" d="M266.5,-889.25C505.11,-889.25 564.61,-900.08 802.75,-915.13 866.82,-919.18 882.56,-926.38 946.75,-926.38"/>
<path fill="none" stroke="#ff66cc" stroke-width="2" d="M266.5,-891.25C504.75,-891.22 564.26,-902.05 802.62,-917.12 865.99,-920.99 881.72,-928.2 946.75,-928.38"/>
<path fill="none" stroke="#000000" stroke-width="2" d="M266.5,-893.25C504.39,-893.19 563.9,-904.02 802.5,-919.12 865.15,-922.81 880.89,-930.02 946.75,-930.38"/>
</g>
<!-- GND_SCSI -->
<g id="node12" class="node">
<title>GND_SCSI</title>
<polygon fill="#ffffff" stroke="black" points="719.13,-853.38 494.13,-853.38 494.13,-712.88 719.13,-712.88 719.13,-853.38"/>
<polygon fill="none" stroke="black" points="494.13,-829.63 494.13,-853.38 719.13,-853.38 719.13,-829.63 494.13,-829.63"/>
<text text-anchor="start" x="571.75" y="-836.08" font-family="arial" font-size="14.00">GND_SCSI</text>
<polygon fill="none" stroke="black" points="494.13,-805.88 494.13,-829.63 719.13,-829.63 719.13,-805.88 494.13,-805.88"/>
<text text-anchor="start" x="599.5" y="-812.33" font-family="arial" font-size="14.00">1x</text>
<text text-anchor="start" x="557.25" y="-790.58" font-family="arial" font-size="14.00"> </text>
<text text-anchor="start" x="496.13" y="-770.83" font-family="arial" font-size="14.00">MC508_STEP:15:0V</text>
<text text-anchor="start" x="626.13" y="-770.83" font-family="arial" font-size="14.00"> &#160;&#160;&#160;&#160;1:WHBN &#160;&#160;&#160;</text>
<polygon fill="#000000" stroke="none" points="494.13,-764.38 494.13,-766.38 719.13,-766.38 719.13,-764.38 494.13,-764.38"/>
<polygon fill="#ffffff" stroke="none" points="494.13,-762.38 494.13,-764.38 719.13,-764.38 719.13,-762.38 494.13,-762.38"/>
<polygon fill="#895956" stroke="none" points="494.13,-760.38 494.13,-762.38 719.13,-762.38 719.13,-760.38 494.13,-760.38"/>
<polygon fill="#ffffff" stroke="none" points="494.13,-758.38 494.13,-760.38 719.13,-760.38 719.13,-758.38 494.13,-758.38"/>
<polygon fill="#000000" stroke="none" points="494.13,-756.38 494.13,-758.38 719.13,-758.38 719.13,-756.38 494.13,-756.38"/>
<text text-anchor="start" x="557.25" y="-741.08" font-family="arial" font-size="14.00"> </text>
<polygon fill="none" stroke="black" points="494.13,-712.88 494.13,-736.63 719.13,-736.63 719.13,-712.88 494.13,-712.88"/>
<text text-anchor="start" x="541.75" y="-719.33" font-family="arial" font-size="14.00">0V SCSI wire (pin 15)</text>
</g>
<!-- MC508_STEP&#45;&#45;GND_SCSI -->
<g id="edge9" class="edge">
<title>MC508_STEP:e&#45;&#45;GND_SCSI:w</title>
<path fill="none" stroke="#000000" stroke-width="2" d="M266.5,-814C366.53,-816.73 385.51,-760.11 493.13,-757.38"/>
<path fill="none" stroke="#ffffff" stroke-width="2" d="M266.5,-816C368.42,-817.37 387.41,-760.74 493.13,-759.38"/>
<path fill="none" stroke="#895956" stroke-width="2" d="M266.5,-818C370.32,-818 389.31,-761.38 493.13,-761.38"/>
<path fill="none" stroke="#ffffff" stroke-width="2" d="M266.5,-820C372.22,-818.64 391.2,-762.01 493.13,-763.38"/>
<path fill="none" stroke="#000000" stroke-width="2" d="M266.5,-822C374.11,-819.27 393.1,-762.65 493.13,-765.38"/>
</g>
<!-- WDOG_SCSI -->
<g id="node19" class="node">
<title>WDOG_SCSI</title>
<polygon fill="#ffffff" stroke="black" points="719.88,-526.38 493.38,-526.38 493.38,-385.88 719.88,-385.88 719.88,-526.38"/>
<polygon fill="none" stroke="black" points="493.38,-502.63 493.38,-526.38 719.88,-526.38 719.88,-502.63 493.38,-502.63"/>
<text text-anchor="start" x="564.25" y="-509.08" font-family="arial" font-size="14.00">WDOG_SCSI</text>
<polygon fill="none" stroke="black" points="493.38,-478.88 493.38,-502.63 719.88,-502.63 719.88,-478.88 493.38,-478.88"/>
<text text-anchor="start" x="599.5" y="-485.33" font-family="arial" font-size="14.00">1x</text>
<text text-anchor="start" x="569.63" y="-463.58" font-family="arial" font-size="14.00"> </text>
<text text-anchor="start" x="495.38" y="-443.83" font-family="arial" font-size="14.00">MC508_STEP:8:WDOG&#45;</text>
<text text-anchor="start" x="651.63" y="-443.83" font-family="arial" font-size="14.00"> &#160;&#160;&#160;&#160;1:VT &#160;&#160;&#160;</text>
<polygon fill="#000000" stroke="none" points="493.38,-437.38 493.38,-439.38 719.88,-439.38 719.88,-437.38 493.38,-437.38"/>
<polygon fill="#8000ff" stroke="none" points="493.38,-435.38 493.38,-437.38 719.88,-437.38 719.88,-435.38 493.38,-435.38"/>
<polygon fill="#8000ff" stroke="none" points="493.38,-433.38 493.38,-435.38 719.88,-435.38 719.88,-433.38 493.38,-433.38"/>
<polygon fill="#8000ff" stroke="none" points="493.38,-431.38 493.38,-433.38 719.88,-433.38 719.88,-431.38 493.38,-431.38"/>
<polygon fill="#000000" stroke="none" points="493.38,-429.38 493.38,-431.38 719.88,-431.38 719.88,-429.38 493.38,-429.38"/>
<text text-anchor="start" x="569.63" y="-414.08" font-family="arial" font-size="14.00"> </text>
<polygon fill="none" stroke="black" points="493.38,-385.88 493.38,-409.63 719.88,-409.63 719.88,-385.88 493.38,-385.88"/>
<text text-anchor="start" x="528.63" y="-392.33" font-family="arial" font-size="14.00">WDOG&#45; SCSI wire (pin 8)</text>
</g>
<!-- MC508_STEP&#45;&#45;WDOG_SCSI -->
<g id="edge23" class="edge">
<title>MC508_STEP:e&#45;&#45;WDOG_SCSI:w</title>
<path fill="none" stroke="#000000" stroke-width="2" d="M266.5,-837.75C469.89,-843.43 281.72,-436.06 492.38,-430.38"/>
<path fill="none" stroke="#8000ff" stroke-width="2" d="M266.5,-839.75C471.71,-842.59 283.54,-435.22 492.38,-432.38"/>
<path fill="none" stroke="#8000ff" stroke-width="2" d="M266.5,-841.75C473.52,-841.75 285.35,-434.38 492.38,-434.38"/>
<path fill="none" stroke="#8000ff" stroke-width="2" d="M266.5,-843.75C475.34,-840.91 287.17,-433.54 492.38,-436.38"/>
<path fill="none" stroke="#000000" stroke-width="2" d="M266.5,-845.75C477.16,-840.08 288.98,-432.7 492.38,-438.38"/>
</g>
<!-- DRV_A -->
<g id="node2" class="node">
<title>DRV_A</title>
<polygon fill="#ffffff" stroke="black" points="1920.38,-971 1758.63,-971 1758.63,-757.25 1920.38,-757.25 1920.38,-971"/>
<polygon fill="none" stroke="black" points="1758.63,-947.25 1758.63,-971 1920.38,-971 1920.38,-947.25 1758.63,-947.25"/>
<text text-anchor="start" x="1817" y="-953.7" font-family="arial" font-size="14.00">DRV_A</text>
<polygon fill="none" stroke="black" points="1758.63,-923.5 1758.63,-947.25 1871,-947.25 1871,-923.5 1758.63,-923.5"/>
<text text-anchor="start" x="1768.31" y="-929.95" font-family="arial" font-size="14.00">Screw Terminal</text>
<polygon fill="none" stroke="black" points="1871,-923.5 1871,-947.25 1920.38,-947.25 1920.38,-923.5 1871,-923.5"/>
<text text-anchor="start" x="1880.69" y="-929.95" font-family="arial" font-size="14.00">6&#45;pin</text>
<polygon fill="none" stroke="black" points="1758.63,-899.75 1758.63,-923.5 1803.04,-923.5 1803.04,-899.75 1758.63,-899.75"/>
<text text-anchor="start" x="1777.08" y="-906.2" font-family="arial" font-size="14.00">1</text>
<polygon fill="none" stroke="black" points="1803.04,-899.75 1803.04,-923.5 1875.96,-923.5 1875.96,-899.75 1803.04,-899.75"/>
<text text-anchor="start" x="1822.25" y="-906.2" font-family="arial" font-size="14.00">PUL+</text>
<polygon fill="none" stroke="black" points="1875.96,-899.75 1875.96,-923.5 1920.38,-923.5 1920.38,-899.75 1875.96,-899.75"/>
<text text-anchor="start" x="1894.42" y="-906.2" font-family="arial" font-size="14.00">1</text>
<polygon fill="none" stroke="black" points="1758.63,-876 1758.63,-899.75 1803.04,-899.75 1803.04,-876 1758.63,-876"/>
<text text-anchor="start" x="1777.08" y="-882.45" font-family="arial" font-size="14.00">2</text>
<polygon fill="none" stroke="black" points="1803.04,-876 1803.04,-899.75 1875.96,-899.75 1875.96,-876 1803.04,-876"/>
<text text-anchor="start" x="1824.13" y="-882.45" font-family="arial" font-size="14.00">PUL&#45;</text>
<polygon fill="none" stroke="black" points="1875.96,-876 1875.96,-899.75 1920.38,-899.75 1920.38,-876 1875.96,-876"/>
<text text-anchor="start" x="1894.42" y="-882.45" font-family="arial" font-size="14.00">2</text>
<polygon fill="none" stroke="black" points="1758.63,-852.25 1758.63,-876 1803.04,-876 1803.04,-852.25 1758.63,-852.25"/>
<text text-anchor="start" x="1777.08" y="-858.7" font-family="arial" font-size="14.00">3</text>
<polygon fill="none" stroke="black" points="1803.04,-852.25 1803.04,-876 1875.96,-876 1875.96,-852.25 1803.04,-852.25"/>
<text text-anchor="start" x="1823.75" y="-858.7" font-family="arial" font-size="14.00">DIR+</text>
<polygon fill="none" stroke="black" points="1875.96,-852.25 1875.96,-876 1920.38,-876 1920.38,-852.25 1875.96,-852.25"/>
<text text-anchor="start" x="1894.42" y="-858.7" font-family="arial" font-size="14.00">3</text>
<polygon fill="none" stroke="black" points="1758.63,-828.5 1758.63,-852.25 1803.04,-852.25 1803.04,-828.5 1758.63,-828.5"/>
<text text-anchor="start" x="1777.08" y="-834.95" font-family="arial" font-size="14.00">4</text>
<polygon fill="none" stroke="black" points="1803.04,-828.5 1803.04,-852.25 1875.96,-852.25 1875.96,-828.5 1803.04,-828.5"/>
<text text-anchor="start" x="1825.63" y="-834.95" font-family="arial" font-size="14.00">DIR&#45;</text>
<polygon fill="none" stroke="black" points="1875.96,-828.5 1875.96,-852.25 1920.38,-852.25 1920.38,-828.5 1875.96,-828.5"/>
<text text-anchor="start" x="1894.42" y="-834.95" font-family="arial" font-size="14.00">4</text>
<polygon fill="none" stroke="black" points="1758.63,-804.75 1758.63,-828.5 1803.04,-828.5 1803.04,-804.75 1758.63,-804.75"/>
<text text-anchor="start" x="1777.08" y="-811.2" font-family="arial" font-size="14.00">5</text>
<polygon fill="none" stroke="black" points="1803.04,-804.75 1803.04,-828.5 1875.96,-828.5 1875.96,-804.75 1803.04,-804.75"/>
<text text-anchor="start" x="1821.5" y="-811.2" font-family="arial" font-size="14.00">ENA+</text>
<polygon fill="none" stroke="black" points="1875.96,-804.75 1875.96,-828.5 1920.38,-828.5 1920.38,-804.75 1875.96,-804.75"/>
<text text-anchor="start" x="1894.42" y="-811.2" font-family="arial" font-size="14.00">5</text>
<polygon fill="none" stroke="black" points="1758.63,-781 1758.63,-804.75 1803.04,-804.75 1803.04,-781 1758.63,-781"/>
<text text-anchor="start" x="1777.08" y="-787.45" font-family="arial" font-size="14.00">6</text>
<polygon fill="none" stroke="black" points="1803.04,-781 1803.04,-804.75 1875.96,-804.75 1875.96,-781 1803.04,-781"/>
<text text-anchor="start" x="1823.38" y="-787.45" font-family="arial" font-size="14.00">ENA&#45;</text>
<polygon fill="none" stroke="black" points="1875.96,-781 1875.96,-804.75 1920.38,-804.75 1920.38,-781 1875.96,-781"/>
<text text-anchor="start" x="1894.42" y="-787.45" font-family="arial" font-size="14.00">6</text>
<polygon fill="none" stroke="black" points="1758.63,-757.25 1758.63,-781 1920.38,-781 1920.38,-757.25 1758.63,-757.25"/>
<text text-anchor="start" x="1762.63" y="-763.7" font-family="arial" font-size="14.00">KL&#45;4030 Driver A (Axis N)</text>
</g>
<!-- RA -->
<g id="node22" class="node">
<title>RA</title>
<polygon fill="#ffffff" stroke="black" points="2328.75,-802.38 2073,-802.38 2073,-661.88 2328.75,-661.88 2328.75,-802.38"/>
<polygon fill="none" stroke="black" points="2073,-778.63 2073,-802.38 2328.75,-802.38 2328.75,-778.63 2073,-778.63"/>
<text text-anchor="start" x="2191.5" y="-785.08" font-family="arial" font-size="14.00">RA</text>
<polygon fill="none" stroke="black" points="2073,-754.88 2073,-778.63 2328.75,-778.63 2328.75,-754.88 2073,-754.88"/>
<text text-anchor="start" x="2193.75" y="-761.33" font-family="arial" font-size="14.00">1x</text>
<text text-anchor="start" x="2119.25" y="-739.58" font-family="arial" font-size="14.00"> </text>
<text text-anchor="start" x="2075" y="-719.83" font-family="arial" font-size="14.00">DRV_A:6:ENA&#45;</text>
<text text-anchor="start" x="2171.25" y="-719.83" font-family="arial" font-size="14.00"> &#160;&#160;&#160;&#160;1:BK &#160;&#160;&#160;</text>
<text text-anchor="start" x="2238.25" y="-719.83" font-family="arial" font-size="14.00">EXT5V:2:GND</text>
<polygon fill="#000000" stroke="none" points="2073,-713.38 2073,-715.38 2328.75,-715.38 2328.75,-713.38 2073,-713.38"/>
<polygon fill="#000000" stroke="none" points="2073,-711.38 2073,-713.38 2328.75,-713.38 2328.75,-711.38 2073,-711.38"/>
<polygon fill="#000000" stroke="none" points="2073,-709.38 2073,-711.38 2328.75,-711.38 2328.75,-709.38 2073,-709.38"/>
<polygon fill="#000000" stroke="none" points="2073,-707.38 2073,-709.38 2328.75,-709.38 2328.75,-707.38 2073,-707.38"/>
<polygon fill="#000000" stroke="none" points="2073,-705.38 2073,-707.38 2328.75,-707.38 2328.75,-705.38 2073,-705.38"/>
<text text-anchor="start" x="2119.25" y="-690.08" font-family="arial" font-size="14.00"> </text>
<polygon fill="none" stroke="black" points="2073,-661.88 2073,-685.63 2328.75,-685.63 2328.75,-661.88 2073,-661.88"/>
<text text-anchor="start" x="2139.75" y="-668.33" font-family="arial" font-size="14.00">Driver A ENA&#45; return</text>
</g>
<!-- DRV_A&#45;&#45;RA -->
<g id="edge29" class="edge">
<title>DRV_A:e&#45;&#45;RA:w</title>
<path fill="none" stroke="#000000" stroke-width="2" d="M1921.38,-788.88C1994.09,-792.97 1992.28,-710.47 2073,-706.38"/>
<path fill="none" stroke="#000000" stroke-width="2" d="M1921.38,-790.88C1996.09,-792.92 1994.28,-710.42 2073,-708.38"/>
<path fill="none" stroke="#000000" stroke-width="2" d="M1921.38,-792.88C1998.09,-792.88 1996.28,-710.38 2073,-710.38"/>
<path fill="none" stroke="#000000" stroke-width="2" d="M1921.38,-794.88C2000.09,-792.83 1998.28,-710.33 2073,-712.38"/>
<path fill="none" stroke="#000000" stroke-width="2" d="M1921.38,-796.88C2002.09,-792.79 2000.28,-710.29 2073,-714.38"/>
</g>
<!-- DRV_B -->
<g id="node3" class="node">
<title>DRV_B</title>
<polygon fill="#ffffff" stroke="black" points="1929,-687 1750,-687 1750,-473.25 1929,-473.25 1929,-687"/>
<polygon fill="none" stroke="black" points="1750,-663.25 1750,-687 1929,-687 1929,-663.25 1750,-663.25"/>
<text text-anchor="start" x="1817" y="-669.7" font-family="arial" font-size="14.00">DRV_B</text>
<polygon fill="none" stroke="black" points="1750,-639.5 1750,-663.25 1871,-663.25 1871,-639.5 1750,-639.5"/>
<text text-anchor="start" x="1764" y="-645.95" font-family="arial" font-size="14.00">Screw Terminal</text>
<polygon fill="none" stroke="black" points="1871,-639.5 1871,-663.25 1929,-663.25 1929,-639.5 1871,-639.5"/>
<text text-anchor="start" x="1885" y="-645.95" font-family="arial" font-size="14.00">6&#45;pin</text>
<polygon fill="none" stroke="black" points="1750,-615.75 1750,-639.5 1800.17,-639.5 1800.17,-615.75 1750,-615.75"/>
<text text-anchor="start" x="1771.33" y="-622.2" font-family="arial" font-size="14.00">1</text>
<polygon fill="none" stroke="black" points="1800.17,-615.75 1800.17,-639.5 1878.83,-639.5 1878.83,-615.75 1800.17,-615.75"/>
<text text-anchor="start" x="1822.25" y="-622.2" font-family="arial" font-size="14.00">PUL+</text>
<polygon fill="none" stroke="black" points="1878.83,-615.75 1878.83,-639.5 1929,-639.5 1929,-615.75 1878.83,-615.75"/>
<text text-anchor="start" x="1900.17" y="-622.2" font-family="arial" font-size="14.00">1</text>
<polygon fill="none" stroke="black" points="1750,-592 1750,-615.75 1800.17,-615.75 1800.17,-592 1750,-592"/>
<text text-anchor="start" x="1771.33" y="-598.45" font-family="arial" font-size="14.00">2</text>
<polygon fill="none" stroke="black" points="1800.17,-592 1800.17,-615.75 1878.83,-615.75 1878.83,-592 1800.17,-592"/>
<text text-anchor="start" x="1824.13" y="-598.45" font-family="arial" font-size="14.00">PUL&#45;</text>
<polygon fill="none" stroke="black" points="1878.83,-592 1878.83,-615.75 1929,-615.75 1929,-592 1878.83,-592"/>
<text text-anchor="start" x="1900.17" y="-598.45" font-family="arial" font-size="14.00">2</text>
<polygon fill="none" stroke="black" points="1750,-568.25 1750,-592 1800.17,-592 1800.17,-568.25 1750,-568.25"/>
<text text-anchor="start" x="1771.33" y="-574.7" font-family="arial" font-size="14.00">3</text>
<polygon fill="none" stroke="black" points="1800.17,-568.25 1800.17,-592 1878.83,-592 1878.83,-568.25 1800.17,-568.25"/>
<text text-anchor="start" x="1823.75" y="-574.7" font-family="arial" font-size="14.00">DIR+</text>
<polygon fill="none" stroke="black" points="1878.83,-568.25 1878.83,-592 1929,-592 1929,-568.25 1878.83,-568.25"/>
<text text-anchor="start" x="1900.17" y="-574.7" font-family="arial" font-size="14.00">3</text>
<polygon fill="none" stroke="black" points="1750,-544.5 1750,-568.25 1800.17,-568.25 1800.17,-544.5 1750,-544.5"/>
<text text-anchor="start" x="1771.33" y="-550.95" font-family="arial" font-size="14.00">4</text>
<polygon fill="none" stroke="black" points="1800.17,-544.5 1800.17,-568.25 1878.83,-568.25 1878.83,-544.5 1800.17,-544.5"/>
<text text-anchor="start" x="1825.63" y="-550.95" font-family="arial" font-size="14.00">DIR&#45;</text>
<polygon fill="none" stroke="black" points="1878.83,-544.5 1878.83,-568.25 1929,-568.25 1929,-544.5 1878.83,-544.5"/>
<text text-anchor="start" x="1900.17" y="-550.95" font-family="arial" font-size="14.00">4</text>
<polygon fill="none" stroke="black" points="1750,-520.75 1750,-544.5 1800.17,-544.5 1800.17,-520.75 1750,-520.75"/>
<text text-anchor="start" x="1771.33" y="-527.2" font-family="arial" font-size="14.00">5</text>
<polygon fill="none" stroke="black" points="1800.17,-520.75 1800.17,-544.5 1878.83,-544.5 1878.83,-520.75 1800.17,-520.75"/>
<text text-anchor="start" x="1821.5" y="-527.2" font-family="arial" font-size="14.00">ENA+</text>
<polygon fill="none" stroke="black" points="1878.83,-520.75 1878.83,-544.5 1929,-544.5 1929,-520.75 1878.83,-520.75"/>
<text text-anchor="start" x="1900.17" y="-527.2" font-family="arial" font-size="14.00">5</text>
<polygon fill="none" stroke="black" points="1750,-497 1750,-520.75 1800.17,-520.75 1800.17,-497 1750,-497"/>
<text text-anchor="start" x="1771.33" y="-503.45" font-family="arial" font-size="14.00">6</text>
<polygon fill="none" stroke="black" points="1800.17,-497 1800.17,-520.75 1878.83,-520.75 1878.83,-497 1800.17,-497"/>
<text text-anchor="start" x="1823.38" y="-503.45" font-family="arial" font-size="14.00">ENA&#45;</text>
<polygon fill="none" stroke="black" points="1878.83,-497 1878.83,-520.75 1929,-520.75 1929,-497 1878.83,-497"/>
<text text-anchor="start" x="1900.17" y="-503.45" font-family="arial" font-size="14.00">6</text>
<polygon fill="none" stroke="black" points="1750,-473.25 1750,-497 1929,-497 1929,-473.25 1750,-473.25"/>
<text text-anchor="start" x="1754" y="-479.7" font-family="arial" font-size="14.00">KL&#45;4030 Driver B (Axis N+8)</text>
</g>
<!-- RB -->
<g id="node23" class="node">
<title>RB</title>
<polygon fill="#ffffff" stroke="black" points="2328.75,-601.38 2073,-601.38 2073,-460.88 2328.75,-460.88 2328.75,-601.38"/>
<polygon fill="none" stroke="black" points="2073,-577.63 2073,-601.38 2328.75,-601.38 2328.75,-577.63 2073,-577.63"/>
<text text-anchor="start" x="2191.5" y="-584.08" font-family="arial" font-size="14.00">RB</text>
<polygon fill="none" stroke="black" points="2073,-553.88 2073,-577.63 2328.75,-577.63 2328.75,-553.88 2073,-553.88"/>
<text text-anchor="start" x="2193.75" y="-560.33" font-family="arial" font-size="14.00">1x</text>
<text text-anchor="start" x="2119.25" y="-538.58" font-family="arial" font-size="14.00"> </text>
<text text-anchor="start" x="2075" y="-518.83" font-family="arial" font-size="14.00">DRV_B:6:ENA&#45;</text>
<text text-anchor="start" x="2171.25" y="-518.83" font-family="arial" font-size="14.00"> &#160;&#160;&#160;&#160;1:BK &#160;&#160;&#160;</text>
<text text-anchor="start" x="2238.25" y="-518.83" font-family="arial" font-size="14.00">EXT5V:2:GND</text>
<polygon fill="#000000" stroke="none" points="2073,-512.38 2073,-514.38 2328.75,-514.38 2328.75,-512.38 2073,-512.38"/>
<polygon fill="#000000" stroke="none" points="2073,-510.38 2073,-512.38 2328.75,-512.38 2328.75,-510.38 2073,-510.38"/>
<polygon fill="#000000" stroke="none" points="2073,-508.38 2073,-510.38 2328.75,-510.38 2328.75,-508.38 2073,-508.38"/>
<polygon fill="#000000" stroke="none" points="2073,-506.38 2073,-508.38 2328.75,-508.38 2328.75,-506.38 2073,-506.38"/>
<polygon fill="#000000" stroke="none" points="2073,-504.38 2073,-506.38 2328.75,-506.38 2328.75,-504.38 2073,-504.38"/>
<text text-anchor="start" x="2119.25" y="-489.08" font-family="arial" font-size="14.00"> </text>
<polygon fill="none" stroke="black" points="2073,-460.88 2073,-484.63 2328.75,-484.63 2328.75,-460.88 2073,-460.88"/>
<text text-anchor="start" x="2139" y="-467.33" font-family="arial" font-size="14.00">Driver B ENA&#45; return</text>
</g>
<!-- DRV_B&#45;&#45;RB -->
<g id="edge31" class="edge">
<title>DRV_B:e&#45;&#45;RB:w</title>
<path fill="none" stroke="#000000" stroke-width="2" d="M1929,-504.88C1993.13,-504.88 2009.13,-505.38 2073,-505.38"/>
<path fill="none" stroke="#000000" stroke-width="2" d="M1929,-506.88C1993.06,-506.88 2009.06,-507.38 2073,-507.38"/>
<path fill="none" stroke="#000000" stroke-width="2" d="M1929,-508.88C1993,-508.88 2009,-509.38 2073,-509.38"/>
<path fill="none" stroke="#000000" stroke-width="2" d="M1929,-510.88C1992.94,-510.88 2008.94,-511.38 2073,-511.38"/>
<path fill="none" stroke="#000000" stroke-width="2" d="M1929,-512.88C1992.88,-512.88 2008.88,-513.38 2073,-513.38"/>
</g>
<!-- TIE_0V -->
<g id="node4" class="node">
<title>TIE_0V</title>
<polygon fill="#ffffff" stroke="black" points="1152.5,-785.88 1077,-785.88 1077,-738.38 1152.5,-738.38 1152.5,-785.88"/>
<polygon fill="none" stroke="black" points="1077,-762.13 1077,-785.88 1152.5,-785.88 1152.5,-762.13 1077,-762.13"/>
<text text-anchor="start" x="1096.38" y="-768.58" font-family="arial" font-size="14.00">Splice</text>
<polygon fill="none" stroke="black" points="1077,-738.38 1077,-762.13 1152.5,-762.13 1152.5,-738.38 1077,-738.38"/>
<text text-anchor="start" x="1081" y="-744.83" font-family="arial" font-size="14.00">0V tie point</text>
</g>
<!-- GND_A1 -->
<g id="node13" class="node">
<title>GND_A1</title>
<polygon fill="#ffffff" stroke="black" points="1601.13,-1025.38 1431.63,-1025.38 1431.63,-884.88 1601.13,-884.88 1601.13,-1025.38"/>
<polygon fill="none" stroke="black" points="1431.63,-1001.63 1431.63,-1025.38 1601.13,-1025.38 1601.13,-1001.63 1431.63,-1001.63"/>
<text text-anchor="start" x="1489" y="-1008.08" font-family="arial" font-size="14.00">GND_A1</text>
<polygon fill="none" stroke="black" points="1431.63,-977.88 1431.63,-1001.63 1601.13,-1001.63 1601.13,-977.88 1431.63,-977.88"/>
<text text-anchor="start" x="1509.25" y="-984.33" font-family="arial" font-size="14.00">1x</text>
<text text-anchor="start" x="1433.63" y="-962.58" font-family="arial" font-size="14.00"> </text>
<text text-anchor="start" x="1441.38" y="-942.83" font-family="arial" font-size="14.00"> &#160;&#160;&#160;&#160;1:BK &#160;&#160;&#160;</text>
<text text-anchor="start" x="1508.38" y="-942.83" font-family="arial" font-size="14.00">DRV_A:2:PUL&#45;</text>
<polygon fill="#000000" stroke="none" points="1431.63,-936.38 1431.63,-938.38 1601.13,-938.38 1601.13,-936.38 1431.63,-936.38"/>
<polygon fill="#000000" stroke="none" points="1431.63,-934.38 1431.63,-936.38 1601.13,-936.38 1601.13,-934.38 1431.63,-934.38"/>
<polygon fill="#000000" stroke="none" points="1431.63,-932.38 1431.63,-934.38 1601.13,-934.38 1601.13,-932.38 1431.63,-932.38"/>
<polygon fill="#000000" stroke="none" points="1431.63,-930.38 1431.63,-932.38 1601.13,-932.38 1601.13,-930.38 1431.63,-930.38"/>
<polygon fill="#000000" stroke="none" points="1431.63,-928.38 1431.63,-930.38 1601.13,-930.38 1601.13,-928.38 1431.63,-928.38"/>
<text text-anchor="start" x="1433.63" y="-913.08" font-family="arial" font-size="14.00"> </text>
<polygon fill="none" stroke="black" points="1431.63,-884.88 1431.63,-908.63 1601.13,-908.63 1601.13,-884.88 1431.63,-884.88"/>
<text text-anchor="start" x="1452.63" y="-891.33" font-family="arial" font-size="14.00">Driver A PUL&#45; ground</text>
</g>
<!-- TIE_0V&#45;&#45;GND_A1 -->
<g id="edge11" class="edge">
<title>TIE_0V:e&#45;&#45;GND_A1:w</title>
<path fill="none" stroke="#000000" stroke-width="2" d="M1153.5,-758.13C1302.28,-762.42 1289.83,-933.67 1430.63,-929.38"/>
<path fill="none" stroke="#000000" stroke-width="2" d="M1153.5,-760.13C1300.28,-762.27 1287.83,-933.52 1430.63,-931.38"/>
<path fill="none" stroke="#000000" stroke-width="2" d="M1153.5,-762.13C1298.29,-762.13 1285.84,-933.38 1430.63,-933.38"/>
<path fill="none" stroke="#000000" stroke-width="2" d="M1153.5,-764.13C1296.29,-761.98 1283.85,-933.23 1430.63,-935.38"/>
<path fill="none" stroke="#000000" stroke-width="2" d="M1153.5,-766.13C1294.3,-761.84 1281.85,-933.09 1430.63,-937.38"/>
</g>
<!-- GND_A2 -->
<g id="node14" class="node">
<title>GND_A2</title>
<polygon fill="#ffffff" stroke="black" points="1599.63,-860.38 1433.13,-860.38 1433.13,-719.88 1599.63,-719.88 1599.63,-860.38"/>
<polygon fill="none" stroke="black" points="1433.13,-836.63 1433.13,-860.38 1599.63,-860.38 1599.63,-836.63 1433.13,-836.63"/>
<text text-anchor="start" x="1489" y="-843.08" font-family="arial" font-size="14.00">GND_A2</text>
<polygon fill="none" stroke="black" points="1433.13,-812.88 1433.13,-836.63 1599.63,-836.63 1599.63,-812.88 1433.13,-812.88"/>
<text text-anchor="start" x="1509.25" y="-819.33" font-family="arial" font-size="14.00">1x</text>
<text text-anchor="start" x="1435.13" y="-797.58" font-family="arial" font-size="14.00"> </text>
<text text-anchor="start" x="1442.88" y="-777.83" font-family="arial" font-size="14.00"> &#160;&#160;&#160;&#160;1:BK &#160;&#160;&#160;</text>
<text text-anchor="start" x="1509.88" y="-777.83" font-family="arial" font-size="14.00">DRV_A:4:DIR&#45;</text>
<polygon fill="#000000" stroke="none" points="1433.13,-771.38 1433.13,-773.38 1599.63,-773.38 1599.63,-771.38 1433.13,-771.38"/>
<polygon fill="#000000" stroke="none" points="1433.13,-769.38 1433.13,-771.38 1599.63,-771.38 1599.63,-769.38 1433.13,-769.38"/>
<polygon fill="#000000" stroke="none" points="1433.13,-767.38 1433.13,-769.38 1599.63,-769.38 1599.63,-767.38 1433.13,-767.38"/>
<polygon fill="#000000" stroke="none" points="1433.13,-765.38 1433.13,-767.38 1599.63,-767.38 1599.63,-765.38 1433.13,-765.38"/>
<polygon fill="#000000" stroke="none" points="1433.13,-763.38 1433.13,-765.38 1599.63,-765.38 1599.63,-763.38 1433.13,-763.38"/>
<text text-anchor="start" x="1435.13" y="-748.08" font-family="arial" font-size="14.00"> </text>
<polygon fill="none" stroke="black" points="1433.13,-719.88 1433.13,-743.63 1599.63,-743.63 1599.63,-719.88 1433.13,-719.88"/>
<text text-anchor="start" x="1454.13" y="-726.33" font-family="arial" font-size="14.00">Driver A DIR&#45; ground</text>
</g>
<!-- TIE_0V&#45;&#45;GND_A2 -->
<g id="edge13" class="edge">
<title>TIE_0V:e&#45;&#45;GND_A2:w</title>
<path fill="none" stroke="#000000" stroke-width="2" d="M1153.5,-758.13C1278.16,-758.21 1309.05,-764.46 1432.13,-764.38"/>
<path fill="none" stroke="#000000" stroke-width="2" d="M1153.5,-760.13C1277.76,-760.17 1308.66,-766.42 1432.13,-766.38"/>
<path fill="none" stroke="#000000" stroke-width="2" d="M1153.5,-762.13C1277.37,-762.13 1308.26,-768.38 1432.13,-768.38"/>
<path fill="none" stroke="#000000" stroke-width="2" d="M1153.5,-764.13C1276.97,-764.09 1307.86,-770.34 1432.13,-770.38"/>
<path fill="none" stroke="#000000" stroke-width="2" d="M1153.5,-766.13C1276.57,-766.05 1307.47,-772.3 1432.13,-772.38"/>
</g>
<!-- GND_B1 -->
<g id="node15" class="node">
<title>GND_B1</title>
<polygon fill="#ffffff" stroke="black" points="1601.13,-695.38 1431.63,-695.38 1431.63,-554.88 1601.13,-554.88 1601.13,-695.38"/>
<polygon fill="none" stroke="black" points="1431.63,-671.63 1431.63,-695.38 1601.13,-695.38 1601.13,-671.63 1431.63,-671.63"/>
<text text-anchor="start" x="1489" y="-678.08" font-family="arial" font-size="14.00">GND_B1</text>
<polygon fill="none" stroke="black" points="1431.63,-647.88 1431.63,-671.63 1601.13,-671.63 1601.13,-647.88 1431.63,-647.88"/>
<text text-anchor="start" x="1509.25" y="-654.33" font-family="arial" font-size="14.00">1x</text>
<text text-anchor="start" x="1433.63" y="-632.58" font-family="arial" font-size="14.00"> </text>
<text text-anchor="start" x="1441.38" y="-612.83" font-family="arial" font-size="14.00"> &#160;&#160;&#160;&#160;1:BK &#160;&#160;&#160;</text>
<text text-anchor="start" x="1508.38" y="-612.83" font-family="arial" font-size="14.00">DRV_B:2:PUL&#45;</text>
<polygon fill="#000000" stroke="none" points="1431.63,-606.38 1431.63,-608.38 1601.13,-608.38 1601.13,-606.38 1431.63,-606.38"/>
<polygon fill="#000000" stroke="none" points="1431.63,-604.38 1431.63,-606.38 1601.13,-606.38 1601.13,-604.38 1431.63,-604.38"/>
<polygon fill="#000000" stroke="none" points="1431.63,-602.38 1431.63,-604.38 1601.13,-604.38 1601.13,-602.38 1431.63,-602.38"/>
<polygon fill="#000000" stroke="none" points="1431.63,-600.38 1431.63,-602.38 1601.13,-602.38 1601.13,-600.38 1431.63,-600.38"/>
<polygon fill="#000000" stroke="none" points="1431.63,-598.38 1431.63,-600.38 1601.13,-600.38 1601.13,-598.38 1431.63,-598.38"/>
<text text-anchor="start" x="1433.63" y="-583.08" font-family="arial" font-size="14.00"> </text>
<polygon fill="none" stroke="black" points="1431.63,-554.88 1431.63,-578.63 1601.13,-578.63 1601.13,-554.88 1431.63,-554.88"/>
<text text-anchor="start" x="1451.88" y="-561.33" font-family="arial" font-size="14.00">Driver B PUL&#45; ground</text>
</g>
<!-- TIE_0V&#45;&#45;GND_B1 -->
<g id="edge15" class="edge">
<title>TIE_0V:e&#45;&#45;GND_B1:w</title>
<path fill="none" stroke="#000000" stroke-width="2" d="M1153.5,-758.13C1291.45,-762.3 1284.69,-603.55 1430.63,-599.38"/>
<path fill="none" stroke="#000000" stroke-width="2" d="M1153.5,-760.13C1293.45,-762.21 1286.68,-603.46 1430.63,-601.38"/>
<path fill="none" stroke="#000000" stroke-width="2" d="M1153.5,-762.13C1295.44,-762.13 1288.68,-603.38 1430.63,-603.38"/>
<path fill="none" stroke="#000000" stroke-width="2" d="M1153.5,-764.13C1297.44,-762.04 1290.68,-603.29 1430.63,-605.38"/>
<path fill="none" stroke="#000000" stroke-width="2" d="M1153.5,-766.13C1299.44,-761.96 1292.68,-603.21 1430.63,-607.38"/>
</g>
<!-- GND_B2 -->
<g id="node16" class="node">
<title>GND_B2</title>
<polygon fill="#ffffff" stroke="black" points="1599.63,-530.38 1433.13,-530.38 1433.13,-389.88 1599.63,-389.88 1599.63,-530.38"/>
<polygon fill="none" stroke="black" points="1433.13,-506.63 1433.13,-530.38 1599.63,-530.38 1599.63,-506.63 1433.13,-506.63"/>
<text text-anchor="start" x="1489" y="-513.08" font-family="arial" font-size="14.00">GND_B2</text>
<polygon fill="none" stroke="black" points="1433.13,-482.88 1433.13,-506.63 1599.63,-506.63 1599.63,-482.88 1433.13,-482.88"/>
<text text-anchor="start" x="1509.25" y="-489.33" font-family="arial" font-size="14.00">1x</text>
<text text-anchor="start" x="1435.13" y="-467.58" font-family="arial" font-size="14.00"> </text>
<text text-anchor="start" x="1442.88" y="-447.83" font-family="arial" font-size="14.00"> &#160;&#160;&#160;&#160;1:BK &#160;&#160;&#160;</text>
<text text-anchor="start" x="1509.88" y="-447.83" font-family="arial" font-size="14.00">DRV_B:4:DIR&#45;</text>
<polygon fill="#000000" stroke="none" points="1433.13,-441.38 1433.13,-443.38 1599.63,-443.38 1599.63,-441.38 1433.13,-441.38"/>
<polygon fill="#000000" stroke="none" points="1433.13,-439.38 1433.13,-441.38 1599.63,-441.38 1599.63,-439.38 1433.13,-439.38"/>
<polygon fill="#000000" stroke="none" points="1433.13,-437.38 1433.13,-439.38 1599.63,-439.38 1599.63,-437.38 1433.13,-437.38"/>
<polygon fill="#000000" stroke="none" points="1433.13,-435.38 1433.13,-437.38 1599.63,-437.38 1599.63,-435.38 1433.13,-435.38"/>
<polygon fill="#000000" stroke="none" points="1433.13,-433.38 1433.13,-435.38 1599.63,-435.38 1599.63,-433.38 1433.13,-433.38"/>
<text text-anchor="start" x="1435.13" y="-418.08" font-family="arial" font-size="14.00"> </text>
<polygon fill="none" stroke="black" points="1433.13,-389.88 1433.13,-413.63 1599.63,-413.63 1599.63,-389.88 1433.13,-389.88"/>
<text text-anchor="start" x="1453.38" y="-396.33" font-family="arial" font-size="14.00">Driver B DIR&#45; ground</text>
</g>
<!-- TIE_0V&#45;&#45;GND_B2 -->
<g id="edge17" class="edge">
<title>TIE_0V:e&#45;&#45;GND_B2:w</title>
<path fill="none" stroke="#000000" stroke-width="2" d="M1153.5,-758.13C1339.52,-763.32 1238.47,-439.57 1432.13,-434.38"/>
<path fill="none" stroke="#000000" stroke-width="2" d="M1153.5,-760.13C1341.43,-762.72 1240.38,-438.97 1432.13,-436.38"/>
<path fill="none" stroke="#000000" stroke-width="2" d="M1153.5,-762.13C1343.34,-762.13 1242.29,-438.38 1432.13,-438.38"/>
<path fill="none" stroke="#000000" stroke-width="2" d="M1153.5,-764.13C1345.25,-761.53 1244.2,-437.78 1432.13,-440.38"/>
<path fill="none" stroke="#000000" stroke-width="2" d="M1153.5,-766.13C1347.16,-760.94 1246.11,-437.19 1432.13,-442.38"/>
</g>
<!-- EXT5V -->
<g id="node5" class="node">
<title>EXT5V</title>
<polygon fill="#ffffff" stroke="black" points="2642.75,-592.5 2472.75,-592.5 2472.75,-473.75 2642.75,-473.75 2642.75,-592.5"/>
<polygon fill="none" stroke="black" points="2472.75,-568.75 2472.75,-592.5 2642.75,-592.5 2642.75,-568.75 2472.75,-568.75"/>
<text text-anchor="start" x="2536.38" y="-575.2" font-family="arial" font-size="14.00">EXT5V</text>
<polygon fill="none" stroke="black" points="2472.75,-545 2472.75,-568.75 2584.38,-568.75 2584.38,-545 2472.75,-545"/>
<text text-anchor="start" x="2486.94" y="-551.45" font-family="arial" font-size="14.00">Power Supply</text>
<polygon fill="none" stroke="black" points="2584.38,-545 2584.38,-568.75 2642.75,-568.75 2642.75,-545 2584.38,-545"/>
<text text-anchor="start" x="2598.56" y="-551.45" font-family="arial" font-size="14.00">2&#45;pin</text>
<polygon fill="none" stroke="black" points="2472.75,-521.25 2472.75,-545 2521.67,-545 2521.67,-521.25 2472.75,-521.25"/>
<text text-anchor="start" x="2493.46" y="-527.7" font-family="arial" font-size="14.00">1</text>
<polygon fill="none" stroke="black" points="2521.67,-521.25 2521.67,-545 2593.83,-545 2593.83,-521.25 2521.67,-521.25"/>
<text text-anchor="start" x="2545.38" y="-527.7" font-family="arial" font-size="14.00">+5V</text>
<polygon fill="none" stroke="black" points="2593.83,-521.25 2593.83,-545 2642.75,-545 2642.75,-521.25 2593.83,-521.25"/>
<text text-anchor="start" x="2614.54" y="-527.7" font-family="arial" font-size="14.00">1</text>
<polygon fill="none" stroke="black" points="2472.75,-497.5 2472.75,-521.25 2521.67,-521.25 2521.67,-497.5 2472.75,-497.5"/>
<text text-anchor="start" x="2493.46" y="-503.95" font-family="arial" font-size="14.00">2</text>
<polygon fill="none" stroke="black" points="2521.67,-497.5 2521.67,-521.25 2593.83,-521.25 2593.83,-497.5 2521.67,-497.5"/>
<text text-anchor="start" x="2542.38" y="-503.95" font-family="arial" font-size="14.00">GND</text>
<polygon fill="none" stroke="black" points="2593.83,-497.5 2593.83,-521.25 2642.75,-521.25 2642.75,-497.5 2593.83,-497.5"/>
<text text-anchor="start" x="2614.54" y="-503.95" font-family="arial" font-size="14.00">2</text>
<polygon fill="none" stroke="black" points="2472.75,-473.75 2472.75,-497.5 2642.75,-497.5 2642.75,-473.75 2472.75,-473.75"/>
<text text-anchor="start" x="2476.75" y="-480.2" font-family="arial" font-size="14.00">External 5V (enable circuit)</text>
</g>
<!-- PWR -->
<g id="node17" class="node">
<title>PWR</title>
<polygon fill="#ffffff" stroke="black" points="3040.25,-502.38 2786.75,-502.38 2786.75,-361.88 3040.25,-361.88 3040.25,-502.38"/>
<polygon fill="none" stroke="black" points="2786.75,-478.63 2786.75,-502.38 3040.25,-502.38 3040.25,-478.63 2786.75,-478.63"/>
<text text-anchor="start" x="2897.38" y="-485.08" font-family="arial" font-size="14.00">PWR</text>
<polygon fill="none" stroke="black" points="2786.75,-454.88 2786.75,-478.63 3040.25,-478.63 3040.25,-454.88 2786.75,-454.88"/>
<text text-anchor="start" x="2906.38" y="-461.33" font-family="arial" font-size="14.00">1x</text>
<text text-anchor="start" x="2828.13" y="-439.58" font-family="arial" font-size="14.00"> </text>
<text text-anchor="start" x="2788.75" y="-419.83" font-family="arial" font-size="14.00">EXT5V:1:+5V</text>
<text text-anchor="start" x="2875.25" y="-419.83" font-family="arial" font-size="14.00"> &#160;&#160;&#160;&#160;1:RD &#160;&#160;&#160;</text>
<text text-anchor="start" x="2943.75" y="-419.83" font-family="arial" font-size="14.00">ESTOP:1:COM</text>
<polygon fill="#000000" stroke="none" points="2786.75,-413.38 2786.75,-415.38 3040.25,-415.38 3040.25,-413.38 2786.75,-413.38"/>
<polygon fill="#ff0000" stroke="none" points="2786.75,-411.38 2786.75,-413.38 3040.25,-413.38 3040.25,-411.38 2786.75,-411.38"/>
<polygon fill="#ff0000" stroke="none" points="2786.75,-409.38 2786.75,-411.38 3040.25,-411.38 3040.25,-409.38 2786.75,-409.38"/>
<polygon fill="#ff0000" stroke="none" points="2786.75,-407.38 2786.75,-409.38 3040.25,-409.38 3040.25,-407.38 2786.75,-407.38"/>
<polygon fill="#000000" stroke="none" points="2786.75,-405.38 2786.75,-407.38 3040.25,-407.38 3040.25,-405.38 2786.75,-405.38"/>
<text text-anchor="start" x="2828.13" y="-390.08" font-family="arial" font-size="14.00"> </text>
<polygon fill="none" stroke="black" points="2786.75,-361.88 2786.75,-385.63 3040.25,-385.63 3040.25,-361.88 2786.75,-361.88"/>
<text text-anchor="start" x="2872.25" y="-368.33" font-family="arial" font-size="14.00">+5V to E&#45;stop</text>
</g>
<!-- EXT5V&#45;&#45;PWR -->
<g id="edge19" class="edge">
<title>EXT5V:e&#45;&#45;PWR:w</title>
<path fill="none" stroke="#000000" stroke-width="2" d="M2642.75,-529.13C2722.92,-533.9 2698.73,-411.15 2786.75,-406.38"/>
<path fill="none" stroke="#ff0000" stroke-width="2" d="M2642.75,-531.13C2724.89,-533.51 2700.69,-410.76 2786.75,-408.38"/>
<path fill="none" stroke="#ff0000" stroke-width="2" d="M2642.75,-533.13C2726.85,-533.13 2702.65,-410.38 2786.75,-410.38"/>
<path fill="none" stroke="#ff0000" stroke-width="2" d="M2642.75,-535.13C2728.81,-532.74 2704.62,-409.99 2786.75,-412.38"/>
<path fill="none" stroke="#000000" stroke-width="2" d="M2642.75,-537.13C2730.77,-532.35 2706.58,-409.6 2786.75,-414.38"/>
</g>
<!-- ESTOP -->
<g id="node6" class="node">
<title>ESTOP</title>
<polygon fill="#ffffff" stroke="black" points="3357.25,-409.5 3184.25,-409.5 3184.25,-290.75 3357.25,-290.75 3357.25,-409.5"/>
<polygon fill="none" stroke="black" points="3184.25,-385.75 3184.25,-409.5 3357.25,-409.5 3357.25,-385.75 3184.25,-385.75"/>
<text text-anchor="start" x="3247.5" y="-392.2" font-family="arial" font-size="14.00">ESTOP</text>
<polygon fill="none" stroke="black" points="3184.25,-362 3184.25,-385.75 3283.75,-385.75 3283.75,-362 3184.25,-362"/>
<text text-anchor="start" x="3188.25" y="-368.45" font-family="arial" font-size="14.00">NC Pushbutton</text>
<polygon fill="none" stroke="black" points="3283.75,-362 3283.75,-385.75 3321.75,-385.75 3321.75,-362 3283.75,-362"/>
<text text-anchor="start" x="3287.75" y="-368.45" font-family="arial" font-size="14.00">2&#45;pin</text>
<polygon fill="none" stroke="black" points="3321.75,-362 3321.75,-385.75 3349.25,-385.75 3349.25,-362 3321.75,-362"/>
<text text-anchor="start" x="3325.75" y="-368.45" font-family="arial" font-size="14.00">RD</text>
<polygon fill="#ff0000" stroke="none" points="3349.25,-362 3349.25,-385.75 3357.25,-385.75 3357.25,-362 3349.25,-362"/>
<polygon fill="none" stroke="black" points="3349.25,-362 3349.25,-385.75 3357.25,-385.75 3357.25,-362 3349.25,-362"/>
<polygon fill="none" stroke="black" points="3184.25,-338.25 3184.25,-362 3233.42,-362 3233.42,-338.25 3184.25,-338.25"/>
<text text-anchor="start" x="3205.08" y="-344.7" font-family="arial" font-size="14.00">1</text>
<polygon fill="none" stroke="black" points="3233.42,-338.25 3233.42,-362 3308.08,-362 3308.08,-338.25 3233.42,-338.25"/>
<text text-anchor="start" x="3254.25" y="-344.7" font-family="arial" font-size="14.00">COM</text>
<polygon fill="none" stroke="black" points="3308.08,-338.25 3308.08,-362 3357.25,-362 3357.25,-338.25 3308.08,-338.25"/>
<text text-anchor="start" x="3328.92" y="-344.7" font-family="arial" font-size="14.00">1</text>
<polygon fill="none" stroke="black" points="3184.25,-314.5 3184.25,-338.25 3233.42,-338.25 3233.42,-314.5 3184.25,-314.5"/>
<text text-anchor="start" x="3205.08" y="-320.95" font-family="arial" font-size="14.00">2</text>
<polygon fill="none" stroke="black" points="3233.42,-314.5 3233.42,-338.25 3308.08,-338.25 3308.08,-314.5 3233.42,-314.5"/>
<text text-anchor="start" x="3261" y="-320.95" font-family="arial" font-size="14.00">NC</text>
<polygon fill="none" stroke="black" points="3308.08,-314.5 3308.08,-338.25 3357.25,-338.25 3357.25,-314.5 3308.08,-314.5"/>
<text text-anchor="start" x="3328.92" y="-320.95" font-family="arial" font-size="14.00">2</text>
<polygon fill="none" stroke="black" points="3184.25,-290.75 3184.25,-314.5 3357.25,-314.5 3357.25,-290.75 3184.25,-290.75"/>
<text text-anchor="start" x="3220.5" y="-297.2" font-family="arial" font-size="14.00">Emergency Stop</text>
</g>
<!-- ES -->
<g id="node18" class="node">
<title>ES</title>
<polygon fill="#ffffff" stroke="black" points="3814,-357.38 3501.25,-357.38 3501.25,-216.88 3814,-216.88 3814,-357.38"/>
<polygon fill="none" stroke="black" points="3501.25,-333.63 3501.25,-357.38 3814,-357.38 3814,-333.63 3501.25,-333.63"/>
<text text-anchor="start" x="3648.63" y="-340.08" font-family="arial" font-size="14.00">ES</text>
<polygon fill="none" stroke="black" points="3501.25,-309.88 3501.25,-333.63 3814,-333.63 3814,-309.88 3501.25,-309.88"/>
<text text-anchor="start" x="3650.5" y="-316.33" font-family="arial" font-size="14.00">1x</text>
<text text-anchor="start" x="3541.88" y="-294.58" font-family="arial" font-size="14.00"> </text>
<text text-anchor="start" x="3503.25" y="-274.83" font-family="arial" font-size="14.00">ESTOP:2:NC</text>
<text text-anchor="start" x="3588.25" y="-274.83" font-family="arial" font-size="14.00"> &#160;&#160;&#160;&#160;1:BU &#160;&#160;&#160;</text>
<text text-anchor="start" x="3656" y="-274.83" font-family="arial" font-size="14.00">MC508_STEP:7:WDOG+</text>
<polygon fill="#000000" stroke="none" points="3501.25,-268.38 3501.25,-270.38 3814,-270.38 3814,-268.38 3501.25,-268.38"/>
<polygon fill="#0066ff" stroke="none" points="3501.25,-266.38 3501.25,-268.38 3814,-268.38 3814,-266.38 3501.25,-266.38"/>
<polygon fill="#0066ff" stroke="none" points="3501.25,-264.38 3501.25,-266.38 3814,-266.38 3814,-264.38 3501.25,-264.38"/>
<polygon fill="#0066ff" stroke="none" points="3501.25,-262.38 3501.25,-264.38 3814,-264.38 3814,-262.38 3501.25,-262.38"/>
<polygon fill="#000000" stroke="none" points="3501.25,-260.38 3501.25,-262.38 3814,-262.38 3814,-260.38 3501.25,-260.38"/>
<text text-anchor="start" x="3541.88" y="-245.08" font-family="arial" font-size="14.00"> </text>
<polygon fill="none" stroke="black" points="3501.25,-216.88 3501.25,-240.63 3814,-240.63 3814,-216.88 3501.25,-216.88"/>
<text text-anchor="start" x="3563.13" y="-223.33" font-family="arial" font-size="14.00">E&#45;stop to WDOG+ (SCSI pin 7)</text>
</g>
<!-- ESTOP&#45;&#45;ES -->
<g id="edge21" class="edge">
<title>ESTOP:e&#45;&#45;ES:w</title>
<path fill="none" stroke="#000000" stroke-width="2" d="M3357.25,-322.38C3422.77,-326.05 3427.76,-265.05 3501.25,-261.38"/>
<path fill="none" stroke="#0066ff" stroke-width="2" d="M3357.25,-324.38C3424.76,-326.21 3429.75,-265.21 3501.25,-263.38"/>
<path fill="none" stroke="#0066ff" stroke-width="2" d="M3357.25,-326.38C3426.76,-326.38 3431.75,-265.38 3501.25,-265.38"/>
<path fill="none" stroke="#0066ff" stroke-width="2" d="M3357.25,-328.38C3428.75,-326.54 3433.74,-265.54 3501.25,-267.38"/>
<path fill="none" stroke="#000000" stroke-width="2" d="M3357.25,-330.38C3430.74,-326.7 3435.73,-265.7 3501.25,-269.38"/>
</g>
<!-- TIE_WDOG -->
<g id="node7" class="node">
<title>TIE_WDOG</title>
<polygon fill="#ffffff" stroke="black" points="1169.38,-297.88 1060.13,-297.88 1060.13,-250.38 1169.38,-250.38 1169.38,-297.88"/>
<polygon fill="none" stroke="black" points="1060.13,-274.13 1060.13,-297.88 1169.38,-297.88 1169.38,-274.13 1060.13,-274.13"/>
<text text-anchor="start" x="1096.38" y="-280.58" font-family="arial" font-size="14.00">Splice</text>
<polygon fill="none" stroke="black" points="1060.13,-250.38 1060.13,-274.13 1169.38,-274.13 1169.38,-250.38 1060.13,-250.38"/>
<text text-anchor="start" x="1064.13" y="-256.83" font-family="arial" font-size="14.00">WDOG&#45; tie point</text>
</g>
<!-- WDA -->
<g id="node20" class="node">
<title>WDA</title>
<polygon fill="#ffffff" stroke="black" points="1606,-365.38 1426.75,-365.38 1426.75,-224.88 1606,-224.88 1606,-365.38"/>
<polygon fill="none" stroke="black" points="1426.75,-341.63 1426.75,-365.38 1606,-365.38 1606,-341.63 1426.75,-341.63"/>
<text text-anchor="start" x="1500.25" y="-348.08" font-family="arial" font-size="14.00">WDA</text>
<polygon fill="none" stroke="black" points="1426.75,-317.88 1426.75,-341.63 1606,-341.63 1606,-317.88 1426.75,-317.88"/>
<text text-anchor="start" x="1509.25" y="-324.33" font-family="arial" font-size="14.00">1x</text>
<text text-anchor="start" x="1428.75" y="-302.58" font-family="arial" font-size="14.00"> </text>
<text text-anchor="start" x="1436.5" y="-282.83" font-family="arial" font-size="14.00"> &#160;&#160;&#160;&#160;1:OG &#160;&#160;&#160;</text>
<text text-anchor="start" x="1508" y="-282.83" font-family="arial" font-size="14.00">DRV_A:5:ENA+</text>
<polygon fill="#000000" stroke="none" points="1426.75,-276.38 1426.75,-278.38 1606,-278.38 1606,-276.38 1426.75,-276.38"/>
<polygon fill="#ff8000" stroke="none" points="1426.75,-274.38 1426.75,-276.38 1606,-276.38 1606,-274.38 1426.75,-274.38"/>
<polygon fill="#ff8000" stroke="none" points="1426.75,-272.38 1426.75,-274.38 1606,-274.38 1606,-272.38 1426.75,-272.38"/>
<polygon fill="#ff8000" stroke="none" points="1426.75,-270.38 1426.75,-272.38 1606,-272.38 1606,-270.38 1426.75,-270.38"/>
<polygon fill="#000000" stroke="none" points="1426.75,-268.38 1426.75,-270.38 1606,-270.38 1606,-268.38 1426.75,-268.38"/>
<text text-anchor="start" x="1428.75" y="-253.08" font-family="arial" font-size="14.00"> </text>
<polygon fill="none" stroke="black" points="1426.75,-224.88 1426.75,-248.63 1606,-248.63 1606,-224.88 1426.75,-224.88"/>
<text text-anchor="start" x="1431.63" y="-231.33" font-family="arial" font-size="14.00">WDOG tie to Driver A ENA+</text>
</g>
<!-- TIE_WDOG&#45;&#45;WDA -->
<g id="edge25" class="edge">
<title>TIE_WDOG:e&#45;&#45;WDA:w</title>
<path fill="none" stroke="#000000" stroke-width="2" d="M1170.38,-270.13C1284.22,-270.13 1312.7,-269.38 1426.75,-269.38"/>
<path fill="none" stroke="#ff8000" stroke-width="2" d="M1170.38,-272.13C1284.27,-272.13 1312.75,-271.38 1426.75,-271.38"/>
<path fill="none" stroke="#ff8000" stroke-width="2" d="M1170.38,-274.13C1284.32,-274.13 1312.81,-273.38 1426.75,-273.38"/>
<path fill="none" stroke="#ff8000" stroke-width="2" d="M1170.38,-276.13C1284.37,-276.13 1312.86,-275.38 1426.75,-275.38"/>
<path fill="none" stroke="#000000" stroke-width="2" d="M1170.38,-278.13C1284.43,-278.13 1312.91,-277.38 1426.75,-277.38"/>
</g>
<!-- WDB -->
<g id="node21" class="node">
<title>WDB</title>
<polygon fill="#ffffff" stroke="black" points="1606,-200.38 1426.75,-200.38 1426.75,-59.88 1606,-59.88 1606,-200.38"/>
<polygon fill="none" stroke="black" points="1426.75,-176.63 1426.75,-200.38 1606,-200.38 1606,-176.63 1426.75,-176.63"/>
<text text-anchor="start" x="1500.25" y="-183.08" font-family="arial" font-size="14.00">WDB</text>
<polygon fill="none" stroke="black" points="1426.75,-152.88 1426.75,-176.63 1606,-176.63 1606,-152.88 1426.75,-152.88"/>
<text text-anchor="start" x="1509.25" y="-159.33" font-family="arial" font-size="14.00">1x</text>
<text text-anchor="start" x="1428.75" y="-137.58" font-family="arial" font-size="14.00"> </text>
<text text-anchor="start" x="1436.5" y="-117.83" font-family="arial" font-size="14.00"> &#160;&#160;&#160;&#160;1:OG &#160;&#160;&#160;</text>
<text text-anchor="start" x="1508" y="-117.83" font-family="arial" font-size="14.00">DRV_B:5:ENA+</text>
<polygon fill="#000000" stroke="none" points="1426.75,-111.38 1426.75,-113.38 1606,-113.38 1606,-111.38 1426.75,-111.38"/>
<polygon fill="#ff8000" stroke="none" points="1426.75,-109.38 1426.75,-111.38 1606,-111.38 1606,-109.38 1426.75,-109.38"/>
<polygon fill="#ff8000" stroke="none" points="1426.75,-107.38 1426.75,-109.38 1606,-109.38 1606,-107.38 1426.75,-107.38"/>
<polygon fill="#ff8000" stroke="none" points="1426.75,-105.38 1426.75,-107.38 1606,-107.38 1606,-105.38 1426.75,-105.38"/>
<polygon fill="#000000" stroke="none" points="1426.75,-103.38 1426.75,-105.38 1606,-105.38 1606,-103.38 1426.75,-103.38"/>
<text text-anchor="start" x="1428.75" y="-88.08" font-family="arial" font-size="14.00"> </text>
<polygon fill="none" stroke="black" points="1426.75,-59.88 1426.75,-83.63 1606,-83.63 1606,-59.88 1426.75,-59.88"/>
<text text-anchor="start" x="1430.88" y="-66.33" font-family="arial" font-size="14.00">WDOG tie to Driver B ENA+</text>
</g>
<!-- TIE_WDOG&#45;&#45;WDB -->
<g id="edge27" class="edge">
<title>TIE_WDOG:e&#45;&#45;WDB:w</title>
<path fill="none" stroke="#000000" stroke-width="2" d="M1170.38,-270.13C1302.08,-274.49 1287.08,-108.74 1426.75,-104.38"/>
<path fill="none" stroke="#ff8000" stroke-width="2" d="M1170.38,-272.13C1304.07,-274.31 1289.07,-108.56 1426.75,-106.38"/>
<path fill="none" stroke="#ff8000" stroke-width="2" d="M1170.38,-274.13C1306.06,-274.13 1291.07,-108.38 1426.75,-108.38"/>
<path fill="none" stroke="#ff8000" stroke-width="2" d="M1170.38,-276.13C1308.05,-273.95 1293.06,-108.2 1426.75,-110.38"/>
<path fill="none" stroke="#000000" stroke-width="2" d="M1170.38,-278.13C1310.04,-273.77 1295.05,-108.02 1426.75,-112.38"/>
</g>
<!-- STEPA_PUL&#45;&#45;DRV_A -->
<g id="edge2" class="edge">
<title>STEPA_PUL:e&#45;&#45;DRV_A:w</title>
<path fill="none" stroke="#000000" stroke-width="2" d="M1281.88,-1257.38C1430.94,-1257.43 1488.56,-1267.06 1603.58,-1177.94 1711.8,-1099.72 1616.63,-913.45 1757.63,-907.63"/>
<path fill="none" stroke="#000000" stroke-width="2" d="M1281.88,-1259.38C1430.61,-1259.41 1488.23,-1269.03 1604.79,-1179.54 1713.59,-1098.81 1618.41,-912.54 1757.63,-909.63"/>
<path fill="none" stroke="#000000" stroke-width="2" d="M1281.88,-1261.38C1430.28,-1261.38 1487.9,-1271 1606,-1181.13 1715.37,-1097.9 1620.19,-911.63 1757.63,-911.63"/>
<path fill="none" stroke="#000000" stroke-width="2" d="M1281.88,-1263.38C1429.95,-1263.35 1487.57,-1272.97 1607.21,-1182.72 1717.15,-1096.99 1621.97,-910.72 1757.63,-913.63"/>
<path fill="none" stroke="#000000" stroke-width="2" d="M1281.88,-1265.38C1429.62,-1265.32 1487.24,-1274.95 1608.42,-1184.31 1718.93,-1096.08 1623.75,-909.81 1757.63,-915.63"/>
</g>
<!-- STEPA_DIR&#45;&#45;DRV_A -->
<g id="edge4" class="edge">
<title>STEPA_DIR:e&#45;&#45;DRV_A:w</title>
<path fill="none" stroke="#000000" stroke-width="2" d="M764.75,-1136.38C952.39,-1136.44 1445.63,-1222.13 1603.97,-1127.68 1720.01,-1063.67 1617.61,-865.97 1757.63,-860.13"/>
<path fill="none" stroke="#ff0000" stroke-width="2" d="M764.75,-1138.38C952.05,-1138.41 1445.29,-1224.1 1604.99,-1129.41 1721.78,-1062.75 1619.38,-865.05 1757.63,-862.13"/>
<path fill="none" stroke="#ff0000" stroke-width="2" d="M764.75,-1140.38C951.71,-1140.38 1444.95,-1226.07 1606,-1131.13 1723.56,-1061.83 1621.16,-864.13 1757.63,-864.13"/>
<path fill="none" stroke="#ff0000" stroke-width="2" d="M764.75,-1142.38C951.36,-1142.35 1444.6,-1228.04 1607.02,-1132.85 1725.34,-1060.91 1622.94,-863.21 1757.63,-866.13"/>
<path fill="none" stroke="#000000" stroke-width="2" d="M764.75,-1144.38C951.02,-1144.32 1444.26,-1230.01 1608.03,-1134.57 1727.11,-1059.99 1624.71,-862.29 1757.63,-868.13"/>
</g>
<!-- STEPB_PUL&#45;&#45;DRV_B -->
<g id="edge6" class="edge">
<title>STEPB_PUL:e&#45;&#45;DRV_B:w</title>
<path fill="none" stroke="#000000" stroke-width="2" d="M802.75,-971.38C875.13,-974.51 883.89,-1014.11 947.64,-1026.23 1154.42,-1073.67 1211.77,-1057.38 1426.92,-1066.13 1509.46,-1070.92 1544.65,-1114.42 1603.65,-1066.89 1770.1,-950.93 1539.93,-629.96 1750,-623.63"/>
<path fill="none" stroke="#90ee90" stroke-width="2" d="M802.75,-973.38C873.17,-974.95 881.93,-1014.54 947.19,-1028.18 1154.97,-1075.6 1212.32,-1059.31 1426.83,-1068.13 1507.9,-1072.18 1543.09,-1115.68 1604.83,-1068.51 1771.72,-949.77 1541.56,-628.79 1750,-625.63"/>
<path fill="none" stroke="#90ee90" stroke-width="2" d="M802.75,-975.38C871.22,-975.38 879.98,-1014.97 946.75,-1030.13 1155.51,-1077.52 1212.86,-1061.23 1426.75,-1070.13 1506.35,-1073.44 1541.54,-1116.94 1606,-1070.13 1773.35,-948.6 1543.18,-627.63 1750,-627.63"/>
<path fill="none" stroke="#90ee90" stroke-width="2" d="M802.75,-977.38C869.27,-975.81 878.03,-1015.4 946.31,-1032.08 1156.06,-1079.44 1213.41,-1063.16 1426.67,-1072.13 1504.79,-1074.7 1539.98,-1118.2 1607.18,-1071.75 1774.97,-947.44 1544.81,-626.46 1750,-629.63"/>
<path fill="none" stroke="#000000" stroke-width="2" d="M802.75,-979.38C867.31,-976.24 876.07,-1015.83 945.87,-1034.03 1156.6,-1081.37 1213.96,-1065.08 1426.58,-1074.12 1503.24,-1075.95 1538.43,-1119.46 1608.35,-1073.36 1776.6,-946.27 1546.43,-625.3 1750,-631.63"/>
</g>
<!-- STEPB_DIR&#45;&#45;DRV_B -->
<g id="edge8" class="edge">
<title>STEPB_DIR:e&#45;&#45;DRV_B:w</title>
<path fill="none" stroke="#000000" stroke-width="2" d="M1282.75,-922.38C1367.44,-926.99 1354.26,-1011.75 1428.04,-1033.34 1504.08,-1059.26 1543.66,-1080.73 1603.64,-1033.9 1774.49,-913.54 1533.81,-582.48 1750,-576.13"/>
<path fill="none" stroke="#ff66cc" stroke-width="2" d="M1282.75,-924.38C1365.47,-926.69 1352.29,-1011.44 1427.39,-1035.23 1503.13,-1061.02 1542.71,-1082.48 1604.82,-1035.52 1776.11,-912.37 1535.43,-581.3 1750,-578.13"/>
<path fill="none" stroke="#ff66cc" stroke-width="2" d="M1282.75,-926.38C1363.49,-926.38 1350.31,-1011.13 1426.75,-1037.13 1502.18,-1062.78 1541.76,-1084.24 1606,-1037.13 1777.73,-911.19 1537.04,-580.13 1750,-580.13"/>
<path fill="none" stroke="#ff66cc" stroke-width="2" d="M1282.75,-928.38C1361.51,-926.07 1348.33,-1010.83 1426.11,-1039.02 1501.22,-1064.54 1540.8,-1086 1607.18,-1038.74 1779.34,-910.01 1538.66,-578.95 1750,-582.13"/>
<path fill="none" stroke="#000000" stroke-width="2" d="M1282.75,-930.38C1359.54,-925.76 1346.36,-1010.52 1425.46,-1040.91 1500.27,-1066.29 1539.85,-1087.76 1608.37,-1040.35 1780.96,-908.84 1540.28,-577.78 1750,-584.13"/>
</g>
<!-- GND_SCSI&#45;&#45;TIE_0V -->
<g id="edge10" class="edge">
<title>GND_SCSI:e&#45;&#45;TIE_0V:w</title>
<path fill="none" stroke="#000000" stroke-width="2" d="M720.13,-757.38C878.37,-757.38 917.91,-758.13 1076,-758.13"/>
<path fill="none" stroke="#ffffff" stroke-width="2" d="M720.13,-759.38C878.33,-759.38 917.87,-760.13 1076,-760.13"/>
<path fill="none" stroke="#895956" stroke-width="2" d="M720.13,-761.38C878.29,-761.38 917.83,-762.13 1076,-762.13"/>
<path fill="none" stroke="#ffffff" stroke-width="2" d="M720.13,-763.38C878.25,-763.38 917.8,-764.13 1076,-764.13"/>
<path fill="none" stroke="#000000" stroke-width="2" d="M720.13,-765.38C878.22,-765.38 917.76,-766.13 1076,-766.13"/>
</g>
<!-- GND_A1&#45;&#45;DRV_A -->
<g id="edge12" class="edge">
<title>GND_A1:e&#45;&#45;DRV_A:w</title>
<path fill="none" stroke="#000000" stroke-width="2" d="M1602.13,-929.38C1670.26,-932.4 1681.74,-886.9 1757.63,-883.88"/>
<path fill="none" stroke="#000000" stroke-width="2" d="M1602.13,-931.38C1672.2,-932.89 1683.68,-887.39 1757.63,-885.88"/>
<path fill="none" stroke="#000000" stroke-width="2" d="M1602.13,-933.38C1674.13,-933.38 1685.62,-887.88 1757.63,-887.88"/>
<path fill="none" stroke="#000000" stroke-width="2" d="M1602.13,-935.38C1676.07,-933.87 1687.56,-888.37 1757.63,-889.88"/>
<path fill="none" stroke="#000000" stroke-width="2" d="M1602.13,-937.38C1678.01,-934.36 1689.5,-888.86 1757.63,-891.88"/>
</g>
<!-- GND_A2&#45;&#45;DRV_A -->
<g id="edge14" class="edge">
<title>GND_A2:e&#45;&#45;DRV_A:w</title>
<path fill="none" stroke="#000000" stroke-width="2" d="M1600.63,-764.38C1681.39,-768.19 1684.86,-840.19 1757.63,-836.38"/>
<path fill="none" stroke="#000000" stroke-width="2" d="M1600.63,-766.38C1679.39,-768.28 1682.86,-840.28 1757.63,-838.38"/>
<path fill="none" stroke="#000000" stroke-width="2" d="M1600.63,-768.38C1677.39,-768.38 1680.86,-840.38 1757.63,-840.38"/>
<path fill="none" stroke="#000000" stroke-width="2" d="M1600.63,-770.38C1675.39,-768.47 1678.86,-840.47 1757.63,-842.38"/>
<path fill="none" stroke="#000000" stroke-width="2" d="M1600.63,-772.38C1673.4,-768.57 1676.86,-840.57 1757.63,-844.38"/>
</g>
<!-- GND_B1&#45;&#45;DRV_B -->
<g id="edge16" class="edge">
<title>GND_B1:e&#45;&#45;DRV_B:w</title>
<path fill="none" stroke="#000000" stroke-width="2" d="M1602.13,-599.38C1667.97,-599.38 1684.4,-599.88 1750,-599.88"/>
<path fill="none" stroke="#000000" stroke-width="2" d="M1602.13,-601.38C1667.91,-601.38 1684.34,-601.88 1750,-601.88"/>
<path fill="none" stroke="#000000" stroke-width="2" d="M1602.13,-603.38C1667.85,-603.38 1684.28,-603.88 1750,-603.88"/>
<path fill="none" stroke="#000000" stroke-width="2" d="M1602.13,-605.38C1667.79,-605.38 1684.22,-605.88 1750,-605.88"/>
<path fill="none" stroke="#000000" stroke-width="2" d="M1602.13,-607.38C1667.73,-607.38 1684.16,-607.88 1750,-607.88"/>
</g>
<!-- GND_B2&#45;&#45;DRV_B -->
<g id="edge18" class="edge">
<title>GND_B2:e&#45;&#45;DRV_B:w</title>
<path fill="none" stroke="#000000" stroke-width="2" d="M1600.63,-434.38C1689.17,-439.04 1669.34,-557.04 1750,-552.38"/>
<path fill="none" stroke="#000000" stroke-width="2" d="M1600.63,-436.38C1687.2,-438.71 1667.37,-556.71 1750,-554.38"/>
<path fill="none" stroke="#000000" stroke-width="2" d="M1600.63,-438.38C1685.23,-438.38 1665.4,-556.38 1750,-556.38"/>
<path fill="none" stroke="#000000" stroke-width="2" d="M1600.63,-440.38C1683.26,-438.05 1663.42,-556.05 1750,-558.38"/>
<path fill="none" stroke="#000000" stroke-width="2" d="M1600.63,-442.38C1681.29,-437.71 1661.45,-555.71 1750,-560.38"/>
</g>
<!-- PWR&#45;&#45;ESTOP -->
<g id="edge20" class="edge">
<title>PWR:e&#45;&#45;ESTOP:w</title>
<path fill="none" stroke="#000000" stroke-width="2" d="M3040.25,-406.38C3105.64,-410.03 3110.89,-349.78 3184.25,-346.13"/>
<path fill="none" stroke="#ff0000" stroke-width="2" d="M3040.25,-408.38C3107.63,-410.2 3112.88,-349.95 3184.25,-348.13"/>
<path fill="none" stroke="#ff0000" stroke-width="2" d="M3040.25,-410.38C3109.63,-410.38 3114.87,-350.13 3184.25,-350.13"/>
<path fill="none" stroke="#ff0000" stroke-width="2" d="M3040.25,-412.38C3111.62,-410.55 3116.87,-350.3 3184.25,-352.13"/>
<path fill="none" stroke="#000000" stroke-width="2" d="M3040.25,-414.38C3113.61,-410.73 3118.86,-350.48 3184.25,-354.13"/>
</g>
<!-- ES&#45;&#45;MC508_STEP -->
<g id="edge22" class="edge">
<title>ES:e&#45;&#45;MC508_STEP:w</title>
<path fill="none" stroke="#000000" stroke-width="2" d="M3815,-261.38C3832.71,-266.45 3823.86,-234.58 3810.91,-219.42 3555.68,95.08 3325.32,-26.66 2914.5,-27.13 1113.75,-27.13 1113.75,-27.13 1113.75,-27.13 767.99,-24.94 695.14,-168.51 412.88,-377.35 209.77,-526.92 116.57,-553.93 24.45,-783.89 10.39,-818.35 -13.61,-867.26 19.75,-861.5"/>
<path fill="none" stroke="#0066ff" stroke-width="2" d="M3815,-263.38C3834.63,-265.91 3825.79,-234.05 3812.46,-218.15 3554.74,96.85 3324.38,-24.9 2914.5,-25.13 1113.75,-25.13 1113.75,-25.13 1113.75,-25.13 766.21,-24.03 693.36,-167.61 411.69,-375.74 209.21,-525 116.01,-552.01 22.6,-783.13 8.6,-817.47 -15.4,-866.38 19.75,-863.5"/>
<path fill="none" stroke="#0066ff" stroke-width="2" d="M3815,-265.38C3836.56,-265.38 3827.72,-233.51 3814,-216.88 3553.81,98.62 3323.45,-23.13 2914.5,-23.13 1113.75,-23.13 1113.75,-23.13 1113.75,-23.13 764.43,-23.13 691.57,-166.7 410.5,-374.13 208.66,-523.08 115.46,-550.09 20.75,-782.38 6.8,-816.59 -17.2,-865.5 19.75,-865.5"/>
<path fill="none" stroke="#0066ff" stroke-width="2" d="M3815,-267.38C3838.49,-264.84 3829.65,-232.98 3815.54,-215.61 3552.87,100.39 3322.51,-21.36 2914.5,-21.13 1113.75,-21.13 1113.75,-21.13 1113.75,-21.13 762.64,-22.22 689.79,-165.8 409.31,-372.52 208.1,-521.16 114.9,-548.17 18.9,-781.62 5.01,-815.71 -18.99,-864.62 19.75,-867.5"/>
<path fill="none" stroke="#000000" stroke-width="2" d="M3815,-269.38C3840.42,-264.31 3831.57,-232.44 3817.09,-214.33 3551.94,102.15 3321.58,-19.59 2914.5,-19.13 1113.75,-19.13 1113.75,-19.13 1113.75,-19.13 760.86,-21.32 688.01,-164.89 408.13,-370.91 207.54,-519.24 114.34,-546.25 17.05,-780.87 3.21,-814.83 -20.79,-863.74 19.75,-869.5"/>
</g>
<!-- WDOG_SCSI&#45;&#45;TIE_WDOG -->
<g id="edge24" class="edge">
<title>WDOG_SCSI:e&#45;&#45;TIE_WDOG:w</title>
<path fill="none" stroke="#000000" stroke-width="2" d="M720.88,-430.38C883.23,-434.24 888.78,-273.99 1059.13,-270.13"/>
<path fill="none" stroke="#8000ff" stroke-width="2" d="M720.88,-432.38C885.23,-434.31 890.78,-274.06 1059.13,-272.13"/>
<path fill="none" stroke="#8000ff" stroke-width="2" d="M720.88,-434.38C887.23,-434.38 892.77,-274.13 1059.13,-274.13"/>
<path fill="none" stroke="#8000ff" stroke-width="2" d="M720.88,-436.38C889.23,-434.45 894.77,-274.2 1059.13,-276.13"/>
<path fill="none" stroke="#000000" stroke-width="2" d="M720.88,-438.38C891.22,-434.52 896.77,-274.27 1059.13,-278.13"/>
</g>
<!-- WDA&#45;&#45;DRV_A -->
<g id="edge26" class="edge">
<title>WDA:e&#45;&#45;DRV_A:w</title>
<path fill="none" stroke="#000000" stroke-width="2" d="M1606,-269.38C1860.04,-275.54 1510.32,-818.79 1757.63,-812.63"/>
<path fill="none" stroke="#ff8000" stroke-width="2" d="M1606,-271.38C1858.35,-274.46 1508.63,-817.71 1757.63,-814.63"/>
<path fill="none" stroke="#ff8000" stroke-width="2" d="M1606,-273.38C1856.67,-273.38 1506.95,-816.63 1757.63,-816.63"/>
<path fill="none" stroke="#ff8000" stroke-width="2" d="M1606,-275.38C1854.99,-272.3 1505.27,-815.55 1757.63,-818.63"/>
<path fill="none" stroke="#000000" stroke-width="2" d="M1606,-277.38C1853.31,-271.21 1503.59,-814.46 1757.63,-820.63"/>
</g>
<!-- WDB&#45;&#45;DRV_B -->
<g id="edge28" class="edge">
<title>WDB:e&#45;&#45;DRV_B:w</title>
<path fill="none" stroke="#000000" stroke-width="2" d="M1606,-104.38C1808.55,-110.43 1554.31,-534.68 1750,-528.63"/>
<path fill="none" stroke="#ff8000" stroke-width="2" d="M1606,-106.38C1806.84,-109.41 1552.6,-533.66 1750,-530.63"/>
<path fill="none" stroke="#ff8000" stroke-width="2" d="M1606,-108.38C1805.12,-108.38 1550.88,-532.63 1750,-532.63"/>
<path fill="none" stroke="#ff8000" stroke-width="2" d="M1606,-110.38C1803.41,-107.35 1549.16,-531.6 1750,-534.63"/>
<path fill="none" stroke="#000000" stroke-width="2" d="M1606,-112.38C1801.69,-106.32 1547.45,-530.57 1750,-536.63"/>
</g>
<!-- RA&#45;&#45;EXT5V -->
<g id="edge30" class="edge">
<title>RA:e&#45;&#45;EXT5V:w</title>
<path fill="none" stroke="#000000" stroke-width="2" d="M2328.75,-706.38C2434.9,-711.79 2359.11,-510.79 2472.75,-505.38"/>
<path fill="none" stroke="#000000" stroke-width="2" d="M2328.75,-708.38C2436.77,-711.08 2360.99,-510.08 2472.75,-507.38"/>
<path fill="none" stroke="#000000" stroke-width="2" d="M2328.75,-710.38C2438.64,-710.38 2362.86,-509.38 2472.75,-509.38"/>
<path fill="none" stroke="#000000" stroke-width="2" d="M2328.75,-712.38C2440.51,-709.67 2364.73,-508.67 2472.75,-511.38"/>
<path fill="none" stroke="#000000" stroke-width="2" d="M2328.75,-714.38C2442.39,-708.97 2366.6,-507.97 2472.75,-513.38"/>
</g>
<!-- RB&#45;&#45;EXT5V -->
<g id="edge32" class="edge">
<title>RB:e&#45;&#45;EXT5V:w</title>
<path fill="none" stroke="#000000" stroke-width="2" d="M2328.75,-505.38C2392.75,-505.38 2408.75,-505.38 2472.75,-505.38"/>
<path fill="none" stroke="#000000" stroke-width="2" d="M2328.75,-507.38C2392.75,-507.38 2408.75,-507.38 2472.75,-507.38"/>
<path fill="none" stroke="#000000" stroke-width="2" d="M2328.75,-509.38C2392.75,-509.38 2408.75,-509.38 2472.75,-509.38"/>
<path fill="none" stroke="#000000" stroke-width="2" d="M2328.75,-511.38C2392.75,-511.38 2408.75,-511.38 2472.75,-511.38"/>
<path fill="none" stroke="#000000" stroke-width="2" d="M2328.75,-513.38C2392.75,-513.38 2408.75,-513.38 2472.75,-513.38"/>
</g>
</g>
</svg>
