<?xml version="1.0" encoding="UTF-8" standalone="no"?>
<!DOCTYPE svg PUBLIC "-//W3C//DTD SVG 1.1//EN"
 "http://www.w3.org/Graphics/SVG/1.1/DTD/svg11.dtd">
<!-- Generated by graphviz version 12.2.1 (20241206.2353)
 -->
<!-- Pages: 1 -->
<svg width="1974pt" height="984pt"
 viewBox="0.00 0.00 1974.00 983.75" xmlns="http://www.w3.org/2000/svg" xmlns:xlink="http://www.w3.org/1999/xlink">
<g id="graph0" class="graph" transform="scale(1 1) rotate(0) translate(4 979.75)">
<polygon fill="#ffffff" stroke="none" points="-4,4 -4,-979.75 1970,-979.75 1970,4 -4,4"/>
<!-- DB25 -->
<g id="node1" class="node">
<title>DB25</title>
<polygon fill="#ffffff" stroke="black" points="183.5,-852.38 0,-852.38 0,-472.38 183.5,-472.38 183.5,-852.38"/>
<polygon fill="none" stroke="black" points="0,-828.62 0,-852.38 183.5,-852.38 183.5,-828.62 0,-828.62"/>
<text text-anchor="start" x="74.88" y="-835.08" font-family="arial" font-size="14.00">DB25</text>
<polygon fill="none" stroke="black" points="0,-804.88 0,-828.62 99.17,-828.62 99.17,-804.88 0,-804.88"/>
<text text-anchor="start" x="4.21" y="-811.33" font-family="arial" font-size="14.00">D&#45;Sub 25 Male</text>
<polygon fill="none" stroke="black" points="99.17,-804.88 99.17,-828.62 137.58,-828.62 137.58,-804.88 99.17,-804.88"/>
<text text-anchor="start" x="103.38" y="-811.33" font-family="arial" font-size="14.00">male</text>
<polygon fill="none" stroke="black" points="137.58,-804.88 137.58,-828.62 183.5,-828.62 183.5,-804.88 137.58,-804.88"/>
<text text-anchor="start" x="141.79" y="-811.33" font-family="arial" font-size="14.00">13&#45;pin</text>
<polygon fill="none" stroke="black" points="0,-781.12 0,-804.88 116.12,-804.88 116.12,-781.12 0,-781.12"/>
<text text-anchor="start" x="36.31" y="-787.58" font-family="arial" font-size="14.00">Enc A+</text>
<polygon fill="none" stroke="black" points="116.12,-781.12 116.12,-804.88 183.5,-804.88 183.5,-781.12 116.12,-781.12"/>
<text text-anchor="start" x="146.06" y="-787.58" font-family="arial" font-size="14.00">1</text>
<polygon fill="none" stroke="black" points="0,-757.38 0,-781.12 116.12,-781.12 116.12,-757.38 0,-757.38"/>
<text text-anchor="start" x="38.19" y="-763.83" font-family="arial" font-size="14.00">Enc A&#45;</text>
<polygon fill="none" stroke="black" points="116.12,-757.38 116.12,-781.12 183.5,-781.12 183.5,-757.38 116.12,-757.38"/>
<text text-anchor="start" x="142.31" y="-763.83" font-family="arial" font-size="14.00">14</text>
<polygon fill="none" stroke="black" points="0,-733.62 0,-757.38 116.12,-757.38 116.12,-733.62 0,-733.62"/>
<text text-anchor="start" x="35.94" y="-740.08" font-family="arial" font-size="14.00">Enc B+</text>
<polygon fill="none" stroke="black" points="116.12,-733.62 116.12,-757.38 183.5,-757.38 183.5,-733.62 116.12,-733.62"/>
<text text-anchor="start" x="146.06" y="-740.08" font-family="arial" font-size="14.00">2</text>
<polygon fill="none" stroke="black" points="0,-709.88 0,-733.62 116.12,-733.62 116.12,-709.88 0,-709.88"/>
<text text-anchor="start" x="37.81" y="-716.33" font-family="arial" font-size="14.00">Enc B&#45;</text>
<polygon fill="none" stroke="black" points="116.12,-709.88 116.12,-733.62 183.5,-733.62 183.5,-709.88 116.12,-709.88"/>
<text text-anchor="start" x="142.31" y="-716.33" font-family="arial" font-size="14.00">15</text>
<polygon fill="none" stroke="black" points="0,-686.12 0,-709.88 116.12,-709.88 116.12,-686.12 0,-686.12"/>
<text text-anchor="start" x="36.31" y="-692.58" font-family="arial" font-size="14.00">Enc Z+</text>
<polygon fill="none" stroke="black" points="116.12,-686.12 116.12,-709.88 183.5,-709.88 183.5,-686.12 116.12,-686.12"/>
<text text-anchor="start" x="146.06" y="-692.58" font-family="arial" font-size="14.00">3</text>
<polygon fill="none" stroke="black" points="0,-662.38 0,-686.12 116.12,-686.12 116.12,-662.38 0,-662.38"/>
<text text-anchor="start" x="38.19" y="-668.83" font-family="arial" font-size="14.00">Enc Z&#45;</text>
<polygon fill="none" stroke="black" points="116.12,-662.38 116.12,-686.12 183.5,-686.12 183.5,-662.38 116.12,-662.38"/>
<text text-anchor="start" x="142.31" y="-668.83" font-family="arial" font-size="14.00">16</text>
<polygon fill="none" stroke="black" points="0,-638.62 0,-662.38 116.12,-662.38 116.12,-638.62 0,-638.62"/>
<text text-anchor="start" x="45.69" y="-645.08" font-family="arial" font-size="14.00">+5V</text>
<polygon fill="none" stroke="black" points="116.12,-638.62 116.12,-662.38 183.5,-662.38 183.5,-638.62 116.12,-638.62"/>
<text text-anchor="start" x="146.06" y="-645.08" font-family="arial" font-size="14.00">4</text>
<polygon fill="none" stroke="black" points="0,-614.88 0,-638.62 116.12,-638.62 116.12,-614.88 0,-614.88"/>
<text text-anchor="start" x="30.69" y="-621.33" font-family="arial" font-size="14.00">Dig GND</text>
<polygon fill="none" stroke="black" points="116.12,-614.88 116.12,-638.62 183.5,-638.62 183.5,-614.88 116.12,-614.88"/>
<text text-anchor="start" x="142.31" y="-621.33" font-family="arial" font-size="14.00">17</text>
<polygon fill="none" stroke="black" points="0,-591.12 0,-614.88 116.12,-614.88 116.12,-591.12 0,-591.12"/>
<text text-anchor="start" x="28.81" y="-597.58" font-family="arial" font-size="14.00">Fwd Limit</text>
<polygon fill="none" stroke="black" points="116.12,-591.12 116.12,-614.88 183.5,-614.88 183.5,-591.12 116.12,-591.12"/>
<text text-anchor="start" x="142.31" y="-597.58" font-family="arial" font-size="14.00">10</text>
<polygon fill="none" stroke="black" points="0,-567.38 0,-591.12 116.12,-591.12 116.12,-567.38 0,-567.38"/>
<text text-anchor="start" x="29.56" y="-573.83" font-family="arial" font-size="14.00">Rev Limit</text>
<polygon fill="none" stroke="black" points="116.12,-567.38 116.12,-591.12 183.5,-591.12 183.5,-567.38 116.12,-567.38"/>
<text text-anchor="start" x="142.31" y="-573.83" font-family="arial" font-size="14.00">12</text>
<polygon fill="none" stroke="black" points="0,-543.62 0,-567.38 116.12,-567.38 116.12,-543.62 0,-543.62"/>
<text text-anchor="start" x="44.94" y="-550.08" font-family="arial" font-size="14.00">Viso</text>
<polygon fill="none" stroke="black" points="116.12,-543.62 116.12,-567.38 183.5,-567.38 183.5,-543.62 116.12,-543.62"/>
<text text-anchor="start" x="142.31" y="-550.08" font-family="arial" font-size="14.00">13</text>
<polygon fill="none" stroke="black" points="0,-519.88 0,-543.62 116.12,-543.62 116.12,-519.88 0,-519.88"/>
<text text-anchor="start" x="44.56" y="-526.33" font-family="arial" font-size="14.00">Ciso</text>
<polygon fill="none" stroke="black" points="116.12,-519.88 116.12,-543.62 183.5,-543.62 183.5,-519.88 116.12,-519.88"/>
<text text-anchor="start" x="142.31" y="-526.33" font-family="arial" font-size="14.00">22</text>
<polygon fill="none" stroke="black" points="0,-496.12 0,-519.88 116.12,-519.88 116.12,-496.12 0,-496.12"/>
<text text-anchor="start" x="26.19" y="-502.57" font-family="arial" font-size="14.00">Home N/C</text>
<polygon fill="none" stroke="black" points="116.12,-496.12 116.12,-519.88 183.5,-519.88 183.5,-496.12 116.12,-496.12"/>
<text text-anchor="start" x="142.69" y="-502.57" font-family="arial" font-size="14.00">11</text>
<polygon fill="none" stroke="black" points="0,-472.38 0,-496.12 183.5,-496.12 183.5,-472.38 0,-472.38"/>
<text text-anchor="start" x="4" y="-478.82" font-family="arial" font-size="14.00">Stage cable (from UMI&#45;7774)</text>
</g>
<!-- ENC -->
<g id="node5" class="node">
<title>ENC</title>
<polygon fill="#ffffff" stroke="black" points="1112.75,-975.75 755.75,-975.75 755.75,-627 1112.75,-627 1112.75,-975.75"/>
<polygon fill="none" stroke="black" points="755.75,-952 755.75,-975.75 1112.75,-975.75 1112.75,-952 755.75,-952"/>
<text text-anchor="start" x="920" y="-958.45" font-family="arial" font-size="14.00">ENC</text>
<polygon fill="none" stroke="black" points="755.75,-928.25 755.75,-952 1112.75,-952 1112.75,-928.25 755.75,-928.25"/>
<text text-anchor="start" x="927.12" y="-934.7" font-family="arial" font-size="14.00">8x</text>
<text text-anchor="start" x="811.38" y="-912.95" font-family="arial" font-size="14.00"> </text>
<text text-anchor="start" x="767.12" y="-893.2" font-family="arial" font-size="14.00">DB25:1:Enc A+</text>
<text text-anchor="start" x="884.75" y="-893.2" font-family="arial" font-size="14.00"> &#160;&#160;&#160;&#160;1:BK &#160;&#160;&#160;</text>
<text text-anchor="start" x="967.88" y="-893.2" font-family="arial" font-size="14.00">MC508_ENC:1:Enc A+</text>
<polygon fill="#000000" stroke="none" points="755.75,-886.75 755.75,-888.75 1112.75,-888.75 1112.75,-886.75 755.75,-886.75"/>
<polygon fill="#000000" stroke="none" points="755.75,-884.75 755.75,-886.75 1112.75,-886.75 1112.75,-884.75 755.75,-884.75"/>
<polygon fill="#000000" stroke="none" points="755.75,-882.75 755.75,-884.75 1112.75,-884.75 1112.75,-882.75 755.75,-882.75"/>
<polygon fill="#000000" stroke="none" points="755.75,-880.75 755.75,-882.75 1112.75,-882.75 1112.75,-880.75 755.75,-880.75"/>
<polygon fill="#000000" stroke="none" points="755.75,-878.75 755.75,-880.75 1112.75,-880.75 1112.75,-878.75 755.75,-878.75"/>
<text text-anchor="start" x="765.25" y="-863.45" font-family="arial" font-size="14.00">DB25:14:Enc A&#45;</text>
<text text-anchor="start" x="884.38" y="-863.45" font-family="arial" font-size="14.00"> &#160;&#160;&#160;&#160;2:BN &#160;&#160;&#160;</text>
<text text-anchor="start" x="970.12" y="-863.45" font-family="arial" font-size="14.00">MC508_ENC:2:/Enc A</text>
<polygon fill="#000000" stroke="none" points="755.75,-857 755.75,-859 1112.75,-859 1112.75,-857 755.75,-857"/>
<polygon fill="#895956" stroke="none" points="755.75,-855 755.75,-857 1112.75,-857 1112.75,-855 755.75,-855"/>
<polygon fill="#895956" stroke="none" points="755.75,-853 755.75,-855 1112.75,-855 1112.75,-853 755.75,-853"/>
<polygon fill="#895956" stroke="none" points="755.75,-851 755.75,-853 1112.75,-853 1112.75,-851 755.75,-851"/>
<polygon fill="#000000" stroke="none" points="755.75,-849 755.75,-851 1112.75,-851 1112.75,-849 755.75,-849"/>
<text text-anchor="start" x="766.75" y="-833.7" font-family="arial" font-size="14.00">DB25:2:Enc B+</text>
<text text-anchor="start" x="884" y="-833.7" font-family="arial" font-size="14.00"> &#160;&#160;&#160;&#160;3:RD &#160;&#160;&#160;</text>
<text text-anchor="start" x="967.5" y="-833.7" font-family="arial" font-size="14.00">MC508_ENC:3:Enc B+</text>
<polygon fill="#000000" stroke="none" points="755.75,-827.25 755.75,-829.25 1112.75,-829.25 1112.75,-827.25 755.75,-827.25"/>
<polygon fill="#ff0000" stroke="none" points="755.75,-825.25 755.75,-827.25 1112.75,-827.25 1112.75,-825.25 755.75,-825.25"/>
<polygon fill="#ff0000" stroke="none" points="755.75,-823.25 755.75,-825.25 1112.75,-825.25 1112.75,-823.25 755.75,-823.25"/>
<polygon fill="#ff0000" stroke="none" points="755.75,-821.25 755.75,-823.25 1112.75,-823.25 1112.75,-821.25 755.75,-821.25"/>
<polygon fill="#000000" stroke="none" points="755.75,-819.25 755.75,-821.25 1112.75,-821.25 1112.75,-819.25 755.75,-819.25"/>
<text text-anchor="start" x="764.88" y="-803.95" font-family="arial" font-size="14.00">DB25:15:Enc B&#45;</text>
<text text-anchor="start" x="882.5" y="-803.95" font-family="arial" font-size="14.00"> &#160;&#160;&#160;&#160;4:OG &#160;&#160;&#160;</text>
<text text-anchor="start" x="969.75" y="-803.95" font-family="arial" font-size="14.00">MC508_ENC:4:/Enc B</text>
<polygon fill="#000000" stroke="none" points="755.75,-797.5 755.75,-799.5 1112.75,-799.5 1112.75,-797.5 755.75,-797.5"/>
<polygon fill="#ff8000" stroke="none" points="755.75,-795.5 755.75,-797.5 1112.75,-797.5 1112.75,-795.5 755.75,-795.5"/>
<polygon fill="#ff8000" stroke="none" points="755.75,-793.5 755.75,-795.5 1112.75,-795.5 1112.75,-793.5 755.75,-793.5"/>
<polygon fill="#ff8000" stroke="none" points="755.75,-791.5 755.75,-793.5 1112.75,-793.5 1112.75,-791.5 755.75,-791.5"/>
<polygon fill="#000000" stroke="none" points="755.75,-789.5 755.75,-791.5 1112.75,-791.5 1112.75,-789.5 755.75,-789.5"/>
<text text-anchor="start" x="767.12" y="-774.2" font-family="arial" font-size="14.00">DB25:3:Enc Z+</text>
<text text-anchor="start" x="874.25" y="-774.2" font-family="arial" font-size="14.00"> &#160;&#160;&#160;&#160;5:GNYE &#160;&#160;&#160;</text>
<text text-anchor="start" x="964.5" y="-774.2" font-family="arial" font-size="14.00">MC508_ENC:11:Enc Z+</text>
<polygon fill="#000000" stroke="none" points="755.75,-767.75 755.75,-769.75 1112.75,-769.75 1112.75,-767.75 755.75,-767.75"/>
<polygon fill="#00ff00" stroke="none" points="755.75,-765.75 755.75,-767.75 1112.75,-767.75 1112.75,-765.75 755.75,-765.75"/>
<polygon fill="#ffff00" stroke="none" points="755.75,-763.75 755.75,-765.75 1112.75,-765.75 1112.75,-763.75 755.75,-763.75"/>
<polygon fill="#00ff00" stroke="none" points="755.75,-761.75 755.75,-763.75 1112.75,-763.75 1112.75,-761.75 755.75,-761.75"/>
<polygon fill="#000000" stroke="none" points="755.75,-759.75 755.75,-761.75 1112.75,-761.75 1112.75,-759.75 755.75,-759.75"/>
<text text-anchor="start" x="765.25" y="-744.45" font-family="arial" font-size="14.00">DB25:16:Enc Z&#45;</text>
<text text-anchor="start" x="876.12" y="-744.45" font-family="arial" font-size="14.00"> &#160;&#160;&#160;&#160;6:LBBU &#160;&#160;&#160;</text>
<text text-anchor="start" x="966.38" y="-744.45" font-family="arial" font-size="14.00">MC508_ENC:12:/Enc Z</text>
<polygon fill="#000000" stroke="none" points="755.75,-738 755.75,-740 1112.75,-740 1112.75,-738 755.75,-738"/>
<polygon fill="#a0dfff" stroke="none" points="755.75,-736 755.75,-738 1112.75,-738 1112.75,-736 755.75,-736"/>
<polygon fill="#0066ff" stroke="none" points="755.75,-734 755.75,-736 1112.75,-736 1112.75,-734 755.75,-734"/>
<polygon fill="#a0dfff" stroke="none" points="755.75,-732 755.75,-734 1112.75,-734 1112.75,-732 755.75,-732"/>
<polygon fill="#000000" stroke="none" points="755.75,-730 755.75,-732 1112.75,-732 1112.75,-730 755.75,-730"/>
<text text-anchor="start" x="776.5" y="-714.7" font-family="arial" font-size="14.00">DB25:4:+5V</text>
<text text-anchor="start" x="884.75" y="-714.7" font-family="arial" font-size="14.00"> &#160;&#160;&#160;&#160;7:YE &#160;&#160;&#160;</text>
<text text-anchor="start" x="963.75" y="-714.7" font-family="arial" font-size="14.00">MC508_ENC:5:+5V Enc</text>
<polygon fill="#000000" stroke="none" points="755.75,-708.25 755.75,-710.25 1112.75,-710.25 1112.75,-708.25 755.75,-708.25"/>
<polygon fill="#ffff00" stroke="none" points="755.75,-706.25 755.75,-708.25 1112.75,-708.25 1112.75,-706.25 755.75,-706.25"/>
<polygon fill="#ffff00" stroke="none" points="755.75,-704.25 755.75,-706.25 1112.75,-706.25 1112.75,-704.25 755.75,-704.25"/>
<polygon fill="#ffff00" stroke="none" points="755.75,-702.25 755.75,-704.25 1112.75,-704.25 1112.75,-702.25 755.75,-702.25"/>
<polygon fill="#000000" stroke="none" points="755.75,-700.25 755.75,-702.25 1112.75,-702.25 1112.75,-700.25 755.75,-700.25"/>
<text text-anchor="start" x="757.75" y="-684.95" font-family="arial" font-size="14.00">DB25:17:Dig GND</text>
<text text-anchor="start" x="872.75" y="-684.95" font-family="arial" font-size="14.00"> &#160;&#160;&#160;&#160;8:BNWH &#160;&#160;&#160;</text>
<text text-anchor="start" x="977.62" y="-684.95" font-family="arial" font-size="14.00">MC508_ENC:15:0V</text>
<polygon fill="#000000" stroke="none" points="755.75,-678.5 755.75,-680.5 1112.75,-680.5 1112.75,-678.5 755.75,-678.5"/>
<polygon fill="#895956" stroke="none" points="755.75,-676.5 755.75,-678.5 1112.75,-678.5 1112.75,-676.5 755.75,-676.5"/>
<polygon fill="#ffffff" stroke="none" points="755.75,-674.5 755.75,-676.5 1112.75,-676.5 1112.75,-674.5 755.75,-674.5"/>
<polygon fill="#895956" stroke="none" points="755.75,-672.5 755.75,-674.5 1112.75,-674.5 1112.75,-672.5 755.75,-672.5"/>
<polygon fill="#000000" stroke="none" points="755.75,-670.5 755.75,-672.5 1112.75,-672.5 1112.75,-670.5 755.75,-670.5"/>
<text text-anchor="start" x="811.38" y="-655.2" font-family="arial" font-size="14.00"> </text>
<polygon fill="none" stroke="black" points="755.75,-627 755.75,-650.75 1112.75,-650.75 1112.75,-627 755.75,-627"/>
<text text-anchor="start" x="856.62" y="-633.45" font-family="arial" font-size="14.00">Encoder adapter (8 wires)</text>
</g>
<!-- DB25&#45;&#45;ENC -->
<g id="edge1" class="edge">
<title>DB25:e&#45;&#45;ENC:w</title>
<path fill="none" stroke="#000000" stroke-width="2" d="M183.5,-789C268.9,-793.66 254.48,-880.37 328.81,-902.6 444.36,-944.62 483.28,-913.1 611.44,-902.39 673.26,-898.77 687.89,-881.19 755.75,-879.75"/>
<path fill="none" stroke="#000000" stroke-width="2" d="M183.5,-791C266.93,-793.33 252.5,-880.04 328.15,-904.49 445.61,-946.17 484.54,-914.65 611.59,-904.38 674.8,-900.05 689.43,-882.47 755.75,-881.75"/>
<path fill="none" stroke="#000000" stroke-width="2" d="M183.5,-793C264.96,-793 250.53,-879.71 327.5,-906.38 446.87,-947.73 485.8,-916.21 611.75,-906.38 676.34,-901.33 690.96,-883.75 755.75,-883.75"/>
<path fill="none" stroke="#000000" stroke-width="2" d="M183.5,-795C262.98,-792.67 248.56,-879.38 326.85,-908.26 448.13,-949.28 487.06,-917.76 611.91,-908.37 677.88,-902.61 692.5,-885.03 755.75,-885.75"/>
<path fill="none" stroke="#000000" stroke-width="2" d="M183.5,-797C261.01,-792.34 246.59,-879.06 326.19,-910.15 449.39,-950.84 488.32,-919.32 612.06,-910.36 679.41,-903.89 694.04,-886.31 755.75,-887.75"/>
</g>
<!-- DB25&#45;&#45;ENC -->
<g id="edge3" class="edge">
<title>DB25:e&#45;&#45;ENC:w</title>
<path fill="none" stroke="#000000" stroke-width="2" d="M183.5,-765.25C262.3,-769.42 259.45,-836.44 328.57,-852.52 508.04,-904.66 562.61,-851.14 755.75,-850"/>
<path fill="none" stroke="#895956" stroke-width="2" d="M183.5,-767.25C260.3,-769.34 257.45,-836.36 328.04,-854.45 509.44,-906.09 564.01,-852.57 755.75,-852"/>
<path fill="none" stroke="#895956" stroke-width="2" d="M183.5,-769.25C258.3,-769.25 255.45,-836.27 327.5,-856.38 510.84,-907.52 565.41,-854 755.75,-854"/>
<path fill="none" stroke="#895956" stroke-width="2" d="M183.5,-771.25C256.3,-769.16 253.45,-836.19 326.96,-858.3 512.24,-908.95 566.81,-855.43 755.75,-856"/>
<path fill="none" stroke="#000000" stroke-width="2" d="M183.5,-773.25C254.31,-769.08 251.45,-836.1 326.43,-860.23 513.64,-910.38 568.21,-856.86 755.75,-858"/>
</g>
<!-- DB25&#45;&#45;ENC -->
<g id="edge5" class="edge">
<title>DB25:e&#45;&#45;ENC:w</title>
<path fill="none" stroke="#000000" stroke-width="2" d="M183.5,-741.5C256.94,-744.92 263.66,-790.57 328.38,-802.47 511.7,-844.47 563.58,-820.62 755.75,-820.25"/>
<path fill="none" stroke="#ff0000" stroke-width="2" d="M183.5,-743.5C254.96,-745.21 261.68,-790.86 327.94,-804.42 512.54,-846.29 564.42,-822.43 755.75,-822.25"/>
<path fill="none" stroke="#ff0000" stroke-width="2" d="M183.5,-745.5C252.98,-745.5 259.7,-791.15 327.5,-806.38 513.37,-848.1 565.25,-824.25 755.75,-824.25"/>
<path fill="none" stroke="#ff0000" stroke-width="2" d="M183.5,-747.5C251.01,-745.79 257.72,-791.45 327.06,-808.33 514.21,-849.92 566.09,-826.07 755.75,-826.25"/>
<path fill="none" stroke="#000000" stroke-width="2" d="M183.5,-749.5C249.03,-746.08 255.75,-791.74 326.62,-810.28 515.04,-851.74 566.92,-827.88 755.75,-828.25"/>
</g>
<!-- DB25&#45;&#45;ENC -->
<g id="edge7" class="edge">
<title>DB25:e&#45;&#45;ENC:w</title>
<path fill="none" stroke="#000000" stroke-width="2" d="M183.5,-717.75C252.83,-719.82 266.04,-743.8 328.15,-752.43 516.66,-783.31 565.25,-790.54 755.75,-790.5"/>
<path fill="none" stroke="#ff8000" stroke-width="2" d="M183.5,-719.75C251.08,-720.78 264.29,-744.77 327.82,-754.4 516.37,-785.29 564.96,-792.52 755.75,-792.5"/>
<path fill="none" stroke="#ff8000" stroke-width="2" d="M183.5,-721.75C249.32,-721.75 262.54,-745.73 327.5,-756.38 516.07,-787.27 564.66,-794.5 755.75,-794.5"/>
<path fill="none" stroke="#ff8000" stroke-width="2" d="M183.5,-723.75C247.57,-722.72 260.79,-746.7 327.18,-758.35 515.78,-789.25 564.37,-796.48 755.75,-796.5"/>
<path fill="none" stroke="#000000" stroke-width="2" d="M183.5,-725.75C245.82,-723.68 259.04,-747.66 326.85,-760.32 515.48,-791.22 564.08,-798.46 755.75,-798.5"/>
</g>
<!-- DB25&#45;&#45;ENC -->
<g id="edge9" class="edge">
<title>DB25:e&#45;&#45;ENC:w</title>
<path fill="none" stroke="#000000" stroke-width="2" d="M183.5,-694C312.36,-694.09 628.55,-760.84 755.75,-760.75"/>
<path fill="none" stroke="#00ff00" stroke-width="2" d="M183.5,-696C311.94,-696.04 628.13,-762.79 755.75,-762.75"/>
<path fill="none" stroke="#ffff00" stroke-width="2" d="M183.5,-698C311.53,-698 627.72,-764.75 755.75,-764.75"/>
<path fill="none" stroke="#00ff00" stroke-width="2" d="M183.5,-700C311.12,-699.96 627.31,-766.71 755.75,-766.75"/>
<path fill="none" stroke="#000000" stroke-width="2" d="M183.5,-702C310.7,-701.91 626.89,-768.66 755.75,-768.75"/>
</g>
<!-- DB25&#45;&#45;ENC -->
<g id="edge11" class="edge">
<title>DB25:e&#45;&#45;ENC:w</title>
<path fill="none" stroke="#000000" stroke-width="2" d="M183.5,-670.25C374.89,-670.28 423.15,-676.62 612.29,-702.41 679.66,-712.87 693.76,-732.68 755.75,-731"/>
<path fill="none" stroke="#a0dfff" stroke-width="2" d="M183.5,-672.25C374.63,-672.27 422.89,-678.6 612.02,-704.39 678.03,-714.03 692.13,-733.84 755.75,-733"/>
<path fill="none" stroke="#0066ff" stroke-width="2" d="M183.5,-674.25C374.37,-674.25 422.63,-680.58 611.75,-706.38 676.4,-715.19 690.5,-735 755.75,-735"/>
<path fill="none" stroke="#a0dfff" stroke-width="2" d="M183.5,-676.25C374.11,-676.23 422.37,-682.56 611.48,-708.36 674.77,-716.35 688.87,-736.16 755.75,-737"/>
<path fill="none" stroke="#000000" stroke-width="2" d="M183.5,-678.25C373.85,-678.22 422.11,-684.55 611.21,-710.34 673.14,-717.51 687.24,-737.32 755.75,-739"/>
</g>
<!-- DB25&#45;&#45;ENC -->
<g id="edge13" class="edge">
<title>DB25:e&#45;&#45;ENC:w</title>
<path fill="none" stroke="#000000" stroke-width="2" d="M183.5,-646.5C373.47,-646.54 422.56,-639.45 612.32,-666.42 680.5,-677.88 693.47,-703.44 755.75,-701.25"/>
<path fill="none" stroke="#ffff00" stroke-width="2" d="M183.5,-648.5C373.75,-648.52 422.84,-641.43 612.03,-668.4 678.72,-678.79 691.68,-704.35 755.75,-703.25"/>
<path fill="none" stroke="#ffff00" stroke-width="2" d="M183.5,-650.5C374.04,-650.5 423.13,-643.41 611.75,-670.38 676.94,-679.69 689.9,-705.25 755.75,-705.25"/>
<path fill="none" stroke="#ffff00" stroke-width="2" d="M183.5,-652.5C374.32,-652.48 423.42,-645.39 611.47,-672.35 675.15,-680.6 688.12,-706.15 755.75,-707.25"/>
<path fill="none" stroke="#000000" stroke-width="2" d="M183.5,-654.5C374.61,-654.46 423.7,-647.37 611.18,-674.33 673.37,-681.5 686.33,-707.06 755.75,-709.25"/>
</g>
<!-- DB25&#45;&#45;ENC -->
<g id="edge15" class="edge">
<title>DB25:e&#45;&#45;ENC:w</title>
<path fill="none" stroke="#000000" stroke-width="2" d="M183.5,-622.75C373.34,-622.8 422.22,-614.89 612.27,-639.41 680.26,-649.85 693.66,-673.53 755.75,-671.5"/>
<path fill="none" stroke="#895956" stroke-width="2" d="M183.5,-624.75C373.66,-624.78 422.54,-616.87 612.01,-641.39 678.52,-650.84 691.92,-674.52 755.75,-673.5"/>
<path fill="none" stroke="#ffffff" stroke-width="2" d="M183.5,-626.75C373.98,-626.75 422.86,-618.84 611.75,-643.37 676.78,-651.82 690.18,-675.5 755.75,-675.5"/>
<path fill="none" stroke="#895956" stroke-width="2" d="M183.5,-628.75C374.3,-628.72 423.18,-620.82 611.49,-645.36 675.04,-652.81 688.44,-676.48 755.75,-677.5"/>
<path fill="none" stroke="#000000" stroke-width="2" d="M183.5,-630.75C374.62,-630.7 423.5,-622.79 611.23,-647.34 673.3,-653.79 686.7,-677.47 755.75,-679.5"/>
</g>
<!-- LFWD -->
<g id="node6" class="node">
<title>LFWD</title>
<polygon fill="#ffffff" stroke="black" points="611.75,-550.75 327.5,-550.75 327.5,-434 611.75,-434 611.75,-550.75"/>
<polygon fill="none" stroke="black" points="327.5,-527 327.5,-550.75 611.75,-550.75 611.75,-527 327.5,-527"/>
<text text-anchor="start" x="450.12" y="-533.45" font-family="arial" font-size="14.00">LFWD</text>
<polygon fill="none" stroke="black" points="327.5,-503.25 327.5,-527 611.75,-527 611.75,-503.25 327.5,-503.25"/>
<text text-anchor="start" x="462.5" y="-509.7" font-family="arial" font-size="14.00">1x</text>
<text text-anchor="start" x="385" y="-487.95" font-family="arial" font-size="14.00"> </text>
<text text-anchor="start" x="329.5" y="-468.2" font-family="arial" font-size="14.00">DB25:10:Fwd Limit</text>
<text text-anchor="start" x="448.25" y="-468.2" font-family="arial" font-size="14.00"> &#160;&#160;&#160;&#160;1:BU &#160;&#160;&#160;</text>
<text text-anchor="start" x="516" y="-468.2" font-family="arial" font-size="14.00">ULN:1:In 1 Fwd</text>
<polygon fill="#000000" stroke="none" points="327.5,-461.75 327.5,-463.75 611.75,-463.75 611.75,-461.75 327.5,-461.75"/>
<polygon fill="#0066ff" stroke="none" points="327.5,-459.75 327.5,-461.75 611.75,-461.75 611.75,-459.75 327.5,-459.75"/>
<polygon fill="#0066ff" stroke="none" points="327.5,-457.75 327.5,-459.75 611.75,-459.75 611.75,-457.75 327.5,-457.75"/>
<polygon fill="#0066ff" stroke="none" points="327.5,-455.75 327.5,-457.75 611.75,-457.75 611.75,-455.75 327.5,-455.75"/>
<polygon fill="#000000" stroke="none" points="327.5,-453.75 327.5,-455.75 611.75,-455.75 611.75,-453.75 327.5,-453.75"/>
<text text-anchor="start" x="385" y="-438.45" font-family="arial" font-size="14.00"> </text>
</g>
<!-- DB25&#45;&#45;LFWD -->
<g id="edge17" class="edge">
<title>DB25:e&#45;&#45;LFWD:w</title>
<path fill="none" stroke="#000000" stroke-width="2" d="M183.5,-599C270.21,-604 233.04,-459.75 327.5,-454.75"/>
<path fill="none" stroke="#0066ff" stroke-width="2" d="M183.5,-601C272.15,-603.5 234.98,-459.25 327.5,-456.75"/>
<path fill="none" stroke="#0066ff" stroke-width="2" d="M183.5,-603C274.09,-603 236.91,-458.75 327.5,-458.75"/>
<path fill="none" stroke="#0066ff" stroke-width="2" d="M183.5,-605C276.02,-602.5 238.85,-458.25 327.5,-460.75"/>
<path fill="none" stroke="#000000" stroke-width="2" d="M183.5,-607C277.96,-602 240.79,-457.75 327.5,-462.75"/>
</g>
<!-- LREV -->
<g id="node7" class="node">
<title>LREV</title>
<polygon fill="#ffffff" stroke="black" points="610.62,-409.75 328.62,-409.75 328.62,-293 610.62,-293 610.62,-409.75"/>
<polygon fill="none" stroke="black" points="328.62,-386 328.62,-409.75 610.62,-409.75 610.62,-386 328.62,-386"/>
<text text-anchor="start" x="452" y="-392.45" font-family="arial" font-size="14.00">LREV</text>
<polygon fill="none" stroke="black" points="328.62,-362.25 328.62,-386 610.62,-386 610.62,-362.25 328.62,-362.25"/>
<text text-anchor="start" x="462.5" y="-368.7" font-family="arial" font-size="14.00">1x</text>
<text text-anchor="start" x="385.38" y="-346.95" font-family="arial" font-size="14.00"> </text>
<text text-anchor="start" x="330.62" y="-327.2" font-family="arial" font-size="14.00">DB25:12:Rev Limit</text>
<text text-anchor="start" x="447.88" y="-327.2" font-family="arial" font-size="14.00"> &#160;&#160;&#160;&#160;1:RD &#160;&#160;&#160;</text>
<text text-anchor="start" x="516.38" y="-327.2" font-family="arial" font-size="14.00">ULN:2:In 2 Rev</text>
<polygon fill="#000000" stroke="none" points="328.62,-320.75 328.62,-322.75 610.62,-322.75 610.62,-320.75 328.62,-320.75"/>
<polygon fill="#ff0000" stroke="none" points="328.62,-318.75 328.62,-320.75 610.62,-320.75 610.62,-318.75 328.62,-318.75"/>
<polygon fill="#ff0000" stroke="none" points="328.62,-316.75 328.62,-318.75 610.62,-318.75 610.62,-316.75 328.62,-316.75"/>
<polygon fill="#ff0000" stroke="none" points="328.62,-314.75 328.62,-316.75 610.62,-316.75 610.62,-314.75 328.62,-314.75"/>
<polygon fill="#000000" stroke="none" points="328.62,-312.75 328.62,-314.75 610.62,-314.75 610.62,-312.75 328.62,-312.75"/>
<text text-anchor="start" x="385.38" y="-297.45" font-family="arial" font-size="14.00"> </text>
</g>
<!-- DB25&#45;&#45;LREV -->
<g id="edge19" class="edge">
<title>DB25:e&#45;&#45;LREV:w</title>
<path fill="none" stroke="#000000" stroke-width="2" d="M183.5,-575.25C312.58,-580.93 191.29,-319.43 327.62,-313.75"/>
<path fill="none" stroke="#ff0000" stroke-width="2" d="M183.5,-577.25C314.39,-580.09 193.11,-318.59 327.62,-315.75"/>
<path fill="none" stroke="#ff0000" stroke-width="2" d="M183.5,-579.25C316.21,-579.25 194.92,-317.75 327.62,-317.75"/>
<path fill="none" stroke="#ff0000" stroke-width="2" d="M183.5,-581.25C318.02,-578.41 196.73,-316.91 327.62,-319.75"/>
<path fill="none" stroke="#000000" stroke-width="2" d="M183.5,-583.25C319.83,-577.57 198.55,-316.07 327.62,-321.75"/>
</g>
<!-- LPWR -->
<g id="node10" class="node">
<title>LPWR</title>
<polygon fill="#ffffff" stroke="black" points="590.38,-260.75 348.88,-260.75 348.88,-144 590.38,-144 590.38,-260.75"/>
<polygon fill="none" stroke="black" points="348.88,-237 348.88,-260.75 590.38,-260.75 590.38,-237 348.88,-237"/>
<text text-anchor="start" x="449.75" y="-243.45" font-family="arial" font-size="14.00">LPWR</text>
<polygon fill="none" stroke="black" points="348.88,-213.25 348.88,-237 590.38,-237 590.38,-213.25 348.88,-213.25"/>
<text text-anchor="start" x="462.5" y="-219.7" font-family="arial" font-size="14.00">1x</text>
<text text-anchor="start" x="390.25" y="-197.95" font-family="arial" font-size="14.00"> </text>
<text text-anchor="start" x="350.88" y="-178.2" font-family="arial" font-size="14.00">DB25:13:Viso</text>
<text text-anchor="start" x="437.38" y="-178.2" font-family="arial" font-size="14.00"> &#160;&#160;&#160;&#160;1:RD &#160;&#160;&#160;</text>
<text text-anchor="start" x="505.88" y="-178.2" font-family="arial" font-size="14.00">EXT5V:1:+5V</text>
<polygon fill="#000000" stroke="none" points="348.88,-171.75 348.88,-173.75 590.38,-173.75 590.38,-171.75 348.88,-171.75"/>
<polygon fill="#ff0000" stroke="none" points="348.88,-169.75 348.88,-171.75 590.38,-171.75 590.38,-169.75 348.88,-169.75"/>
<polygon fill="#ff0000" stroke="none" points="348.88,-167.75 348.88,-169.75 590.38,-169.75 590.38,-167.75 348.88,-167.75"/>
<polygon fill="#ff0000" stroke="none" points="348.88,-165.75 348.88,-167.75 590.38,-167.75 590.38,-165.75 348.88,-165.75"/>
<polygon fill="#000000" stroke="none" points="348.88,-163.75 348.88,-165.75 590.38,-165.75 590.38,-163.75 348.88,-163.75"/>
<text text-anchor="start" x="390.25" y="-148.45" font-family="arial" font-size="14.00"> </text>
</g>
<!-- DB25&#45;&#45;LPWR -->
<g id="edge25" class="edge">
<title>DB25:e&#45;&#45;LPWR:w</title>
<path fill="none" stroke="#000000" stroke-width="2" d="M183.5,-551.5C366.75,-557.4 157.59,-170.65 347.88,-164.75"/>
<path fill="none" stroke="#ff0000" stroke-width="2" d="M183.5,-553.5C368.51,-556.45 159.35,-169.7 347.88,-166.75"/>
<path fill="none" stroke="#ff0000" stroke-width="2" d="M183.5,-555.5C370.27,-555.5 161.11,-168.75 347.88,-168.75"/>
<path fill="none" stroke="#ff0000" stroke-width="2" d="M183.5,-557.5C372.03,-554.55 162.86,-167.8 347.88,-170.75"/>
<path fill="none" stroke="#000000" stroke-width="2" d="M183.5,-559.5C373.79,-553.6 164.62,-166.85 347.88,-172.75"/>
</g>
<!-- LGND -->
<g id="node11" class="node">
<title>LGND</title>
<polygon fill="#ffffff" stroke="black" points="1057.62,-116.75 810.88,-116.75 810.88,0 1057.62,0 1057.62,-116.75"/>
<polygon fill="none" stroke="black" points="810.88,-93 810.88,-116.75 1057.62,-116.75 1057.62,-93 810.88,-93"/>
<text text-anchor="start" x="915.12" y="-99.45" font-family="arial" font-size="14.00">LGND</text>
<polygon fill="none" stroke="black" points="810.88,-69.25 810.88,-93 1057.62,-93 1057.62,-69.25 810.88,-69.25"/>
<text text-anchor="start" x="927.12" y="-75.7" font-family="arial" font-size="14.00">1x</text>
<text text-anchor="start" x="852.62" y="-53.95" font-family="arial" font-size="14.00"> </text>
<text text-anchor="start" x="812.88" y="-34.2" font-family="arial" font-size="14.00">DB25:22:Ciso</text>
<text text-anchor="start" x="900.12" y="-34.2" font-family="arial" font-size="14.00"> &#160;&#160;&#160;&#160;1:BK &#160;&#160;&#160;</text>
<text text-anchor="start" x="967.12" y="-34.2" font-family="arial" font-size="14.00">EXT5V:2:GND</text>
<polygon fill="#000000" stroke="none" points="810.88,-27.75 810.88,-29.75 1057.62,-29.75 1057.62,-27.75 810.88,-27.75"/>
<polygon fill="#000000" stroke="none" points="810.88,-25.75 810.88,-27.75 1057.62,-27.75 1057.62,-25.75 810.88,-25.75"/>
<polygon fill="#000000" stroke="none" points="810.88,-23.75 810.88,-25.75 1057.62,-25.75 1057.62,-23.75 810.88,-23.75"/>
<polygon fill="#000000" stroke="none" points="810.88,-21.75 810.88,-23.75 1057.62,-23.75 1057.62,-21.75 810.88,-21.75"/>
<polygon fill="#000000" stroke="none" points="810.88,-19.75 810.88,-21.75 1057.62,-21.75 1057.62,-19.75 810.88,-19.75"/>
<text text-anchor="start" x="852.62" y="-4.45" font-family="arial" font-size="14.00"> </text>
</g>
<!-- DB25&#45;&#45;LGND -->
<g id="edge27" class="edge">
<title>DB25:e&#45;&#45;LGND:w</title>
<path fill="none" stroke="#000000" stroke-width="2" d="M183.5,-527.75C368.88,-534 182.6,-259.34 324.86,-129.37 493.77,16.55 591.65,-21.02 809.88,-20.75"/>
<path fill="none" stroke="#000000" stroke-width="2" d="M183.5,-529.75C370.53,-532.87 184.26,-258.22 326.18,-130.87 493.05,14.68 590.93,-22.88 809.88,-22.75"/>
<path fill="none" stroke="#000000" stroke-width="2" d="M183.5,-531.75C372.19,-531.75 185.91,-257.09 327.5,-132.38 492.33,12.82 590.21,-24.75 809.88,-24.75"/>
<path fill="none" stroke="#000000" stroke-width="2" d="M183.5,-533.75C373.84,-530.63 187.57,-255.97 328.82,-133.88 491.62,10.95 589.5,-26.62 809.88,-26.75"/>
<path fill="none" stroke="#000000" stroke-width="2" d="M183.5,-535.75C375.5,-529.5 189.22,-254.85 330.14,-135.38 490.9,9.08 588.78,-28.48 809.88,-28.75"/>
</g>
<!-- MC508_ENC -->
<g id="node2" class="node">
<title>MC508_ENC</title>
<polygon fill="#ffffff" stroke="black" points="1966,-915.75 1756.25,-915.75 1756.25,-607 1966,-607 1966,-915.75"/>
<polygon fill="none" stroke="black" points="1756.25,-892 1756.25,-915.75 1966,-915.75 1966,-892 1756.25,-892"/>
<text text-anchor="start" x="1821" y="-898.45" font-family="arial" font-size="14.00">MC508_ENC</text>
<polygon fill="none" stroke="black" points="1756.25,-868.25 1756.25,-892 1867.88,-892 1867.88,-868.25 1756.25,-868.25"/>
<text text-anchor="start" x="1786.56" y="-874.7" font-family="arial" font-size="14.00">MDR&#45;20</text>
<polygon fill="none" stroke="black" points="1867.88,-868.25 1867.88,-892 1966,-892 1966,-868.25 1867.88,-868.25"/>
<text text-anchor="start" x="1898.19" y="-874.7" font-family="arial" font-size="14.00">10&#45;pin</text>
<polygon fill="none" stroke="black" points="1756.25,-844.5 1756.25,-868.25 1842.75,-868.25 1842.75,-844.5 1756.25,-844.5"/>
<text text-anchor="start" x="1795.75" y="-850.95" font-family="arial" font-size="14.00">1</text>
<polygon fill="none" stroke="black" points="1842.75,-844.5 1842.75,-868.25 1966,-868.25 1966,-844.5 1842.75,-844.5"/>
<text text-anchor="start" x="1882.62" y="-850.95" font-family="arial" font-size="14.00">Enc A+</text>
<polygon fill="none" stroke="black" points="1756.25,-820.75 1756.25,-844.5 1842.75,-844.5 1842.75,-820.75 1756.25,-820.75"/>
<text text-anchor="start" x="1795.75" y="-827.2" font-family="arial" font-size="14.00">2</text>
<polygon fill="none" stroke="black" points="1842.75,-820.75 1842.75,-844.5 1966,-844.5 1966,-820.75 1842.75,-820.75"/>
<text text-anchor="start" x="1884.88" y="-827.2" font-family="arial" font-size="14.00">/Enc A</text>
<polygon fill="none" stroke="black" points="1756.25,-797 1756.25,-820.75 1842.75,-820.75 1842.75,-797 1756.25,-797"/>
<text text-anchor="start" x="1795.75" y="-803.45" font-family="arial" font-size="14.00">3</text>
<polygon fill="none" stroke="black" points="1842.75,-797 1842.75,-820.75 1966,-820.75 1966,-797 1842.75,-797"/>
<text text-anchor="start" x="1882.25" y="-803.45" font-family="arial" font-size="14.00">Enc B+</text>
<polygon fill="none" stroke="black" points="1756.25,-773.25 1756.25,-797 1842.75,-797 1842.75,-773.25 1756.25,-773.25"/>
<text text-anchor="start" x="1795.75" y="-779.7" font-family="arial" font-size="14.00">4</text>
<polygon fill="none" stroke="black" points="1842.75,-773.25 1842.75,-797 1966,-797 1966,-773.25 1842.75,-773.25"/>
<text text-anchor="start" x="1884.5" y="-779.7" font-family="arial" font-size="14.00">/Enc B</text>
<polygon fill="none" stroke="black" points="1756.25,-749.5 1756.25,-773.25 1842.75,-773.25 1842.75,-749.5 1756.25,-749.5"/>
<text text-anchor="start" x="1792.38" y="-755.95" font-family="arial" font-size="14.00">11</text>
<polygon fill="none" stroke="black" points="1842.75,-749.5 1842.75,-773.25 1966,-773.25 1966,-749.5 1842.75,-749.5"/>
<text text-anchor="start" x="1882.62" y="-755.95" font-family="arial" font-size="14.00">Enc Z+</text>
<polygon fill="none" stroke="black" points="1756.25,-725.75 1756.25,-749.5 1842.75,-749.5 1842.75,-725.75 1756.25,-725.75"/>
<text text-anchor="start" x="1792" y="-732.2" font-family="arial" font-size="14.00">12</text>
<polygon fill="none" stroke="black" points="1842.75,-725.75 1842.75,-749.5 1966,-749.5 1966,-725.75 1842.75,-725.75"/>
<text text-anchor="start" x="1884.88" y="-732.2" font-family="arial" font-size="14.00">/Enc Z</text>
<polygon fill="none" stroke="black" points="1756.25,-702 1756.25,-725.75 1842.75,-725.75 1842.75,-702 1756.25,-702"/>
<text text-anchor="start" x="1795.75" y="-708.45" font-family="arial" font-size="14.00">5</text>
<polygon fill="none" stroke="black" points="1842.75,-702 1842.75,-725.75 1966,-725.75 1966,-702 1842.75,-702"/>
<text text-anchor="start" x="1878.5" y="-708.45" font-family="arial" font-size="14.00">+5V Enc</text>
<polygon fill="none" stroke="black" points="1756.25,-678.25 1756.25,-702 1842.75,-702 1842.75,-678.25 1756.25,-678.25"/>
<text text-anchor="start" x="1792" y="-684.7" font-family="arial" font-size="14.00">15</text>
<polygon fill="none" stroke="black" points="1842.75,-678.25 1842.75,-702 1966,-702 1966,-678.25 1842.75,-678.25"/>
<text text-anchor="start" x="1896.12" y="-684.7" font-family="arial" font-size="14.00">0V</text>
<polygon fill="none" stroke="black" points="1756.25,-654.5 1756.25,-678.25 1842.75,-678.25 1842.75,-654.5 1756.25,-654.5"/>
<text text-anchor="start" x="1795.75" y="-660.95" font-family="arial" font-size="14.00">9</text>
<polygon fill="none" stroke="black" points="1842.75,-654.5 1842.75,-678.25 1966,-678.25 1966,-654.5 1842.75,-654.5"/>
<text text-anchor="start" x="1883.38" y="-660.95" font-family="arial" font-size="14.00">Input A</text>
<polygon fill="none" stroke="black" points="1756.25,-630.75 1756.25,-654.5 1842.75,-654.5 1842.75,-630.75 1756.25,-630.75"/>
<text text-anchor="start" x="1792" y="-637.2" font-family="arial" font-size="14.00">20</text>
<polygon fill="none" stroke="black" points="1842.75,-630.75 1842.75,-654.5 1966,-654.5 1966,-630.75 1842.75,-630.75"/>
<text text-anchor="start" x="1883" y="-637.2" font-family="arial" font-size="14.00">Input B</text>
<polygon fill="none" stroke="black" points="1756.25,-607 1756.25,-630.75 1966,-630.75 1966,-607 1756.25,-607"/>
<text text-anchor="start" x="1760.25" y="-613.45" font-family="arial" font-size="14.00">MC508 Encoder Port (ATYPE 76)</text>
</g>
<!-- ULN -->
<g id="node3" class="node">
<title>ULN</title>
<polygon fill="#ffffff" stroke="black" points="1021.12,-486.38 847.38,-486.38 847.38,-296.38 1021.12,-296.38 1021.12,-486.38"/>
<polygon fill="none" stroke="black" points="847.38,-462.62 847.38,-486.38 1021.12,-486.38 1021.12,-462.62 847.38,-462.62"/>
<text text-anchor="start" x="920.75" y="-469.07" font-family="arial" font-size="14.00">ULN</text>
<polygon fill="none" stroke="black" points="847.38,-438.88 847.38,-462.62 940.25,-462.62 940.25,-438.88 847.38,-438.88"/>
<text text-anchor="start" x="872.81" y="-445.32" font-family="arial" font-size="14.00">DIP&#45;16</text>
<polygon fill="none" stroke="black" points="940.25,-438.88 940.25,-462.62 1021.12,-462.62 1021.12,-438.88 940.25,-438.88"/>
<text text-anchor="start" x="965.69" y="-445.32" font-family="arial" font-size="14.00">5&#45;pin</text>
<polygon fill="none" stroke="black" points="847.38,-415.12 847.38,-438.88 887.79,-438.88 887.79,-415.12 847.38,-415.12"/>
<text text-anchor="start" x="863.83" y="-421.57" font-family="arial" font-size="14.00">1</text>
<polygon fill="none" stroke="black" points="887.79,-415.12 887.79,-438.88 980.71,-438.88 980.71,-415.12 887.79,-415.12"/>
<text text-anchor="start" x="908.38" y="-421.57" font-family="arial" font-size="14.00">In 1 Fwd</text>
<polygon fill="none" stroke="black" points="980.71,-415.12 980.71,-438.88 1021.12,-438.88 1021.12,-415.12 980.71,-415.12"/>
<text text-anchor="start" x="997.17" y="-421.57" font-family="arial" font-size="14.00">1</text>
<polygon fill="none" stroke="black" points="847.38,-391.38 847.38,-415.12 887.79,-415.12 887.79,-391.38 847.38,-391.38"/>
<text text-anchor="start" x="863.83" y="-397.82" font-family="arial" font-size="14.00">2</text>
<polygon fill="none" stroke="black" points="887.79,-391.38 887.79,-415.12 980.71,-415.12 980.71,-391.38 887.79,-391.38"/>
<text text-anchor="start" x="909.12" y="-397.82" font-family="arial" font-size="14.00">In 2 Rev</text>
<polygon fill="none" stroke="black" points="980.71,-391.38 980.71,-415.12 1021.12,-415.12 1021.12,-391.38 980.71,-391.38"/>
<text text-anchor="start" x="997.17" y="-397.82" font-family="arial" font-size="14.00">2</text>
<polygon fill="none" stroke="black" points="847.38,-367.62 847.38,-391.38 887.79,-391.38 887.79,-367.62 847.38,-367.62"/>
<text text-anchor="start" x="860.08" y="-374.07" font-family="arial" font-size="14.00">16</text>
<polygon fill="none" stroke="black" points="887.79,-367.62 887.79,-391.38 980.71,-391.38 980.71,-367.62 887.79,-367.62"/>
<text text-anchor="start" x="902.75" y="-374.07" font-family="arial" font-size="14.00">Out 1 Fwd</text>
<polygon fill="none" stroke="black" points="980.71,-367.62 980.71,-391.38 1021.12,-391.38 1021.12,-367.62 980.71,-367.62"/>
<text text-anchor="start" x="993.42" y="-374.07" font-family="arial" font-size="14.00">16</text>
<polygon fill="none" stroke="black" points="847.38,-343.88 847.38,-367.62 887.79,-367.62 887.79,-343.88 847.38,-343.88"/>
<text text-anchor="start" x="860.08" y="-350.32" font-family="arial" font-size="14.00">15</text>
<polygon fill="none" stroke="black" points="887.79,-343.88 887.79,-367.62 980.71,-367.62 980.71,-343.88 887.79,-343.88"/>
<text text-anchor="start" x="903.5" y="-350.32" font-family="arial" font-size="14.00">Out 2 Rev</text>
<polygon fill="none" stroke="black" points="980.71,-343.88 980.71,-367.62 1021.12,-367.62 1021.12,-343.88 980.71,-343.88"/>
<text text-anchor="start" x="993.42" y="-350.32" font-family="arial" font-size="14.00">15</text>
<polygon fill="none" stroke="black" points="847.38,-320.12 847.38,-343.88 887.79,-343.88 887.79,-320.12 847.38,-320.12"/>
<text text-anchor="start" x="863.83" y="-326.57" font-family="arial" font-size="14.00">8</text>
<polygon fill="none" stroke="black" points="887.79,-320.12 887.79,-343.88 980.71,-343.88 980.71,-320.12 887.79,-320.12"/>
<text text-anchor="start" x="900.5" y="-326.57" font-family="arial" font-size="14.00">COM GND</text>
<polygon fill="none" stroke="black" points="980.71,-320.12 980.71,-343.88 1021.12,-343.88 1021.12,-320.12 980.71,-320.12"/>
<text text-anchor="start" x="997.17" y="-326.57" font-family="arial" font-size="14.00">8</text>
<polygon fill="none" stroke="black" points="847.38,-296.38 847.38,-320.12 1021.12,-320.12 1021.12,-296.38 847.38,-296.38"/>
<text text-anchor="start" x="851.38" y="-302.82" font-family="arial" font-size="14.00">ULN2003A Darlington Array</text>
</g>
<!-- UFWD -->
<g id="node8" class="node">
<title>UFWD</title>
<polygon fill="#ffffff" stroke="black" points="1598,-588.75 1271,-588.75 1271,-472 1598,-472 1598,-588.75"/>
<polygon fill="none" stroke="black" points="1271,-565 1271,-588.75 1598,-588.75 1598,-565 1271,-565"/>
<text text-anchor="start" x="1413.88" y="-571.45" font-family="arial" font-size="14.00">UFWD</text>
<polygon fill="none" stroke="black" points="1271,-541.25 1271,-565 1598,-565 1598,-541.25 1271,-541.25"/>
<text text-anchor="start" x="1427.38" y="-547.7" font-family="arial" font-size="14.00">1x</text>
<text text-anchor="start" x="1327.38" y="-525.95" font-family="arial" font-size="14.00"> </text>
<text text-anchor="start" x="1273" y="-506.2" font-family="arial" font-size="14.00">ULN:16:Out 1 Fwd</text>
<text text-anchor="start" x="1389.5" y="-506.2" font-family="arial" font-size="14.00"> &#160;&#160;&#160;&#160;1:GY &#160;&#160;&#160;</text>
<text text-anchor="start" x="1458.75" y="-506.2" font-family="arial" font-size="14.00">MC508_ENC:9:Input A</text>
<polygon fill="#000000" stroke="none" points="1271,-499.75 1271,-501.75 1598,-501.75 1598,-499.75 1271,-499.75"/>
<polygon fill="#999999" stroke="none" points="1271,-497.75 1271,-499.75 1598,-499.75 1598,-497.75 1271,-497.75"/>
<polygon fill="#999999" stroke="none" points="1271,-495.75 1271,-497.75 1598,-497.75 1598,-495.75 1271,-495.75"/>
<polygon fill="#999999" stroke="none" points="1271,-493.75 1271,-495.75 1598,-495.75 1598,-493.75 1271,-493.75"/>
<polygon fill="#000000" stroke="none" points="1271,-491.75 1271,-493.75 1598,-493.75 1598,-491.75 1271,-491.75"/>
<text text-anchor="start" x="1327.38" y="-476.45" font-family="arial" font-size="14.00"> </text>
</g>
<!-- ULN&#45;&#45;UFWD -->
<g id="edge21" class="edge">
<title>ULN:e&#45;&#45;UFWD:w</title>
<path fill="none" stroke="#000000" stroke-width="2" d="M1022.12,-375.5C1147.99,-379.36 1152.13,-496.61 1270,-492.75"/>
<path fill="none" stroke="#999999" stroke-width="2" d="M1022.12,-377.5C1145.99,-379.43 1150.13,-496.68 1270,-494.75"/>
<path fill="none" stroke="#999999" stroke-width="2" d="M1022.12,-379.5C1143.99,-379.5 1148.13,-496.75 1270,-496.75"/>
<path fill="none" stroke="#999999" stroke-width="2" d="M1022.12,-381.5C1142,-379.57 1146.13,-496.82 1270,-498.75"/>
<path fill="none" stroke="#000000" stroke-width="2" d="M1022.12,-383.5C1140,-379.64 1144.13,-496.89 1270,-500.75"/>
</g>
<!-- UREV -->
<g id="node9" class="node">
<title>UREV</title>
<polygon fill="#ffffff" stroke="black" points="1612.25,-447.75 1256.75,-447.75 1256.75,-331 1612.25,-331 1612.25,-447.75"/>
<polygon fill="none" stroke="black" points="1256.75,-424 1256.75,-447.75 1612.25,-447.75 1612.25,-424 1256.75,-424"/>
<text text-anchor="start" x="1415.75" y="-430.45" font-family="arial" font-size="14.00">UREV</text>
<polygon fill="none" stroke="black" points="1256.75,-400.25 1256.75,-424 1612.25,-424 1612.25,-400.25 1256.75,-400.25"/>
<text text-anchor="start" x="1427.38" y="-406.7" font-family="arial" font-size="14.00">1x</text>
<text text-anchor="start" x="1312.38" y="-384.95" font-family="arial" font-size="14.00"> </text>
<text text-anchor="start" x="1258.75" y="-365.2" font-family="arial" font-size="14.00">ULN:15:Out 2 Rev</text>
<text text-anchor="start" x="1373.75" y="-365.2" font-family="arial" font-size="14.00"> &#160;&#160;&#160;&#160;1:BUWH &#160;&#160;&#160;</text>
<text text-anchor="start" x="1464.75" y="-365.2" font-family="arial" font-size="14.00">MC508_ENC:20:Input B</text>
<polygon fill="#000000" stroke="none" points="1256.75,-358.75 1256.75,-360.75 1612.25,-360.75 1612.25,-358.75 1256.75,-358.75"/>
<polygon fill="#0066ff" stroke="none" points="1256.75,-356.75 1256.75,-358.75 1612.25,-358.75 1612.25,-356.75 1256.75,-356.75"/>
<polygon fill="#ffffff" stroke="none" points="1256.75,-354.75 1256.75,-356.75 1612.25,-356.75 1612.25,-354.75 1256.75,-354.75"/>
<polygon fill="#0066ff" stroke="none" points="1256.75,-352.75 1256.75,-354.75 1612.25,-354.75 1612.25,-352.75 1256.75,-352.75"/>
<polygon fill="#000000" stroke="none" points="1256.75,-350.75 1256.75,-352.75 1612.25,-352.75 1612.25,-350.75 1256.75,-350.75"/>
<text text-anchor="start" x="1312.38" y="-335.45" font-family="arial" font-size="14.00"> </text>
</g>
<!-- ULN&#45;&#45;UREV -->
<g id="edge23" class="edge">
<title>ULN:e&#45;&#45;UREV:w</title>
<path fill="none" stroke="#000000" stroke-width="2" d="M1022.12,-351.75C1126.4,-351.75 1152.47,-351.75 1256.75,-351.75"/>
<path fill="none" stroke="#0066ff" stroke-width="2" d="M1022.12,-353.75C1126.4,-353.75 1152.47,-353.75 1256.75,-353.75"/>
<path fill="none" stroke="#ffffff" stroke-width="2" d="M1022.12,-355.75C1126.4,-355.75 1152.47,-355.75 1256.75,-355.75"/>
<path fill="none" stroke="#0066ff" stroke-width="2" d="M1022.12,-357.75C1126.4,-357.75 1152.47,-357.75 1256.75,-357.75"/>
<path fill="none" stroke="#000000" stroke-width="2" d="M1022.12,-359.75C1126.4,-359.75 1152.47,-359.75 1256.75,-359.75"/>
</g>
<!-- UGND -->
<g id="node12" class="node">
<title>UGND</title>
<polygon fill="#ffffff" stroke="black" points="1571,-306.75 1298,-306.75 1298,-190 1571,-190 1571,-306.75"/>
<polygon fill="none" stroke="black" points="1298,-283 1298,-306.75 1571,-306.75 1571,-283 1298,-283"/>
<text text-anchor="start" x="1414.25" y="-289.45" font-family="arial" font-size="14.00">UGND</text>
<polygon fill="none" stroke="black" points="1298,-259.25 1298,-283 1571,-283 1571,-259.25 1298,-259.25"/>
<text text-anchor="start" x="1427.38" y="-265.7" font-family="arial" font-size="14.00">1x</text>
<text text-anchor="start" x="1352.88" y="-243.95" font-family="arial" font-size="14.00"> </text>
<text text-anchor="start" x="1300" y="-224.2" font-family="arial" font-size="14.00">ULN:8:COM GND</text>
<text text-anchor="start" x="1413.5" y="-224.2" font-family="arial" font-size="14.00"> &#160;&#160;&#160;&#160;1:BK &#160;&#160;&#160;</text>
<text text-anchor="start" x="1480.5" y="-224.2" font-family="arial" font-size="14.00">EXT5V:2:GND</text>
<polygon fill="#000000" stroke="none" points="1298,-217.75 1298,-219.75 1571,-219.75 1571,-217.75 1298,-217.75"/>
<polygon fill="#000000" stroke="none" points="1298,-215.75 1298,-217.75 1571,-217.75 1571,-215.75 1298,-215.75"/>
<polygon fill="#000000" stroke="none" points="1298,-213.75 1298,-215.75 1571,-215.75 1571,-213.75 1298,-213.75"/>
<polygon fill="#000000" stroke="none" points="1298,-211.75 1298,-213.75 1571,-213.75 1571,-211.75 1298,-211.75"/>
<polygon fill="#000000" stroke="none" points="1298,-209.75 1298,-211.75 1571,-211.75 1571,-209.75 1298,-209.75"/>
<text text-anchor="start" x="1352.88" y="-194.45" font-family="arial" font-size="14.00"> </text>
</g>
<!-- ULN&#45;&#45;UGND -->
<g id="edge29" class="edge">
<title>ULN:e&#45;&#45;UGND:w</title>
<path fill="none" stroke="#000000" stroke-width="2" d="M1022.12,-328C1150.95,-331.69 1160.2,-214.44 1297,-210.75"/>
<path fill="none" stroke="#000000" stroke-width="2" d="M1022.12,-330C1152.95,-331.84 1162.19,-214.59 1297,-212.75"/>
<path fill="none" stroke="#000000" stroke-width="2" d="M1022.12,-332C1154.94,-332 1164.18,-214.75 1297,-214.75"/>
<path fill="none" stroke="#000000" stroke-width="2" d="M1022.12,-334C1156.94,-332.16 1166.18,-214.91 1297,-216.75"/>
<path fill="none" stroke="#000000" stroke-width="2" d="M1022.12,-336C1158.93,-332.31 1168.17,-215.06 1297,-218.75"/>
</g>
<!-- EXT5V -->
<g id="node4" class="node">
<title>EXT5V</title>
<polygon fill="#ffffff" stroke="black" points="1959.62,-212.75 1762.62,-212.75 1762.62,-94 1959.62,-94 1959.62,-212.75"/>
<polygon fill="none" stroke="black" points="1762.62,-189 1762.62,-212.75 1959.62,-212.75 1959.62,-189 1762.62,-189"/>
<text text-anchor="start" x="1839.75" y="-195.45" font-family="arial" font-size="14.00">EXT5V</text>
<polygon fill="none" stroke="black" points="1762.62,-165.25 1762.62,-189 1887.75,-189 1887.75,-165.25 1762.62,-165.25"/>
<text text-anchor="start" x="1783.56" y="-171.7" font-family="arial" font-size="14.00">Power Supply</text>
<polygon fill="none" stroke="black" points="1887.75,-165.25 1887.75,-189 1959.62,-189 1959.62,-165.25 1887.75,-165.25"/>
<text text-anchor="start" x="1908.69" y="-171.7" font-family="arial" font-size="14.00">2&#45;pin</text>
<polygon fill="none" stroke="black" points="1762.62,-141.5 1762.62,-165.25 1849.5,-165.25 1849.5,-141.5 1762.62,-141.5"/>
<text text-anchor="start" x="1802.31" y="-147.95" font-family="arial" font-size="14.00">1</text>
<polygon fill="none" stroke="black" points="1849.5,-141.5 1849.5,-165.25 1959.62,-165.25 1959.62,-141.5 1849.5,-141.5"/>
<text text-anchor="start" x="1892.19" y="-147.95" font-family="arial" font-size="14.00">+5V</text>
<polygon fill="none" stroke="black" points="1762.62,-117.75 1762.62,-141.5 1849.5,-141.5 1849.5,-117.75 1762.62,-117.75"/>
<text text-anchor="start" x="1802.31" y="-124.2" font-family="arial" font-size="14.00">2</text>
<polygon fill="none" stroke="black" points="1849.5,-117.75 1849.5,-141.5 1959.62,-141.5 1959.62,-117.75 1849.5,-117.75"/>
<text text-anchor="start" x="1889.19" y="-124.2" font-family="arial" font-size="14.00">GND</text>
<polygon fill="none" stroke="black" points="1762.62,-94 1762.62,-117.75 1959.62,-117.75 1959.62,-94 1762.62,-94"/>
<text text-anchor="start" x="1766.62" y="-100.45" font-family="arial" font-size="14.00">External 5V (limit switch power)</text>
</g>
<!-- ENC&#45;&#45;MC508_ENC -->
<g id="edge2" class="edge">
<title>ENC:e&#45;&#45;MC508_ENC:w</title>
<path fill="none" stroke="#000000" stroke-width="2" d="M1112.75,-879.75C1186.15,-883.2 1192.65,-930.08 1257.54,-940.45 1412.55,-971.76 1461.08,-983.28 1611.17,-940.52 1680.46,-924.25 1677.25,-856.56 1756.25,-852.38"/>
<path fill="none" stroke="#000000" stroke-width="2" d="M1112.75,-881.75C1184.17,-883.48 1190.66,-930.36 1257.15,-942.41 1412.09,-973.7 1460.62,-985.22 1611.71,-942.45 1682.45,-924.15 1679.25,-856.47 1756.25,-854.38"/>
<path fill="none" stroke="#000000" stroke-width="2" d="M1112.75,-883.75C1182.19,-883.75 1188.68,-930.63 1256.75,-944.37 1411.62,-975.65 1460.16,-987.17 1612.25,-944.38 1684.45,-924.06 1681.25,-856.38 1756.25,-856.38"/>
<path fill="none" stroke="#000000" stroke-width="2" d="M1112.75,-885.75C1180.21,-884.02 1186.7,-930.91 1256.35,-946.34 1411.16,-977.59 1459.69,-989.12 1612.79,-946.3 1686.45,-923.97 1683.24,-856.28 1756.25,-858.37"/>
<path fill="none" stroke="#000000" stroke-width="2" d="M1112.75,-887.75C1178.23,-884.3 1184.72,-931.18 1255.96,-948.3 1410.7,-979.54 1459.23,-991.06 1613.33,-948.23 1688.45,-923.87 1685.24,-856.19 1756.25,-860.37"/>
</g>
<!-- ENC&#45;&#45;MC508_ENC -->
<g id="edge4" class="edge">
<title>ENC:e&#45;&#45;MC508_ENC:w</title>
<path fill="none" stroke="#000000" stroke-width="2" d="M1112.75,-850C1182.97,-852.6 1194.65,-883.92 1257.3,-890.41 1414.18,-912.01 1458.38,-922.26 1611.45,-890.46 1676.5,-879.86 1682.65,-832.11 1756.25,-828.63"/>
<path fill="none" stroke="#895956" stroke-width="2" d="M1112.75,-852C1181.09,-853.3 1192.78,-884.62 1257.02,-892.39 1413.73,-913.96 1457.93,-924.21 1611.85,-892.42 1678.48,-880.11 1684.63,-832.37 1756.25,-830.63"/>
<path fill="none" stroke="#895956" stroke-width="2" d="M1112.75,-854C1179.22,-854 1190.9,-885.32 1256.75,-894.37 1413.28,-915.9 1457.48,-926.16 1612.25,-894.38 1680.46,-880.37 1686.61,-832.62 1756.25,-832.62"/>
<path fill="none" stroke="#895956" stroke-width="2" d="M1112.75,-856C1177.34,-854.7 1189.03,-886.02 1256.48,-896.36 1412.82,-917.85 1457.03,-928.11 1612.65,-896.33 1682.45,-880.62 1688.6,-832.88 1756.25,-834.62"/>
<path fill="none" stroke="#000000" stroke-width="2" d="M1112.75,-858C1175.47,-855.4 1187.15,-886.72 1256.2,-898.34 1412.37,-919.8 1456.58,-930.06 1613.05,-898.29 1684.43,-880.88 1690.58,-833.14 1756.25,-836.62"/>
</g>
<!-- ENC&#45;&#45;MC508_ENC -->
<g id="edge6" class="edge">
<title>ENC:e&#45;&#45;MC508_ENC:w</title>
<path fill="none" stroke="#000000" stroke-width="2" d="M1112.75,-820.25C1180.27,-821.49 1195.18,-837.13 1257.03,-840.38 1415.14,-851.41 1456.18,-859.5 1611.77,-840.4 1674.05,-834.76 1686.7,-807.21 1756.25,-804.88"/>
<path fill="none" stroke="#ff0000" stroke-width="2" d="M1112.75,-822.25C1178.82,-822.87 1193.73,-838.51 1256.89,-842.38 1414.76,-853.37 1455.79,-861.46 1612.01,-842.39 1675.87,-835.59 1688.52,-808.04 1756.25,-806.88"/>
<path fill="none" stroke="#ff0000" stroke-width="2" d="M1112.75,-824.25C1177.37,-824.25 1192.28,-839.89 1256.75,-844.37 1414.37,-855.34 1455.4,-863.42 1612.25,-844.38 1677.69,-836.43 1690.33,-808.88 1756.25,-808.87"/>
<path fill="none" stroke="#ff0000" stroke-width="2" d="M1112.75,-826.25C1175.92,-825.63 1190.84,-841.27 1256.61,-846.37 1413.98,-857.3 1455.02,-865.39 1612.49,-846.36 1679.5,-837.26 1692.15,-809.71 1756.25,-810.87"/>
<path fill="none" stroke="#000000" stroke-width="2" d="M1112.75,-828.25C1174.48,-827.01 1189.39,-842.65 1256.47,-848.37 1413.6,-859.26 1454.63,-867.35 1612.73,-848.35 1681.32,-838.1 1693.97,-810.54 1756.25,-812.87"/>
</g>
<!-- ENC&#45;&#45;MC508_ENC -->
<g id="edge8" class="edge">
<title>ENC:e&#45;&#45;MC508_ENC:w</title>
<path fill="none" stroke="#000000" stroke-width="2" d="M1112.75,-790.5C1335.25,-790.53 1390.87,-797.55 1612.12,-790.38 1674.69,-788.67 1690.46,-781.49 1756.25,-781.13"/>
<path fill="none" stroke="#ff8000" stroke-width="2" d="M1112.75,-792.5C1335,-792.52 1390.62,-799.54 1612.19,-792.38 1675.52,-790.49 1691.29,-783.31 1756.25,-783.13"/>
<path fill="none" stroke="#ff8000" stroke-width="2" d="M1112.75,-794.5C1334.75,-794.5 1390.37,-801.52 1612.25,-794.38 1676.35,-792.31 1692.12,-785.12 1756.25,-785.12"/>
<path fill="none" stroke="#ff8000" stroke-width="2" d="M1112.75,-796.5C1334.5,-796.48 1390.11,-803.51 1612.31,-796.37 1677.18,-794.13 1692.95,-786.94 1756.25,-787.12"/>
<path fill="none" stroke="#000000" stroke-width="2" d="M1112.75,-798.5C1334.25,-798.47 1389.86,-805.49 1612.38,-798.37 1678.01,-795.95 1693.78,-788.76 1756.25,-789.12"/>
</g>
<!-- ENC&#45;&#45;MC508_ENC -->
<g id="edge10" class="edge">
<title>ENC:e&#45;&#45;MC508_ENC:w</title>
<path fill="none" stroke="#000000" stroke-width="2" d="M1112.75,-760.75C1398.57,-760.75 1470.06,-757.38 1756.25,-757.38"/>
<path fill="none" stroke="#00ff00" stroke-width="2" d="M1112.75,-762.75C1398.66,-762.75 1470.15,-759.38 1756.25,-759.38"/>
<path fill="none" stroke="#ffff00" stroke-width="2" d="M1112.75,-764.75C1398.75,-764.75 1470.25,-761.37 1756.25,-761.38"/>
<path fill="none" stroke="#00ff00" stroke-width="2" d="M1112.75,-766.75C1398.85,-766.75 1470.34,-763.37 1756.25,-763.37"/>
<path fill="none" stroke="#000000" stroke-width="2" d="M1112.75,-768.75C1398.94,-768.75 1470.43,-765.37 1756.25,-765.37"/>
</g>
<!-- ENC&#45;&#45;MC508_ENC -->
<g id="edge12" class="edge">
<title>ENC:e&#45;&#45;MC508_ENC:w</title>
<path fill="none" stroke="#000000" stroke-width="2" d="M1112.75,-731C1398.9,-731 1470.39,-733.63 1756.25,-733.63"/>
<path fill="none" stroke="#a0dfff" stroke-width="2" d="M1112.75,-733C1398.83,-733 1470.32,-735.63 1756.25,-735.63"/>
<path fill="none" stroke="#0066ff" stroke-width="2" d="M1112.75,-735C1398.75,-735 1470.25,-737.62 1756.25,-737.62"/>
<path fill="none" stroke="#a0dfff" stroke-width="2" d="M1112.75,-737C1398.68,-737 1470.17,-739.62 1756.25,-739.62"/>
<path fill="none" stroke="#000000" stroke-width="2" d="M1112.75,-739C1398.61,-739 1470.1,-741.62 1756.25,-741.62"/>
</g>
<!-- ENC&#45;&#45;MC508_ENC -->
<g id="edge14" class="edge">
<title>ENC:e&#45;&#45;MC508_ENC:w</title>
<path fill="none" stroke="#000000" stroke-width="2" d="M1112.75,-701.25C1399.26,-701.28 1470.7,-709.9 1756.25,-709.88"/>
<path fill="none" stroke="#ffff00" stroke-width="2" d="M1112.75,-703.25C1399.02,-703.26 1470.46,-711.89 1756.25,-711.88"/>
<path fill="none" stroke="#ffff00" stroke-width="2" d="M1112.75,-705.25C1398.78,-705.25 1470.22,-713.88 1756.25,-713.87"/>
<path fill="none" stroke="#ffff00" stroke-width="2" d="M1112.75,-707.25C1398.54,-707.24 1469.98,-715.86 1756.25,-715.87"/>
<path fill="none" stroke="#000000" stroke-width="2" d="M1112.75,-709.25C1398.3,-709.22 1469.74,-717.85 1756.25,-717.87"/>
</g>
<!-- ENC&#45;&#45;MC508_ENC -->
<g id="edge16" class="edge">
<title>ENC:e&#45;&#45;MC508_ENC:w</title>
<path fill="none" stroke="#000000" stroke-width="2" d="M1112.75,-671.5C1399.63,-671.58 1470.98,-686.21 1756.25,-686.13"/>
<path fill="none" stroke="#895956" stroke-width="2" d="M1112.75,-673.5C1399.23,-673.54 1470.58,-688.17 1756.25,-688.13"/>
<path fill="none" stroke="#ffffff" stroke-width="2" d="M1112.75,-675.5C1398.82,-675.5 1470.18,-690.12 1756.25,-690.12"/>
<path fill="none" stroke="#895956" stroke-width="2" d="M1112.75,-677.5C1398.42,-677.46 1469.77,-692.08 1756.25,-692.12"/>
<path fill="none" stroke="#000000" stroke-width="2" d="M1112.75,-679.5C1398.02,-679.42 1469.37,-694.04 1756.25,-694.12"/>
</g>
<!-- LFWD&#45;&#45;ULN -->
<g id="edge18" class="edge">
<title>LFWD:e&#45;&#45;ULN:w</title>
<path fill="none" stroke="#000000" stroke-width="2" d="M611.75,-454.75C713.8,-456.33 737.96,-424.58 846.38,-423"/>
<path fill="none" stroke="#0066ff" stroke-width="2" d="M611.75,-456.75C715.39,-457.54 739.56,-425.79 846.38,-425"/>
<path fill="none" stroke="#0066ff" stroke-width="2" d="M611.75,-458.75C716.98,-458.75 741.15,-427 846.38,-427"/>
<path fill="none" stroke="#0066ff" stroke-width="2" d="M611.75,-460.75C718.57,-459.96 742.74,-428.21 846.38,-429"/>
<path fill="none" stroke="#000000" stroke-width="2" d="M611.75,-462.75C720.16,-461.17 744.33,-429.42 846.38,-431"/>
</g>
<!-- LREV&#45;&#45;ULN -->
<g id="edge20" class="edge">
<title>LREV:e&#45;&#45;ULN:w</title>
<path fill="none" stroke="#000000" stroke-width="2" d="M611.62,-313.75C726.62,-317.16 739.29,-402.66 846.38,-399.25"/>
<path fill="none" stroke="#ff0000" stroke-width="2" d="M611.62,-315.75C724.64,-317.46 737.32,-402.96 846.38,-401.25"/>
<path fill="none" stroke="#ff0000" stroke-width="2" d="M611.62,-317.75C722.66,-317.75 735.34,-403.25 846.38,-403.25"/>
<path fill="none" stroke="#ff0000" stroke-width="2" d="M611.62,-319.75C720.68,-318.04 733.36,-403.54 846.38,-405.25"/>
<path fill="none" stroke="#000000" stroke-width="2" d="M611.62,-321.75C718.71,-318.34 731.38,-403.84 846.38,-407.25"/>
</g>
<!-- UFWD&#45;&#45;MC508_ENC -->
<g id="edge22" class="edge">
<title>UFWD:e&#45;&#45;MC508_ENC:w</title>
<path fill="none" stroke="#000000" stroke-width="2" d="M1599,-492.75C1705.65,-497.85 1657.3,-667.47 1756.25,-662.38"/>
<path fill="none" stroke="#999999" stroke-width="2" d="M1599,-494.75C1703.72,-497.3 1655.37,-666.92 1756.25,-664.38"/>
<path fill="none" stroke="#999999" stroke-width="2" d="M1599,-496.75C1701.8,-496.75 1653.45,-666.38 1756.25,-666.37"/>
<path fill="none" stroke="#999999" stroke-width="2" d="M1599,-498.75C1699.88,-496.2 1651.53,-665.83 1756.25,-668.37"/>
<path fill="none" stroke="#000000" stroke-width="2" d="M1599,-500.75C1697.95,-495.65 1649.6,-665.28 1756.25,-670.37"/>
</g>
<!-- UREV&#45;&#45;MC508_ENC -->
<g id="edge24" class="edge">
<title>UREV:e&#45;&#45;MC508_ENC:w</title>
<path fill="none" stroke="#000000" stroke-width="2" d="M1612.25,-351.75C1758.5,-357.52 1617.18,-644.39 1756.25,-638.63"/>
<path fill="none" stroke="#0066ff" stroke-width="2" d="M1612.25,-353.75C1756.71,-356.63 1615.38,-643.51 1756.25,-640.63"/>
<path fill="none" stroke="#ffffff" stroke-width="2" d="M1612.25,-355.75C1754.91,-355.75 1613.59,-642.63 1756.25,-642.63"/>
<path fill="none" stroke="#0066ff" stroke-width="2" d="M1612.25,-357.75C1753.12,-354.87 1611.79,-641.74 1756.25,-644.62"/>
<path fill="none" stroke="#000000" stroke-width="2" d="M1612.25,-359.75C1751.32,-353.98 1610,-640.86 1756.25,-646.62"/>
</g>
<!-- LPWR&#45;&#45;EXT5V -->
<g id="edge26" class="edge">
<title>LPWR:e&#45;&#45;EXT5V:w</title>
<path fill="none" stroke="#000000" stroke-width="2" d="M591.38,-164.75C1111.06,-164.78 1241,-149.4 1761.62,-149.38"/>
<path fill="none" stroke="#ff0000" stroke-width="2" d="M591.38,-166.75C1111.3,-166.76 1241.23,-151.39 1761.62,-151.38"/>
<path fill="none" stroke="#ff0000" stroke-width="2" d="M591.38,-168.75C1111.53,-168.75 1241.47,-153.38 1761.62,-153.38"/>
<path fill="none" stroke="#ff0000" stroke-width="2" d="M591.38,-170.75C1111.77,-170.74 1241.7,-155.36 1761.62,-155.37"/>
<path fill="none" stroke="#000000" stroke-width="2" d="M591.38,-172.75C1112,-172.72 1241.94,-157.35 1761.62,-157.37"/>
</g>
<!-- LGND&#45;&#45;EXT5V -->
<g id="edge28" class="edge">
<title>LGND:e&#45;&#45;EXT5V:w</title>
<path fill="none" stroke="#000000" stroke-width="2" d="M1058.62,-20.75C1377.84,-22.5 1449.03,-127.38 1761.62,-125.63"/>
<path fill="none" stroke="#000000" stroke-width="2" d="M1058.62,-22.75C1376.18,-23.63 1447.38,-128.5 1761.62,-127.63"/>
<path fill="none" stroke="#000000" stroke-width="2" d="M1058.62,-24.75C1374.53,-24.75 1445.72,-129.63 1761.62,-129.62"/>
<path fill="none" stroke="#000000" stroke-width="2" d="M1058.62,-26.75C1372.87,-25.87 1444.07,-130.75 1761.62,-131.62"/>
<path fill="none" stroke="#000000" stroke-width="2" d="M1058.62,-28.75C1371.22,-27 1442.41,-131.87 1761.62,-133.62"/>
</g>
<!-- UGND&#45;&#45;EXT5V -->
<g id="edge30" class="edge">
<title>UGND:e&#45;&#45;EXT5V:w</title>
<path fill="none" stroke="#000000" stroke-width="2" d="M1572,-210.75C1660.39,-214.52 1665.25,-129.4 1761.62,-125.63"/>
<path fill="none" stroke="#000000" stroke-width="2" d="M1572,-212.75C1662.38,-214.64 1667.25,-129.51 1761.62,-127.63"/>
<path fill="none" stroke="#000000" stroke-width="2" d="M1572,-214.75C1664.38,-214.75 1669.24,-129.62 1761.62,-129.62"/>
<path fill="none" stroke="#000000" stroke-width="2" d="M1572,-216.75C1666.38,-214.86 1671.24,-129.74 1761.62,-131.62"/>
<path fill="none" stroke="#000000" stroke-width="2" d="M1572,-218.75C1668.37,-214.98 1673.24,-129.85 1761.62,-133.62"/>
</g>
</g>
</svg>
