<?xml version="1.0" encoding="UTF-8" standalone="no"?>
<!DOCTYPE svg PUBLIC "-//W3C//DTD SVG 1.1//EN"
 "http://www.w3.org/Graphics/SVG/1.1/DTD/svg11.dtd">
<!-- Generated by graphviz version 15.0.0 (20260523.1842)
 -->
<!-- Pages: 1 -->
<svg width="2833pt" height="884pt"
 viewBox="0.00 0.00 2833.00 884.00" xmlns="http://www.w3.org/2000/svg" xmlns:xlink="http://www.w3.org/1999/xlink">
<g id="graph0" class="graph" transform="scale(1 1) rotate(0) translate(4 879.79)">
<polygon fill="#ffffff" stroke="none" points="-4,4 -4,-879.79 2829.25,-879.79 2829.25,4 -4,4"/>
<!-- MC508_STEP -->
<g id="node1" class="node">
<title>MC508_STEP</title>
<polygon fill="#ffffff" stroke="black" points="368,-725.5 0,-725.5 0,-583 368,-583 368,-725.5"/>
<polygon fill="none" stroke="black" points="0,-701.75 0,-725.5 368,-725.5 368,-701.75 0,-701.75"/>
<text xml:space="preserve" text-anchor="start" x="140.5" y="-708.75" font-family="arial" font-size="14.00">MC508_STEP</text>
<polygon fill="none" stroke="black" points="0,-678 0,-701.75 194.5,-701.75 194.5,-678 0,-678"/>
<text xml:space="preserve" text-anchor="start" x="71.75" y="-685" font-family="arial" font-size="14.00">MDR&#45;20</text>
<polygon fill="none" stroke="black" points="194.5,-678 194.5,-701.75 368,-701.75 368,-678 194.5,-678"/>
<text xml:space="preserve" text-anchor="start" x="266.25" y="-685" font-family="arial" font-size="14.00">3&#45;pin</text>
<polygon fill="none" stroke="black" points="0,-654.25 0,-678 197.5,-678 197.5,-654.25 0,-654.25"/>
<text xml:space="preserve" text-anchor="start" x="77.75" y="-661.25" font-family="arial" font-size="14.00">Pulse+</text>
<polygon fill="none" stroke="black" points="197.5,-654.25 197.5,-678 368,-678 368,-654.25 197.5,-654.25"/>
<text xml:space="preserve" text-anchor="start" x="279" y="-661.25" font-family="arial" font-size="14.00">1</text>
<polygon fill="none" stroke="black" points="0,-630.5 0,-654.25 197.5,-654.25 197.5,-630.5 0,-630.5"/>
<text xml:space="preserve" text-anchor="start" x="86" y="-637.5" font-family="arial" font-size="14.00">Dir+</text>
<polygon fill="none" stroke="black" points="197.5,-630.5 197.5,-654.25 368,-654.25 368,-630.5 197.5,-630.5"/>
<text xml:space="preserve" text-anchor="start" x="279" y="-637.5" font-family="arial" font-size="14.00">3</text>
<polygon fill="none" stroke="black" points="0,-606.75 0,-630.5 197.5,-630.5 197.5,-606.75 0,-606.75"/>
<text xml:space="preserve" text-anchor="start" x="90.5" y="-613.75" font-family="arial" font-size="14.00">0V</text>
<polygon fill="none" stroke="black" points="197.5,-606.75 197.5,-630.5 368,-630.5 368,-606.75 197.5,-606.75"/>
<text xml:space="preserve" text-anchor="start" x="275.25" y="-613.75" font-family="arial" font-size="14.00">15</text>
<polygon fill="none" stroke="black" points="0,-583 0,-606.75 368,-606.75 368,-583 0,-583"/>
<text xml:space="preserve" text-anchor="start" x="4" y="-590" font-family="arial" font-size="14.00">MC508 Stepper Port (ATYPE 43 primary). Pins 1/3/15 used.</text>
</g>
<!-- STEP_PUL -->
<g id="node5" class="node">
<title>STEP_PUL</title>
<polygon fill="#ffffff" stroke="black" points="809,-841.5 512,-841.5 512,-701 809,-701 809,-841.5"/>
<polygon fill="none" stroke="black" points="512,-817.75 512,-841.5 809,-841.5 809,-817.75 512,-817.75"/>
<text xml:space="preserve" text-anchor="start" x="626" y="-824.75" font-family="arial" font-size="14.00">STEP_PUL</text>
<polygon fill="none" stroke="black" points="512,-794 512,-817.75 809,-817.75 809,-794 512,-794"/>
<text xml:space="preserve" text-anchor="start" x="653.38" y="-801" font-family="arial" font-size="14.00">1x</text>
<text xml:space="preserve" text-anchor="start" x="584.12" y="-779.25" font-family="arial" font-size="14.00"> </text>
<text xml:space="preserve" text-anchor="start" x="514" y="-759.5" font-family="arial" font-size="14.00">MC508_STEP:1:Pulse+</text>
<text xml:space="preserve" text-anchor="start" x="662" y="-759.5" font-family="arial" font-size="14.00"> &#160;&#160;&#160;&#160;1:BK &#160;&#160;&#160;</text>
<text xml:space="preserve" text-anchor="start" x="729" y="-759.5" font-family="arial" font-size="14.00">DRV:1:PUL+</text>
<polygon fill="#000000" stroke="none" points="512,-752.5 512,-754.5 809,-754.5 809,-752.5 512,-752.5"/>
<polygon fill="#000000" stroke="none" points="512,-750.5 512,-752.5 809,-752.5 809,-750.5 512,-750.5"/>
<polygon fill="#000000" stroke="none" points="512,-748.5 512,-750.5 809,-750.5 809,-748.5 512,-748.5"/>
<polygon fill="#000000" stroke="none" points="512,-746.5 512,-748.5 809,-748.5 809,-746.5 512,-746.5"/>
<polygon fill="#000000" stroke="none" points="512,-744.5 512,-746.5 809,-746.5 809,-744.5 512,-744.5"/>
<text xml:space="preserve" text-anchor="start" x="584.12" y="-729.75" font-family="arial" font-size="14.00"> </text>
<polygon fill="none" stroke="black" points="512,-701 512,-724.75 809,-724.75 809,-701 512,-701"/>
<text xml:space="preserve" text-anchor="start" x="600.88" y="-708" font-family="arial" font-size="14.00">Pulse+ (SCSI pin 1)</text>
</g>
<!-- MC508_STEP&#45;&#45;STEP_PUL -->
<g id="edge1" class="edge">
<title>MC508_STEP:e&#45;&#45;STEP_PUL:w</title>
<path fill="none" stroke="#000000" stroke-width="2" d="M368,-662.13C445.95,-666.31 442.04,-749.69 512,-745.5"/>
<path fill="none" stroke="#000000" stroke-width="2" d="M368,-664.13C443.95,-666.22 440.04,-749.59 512,-747.5"/>
<path fill="none" stroke="#000000" stroke-width="2" d="M368,-666.12C441.95,-666.12 438.05,-749.5 512,-749.5"/>
<path fill="none" stroke="#000000" stroke-width="2" d="M368,-668.12C439.96,-666.03 436.05,-749.41 512,-751.5"/>
<path fill="none" stroke="#000000" stroke-width="2" d="M368,-670.12C437.96,-665.94 434.05,-749.31 512,-753.5"/>
</g>
<!-- STEP_DIR -->
<g id="node6" class="node">
<title>STEP_DIR</title>
<polygon fill="#ffffff" stroke="black" points="1620.75,-724.5 1341.75,-724.5 1341.75,-584 1620.75,-584 1620.75,-724.5"/>
<polygon fill="none" stroke="black" points="1341.75,-700.75 1341.75,-724.5 1620.75,-724.5 1620.75,-700.75 1341.75,-700.75"/>
<text xml:space="preserve" text-anchor="start" x="1448.25" y="-707.75" font-family="arial" font-size="14.00">STEP_DIR</text>
<polygon fill="none" stroke="black" points="1341.75,-677 1341.75,-700.75 1620.75,-700.75 1620.75,-677 1341.75,-677"/>
<text xml:space="preserve" text-anchor="start" x="1474.12" y="-684" font-family="arial" font-size="14.00">1x</text>
<text xml:space="preserve" text-anchor="start" x="1405.62" y="-662.25" font-family="arial" font-size="14.00"> </text>
<text xml:space="preserve" text-anchor="start" x="1343.75" y="-642.5" font-family="arial" font-size="14.00">MC508_STEP:3:Dir+</text>
<text xml:space="preserve" text-anchor="start" x="1475.25" y="-642.5" font-family="arial" font-size="14.00"> &#160;&#160;&#160;&#160;1:RD &#160;&#160;&#160;</text>
<text xml:space="preserve" text-anchor="start" x="1543.75" y="-642.5" font-family="arial" font-size="14.00">DRV:3:DIR+</text>
<polygon fill="#000000" stroke="none" points="1341.75,-635.5 1341.75,-637.5 1620.75,-637.5 1620.75,-635.5 1341.75,-635.5"/>
<polygon fill="#ff0000" stroke="none" points="1341.75,-633.5 1341.75,-635.5 1620.75,-635.5 1620.75,-633.5 1341.75,-633.5"/>
<polygon fill="#ff0000" stroke="none" points="1341.75,-631.5 1341.75,-633.5 1620.75,-633.5 1620.75,-631.5 1341.75,-631.5"/>
<polygon fill="#ff0000" stroke="none" points="1341.75,-629.5 1341.75,-631.5 1620.75,-631.5 1620.75,-629.5 1341.75,-629.5"/>
<polygon fill="#000000" stroke="none" points="1341.75,-627.5 1341.75,-629.5 1620.75,-629.5 1620.75,-627.5 1341.75,-627.5"/>
<text xml:space="preserve" text-anchor="start" x="1405.62" y="-612.75" font-family="arial" font-size="14.00"> </text>
<polygon fill="none" stroke="black" points="1341.75,-584 1341.75,-607.75 1620.75,-607.75 1620.75,-584 1341.75,-584"/>
<text xml:space="preserve" text-anchor="start" x="1429.88" y="-591" font-family="arial" font-size="14.00">Dir+ (SCSI pin 3)</text>
</g>
<!-- MC508_STEP&#45;&#45;STEP_DIR -->
<g id="edge3" class="edge">
<title>MC508_STEP:e&#45;&#45;STEP_DIR:w</title>
<path fill="none" stroke="#000000" stroke-width="2" d="M368,-638.38C799.99,-638.39 908.03,-628.52 1340.75,-628.5"/>
<path fill="none" stroke="#ff0000" stroke-width="2" d="M368,-640.38C800.17,-640.38 908.21,-630.51 1340.75,-630.5"/>
<path fill="none" stroke="#ff0000" stroke-width="2" d="M368,-642.37C800.36,-642.38 908.39,-632.5 1340.75,-632.5"/>
<path fill="none" stroke="#ff0000" stroke-width="2" d="M368,-644.37C800.54,-644.37 908.58,-634.49 1340.75,-634.5"/>
<path fill="none" stroke="#000000" stroke-width="2" d="M368,-646.37C800.72,-646.36 908.76,-636.48 1340.75,-636.5"/>
</g>
<!-- GND_SCSI -->
<g id="node7" class="node">
<title>GND_SCSI</title>
<polygon fill="#ffffff" stroke="black" points="773,-606.5 548,-606.5 548,-466 773,-466 773,-606.5"/>
<polygon fill="none" stroke="black" points="548,-582.75 548,-606.5 773,-606.5 773,-582.75 548,-582.75"/>
<text xml:space="preserve" text-anchor="start" x="625.62" y="-589.75" font-family="arial" font-size="14.00">GND_SCSI</text>
<polygon fill="none" stroke="black" points="548,-559 548,-582.75 773,-582.75 773,-559 548,-559"/>
<text xml:space="preserve" text-anchor="start" x="653.38" y="-566" font-family="arial" font-size="14.00">1x</text>
<text xml:space="preserve" text-anchor="start" x="611.12" y="-544.25" font-family="arial" font-size="14.00"> </text>
<text xml:space="preserve" text-anchor="start" x="550" y="-524.5" font-family="arial" font-size="14.00">MC508_STEP:15:0V</text>
<text xml:space="preserve" text-anchor="start" x="680" y="-524.5" font-family="arial" font-size="14.00"> &#160;&#160;&#160;&#160;1:WHBN &#160;&#160;&#160;</text>
<polygon fill="#000000" stroke="none" points="548,-517.5 548,-519.5 773,-519.5 773,-517.5 548,-517.5"/>
<polygon fill="#ffffff" stroke="none" points="548,-515.5 548,-517.5 773,-517.5 773,-515.5 548,-515.5"/>
<polygon fill="#895956" stroke="none" points="548,-513.5 548,-515.5 773,-515.5 773,-513.5 548,-513.5"/>
<polygon fill="#ffffff" stroke="none" points="548,-511.5 548,-513.5 773,-513.5 773,-511.5 548,-511.5"/>
<polygon fill="#000000" stroke="none" points="548,-509.5 548,-511.5 773,-511.5 773,-509.5 548,-509.5"/>
<text xml:space="preserve" text-anchor="start" x="611.12" y="-494.75" font-family="arial" font-size="14.00"> </text>
<polygon fill="none" stroke="black" points="548,-466 548,-489.75 773,-489.75 773,-466 548,-466"/>
<text xml:space="preserve" text-anchor="start" x="609.88" y="-473" font-family="arial" font-size="14.00">0V (SCSI pin 15)</text>
</g>
<!-- MC508_STEP&#45;&#45;GND_SCSI -->
<g id="edge5" class="edge">
<title>MC508_STEP:e&#45;&#45;GND_SCSI:w</title>
<path fill="none" stroke="#000000" stroke-width="2" d="M368,-614.63C456.04,-618.82 450.97,-514.69 547,-510.5"/>
<path fill="none" stroke="#ffffff" stroke-width="2" d="M368,-616.63C458.04,-618.72 452.97,-514.6 547,-512.5"/>
<path fill="none" stroke="#895956" stroke-width="2" d="M368,-618.62C460.04,-618.62 454.96,-514.5 547,-514.5"/>
<path fill="none" stroke="#ffffff" stroke-width="2" d="M368,-620.62C462.03,-618.53 456.96,-514.4 547,-516.5"/>
<path fill="none" stroke="#000000" stroke-width="2" d="M368,-622.62C464.03,-618.43 458.96,-514.31 547,-518.5"/>
</g>
<!-- DRV -->
<g id="node2" class="node">
<title>DRV</title>
<polygon fill="#ffffff" stroke="black" points="2825.25,-568.12 2641,-568.12 2641,-354.38 2825.25,-354.38 2825.25,-568.12"/>
<polygon fill="none" stroke="black" points="2641,-544.38 2641,-568.12 2825.25,-568.12 2825.25,-544.38 2641,-544.38"/>
<text xml:space="preserve" text-anchor="start" x="2718.88" y="-551.38" font-family="arial" font-size="14.00">DRV</text>
<polygon fill="none" stroke="black" points="2641,-520.62 2641,-544.38 2764.62,-544.38 2764.62,-520.62 2641,-520.62"/>
<text xml:space="preserve" text-anchor="start" x="2656.31" y="-527.62" font-family="arial" font-size="14.00">Screw Terminal</text>
<polygon fill="none" stroke="black" points="2764.62,-520.62 2764.62,-544.38 2825.25,-544.38 2825.25,-520.62 2764.62,-520.62"/>
<text xml:space="preserve" text-anchor="start" x="2779.94" y="-527.62" font-family="arial" font-size="14.00">6&#45;pin</text>
<polygon fill="none" stroke="black" points="2641,-496.88 2641,-520.62 2718.88,-520.62 2718.88,-496.88 2641,-496.88"/>
<text xml:space="preserve" text-anchor="start" x="2676.19" y="-503.88" font-family="arial" font-size="14.00">1</text>
<polygon fill="none" stroke="black" points="2718.88,-496.88 2718.88,-520.62 2825.25,-520.62 2825.25,-496.88 2718.88,-496.88"/>
<text xml:space="preserve" text-anchor="start" x="2754.81" y="-503.88" font-family="arial" font-size="14.00">PUL+</text>
<polygon fill="none" stroke="black" points="2641,-473.12 2641,-496.88 2718.88,-496.88 2718.88,-473.12 2641,-473.12"/>
<text xml:space="preserve" text-anchor="start" x="2676.19" y="-480.12" font-family="arial" font-size="14.00">2</text>
<polygon fill="none" stroke="black" points="2718.88,-473.12 2718.88,-496.88 2825.25,-496.88 2825.25,-473.12 2718.88,-473.12"/>
<text xml:space="preserve" text-anchor="start" x="2756.69" y="-480.12" font-family="arial" font-size="14.00">PUL&#45;</text>
<polygon fill="none" stroke="black" points="2641,-449.38 2641,-473.12 2718.88,-473.12 2718.88,-449.38 2641,-449.38"/>
<text xml:space="preserve" text-anchor="start" x="2676.19" y="-456.38" font-family="arial" font-size="14.00">3</text>
<polygon fill="none" stroke="black" points="2718.88,-449.38 2718.88,-473.12 2825.25,-473.12 2825.25,-449.38 2718.88,-449.38"/>
<text xml:space="preserve" text-anchor="start" x="2756.31" y="-456.38" font-family="arial" font-size="14.00">DIR+</text>
<polygon fill="none" stroke="black" points="2641,-425.62 2641,-449.38 2718.88,-449.38 2718.88,-425.62 2641,-425.62"/>
<text xml:space="preserve" text-anchor="start" x="2676.19" y="-432.62" font-family="arial" font-size="14.00">4</text>
<polygon fill="none" stroke="black" points="2718.88,-425.62 2718.88,-449.38 2825.25,-449.38 2825.25,-425.62 2718.88,-425.62"/>
<text xml:space="preserve" text-anchor="start" x="2758.19" y="-432.62" font-family="arial" font-size="14.00">DIR&#45;</text>
<polygon fill="none" stroke="black" points="2641,-401.88 2641,-425.62 2718.88,-425.62 2718.88,-401.88 2641,-401.88"/>
<text xml:space="preserve" text-anchor="start" x="2676.19" y="-408.88" font-family="arial" font-size="14.00">5</text>
<polygon fill="none" stroke="black" points="2718.88,-401.88 2718.88,-425.62 2825.25,-425.62 2825.25,-401.88 2718.88,-401.88"/>
<text xml:space="preserve" text-anchor="start" x="2754.06" y="-408.88" font-family="arial" font-size="14.00">ENA+</text>
<polygon fill="none" stroke="black" points="2641,-378.12 2641,-401.88 2718.88,-401.88 2718.88,-378.12 2641,-378.12"/>
<text xml:space="preserve" text-anchor="start" x="2676.19" y="-385.12" font-family="arial" font-size="14.00">6</text>
<polygon fill="none" stroke="black" points="2718.88,-378.12 2718.88,-401.88 2825.25,-401.88 2825.25,-378.12 2718.88,-378.12"/>
<text xml:space="preserve" text-anchor="start" x="2755.94" y="-385.12" font-family="arial" font-size="14.00">ENA&#45;</text>
<polygon fill="none" stroke="black" points="2641,-354.38 2641,-378.12 2825.25,-378.12 2825.25,-354.38 2641,-354.38"/>
<text xml:space="preserve" text-anchor="start" x="2645" y="-361.38" font-family="arial" font-size="14.00">KL&#45;4030 Driver (one per port)</text>
</g>
<!-- TIE_0V -->
<g id="node3" class="node">
<title>TIE_0V</title>
<polygon fill="#ffffff" stroke="black" points="1608.25,-539 1354.25,-539 1354.25,-491.5 1608.25,-491.5 1608.25,-539"/>
<polygon fill="none" stroke="black" points="1354.25,-515.25 1354.25,-539 1608.25,-539 1608.25,-515.25 1354.25,-515.25"/>
<text xml:space="preserve" text-anchor="start" x="1462.88" y="-522.25" font-family="arial" font-size="14.00">Splice</text>
<polygon fill="none" stroke="black" points="1354.25,-491.5 1354.25,-515.25 1608.25,-515.25 1608.25,-491.5 1354.25,-491.5"/>
<text xml:space="preserve" text-anchor="start" x="1358.25" y="-498.5" font-family="arial" font-size="14.00">MC508 0V tie (step/dir ground reference)</text>
</g>
<!-- GND_1 -->
<g id="node8" class="node">
<title>GND_1</title>
<polygon fill="#ffffff" stroke="black" points="2413.75,-635.5 2236.75,-635.5 2236.75,-495 2413.75,-495 2413.75,-635.5"/>
<polygon fill="none" stroke="black" points="2236.75,-611.75 2236.75,-635.5 2413.75,-635.5 2413.75,-611.75 2236.75,-611.75"/>
<text xml:space="preserve" text-anchor="start" x="2302.38" y="-618.75" font-family="arial" font-size="14.00">GND_1</text>
<polygon fill="none" stroke="black" points="2236.75,-588 2236.75,-611.75 2413.75,-611.75 2413.75,-588 2236.75,-588"/>
<text xml:space="preserve" text-anchor="start" x="2318.12" y="-595" font-family="arial" font-size="14.00">1x</text>
<text xml:space="preserve" text-anchor="start" x="2238.75" y="-573.25" font-family="arial" font-size="14.00"> </text>
<text xml:space="preserve" text-anchor="start" x="2246.5" y="-553.5" font-family="arial" font-size="14.00"> &#160;&#160;&#160;&#160;1:WHBN &#160;&#160;&#160;</text>
<text xml:space="preserve" text-anchor="start" x="2337.5" y="-553.5" font-family="arial" font-size="14.00">DRV:2:PUL&#45;</text>
<polygon fill="#000000" stroke="none" points="2236.75,-546.5 2236.75,-548.5 2413.75,-548.5 2413.75,-546.5 2236.75,-546.5"/>
<polygon fill="#ffffff" stroke="none" points="2236.75,-544.5 2236.75,-546.5 2413.75,-546.5 2413.75,-544.5 2236.75,-544.5"/>
<polygon fill="#895956" stroke="none" points="2236.75,-542.5 2236.75,-544.5 2413.75,-544.5 2413.75,-542.5 2236.75,-542.5"/>
<polygon fill="#ffffff" stroke="none" points="2236.75,-540.5 2236.75,-542.5 2413.75,-542.5 2413.75,-540.5 2236.75,-540.5"/>
<polygon fill="#000000" stroke="none" points="2236.75,-538.5 2236.75,-540.5 2413.75,-540.5 2413.75,-538.5 2236.75,-538.5"/>
<text xml:space="preserve" text-anchor="start" x="2238.75" y="-523.75" font-family="arial" font-size="14.00"> </text>
<polygon fill="none" stroke="black" points="2236.75,-495 2236.75,-518.75 2413.75,-518.75 2413.75,-495 2236.75,-495"/>
<text xml:space="preserve" text-anchor="start" x="2272.38" y="-502" font-family="arial" font-size="14.00">0V to Driver PUL&#45;</text>
</g>
<!-- TIE_0V&#45;&#45;GND_1 -->
<g id="edge7" class="edge">
<title>TIE_0V:e&#45;&#45;GND_1:w</title>
<path fill="none" stroke="#000000" stroke-width="2" d="M1609.25,-511.25C1889.49,-511.55 1958.54,-539.8 2235.75,-539.5"/>
<path fill="none" stroke="#ffffff" stroke-width="2" d="M1609.25,-513.25C1888.73,-513.4 1957.78,-541.65 2235.75,-541.5"/>
<path fill="none" stroke="#895956" stroke-width="2" d="M1609.25,-515.25C1887.98,-515.25 1957.02,-543.5 2235.75,-543.5"/>
<path fill="none" stroke="#ffffff" stroke-width="2" d="M1609.25,-517.25C1887.22,-517.1 1956.27,-545.35 2235.75,-545.5"/>
<path fill="none" stroke="#000000" stroke-width="2" d="M1609.25,-519.25C1886.46,-518.95 1955.51,-547.2 2235.75,-547.5"/>
</g>
<!-- GND_2 -->
<g id="node9" class="node">
<title>GND_2</title>
<polygon fill="#ffffff" stroke="black" points="2412.25,-470.5 2238.25,-470.5 2238.25,-330 2412.25,-330 2412.25,-470.5"/>
<polygon fill="none" stroke="black" points="2238.25,-446.75 2238.25,-470.5 2412.25,-470.5 2412.25,-446.75 2238.25,-446.75"/>
<text xml:space="preserve" text-anchor="start" x="2302.38" y="-453.75" font-family="arial" font-size="14.00">GND_2</text>
<polygon fill="none" stroke="black" points="2238.25,-423 2238.25,-446.75 2412.25,-446.75 2412.25,-423 2238.25,-423"/>
<text xml:space="preserve" text-anchor="start" x="2318.12" y="-430" font-family="arial" font-size="14.00">1x</text>
<text xml:space="preserve" text-anchor="start" x="2240.25" y="-408.25" font-family="arial" font-size="14.00"> </text>
<text xml:space="preserve" text-anchor="start" x="2248" y="-388.5" font-family="arial" font-size="14.00"> &#160;&#160;&#160;&#160;1:WHBN &#160;&#160;&#160;</text>
<text xml:space="preserve" text-anchor="start" x="2339" y="-388.5" font-family="arial" font-size="14.00">DRV:4:DIR&#45;</text>
<polygon fill="#000000" stroke="none" points="2238.25,-381.5 2238.25,-383.5 2412.25,-383.5 2412.25,-381.5 2238.25,-381.5"/>
<polygon fill="#ffffff" stroke="none" points="2238.25,-379.5 2238.25,-381.5 2412.25,-381.5 2412.25,-379.5 2238.25,-379.5"/>
<polygon fill="#895956" stroke="none" points="2238.25,-377.5 2238.25,-379.5 2412.25,-379.5 2412.25,-377.5 2238.25,-377.5"/>
<polygon fill="#ffffff" stroke="none" points="2238.25,-375.5 2238.25,-377.5 2412.25,-377.5 2412.25,-375.5 2238.25,-375.5"/>
<polygon fill="#000000" stroke="none" points="2238.25,-373.5 2238.25,-375.5 2412.25,-375.5 2412.25,-373.5 2238.25,-373.5"/>
<text xml:space="preserve" text-anchor="start" x="2240.25" y="-358.75" font-family="arial" font-size="14.00"> </text>
<polygon fill="none" stroke="black" points="2238.25,-330 2238.25,-353.75 2412.25,-353.75 2412.25,-330 2238.25,-330"/>
<text xml:space="preserve" text-anchor="start" x="2273.88" y="-337" font-family="arial" font-size="14.00">0V to Driver DIR&#45;</text>
</g>
<!-- TIE_0V&#45;&#45;GND_2 -->
<g id="edge9" class="edge">
<title>TIE_0V:e&#45;&#45;GND_2:w</title>
<path fill="none" stroke="#000000" stroke-width="2" d="M1609.25,-511.25C1891.21,-513.72 1947.9,-376.97 2237.25,-374.5"/>
<path fill="none" stroke="#ffffff" stroke-width="2" d="M1609.25,-513.25C1893.05,-514.48 1949.75,-377.73 2237.25,-376.5"/>
<path fill="none" stroke="#895956" stroke-width="2" d="M1609.25,-515.25C1894.9,-515.25 1951.6,-378.5 2237.25,-378.5"/>
<path fill="none" stroke="#ffffff" stroke-width="2" d="M1609.25,-517.25C1896.75,-516.02 1953.45,-379.27 2237.25,-380.5"/>
<path fill="none" stroke="#000000" stroke-width="2" d="M1609.25,-519.25C1898.6,-516.78 1955.29,-380.03 2237.25,-382.5"/>
</g>
<!-- FP_ENABLE -->
<g id="node4" class="node">
<title>FP_ENABLE</title>
<polygon fill="#ffffff" stroke="black" points="2009.5,-202.62 953,-202.62 953,-83.88 2009.5,-83.88 2009.5,-202.62"/>
<polygon fill="none" stroke="black" points="953,-178.88 953,-202.62 2009.5,-202.62 2009.5,-178.88 953,-178.88"/>
<text xml:space="preserve" text-anchor="start" x="1442.25" y="-185.88" font-family="arial" font-size="14.00">FP_ENABLE</text>
<polygon fill="none" stroke="black" points="953,-155.12 953,-178.88 1535.62,-178.88 1535.62,-155.12 953,-155.12"/>
<text xml:space="preserve" text-anchor="start" x="1174.94" y="-162.12" font-family="arial" font-size="14.00">Front&#45;panel enable bus</text>
<polygon fill="none" stroke="black" points="1535.62,-155.12 1535.62,-178.88 2009.5,-178.88 2009.5,-155.12 1535.62,-155.12"/>
<text xml:space="preserve" text-anchor="start" x="1757.56" y="-162.12" font-family="arial" font-size="14.00">2&#45;pin</text>
<polygon fill="none" stroke="black" points="953,-131.38 953,-155.12 1527.38,-155.12 1527.38,-131.38 953,-131.38"/>
<text xml:space="preserve" text-anchor="start" x="1194.44" y="-138.38" font-family="arial" font-size="14.00">ENA+ (disable)</text>
<polygon fill="none" stroke="black" points="1527.38,-131.38 1527.38,-155.12 2009.5,-155.12 2009.5,-131.38 1527.38,-131.38"/>
<text xml:space="preserve" text-anchor="start" x="1764.69" y="-138.38" font-family="arial" font-size="14.00">1</text>
<polygon fill="none" stroke="black" points="953,-107.62 953,-131.38 1527.38,-131.38 1527.38,-107.62 953,-107.62"/>
<text xml:space="preserve" text-anchor="start" x="1190.31" y="-114.62" font-family="arial" font-size="14.00">ENA&#45; (sys GND)</text>
<polygon fill="none" stroke="black" points="1527.38,-107.62 1527.38,-131.38 2009.5,-131.38 2009.5,-107.62 1527.38,-107.62"/>
<text xml:space="preserve" text-anchor="start" x="1764.69" y="-114.62" font-family="arial" font-size="14.00">2</text>
<polygon fill="none" stroke="black" points="953,-83.88 953,-107.62 2009.5,-107.62 2009.5,-83.88 953,-83.88"/>
<text xml:space="preserve" text-anchor="start" x="957" y="-90.88" font-family="arial" font-size="14.00">Driver enable/disable, generated on the front panel (E&#45;stop + WDOG&#45;buffered PNP; see Pics/front_panel_schematic.jpg). Shared by all drivers. ENA+ is active&#45;LOW = disable.</text>
</g>
<!-- ENA_P -->
<g id="node10" class="node">
<title>ENA_P</title>
<polygon fill="#ffffff" stroke="black" points="2497,-305.5 2153.5,-305.5 2153.5,-165 2497,-165 2497,-305.5"/>
<polygon fill="none" stroke="black" points="2153.5,-281.75 2153.5,-305.5 2497,-305.5 2497,-281.75 2153.5,-281.75"/>
<text xml:space="preserve" text-anchor="start" x="2303.12" y="-288.75" font-family="arial" font-size="14.00">ENA_P</text>
<polygon fill="none" stroke="black" points="2153.5,-258 2153.5,-281.75 2497,-281.75 2497,-258 2153.5,-258"/>
<text xml:space="preserve" text-anchor="start" x="2318.12" y="-265" font-family="arial" font-size="14.00">1x</text>
<text xml:space="preserve" text-anchor="start" x="2245.88" y="-243.25" font-family="arial" font-size="14.00"> </text>
<text xml:space="preserve" text-anchor="start" x="2155.5" y="-223.5" font-family="arial" font-size="14.00">FP_ENABLE:1:ENA+ (disable)</text>
<text xml:space="preserve" text-anchor="start" x="2344" y="-223.5" font-family="arial" font-size="14.00"> &#160;&#160;&#160;&#160;1:OG &#160;&#160;&#160;</text>
<text xml:space="preserve" text-anchor="start" x="2415.5" y="-223.5" font-family="arial" font-size="14.00">DRV:5:ENA+</text>
<polygon fill="#000000" stroke="none" points="2153.5,-216.5 2153.5,-218.5 2497,-218.5 2497,-216.5 2153.5,-216.5"/>
<polygon fill="#ff8000" stroke="none" points="2153.5,-214.5 2153.5,-216.5 2497,-216.5 2497,-214.5 2153.5,-214.5"/>
<polygon fill="#ff8000" stroke="none" points="2153.5,-212.5 2153.5,-214.5 2497,-214.5 2497,-212.5 2153.5,-212.5"/>
<polygon fill="#ff8000" stroke="none" points="2153.5,-210.5 2153.5,-212.5 2497,-212.5 2497,-210.5 2153.5,-210.5"/>
<polygon fill="#000000" stroke="none" points="2153.5,-208.5 2153.5,-210.5 2497,-210.5 2497,-208.5 2153.5,-208.5"/>
<text xml:space="preserve" text-anchor="start" x="2245.88" y="-193.75" font-family="arial" font-size="14.00"> </text>
<polygon fill="none" stroke="black" points="2153.5,-165 2153.5,-188.75 2497,-188.75 2497,-165 2153.5,-165"/>
<text xml:space="preserve" text-anchor="start" x="2221.38" y="-172" font-family="arial" font-size="14.00">Front&#45;panel enable to Driver ENA+</text>
</g>
<!-- FP_ENABLE&#45;&#45;ENA_P -->
<g id="edge11" class="edge">
<title>FP_ENABLE:e&#45;&#45;ENA_P:w</title>
<path fill="none" stroke="#000000" stroke-width="2" d="M2009.5,-139.25C2084.71,-143.16 2086.29,-213.41 2153.5,-209.5"/>
<path fill="none" stroke="#ff8000" stroke-width="2" d="M2009.5,-141.25C2082.71,-143.21 2084.29,-213.46 2153.5,-211.5"/>
<path fill="none" stroke="#ff8000" stroke-width="2" d="M2009.5,-143.25C2080.71,-143.25 2082.29,-213.5 2153.5,-213.5"/>
<path fill="none" stroke="#ff8000" stroke-width="2" d="M2009.5,-145.25C2078.71,-143.29 2080.29,-213.54 2153.5,-215.5"/>
<path fill="none" stroke="#000000" stroke-width="2" d="M2009.5,-147.25C2076.71,-143.34 2078.29,-213.59 2153.5,-217.5"/>
</g>
<!-- ENA_N -->
<g id="node11" class="node">
<title>ENA_N</title>
<polygon fill="#ffffff" stroke="black" points="2497,-140.5 2153.5,-140.5 2153.5,0 2497,0 2497,-140.5"/>
<polygon fill="none" stroke="black" points="2153.5,-116.75 2153.5,-140.5 2497,-140.5 2497,-116.75 2153.5,-116.75"/>
<text xml:space="preserve" text-anchor="start" x="2302.75" y="-123.75" font-family="arial" font-size="14.00">ENA_N</text>
<polygon fill="none" stroke="black" points="2153.5,-93 2153.5,-116.75 2497,-116.75 2497,-93 2153.5,-93"/>
<text xml:space="preserve" text-anchor="start" x="2318.12" y="-100" font-family="arial" font-size="14.00">1x</text>
<text xml:space="preserve" text-anchor="start" x="2250" y="-78.25" font-family="arial" font-size="14.00"> </text>
<text xml:space="preserve" text-anchor="start" x="2155.5" y="-58.5" font-family="arial" font-size="14.00">FP_ENABLE:2:ENA&#45; (sys GND)</text>
<text xml:space="preserve" text-anchor="start" x="2352.25" y="-58.5" font-family="arial" font-size="14.00"> &#160;&#160;&#160;&#160;1:BK &#160;&#160;&#160;</text>
<text xml:space="preserve" text-anchor="start" x="2419.25" y="-58.5" font-family="arial" font-size="14.00">DRV:6:ENA&#45;</text>
<polygon fill="#000000" stroke="none" points="2153.5,-51.5 2153.5,-53.5 2497,-53.5 2497,-51.5 2153.5,-51.5"/>
<polygon fill="#000000" stroke="none" points="2153.5,-49.5 2153.5,-51.5 2497,-51.5 2497,-49.5 2153.5,-49.5"/>
<polygon fill="#000000" stroke="none" points="2153.5,-47.5 2153.5,-49.5 2497,-49.5 2497,-47.5 2153.5,-47.5"/>
<polygon fill="#000000" stroke="none" points="2153.5,-45.5 2153.5,-47.5 2497,-47.5 2497,-45.5 2153.5,-45.5"/>
<polygon fill="#000000" stroke="none" points="2153.5,-43.5 2153.5,-45.5 2497,-45.5 2497,-43.5 2153.5,-43.5"/>
<text xml:space="preserve" text-anchor="start" x="2250" y="-28.75" font-family="arial" font-size="14.00"> </text>
<polygon fill="none" stroke="black" points="2153.5,0 2153.5,-23.75 2497,-23.75 2497,0 2153.5,0"/>
<text xml:space="preserve" text-anchor="start" x="2235.25" y="-7" font-family="arial" font-size="14.00">Driver ENA&#45; to system ground</text>
</g>
<!-- FP_ENABLE&#45;&#45;ENA_N -->
<g id="edge13" class="edge">
<title>FP_ENABLE:e&#45;&#45;ENA_N:w</title>
<path fill="none" stroke="#000000" stroke-width="2" d="M2009.5,-115.5C2076.86,-119.43 2078.14,-48.43 2153.5,-44.5"/>
<path fill="none" stroke="#000000" stroke-width="2" d="M2009.5,-117.5C2078.86,-119.46 2080.14,-48.46 2153.5,-46.5"/>
<path fill="none" stroke="#000000" stroke-width="2" d="M2009.5,-119.5C2080.86,-119.5 2082.14,-48.5 2153.5,-48.5"/>
<path fill="none" stroke="#000000" stroke-width="2" d="M2009.5,-121.5C2082.86,-119.54 2084.14,-48.54 2153.5,-50.5"/>
<path fill="none" stroke="#000000" stroke-width="2" d="M2009.5,-123.5C2084.86,-119.57 2086.14,-48.57 2153.5,-52.5"/>
</g>
<!-- STEP_PUL&#45;&#45;DRV -->
<g id="edge2" class="edge">
<title>STEP_PUL:e&#45;&#45;DRV:w</title>
<path fill="none" stroke="#000000" stroke-width="2" d="M809,-745.5C1562.5,-746.84 1841.46,-1059.62 2495.08,-698.74 2587.35,-652.32 2530.09,-510.25 2641,-504.75"/>
<path fill="none" stroke="#000000" stroke-width="2" d="M809,-747.5C1561.01,-748.17 1839.97,-1060.95 2496.04,-700.5 2589.21,-651.57 2531.94,-509.5 2641,-506.75"/>
<path fill="none" stroke="#000000" stroke-width="2" d="M809,-749.5C1559.52,-749.5 1838.48,-1062.28 2497,-702.25 2591.06,-650.82 2533.8,-508.75 2641,-508.75"/>
<path fill="none" stroke="#000000" stroke-width="2" d="M809,-751.5C1558.02,-750.83 1836.99,-1063.61 2497.96,-704 2592.92,-650.08 2535.65,-508 2641,-510.75"/>
<path fill="none" stroke="#000000" stroke-width="2" d="M809,-753.5C1556.53,-752.16 1835.49,-1064.95 2498.92,-705.76 2594.77,-649.33 2537.51,-507.25 2641,-512.75"/>
</g>
<!-- STEP_DIR&#45;&#45;DRV -->
<g id="edge4" class="edge">
<title>STEP_DIR:e&#45;&#45;DRV:w</title>
<path fill="none" stroke="#000000" stroke-width="2" d="M1621.75,-628.5C2014.03,-630.13 2150.92,-816.2 2495.24,-643.66 2587.14,-602.66 2532.73,-462.7 2641,-457.25"/>
<path fill="none" stroke="#ff0000" stroke-width="2" d="M1621.75,-630.5C2012.42,-631.31 2149.31,-817.39 2496.12,-645.45 2589,-601.94 2534.59,-461.97 2641,-459.25"/>
<path fill="none" stroke="#ff0000" stroke-width="2" d="M1621.75,-632.5C2010.81,-632.5 2147.7,-818.57 2497,-647.25 2590.86,-601.21 2536.45,-461.25 2641,-461.25"/>
<path fill="none" stroke="#ff0000" stroke-width="2" d="M1621.75,-634.5C2009.19,-633.69 2146.09,-819.76 2497.88,-649.05 2592.73,-600.49 2538.32,-460.53 2641,-463.25"/>
<path fill="none" stroke="#000000" stroke-width="2" d="M1621.75,-636.5C2007.58,-634.87 2144.48,-820.94 2498.76,-650.84 2594.59,-599.76 2540.18,-459.8 2641,-465.25"/>
</g>
<!-- GND_SCSI&#45;&#45;TIE_0V -->
<g id="edge6" class="edge">
<title>GND_SCSI:e&#45;&#45;TIE_0V:w</title>
<path fill="none" stroke="#000000" stroke-width="2" d="M774,-510.5C1031.49,-510.5 1095.85,-511.25 1353.25,-511.25"/>
<path fill="none" stroke="#ffffff" stroke-width="2" d="M774,-512.5C1031.47,-512.5 1095.83,-513.25 1353.25,-513.25"/>
<path fill="none" stroke="#895956" stroke-width="2" d="M774,-514.5C1031.44,-514.5 1095.81,-515.25 1353.25,-515.25"/>
<path fill="none" stroke="#ffffff" stroke-width="2" d="M774,-516.5C1031.42,-516.5 1095.78,-517.25 1353.25,-517.25"/>
<path fill="none" stroke="#000000" stroke-width="2" d="M774,-518.5C1031.4,-518.5 1095.76,-519.25 1353.25,-519.25"/>
</g>
<!-- GND_1&#45;&#45;DRV -->
<g id="edge8" class="edge">
<title>GND_1:e&#45;&#45;DRV:w</title>
<path fill="none" stroke="#000000" stroke-width="2" d="M2414.75,-539.5C2514.8,-542.29 2533.32,-483.79 2641,-481"/>
<path fill="none" stroke="#ffffff" stroke-width="2" d="M2414.75,-541.5C2516.71,-542.9 2535.23,-484.4 2641,-483"/>
<path fill="none" stroke="#895956" stroke-width="2" d="M2414.75,-543.5C2518.61,-543.5 2537.14,-485 2641,-485"/>
<path fill="none" stroke="#ffffff" stroke-width="2" d="M2414.75,-545.5C2520.52,-544.1 2539.04,-485.6 2641,-487"/>
<path fill="none" stroke="#000000" stroke-width="2" d="M2414.75,-547.5C2522.43,-544.71 2540.95,-486.21 2641,-489"/>
</g>
<!-- GND_2&#45;&#45;DRV -->
<g id="edge10" class="edge">
<title>GND_2:e&#45;&#45;DRV:w</title>
<path fill="none" stroke="#000000" stroke-width="2" d="M2413.25,-374.5C2521.63,-377.3 2540.25,-436.3 2641,-433.5"/>
<path fill="none" stroke="#ffffff" stroke-width="2" d="M2413.25,-376.5C2519.72,-377.9 2538.34,-436.9 2641,-435.5"/>
<path fill="none" stroke="#895956" stroke-width="2" d="M2413.25,-378.5C2517.81,-378.5 2536.44,-437.5 2641,-437.5"/>
<path fill="none" stroke="#ffffff" stroke-width="2" d="M2413.25,-380.5C2515.91,-379.1 2534.53,-438.1 2641,-439.5"/>
<path fill="none" stroke="#000000" stroke-width="2" d="M2413.25,-382.5C2514,-379.7 2532.62,-438.7 2641,-441.5"/>
</g>
<!-- ENA_P&#45;&#45;DRV -->
<g id="edge12" class="edge">
<title>ENA_P:e&#45;&#45;DRV:w</title>
<path fill="none" stroke="#000000" stroke-width="2" d="M2497,-209.5C2610.37,-214.91 2535.12,-415.16 2641,-409.75"/>
<path fill="none" stroke="#ff8000" stroke-width="2" d="M2497,-211.5C2608.49,-214.2 2533.25,-414.45 2641,-411.75"/>
<path fill="none" stroke="#ff8000" stroke-width="2" d="M2497,-213.5C2606.62,-213.5 2531.38,-413.75 2641,-413.75"/>
<path fill="none" stroke="#ff8000" stroke-width="2" d="M2497,-215.5C2604.75,-212.8 2529.51,-413.05 2641,-415.75"/>
<path fill="none" stroke="#000000" stroke-width="2" d="M2497,-217.5C2602.88,-212.09 2527.63,-412.34 2641,-417.75"/>
</g>
<!-- ENA_N&#45;&#45;DRV -->
<g id="edge14" class="edge">
<title>ENA_N:e&#45;&#45;DRV:w</title>
<path fill="none" stroke="#000000" stroke-width="2" d="M2497,-44.5C2665.23,-50.41 2479.8,-391.91 2641,-386"/>
<path fill="none" stroke="#000000" stroke-width="2" d="M2497,-46.5C2663.48,-49.45 2478.04,-390.95 2641,-388"/>
<path fill="none" stroke="#000000" stroke-width="2" d="M2497,-48.5C2661.72,-48.5 2476.28,-390 2641,-390"/>
<path fill="none" stroke="#000000" stroke-width="2" d="M2497,-50.5C2659.96,-47.55 2474.52,-389.05 2641,-392"/>
<path fill="none" stroke="#000000" stroke-width="2" d="M2497,-52.5C2658.2,-46.59 2472.77,-388.09 2641,-394"/>
</g>
</g>
</svg>
