<?xml version="1.0" encoding="UTF-8" standalone="no"?>
<!DOCTYPE svg PUBLIC "-//W3C//DTD SVG 1.1//EN"
 "http://www.w3.org/Graphics/SVG/1.1/DTD/svg11.dtd">
<!-- Generated by graphviz version 12.2.1 (20241206.2353)
 -->
<!-- Pages: 1 -->
<svg width="3836pt" height="1418pt"
 viewBox="0.00 0.00 3836.30 1417.96" xmlns="http://www.w3.org/2000/svg" xmlns:xlink="http://www.w3.org/1999/xlink">
<g id="graph0" class="graph" transform="scale(1 1) rotate(0) translate(4 1413.96)">
<polygon fill="#ffffff" stroke="none" points="-4,4 -4,-1413.96 3832.3,-1413.96 3832.3,4 -4,4"/>
<!-- MC508_STEP -->
<g id="node1" class="node">
<title>MC508_STEP</title>
<polygon fill="#ffffff" stroke="black" points="266.31,-1069.46 20.56,-1069.46 20.56,-831.96 266.31,-831.96 266.31,-1069.46"/>
<polygon fill="none" stroke="black" points="20.56,-1045.71 20.56,-1069.46 266.31,-1069.46 266.31,-1045.71 20.56,-1045.71"/>
<text text-anchor="start" x="99.93" y="-1052.16" font-family="arial" font-size="14.00">MC508_STEP</text>
<polygon fill="none" stroke="black" points="20.56,-1021.96 20.56,-1045.71 153.93,-1045.71 153.93,-1021.96 20.56,-1021.96"/>
<text text-anchor="start" x="61.75" y="-1028.41" font-family="arial" font-size="14.00">MDR&#45;20</text>
<polygon fill="none" stroke="black" points="153.93,-1021.96 153.93,-1045.71 266.31,-1045.71 266.31,-1021.96 153.93,-1021.96"/>
<text text-anchor="start" x="195.12" y="-1028.41" font-family="arial" font-size="14.00">7&#45;pin</text>
<polygon fill="none" stroke="black" points="20.56,-998.21 20.56,-1021.96 81.98,-1021.96 81.98,-998.21 20.56,-998.21"/>
<text text-anchor="start" x="47.52" y="-1004.66" font-family="arial" font-size="14.00">1</text>
<polygon fill="none" stroke="black" points="81.98,-998.21 81.98,-1021.96 204.89,-1021.96 204.89,-998.21 81.98,-998.21"/>
<text text-anchor="start" x="113.06" y="-1004.66" font-family="arial" font-size="14.00">Pulse(N)+</text>
<polygon fill="none" stroke="black" points="204.89,-998.21 204.89,-1021.96 266.31,-1021.96 266.31,-998.21 204.89,-998.21"/>
<text text-anchor="start" x="231.85" y="-1004.66" font-family="arial" font-size="14.00">1</text>
<polygon fill="none" stroke="black" points="20.56,-974.46 20.56,-998.21 81.98,-998.21 81.98,-974.46 20.56,-974.46"/>
<text text-anchor="start" x="47.52" y="-980.91" font-family="arial" font-size="14.00">3</text>
<polygon fill="none" stroke="black" points="81.98,-974.46 81.98,-998.21 204.89,-998.21 204.89,-974.46 81.98,-974.46"/>
<text text-anchor="start" x="121.31" y="-980.91" font-family="arial" font-size="14.00">Dir(N)+</text>
<polygon fill="none" stroke="black" points="204.89,-974.46 204.89,-998.21 266.31,-998.21 266.31,-974.46 204.89,-974.46"/>
<text text-anchor="start" x="231.85" y="-980.91" font-family="arial" font-size="14.00">3</text>
<polygon fill="none" stroke="black" points="20.56,-950.71 20.56,-974.46 81.98,-974.46 81.98,-950.71 20.56,-950.71"/>
<text text-anchor="start" x="44.14" y="-957.16" font-family="arial" font-size="14.00">11</text>
<polygon fill="none" stroke="black" points="81.98,-950.71 81.98,-974.46 204.89,-974.46 204.89,-950.71 81.98,-950.71"/>
<text text-anchor="start" x="105.18" y="-957.16" font-family="arial" font-size="14.00">Pulse(N+8)+</text>
<polygon fill="none" stroke="black" points="204.89,-950.71 204.89,-974.46 266.31,-974.46 266.31,-950.71 204.89,-950.71"/>
<text text-anchor="start" x="228.48" y="-957.16" font-family="arial" font-size="14.00">11</text>
<polygon fill="none" stroke="black" points="20.56,-926.96 20.56,-950.71 81.98,-950.71 81.98,-926.96 20.56,-926.96"/>
<text text-anchor="start" x="43.77" y="-933.41" font-family="arial" font-size="14.00">13</text>
<polygon fill="none" stroke="black" points="81.98,-926.96 81.98,-950.71 204.89,-950.71 204.89,-926.96 81.98,-926.96"/>
<text text-anchor="start" x="113.43" y="-933.41" font-family="arial" font-size="14.00">Dir(N+8)+</text>
<polygon fill="none" stroke="black" points="204.89,-926.96 204.89,-950.71 266.31,-950.71 266.31,-926.96 204.89,-926.96"/>
<text text-anchor="start" x="228.1" y="-933.41" font-family="arial" font-size="14.00">13</text>
<polygon fill="none" stroke="black" points="20.56,-903.21 20.56,-926.96 81.98,-926.96 81.98,-903.21 20.56,-903.21"/>
<text text-anchor="start" x="47.52" y="-909.66" font-family="arial" font-size="14.00">7</text>
<polygon fill="none" stroke="black" points="81.98,-903.21 81.98,-926.96 204.89,-926.96 204.89,-903.21 81.98,-903.21"/>
<text text-anchor="start" x="116.43" y="-909.66" font-family="arial" font-size="14.00">WDOG+</text>
<polygon fill="none" stroke="black" points="204.89,-903.21 204.89,-926.96 266.31,-926.96 266.31,-903.21 204.89,-903.21"/>
<text text-anchor="start" x="231.85" y="-909.66" font-family="arial" font-size="14.00">7</text>
<polygon fill="none" stroke="black" points="20.56,-879.46 20.56,-903.21 81.98,-903.21 81.98,-879.46 20.56,-879.46"/>
<text text-anchor="start" x="47.52" y="-885.91" font-family="arial" font-size="14.00">8</text>
<polygon fill="none" stroke="black" points="81.98,-879.46 81.98,-903.21 204.89,-903.21 204.89,-879.46 81.98,-879.46"/>
<text text-anchor="start" x="118.31" y="-885.91" font-family="arial" font-size="14.00">WDOG&#45;</text>
<polygon fill="none" stroke="black" points="204.89,-879.46 204.89,-903.21 266.31,-903.21 266.31,-879.46 204.89,-879.46"/>
<text text-anchor="start" x="231.85" y="-885.91" font-family="arial" font-size="14.00">8</text>
<polygon fill="none" stroke="black" points="20.56,-855.71 20.56,-879.46 81.98,-879.46 81.98,-855.71 20.56,-855.71"/>
<text text-anchor="start" x="43.77" y="-862.16" font-family="arial" font-size="14.00">15</text>
<polygon fill="none" stroke="black" points="81.98,-855.71 81.98,-879.46 204.89,-879.46 204.89,-855.71 81.98,-855.71"/>
<text text-anchor="start" x="135.18" y="-862.16" font-family="arial" font-size="14.00">0V</text>
<polygon fill="none" stroke="black" points="204.89,-855.71 204.89,-879.46 266.31,-879.46 266.31,-855.71 204.89,-855.71"/>
<text text-anchor="start" x="228.1" y="-862.16" font-family="arial" font-size="14.00">15</text>
<polygon fill="none" stroke="black" points="20.56,-831.96 20.56,-855.71 266.31,-855.71 266.31,-831.96 20.56,-831.96"/>
<text text-anchor="start" x="24.56" y="-838.41" font-family="arial" font-size="14.00">MC508 Stepper Port (ATYPE 43, P849)</text>
</g>
<!-- STEPA_PUL -->
<g id="node8" class="node">
<title>STEPA_PUL</title>
<polygon fill="#ffffff" stroke="black" points="1280.68,-1409.96 948.43,-1409.96 948.43,-1269.46 1280.68,-1269.46 1280.68,-1409.96"/>
<polygon fill="none" stroke="black" points="948.43,-1386.21 948.43,-1409.96 1280.68,-1409.96 1280.68,-1386.21 948.43,-1386.21"/>
<text text-anchor="start" x="1075.93" y="-1392.66" font-family="arial" font-size="14.00">STEPA_PUL</text>
<polygon fill="none" stroke="black" points="948.43,-1362.46 948.43,-1386.21 1280.68,-1386.21 1280.68,-1362.46 948.43,-1362.46"/>
<text text-anchor="start" x="1107.43" y="-1368.91" font-family="arial" font-size="14.00">1x</text>
<text text-anchor="start" x="1029.93" y="-1347.16" font-family="arial" font-size="14.00"> </text>
<text text-anchor="start" x="950.43" y="-1327.41" font-family="arial" font-size="14.00">MC508_STEP:1:Pulse(N)+</text>
<text text-anchor="start" x="1117.18" y="-1327.41" font-family="arial" font-size="14.00"> &#160;&#160;&#160;&#160;1:BK &#160;&#160;&#160;</text>
<text text-anchor="start" x="1184.18" y="-1327.41" font-family="arial" font-size="14.00">DRV_A:1:PUL+</text>
<polygon fill="#000000" stroke="none" points="948.43,-1320.96 948.43,-1322.96 1280.68,-1322.96 1280.68,-1320.96 948.43,-1320.96"/>
<polygon fill="#000000" stroke="none" points="948.43,-1318.96 948.43,-1320.96 1280.68,-1320.96 1280.68,-1318.96 948.43,-1318.96"/>
<polygon fill="#000000" stroke="none" points="948.43,-1316.96 948.43,-1318.96 1280.68,-1318.96 1280.68,-1316.96 948.43,-1316.96"/>
<polygon fill="#000000" stroke="none" points="948.43,-1314.96 948.43,-1316.96 1280.68,-1316.96 1280.68,-1314.96 948.43,-1314.96"/>
<polygon fill="#000000" stroke="none" points="948.43,-1312.96 948.43,-1314.96 1280.68,-1314.96 1280.68,-1312.96 948.43,-1312.96"/>
<text text-anchor="start" x="1029.93" y="-1297.66" font-family="arial" font-size="14.00"> </text>
<polygon fill="none" stroke="black" points="948.43,-1269.46 948.43,-1293.21 1280.68,-1293.21 1280.68,-1269.46 948.43,-1269.46"/>
<text text-anchor="start" x="1038.43" y="-1275.91" font-family="arial" font-size="14.00">Axis N pulse (SCSI pin 1)</text>
</g>
<!-- MC508_STEP&#45;&#45;STEPA_PUL -->
<g id="edge1" class="edge">
<title>MC508_STEP:e&#45;&#45;STEPA_PUL:w</title>
<path fill="none" stroke="#000000" stroke-width="2" d="M266.31,-1006.09C411.17,-1012.04 295.01,-1219.02 412.48,-1290.35 608.16,-1420.56 705.53,-1315.25 947.43,-1313.96"/>
<path fill="none" stroke="#000000" stroke-width="2" d="M266.31,-1008.09C409.43,-1011.07 293.27,-1218.04 411.39,-1292.03 609.63,-1421.92 707,-1316.6 947.43,-1315.96"/>
<path fill="none" stroke="#000000" stroke-width="2" d="M266.31,-1010.09C407.68,-1010.09 291.52,-1217.06 410.31,-1293.71 611.1,-1423.28 708.47,-1317.96 947.43,-1317.96"/>
<path fill="none" stroke="#000000" stroke-width="2" d="M266.31,-1012.09C405.94,-1009.11 289.78,-1216.08 409.23,-1295.39 612.57,-1424.64 709.94,-1319.32 947.43,-1319.96"/>
<path fill="none" stroke="#000000" stroke-width="2" d="M266.31,-1014.09C404.19,-1008.13 288.03,-1215.1 408.14,-1297.07 614.04,-1426 711.41,-1320.68 947.43,-1321.96"/>
</g>
<!-- STEPA_DIR -->
<g id="node9" class="node">
<title>STEPA_DIR</title>
<polygon fill="#ffffff" stroke="black" points="763.56,-1281.96 449.31,-1281.96 449.31,-1141.46 763.56,-1141.46 763.56,-1281.96"/>
<polygon fill="none" stroke="black" points="449.31,-1258.21 449.31,-1281.96 763.56,-1281.96 763.56,-1258.21 449.31,-1258.21"/>
<text text-anchor="start" x="569.31" y="-1264.66" font-family="arial" font-size="14.00">STEPA_DIR</text>
<polygon fill="none" stroke="black" points="449.31,-1234.46 449.31,-1258.21 763.56,-1258.21 763.56,-1234.46 449.31,-1234.46"/>
<text text-anchor="start" x="599.31" y="-1240.91" font-family="arial" font-size="14.00">1x</text>
<text text-anchor="start" x="522.56" y="-1219.16" font-family="arial" font-size="14.00"> </text>
<text text-anchor="start" x="451.31" y="-1199.41" font-family="arial" font-size="14.00">MC508_STEP:3:Dir(N)+</text>
<text text-anchor="start" x="601.56" y="-1199.41" font-family="arial" font-size="14.00"> &#160;&#160;&#160;&#160;1:RD &#160;&#160;&#160;</text>
<text text-anchor="start" x="670.06" y="-1199.41" font-family="arial" font-size="14.00">DRV_A:3:DIR+</text>
<polygon fill="#000000" stroke="none" points="449.31,-1192.96 449.31,-1194.96 763.56,-1194.96 763.56,-1192.96 449.31,-1192.96"/>
<polygon fill="#ff0000" stroke="none" points="449.31,-1190.96 449.31,-1192.96 763.56,-1192.96 763.56,-1190.96 449.31,-1190.96"/>
<polygon fill="#ff0000" stroke="none" points="449.31,-1188.96 449.31,-1190.96 763.56,-1190.96 763.56,-1188.96 449.31,-1188.96"/>
<polygon fill="#ff0000" stroke="none" points="449.31,-1186.96 449.31,-1188.96 763.56,-1188.96 763.56,-1186.96 449.31,-1186.96"/>
<polygon fill="#000000" stroke="none" points="449.31,-1184.96 449.31,-1186.96 763.56,-1186.96 763.56,-1184.96 449.31,-1184.96"/>
<text text-anchor="start" x="522.56" y="-1169.66" font-family="arial" font-size="14.00"> </text>
<polygon fill="none" stroke="black" points="449.31,-1141.46 449.31,-1165.21 763.56,-1165.21 763.56,-1141.46 449.31,-1141.46"/>
<text text-anchor="start" x="520.93" y="-1147.91" font-family="arial" font-size="14.00">Axis N direction (SCSI pin 3)</text>
</g>
<!-- MC508_STEP&#45;&#45;STEPA_DIR -->
<g id="edge3" class="edge">
<title>MC508_STEP:e&#45;&#45;STEPA_DIR:w</title>
<path fill="none" stroke="#000000" stroke-width="2" d="M266.31,-982.34C391.52,-987.48 330.76,-1191.11 448.31,-1185.96"/>
<path fill="none" stroke="#ff0000" stroke-width="2" d="M266.31,-984.34C389.61,-986.91 328.85,-1190.53 448.31,-1187.96"/>
<path fill="none" stroke="#ff0000" stroke-width="2" d="M266.31,-986.34C387.69,-986.34 326.93,-1189.96 448.31,-1189.96"/>
<path fill="none" stroke="#ff0000" stroke-width="2" d="M266.31,-988.34C385.77,-985.77 325.01,-1189.39 448.31,-1191.96"/>
<path fill="none" stroke="#000000" stroke-width="2" d="M266.31,-990.34C383.86,-985.19 323.1,-1188.82 448.31,-1193.96"/>
</g>
<!-- STEPB_PUL -->
<g id="node10" class="node">
<title>STEPB_PUL</title>
<polygon fill="#ffffff" stroke="black" points="802.56,-1116.96 410.31,-1116.96 410.31,-976.46 802.56,-976.46 802.56,-1116.96"/>
<polygon fill="none" stroke="black" points="410.31,-1093.21 410.31,-1116.96 802.56,-1116.96 802.56,-1093.21 410.31,-1093.21"/>
<text text-anchor="start" x="567.43" y="-1099.66" font-family="arial" font-size="14.00">STEPB_PUL</text>
<polygon fill="none" stroke="black" points="410.31,-1069.46 410.31,-1093.21 802.56,-1093.21 802.56,-1069.46 410.31,-1069.46"/>
<text text-anchor="start" x="599.31" y="-1075.91" font-family="arial" font-size="14.00">1x</text>
<text text-anchor="start" x="503.06" y="-1054.16" font-family="arial" font-size="14.00"> </text>
<text text-anchor="start" x="412.31" y="-1034.41" font-family="arial" font-size="14.00">MC508_STEP:11:Pulse(N+8)+</text>
<text text-anchor="start" x="601.56" y="-1034.41" font-family="arial" font-size="14.00"> &#160;&#160;&#160;&#160;1:#90EE90 &#160;&#160;&#160;</text>
<text text-anchor="start" x="706.06" y="-1034.41" font-family="arial" font-size="14.00">DRV_B:1:PUL+</text>
<polygon fill="#000000" stroke="none" points="410.31,-1027.96 410.31,-1029.96 802.56,-1029.96 802.56,-1027.96 410.31,-1027.96"/>
<polygon fill="#90ee90" stroke="none" points="410.31,-1025.96 410.31,-1027.96 802.56,-1027.96 802.56,-1025.96 410.31,-1025.96"/>
<polygon fill="#90ee90" stroke="none" points="410.31,-1023.96 410.31,-1025.96 802.56,-1025.96 802.56,-1023.96 410.31,-1023.96"/>
<polygon fill="#90ee90" stroke="none" points="410.31,-1021.96 410.31,-1023.96 802.56,-1023.96 802.56,-1021.96 410.31,-1021.96"/>
<polygon fill="#000000" stroke="none" points="410.31,-1019.96 410.31,-1021.96 802.56,-1021.96 802.56,-1019.96 410.31,-1019.96"/>
<text text-anchor="start" x="503.06" y="-1004.66" font-family="arial" font-size="14.00"> </text>
<polygon fill="none" stroke="black" points="410.31,-976.46 410.31,-1000.21 802.56,-1000.21 802.56,-976.46 410.31,-976.46"/>
<text text-anchor="start" x="519.06" y="-982.91" font-family="arial" font-size="14.00">Axis N+8 pulse (SCSI pin 11)</text>
</g>
<!-- MC508_STEP&#45;&#45;STEPB_PUL -->
<g id="edge5" class="edge">
<title>MC508_STEP:e&#45;&#45;STEPB_PUL:w</title>
<path fill="none" stroke="#000000" stroke-width="2" d="M266.31,-958.59C340.05,-962.3 344.55,-1024.67 410.31,-1020.96"/>
<path fill="none" stroke="#90ee90" stroke-width="2" d="M266.31,-960.59C338.05,-962.44 342.56,-1024.82 410.31,-1022.96"/>
<path fill="none" stroke="#90ee90" stroke-width="2" d="M266.31,-962.59C336.06,-962.59 340.56,-1024.96 410.31,-1024.96"/>
<path fill="none" stroke="#90ee90" stroke-width="2" d="M266.31,-964.59C334.06,-962.73 338.57,-1025.11 410.31,-1026.96"/>
<path fill="none" stroke="#000000" stroke-width="2" d="M266.31,-966.59C332.07,-962.88 336.57,-1025.25 410.31,-1028.96"/>
</g>
<!-- STEPB_DIR -->
<g id="node11" class="node">
<title>STEPB_DIR</title>
<polygon fill="#ffffff" stroke="black" points="1282.56,-1088.96 946.56,-1088.96 946.56,-948.46 1282.56,-948.46 1282.56,-1088.96"/>
<polygon fill="none" stroke="black" points="946.56,-1065.21 946.56,-1088.96 1282.56,-1088.96 1282.56,-1065.21 946.56,-1065.21"/>
<text text-anchor="start" x="1077.06" y="-1071.66" font-family="arial" font-size="14.00">STEPB_DIR</text>
<polygon fill="none" stroke="black" points="946.56,-1041.46 946.56,-1065.21 1282.56,-1065.21 1282.56,-1041.46 946.56,-1041.46"/>
<text text-anchor="start" x="1107.43" y="-1047.91" font-family="arial" font-size="14.00">1x</text>
<text text-anchor="start" x="1031.43" y="-1026.16" font-family="arial" font-size="14.00"> </text>
<text text-anchor="start" x="948.56" y="-1006.41" font-family="arial" font-size="14.00">MC508_STEP:13:Dir(N+8)+</text>
<text text-anchor="start" x="1122.06" y="-1006.41" font-family="arial" font-size="14.00"> &#160;&#160;&#160;&#160;1:PK &#160;&#160;&#160;</text>
<text text-anchor="start" x="1189.06" y="-1006.41" font-family="arial" font-size="14.00">DRV_B:3:DIR+</text>
<polygon fill="#000000" stroke="none" points="946.56,-999.96 946.56,-1001.96 1282.56,-1001.96 1282.56,-999.96 946.56,-999.96"/>
<polygon fill="#ff66cc" stroke="none" points="946.56,-997.96 946.56,-999.96 1282.56,-999.96 1282.56,-997.96 946.56,-997.96"/>
<polygon fill="#ff66cc" stroke="none" points="946.56,-995.96 946.56,-997.96 1282.56,-997.96 1282.56,-995.96 946.56,-995.96"/>
<polygon fill="#ff66cc" stroke="none" points="946.56,-993.96 946.56,-995.96 1282.56,-995.96 1282.56,-993.96 946.56,-993.96"/>
<polygon fill="#000000" stroke="none" points="946.56,-991.96 946.56,-993.96 1282.56,-993.96 1282.56,-991.96 946.56,-991.96"/>
<text text-anchor="start" x="1031.43" y="-976.66" font-family="arial" font-size="14.00"> </text>
<polygon fill="none" stroke="black" points="946.56,-948.46 946.56,-972.21 1282.56,-972.21 1282.56,-948.46 946.56,-948.46"/>
<text text-anchor="start" x="1017.43" y="-954.91" font-family="arial" font-size="14.00">Axis N+8 direction (SCSI pin 13)</text>
</g>
<!-- MC508_STEP&#45;&#45;STEPB_DIR -->
<g id="edge7" class="edge">
<title>MC508_STEP:e&#45;&#45;STEPB_DIR:w</title>
<path fill="none" stroke="#000000" stroke-width="2" d="M266.31,-934.84C504.53,-934.86 565.7,-928.79 803.1,-960.75 871.03,-971.51 884.45,-994.98 946.56,-992.96"/>
<path fill="none" stroke="#ff66cc" stroke-width="2" d="M266.31,-936.84C504.72,-936.85 565.9,-930.78 802.83,-962.73 869.29,-972.5 882.71,-995.97 946.56,-994.96"/>
<path fill="none" stroke="#ff66cc" stroke-width="2" d="M266.31,-938.84C504.92,-938.84 566.1,-932.77 802.56,-964.71 867.56,-973.49 880.97,-996.96 946.56,-996.96"/>
<path fill="none" stroke="#ff66cc" stroke-width="2" d="M266.31,-940.84C505.12,-940.83 566.29,-934.76 802.29,-966.69 865.82,-974.48 879.24,-997.96 946.56,-998.96"/>
<path fill="none" stroke="#000000" stroke-width="2" d="M266.31,-942.84C505.32,-942.82 566.49,-936.75 802.02,-968.68 864.08,-975.48 877.5,-998.95 946.56,-1000.96"/>
</g>
<!-- GND_SCSI -->
<g id="node12" class="node">
<title>GND_SCSI</title>
<polygon fill="#ffffff" stroke="black" points="718.93,-867.96 493.93,-867.96 493.93,-727.46 718.93,-727.46 718.93,-867.96"/>
<polygon fill="none" stroke="black" points="493.93,-844.21 493.93,-867.96 718.93,-867.96 718.93,-844.21 493.93,-844.21"/>
<text text-anchor="start" x="571.56" y="-850.66" font-family="arial" font-size="14.00">GND_SCSI</text>
<polygon fill="none" stroke="black" points="493.93,-820.46 493.93,-844.21 718.93,-844.21 718.93,-820.46 493.93,-820.46"/>
<text text-anchor="start" x="599.31" y="-826.91" font-family="arial" font-size="14.00">1x</text>
<text text-anchor="start" x="557.06" y="-805.16" font-family="arial" font-size="14.00"> </text>
<text text-anchor="start" x="495.93" y="-785.41" font-family="arial" font-size="14.00">MC508_STEP:15:0V</text>
<text text-anchor="start" x="625.93" y="-785.41" font-family="arial" font-size="14.00"> &#160;&#160;&#160;&#160;1:WHBN &#160;&#160;&#160;</text>
<polygon fill="#000000" stroke="none" points="493.93,-778.96 493.93,-780.96 718.93,-780.96 718.93,-778.96 493.93,-778.96"/>
<polygon fill="#ffffff" stroke="none" points="493.93,-776.96 493.93,-778.96 718.93,-778.96 718.93,-776.96 493.93,-776.96"/>
<polygon fill="#895956" stroke="none" points="493.93,-774.96 493.93,-776.96 718.93,-776.96 718.93,-774.96 493.93,-774.96"/>
<polygon fill="#ffffff" stroke="none" points="493.93,-772.96 493.93,-774.96 718.93,-774.96 718.93,-772.96 493.93,-772.96"/>
<polygon fill="#000000" stroke="none" points="493.93,-770.96 493.93,-772.96 718.93,-772.96 718.93,-770.96 493.93,-770.96"/>
<text text-anchor="start" x="557.06" y="-755.66" font-family="arial" font-size="14.00"> </text>
<polygon fill="none" stroke="black" points="493.93,-727.46 493.93,-751.21 718.93,-751.21 718.93,-727.46 493.93,-727.46"/>
<text text-anchor="start" x="541.56" y="-733.91" font-family="arial" font-size="14.00">0V SCSI wire (pin 15)</text>
</g>
<!-- MC508_STEP&#45;&#45;GND_SCSI -->
<g id="edge9" class="edge">
<title>MC508_STEP:e&#45;&#45;GND_SCSI:w</title>
<path fill="none" stroke="#000000" stroke-width="2" d="M266.31,-863.59C370.97,-867.18 380.31,-775.56 492.93,-771.96"/>
<path fill="none" stroke="#ffffff" stroke-width="2" d="M266.31,-865.59C372.96,-867.38 382.3,-775.76 492.93,-773.96"/>
<path fill="none" stroke="#895956" stroke-width="2" d="M266.31,-867.59C374.95,-867.59 384.29,-775.96 492.93,-775.96"/>
<path fill="none" stroke="#ffffff" stroke-width="2" d="M266.31,-869.59C376.94,-867.79 386.28,-776.17 492.93,-777.96"/>
<path fill="none" stroke="#000000" stroke-width="2" d="M266.31,-871.59C378.93,-867.99 388.27,-776.37 492.93,-779.96"/>
</g>
<!-- WDOG_SCSI -->
<g id="node20" class="node">
<title>WDOG_SCSI</title>
<polygon fill="#ffffff" stroke="black" points="719.68,-544.96 493.18,-544.96 493.18,-404.46 719.68,-404.46 719.68,-544.96"/>
<polygon fill="none" stroke="black" points="493.18,-521.21 493.18,-544.96 719.68,-544.96 719.68,-521.21 493.18,-521.21"/>
<text text-anchor="start" x="564.06" y="-527.66" font-family="arial" font-size="14.00">WDOG_SCSI</text>
<polygon fill="none" stroke="black" points="493.18,-497.46 493.18,-521.21 719.68,-521.21 719.68,-497.46 493.18,-497.46"/>
<text text-anchor="start" x="599.31" y="-503.91" font-family="arial" font-size="14.00">1x</text>
<text text-anchor="start" x="569.43" y="-482.16" font-family="arial" font-size="14.00"> </text>
<text text-anchor="start" x="495.18" y="-462.41" font-family="arial" font-size="14.00">MC508_STEP:8:WDOG&#45;</text>
<text text-anchor="start" x="651.43" y="-462.41" font-family="arial" font-size="14.00"> &#160;&#160;&#160;&#160;1:VT &#160;&#160;&#160;</text>
<polygon fill="#000000" stroke="none" points="493.18,-455.96 493.18,-457.96 719.68,-457.96 719.68,-455.96 493.18,-455.96"/>
<polygon fill="#8000ff" stroke="none" points="493.18,-453.96 493.18,-455.96 719.68,-455.96 719.68,-453.96 493.18,-453.96"/>
<polygon fill="#8000ff" stroke="none" points="493.18,-451.96 493.18,-453.96 719.68,-453.96 719.68,-451.96 493.18,-451.96"/>
<polygon fill="#8000ff" stroke="none" points="493.18,-449.96 493.18,-451.96 719.68,-451.96 719.68,-449.96 493.18,-449.96"/>
<polygon fill="#000000" stroke="none" points="493.18,-447.96 493.18,-449.96 719.68,-449.96 719.68,-447.96 493.18,-447.96"/>
<text text-anchor="start" x="569.43" y="-432.66" font-family="arial" font-size="14.00"> </text>
<polygon fill="none" stroke="black" points="493.18,-404.46 493.18,-428.21 719.68,-428.21 719.68,-404.46 493.18,-404.46"/>
<text text-anchor="start" x="528.43" y="-410.91" font-family="arial" font-size="14.00">WDOG&#45; SCSI wire (pin 8)</text>
</g>
<!-- MC508_STEP&#45;&#45;WDOG_SCSI -->
<g id="edge25" class="edge">
<title>MC508_STEP:e&#45;&#45;WDOG_SCSI:w</title>
<path fill="none" stroke="#000000" stroke-width="2" d="M266.31,-887.34C481.89,-893.08 269.41,-454.71 492.18,-448.96"/>
<path fill="none" stroke="#8000ff" stroke-width="2" d="M266.31,-889.34C483.69,-892.21 271.21,-453.83 492.18,-450.96"/>
<path fill="none" stroke="#8000ff" stroke-width="2" d="M266.31,-891.34C485.49,-891.34 273.01,-452.96 492.18,-452.96"/>
<path fill="none" stroke="#8000ff" stroke-width="2" d="M266.31,-893.34C487.29,-890.46 274.81,-452.09 492.18,-454.96"/>
<path fill="none" stroke="#000000" stroke-width="2" d="M266.31,-895.34C489.09,-889.59 276.61,-451.22 492.18,-456.96"/>
</g>
<!-- DRV_A -->
<g id="node2" class="node">
<title>DRV_A</title>
<polygon fill="#ffffff" stroke="black" points="1920.18,-1040.59 1758.43,-1040.59 1758.43,-826.84 1920.18,-826.84 1920.18,-1040.59"/>
<polygon fill="none" stroke="black" points="1758.43,-1016.84 1758.43,-1040.59 1920.18,-1040.59 1920.18,-1016.84 1758.43,-1016.84"/>
<text text-anchor="start" x="1816.81" y="-1023.29" font-family="arial" font-size="14.00">DRV_A</text>
<polygon fill="none" stroke="black" points="1758.43,-993.09 1758.43,-1016.84 1870.81,-1016.84 1870.81,-993.09 1758.43,-993.09"/>
<text text-anchor="start" x="1768.12" y="-999.54" font-family="arial" font-size="14.00">Screw Terminal</text>
<polygon fill="none" stroke="black" points="1870.81,-993.09 1870.81,-1016.84 1920.18,-1016.84 1920.18,-993.09 1870.81,-993.09"/>
<text text-anchor="start" x="1880.5" y="-999.54" font-family="arial" font-size="14.00">6&#45;pin</text>
<polygon fill="none" stroke="black" points="1758.43,-969.34 1758.43,-993.09 1802.85,-993.09 1802.85,-969.34 1758.43,-969.34"/>
<text text-anchor="start" x="1776.89" y="-975.79" font-family="arial" font-size="14.00">1</text>
<polygon fill="none" stroke="black" points="1802.85,-969.34 1802.85,-993.09 1875.77,-993.09 1875.77,-969.34 1802.85,-969.34"/>
<text text-anchor="start" x="1822.06" y="-975.79" font-family="arial" font-size="14.00">PUL+</text>
<polygon fill="none" stroke="black" points="1875.77,-969.34 1875.77,-993.09 1920.18,-993.09 1920.18,-969.34 1875.77,-969.34"/>
<text text-anchor="start" x="1894.23" y="-975.79" font-family="arial" font-size="14.00">1</text>
<polygon fill="none" stroke="black" points="1758.43,-945.59 1758.43,-969.34 1802.85,-969.34 1802.85,-945.59 1758.43,-945.59"/>
<text text-anchor="start" x="1776.89" y="-952.04" font-family="arial" font-size="14.00">2</text>
<polygon fill="none" stroke="black" points="1802.85,-945.59 1802.85,-969.34 1875.77,-969.34 1875.77,-945.59 1802.85,-945.59"/>
<text text-anchor="start" x="1823.93" y="-952.04" font-family="arial" font-size="14.00">PUL&#45;</text>
<polygon fill="none" stroke="black" points="1875.77,-945.59 1875.77,-969.34 1920.18,-969.34 1920.18,-945.59 1875.77,-945.59"/>
<text text-anchor="start" x="1894.23" y="-952.04" font-family="arial" font-size="14.00">2</text>
<polygon fill="none" stroke="black" points="1758.43,-921.84 1758.43,-945.59 1802.85,-945.59 1802.85,-921.84 1758.43,-921.84"/>
<text text-anchor="start" x="1776.89" y="-928.29" font-family="arial" font-size="14.00">3</text>
<polygon fill="none" stroke="black" points="1802.85,-921.84 1802.85,-945.59 1875.77,-945.59 1875.77,-921.84 1802.85,-921.84"/>
<text text-anchor="start" x="1823.56" y="-928.29" font-family="arial" font-size="14.00">DIR+</text>
<polygon fill="none" stroke="black" points="1875.77,-921.84 1875.77,-945.59 1920.18,-945.59 1920.18,-921.84 1875.77,-921.84"/>
<text text-anchor="start" x="1894.23" y="-928.29" font-family="arial" font-size="14.00">3</text>
<polygon fill="none" stroke="black" points="1758.43,-898.09 1758.43,-921.84 1802.85,-921.84 1802.85,-898.09 1758.43,-898.09"/>
<text text-anchor="start" x="1776.89" y="-904.54" font-family="arial" font-size="14.00">4</text>
<polygon fill="none" stroke="black" points="1802.85,-898.09 1802.85,-921.84 1875.77,-921.84 1875.77,-898.09 1802.85,-898.09"/>
<text text-anchor="start" x="1825.43" y="-904.54" font-family="arial" font-size="14.00">DIR&#45;</text>
<polygon fill="none" stroke="black" points="1875.77,-898.09 1875.77,-921.84 1920.18,-921.84 1920.18,-898.09 1875.77,-898.09"/>
<text text-anchor="start" x="1894.23" y="-904.54" font-family="arial" font-size="14.00">4</text>
<polygon fill="none" stroke="black" points="1758.43,-874.34 1758.43,-898.09 1802.85,-898.09 1802.85,-874.34 1758.43,-874.34"/>
<text text-anchor="start" x="1776.89" y="-880.79" font-family="arial" font-size="14.00">5</text>
<polygon fill="none" stroke="black" points="1802.85,-874.34 1802.85,-898.09 1875.77,-898.09 1875.77,-874.34 1802.85,-874.34"/>
<text text-anchor="start" x="1821.31" y="-880.79" font-family="arial" font-size="14.00">ENA+</text>
<polygon fill="none" stroke="black" points="1875.77,-874.34 1875.77,-898.09 1920.18,-898.09 1920.18,-874.34 1875.77,-874.34"/>
<text text-anchor="start" x="1894.23" y="-880.79" font-family="arial" font-size="14.00">5</text>
<polygon fill="none" stroke="black" points="1758.43,-850.59 1758.43,-874.34 1802.85,-874.34 1802.85,-850.59 1758.43,-850.59"/>
<text text-anchor="start" x="1776.89" y="-857.04" font-family="arial" font-size="14.00">6</text>
<polygon fill="none" stroke="black" points="1802.85,-850.59 1802.85,-874.34 1875.77,-874.34 1875.77,-850.59 1802.85,-850.59"/>
<text text-anchor="start" x="1823.18" y="-857.04" font-family="arial" font-size="14.00">ENA&#45;</text>
<polygon fill="none" stroke="black" points="1875.77,-850.59 1875.77,-874.34 1920.18,-874.34 1920.18,-850.59 1875.77,-850.59"/>
<text text-anchor="start" x="1894.23" y="-857.04" font-family="arial" font-size="14.00">6</text>
<polygon fill="none" stroke="black" points="1758.43,-826.84 1758.43,-850.59 1920.18,-850.59 1920.18,-826.84 1758.43,-826.84"/>
<text text-anchor="start" x="1762.43" y="-833.29" font-family="arial" font-size="14.00">KL&#45;4030 Driver A (Axis N)</text>
</g>
<!-- RA -->
<g id="node23" class="node">
<title>RA</title>
<polygon fill="#ffffff" stroke="black" points="2328.56,-869.96 2072.81,-869.96 2072.81,-729.46 2328.56,-729.46 2328.56,-869.96"/>
<polygon fill="none" stroke="black" points="2072.81,-846.21 2072.81,-869.96 2328.56,-869.96 2328.56,-846.21 2072.81,-846.21"/>
<text text-anchor="start" x="2191.31" y="-852.66" font-family="arial" font-size="14.00">RA</text>
<polygon fill="none" stroke="black" points="2072.81,-822.46 2072.81,-846.21 2328.56,-846.21 2328.56,-822.46 2072.81,-822.46"/>
<text text-anchor="start" x="2193.56" y="-828.91" font-family="arial" font-size="14.00">1x</text>
<text text-anchor="start" x="2119.06" y="-807.16" font-family="arial" font-size="14.00"> </text>
<text text-anchor="start" x="2074.81" y="-787.41" font-family="arial" font-size="14.00">DRV_A:6:ENA&#45;</text>
<text text-anchor="start" x="2171.06" y="-787.41" font-family="arial" font-size="14.00"> &#160;&#160;&#160;&#160;1:BK &#160;&#160;&#160;</text>
<text text-anchor="start" x="2238.06" y="-787.41" font-family="arial" font-size="14.00">EXT5V:2:GND</text>
<polygon fill="#000000" stroke="none" points="2072.81,-780.96 2072.81,-782.96 2328.56,-782.96 2328.56,-780.96 2072.81,-780.96"/>
<polygon fill="#000000" stroke="none" points="2072.81,-778.96 2072.81,-780.96 2328.56,-780.96 2328.56,-778.96 2072.81,-778.96"/>
<polygon fill="#000000" stroke="none" points="2072.81,-776.96 2072.81,-778.96 2328.56,-778.96 2328.56,-776.96 2072.81,-776.96"/>
<polygon fill="#000000" stroke="none" points="2072.81,-774.96 2072.81,-776.96 2328.56,-776.96 2328.56,-774.96 2072.81,-774.96"/>
<polygon fill="#000000" stroke="none" points="2072.81,-772.96 2072.81,-774.96 2328.56,-774.96 2328.56,-772.96 2072.81,-772.96"/>
<text text-anchor="start" x="2119.06" y="-757.66" font-family="arial" font-size="14.00"> </text>
<polygon fill="none" stroke="black" points="2072.81,-729.46 2072.81,-753.21 2328.56,-753.21 2328.56,-729.46 2072.81,-729.46"/>
<text text-anchor="start" x="2139.56" y="-735.91" font-family="arial" font-size="14.00">Driver A ENA&#45; return</text>
</g>
<!-- DRV_A&#45;&#45;RA -->
<g id="edge31" class="edge">
<title>DRV_A:e&#45;&#45;RA:w</title>
<path fill="none" stroke="#000000" stroke-width="2" d="M1921.18,-858.46C1994.33,-862.59 1991.66,-778.09 2072.81,-773.96"/>
<path fill="none" stroke="#000000" stroke-width="2" d="M1921.18,-860.46C1996.33,-862.53 1993.66,-778.03 2072.81,-775.96"/>
<path fill="none" stroke="#000000" stroke-width="2" d="M1921.18,-862.46C1998.33,-862.46 1995.66,-777.96 2072.81,-777.96"/>
<path fill="none" stroke="#000000" stroke-width="2" d="M1921.18,-864.46C2000.33,-862.4 1997.66,-777.9 2072.81,-779.96"/>
<path fill="none" stroke="#000000" stroke-width="2" d="M1921.18,-866.46C2002.33,-862.34 1999.66,-777.84 2072.81,-781.96"/>
</g>
<!-- DRV_B -->
<g id="node3" class="node">
<title>DRV_B</title>
<polygon fill="#ffffff" stroke="black" points="1928.81,-755.59 1749.81,-755.59 1749.81,-541.84 1928.81,-541.84 1928.81,-755.59"/>
<polygon fill="none" stroke="black" points="1749.81,-731.84 1749.81,-755.59 1928.81,-755.59 1928.81,-731.84 1749.81,-731.84"/>
<text text-anchor="start" x="1816.81" y="-738.29" font-family="arial" font-size="14.00">DRV_B</text>
<polygon fill="none" stroke="black" points="1749.81,-708.09 1749.81,-731.84 1870.81,-731.84 1870.81,-708.09 1749.81,-708.09"/>
<text text-anchor="start" x="1763.81" y="-714.54" font-family="arial" font-size="14.00">Screw Terminal</text>
<polygon fill="none" stroke="black" points="1870.81,-708.09 1870.81,-731.84 1928.81,-731.84 1928.81,-708.09 1870.81,-708.09"/>
<text text-anchor="start" x="1884.81" y="-714.54" font-family="arial" font-size="14.00">6&#45;pin</text>
<polygon fill="none" stroke="black" points="1749.81,-684.34 1749.81,-708.09 1799.98,-708.09 1799.98,-684.34 1749.81,-684.34"/>
<text text-anchor="start" x="1771.14" y="-690.79" font-family="arial" font-size="14.00">1</text>
<polygon fill="none" stroke="black" points="1799.98,-684.34 1799.98,-708.09 1878.64,-708.09 1878.64,-684.34 1799.98,-684.34"/>
<text text-anchor="start" x="1822.06" y="-690.79" font-family="arial" font-size="14.00">PUL+</text>
<polygon fill="none" stroke="black" points="1878.64,-684.34 1878.64,-708.09 1928.81,-708.09 1928.81,-684.34 1878.64,-684.34"/>
<text text-anchor="start" x="1899.98" y="-690.79" font-family="arial" font-size="14.00">1</text>
<polygon fill="none" stroke="black" points="1749.81,-660.59 1749.81,-684.34 1799.98,-684.34 1799.98,-660.59 1749.81,-660.59"/>
<text text-anchor="start" x="1771.14" y="-667.04" font-family="arial" font-size="14.00">2</text>
<polygon fill="none" stroke="black" points="1799.98,-660.59 1799.98,-684.34 1878.64,-684.34 1878.64,-660.59 1799.98,-660.59"/>
<text text-anchor="start" x="1823.93" y="-667.04" font-family="arial" font-size="14.00">PUL&#45;</text>
<polygon fill="none" stroke="black" points="1878.64,-660.59 1878.64,-684.34 1928.81,-684.34 1928.81,-660.59 1878.64,-660.59"/>
<text text-anchor="start" x="1899.98" y="-667.04" font-family="arial" font-size="14.00">2</text>
<polygon fill="none" stroke="black" points="1749.81,-636.84 1749.81,-660.59 1799.98,-660.59 1799.98,-636.84 1749.81,-636.84"/>
<text text-anchor="start" x="1771.14" y="-643.29" font-family="arial" font-size="14.00">3</text>
<polygon fill="none" stroke="black" points="1799.98,-636.84 1799.98,-660.59 1878.64,-660.59 1878.64,-636.84 1799.98,-636.84"/>
<text text-anchor="start" x="1823.56" y="-643.29" font-family="arial" font-size="14.00">DIR+</text>
<polygon fill="none" stroke="black" points="1878.64,-636.84 1878.64,-660.59 1928.81,-660.59 1928.81,-636.84 1878.64,-636.84"/>
<text text-anchor="start" x="1899.98" y="-643.29" font-family="arial" font-size="14.00">3</text>
<polygon fill="none" stroke="black" points="1749.81,-613.09 1749.81,-636.84 1799.98,-636.84 1799.98,-613.09 1749.81,-613.09"/>
<text text-anchor="start" x="1771.14" y="-619.54" font-family="arial" font-size="14.00">4</text>
<polygon fill="none" stroke="black" points="1799.98,-613.09 1799.98,-636.84 1878.64,-636.84 1878.64,-613.09 1799.98,-613.09"/>
<text text-anchor="start" x="1825.43" y="-619.54" font-family="arial" font-size="14.00">DIR&#45;</text>
<polygon fill="none" stroke="black" points="1878.64,-613.09 1878.64,-636.84 1928.81,-636.84 1928.81,-613.09 1878.64,-613.09"/>
<text text-anchor="start" x="1899.98" y="-619.54" font-family="arial" font-size="14.00">4</text>
<polygon fill="none" stroke="black" points="1749.81,-589.34 1749.81,-613.09 1799.98,-613.09 1799.98,-589.34 1749.81,-589.34"/>
<text text-anchor="start" x="1771.14" y="-595.79" font-family="arial" font-size="14.00">5</text>
<polygon fill="none" stroke="black" points="1799.98,-589.34 1799.98,-613.09 1878.64,-613.09 1878.64,-589.34 1799.98,-589.34"/>
<text text-anchor="start" x="1821.31" y="-595.79" font-family="arial" font-size="14.00">ENA+</text>
<polygon fill="none" stroke="black" points="1878.64,-589.34 1878.64,-613.09 1928.81,-613.09 1928.81,-589.34 1878.64,-589.34"/>
<text text-anchor="start" x="1899.98" y="-595.79" font-family="arial" font-size="14.00">5</text>
<polygon fill="none" stroke="black" points="1749.81,-565.59 1749.81,-589.34 1799.98,-589.34 1799.98,-565.59 1749.81,-565.59"/>
<text text-anchor="start" x="1771.14" y="-572.04" font-family="arial" font-size="14.00">6</text>
<polygon fill="none" stroke="black" points="1799.98,-565.59 1799.98,-589.34 1878.64,-589.34 1878.64,-565.59 1799.98,-565.59"/>
<text text-anchor="start" x="1823.18" y="-572.04" font-family="arial" font-size="14.00">ENA&#45;</text>
<polygon fill="none" stroke="black" points="1878.64,-565.59 1878.64,-589.34 1928.81,-589.34 1928.81,-565.59 1878.64,-565.59"/>
<text text-anchor="start" x="1899.98" y="-572.04" font-family="arial" font-size="14.00">6</text>
<polygon fill="none" stroke="black" points="1749.81,-541.84 1749.81,-565.59 1928.81,-565.59 1928.81,-541.84 1749.81,-541.84"/>
<text text-anchor="start" x="1753.81" y="-548.29" font-family="arial" font-size="14.00">KL&#45;4030 Driver B (Axis N+8)</text>
</g>
<!-- RB -->
<g id="node24" class="node">
<title>RB</title>
<polygon fill="#ffffff" stroke="black" points="2328.56,-651.96 2072.81,-651.96 2072.81,-511.46 2328.56,-511.46 2328.56,-651.96"/>
<polygon fill="none" stroke="black" points="2072.81,-628.21 2072.81,-651.96 2328.56,-651.96 2328.56,-628.21 2072.81,-628.21"/>
<text text-anchor="start" x="2191.31" y="-634.66" font-family="arial" font-size="14.00">RB</text>
<polygon fill="none" stroke="black" points="2072.81,-604.46 2072.81,-628.21 2328.56,-628.21 2328.56,-604.46 2072.81,-604.46"/>
<text text-anchor="start" x="2193.56" y="-610.91" font-family="arial" font-size="14.00">1x</text>
<text text-anchor="start" x="2119.06" y="-589.16" font-family="arial" font-size="14.00"> </text>
<text text-anchor="start" x="2074.81" y="-569.41" font-family="arial" font-size="14.00">DRV_B:6:ENA&#45;</text>
<text text-anchor="start" x="2171.06" y="-569.41" font-family="arial" font-size="14.00"> &#160;&#160;&#160;&#160;1:BK &#160;&#160;&#160;</text>
<text text-anchor="start" x="2238.06" y="-569.41" font-family="arial" font-size="14.00">EXT5V:2:GND</text>
<polygon fill="#000000" stroke="none" points="2072.81,-562.96 2072.81,-564.96 2328.56,-564.96 2328.56,-562.96 2072.81,-562.96"/>
<polygon fill="#000000" stroke="none" points="2072.81,-560.96 2072.81,-562.96 2328.56,-562.96 2328.56,-560.96 2072.81,-560.96"/>
<polygon fill="#000000" stroke="none" points="2072.81,-558.96 2072.81,-560.96 2328.56,-560.96 2328.56,-558.96 2072.81,-558.96"/>
<polygon fill="#000000" stroke="none" points="2072.81,-556.96 2072.81,-558.96 2328.56,-558.96 2328.56,-556.96 2072.81,-556.96"/>
<polygon fill="#000000" stroke="none" points="2072.81,-554.96 2072.81,-556.96 2328.56,-556.96 2328.56,-554.96 2072.81,-554.96"/>
<text text-anchor="start" x="2119.06" y="-539.66" font-family="arial" font-size="14.00"> </text>
<polygon fill="none" stroke="black" points="2072.81,-511.46 2072.81,-535.21 2328.56,-535.21 2328.56,-511.46 2072.81,-511.46"/>
<text text-anchor="start" x="2138.81" y="-517.91" font-family="arial" font-size="14.00">Driver B ENA&#45; return</text>
</g>
<!-- DRV_B&#45;&#45;RB -->
<g id="edge33" class="edge">
<title>DRV_B:e&#45;&#45;RB:w</title>
<path fill="none" stroke="#000000" stroke-width="2" d="M1928.81,-573.46C1990.25,-574.85 2005.31,-557.35 2072.81,-555.96"/>
<path fill="none" stroke="#000000" stroke-width="2" d="M1928.81,-575.46C1991.76,-576.16 2006.82,-558.66 2072.81,-557.96"/>
<path fill="none" stroke="#000000" stroke-width="2" d="M1928.81,-577.46C1993.28,-577.46 2008.34,-559.96 2072.81,-559.96"/>
<path fill="none" stroke="#000000" stroke-width="2" d="M1928.81,-579.46C1994.8,-578.77 2009.86,-561.27 2072.81,-561.96"/>
<path fill="none" stroke="#000000" stroke-width="2" d="M1928.81,-581.46C1996.31,-580.07 2011.37,-562.57 2072.81,-563.96"/>
</g>
<!-- TIE_0V -->
<g id="node4" class="node">
<title>TIE_0V</title>
<polygon fill="#ffffff" stroke="black" points="1152.31,-766.46 1076.81,-766.46 1076.81,-718.96 1152.31,-718.96 1152.31,-766.46"/>
<polygon fill="none" stroke="black" points="1076.81,-742.71 1076.81,-766.46 1152.31,-766.46 1152.31,-742.71 1076.81,-742.71"/>
<text text-anchor="start" x="1096.18" y="-749.16" font-family="arial" font-size="14.00">Splice</text>
<polygon fill="none" stroke="black" points="1076.81,-718.96 1076.81,-742.71 1152.31,-742.71 1152.31,-718.96 1076.81,-718.96"/>
<text text-anchor="start" x="1080.81" y="-725.41" font-family="arial" font-size="14.00">0V tie point</text>
</g>
<!-- GND_A1 -->
<g id="node13" class="node">
<title>GND_A1</title>
<polygon fill="#ffffff" stroke="black" points="1600.93,-1095.96 1431.43,-1095.96 1431.43,-955.46 1600.93,-955.46 1600.93,-1095.96"/>
<polygon fill="none" stroke="black" points="1431.43,-1072.21 1431.43,-1095.96 1600.93,-1095.96 1600.93,-1072.21 1431.43,-1072.21"/>
<text text-anchor="start" x="1488.81" y="-1078.66" font-family="arial" font-size="14.00">GND_A1</text>
<polygon fill="none" stroke="black" points="1431.43,-1048.46 1431.43,-1072.21 1600.93,-1072.21 1600.93,-1048.46 1431.43,-1048.46"/>
<text text-anchor="start" x="1509.06" y="-1054.91" font-family="arial" font-size="14.00">1x</text>
<text text-anchor="start" x="1433.43" y="-1033.16" font-family="arial" font-size="14.00"> </text>
<text text-anchor="start" x="1441.18" y="-1013.41" font-family="arial" font-size="14.00"> &#160;&#160;&#160;&#160;1:BK &#160;&#160;&#160;</text>
<text text-anchor="start" x="1508.18" y="-1013.41" font-family="arial" font-size="14.00">DRV_A:2:PUL&#45;</text>
<polygon fill="#000000" stroke="none" points="1431.43,-1006.96 1431.43,-1008.96 1600.93,-1008.96 1600.93,-1006.96 1431.43,-1006.96"/>
<polygon fill="#000000" stroke="none" points="1431.43,-1004.96 1431.43,-1006.96 1600.93,-1006.96 1600.93,-1004.96 1431.43,-1004.96"/>
<polygon fill="#000000" stroke="none" points="1431.43,-1002.96 1431.43,-1004.96 1600.93,-1004.96 1600.93,-1002.96 1431.43,-1002.96"/>
<polygon fill="#000000" stroke="none" points="1431.43,-1000.96 1431.43,-1002.96 1600.93,-1002.96 1600.93,-1000.96 1431.43,-1000.96"/>
<polygon fill="#000000" stroke="none" points="1431.43,-998.96 1431.43,-1000.96 1600.93,-1000.96 1600.93,-998.96 1431.43,-998.96"/>
<text text-anchor="start" x="1433.43" y="-983.66" font-family="arial" font-size="14.00"> </text>
<polygon fill="none" stroke="black" points="1431.43,-955.46 1431.43,-979.21 1600.93,-979.21 1600.93,-955.46 1431.43,-955.46"/>
<text text-anchor="start" x="1452.43" y="-961.91" font-family="arial" font-size="14.00">Driver A PUL&#45; ground</text>
</g>
<!-- TIE_0V&#45;&#45;GND_A1 -->
<g id="edge11" class="edge">
<title>TIE_0V:e&#45;&#45;GND_A1:w</title>
<path fill="none" stroke="#000000" stroke-width="2" d="M1153.31,-738.71C1326.47,-743.63 1265.06,-1004.88 1430.43,-999.96"/>
<path fill="none" stroke="#000000" stroke-width="2" d="M1153.31,-740.71C1324.53,-743.17 1263.11,-1004.42 1430.43,-1001.96"/>
<path fill="none" stroke="#000000" stroke-width="2" d="M1153.31,-742.71C1322.58,-742.71 1261.17,-1003.96 1430.43,-1003.96"/>
<path fill="none" stroke="#000000" stroke-width="2" d="M1153.31,-744.71C1320.63,-742.25 1259.22,-1003.5 1430.43,-1005.96"/>
<path fill="none" stroke="#000000" stroke-width="2" d="M1153.31,-746.71C1318.68,-741.8 1257.27,-1003.05 1430.43,-1007.96"/>
</g>
<!-- GND_A2 -->
<g id="node14" class="node">
<title>GND_A2</title>
<polygon fill="#ffffff" stroke="black" points="1599.43,-930.96 1432.93,-930.96 1432.93,-790.46 1599.43,-790.46 1599.43,-930.96"/>
<polygon fill="none" stroke="black" points="1432.93,-907.21 1432.93,-930.96 1599.43,-930.96 1599.43,-907.21 1432.93,-907.21"/>
<text text-anchor="start" x="1488.81" y="-913.66" font-family="arial" font-size="14.00">GND_A2</text>
<polygon fill="none" stroke="black" points="1432.93,-883.46 1432.93,-907.21 1599.43,-907.21 1599.43,-883.46 1432.93,-883.46"/>
<text text-anchor="start" x="1509.06" y="-889.91" font-family="arial" font-size="14.00">1x</text>
<text text-anchor="start" x="1434.93" y="-868.16" font-family="arial" font-size="14.00"> </text>
<text text-anchor="start" x="1442.68" y="-848.41" font-family="arial" font-size="14.00"> &#160;&#160;&#160;&#160;1:BK &#160;&#160;&#160;</text>
<text text-anchor="start" x="1509.68" y="-848.41" font-family="arial" font-size="14.00">DRV_A:4:DIR&#45;</text>
<polygon fill="#000000" stroke="none" points="1432.93,-841.96 1432.93,-843.96 1599.43,-843.96 1599.43,-841.96 1432.93,-841.96"/>
<polygon fill="#000000" stroke="none" points="1432.93,-839.96 1432.93,-841.96 1599.43,-841.96 1599.43,-839.96 1432.93,-839.96"/>
<polygon fill="#000000" stroke="none" points="1432.93,-837.96 1432.93,-839.96 1599.43,-839.96 1599.43,-837.96 1432.93,-837.96"/>
<polygon fill="#000000" stroke="none" points="1432.93,-835.96 1432.93,-837.96 1599.43,-837.96 1599.43,-835.96 1432.93,-835.96"/>
<polygon fill="#000000" stroke="none" points="1432.93,-833.96 1432.93,-835.96 1599.43,-835.96 1599.43,-833.96 1432.93,-833.96"/>
<text text-anchor="start" x="1434.93" y="-818.66" font-family="arial" font-size="14.00"> </text>
<polygon fill="none" stroke="black" points="1432.93,-790.46 1432.93,-814.21 1599.43,-814.21 1599.43,-790.46 1432.93,-790.46"/>
<text text-anchor="start" x="1453.93" y="-796.91" font-family="arial" font-size="14.00">Driver A DIR&#45; ground</text>
</g>
<!-- TIE_0V&#45;&#45;GND_A2 -->
<g id="edge13" class="edge">
<title>TIE_0V:e&#45;&#45;GND_A2:w</title>
<path fill="none" stroke="#000000" stroke-width="2" d="M1153.31,-738.71C1288.27,-742.03 1304.86,-838.28 1431.93,-834.96"/>
<path fill="none" stroke="#000000" stroke-width="2" d="M1153.31,-740.71C1286.29,-742.37 1302.89,-838.62 1431.93,-836.96"/>
<path fill="none" stroke="#000000" stroke-width="2" d="M1153.31,-742.71C1284.32,-742.71 1300.92,-838.96 1431.93,-838.96"/>
<path fill="none" stroke="#000000" stroke-width="2" d="M1153.31,-744.71C1282.35,-743.05 1298.95,-839.3 1431.93,-840.96"/>
<path fill="none" stroke="#000000" stroke-width="2" d="M1153.31,-746.71C1280.38,-743.39 1296.98,-839.64 1431.93,-842.96"/>
</g>
<!-- GND_B1 -->
<g id="node15" class="node">
<title>GND_B1</title>
<polygon fill="#ffffff" stroke="black" points="1600.93,-765.96 1431.43,-765.96 1431.43,-625.46 1600.93,-625.46 1600.93,-765.96"/>
<polygon fill="none" stroke="black" points="1431.43,-742.21 1431.43,-765.96 1600.93,-765.96 1600.93,-742.21 1431.43,-742.21"/>
<text text-anchor="start" x="1488.81" y="-748.66" font-family="arial" font-size="14.00">GND_B1</text>
<polygon fill="none" stroke="black" points="1431.43,-718.46 1431.43,-742.21 1600.93,-742.21 1600.93,-718.46 1431.43,-718.46"/>
<text text-anchor="start" x="1509.06" y="-724.91" font-family="arial" font-size="14.00">1x</text>
<text text-anchor="start" x="1433.43" y="-703.16" font-family="arial" font-size="14.00"> </text>
<text text-anchor="start" x="1441.18" y="-683.41" font-family="arial" font-size="14.00"> &#160;&#160;&#160;&#160;1:BK &#160;&#160;&#160;</text>
<text text-anchor="start" x="1508.18" y="-683.41" font-family="arial" font-size="14.00">DRV_B:2:PUL&#45;</text>
<polygon fill="#000000" stroke="none" points="1431.43,-676.96 1431.43,-678.96 1600.93,-678.96 1600.93,-676.96 1431.43,-676.96"/>
<polygon fill="#000000" stroke="none" points="1431.43,-674.96 1431.43,-676.96 1600.93,-676.96 1600.93,-674.96 1431.43,-674.96"/>
<polygon fill="#000000" stroke="none" points="1431.43,-672.96 1431.43,-674.96 1600.93,-674.96 1600.93,-672.96 1431.43,-672.96"/>
<polygon fill="#000000" stroke="none" points="1431.43,-670.96 1431.43,-672.96 1600.93,-672.96 1600.93,-670.96 1431.43,-670.96"/>
<polygon fill="#000000" stroke="none" points="1431.43,-668.96 1431.43,-670.96 1600.93,-670.96 1600.93,-668.96 1431.43,-668.96"/>
<text text-anchor="start" x="1433.43" y="-653.66" font-family="arial" font-size="14.00"> </text>
<polygon fill="none" stroke="black" points="1431.43,-625.46 1431.43,-649.21 1600.93,-649.21 1600.93,-625.46 1431.43,-625.46"/>
<text text-anchor="start" x="1451.68" y="-631.91" font-family="arial" font-size="14.00">Driver B PUL&#45; ground</text>
</g>
<!-- TIE_0V&#45;&#45;GND_B1 -->
<g id="edge15" class="edge">
<title>TIE_0V:e&#45;&#45;GND_B1:w</title>
<path fill="none" stroke="#000000" stroke-width="2" d="M1153.31,-738.71C1276.42,-741.43 1299.75,-672.68 1430.43,-669.96"/>
<path fill="none" stroke="#000000" stroke-width="2" d="M1153.31,-740.71C1278.32,-742.07 1301.64,-673.32 1430.43,-671.96"/>
<path fill="none" stroke="#000000" stroke-width="2" d="M1153.31,-742.71C1280.21,-742.71 1303.53,-673.96 1430.43,-673.96"/>
<path fill="none" stroke="#000000" stroke-width="2" d="M1153.31,-744.71C1282.1,-743.35 1305.43,-674.6 1430.43,-675.96"/>
<path fill="none" stroke="#000000" stroke-width="2" d="M1153.31,-746.71C1284,-744 1307.32,-675.25 1430.43,-677.96"/>
</g>
<!-- GND_B2 -->
<g id="node16" class="node">
<title>GND_B2</title>
<polygon fill="#ffffff" stroke="black" points="1599.43,-600.96 1432.93,-600.96 1432.93,-460.46 1599.43,-460.46 1599.43,-600.96"/>
<polygon fill="none" stroke="black" points="1432.93,-577.21 1432.93,-600.96 1599.43,-600.96 1599.43,-577.21 1432.93,-577.21"/>
<text text-anchor="start" x="1488.81" y="-583.66" font-family="arial" font-size="14.00">GND_B2</text>
<polygon fill="none" stroke="black" points="1432.93,-553.46 1432.93,-577.21 1599.43,-577.21 1599.43,-553.46 1432.93,-553.46"/>
<text text-anchor="start" x="1509.06" y="-559.91" font-family="arial" font-size="14.00">1x</text>
<text text-anchor="start" x="1434.93" y="-538.16" font-family="arial" font-size="14.00"> </text>
<text text-anchor="start" x="1442.68" y="-518.41" font-family="arial" font-size="14.00"> &#160;&#160;&#160;&#160;1:BK &#160;&#160;&#160;</text>
<text text-anchor="start" x="1509.68" y="-518.41" font-family="arial" font-size="14.00">DRV_B:4:DIR&#45;</text>
<polygon fill="#000000" stroke="none" points="1432.93,-511.96 1432.93,-513.96 1599.43,-513.96 1599.43,-511.96 1432.93,-511.96"/>
<polygon fill="#000000" stroke="none" points="1432.93,-509.96 1432.93,-511.96 1599.43,-511.96 1599.43,-509.96 1432.93,-509.96"/>
<polygon fill="#000000" stroke="none" points="1432.93,-507.96 1432.93,-509.96 1599.43,-509.96 1599.43,-507.96 1432.93,-507.96"/>
<polygon fill="#000000" stroke="none" points="1432.93,-505.96 1432.93,-507.96 1599.43,-507.96 1599.43,-505.96 1432.93,-505.96"/>
<polygon fill="#000000" stroke="none" points="1432.93,-503.96 1432.93,-505.96 1599.43,-505.96 1599.43,-503.96 1432.93,-503.96"/>
<text text-anchor="start" x="1434.93" y="-488.66" font-family="arial" font-size="14.00"> </text>
<polygon fill="none" stroke="black" points="1432.93,-460.46 1432.93,-484.21 1599.43,-484.21 1599.43,-460.46 1432.93,-460.46"/>
<text text-anchor="start" x="1453.18" y="-466.91" font-family="arial" font-size="14.00">Driver B DIR&#45; ground</text>
</g>
<!-- TIE_0V&#45;&#45;GND_B2 -->
<g id="edge17" class="edge">
<title>TIE_0V:e&#45;&#45;GND_B2:w</title>
<path fill="none" stroke="#000000" stroke-width="2" d="M1153.31,-738.71C1311.02,-743.46 1266.37,-509.71 1431.93,-504.96"/>
<path fill="none" stroke="#000000" stroke-width="2" d="M1153.31,-740.71C1312.99,-743.09 1268.33,-509.34 1431.93,-506.96"/>
<path fill="none" stroke="#000000" stroke-width="2" d="M1153.31,-742.71C1314.95,-742.71 1270.29,-508.96 1431.93,-508.96"/>
<path fill="none" stroke="#000000" stroke-width="2" d="M1153.31,-744.71C1316.91,-742.34 1272.26,-508.59 1431.93,-510.96"/>
<path fill="none" stroke="#000000" stroke-width="2" d="M1153.31,-746.71C1318.88,-741.96 1274.22,-508.21 1431.93,-512.96"/>
</g>
<!-- SGND -->
<g id="node17" class="node">
<title>SGND</title>
<polygon fill="#ffffff" stroke="black" points="1922.93,-515.96 1755.68,-515.96 1755.68,-375.46 1922.93,-375.46 1922.93,-515.96"/>
<polygon fill="none" stroke="black" points="1755.68,-492.21 1755.68,-515.96 1922.93,-515.96 1922.93,-492.21 1755.68,-492.21"/>
<text text-anchor="start" x="1819.43" y="-498.66" font-family="arial" font-size="14.00">SGND</text>
<polygon fill="none" stroke="black" points="1755.68,-468.46 1755.68,-492.21 1922.93,-492.21 1922.93,-468.46 1755.68,-468.46"/>
<text text-anchor="start" x="1832.18" y="-474.91" font-family="arial" font-size="14.00">1x</text>
<text text-anchor="start" x="1757.68" y="-453.16" font-family="arial" font-size="14.00"> </text>
<text text-anchor="start" x="1765.43" y="-433.41" font-family="arial" font-size="14.00"> &#160;&#160;&#160;&#160;1:BK &#160;&#160;&#160;</text>
<text text-anchor="start" x="1832.43" y="-433.41" font-family="arial" font-size="14.00">EXT5V:2:GND</text>
<polygon fill="#000000" stroke="none" points="1755.68,-426.96 1755.68,-428.96 1922.93,-428.96 1922.93,-426.96 1755.68,-426.96"/>
<polygon fill="#000000" stroke="none" points="1755.68,-424.96 1755.68,-426.96 1922.93,-426.96 1922.93,-424.96 1755.68,-424.96"/>
<polygon fill="#000000" stroke="none" points="1755.68,-422.96 1755.68,-424.96 1922.93,-424.96 1922.93,-422.96 1755.68,-422.96"/>
<polygon fill="#000000" stroke="none" points="1755.68,-420.96 1755.68,-422.96 1922.93,-422.96 1922.93,-420.96 1755.68,-420.96"/>
<polygon fill="#000000" stroke="none" points="1755.68,-418.96 1755.68,-420.96 1922.93,-420.96 1922.93,-418.96 1755.68,-418.96"/>
<text text-anchor="start" x="1757.68" y="-403.66" font-family="arial" font-size="14.00"> </text>
<polygon fill="none" stroke="black" points="1755.68,-375.46 1755.68,-399.21 1922.93,-399.21 1922.93,-375.46 1755.68,-375.46"/>
<text text-anchor="start" x="1766.93" y="-381.91" font-family="arial" font-size="14.00">Signal ground to EXT5V</text>
</g>
<!-- TIE_0V&#45;&#45;SGND -->
<g id="edge19" class="edge">
<title>TIE_0V:e&#45;&#45;SGND:w</title>
<path fill="none" stroke="#000000" stroke-width="2" d="M1153.31,-738.71C1327.87,-743.88 1262,-527.25 1424.83,-445.11 1560.78,-382.11 1610.88,-420.8 1754.68,-419.96"/>
<path fill="none" stroke="#000000" stroke-width="2" d="M1153.31,-740.71C1329.79,-743.29 1263.91,-526.67 1425.69,-446.91 1559.56,-383.7 1609.66,-422.38 1754.68,-421.96"/>
<path fill="none" stroke="#000000" stroke-width="2" d="M1153.31,-742.71C1331.7,-742.71 1265.82,-526.08 1426.56,-448.71 1558.34,-385.28 1608.44,-423.96 1754.68,-423.96"/>
<path fill="none" stroke="#000000" stroke-width="2" d="M1153.31,-744.71C1333.61,-742.13 1267.74,-525.5 1427.43,-450.51 1557.11,-386.86 1607.22,-425.55 1754.68,-425.96"/>
<path fill="none" stroke="#000000" stroke-width="2" d="M1153.31,-746.71C1335.53,-741.55 1269.65,-524.92 1428.29,-452.32 1555.89,-388.45 1605.99,-427.13 1754.68,-427.96"/>
</g>
<!-- EXT5V -->
<g id="node5" class="node">
<title>EXT5V</title>
<polygon fill="#ffffff" stroke="black" points="2642.56,-567.09 2472.56,-567.09 2472.56,-448.34 2642.56,-448.34 2642.56,-567.09"/>
<polygon fill="none" stroke="black" points="2472.56,-543.34 2472.56,-567.09 2642.56,-567.09 2642.56,-543.34 2472.56,-543.34"/>
<text text-anchor="start" x="2536.18" y="-549.79" font-family="arial" font-size="14.00">EXT5V</text>
<polygon fill="none" stroke="black" points="2472.56,-519.59 2472.56,-543.34 2584.18,-543.34 2584.18,-519.59 2472.56,-519.59"/>
<text text-anchor="start" x="2486.75" y="-526.04" font-family="arial" font-size="14.00">Power Supply</text>
<polygon fill="none" stroke="black" points="2584.18,-519.59 2584.18,-543.34 2642.56,-543.34 2642.56,-519.59 2584.18,-519.59"/>
<text text-anchor="start" x="2598.37" y="-526.04" font-family="arial" font-size="14.00">2&#45;pin</text>
<polygon fill="none" stroke="black" points="2472.56,-495.84 2472.56,-519.59 2521.48,-519.59 2521.48,-495.84 2472.56,-495.84"/>
<text text-anchor="start" x="2493.27" y="-502.29" font-family="arial" font-size="14.00">1</text>
<polygon fill="none" stroke="black" points="2521.48,-495.84 2521.48,-519.59 2593.64,-519.59 2593.64,-495.84 2521.48,-495.84"/>
<text text-anchor="start" x="2545.18" y="-502.29" font-family="arial" font-size="14.00">+5V</text>
<polygon fill="none" stroke="black" points="2593.64,-495.84 2593.64,-519.59 2642.56,-519.59 2642.56,-495.84 2593.64,-495.84"/>
<text text-anchor="start" x="2614.35" y="-502.29" font-family="arial" font-size="14.00">1</text>
<polygon fill="none" stroke="black" points="2472.56,-472.09 2472.56,-495.84 2521.48,-495.84 2521.48,-472.09 2472.56,-472.09"/>
<text text-anchor="start" x="2493.27" y="-478.54" font-family="arial" font-size="14.00">2</text>
<polygon fill="none" stroke="black" points="2521.48,-472.09 2521.48,-495.84 2593.64,-495.84 2593.64,-472.09 2521.48,-472.09"/>
<text text-anchor="start" x="2542.18" y="-478.54" font-family="arial" font-size="14.00">GND</text>
<polygon fill="none" stroke="black" points="2593.64,-472.09 2593.64,-495.84 2642.56,-495.84 2642.56,-472.09 2593.64,-472.09"/>
<text text-anchor="start" x="2614.35" y="-478.54" font-family="arial" font-size="14.00">2</text>
<polygon fill="none" stroke="black" points="2472.56,-448.34 2472.56,-472.09 2642.56,-472.09 2642.56,-448.34 2472.56,-448.34"/>
<text text-anchor="start" x="2476.56" y="-454.79" font-family="arial" font-size="14.00">External 5V (enable circuit)</text>
</g>
<!-- PWR -->
<g id="node18" class="node">
<title>PWR</title>
<polygon fill="#ffffff" stroke="black" points="3040.06,-503.96 2786.56,-503.96 2786.56,-363.46 3040.06,-363.46 3040.06,-503.96"/>
<polygon fill="none" stroke="black" points="2786.56,-480.21 2786.56,-503.96 3040.06,-503.96 3040.06,-480.21 2786.56,-480.21"/>
<text text-anchor="start" x="2897.18" y="-486.66" font-family="arial" font-size="14.00">PWR</text>
<polygon fill="none" stroke="black" points="2786.56,-456.46 2786.56,-480.21 3040.06,-480.21 3040.06,-456.46 2786.56,-456.46"/>
<text text-anchor="start" x="2906.18" y="-462.91" font-family="arial" font-size="14.00">1x</text>
<text text-anchor="start" x="2827.93" y="-441.16" font-family="arial" font-size="14.00"> </text>
<text text-anchor="start" x="2788.56" y="-421.41" font-family="arial" font-size="14.00">EXT5V:1:+5V</text>
<text text-anchor="start" x="2875.06" y="-421.41" font-family="arial" font-size="14.00"> &#160;&#160;&#160;&#160;1:RD &#160;&#160;&#160;</text>
<text text-anchor="start" x="2943.56" y="-421.41" font-family="arial" font-size="14.00">ESTOP:1:COM</text>
<polygon fill="#000000" stroke="none" points="2786.56,-414.96 2786.56,-416.96 3040.06,-416.96 3040.06,-414.96 2786.56,-414.96"/>
<polygon fill="#ff0000" stroke="none" points="2786.56,-412.96 2786.56,-414.96 3040.06,-414.96 3040.06,-412.96 2786.56,-412.96"/>
<polygon fill="#ff0000" stroke="none" points="2786.56,-410.96 2786.56,-412.96 3040.06,-412.96 3040.06,-410.96 2786.56,-410.96"/>
<polygon fill="#ff0000" stroke="none" points="2786.56,-408.96 2786.56,-410.96 3040.06,-410.96 3040.06,-408.96 2786.56,-408.96"/>
<polygon fill="#000000" stroke="none" points="2786.56,-406.96 2786.56,-408.96 3040.06,-408.96 3040.06,-406.96 2786.56,-406.96"/>
<text text-anchor="start" x="2827.93" y="-391.66" font-family="arial" font-size="14.00"> </text>
<polygon fill="none" stroke="black" points="2786.56,-363.46 2786.56,-387.21 3040.06,-387.21 3040.06,-363.46 2786.56,-363.46"/>
<text text-anchor="start" x="2872.06" y="-369.91" font-family="arial" font-size="14.00">+5V to E&#45;stop</text>
</g>
<!-- EXT5V&#45;&#45;PWR -->
<g id="edge21" class="edge">
<title>EXT5V:e&#45;&#45;PWR:w</title>
<path fill="none" stroke="#000000" stroke-width="2" d="M2642.56,-503.71C2715.44,-508.12 2705.72,-412.37 2786.56,-407.96"/>
<path fill="none" stroke="#ff0000" stroke-width="2" d="M2642.56,-505.71C2717.43,-507.91 2707.71,-412.16 2786.56,-409.96"/>
<path fill="none" stroke="#ff0000" stroke-width="2" d="M2642.56,-507.71C2719.42,-507.71 2709.7,-411.96 2786.56,-411.96"/>
<path fill="none" stroke="#ff0000" stroke-width="2" d="M2642.56,-509.71C2721.41,-507.51 2711.69,-411.76 2786.56,-413.96"/>
<path fill="none" stroke="#000000" stroke-width="2" d="M2642.56,-511.71C2723.4,-507.31 2713.68,-411.56 2786.56,-415.96"/>
</g>
<!-- ESTOP -->
<g id="node6" class="node">
<title>ESTOP</title>
<polygon fill="#ffffff" stroke="black" points="3357.06,-394.09 3184.06,-394.09 3184.06,-275.34 3357.06,-275.34 3357.06,-394.09"/>
<polygon fill="none" stroke="black" points="3184.06,-370.34 3184.06,-394.09 3357.06,-394.09 3357.06,-370.34 3184.06,-370.34"/>
<text text-anchor="start" x="3247.31" y="-376.79" font-family="arial" font-size="14.00">ESTOP</text>
<polygon fill="none" stroke="black" points="3184.06,-346.59 3184.06,-370.34 3283.56,-370.34 3283.56,-346.59 3184.06,-346.59"/>
<text text-anchor="start" x="3188.06" y="-353.04" font-family="arial" font-size="14.00">NC Pushbutton</text>
<polygon fill="none" stroke="black" points="3283.56,-346.59 3283.56,-370.34 3321.56,-370.34 3321.56,-346.59 3283.56,-346.59"/>
<text text-anchor="start" x="3287.56" y="-353.04" font-family="arial" font-size="14.00">2&#45;pin</text>
<polygon fill="none" stroke="black" points="3321.56,-346.59 3321.56,-370.34 3349.06,-370.34 3349.06,-346.59 3321.56,-346.59"/>
<text text-anchor="start" x="3325.56" y="-353.04" font-family="arial" font-size="14.00">RD</text>
<polygon fill="#ff0000" stroke="none" points="3349.06,-346.59 3349.06,-370.34 3357.06,-370.34 3357.06,-346.59 3349.06,-346.59"/>
<polygon fill="none" stroke="black" points="3349.06,-346.59 3349.06,-370.34 3357.06,-370.34 3357.06,-346.59 3349.06,-346.59"/>
<polygon fill="none" stroke="black" points="3184.06,-322.84 3184.06,-346.59 3233.23,-346.59 3233.23,-322.84 3184.06,-322.84"/>
<text text-anchor="start" x="3204.89" y="-329.29" font-family="arial" font-size="14.00">1</text>
<polygon fill="none" stroke="black" points="3233.23,-322.84 3233.23,-346.59 3307.89,-346.59 3307.89,-322.84 3233.23,-322.84"/>
<text text-anchor="start" x="3254.06" y="-329.29" font-family="arial" font-size="14.00">COM</text>
<polygon fill="none" stroke="black" points="3307.89,-322.84 3307.89,-346.59 3357.06,-346.59 3357.06,-322.84 3307.89,-322.84"/>
<text text-anchor="start" x="3328.73" y="-329.29" font-family="arial" font-size="14.00">1</text>
<polygon fill="none" stroke="black" points="3184.06,-299.09 3184.06,-322.84 3233.23,-322.84 3233.23,-299.09 3184.06,-299.09"/>
<text text-anchor="start" x="3204.89" y="-305.54" font-family="arial" font-size="14.00">2</text>
<polygon fill="none" stroke="black" points="3233.23,-299.09 3233.23,-322.84 3307.89,-322.84 3307.89,-299.09 3233.23,-299.09"/>
<text text-anchor="start" x="3260.81" y="-305.54" font-family="arial" font-size="14.00">NC</text>
<polygon fill="none" stroke="black" points="3307.89,-299.09 3307.89,-322.84 3357.06,-322.84 3357.06,-299.09 3307.89,-299.09"/>
<text text-anchor="start" x="3328.73" y="-305.54" font-family="arial" font-size="14.00">2</text>
<polygon fill="none" stroke="black" points="3184.06,-275.34 3184.06,-299.09 3357.06,-299.09 3357.06,-275.34 3184.06,-275.34"/>
<text text-anchor="start" x="3220.31" y="-281.79" font-family="arial" font-size="14.00">Emergency Stop</text>
</g>
<!-- ES -->
<g id="node19" class="node">
<title>ES</title>
<polygon fill="#ffffff" stroke="black" points="3813.81,-324.96 3501.06,-324.96 3501.06,-184.46 3813.81,-184.46 3813.81,-324.96"/>
<polygon fill="none" stroke="black" points="3501.06,-301.21 3501.06,-324.96 3813.81,-324.96 3813.81,-301.21 3501.06,-301.21"/>
<text text-anchor="start" x="3648.43" y="-307.66" font-family="arial" font-size="14.00">ES</text>
<polygon fill="none" stroke="black" points="3501.06,-277.46 3501.06,-301.21 3813.81,-301.21 3813.81,-277.46 3501.06,-277.46"/>
<text text-anchor="start" x="3650.31" y="-283.91" font-family="arial" font-size="14.00">1x</text>
<text text-anchor="start" x="3541.68" y="-262.16" font-family="arial" font-size="14.00"> </text>
<text text-anchor="start" x="3503.06" y="-242.41" font-family="arial" font-size="14.00">ESTOP:2:NC</text>
<text text-anchor="start" x="3588.06" y="-242.41" font-family="arial" font-size="14.00"> &#160;&#160;&#160;&#160;1:BU &#160;&#160;&#160;</text>
<text text-anchor="start" x="3655.81" y="-242.41" font-family="arial" font-size="14.00">MC508_STEP:7:WDOG+</text>
<polygon fill="#000000" stroke="none" points="3501.06,-235.96 3501.06,-237.96 3813.81,-237.96 3813.81,-235.96 3501.06,-235.96"/>
<polygon fill="#0066ff" stroke="none" points="3501.06,-233.96 3501.06,-235.96 3813.81,-235.96 3813.81,-233.96 3501.06,-233.96"/>
<polygon fill="#0066ff" stroke="none" points="3501.06,-231.96 3501.06,-233.96 3813.81,-233.96 3813.81,-231.96 3501.06,-231.96"/>
<polygon fill="#0066ff" stroke="none" points="3501.06,-229.96 3501.06,-231.96 3813.81,-231.96 3813.81,-229.96 3501.06,-229.96"/>
<polygon fill="#000000" stroke="none" points="3501.06,-227.96 3501.06,-229.96 3813.81,-229.96 3813.81,-227.96 3501.06,-227.96"/>
<text text-anchor="start" x="3541.68" y="-212.66" font-family="arial" font-size="14.00"> </text>
<polygon fill="none" stroke="black" points="3501.06,-184.46 3501.06,-208.21 3813.81,-208.21 3813.81,-184.46 3501.06,-184.46"/>
<text text-anchor="start" x="3562.93" y="-190.91" font-family="arial" font-size="14.00">E&#45;stop to WDOG+ (SCSI pin 7)</text>
</g>
<!-- ESTOP&#45;&#45;ES -->
<g id="edge23" class="edge">
<title>ESTOP:e&#45;&#45;ES:w</title>
<path fill="none" stroke="#000000" stroke-width="2" d="M3357.06,-306.96C3425.85,-311.04 3424.27,-233.04 3501.06,-228.96"/>
<path fill="none" stroke="#0066ff" stroke-width="2" d="M3357.06,-308.96C3427.85,-311 3426.27,-233 3501.06,-230.96"/>
<path fill="none" stroke="#0066ff" stroke-width="2" d="M3357.06,-310.96C3429.85,-310.96 3428.27,-232.96 3501.06,-232.96"/>
<path fill="none" stroke="#0066ff" stroke-width="2" d="M3357.06,-312.96C3431.85,-310.92 3430.27,-232.92 3501.06,-234.96"/>
<path fill="none" stroke="#000000" stroke-width="2" d="M3357.06,-314.96C3433.84,-310.88 3432.27,-232.88 3501.06,-236.96"/>
</g>
<!-- TIE_WDOG -->
<g id="node7" class="node">
<title>TIE_WDOG</title>
<polygon fill="#ffffff" stroke="black" points="1169.18,-319.46 1059.93,-319.46 1059.93,-271.96 1169.18,-271.96 1169.18,-319.46"/>
<polygon fill="none" stroke="black" points="1059.93,-295.71 1059.93,-319.46 1169.18,-319.46 1169.18,-295.71 1059.93,-295.71"/>
<text text-anchor="start" x="1096.18" y="-302.16" font-family="arial" font-size="14.00">Splice</text>
<polygon fill="none" stroke="black" points="1059.93,-271.96 1059.93,-295.71 1169.18,-295.71 1169.18,-271.96 1059.93,-271.96"/>
<text text-anchor="start" x="1063.93" y="-278.41" font-family="arial" font-size="14.00">WDOG&#45; tie point</text>
</g>
<!-- WDA -->
<g id="node21" class="node">
<title>WDA</title>
<polygon fill="#ffffff" stroke="black" points="1605.81,-386.96 1426.56,-386.96 1426.56,-246.46 1605.81,-246.46 1605.81,-386.96"/>
<polygon fill="none" stroke="black" points="1426.56,-363.21 1426.56,-386.96 1605.81,-386.96 1605.81,-363.21 1426.56,-363.21"/>
<text text-anchor="start" x="1500.06" y="-369.66" font-family="arial" font-size="14.00">WDA</text>
<polygon fill="none" stroke="black" points="1426.56,-339.46 1426.56,-363.21 1605.81,-363.21 1605.81,-339.46 1426.56,-339.46"/>
<text text-anchor="start" x="1509.06" y="-345.91" font-family="arial" font-size="14.00">1x</text>
<text text-anchor="start" x="1428.56" y="-324.16" font-family="arial" font-size="14.00"> </text>
<text text-anchor="start" x="1436.31" y="-304.41" font-family="arial" font-size="14.00"> &#160;&#160;&#160;&#160;1:OG &#160;&#160;&#160;</text>
<text text-anchor="start" x="1507.81" y="-304.41" font-family="arial" font-size="14.00">DRV_A:5:ENA+</text>
<polygon fill="#000000" stroke="none" points="1426.56,-297.96 1426.56,-299.96 1605.81,-299.96 1605.81,-297.96 1426.56,-297.96"/>
<polygon fill="#ff8000" stroke="none" points="1426.56,-295.96 1426.56,-297.96 1605.81,-297.96 1605.81,-295.96 1426.56,-295.96"/>
<polygon fill="#ff8000" stroke="none" points="1426.56,-293.96 1426.56,-295.96 1605.81,-295.96 1605.81,-293.96 1426.56,-293.96"/>
<polygon fill="#ff8000" stroke="none" points="1426.56,-291.96 1426.56,-293.96 1605.81,-293.96 1605.81,-291.96 1426.56,-291.96"/>
<polygon fill="#000000" stroke="none" points="1426.56,-289.96 1426.56,-291.96 1605.81,-291.96 1605.81,-289.96 1426.56,-289.96"/>
<text text-anchor="start" x="1428.56" y="-274.66" font-family="arial" font-size="14.00"> </text>
<polygon fill="none" stroke="black" points="1426.56,-246.46 1426.56,-270.21 1605.81,-270.21 1605.81,-246.46 1426.56,-246.46"/>
<text text-anchor="start" x="1431.43" y="-252.91" font-family="arial" font-size="14.00">WDOG tie to Driver A ENA+</text>
</g>
<!-- TIE_WDOG&#45;&#45;WDA -->
<g id="edge27" class="edge">
<title>TIE_WDOG:e&#45;&#45;WDA:w</title>
<path fill="none" stroke="#000000" stroke-width="2" d="M1170.18,-291.71C1284.02,-291.71 1312.51,-290.96 1426.56,-290.96"/>
<path fill="none" stroke="#ff8000" stroke-width="2" d="M1170.18,-293.71C1284.08,-293.71 1312.56,-292.96 1426.56,-292.96"/>
<path fill="none" stroke="#ff8000" stroke-width="2" d="M1170.18,-295.71C1284.13,-295.71 1312.61,-294.96 1426.56,-294.96"/>
<path fill="none" stroke="#ff8000" stroke-width="2" d="M1170.18,-297.71C1284.18,-297.71 1312.67,-296.96 1426.56,-296.96"/>
<path fill="none" stroke="#000000" stroke-width="2" d="M1170.18,-299.71C1284.24,-299.71 1312.72,-298.96 1426.56,-298.96"/>
</g>
<!-- WDB -->
<g id="node22" class="node">
<title>WDB</title>
<polygon fill="#ffffff" stroke="black" points="1605.81,-221.96 1426.56,-221.96 1426.56,-81.46 1605.81,-81.46 1605.81,-221.96"/>
<polygon fill="none" stroke="black" points="1426.56,-198.21 1426.56,-221.96 1605.81,-221.96 1605.81,-198.21 1426.56,-198.21"/>
<text text-anchor="start" x="1500.06" y="-204.66" font-family="arial" font-size="14.00">WDB</text>
<polygon fill="none" stroke="black" points="1426.56,-174.46 1426.56,-198.21 1605.81,-198.21 1605.81,-174.46 1426.56,-174.46"/>
<text text-anchor="start" x="1509.06" y="-180.91" font-family="arial" font-size="14.00">1x</text>
<text text-anchor="start" x="1428.56" y="-159.16" font-family="arial" font-size="14.00"> </text>
<text text-anchor="start" x="1436.31" y="-139.41" font-family="arial" font-size="14.00"> &#160;&#160;&#160;&#160;1:OG &#160;&#160;&#160;</text>
<text text-anchor="start" x="1507.81" y="-139.41" font-family="arial" font-size="14.00">DRV_B:5:ENA+</text>
<polygon fill="#000000" stroke="none" points="1426.56,-132.96 1426.56,-134.96 1605.81,-134.96 1605.81,-132.96 1426.56,-132.96"/>
<polygon fill="#ff8000" stroke="none" points="1426.56,-130.96 1426.56,-132.96 1605.81,-132.96 1605.81,-130.96 1426.56,-130.96"/>
<polygon fill="#ff8000" stroke="none" points="1426.56,-128.96 1426.56,-130.96 1605.81,-130.96 1605.81,-128.96 1426.56,-128.96"/>
<polygon fill="#ff8000" stroke="none" points="1426.56,-126.96 1426.56,-128.96 1605.81,-128.96 1605.81,-126.96 1426.56,-126.96"/>
<polygon fill="#000000" stroke="none" points="1426.56,-124.96 1426.56,-126.96 1605.81,-126.96 1605.81,-124.96 1426.56,-124.96"/>
<text text-anchor="start" x="1428.56" y="-109.66" font-family="arial" font-size="14.00"> </text>
<polygon fill="none" stroke="black" points="1426.56,-81.46 1426.56,-105.21 1605.81,-105.21 1605.81,-81.46 1426.56,-81.46"/>
<text text-anchor="start" x="1430.68" y="-87.91" font-family="arial" font-size="14.00">WDOG tie to Driver B ENA+</text>
</g>
<!-- TIE_WDOG&#45;&#45;WDB -->
<g id="edge29" class="edge">
<title>TIE_WDOG:e&#45;&#45;WDB:w</title>
<path fill="none" stroke="#000000" stroke-width="2" d="M1170.18,-291.71C1301.89,-296.07 1286.89,-130.32 1426.56,-125.96"/>
<path fill="none" stroke="#ff8000" stroke-width="2" d="M1170.18,-293.71C1303.88,-295.89 1288.88,-130.14 1426.56,-127.96"/>
<path fill="none" stroke="#ff8000" stroke-width="2" d="M1170.18,-295.71C1305.87,-295.71 1290.88,-129.96 1426.56,-129.96"/>
<path fill="none" stroke="#ff8000" stroke-width="2" d="M1170.18,-297.71C1307.86,-295.53 1292.87,-129.78 1426.56,-131.96"/>
<path fill="none" stroke="#000000" stroke-width="2" d="M1170.18,-299.71C1309.85,-295.35 1294.86,-129.6 1426.56,-133.96"/>
</g>
<!-- STEPA_PUL&#45;&#45;DRV_A -->
<g id="edge2" class="edge">
<title>STEPA_PUL:e&#45;&#45;DRV_A:w</title>
<path fill="none" stroke="#000000" stroke-width="2" d="M1281.68,-1313.96C1430.04,-1314.19 1488.39,-1334.65 1603.45,-1248.48 1713.56,-1172.26 1616.06,-983.04 1757.43,-977.21"/>
<path fill="none" stroke="#000000" stroke-width="2" d="M1281.68,-1315.96C1429.38,-1316.08 1487.73,-1336.54 1604.63,-1250.1 1715.33,-1171.35 1617.84,-982.13 1757.43,-979.21"/>
<path fill="none" stroke="#000000" stroke-width="2" d="M1281.68,-1317.96C1428.72,-1317.96 1487.07,-1338.43 1605.81,-1251.71 1717.11,-1170.43 1619.61,-981.21 1757.43,-981.21"/>
<path fill="none" stroke="#000000" stroke-width="2" d="M1281.68,-1319.96C1428.06,-1319.85 1486.41,-1340.31 1606.99,-1253.33 1718.89,-1169.52 1621.39,-980.3 1757.43,-983.21"/>
<path fill="none" stroke="#000000" stroke-width="2" d="M1281.68,-1321.96C1427.4,-1321.74 1485.74,-1342.2 1608.17,-1254.94 1720.67,-1168.6 1623.17,-979.38 1757.43,-985.21"/>
</g>
<!-- STEPA_DIR&#45;&#45;DRV_A -->
<g id="edge4" class="edge">
<title>STEPA_DIR:e&#45;&#45;DRV_A:w</title>
<path fill="none" stroke="#000000" stroke-width="2" d="M764.56,-1185.96C952.36,-1186.05 1445.15,-1291.99 1603.79,-1198.26 1720.48,-1134.61 1617.03,-935.56 1757.43,-929.71"/>
<path fill="none" stroke="#ff0000" stroke-width="2" d="M764.56,-1187.96C951.94,-1188.01 1444.73,-1293.94 1604.8,-1199.98 1722.25,-1133.69 1618.81,-934.63 1757.43,-931.71"/>
<path fill="none" stroke="#ff0000" stroke-width="2" d="M764.56,-1189.96C951.52,-1189.96 1444.31,-1295.9 1605.81,-1201.71 1724.03,-1132.77 1620.58,-933.71 1757.43,-933.71"/>
<path fill="none" stroke="#ff0000" stroke-width="2" d="M764.56,-1191.96C951.1,-1191.92 1443.88,-1297.86 1606.82,-1203.44 1725.8,-1131.85 1622.36,-932.79 1757.43,-935.71"/>
<path fill="none" stroke="#000000" stroke-width="2" d="M764.56,-1193.96C950.68,-1193.87 1443.46,-1299.81 1607.83,-1205.17 1727.58,-1130.92 1624.13,-931.87 1757.43,-937.71"/>
</g>
<!-- STEPB_PUL&#45;&#45;DRV_B -->
<g id="edge6" class="edge">
<title>STEPB_PUL:e&#45;&#45;DRV_B:w</title>
<path fill="none" stroke="#000000" stroke-width="2" d="M802.56,-1020.96C878.87,-1024.8 881.13,-1080.31 947.68,-1096.87 1088.3,-1137.88 1487.94,-1223.12 1603.46,-1137.48 1770.51,-1020.91 1538.9,-698.55 1749.81,-692.21"/>
<path fill="none" stroke="#90ee90" stroke-width="2" d="M802.56,-1022.96C876.87,-1024.88 879.13,-1080.39 947.12,-1098.79 1087.88,-1139.84 1487.53,-1225.08 1604.63,-1139.09 1772.14,-1019.74 1540.52,-697.38 1749.81,-694.21"/>
<path fill="none" stroke="#90ee90" stroke-width="2" d="M802.56,-1024.96C874.87,-1024.96 877.14,-1080.47 946.56,-1100.71 1087.46,-1141.79 1487.11,-1227.03 1605.81,-1140.71 1773.76,-1018.58 1542.15,-696.21 1749.81,-696.21"/>
<path fill="none" stroke="#90ee90" stroke-width="2" d="M802.56,-1026.96C872.88,-1025.04 875.14,-1080.55 946,-1102.63 1087.05,-1143.75 1486.69,-1228.99 1606.99,-1142.33 1775.38,-1017.41 1543.77,-695.05 1749.81,-698.21"/>
<path fill="none" stroke="#000000" stroke-width="2" d="M802.56,-1028.96C870.88,-1025.13 873.14,-1080.63 945.44,-1104.55 1086.63,-1145.71 1486.27,-1230.94 1608.16,-1143.95 1777.01,-1016.24 1545.39,-693.88 1749.81,-700.21"/>
</g>
<!-- STEPB_DIR&#45;&#45;DRV_B -->
<g id="edge8" class="edge">
<title>STEPB_DIR:e&#45;&#45;DRV_B:w</title>
<path fill="none" stroke="#000000" stroke-width="2" d="M1282.56,-992.96C1367.25,-997.58 1354.07,-1082.33 1427.85,-1103.93 1503.89,-1129.85 1543.51,-1151.35 1603.44,-1104.49 1774.91,-983.52 1532.77,-651.07 1749.81,-644.71"/>
<path fill="none" stroke="#ff66cc" stroke-width="2" d="M1282.56,-994.96C1365.28,-997.27 1352.1,-1082.02 1427.2,-1105.82 1502.94,-1131.6 1542.55,-1153.11 1604.63,-1106.1 1776.52,-982.34 1534.39,-649.89 1749.81,-646.71"/>
<path fill="none" stroke="#ff66cc" stroke-width="2" d="M1282.56,-996.96C1363.3,-996.96 1350.12,-1081.72 1426.56,-1107.71 1501.98,-1133.36 1541.6,-1154.87 1605.81,-1107.71 1778.14,-981.16 1536.01,-648.71 1749.81,-648.71"/>
<path fill="none" stroke="#ff66cc" stroke-width="2" d="M1282.56,-998.96C1361.32,-996.66 1348.14,-1081.41 1425.92,-1109.61 1501.03,-1135.12 1540.64,-1156.62 1606.99,-1109.32 1779.76,-979.99 1537.62,-647.53 1749.81,-650.71"/>
<path fill="none" stroke="#000000" stroke-width="2" d="M1282.56,-1000.96C1359.35,-996.35 1346.17,-1081.1 1425.27,-1111.5 1500.08,-1136.88 1539.69,-1158.38 1608.18,-1110.94 1781.37,-978.81 1539.24,-646.36 1749.81,-652.71"/>
</g>
<!-- GND_SCSI&#45;&#45;TIE_0V -->
<g id="edge10" class="edge">
<title>GND_SCSI:e&#45;&#45;TIE_0V:w</title>
<path fill="none" stroke="#000000" stroke-width="2" d="M719.93,-771.96C876.16,-772.95 914.33,-739.7 1075.81,-738.71"/>
<path fill="none" stroke="#ffffff" stroke-width="2" d="M719.93,-773.96C877.48,-774.45 915.64,-741.2 1075.81,-740.71"/>
<path fill="none" stroke="#895956" stroke-width="2" d="M719.93,-775.96C878.79,-775.96 916.95,-742.71 1075.81,-742.71"/>
<path fill="none" stroke="#ffffff" stroke-width="2" d="M719.93,-777.96C880.1,-777.47 918.27,-744.22 1075.81,-744.71"/>
<path fill="none" stroke="#000000" stroke-width="2" d="M719.93,-779.96C881.42,-778.98 919.58,-745.73 1075.81,-746.71"/>
</g>
<!-- GND_A1&#45;&#45;DRV_A -->
<g id="edge12" class="edge">
<title>GND_A1:e&#45;&#45;DRV_A:w</title>
<path fill="none" stroke="#000000" stroke-width="2" d="M1601.93,-999.96C1670.18,-1003.02 1681.41,-956.52 1757.43,-953.46"/>
<path fill="none" stroke="#000000" stroke-width="2" d="M1601.93,-1001.96C1672.13,-1003.49 1683.36,-956.99 1757.43,-955.46"/>
<path fill="none" stroke="#000000" stroke-width="2" d="M1601.93,-1003.96C1674.07,-1003.96 1685.3,-957.46 1757.43,-957.46"/>
<path fill="none" stroke="#000000" stroke-width="2" d="M1601.93,-1005.96C1676.01,-1004.43 1687.24,-957.93 1757.43,-959.46"/>
<path fill="none" stroke="#000000" stroke-width="2" d="M1601.93,-1007.96C1677.96,-1004.9 1689.19,-958.4 1757.43,-961.46"/>
</g>
<!-- GND_A2&#45;&#45;DRV_A -->
<g id="edge14" class="edge">
<title>GND_A2:e&#45;&#45;DRV_A:w</title>
<path fill="none" stroke="#000000" stroke-width="2" d="M1600.43,-834.96C1681.01,-838.75 1684.85,-909.75 1757.43,-905.96"/>
<path fill="none" stroke="#000000" stroke-width="2" d="M1600.43,-836.96C1679.01,-838.85 1682.85,-909.85 1757.43,-907.96"/>
<path fill="none" stroke="#000000" stroke-width="2" d="M1600.43,-838.96C1677.02,-838.96 1680.85,-909.96 1757.43,-909.96"/>
<path fill="none" stroke="#000000" stroke-width="2" d="M1600.43,-840.96C1675.02,-839.07 1678.86,-910.07 1757.43,-911.96"/>
<path fill="none" stroke="#000000" stroke-width="2" d="M1600.43,-842.96C1673.02,-839.18 1676.86,-910.18 1757.43,-913.96"/>
</g>
<!-- GND_B1&#45;&#45;DRV_B -->
<g id="edge16" class="edge">
<title>GND_B1:e&#45;&#45;DRV_B:w</title>
<path fill="none" stroke="#000000" stroke-width="2" d="M1601.93,-669.96C1667.3,-669.98 1683.72,-668.48 1749.81,-668.46"/>
<path fill="none" stroke="#000000" stroke-width="2" d="M1601.93,-671.96C1667.48,-671.97 1683.9,-670.47 1749.81,-670.46"/>
<path fill="none" stroke="#000000" stroke-width="2" d="M1601.93,-673.96C1667.66,-673.96 1684.08,-672.46 1749.81,-672.46"/>
<path fill="none" stroke="#000000" stroke-width="2" d="M1601.93,-675.96C1667.84,-675.95 1684.27,-674.45 1749.81,-674.46"/>
<path fill="none" stroke="#000000" stroke-width="2" d="M1601.93,-677.96C1668.02,-677.95 1684.45,-676.45 1749.81,-676.46"/>
</g>
<!-- GND_B2&#45;&#45;DRV_B -->
<g id="edge18" class="edge">
<title>GND_B2:e&#45;&#45;DRV_B:w</title>
<path fill="none" stroke="#000000" stroke-width="2" d="M1600.43,-504.96C1688.44,-509.6 1669.7,-625.6 1749.81,-620.96"/>
<path fill="none" stroke="#000000" stroke-width="2" d="M1600.43,-506.96C1686.47,-509.28 1667.73,-625.28 1749.81,-622.96"/>
<path fill="none" stroke="#000000" stroke-width="2" d="M1600.43,-508.96C1684.49,-508.96 1665.75,-624.96 1749.81,-624.96"/>
<path fill="none" stroke="#000000" stroke-width="2" d="M1600.43,-510.96C1682.52,-508.64 1663.78,-624.64 1749.81,-626.96"/>
<path fill="none" stroke="#000000" stroke-width="2" d="M1600.43,-512.96C1680.54,-508.32 1661.8,-624.32 1749.81,-628.96"/>
</g>
<!-- SGND&#45;&#45;EXT5V -->
<g id="edge20" class="edge">
<title>SGND:e&#45;&#45;EXT5V:w</title>
<path fill="none" stroke="#000000" stroke-width="2" d="M1923.93,-419.96C2172.1,-421.18 2230.15,-481.18 2472.56,-479.96"/>
<path fill="none" stroke="#000000" stroke-width="2" d="M1923.93,-421.96C2170.66,-422.57 2228.71,-482.57 2472.56,-481.96"/>
<path fill="none" stroke="#000000" stroke-width="2" d="M1923.93,-423.96C2169.22,-423.96 2227.27,-483.96 2472.56,-483.96"/>
<path fill="none" stroke="#000000" stroke-width="2" d="M1923.93,-425.96C2167.78,-425.35 2225.84,-485.35 2472.56,-485.96"/>
<path fill="none" stroke="#000000" stroke-width="2" d="M1923.93,-427.96C2166.35,-426.74 2224.4,-486.74 2472.56,-487.96"/>
</g>
<!-- PWR&#45;&#45;ESTOP -->
<g id="edge22" class="edge">
<title>PWR:e&#45;&#45;ESTOP:w</title>
<path fill="none" stroke="#000000" stroke-width="2" d="M3040.06,-407.96C3108.69,-412.03 3107.43,-334.78 3184.06,-330.71"/>
<path fill="none" stroke="#ff0000" stroke-width="2" d="M3040.06,-409.96C3110.69,-411.99 3109.43,-334.74 3184.06,-332.71"/>
<path fill="none" stroke="#ff0000" stroke-width="2" d="M3040.06,-411.96C3112.69,-411.96 3111.43,-334.71 3184.06,-334.71"/>
<path fill="none" stroke="#ff0000" stroke-width="2" d="M3040.06,-413.96C3114.69,-411.93 3113.43,-334.68 3184.06,-336.71"/>
<path fill="none" stroke="#000000" stroke-width="2" d="M3040.06,-415.96C3116.69,-411.9 3115.43,-334.65 3184.06,-338.71"/>
</g>
<!-- ES&#45;&#45;MC508_STEP -->
<g id="edge24" class="edge">
<title>ES:e&#45;&#45;MC508_STEP:w</title>
<path fill="none" stroke="#000000" stroke-width="2" d="M3814.81,-228.96C3832.5,-233.97 3824.13,-201.69 3810.8,-187.1 3549.79,116.82 3321.22,-47.96 2914.31,-48.71 1113.56,-48.71 1113.56,-48.71 1113.56,-48.71 768.31,-46.69 690.93,-183.01 412.74,-395.89 204.46,-554.82 116.23,-592.21 24.29,-833.4 10.81,-868.23 -13.82,-916.89 19.56,-911.09"/>
<path fill="none" stroke="#0066ff" stroke-width="2" d="M3814.81,-230.96C3834.43,-233.46 3826.07,-201.19 3812.3,-185.78 3548.62,118.44 3320.05,-46.33 2914.31,-46.71 1113.56,-46.71 1113.56,-46.71 1113.56,-46.71 766.57,-45.7 689.19,-182.02 411.52,-394.3 203.68,-552.98 115.45,-590.37 22.43,-832.68 9.02,-867.33 -15.6,-915.99 19.56,-913.09"/>
<path fill="none" stroke="#0066ff" stroke-width="2" d="M3814.81,-232.96C3836.37,-232.96 3828,-200.69 3813.81,-184.46 3547.45,120.06 3318.88,-44.71 2914.31,-44.71 1113.56,-44.71 1113.56,-44.71 1113.56,-44.71 764.83,-44.71 687.45,-181.03 410.31,-392.71 202.9,-551.13 114.67,-588.53 20.56,-831.96 7.24,-866.42 -17.39,-915.09 19.56,-915.09"/>
<path fill="none" stroke="#0066ff" stroke-width="2" d="M3814.81,-234.96C3838.31,-232.46 3829.94,-200.19 3815.32,-183.15 3546.28,121.68 3317.71,-43.09 2914.31,-42.71 1113.56,-42.71 1113.56,-42.71 1113.56,-42.71 763.09,-43.72 685.71,-180.05 409.1,-391.12 202.12,-549.29 113.89,-586.69 18.69,-831.24 5.45,-865.52 -19.17,-914.18 19.56,-917.09"/>
<path fill="none" stroke="#000000" stroke-width="2" d="M3814.81,-236.96C3840.24,-231.96 3831.88,-199.69 3816.82,-181.83 3545.11,123.31 3316.54,-41.47 2914.31,-40.71 1113.56,-40.71 1113.56,-40.71 1113.56,-40.71 761.35,-42.74 683.97,-179.06 407.88,-389.53 201.34,-547.45 113.11,-584.84 16.83,-830.52 3.67,-864.62 -20.96,-913.28 19.56,-919.09"/>
</g>
<!-- WDOG_SCSI&#45;&#45;TIE_WDOG -->
<g id="edge26" class="edge">
<title>WDOG_SCSI:e&#45;&#45;TIE_WDOG:w</title>
<path fill="none" stroke="#000000" stroke-width="2" d="M720.68,-448.96C882.47,-452.79 889.15,-295.54 1058.93,-291.71"/>
<path fill="none" stroke="#8000ff" stroke-width="2" d="M720.68,-450.96C884.47,-452.88 891.15,-295.63 1058.93,-293.71"/>
<path fill="none" stroke="#8000ff" stroke-width="2" d="M720.68,-452.96C886.47,-452.96 893.15,-295.71 1058.93,-295.71"/>
<path fill="none" stroke="#8000ff" stroke-width="2" d="M720.68,-454.96C888.47,-453.05 895.15,-295.8 1058.93,-297.71"/>
<path fill="none" stroke="#000000" stroke-width="2" d="M720.68,-456.96C890.47,-453.13 897.15,-295.88 1058.93,-299.71"/>
</g>
<!-- WDA&#45;&#45;DRV_A -->
<g id="edge28" class="edge">
<title>WDA:e&#45;&#45;DRV_A:w</title>
<path fill="none" stroke="#000000" stroke-width="2" d="M1605.81,-290.96C1880.43,-297.17 1489.49,-888.42 1757.43,-882.21"/>
<path fill="none" stroke="#ff8000" stroke-width="2" d="M1605.81,-292.96C1878.76,-296.07 1487.82,-887.32 1757.43,-884.21"/>
<path fill="none" stroke="#ff8000" stroke-width="2" d="M1605.81,-294.96C1877.09,-294.96 1486.15,-886.21 1757.43,-886.21"/>
<path fill="none" stroke="#ff8000" stroke-width="2" d="M1605.81,-296.96C1875.42,-293.86 1484.49,-885.11 1757.43,-888.21"/>
<path fill="none" stroke="#000000" stroke-width="2" d="M1605.81,-298.96C1873.75,-292.76 1482.82,-884.01 1757.43,-890.21"/>
</g>
<!-- WDB&#45;&#45;DRV_B -->
<g id="edge30" class="edge">
<title>WDB:e&#45;&#45;DRV_B:w</title>
<path fill="none" stroke="#000000" stroke-width="2" d="M1605.81,-125.96C1828.21,-132.08 1534.2,-603.33 1749.81,-597.21"/>
<path fill="none" stroke="#ff8000" stroke-width="2" d="M1605.81,-127.96C1826.51,-131.02 1532.5,-602.27 1749.81,-599.21"/>
<path fill="none" stroke="#ff8000" stroke-width="2" d="M1605.81,-129.96C1824.81,-129.96 1530.81,-601.21 1749.81,-601.21"/>
<path fill="none" stroke="#ff8000" stroke-width="2" d="M1605.81,-131.96C1823.12,-128.9 1529.11,-600.15 1749.81,-603.21"/>
<path fill="none" stroke="#000000" stroke-width="2" d="M1605.81,-133.96C1821.42,-127.85 1527.41,-599.1 1749.81,-605.21"/>
</g>
<!-- RA&#45;&#45;EXT5V -->
<g id="edge32" class="edge">
<title>RA:e&#45;&#45;EXT5V:w</title>
<path fill="none" stroke="#000000" stroke-width="2" d="M2328.56,-773.96C2470.48,-779.75 2323.48,-485.75 2472.56,-479.96"/>
<path fill="none" stroke="#000000" stroke-width="2" d="M2328.56,-775.96C2472.27,-778.86 2325.27,-484.86 2472.56,-481.96"/>
<path fill="none" stroke="#000000" stroke-width="2" d="M2328.56,-777.96C2474.06,-777.96 2327.06,-483.96 2472.56,-483.96"/>
<path fill="none" stroke="#000000" stroke-width="2" d="M2328.56,-779.96C2475.85,-777.07 2328.85,-483.07 2472.56,-485.96"/>
<path fill="none" stroke="#000000" stroke-width="2" d="M2328.56,-781.96C2477.64,-776.17 2330.64,-482.17 2472.56,-487.96"/>
</g>
<!-- RB&#45;&#45;EXT5V -->
<g id="edge34" class="edge">
<title>RB:e&#45;&#45;EXT5V:w</title>
<path fill="none" stroke="#000000" stroke-width="2" d="M2328.56,-555.96C2396.93,-560 2396.19,-484 2472.56,-479.96"/>
<path fill="none" stroke="#000000" stroke-width="2" d="M2328.56,-557.96C2398.93,-559.98 2398.19,-483.98 2472.56,-481.96"/>
<path fill="none" stroke="#000000" stroke-width="2" d="M2328.56,-559.96C2400.93,-559.96 2400.19,-483.96 2472.56,-483.96"/>
<path fill="none" stroke="#000000" stroke-width="2" d="M2328.56,-561.96C2402.93,-559.94 2402.19,-483.94 2472.56,-485.96"/>
<path fill="none" stroke="#000000" stroke-width="2" d="M2328.56,-563.96C2404.93,-559.92 2404.19,-483.92 2472.56,-487.96"/>
</g>
</g>
</svg>
