<?xml version="1.0" encoding="UTF-8" standalone="no"?>
<!DOCTYPE svg PUBLIC "-//W3C//DTD SVG 1.1//EN"
 "http://www.w3.org/Graphics/SVG/1.1/DTD/svg11.dtd">
<!-- Generated by graphviz version 15.0.0 (20260523.1842)
 -->
<!-- Pages: 1 -->
<svg width="3715pt" height="831pt"
 viewBox="0.00 0.00 3715.00 831.00" xmlns="http://www.w3.org/2000/svg" xmlns:xlink="http://www.w3.org/1999/xlink">
<g id="graph0" class="graph" transform="scale(1 1) rotate(0) translate(4 826.7)">
<polygon fill="#ffffff" stroke="none" points="-4,4 -4,-826.7 3711.35,-826.7 3711.35,4 -4,4"/>
<!-- MC508_STEP -->
<g id="node1" class="node">
<title>MC508_STEP</title>
<polygon fill="#ffffff" stroke="black" points="319.11,-586.45 24.61,-586.45 24.61,-396.45 319.11,-396.45 319.11,-586.45"/>
<polygon fill="none" stroke="black" points="24.61,-562.7 24.61,-586.45 319.11,-586.45 319.11,-562.7 24.61,-562.7"/>
<text xml:space="preserve" text-anchor="start" x="128.36" y="-569.7" font-family="arial" font-size="14.00">MC508_STEP</text>
<polygon fill="none" stroke="black" points="24.61,-538.95 24.61,-562.7 182.36,-562.7 182.36,-538.95 24.61,-538.95"/>
<text xml:space="preserve" text-anchor="start" x="77.98" y="-545.95" font-family="arial" font-size="14.00">MDR&#45;20</text>
<polygon fill="none" stroke="black" points="182.36,-538.95 182.36,-562.7 319.11,-562.7 319.11,-538.95 182.36,-538.95"/>
<text xml:space="preserve" text-anchor="start" x="235.73" y="-545.95" font-family="arial" font-size="14.00">5&#45;pin</text>
<polygon fill="none" stroke="black" points="24.61,-515.2 24.61,-538.95 109.77,-538.95 109.77,-515.2 24.61,-515.2"/>
<text xml:space="preserve" text-anchor="start" x="63.44" y="-522.2" font-family="arial" font-size="14.00">1</text>
<polygon fill="none" stroke="black" points="109.77,-515.2 109.77,-538.95 233.94,-538.95 233.94,-515.2 109.77,-515.2"/>
<text xml:space="preserve" text-anchor="start" x="150.86" y="-522.2" font-family="arial" font-size="14.00">Pulse+</text>
<polygon fill="none" stroke="black" points="233.94,-515.2 233.94,-538.95 319.11,-538.95 319.11,-515.2 233.94,-515.2"/>
<text xml:space="preserve" text-anchor="start" x="272.77" y="-522.2" font-family="arial" font-size="14.00">1</text>
<polygon fill="none" stroke="black" points="24.61,-491.45 24.61,-515.2 109.77,-515.2 109.77,-491.45 24.61,-491.45"/>
<text xml:space="preserve" text-anchor="start" x="63.44" y="-498.45" font-family="arial" font-size="14.00">3</text>
<polygon fill="none" stroke="black" points="109.77,-491.45 109.77,-515.2 233.94,-515.2 233.94,-491.45 109.77,-491.45"/>
<text xml:space="preserve" text-anchor="start" x="159.11" y="-498.45" font-family="arial" font-size="14.00">Dir+</text>
<polygon fill="none" stroke="black" points="233.94,-491.45 233.94,-515.2 319.11,-515.2 319.11,-491.45 233.94,-491.45"/>
<text xml:space="preserve" text-anchor="start" x="272.77" y="-498.45" font-family="arial" font-size="14.00">3</text>
<polygon fill="none" stroke="black" points="24.61,-467.7 24.61,-491.45 109.77,-491.45 109.77,-467.7 24.61,-467.7"/>
<text xml:space="preserve" text-anchor="start" x="63.44" y="-474.7" font-family="arial" font-size="14.00">7</text>
<polygon fill="none" stroke="black" points="109.77,-467.7 109.77,-491.45 233.94,-491.45 233.94,-467.7 109.77,-467.7"/>
<text xml:space="preserve" text-anchor="start" x="144.86" y="-474.7" font-family="arial" font-size="14.00">WDOG+</text>
<polygon fill="none" stroke="black" points="233.94,-467.7 233.94,-491.45 319.11,-491.45 319.11,-467.7 233.94,-467.7"/>
<text xml:space="preserve" text-anchor="start" x="272.77" y="-474.7" font-family="arial" font-size="14.00">7</text>
<polygon fill="none" stroke="black" points="24.61,-443.95 24.61,-467.7 109.77,-467.7 109.77,-443.95 24.61,-443.95"/>
<text xml:space="preserve" text-anchor="start" x="63.44" y="-450.95" font-family="arial" font-size="14.00">8</text>
<polygon fill="none" stroke="black" points="109.77,-443.95 109.77,-467.7 233.94,-467.7 233.94,-443.95 109.77,-443.95"/>
<text xml:space="preserve" text-anchor="start" x="146.73" y="-450.95" font-family="arial" font-size="14.00">WDOG&#45;</text>
<polygon fill="none" stroke="black" points="233.94,-443.95 233.94,-467.7 319.11,-467.7 319.11,-443.95 233.94,-443.95"/>
<text xml:space="preserve" text-anchor="start" x="272.77" y="-450.95" font-family="arial" font-size="14.00">8</text>
<polygon fill="none" stroke="black" points="24.61,-420.2 24.61,-443.95 109.77,-443.95 109.77,-420.2 24.61,-420.2"/>
<text xml:space="preserve" text-anchor="start" x="59.69" y="-427.2" font-family="arial" font-size="14.00">15</text>
<polygon fill="none" stroke="black" points="109.77,-420.2 109.77,-443.95 233.94,-443.95 233.94,-420.2 109.77,-420.2"/>
<text xml:space="preserve" text-anchor="start" x="163.61" y="-427.2" font-family="arial" font-size="14.00">0V</text>
<polygon fill="none" stroke="black" points="233.94,-420.2 233.94,-443.95 319.11,-443.95 319.11,-420.2 233.94,-420.2"/>
<text xml:space="preserve" text-anchor="start" x="269.02" y="-427.2" font-family="arial" font-size="14.00">15</text>
<polygon fill="none" stroke="black" points="24.61,-396.45 24.61,-420.2 319.11,-420.2 319.11,-396.45 24.61,-396.45"/>
<text xml:space="preserve" text-anchor="start" x="28.61" y="-403.45" font-family="arial" font-size="14.00">MC508 Stepper Port (ATYPE 43 primary, P849)</text>
</g>
<!-- STEP_PUL -->
<g id="node6" class="node">
<title>STEP_PUL</title>
<polygon fill="#ffffff" stroke="black" points="1210.11,-822.7 913.11,-822.7 913.11,-682.2 1210.11,-682.2 1210.11,-822.7"/>
<polygon fill="none" stroke="black" points="913.11,-798.95 913.11,-822.7 1210.11,-822.7 1210.11,-798.95 913.11,-798.95"/>
<text xml:space="preserve" text-anchor="start" x="1027.11" y="-805.95" font-family="arial" font-size="14.00">STEP_PUL</text>
<polygon fill="none" stroke="black" points="913.11,-775.2 913.11,-798.95 1210.11,-798.95 1210.11,-775.2 913.11,-775.2"/>
<text xml:space="preserve" text-anchor="start" x="1054.48" y="-782.2" font-family="arial" font-size="14.00">1x</text>
<text xml:space="preserve" text-anchor="start" x="985.23" y="-760.45" font-family="arial" font-size="14.00"> </text>
<text xml:space="preserve" text-anchor="start" x="915.11" y="-740.7" font-family="arial" font-size="14.00">MC508_STEP:1:Pulse+</text>
<text xml:space="preserve" text-anchor="start" x="1063.11" y="-740.7" font-family="arial" font-size="14.00"> &#160;&#160;&#160;&#160;1:BK &#160;&#160;&#160;</text>
<text xml:space="preserve" text-anchor="start" x="1130.11" y="-740.7" font-family="arial" font-size="14.00">DRV:1:PUL+</text>
<polygon fill="#000000" stroke="none" points="913.11,-733.7 913.11,-735.7 1210.11,-735.7 1210.11,-733.7 913.11,-733.7"/>
<polygon fill="#000000" stroke="none" points="913.11,-731.7 913.11,-733.7 1210.11,-733.7 1210.11,-731.7 913.11,-731.7"/>
<polygon fill="#000000" stroke="none" points="913.11,-729.7 913.11,-731.7 1210.11,-731.7 1210.11,-729.7 913.11,-729.7"/>
<polygon fill="#000000" stroke="none" points="913.11,-727.7 913.11,-729.7 1210.11,-729.7 1210.11,-727.7 913.11,-727.7"/>
<polygon fill="#000000" stroke="none" points="913.11,-725.7 913.11,-727.7 1210.11,-727.7 1210.11,-725.7 913.11,-725.7"/>
<text xml:space="preserve" text-anchor="start" x="985.23" y="-710.95" font-family="arial" font-size="14.00"> </text>
<polygon fill="none" stroke="black" points="913.11,-682.2 913.11,-705.95 1210.11,-705.95 1210.11,-682.2 913.11,-682.2"/>
<text xml:space="preserve" text-anchor="start" x="1001.98" y="-689.2" font-family="arial" font-size="14.00">Pulse+ (SCSI pin 1)</text>
</g>
<!-- MC508_STEP&#45;&#45;STEP_PUL -->
<g id="edge1" class="edge">
<title>MC508_STEP:e&#45;&#45;STEP_PUL:w</title>
<path fill="none" stroke="#000000" stroke-width="2" d="M319.11,-523.08C460.82,-523.72 775.74,-727.34 913.11,-726.7"/>
<path fill="none" stroke="#000000" stroke-width="2" d="M319.11,-525.08C459.73,-525.4 774.65,-729.02 913.11,-728.7"/>
<path fill="none" stroke="#000000" stroke-width="2" d="M319.11,-527.08C458.65,-527.08 773.57,-730.7 913.11,-730.7"/>
<path fill="none" stroke="#000000" stroke-width="2" d="M319.11,-529.08C457.56,-528.76 772.48,-732.38 913.11,-732.7"/>
<path fill="none" stroke="#000000" stroke-width="2" d="M319.11,-531.08C456.48,-530.44 771.39,-734.06 913.11,-734.7"/>
</g>
<!-- STEP_DIR -->
<g id="node7" class="node">
<title>STEP_DIR</title>
<polygon fill="#ffffff" stroke="black" points="1201.11,-657.7 922.11,-657.7 922.11,-517.2 1201.11,-517.2 1201.11,-657.7"/>
<polygon fill="none" stroke="black" points="922.11,-633.95 922.11,-657.7 1201.11,-657.7 1201.11,-633.95 922.11,-633.95"/>
<text xml:space="preserve" text-anchor="start" x="1028.61" y="-640.95" font-family="arial" font-size="14.00">STEP_DIR</text>
<polygon fill="none" stroke="black" points="922.11,-610.2 922.11,-633.95 1201.11,-633.95 1201.11,-610.2 922.11,-610.2"/>
<text xml:space="preserve" text-anchor="start" x="1054.48" y="-617.2" font-family="arial" font-size="14.00">1x</text>
<text xml:space="preserve" text-anchor="start" x="985.98" y="-595.45" font-family="arial" font-size="14.00"> </text>
<text xml:space="preserve" text-anchor="start" x="924.11" y="-575.7" font-family="arial" font-size="14.00">MC508_STEP:3:Dir+</text>
<text xml:space="preserve" text-anchor="start" x="1055.61" y="-575.7" font-family="arial" font-size="14.00"> &#160;&#160;&#160;&#160;1:RD &#160;&#160;&#160;</text>
<text xml:space="preserve" text-anchor="start" x="1124.11" y="-575.7" font-family="arial" font-size="14.00">DRV:3:DIR+</text>
<polygon fill="#000000" stroke="none" points="922.11,-568.7 922.11,-570.7 1201.11,-570.7 1201.11,-568.7 922.11,-568.7"/>
<polygon fill="#ff0000" stroke="none" points="922.11,-566.7 922.11,-568.7 1201.11,-568.7 1201.11,-566.7 922.11,-566.7"/>
<polygon fill="#ff0000" stroke="none" points="922.11,-564.7 922.11,-566.7 1201.11,-566.7 1201.11,-564.7 922.11,-564.7"/>
<polygon fill="#ff0000" stroke="none" points="922.11,-562.7 922.11,-564.7 1201.11,-564.7 1201.11,-562.7 922.11,-562.7"/>
<polygon fill="#000000" stroke="none" points="922.11,-560.7 922.11,-562.7 1201.11,-562.7 1201.11,-560.7 922.11,-560.7"/>
<text xml:space="preserve" text-anchor="start" x="985.98" y="-545.95" font-family="arial" font-size="14.00"> </text>
<polygon fill="none" stroke="black" points="922.11,-517.2 922.11,-540.95 1201.11,-540.95 1201.11,-517.2 922.11,-517.2"/>
<text xml:space="preserve" text-anchor="start" x="1010.23" y="-524.2" font-family="arial" font-size="14.00">Dir+ (SCSI pin 3)</text>
</g>
<!-- MC508_STEP&#45;&#45;STEP_DIR -->
<g id="edge3" class="edge">
<title>MC508_STEP:e&#45;&#45;STEP_DIR:w</title>
<path fill="none" stroke="#000000" stroke-width="2" d="M319.11,-499.33C590.89,-500.46 654.91,-562.84 921.11,-561.7"/>
<path fill="none" stroke="#ff0000" stroke-width="2" d="M319.11,-501.33C589.49,-501.89 653.51,-564.27 921.11,-563.7"/>
<path fill="none" stroke="#ff0000" stroke-width="2" d="M319.11,-503.33C588.09,-503.33 652.12,-565.7 921.11,-565.7"/>
<path fill="none" stroke="#ff0000" stroke-width="2" d="M319.11,-505.33C586.7,-504.76 650.72,-567.13 921.11,-567.7"/>
<path fill="none" stroke="#000000" stroke-width="2" d="M319.11,-507.33C585.3,-506.19 649.33,-568.57 921.11,-569.7"/>
</g>
<!-- GND_SCSI -->
<g id="node8" class="node">
<title>GND_SCSI</title>
<polygon fill="#ffffff" stroke="black" points="728.61,-393.7 503.61,-393.7 503.61,-253.2 728.61,-253.2 728.61,-393.7"/>
<polygon fill="none" stroke="black" points="503.61,-369.95 503.61,-393.7 728.61,-393.7 728.61,-369.95 503.61,-369.95"/>
<text xml:space="preserve" text-anchor="start" x="581.23" y="-376.95" font-family="arial" font-size="14.00">GND_SCSI</text>
<polygon fill="none" stroke="black" points="503.61,-346.2 503.61,-369.95 728.61,-369.95 728.61,-346.2 503.61,-346.2"/>
<text xml:space="preserve" text-anchor="start" x="608.98" y="-353.2" font-family="arial" font-size="14.00">1x</text>
<text xml:space="preserve" text-anchor="start" x="566.73" y="-331.45" font-family="arial" font-size="14.00"> </text>
<text xml:space="preserve" text-anchor="start" x="505.61" y="-311.7" font-family="arial" font-size="14.00">MC508_STEP:15:0V</text>
<text xml:space="preserve" text-anchor="start" x="635.61" y="-311.7" font-family="arial" font-size="14.00"> &#160;&#160;&#160;&#160;1:WHBN &#160;&#160;&#160;</text>
<polygon fill="#000000" stroke="none" points="503.61,-304.7 503.61,-306.7 728.61,-306.7 728.61,-304.7 503.61,-304.7"/>
<polygon fill="#ffffff" stroke="none" points="503.61,-302.7 503.61,-304.7 728.61,-304.7 728.61,-302.7 503.61,-302.7"/>
<polygon fill="#895956" stroke="none" points="503.61,-300.7 503.61,-302.7 728.61,-302.7 728.61,-300.7 503.61,-300.7"/>
<polygon fill="#ffffff" stroke="none" points="503.61,-298.7 503.61,-300.7 728.61,-300.7 728.61,-298.7 503.61,-298.7"/>
<polygon fill="#000000" stroke="none" points="503.61,-296.7 503.61,-298.7 728.61,-298.7 728.61,-296.7 503.61,-296.7"/>
<text xml:space="preserve" text-anchor="start" x="566.73" y="-281.95" font-family="arial" font-size="14.00"> </text>
<polygon fill="none" stroke="black" points="503.61,-253.2 503.61,-276.95 728.61,-276.95 728.61,-253.2 503.61,-253.2"/>
<text xml:space="preserve" text-anchor="start" x="551.23" y="-260.2" font-family="arial" font-size="14.00">0V SCSI wire (pin 15)</text>
</g>
<!-- MC508_STEP&#45;&#45;GND_SCSI -->
<g id="edge5" class="edge">
<title>MC508_STEP:e&#45;&#45;GND_SCSI:w</title>
<path fill="none" stroke="#000000" stroke-width="2" d="M319.11,-428.08C415.18,-432.58 398.59,-302.21 502.61,-297.7"/>
<path fill="none" stroke="#ffffff" stroke-width="2" d="M319.11,-430.08C417.17,-432.33 400.58,-301.95 502.61,-299.7"/>
<path fill="none" stroke="#895956" stroke-width="2" d="M319.11,-432.08C419.15,-432.08 402.56,-301.7 502.61,-301.7"/>
<path fill="none" stroke="#ffffff" stroke-width="2" d="M319.11,-434.08C421.14,-431.82 404.55,-301.45 502.61,-303.7"/>
<path fill="none" stroke="#000000" stroke-width="2" d="M319.11,-436.08C423.12,-431.57 406.53,-301.2 502.61,-305.7"/>
</g>
<!-- WDOG_SCSI -->
<g id="node13" class="node">
<title>WDOG_SCSI</title>
<polygon fill="#ffffff" stroke="black" points="769.11,-185.7 463.11,-185.7 463.11,-45.2 769.11,-45.2 769.11,-185.7"/>
<polygon fill="none" stroke="black" points="463.11,-161.95 463.11,-185.7 769.11,-185.7 769.11,-161.95 463.11,-161.95"/>
<text xml:space="preserve" text-anchor="start" x="573.73" y="-168.95" font-family="arial" font-size="14.00">WDOG_SCSI</text>
<polygon fill="none" stroke="black" points="463.11,-138.2 463.11,-161.95 769.11,-161.95 769.11,-138.2 463.11,-138.2"/>
<text xml:space="preserve" text-anchor="start" x="608.98" y="-145.2" font-family="arial" font-size="14.00">1x</text>
<text xml:space="preserve" text-anchor="start" x="539.36" y="-123.45" font-family="arial" font-size="14.00"> </text>
<text xml:space="preserve" text-anchor="start" x="465.11" y="-103.7" font-family="arial" font-size="14.00">MC508_STEP:8:WDOG&#45;</text>
<text xml:space="preserve" text-anchor="start" x="621.36" y="-103.7" font-family="arial" font-size="14.00"> &#160;&#160;&#160;&#160;1:VT &#160;&#160;&#160;</text>
<text xml:space="preserve" text-anchor="start" x="687.61" y="-103.7" font-family="arial" font-size="14.00">DRV:5:ENA+</text>
<polygon fill="#000000" stroke="none" points="463.11,-96.7 463.11,-98.7 769.11,-98.7 769.11,-96.7 463.11,-96.7"/>
<polygon fill="#8000ff" stroke="none" points="463.11,-94.7 463.11,-96.7 769.11,-96.7 769.11,-94.7 463.11,-94.7"/>
<polygon fill="#8000ff" stroke="none" points="463.11,-92.7 463.11,-94.7 769.11,-94.7 769.11,-92.7 463.11,-92.7"/>
<polygon fill="#8000ff" stroke="none" points="463.11,-90.7 463.11,-92.7 769.11,-92.7 769.11,-90.7 463.11,-90.7"/>
<polygon fill="#000000" stroke="none" points="463.11,-88.7 463.11,-90.7 769.11,-90.7 769.11,-88.7 463.11,-88.7"/>
<text xml:space="preserve" text-anchor="start" x="539.36" y="-73.95" font-family="arial" font-size="14.00"> </text>
<polygon fill="none" stroke="black" points="463.11,-45.2 463.11,-68.95 769.11,-68.95 769.11,-45.2 463.11,-45.2"/>
<text xml:space="preserve" text-anchor="start" x="490.86" y="-52.2" font-family="arial" font-size="14.00">WDOG&#45; SCSI wire (pin 8) to Driver ENA+</text>
</g>
<!-- MC508_STEP&#45;&#45;WDOG_SCSI -->
<g id="edge15" class="edge">
<title>MC508_STEP:e&#45;&#45;WDOG_SCSI:w</title>
<path fill="none" stroke="#000000" stroke-width="2" d="M319.11,-451.83C488.82,-457.78 286.41,-95.65 463.11,-89.7"/>
<path fill="none" stroke="#8000ff" stroke-width="2" d="M319.11,-453.83C490.56,-456.8 288.16,-94.68 463.11,-91.7"/>
<path fill="none" stroke="#8000ff" stroke-width="2" d="M319.11,-455.83C492.31,-455.83 289.9,-93.7 463.11,-93.7"/>
<path fill="none" stroke="#8000ff" stroke-width="2" d="M319.11,-457.83C494.06,-454.85 291.65,-92.73 463.11,-95.7"/>
<path fill="none" stroke="#000000" stroke-width="2" d="M319.11,-459.83C495.8,-453.88 293.4,-91.75 463.11,-97.7"/>
</g>
<!-- DRV -->
<g id="node2" class="node">
<title>DRV</title>
<polygon fill="#ffffff" stroke="black" points="1790.11,-371.33 1651.11,-371.33 1651.11,-157.58 1790.11,-157.58 1790.11,-371.33"/>
<polygon fill="none" stroke="black" points="1651.11,-347.58 1651.11,-371.33 1790.11,-371.33 1790.11,-347.58 1651.11,-347.58"/>
<text xml:space="preserve" text-anchor="start" x="1706.36" y="-354.58" font-family="arial" font-size="14.00">DRV</text>
<polygon fill="none" stroke="black" points="1651.11,-323.83 1651.11,-347.58 1752.11,-347.58 1752.11,-323.83 1651.11,-323.83"/>
<text xml:space="preserve" text-anchor="start" x="1655.11" y="-330.83" font-family="arial" font-size="14.00">Screw Terminal</text>
<polygon fill="none" stroke="black" points="1752.11,-323.83 1752.11,-347.58 1790.11,-347.58 1790.11,-323.83 1752.11,-323.83"/>
<text xml:space="preserve" text-anchor="start" x="1756.11" y="-330.83" font-family="arial" font-size="14.00">6&#45;pin</text>
<polygon fill="none" stroke="black" points="1651.11,-300.08 1651.11,-323.83 1687.94,-323.83 1687.94,-300.08 1651.11,-300.08"/>
<text xml:space="preserve" text-anchor="start" x="1665.77" y="-307.08" font-family="arial" font-size="14.00">1</text>
<polygon fill="none" stroke="black" points="1687.94,-300.08 1687.94,-323.83 1753.27,-323.83 1753.27,-300.08 1687.94,-300.08"/>
<text xml:space="preserve" text-anchor="start" x="1703.36" y="-307.08" font-family="arial" font-size="14.00">PUL+</text>
<polygon fill="none" stroke="black" points="1753.27,-300.08 1753.27,-323.83 1790.11,-323.83 1790.11,-300.08 1753.27,-300.08"/>
<text xml:space="preserve" text-anchor="start" x="1767.94" y="-307.08" font-family="arial" font-size="14.00">1</text>
<polygon fill="none" stroke="black" points="1651.11,-276.33 1651.11,-300.08 1687.94,-300.08 1687.94,-276.33 1651.11,-276.33"/>
<text xml:space="preserve" text-anchor="start" x="1665.77" y="-283.33" font-family="arial" font-size="14.00">2</text>
<polygon fill="none" stroke="black" points="1687.94,-276.33 1687.94,-300.08 1753.27,-300.08 1753.27,-276.33 1687.94,-276.33"/>
<text xml:space="preserve" text-anchor="start" x="1705.23" y="-283.33" font-family="arial" font-size="14.00">PUL&#45;</text>
<polygon fill="none" stroke="black" points="1753.27,-276.33 1753.27,-300.08 1790.11,-300.08 1790.11,-276.33 1753.27,-276.33"/>
<text xml:space="preserve" text-anchor="start" x="1767.94" y="-283.33" font-family="arial" font-size="14.00">2</text>
<polygon fill="none" stroke="black" points="1651.11,-252.58 1651.11,-276.33 1687.94,-276.33 1687.94,-252.58 1651.11,-252.58"/>
<text xml:space="preserve" text-anchor="start" x="1665.77" y="-259.58" font-family="arial" font-size="14.00">3</text>
<polygon fill="none" stroke="black" points="1687.94,-252.58 1687.94,-276.33 1753.27,-276.33 1753.27,-252.58 1687.94,-252.58"/>
<text xml:space="preserve" text-anchor="start" x="1704.86" y="-259.58" font-family="arial" font-size="14.00">DIR+</text>
<polygon fill="none" stroke="black" points="1753.27,-252.58 1753.27,-276.33 1790.11,-276.33 1790.11,-252.58 1753.27,-252.58"/>
<text xml:space="preserve" text-anchor="start" x="1767.94" y="-259.58" font-family="arial" font-size="14.00">3</text>
<polygon fill="none" stroke="black" points="1651.11,-228.83 1651.11,-252.58 1687.94,-252.58 1687.94,-228.83 1651.11,-228.83"/>
<text xml:space="preserve" text-anchor="start" x="1665.77" y="-235.83" font-family="arial" font-size="14.00">4</text>
<polygon fill="none" stroke="black" points="1687.94,-228.83 1687.94,-252.58 1753.27,-252.58 1753.27,-228.83 1687.94,-228.83"/>
<text xml:space="preserve" text-anchor="start" x="1706.73" y="-235.83" font-family="arial" font-size="14.00">DIR&#45;</text>
<polygon fill="none" stroke="black" points="1753.27,-228.83 1753.27,-252.58 1790.11,-252.58 1790.11,-228.83 1753.27,-228.83"/>
<text xml:space="preserve" text-anchor="start" x="1767.94" y="-235.83" font-family="arial" font-size="14.00">4</text>
<polygon fill="none" stroke="black" points="1651.11,-205.08 1651.11,-228.83 1687.94,-228.83 1687.94,-205.08 1651.11,-205.08"/>
<text xml:space="preserve" text-anchor="start" x="1665.77" y="-212.08" font-family="arial" font-size="14.00">5</text>
<polygon fill="none" stroke="black" points="1687.94,-205.08 1687.94,-228.83 1753.27,-228.83 1753.27,-205.08 1687.94,-205.08"/>
<text xml:space="preserve" text-anchor="start" x="1702.61" y="-212.08" font-family="arial" font-size="14.00">ENA+</text>
<polygon fill="none" stroke="black" points="1753.27,-205.08 1753.27,-228.83 1790.11,-228.83 1790.11,-205.08 1753.27,-205.08"/>
<text xml:space="preserve" text-anchor="start" x="1767.94" y="-212.08" font-family="arial" font-size="14.00">5</text>
<polygon fill="none" stroke="black" points="1651.11,-181.33 1651.11,-205.08 1687.94,-205.08 1687.94,-181.33 1651.11,-181.33"/>
<text xml:space="preserve" text-anchor="start" x="1665.77" y="-188.33" font-family="arial" font-size="14.00">6</text>
<polygon fill="none" stroke="black" points="1687.94,-181.33 1687.94,-205.08 1753.27,-205.08 1753.27,-181.33 1687.94,-181.33"/>
<text xml:space="preserve" text-anchor="start" x="1704.48" y="-188.33" font-family="arial" font-size="14.00">ENA&#45;</text>
<polygon fill="none" stroke="black" points="1753.27,-181.33 1753.27,-205.08 1790.11,-205.08 1790.11,-181.33 1753.27,-181.33"/>
<text xml:space="preserve" text-anchor="start" x="1767.94" y="-188.33" font-family="arial" font-size="14.00">6</text>
<polygon fill="none" stroke="black" points="1651.11,-157.58 1651.11,-181.33 1790.11,-181.33 1790.11,-157.58 1651.11,-157.58"/>
<text xml:space="preserve" text-anchor="start" x="1675.23" y="-164.58" font-family="arial" font-size="14.00">KL&#45;4030 Driver</text>
</g>
<!-- R -->
<g id="node14" class="node">
<title>R</title>
<polygon fill="#ffffff" stroke="black" points="2173.36,-328.7 1934.11,-328.7 1934.11,-188.2 2173.36,-188.2 2173.36,-328.7"/>
<polygon fill="none" stroke="black" points="1934.11,-304.95 1934.11,-328.7 2173.36,-328.7 2173.36,-304.95 1934.11,-304.95"/>
<text xml:space="preserve" text-anchor="start" x="2048.86" y="-311.95" font-family="arial" font-size="14.00">R</text>
<polygon fill="none" stroke="black" points="1934.11,-281.2 1934.11,-304.95 2173.36,-304.95 2173.36,-281.2 1934.11,-281.2"/>
<text xml:space="preserve" text-anchor="start" x="2046.61" y="-288.2" font-family="arial" font-size="14.00">1x</text>
<text xml:space="preserve" text-anchor="start" x="1972.11" y="-266.45" font-family="arial" font-size="14.00"> </text>
<text xml:space="preserve" text-anchor="start" x="1936.11" y="-246.7" font-family="arial" font-size="14.00">DRV:6:ENA&#45;</text>
<text xml:space="preserve" text-anchor="start" x="2015.86" y="-246.7" font-family="arial" font-size="14.00"> &#160;&#160;&#160;&#160;1:BK &#160;&#160;&#160;</text>
<text xml:space="preserve" text-anchor="start" x="2082.86" y="-246.7" font-family="arial" font-size="14.00">EXT5V:2:GND</text>
<polygon fill="#000000" stroke="none" points="1934.11,-239.7 1934.11,-241.7 2173.36,-241.7 2173.36,-239.7 1934.11,-239.7"/>
<polygon fill="#000000" stroke="none" points="1934.11,-237.7 1934.11,-239.7 2173.36,-239.7 2173.36,-237.7 1934.11,-237.7"/>
<polygon fill="#000000" stroke="none" points="1934.11,-235.7 1934.11,-237.7 2173.36,-237.7 2173.36,-235.7 1934.11,-235.7"/>
<polygon fill="#000000" stroke="none" points="1934.11,-233.7 1934.11,-235.7 2173.36,-235.7 2173.36,-233.7 1934.11,-233.7"/>
<polygon fill="#000000" stroke="none" points="1934.11,-231.7 1934.11,-233.7 2173.36,-233.7 2173.36,-231.7 1934.11,-231.7"/>
<text xml:space="preserve" text-anchor="start" x="1972.11" y="-216.95" font-family="arial" font-size="14.00"> </text>
<polygon fill="none" stroke="black" points="1934.11,-188.2 1934.11,-211.95 2173.36,-211.95 2173.36,-188.2 1934.11,-188.2"/>
<text xml:space="preserve" text-anchor="start" x="1998.23" y="-195.2" font-family="arial" font-size="14.00">Driver ENA&#45; return</text>
</g>
<!-- DRV&#45;&#45;R -->
<g id="edge17" class="edge">
<title>DRV:e&#45;&#45;R:w</title>
<path fill="none" stroke="#000000" stroke-width="2" d="M1790.11,-189.2C1860.86,-192.28 1871.14,-235.78 1934.11,-232.7"/>
<path fill="none" stroke="#000000" stroke-width="2" d="M1790.11,-191.2C1858.91,-192.74 1869.2,-236.24 1934.11,-234.7"/>
<path fill="none" stroke="#000000" stroke-width="2" d="M1790.11,-193.2C1856.96,-193.2 1867.25,-236.7 1934.11,-236.7"/>
<path fill="none" stroke="#000000" stroke-width="2" d="M1790.11,-195.2C1855.02,-193.66 1865.3,-237.16 1934.11,-238.7"/>
<path fill="none" stroke="#000000" stroke-width="2" d="M1790.11,-197.2C1853.07,-194.12 1863.36,-237.62 1934.11,-240.7"/>
</g>
<!-- TIE_0V -->
<g id="node3" class="node">
<title>TIE_0V</title>
<polygon fill="#ffffff" stroke="black" points="1099.36,-301.2 1023.86,-301.2 1023.86,-253.7 1099.36,-253.7 1099.36,-301.2"/>
<polygon fill="none" stroke="black" points="1023.86,-277.45 1023.86,-301.2 1099.36,-301.2 1099.36,-277.45 1023.86,-277.45"/>
<text xml:space="preserve" text-anchor="start" x="1043.23" y="-284.45" font-family="arial" font-size="14.00">Splice</text>
<polygon fill="none" stroke="black" points="1023.86,-253.7 1023.86,-277.45 1099.36,-277.45 1099.36,-253.7 1023.86,-253.7"/>
<text xml:space="preserve" text-anchor="start" x="1027.86" y="-260.7" font-family="arial" font-size="14.00">0V tie point</text>
</g>
<!-- GND_1 -->
<g id="node9" class="node">
<title>GND_1</title>
<polygon fill="#ffffff" stroke="black" points="1507.11,-368.7 1354.11,-368.7 1354.11,-228.2 1507.11,-228.2 1507.11,-368.7"/>
<polygon fill="none" stroke="black" points="1354.11,-344.95 1354.11,-368.7 1507.11,-368.7 1507.11,-344.95 1354.11,-344.95"/>
<text xml:space="preserve" text-anchor="start" x="1407.73" y="-351.95" font-family="arial" font-size="14.00">GND_1</text>
<polygon fill="none" stroke="black" points="1354.11,-321.2 1354.11,-344.95 1507.11,-344.95 1507.11,-321.2 1354.11,-321.2"/>
<text xml:space="preserve" text-anchor="start" x="1423.48" y="-328.2" font-family="arial" font-size="14.00">1x</text>
<text xml:space="preserve" text-anchor="start" x="1356.11" y="-306.45" font-family="arial" font-size="14.00"> </text>
<text xml:space="preserve" text-anchor="start" x="1363.86" y="-286.7" font-family="arial" font-size="14.00"> &#160;&#160;&#160;&#160;1:BK &#160;&#160;&#160;</text>
<text xml:space="preserve" text-anchor="start" x="1430.86" y="-286.7" font-family="arial" font-size="14.00">DRV:2:PUL&#45;</text>
<polygon fill="#000000" stroke="none" points="1354.11,-279.7 1354.11,-281.7 1507.11,-281.7 1507.11,-279.7 1354.11,-279.7"/>
<polygon fill="#000000" stroke="none" points="1354.11,-277.7 1354.11,-279.7 1507.11,-279.7 1507.11,-277.7 1354.11,-277.7"/>
<polygon fill="#000000" stroke="none" points="1354.11,-275.7 1354.11,-277.7 1507.11,-277.7 1507.11,-275.7 1354.11,-275.7"/>
<polygon fill="#000000" stroke="none" points="1354.11,-273.7 1354.11,-275.7 1507.11,-275.7 1507.11,-273.7 1354.11,-273.7"/>
<polygon fill="#000000" stroke="none" points="1354.11,-271.7 1354.11,-273.7 1507.11,-273.7 1507.11,-271.7 1354.11,-271.7"/>
<text xml:space="preserve" text-anchor="start" x="1356.11" y="-256.95" font-family="arial" font-size="14.00"> </text>
<polygon fill="none" stroke="black" points="1354.11,-228.2 1354.11,-251.95 1507.11,-251.95 1507.11,-228.2 1354.11,-228.2"/>
<text xml:space="preserve" text-anchor="start" x="1372.48" y="-235.2" font-family="arial" font-size="14.00">Driver PUL&#45; ground</text>
</g>
<!-- TIE_0V&#45;&#45;GND_1 -->
<g id="edge7" class="edge">
<title>TIE_0V:e&#45;&#45;GND_1:w</title>
<path fill="none" stroke="#000000" stroke-width="2" d="M1100.36,-273.45C1213.03,-273.45 1241.22,-272.7 1354.11,-272.7"/>
<path fill="none" stroke="#000000" stroke-width="2" d="M1100.36,-275.45C1213.08,-275.45 1241.28,-274.7 1354.11,-274.7"/>
<path fill="none" stroke="#000000" stroke-width="2" d="M1100.36,-277.45C1213.14,-277.45 1241.33,-276.7 1354.11,-276.7"/>
<path fill="none" stroke="#000000" stroke-width="2" d="M1100.36,-279.45C1213.19,-279.45 1241.38,-278.7 1354.11,-278.7"/>
<path fill="none" stroke="#000000" stroke-width="2" d="M1100.36,-281.45C1213.24,-281.45 1241.43,-280.7 1354.11,-280.7"/>
</g>
<!-- GND_2 -->
<g id="node10" class="node">
<title>GND_2</title>
<polygon fill="#ffffff" stroke="black" points="1505.61,-203.7 1355.61,-203.7 1355.61,-63.2 1505.61,-63.2 1505.61,-203.7"/>
<polygon fill="none" stroke="black" points="1355.61,-179.95 1355.61,-203.7 1505.61,-203.7 1505.61,-179.95 1355.61,-179.95"/>
<text xml:space="preserve" text-anchor="start" x="1407.73" y="-186.95" font-family="arial" font-size="14.00">GND_2</text>
<polygon fill="none" stroke="black" points="1355.61,-156.2 1355.61,-179.95 1505.61,-179.95 1505.61,-156.2 1355.61,-156.2"/>
<text xml:space="preserve" text-anchor="start" x="1423.48" y="-163.2" font-family="arial" font-size="14.00">1x</text>
<text xml:space="preserve" text-anchor="start" x="1357.61" y="-141.45" font-family="arial" font-size="14.00"> </text>
<text xml:space="preserve" text-anchor="start" x="1365.36" y="-121.7" font-family="arial" font-size="14.00"> &#160;&#160;&#160;&#160;1:BK &#160;&#160;&#160;</text>
<text xml:space="preserve" text-anchor="start" x="1432.36" y="-121.7" font-family="arial" font-size="14.00">DRV:4:DIR&#45;</text>
<polygon fill="#000000" stroke="none" points="1355.61,-114.7 1355.61,-116.7 1505.61,-116.7 1505.61,-114.7 1355.61,-114.7"/>
<polygon fill="#000000" stroke="none" points="1355.61,-112.7 1355.61,-114.7 1505.61,-114.7 1505.61,-112.7 1355.61,-112.7"/>
<polygon fill="#000000" stroke="none" points="1355.61,-110.7 1355.61,-112.7 1505.61,-112.7 1505.61,-110.7 1355.61,-110.7"/>
<polygon fill="#000000" stroke="none" points="1355.61,-108.7 1355.61,-110.7 1505.61,-110.7 1505.61,-108.7 1355.61,-108.7"/>
<polygon fill="#000000" stroke="none" points="1355.61,-106.7 1355.61,-108.7 1505.61,-108.7 1505.61,-106.7 1355.61,-106.7"/>
<text xml:space="preserve" text-anchor="start" x="1357.61" y="-91.95" font-family="arial" font-size="14.00"> </text>
<polygon fill="none" stroke="black" points="1355.61,-63.2 1355.61,-86.95 1505.61,-86.95 1505.61,-63.2 1355.61,-63.2"/>
<text xml:space="preserve" text-anchor="start" x="1373.98" y="-70.2" font-family="arial" font-size="14.00">Driver DIR&#45; ground</text>
</g>
<!-- TIE_0V&#45;&#45;GND_2 -->
<g id="edge9" class="edge">
<title>TIE_0V:e&#45;&#45;GND_2:w</title>
<path fill="none" stroke="#000000" stroke-width="2" d="M1100.36,-273.45C1231.27,-277.83 1215.73,-112.08 1354.61,-107.7"/>
<path fill="none" stroke="#000000" stroke-width="2" d="M1100.36,-275.45C1233.26,-277.64 1217.72,-111.89 1354.61,-109.7"/>
<path fill="none" stroke="#000000" stroke-width="2" d="M1100.36,-277.45C1235.25,-277.45 1219.72,-111.7 1354.61,-111.7"/>
<path fill="none" stroke="#000000" stroke-width="2" d="M1100.36,-279.45C1237.24,-277.27 1221.71,-111.52 1354.61,-113.7"/>
<path fill="none" stroke="#000000" stroke-width="2" d="M1100.36,-281.45C1239.23,-277.08 1223.7,-111.33 1354.61,-115.7"/>
</g>
<!-- EXT5V -->
<g id="node4" class="node">
<title>EXT5V</title>
<polygon fill="#ffffff" stroke="black" points="2487.36,-340.83 2317.36,-340.83 2317.36,-222.08 2487.36,-222.08 2487.36,-340.83"/>
<polygon fill="none" stroke="black" points="2317.36,-317.08 2317.36,-340.83 2487.36,-340.83 2487.36,-317.08 2317.36,-317.08"/>
<text xml:space="preserve" text-anchor="start" x="2380.98" y="-324.08" font-family="arial" font-size="14.00">EXT5V</text>
<polygon fill="none" stroke="black" points="2317.36,-293.33 2317.36,-317.08 2428.98,-317.08 2428.98,-293.33 2317.36,-293.33"/>
<text xml:space="preserve" text-anchor="start" x="2331.54" y="-300.33" font-family="arial" font-size="14.00">Power Supply</text>
<polygon fill="none" stroke="black" points="2428.98,-293.33 2428.98,-317.08 2487.36,-317.08 2487.36,-293.33 2428.98,-293.33"/>
<text xml:space="preserve" text-anchor="start" x="2443.17" y="-300.33" font-family="arial" font-size="14.00">2&#45;pin</text>
<polygon fill="none" stroke="black" points="2317.36,-269.58 2317.36,-293.33 2366.27,-293.33 2366.27,-269.58 2317.36,-269.58"/>
<text xml:space="preserve" text-anchor="start" x="2338.07" y="-276.58" font-family="arial" font-size="14.00">1</text>
<polygon fill="none" stroke="black" points="2366.27,-269.58 2366.27,-293.33 2438.44,-293.33 2438.44,-269.58 2366.27,-269.58"/>
<text xml:space="preserve" text-anchor="start" x="2389.98" y="-276.58" font-family="arial" font-size="14.00">+5V</text>
<polygon fill="none" stroke="black" points="2438.44,-269.58 2438.44,-293.33 2487.36,-293.33 2487.36,-269.58 2438.44,-269.58"/>
<text xml:space="preserve" text-anchor="start" x="2459.15" y="-276.58" font-family="arial" font-size="14.00">1</text>
<polygon fill="none" stroke="black" points="2317.36,-245.83 2317.36,-269.58 2366.27,-269.58 2366.27,-245.83 2317.36,-245.83"/>
<text xml:space="preserve" text-anchor="start" x="2338.07" y="-252.83" font-family="arial" font-size="14.00">2</text>
<polygon fill="none" stroke="black" points="2366.27,-245.83 2366.27,-269.58 2438.44,-269.58 2438.44,-245.83 2366.27,-245.83"/>
<text xml:space="preserve" text-anchor="start" x="2386.98" y="-252.83" font-family="arial" font-size="14.00">GND</text>
<polygon fill="none" stroke="black" points="2438.44,-245.83 2438.44,-269.58 2487.36,-269.58 2487.36,-245.83 2438.44,-245.83"/>
<text xml:space="preserve" text-anchor="start" x="2459.15" y="-252.83" font-family="arial" font-size="14.00">2</text>
<polygon fill="none" stroke="black" points="2317.36,-222.08 2317.36,-245.83 2487.36,-245.83 2487.36,-222.08 2317.36,-222.08"/>
<text xml:space="preserve" text-anchor="start" x="2321.36" y="-229.08" font-family="arial" font-size="14.00">External 5V (enable circuit)</text>
</g>
<!-- PWR -->
<g id="node11" class="node">
<title>PWR</title>
<polygon fill="#ffffff" stroke="black" points="2884.86,-383.7 2631.36,-383.7 2631.36,-243.2 2884.86,-243.2 2884.86,-383.7"/>
<polygon fill="none" stroke="black" points="2631.36,-359.95 2631.36,-383.7 2884.86,-383.7 2884.86,-359.95 2631.36,-359.95"/>
<text xml:space="preserve" text-anchor="start" x="2741.98" y="-366.95" font-family="arial" font-size="14.00">PWR</text>
<polygon fill="none" stroke="black" points="2631.36,-336.2 2631.36,-359.95 2884.86,-359.95 2884.86,-336.2 2631.36,-336.2"/>
<text xml:space="preserve" text-anchor="start" x="2750.98" y="-343.2" font-family="arial" font-size="14.00">1x</text>
<text xml:space="preserve" text-anchor="start" x="2672.73" y="-321.45" font-family="arial" font-size="14.00"> </text>
<text xml:space="preserve" text-anchor="start" x="2633.36" y="-301.7" font-family="arial" font-size="14.00">EXT5V:1:+5V</text>
<text xml:space="preserve" text-anchor="start" x="2719.86" y="-301.7" font-family="arial" font-size="14.00"> &#160;&#160;&#160;&#160;1:RD &#160;&#160;&#160;</text>
<text xml:space="preserve" text-anchor="start" x="2788.36" y="-301.7" font-family="arial" font-size="14.00">ESTOP:1:COM</text>
<polygon fill="#000000" stroke="none" points="2631.36,-294.7 2631.36,-296.7 2884.86,-296.7 2884.86,-294.7 2631.36,-294.7"/>
<polygon fill="#ff0000" stroke="none" points="2631.36,-292.7 2631.36,-294.7 2884.86,-294.7 2884.86,-292.7 2631.36,-292.7"/>
<polygon fill="#ff0000" stroke="none" points="2631.36,-290.7 2631.36,-292.7 2884.86,-292.7 2884.86,-290.7 2631.36,-290.7"/>
<polygon fill="#ff0000" stroke="none" points="2631.36,-288.7 2631.36,-290.7 2884.86,-290.7 2884.86,-288.7 2631.36,-288.7"/>
<polygon fill="#000000" stroke="none" points="2631.36,-286.7 2631.36,-288.7 2884.86,-288.7 2884.86,-286.7 2631.36,-286.7"/>
<text xml:space="preserve" text-anchor="start" x="2672.73" y="-271.95" font-family="arial" font-size="14.00"> </text>
<polygon fill="none" stroke="black" points="2631.36,-243.2 2631.36,-266.95 2884.86,-266.95 2884.86,-243.2 2631.36,-243.2"/>
<text xml:space="preserve" text-anchor="start" x="2716.86" y="-250.2" font-family="arial" font-size="14.00">+5V to E&#45;stop</text>
</g>
<!-- EXT5V&#45;&#45;PWR -->
<g id="edge11" class="edge">
<title>EXT5V:e&#45;&#45;PWR:w</title>
<path fill="none" stroke="#000000" stroke-width="2" d="M2487.36,-277.45C2553.71,-278.1 2569.38,-288.35 2631.36,-287.7"/>
<path fill="none" stroke="#ff0000" stroke-width="2" d="M2487.36,-279.45C2552.61,-279.78 2568.29,-290.03 2631.36,-289.7"/>
<path fill="none" stroke="#ff0000" stroke-width="2" d="M2487.36,-281.45C2551.52,-281.45 2567.19,-291.7 2631.36,-291.7"/>
<path fill="none" stroke="#ff0000" stroke-width="2" d="M2487.36,-283.45C2550.42,-283.13 2566.1,-293.38 2631.36,-293.7"/>
<path fill="none" stroke="#000000" stroke-width="2" d="M2487.36,-285.45C2549.33,-284.8 2565.01,-295.05 2631.36,-295.7"/>
</g>
<!-- ESTOP -->
<g id="node5" class="node">
<title>ESTOP</title>
<polygon fill="#ffffff" stroke="black" points="3201.86,-409.83 3028.86,-409.83 3028.86,-291.08 3201.86,-291.08 3201.86,-409.83"/>
<polygon fill="none" stroke="black" points="3028.86,-386.08 3028.86,-409.83 3201.86,-409.83 3201.86,-386.08 3028.86,-386.08"/>
<text xml:space="preserve" text-anchor="start" x="3092.11" y="-393.08" font-family="arial" font-size="14.00">ESTOP</text>
<polygon fill="none" stroke="black" points="3028.86,-362.33 3028.86,-386.08 3128.36,-386.08 3128.36,-362.33 3028.86,-362.33"/>
<text xml:space="preserve" text-anchor="start" x="3032.86" y="-369.33" font-family="arial" font-size="14.00">NC Pushbutton</text>
<polygon fill="none" stroke="black" points="3128.36,-362.33 3128.36,-386.08 3166.36,-386.08 3166.36,-362.33 3128.36,-362.33"/>
<text xml:space="preserve" text-anchor="start" x="3132.36" y="-369.33" font-family="arial" font-size="14.00">2&#45;pin</text>
<polygon fill="none" stroke="black" points="3166.36,-362.33 3166.36,-386.08 3193.86,-386.08 3193.86,-362.33 3166.36,-362.33"/>
<text xml:space="preserve" text-anchor="start" x="3170.36" y="-369.33" font-family="arial" font-size="14.00">RD</text>
<polygon fill="#ff0000" stroke="none" points="3193.86,-362.33 3193.86,-386.08 3201.86,-386.08 3201.86,-362.33 3193.86,-362.33"/>
<polygon fill="none" stroke="black" points="3193.86,-362.33 3193.86,-386.08 3201.86,-386.08 3201.86,-362.33 3193.86,-362.33"/>
<polygon fill="none" stroke="black" points="3028.86,-338.58 3028.86,-362.33 3078.02,-362.33 3078.02,-338.58 3028.86,-338.58"/>
<text xml:space="preserve" text-anchor="start" x="3049.69" y="-345.58" font-family="arial" font-size="14.00">1</text>
<polygon fill="none" stroke="black" points="3078.02,-338.58 3078.02,-362.33 3152.69,-362.33 3152.69,-338.58 3078.02,-338.58"/>
<text xml:space="preserve" text-anchor="start" x="3098.86" y="-345.58" font-family="arial" font-size="14.00">COM</text>
<polygon fill="none" stroke="black" points="3152.69,-338.58 3152.69,-362.33 3201.86,-362.33 3201.86,-338.58 3152.69,-338.58"/>
<text xml:space="preserve" text-anchor="start" x="3173.52" y="-345.58" font-family="arial" font-size="14.00">1</text>
<polygon fill="none" stroke="black" points="3028.86,-314.83 3028.86,-338.58 3078.02,-338.58 3078.02,-314.83 3028.86,-314.83"/>
<text xml:space="preserve" text-anchor="start" x="3049.69" y="-321.83" font-family="arial" font-size="14.00">2</text>
<polygon fill="none" stroke="black" points="3078.02,-314.83 3078.02,-338.58 3152.69,-338.58 3152.69,-314.83 3078.02,-314.83"/>
<text xml:space="preserve" text-anchor="start" x="3105.61" y="-321.83" font-family="arial" font-size="14.00">NC</text>
<polygon fill="none" stroke="black" points="3152.69,-314.83 3152.69,-338.58 3201.86,-338.58 3201.86,-314.83 3152.69,-314.83"/>
<text xml:space="preserve" text-anchor="start" x="3173.52" y="-321.83" font-family="arial" font-size="14.00">2</text>
<polygon fill="none" stroke="black" points="3028.86,-291.08 3028.86,-314.83 3201.86,-314.83 3201.86,-291.08 3028.86,-291.08"/>
<text xml:space="preserve" text-anchor="start" x="3065.11" y="-298.08" font-family="arial" font-size="14.00">Emergency Stop</text>
</g>
<!-- ES -->
<g id="node12" class="node">
<title>ES</title>
<polygon fill="#ffffff" stroke="black" points="3658.61,-536.7 3345.86,-536.7 3345.86,-396.2 3658.61,-396.2 3658.61,-536.7"/>
<polygon fill="none" stroke="black" points="3345.86,-512.95 3345.86,-536.7 3658.61,-536.7 3658.61,-512.95 3345.86,-512.95"/>
<text xml:space="preserve" text-anchor="start" x="3493.23" y="-519.95" font-family="arial" font-size="14.00">ES</text>
<polygon fill="none" stroke="black" points="3345.86,-489.2 3345.86,-512.95 3658.61,-512.95 3658.61,-489.2 3345.86,-489.2"/>
<text xml:space="preserve" text-anchor="start" x="3495.11" y="-496.2" font-family="arial" font-size="14.00">1x</text>
<text xml:space="preserve" text-anchor="start" x="3386.48" y="-474.45" font-family="arial" font-size="14.00"> </text>
<text xml:space="preserve" text-anchor="start" x="3347.86" y="-454.7" font-family="arial" font-size="14.00">ESTOP:2:NC</text>
<text xml:space="preserve" text-anchor="start" x="3432.86" y="-454.7" font-family="arial" font-size="14.00"> &#160;&#160;&#160;&#160;1:BU &#160;&#160;&#160;</text>
<text xml:space="preserve" text-anchor="start" x="3500.61" y="-454.7" font-family="arial" font-size="14.00">MC508_STEP:7:WDOG+</text>
<polygon fill="#000000" stroke="none" points="3345.86,-447.7 3345.86,-449.7 3658.61,-449.7 3658.61,-447.7 3345.86,-447.7"/>
<polygon fill="#0066ff" stroke="none" points="3345.86,-445.7 3345.86,-447.7 3658.61,-447.7 3658.61,-445.7 3345.86,-445.7"/>
<polygon fill="#0066ff" stroke="none" points="3345.86,-443.7 3345.86,-445.7 3658.61,-445.7 3658.61,-443.7 3345.86,-443.7"/>
<polygon fill="#0066ff" stroke="none" points="3345.86,-441.7 3345.86,-443.7 3658.61,-443.7 3658.61,-441.7 3345.86,-441.7"/>
<polygon fill="#000000" stroke="none" points="3345.86,-439.7 3345.86,-441.7 3658.61,-441.7 3658.61,-439.7 3345.86,-439.7"/>
<text xml:space="preserve" text-anchor="start" x="3386.48" y="-424.95" font-family="arial" font-size="14.00"> </text>
<polygon fill="none" stroke="black" points="3345.86,-396.2 3345.86,-419.95 3658.61,-419.95 3658.61,-396.2 3345.86,-396.2"/>
<text xml:space="preserve" text-anchor="start" x="3407.73" y="-403.2" font-family="arial" font-size="14.00">E&#45;stop to WDOG+ (SCSI pin 7)</text>
</g>
<!-- ESTOP&#45;&#45;ES -->
<g id="edge13" class="edge">
<title>ESTOP:e&#45;&#45;ES:w</title>
<path fill="none" stroke="#000000" stroke-width="2" d="M3201.86,-322.7C3288.54,-327.42 3267.05,-445.42 3345.86,-440.7"/>
<path fill="none" stroke="#0066ff" stroke-width="2" d="M3201.86,-324.7C3286.57,-327.06 3265.08,-445.06 3345.86,-442.7"/>
<path fill="none" stroke="#0066ff" stroke-width="2" d="M3201.86,-326.7C3284.6,-326.7 3263.11,-444.7 3345.86,-444.7"/>
<path fill="none" stroke="#0066ff" stroke-width="2" d="M3201.86,-328.7C3282.63,-326.34 3261.15,-444.34 3345.86,-446.7"/>
<path fill="none" stroke="#000000" stroke-width="2" d="M3201.86,-330.7C3280.66,-325.99 3259.18,-443.99 3345.86,-448.7"/>
</g>
<!-- STEP_PUL&#45;&#45;DRV -->
<g id="edge2" class="edge">
<title>STEP_PUL:e&#45;&#45;DRV:w</title>
<path fill="none" stroke="#000000" stroke-width="2" d="M1210.11,-726.7C1274.45,-728.34 1580.31,-309.59 1651.11,-307.95"/>
<path fill="none" stroke="#000000" stroke-width="2" d="M1210.11,-728.7C1276.06,-729.52 1581.92,-310.77 1651.11,-309.95"/>
<path fill="none" stroke="#000000" stroke-width="2" d="M1210.11,-730.7C1277.68,-730.7 1583.54,-311.95 1651.11,-311.95"/>
<path fill="none" stroke="#000000" stroke-width="2" d="M1210.11,-732.7C1279.29,-731.88 1585.15,-313.13 1651.11,-313.95"/>
<path fill="none" stroke="#000000" stroke-width="2" d="M1210.11,-734.7C1280.91,-733.06 1586.77,-314.31 1651.11,-315.95"/>
</g>
<!-- STEP_DIR&#45;&#45;DRV -->
<g id="edge4" class="edge">
<title>STEP_DIR:e&#45;&#45;DRV:w</title>
<path fill="none" stroke="#000000" stroke-width="2" d="M1202.11,-561.7C1286.83,-566.32 1273.54,-481.73 1352.09,-433 1418.69,-396.54 1446.1,-412.64 1505.14,-376.97 1574.68,-340.52 1564.96,-264.96 1651.11,-260.45"/>
<path fill="none" stroke="#ff0000" stroke-width="2" d="M1202.11,-563.7C1288.81,-566.01 1275.52,-481.42 1353.1,-434.72 1417.68,-398.26 1445.08,-414.36 1506.12,-378.71 1576.67,-340.27 1566.94,-264.71 1651.11,-262.45"/>
<path fill="none" stroke="#ff0000" stroke-width="2" d="M1202.11,-565.7C1290.78,-565.7 1277.5,-481.11 1354.11,-436.45 1416.67,-399.98 1444.07,-416.09 1507.11,-380.45 1578.65,-340.01 1568.92,-264.45 1651.11,-264.45"/>
<path fill="none" stroke="#ff0000" stroke-width="2" d="M1202.11,-567.7C1292.76,-565.39 1279.47,-480.8 1355.11,-438.18 1415.65,-401.71 1443.06,-417.81 1508.09,-382.19 1580.63,-339.76 1570.91,-264.2 1651.11,-266.45"/>
<path fill="none" stroke="#000000" stroke-width="2" d="M1202.11,-569.7C1294.74,-565.08 1281.45,-480.49 1356.12,-439.91 1414.64,-403.43 1442.04,-419.53 1509.08,-383.93 1582.62,-339.5 1572.89,-263.94 1651.11,-268.45"/>
</g>
<!-- GND_SCSI&#45;&#45;TIE_0V -->
<g id="edge6" class="edge">
<title>GND_SCSI:e&#45;&#45;TIE_0V:w</title>
<path fill="none" stroke="#000000" stroke-width="2" d="M729.61,-297.7C857.95,-298.53 889.65,-274.28 1022.86,-273.45"/>
<path fill="none" stroke="#ffffff" stroke-width="2" d="M729.61,-299.7C859.17,-300.11 890.86,-275.86 1022.86,-275.45"/>
<path fill="none" stroke="#895956" stroke-width="2" d="M729.61,-301.7C860.38,-301.7 892.08,-277.45 1022.86,-277.45"/>
<path fill="none" stroke="#ffffff" stroke-width="2" d="M729.61,-303.7C861.6,-303.29 893.29,-279.04 1022.86,-279.45"/>
<path fill="none" stroke="#000000" stroke-width="2" d="M729.61,-305.7C862.82,-304.88 894.51,-280.63 1022.86,-281.45"/>
</g>
<!-- GND_1&#45;&#45;DRV -->
<g id="edge8" class="edge">
<title>GND_1:e&#45;&#45;DRV:w</title>
<path fill="none" stroke="#000000" stroke-width="2" d="M1507.11,-272.7C1573.68,-273.48 1589.28,-284.98 1651.11,-284.2"/>
<path fill="none" stroke="#000000" stroke-width="2" d="M1507.11,-274.7C1572.5,-275.09 1588.09,-286.59 1651.11,-286.2"/>
<path fill="none" stroke="#000000" stroke-width="2" d="M1507.11,-276.7C1571.31,-276.7 1586.9,-288.2 1651.11,-288.2"/>
<path fill="none" stroke="#000000" stroke-width="2" d="M1507.11,-278.7C1570.12,-278.31 1585.72,-289.81 1651.11,-290.2"/>
<path fill="none" stroke="#000000" stroke-width="2" d="M1507.11,-280.7C1568.94,-279.92 1584.53,-291.42 1651.11,-292.2"/>
</g>
<!-- GND_2&#45;&#45;DRV -->
<g id="edge10" class="edge">
<title>GND_2:e&#45;&#45;DRV:w</title>
<path fill="none" stroke="#000000" stroke-width="2" d="M1506.61,-107.7C1596.61,-112.54 1568.93,-241.54 1651.11,-236.7"/>
<path fill="none" stroke="#000000" stroke-width="2" d="M1506.61,-109.7C1594.65,-112.12 1566.97,-241.12 1651.11,-238.7"/>
<path fill="none" stroke="#000000" stroke-width="2" d="M1506.61,-111.7C1592.7,-111.7 1565.02,-240.7 1651.11,-240.7"/>
<path fill="none" stroke="#000000" stroke-width="2" d="M1506.61,-113.7C1590.74,-111.28 1563.06,-240.28 1651.11,-242.7"/>
<path fill="none" stroke="#000000" stroke-width="2" d="M1506.61,-115.7C1588.79,-110.86 1561.11,-239.86 1651.11,-244.7"/>
</g>
<!-- PWR&#45;&#45;ESTOP -->
<g id="edge12" class="edge">
<title>PWR:e&#45;&#45;ESTOP:w</title>
<path fill="none" stroke="#000000" stroke-width="2" d="M2884.86,-287.7C2957.96,-291.31 2963.72,-350.06 3028.86,-346.45"/>
<path fill="none" stroke="#ff0000" stroke-width="2" d="M2884.86,-289.7C2955.97,-291.51 2961.73,-350.26 3028.86,-348.45"/>
<path fill="none" stroke="#ff0000" stroke-width="2" d="M2884.86,-291.7C2953.98,-291.7 2959.74,-350.45 3028.86,-350.45"/>
<path fill="none" stroke="#ff0000" stroke-width="2" d="M2884.86,-293.7C2951.99,-291.9 2957.74,-350.65 3028.86,-352.45"/>
<path fill="none" stroke="#000000" stroke-width="2" d="M2884.86,-295.7C2950,-292.09 2955.75,-350.84 3028.86,-354.45"/>
</g>
<!-- ES&#45;&#45;MC508_STEP -->
<g id="edge14" class="edge">
<title>ES:e&#45;&#45;MC508_STEP:w</title>
<path fill="none" stroke="#000000" stroke-width="2" d="M3659.61,-440.7C3723.3,-442.38 3787.07,-352.85 3346.22,-400.19 3214.94,-412.22 2892.89,-509.28 2759.11,-509.45 1719.61,-509.45 1719.61,-509.45 1719.61,-509.45 1563.15,-509.43 474.69,-406.49 318.95,-400.45 185.21,-393.89 114.61,-306.98 27.42,-399.3 2.24,-423.22 -9.42,-480.38 23.61,-475.58"/>
<path fill="none" stroke="#0066ff" stroke-width="2" d="M3659.61,-442.7C3724.93,-443.54 3788.7,-354.01 3346.04,-398.19 3214.37,-410.31 2892.31,-507.37 2759.11,-507.45 1719.61,-507.45 1719.61,-507.45 1719.61,-507.45 1563.34,-507.44 474.88,-404.5 319.03,-398.45 186.76,-392.63 116.16,-305.72 26.01,-397.87 0.28,-422.82 -11.38,-479.98 23.61,-477.58"/>
<path fill="none" stroke="#0066ff" stroke-width="2" d="M3659.61,-444.7C3726.55,-444.7 3790.33,-355.18 3345.86,-396.2 3213.79,-408.39 2891.74,-505.45 2759.11,-505.45 1719.61,-505.45 1719.61,-505.45 1719.61,-505.45 1563.53,-505.45 475.07,-402.51 319.11,-396.45 188.32,-391.37 117.71,-304.46 24.61,-396.45 -1.68,-422.42 -13.34,-479.58 23.61,-479.58"/>
<path fill="none" stroke="#0066ff" stroke-width="2" d="M3659.61,-446.7C3728.18,-445.86 3791.96,-356.34 3345.67,-394.21 3213.21,-406.48 2891.16,-503.54 2759.11,-503.45 1719.61,-503.45 1719.61,-503.45 1719.61,-503.45 1563.71,-503.46 475.26,-400.52 319.18,-394.45 189.87,-390.11 119.27,-303.2 23.2,-395.03 -3.64,-422.02 -15.3,-479.18 23.61,-481.58"/>
<path fill="none" stroke="#000000" stroke-width="2" d="M3659.61,-448.7C3729.81,-447.02 3793.59,-357.5 3345.49,-392.22 3212.63,-404.56 2890.58,-501.62 2759.11,-501.45 1719.61,-501.45 1719.61,-501.45 1719.61,-501.45 1563.9,-501.47 475.45,-398.53 319.26,-392.46 191.42,-388.85 120.82,-301.94 21.8,-393.61 -5.59,-421.62 -17.26,-478.78 23.61,-483.58"/>
</g>
<!-- WDOG_SCSI&#45;&#45;DRV -->
<g id="edge16" class="edge">
<title>WDOG_SCSI:e&#45;&#45;DRV:w</title>
<path fill="none" stroke="#000000" stroke-width="2" d="M769.11,-89.7C1094.24,-91.6 1204.72,86.83 1508.76,-47.81 1599.63,-93.14 1557.4,-218.23 1651.11,-212.95"/>
<path fill="none" stroke="#8000ff" stroke-width="2" d="M769.11,-91.7C1095.94,-92.65 1206.42,85.77 1507.94,-49.63 1597.73,-92.5 1555.5,-217.59 1651.11,-214.95"/>
<path fill="none" stroke="#8000ff" stroke-width="2" d="M769.11,-93.7C1097.64,-93.7 1208.12,84.72 1507.11,-51.45 1595.84,-91.86 1553.61,-216.95 1651.11,-216.95"/>
<path fill="none" stroke="#8000ff" stroke-width="2" d="M769.11,-95.7C1099.34,-94.76 1209.82,83.67 1506.28,-53.27 1593.94,-91.23 1551.71,-216.31 1651.11,-218.95"/>
<path fill="none" stroke="#000000" stroke-width="2" d="M769.11,-97.7C1101.04,-95.81 1211.52,82.62 1505.45,-55.09 1592.05,-90.59 1549.82,-215.67 1651.11,-220.95"/>
</g>
<!-- R&#45;&#45;EXT5V -->
<g id="edge18" class="edge">
<title>R:e&#45;&#45;EXT5V:w</title>
<path fill="none" stroke="#000000" stroke-width="2" d="M2173.36,-232.7C2241.31,-234.41 2255.96,-255.41 2317.36,-253.7"/>
<path fill="none" stroke="#000000" stroke-width="2" d="M2173.36,-234.7C2239.67,-235.56 2254.32,-256.56 2317.36,-255.7"/>
<path fill="none" stroke="#000000" stroke-width="2" d="M2173.36,-236.7C2238.03,-236.7 2252.68,-257.7 2317.36,-257.7"/>
<path fill="none" stroke="#000000" stroke-width="2" d="M2173.36,-238.7C2236.39,-237.85 2251.04,-258.85 2317.36,-259.7"/>
<path fill="none" stroke="#000000" stroke-width="2" d="M2173.36,-240.7C2234.75,-238.99 2249.4,-259.99 2317.36,-261.7"/>
</g>
</g>
</svg>
