<?xml version="1.0" encoding="UTF-8" standalone="no"?>
<!DOCTYPE svg PUBLIC "-//W3C//DTD SVG 1.1//EN"
 "http://www.w3.org/Graphics/SVG/1.1/DTD/svg11.dtd">
<!-- Generated by graphviz version 12.2.1 (20241206.2353)
 -->
<!-- Pages: 1 -->
<svg width="3922pt" height="874pt"
 viewBox="0.00 0.00 3921.87 873.50" xmlns="http://www.w3.org/2000/svg" xmlns:xlink="http://www.w3.org/1999/xlink">
<g id="graph0" class="graph" transform="scale(1 1) rotate(0) translate(4 869.5)">
<polygon fill="#ffffff" stroke="none" points="-4,4 -4,-869.5 3917.87,-869.5 3917.87,4 -4,4"/>
<!-- DB25 -->
<g id="node1" class="node">
<title>DB25</title>
<polygon fill="#ffffff" stroke="black" points="183.5,-737.25 0,-737.25 0,-357.25 183.5,-357.25 183.5,-737.25"/>
<polygon fill="none" stroke="black" points="0,-713.5 0,-737.25 183.5,-737.25 183.5,-713.5 0,-713.5"/>
<text text-anchor="start" x="74.88" y="-719.95" font-family="arial" font-size="14.00">DB25</text>
<polygon fill="none" stroke="black" points="0,-689.75 0,-713.5 99.17,-713.5 99.17,-689.75 0,-689.75"/>
<text text-anchor="start" x="4.21" y="-696.2" font-family="arial" font-size="14.00">D&#45;Sub 25 Male</text>
<polygon fill="none" stroke="black" points="99.17,-689.75 99.17,-713.5 137.58,-713.5 137.58,-689.75 99.17,-689.75"/>
<text text-anchor="start" x="103.38" y="-696.2" font-family="arial" font-size="14.00">male</text>
<polygon fill="none" stroke="black" points="137.58,-689.75 137.58,-713.5 183.5,-713.5 183.5,-689.75 137.58,-689.75"/>
<text text-anchor="start" x="141.79" y="-696.2" font-family="arial" font-size="14.00">13&#45;pin</text>
<polygon fill="none" stroke="black" points="0,-666 0,-689.75 116.12,-689.75 116.12,-666 0,-666"/>
<text text-anchor="start" x="36.31" y="-672.45" font-family="arial" font-size="14.00">Enc A+</text>
<polygon fill="none" stroke="black" points="116.12,-666 116.12,-689.75 183.5,-689.75 183.5,-666 116.12,-666"/>
<text text-anchor="start" x="146.06" y="-672.45" font-family="arial" font-size="14.00">1</text>
<polygon fill="none" stroke="black" points="0,-642.25 0,-666 116.12,-666 116.12,-642.25 0,-642.25"/>
<text text-anchor="start" x="38.19" y="-648.7" font-family="arial" font-size="14.00">Enc A&#45;</text>
<polygon fill="none" stroke="black" points="116.12,-642.25 116.12,-666 183.5,-666 183.5,-642.25 116.12,-642.25"/>
<text text-anchor="start" x="142.31" y="-648.7" font-family="arial" font-size="14.00">14</text>
<polygon fill="none" stroke="black" points="0,-618.5 0,-642.25 116.12,-642.25 116.12,-618.5 0,-618.5"/>
<text text-anchor="start" x="35.94" y="-624.95" font-family="arial" font-size="14.00">Enc B+</text>
<polygon fill="none" stroke="black" points="116.12,-618.5 116.12,-642.25 183.5,-642.25 183.5,-618.5 116.12,-618.5"/>
<text text-anchor="start" x="146.06" y="-624.95" font-family="arial" font-size="14.00">2</text>
<polygon fill="none" stroke="black" points="0,-594.75 0,-618.5 116.12,-618.5 116.12,-594.75 0,-594.75"/>
<text text-anchor="start" x="37.81" y="-601.2" font-family="arial" font-size="14.00">Enc B&#45;</text>
<polygon fill="none" stroke="black" points="116.12,-594.75 116.12,-618.5 183.5,-618.5 183.5,-594.75 116.12,-594.75"/>
<text text-anchor="start" x="142.31" y="-601.2" font-family="arial" font-size="14.00">15</text>
<polygon fill="none" stroke="black" points="0,-571 0,-594.75 116.12,-594.75 116.12,-571 0,-571"/>
<text text-anchor="start" x="36.31" y="-577.45" font-family="arial" font-size="14.00">Enc Z+</text>
<polygon fill="none" stroke="black" points="116.12,-571 116.12,-594.75 183.5,-594.75 183.5,-571 116.12,-571"/>
<text text-anchor="start" x="146.06" y="-577.45" font-family="arial" font-size="14.00">3</text>
<polygon fill="none" stroke="black" points="0,-547.25 0,-571 116.12,-571 116.12,-547.25 0,-547.25"/>
<text text-anchor="start" x="38.19" y="-553.7" font-family="arial" font-size="14.00">Enc Z&#45;</text>
<polygon fill="none" stroke="black" points="116.12,-547.25 116.12,-571 183.5,-571 183.5,-547.25 116.12,-547.25"/>
<text text-anchor="start" x="142.31" y="-553.7" font-family="arial" font-size="14.00">16</text>
<polygon fill="none" stroke="black" points="0,-523.5 0,-547.25 116.12,-547.25 116.12,-523.5 0,-523.5"/>
<text text-anchor="start" x="45.69" y="-529.95" font-family="arial" font-size="14.00">+5V</text>
<polygon fill="none" stroke="black" points="116.12,-523.5 116.12,-547.25 183.5,-547.25 183.5,-523.5 116.12,-523.5"/>
<text text-anchor="start" x="146.06" y="-529.95" font-family="arial" font-size="14.00">4</text>
<polygon fill="none" stroke="black" points="0,-499.75 0,-523.5 116.12,-523.5 116.12,-499.75 0,-499.75"/>
<text text-anchor="start" x="30.69" y="-506.2" font-family="arial" font-size="14.00">Dig GND</text>
<polygon fill="none" stroke="black" points="116.12,-499.75 116.12,-523.5 183.5,-523.5 183.5,-499.75 116.12,-499.75"/>
<text text-anchor="start" x="142.31" y="-506.2" font-family="arial" font-size="14.00">17</text>
<polygon fill="none" stroke="black" points="0,-476 0,-499.75 116.12,-499.75 116.12,-476 0,-476"/>
<text text-anchor="start" x="28.81" y="-482.45" font-family="arial" font-size="14.00">Fwd Limit</text>
<polygon fill="none" stroke="black" points="116.12,-476 116.12,-499.75 183.5,-499.75 183.5,-476 116.12,-476"/>
<text text-anchor="start" x="142.31" y="-482.45" font-family="arial" font-size="14.00">10</text>
<polygon fill="none" stroke="black" points="0,-452.25 0,-476 116.12,-476 116.12,-452.25 0,-452.25"/>
<text text-anchor="start" x="29.56" y="-458.7" font-family="arial" font-size="14.00">Rev Limit</text>
<polygon fill="none" stroke="black" points="116.12,-452.25 116.12,-476 183.5,-476 183.5,-452.25 116.12,-452.25"/>
<text text-anchor="start" x="142.31" y="-458.7" font-family="arial" font-size="14.00">12</text>
<polygon fill="none" stroke="black" points="0,-428.5 0,-452.25 116.12,-452.25 116.12,-428.5 0,-428.5"/>
<text text-anchor="start" x="44.94" y="-434.95" font-family="arial" font-size="14.00">Viso</text>
<polygon fill="none" stroke="black" points="116.12,-428.5 116.12,-452.25 183.5,-452.25 183.5,-428.5 116.12,-428.5"/>
<text text-anchor="start" x="142.31" y="-434.95" font-family="arial" font-size="14.00">13</text>
<polygon fill="none" stroke="black" points="0,-404.75 0,-428.5 116.12,-428.5 116.12,-404.75 0,-404.75"/>
<text text-anchor="start" x="44.56" y="-411.2" font-family="arial" font-size="14.00">Ciso</text>
<polygon fill="none" stroke="black" points="116.12,-404.75 116.12,-428.5 183.5,-428.5 183.5,-404.75 116.12,-404.75"/>
<text text-anchor="start" x="142.31" y="-411.2" font-family="arial" font-size="14.00">22</text>
<polygon fill="none" stroke="black" points="0,-381 0,-404.75 116.12,-404.75 116.12,-381 0,-381"/>
<text text-anchor="start" x="26.19" y="-387.45" font-family="arial" font-size="14.00">Home N/C</text>
<polygon fill="none" stroke="black" points="116.12,-381 116.12,-404.75 183.5,-404.75 183.5,-381 116.12,-381"/>
<text text-anchor="start" x="142.69" y="-387.45" font-family="arial" font-size="14.00">11</text>
<polygon fill="none" stroke="black" points="0,-357.25 0,-381 183.5,-381 183.5,-357.25 0,-357.25"/>
<text text-anchor="start" x="4" y="-363.7" font-family="arial" font-size="14.00">Stage cable (from UMI&#45;7774)</text>
</g>
<!-- ENC -->
<g id="node7" class="node">
<title>ENC</title>
<polygon fill="#ffffff" stroke="black" points="698,-802.62 327.5,-802.62 327.5,-453.88 698,-453.88 698,-802.62"/>
<polygon fill="none" stroke="black" points="327.5,-778.88 327.5,-802.62 698,-802.62 698,-778.88 327.5,-778.88"/>
<text text-anchor="start" x="498.5" y="-785.33" font-family="arial" font-size="14.00">ENC</text>
<polygon fill="none" stroke="black" points="327.5,-755.12 327.5,-778.88 698,-778.88 698,-755.12 327.5,-755.12"/>
<text text-anchor="start" x="505.62" y="-761.58" font-family="arial" font-size="14.00">8x</text>
<text text-anchor="start" x="383.12" y="-739.83" font-family="arial" font-size="14.00"> </text>
<text text-anchor="start" x="338.88" y="-720.08" font-family="arial" font-size="14.00">DB25:1:Enc A+</text>
<text text-anchor="start" x="463.25" y="-720.08" font-family="arial" font-size="14.00"> &#160;&#160;&#160;&#160;1:BK &#160;&#160;&#160;</text>
<text text-anchor="start" x="553.12" y="-720.08" font-family="arial" font-size="14.00">MC508_ENC:1:Enc A+</text>
<polygon fill="#000000" stroke="none" points="327.5,-713.62 327.5,-715.62 698,-715.62 698,-713.62 327.5,-713.62"/>
<polygon fill="#000000" stroke="none" points="327.5,-711.62 327.5,-713.62 698,-713.62 698,-711.62 327.5,-711.62"/>
<polygon fill="#000000" stroke="none" points="327.5,-709.62 327.5,-711.62 698,-711.62 698,-709.62 327.5,-709.62"/>
<polygon fill="#000000" stroke="none" points="327.5,-707.62 327.5,-709.62 698,-709.62 698,-707.62 327.5,-707.62"/>
<polygon fill="#000000" stroke="none" points="327.5,-705.62 327.5,-707.62 698,-707.62 698,-705.62 327.5,-705.62"/>
<text text-anchor="start" x="337" y="-690.33" font-family="arial" font-size="14.00">DB25:14:Enc A&#45;</text>
<text text-anchor="start" x="462.88" y="-690.33" font-family="arial" font-size="14.00"> &#160;&#160;&#160;&#160;2:BN &#160;&#160;&#160;</text>
<text text-anchor="start" x="555.38" y="-690.33" font-family="arial" font-size="14.00">MC508_ENC:2:/Enc A</text>
<polygon fill="#000000" stroke="none" points="327.5,-683.88 327.5,-685.88 698,-685.88 698,-683.88 327.5,-683.88"/>
<polygon fill="#895956" stroke="none" points="327.5,-681.88 327.5,-683.88 698,-683.88 698,-681.88 327.5,-681.88"/>
<polygon fill="#895956" stroke="none" points="327.5,-679.88 327.5,-681.88 698,-681.88 698,-679.88 327.5,-679.88"/>
<polygon fill="#895956" stroke="none" points="327.5,-677.88 327.5,-679.88 698,-679.88 698,-677.88 327.5,-677.88"/>
<polygon fill="#000000" stroke="none" points="327.5,-675.88 327.5,-677.88 698,-677.88 698,-675.88 327.5,-675.88"/>
<text text-anchor="start" x="338.5" y="-660.58" font-family="arial" font-size="14.00">DB25:2:Enc B+</text>
<text text-anchor="start" x="462.5" y="-660.58" font-family="arial" font-size="14.00"> &#160;&#160;&#160;&#160;3:RD &#160;&#160;&#160;</text>
<text text-anchor="start" x="552.75" y="-660.58" font-family="arial" font-size="14.00">MC508_ENC:3:Enc B+</text>
<polygon fill="#000000" stroke="none" points="327.5,-654.12 327.5,-656.12 698,-656.12 698,-654.12 327.5,-654.12"/>
<polygon fill="#ff0000" stroke="none" points="327.5,-652.12 327.5,-654.12 698,-654.12 698,-652.12 327.5,-652.12"/>
<polygon fill="#ff0000" stroke="none" points="327.5,-650.12 327.5,-652.12 698,-652.12 698,-650.12 327.5,-650.12"/>
<polygon fill="#ff0000" stroke="none" points="327.5,-648.12 327.5,-650.12 698,-650.12 698,-648.12 327.5,-648.12"/>
<polygon fill="#000000" stroke="none" points="327.5,-646.12 327.5,-648.12 698,-648.12 698,-646.12 327.5,-646.12"/>
<text text-anchor="start" x="336.62" y="-630.83" font-family="arial" font-size="14.00">DB25:15:Enc B&#45;</text>
<text text-anchor="start" x="461" y="-630.83" font-family="arial" font-size="14.00"> &#160;&#160;&#160;&#160;4:OG &#160;&#160;&#160;</text>
<text text-anchor="start" x="555" y="-630.83" font-family="arial" font-size="14.00">MC508_ENC:4:/Enc B</text>
<polygon fill="#000000" stroke="none" points="327.5,-624.38 327.5,-626.38 698,-626.38 698,-624.38 327.5,-624.38"/>
<polygon fill="#ff8000" stroke="none" points="327.5,-622.38 327.5,-624.38 698,-624.38 698,-622.38 327.5,-622.38"/>
<polygon fill="#ff8000" stroke="none" points="327.5,-620.38 327.5,-622.38 698,-622.38 698,-620.38 327.5,-620.38"/>
<polygon fill="#ff8000" stroke="none" points="327.5,-618.38 327.5,-620.38 698,-620.38 698,-618.38 327.5,-618.38"/>
<polygon fill="#000000" stroke="none" points="327.5,-616.38 327.5,-618.38 698,-618.38 698,-616.38 327.5,-616.38"/>
<text text-anchor="start" x="338.88" y="-601.08" font-family="arial" font-size="14.00">DB25:3:Enc Z+</text>
<text text-anchor="start" x="444.5" y="-601.08" font-family="arial" font-size="14.00"> &#160;&#160;&#160;&#160;5:#90EE90 &#160;&#160;&#160;</text>
<text text-anchor="start" x="549.75" y="-601.08" font-family="arial" font-size="14.00">MC508_ENC:11:Enc Z+</text>
<polygon fill="#000000" stroke="none" points="327.5,-594.62 327.5,-596.62 698,-596.62 698,-594.62 327.5,-594.62"/>
<polygon fill="#90ee90" stroke="none" points="327.5,-592.62 327.5,-594.62 698,-594.62 698,-592.62 327.5,-592.62"/>
<polygon fill="#90ee90" stroke="none" points="327.5,-590.62 327.5,-592.62 698,-592.62 698,-590.62 327.5,-590.62"/>
<polygon fill="#90ee90" stroke="none" points="327.5,-588.62 327.5,-590.62 698,-590.62 698,-588.62 327.5,-588.62"/>
<polygon fill="#000000" stroke="none" points="327.5,-586.62 327.5,-588.62 698,-588.62 698,-586.62 327.5,-586.62"/>
<text text-anchor="start" x="337" y="-571.33" font-family="arial" font-size="14.00">DB25:16:Enc Z&#45;</text>
<text text-anchor="start" x="464" y="-571.33" font-family="arial" font-size="14.00"> &#160;&#160;&#160;&#160;6:LB &#160;&#160;&#160;</text>
<text text-anchor="start" x="551.62" y="-571.33" font-family="arial" font-size="14.00">MC508_ENC:12:/Enc Z</text>
<polygon fill="#000000" stroke="none" points="327.5,-564.88 327.5,-566.88 698,-566.88 698,-564.88 327.5,-564.88"/>
<polygon fill="#a0dfff" stroke="none" points="327.5,-562.88 327.5,-564.88 698,-564.88 698,-562.88 327.5,-562.88"/>
<polygon fill="#a0dfff" stroke="none" points="327.5,-560.88 327.5,-562.88 698,-562.88 698,-560.88 327.5,-560.88"/>
<polygon fill="#a0dfff" stroke="none" points="327.5,-558.88 327.5,-560.88 698,-560.88 698,-558.88 327.5,-558.88"/>
<polygon fill="#000000" stroke="none" points="327.5,-556.88 327.5,-558.88 698,-558.88 698,-556.88 327.5,-556.88"/>
<text text-anchor="start" x="348.25" y="-541.58" font-family="arial" font-size="14.00">DB25:4:+5V</text>
<text text-anchor="start" x="463.25" y="-541.58" font-family="arial" font-size="14.00"> &#160;&#160;&#160;&#160;7:YE &#160;&#160;&#160;</text>
<text text-anchor="start" x="549" y="-541.58" font-family="arial" font-size="14.00">MC508_ENC:5:+5V Enc</text>
<polygon fill="#000000" stroke="none" points="327.5,-535.12 327.5,-537.12 698,-537.12 698,-535.12 327.5,-535.12"/>
<polygon fill="#ffff00" stroke="none" points="327.5,-533.12 327.5,-535.12 698,-535.12 698,-533.12 327.5,-533.12"/>
<polygon fill="#ffff00" stroke="none" points="327.5,-531.12 327.5,-533.12 698,-533.12 698,-531.12 327.5,-531.12"/>
<polygon fill="#ffff00" stroke="none" points="327.5,-529.12 327.5,-531.12 698,-531.12 698,-529.12 327.5,-529.12"/>
<polygon fill="#000000" stroke="none" points="327.5,-527.12 327.5,-529.12 698,-529.12 698,-527.12 327.5,-527.12"/>
<text text-anchor="start" x="329.5" y="-511.82" font-family="arial" font-size="14.00">DB25:17:Dig GND</text>
<text text-anchor="start" x="451.25" y="-511.82" font-family="arial" font-size="14.00"> &#160;&#160;&#160;&#160;8:WHBN &#160;&#160;&#160;</text>
<text text-anchor="start" x="562.88" y="-511.82" font-family="arial" font-size="14.00">MC508_ENC:15:0V</text>
<polygon fill="#000000" stroke="none" points="327.5,-505.38 327.5,-507.38 698,-507.38 698,-505.38 327.5,-505.38"/>
<polygon fill="#ffffff" stroke="none" points="327.5,-503.38 327.5,-505.38 698,-505.38 698,-503.38 327.5,-503.38"/>
<polygon fill="#895956" stroke="none" points="327.5,-501.38 327.5,-503.38 698,-503.38 698,-501.38 327.5,-501.38"/>
<polygon fill="#ffffff" stroke="none" points="327.5,-499.38 327.5,-501.38 698,-501.38 698,-499.38 327.5,-499.38"/>
<polygon fill="#000000" stroke="none" points="327.5,-497.38 327.5,-499.38 698,-499.38 698,-497.38 327.5,-497.38"/>
<text text-anchor="start" x="383.12" y="-482.07" font-family="arial" font-size="14.00"> </text>
<polygon fill="none" stroke="black" points="327.5,-453.88 327.5,-477.62 698,-477.62 698,-453.88 327.5,-453.88"/>
<text text-anchor="start" x="435.12" y="-460.32" font-family="arial" font-size="14.00">Encoder adapter (8 wires)</text>
</g>
<!-- DB25&#45;&#45;ENC -->
<g id="edge1" class="edge">
<title>DB25:e&#45;&#45;ENC:w</title>
<path fill="none" stroke="#000000" stroke-width="2" d="M183.5,-673.88C252.86,-676.43 265.59,-709.18 327.5,-706.63"/>
<path fill="none" stroke="#000000" stroke-width="2" d="M183.5,-675.88C251,-677.15 263.73,-709.9 327.5,-708.63"/>
<path fill="none" stroke="#000000" stroke-width="2" d="M183.5,-677.88C249.13,-677.88 261.87,-710.62 327.5,-710.62"/>
<path fill="none" stroke="#000000" stroke-width="2" d="M183.5,-679.87C247.27,-678.6 260,-711.35 327.5,-712.62"/>
<path fill="none" stroke="#000000" stroke-width="2" d="M183.5,-681.87C245.41,-679.32 258.14,-712.07 327.5,-714.62"/>
</g>
<!-- DB25&#45;&#45;ENC -->
<g id="edge3" class="edge">
<title>DB25:e&#45;&#45;ENC:w</title>
<path fill="none" stroke="#000000" stroke-width="2" d="M183.5,-650.13C252.15,-652.29 265.96,-679.04 327.5,-676.88"/>
<path fill="none" stroke="#895956" stroke-width="2" d="M183.5,-652.13C250.37,-653.21 264.18,-679.96 327.5,-678.88"/>
<path fill="none" stroke="#895956" stroke-width="2" d="M183.5,-654.12C248.59,-654.12 262.41,-680.88 327.5,-680.88"/>
<path fill="none" stroke="#895956" stroke-width="2" d="M183.5,-656.12C246.82,-655.04 260.63,-681.79 327.5,-682.87"/>
<path fill="none" stroke="#000000" stroke-width="2" d="M183.5,-658.12C245.04,-655.96 258.85,-682.71 327.5,-684.87"/>
</g>
<!-- DB25&#45;&#45;ENC -->
<g id="edge5" class="edge">
<title>DB25:e&#45;&#45;ENC:w</title>
<path fill="none" stroke="#000000" stroke-width="2" d="M183.5,-626.38C251.43,-628.07 266.1,-648.82 327.5,-647.13"/>
<path fill="none" stroke="#ff0000" stroke-width="2" d="M183.5,-628.38C249.79,-629.22 264.47,-649.97 327.5,-649.13"/>
<path fill="none" stroke="#ff0000" stroke-width="2" d="M183.5,-630.38C248.16,-630.38 262.84,-651.13 327.5,-651.12"/>
<path fill="none" stroke="#ff0000" stroke-width="2" d="M183.5,-632.37C246.53,-631.53 261.21,-652.28 327.5,-653.12"/>
<path fill="none" stroke="#000000" stroke-width="2" d="M183.5,-634.37C244.9,-632.68 259.57,-653.43 327.5,-655.12"/>
</g>
<!-- DB25&#45;&#45;ENC -->
<g id="edge7" class="edge">
<title>DB25:e&#45;&#45;ENC:w</title>
<path fill="none" stroke="#000000" stroke-width="2" d="M183.5,-602.63C250.61,-603.74 265.94,-618.49 327.5,-617.38"/>
<path fill="none" stroke="#ff8000" stroke-width="2" d="M183.5,-604.63C249.22,-605.18 264.55,-619.93 327.5,-619.38"/>
<path fill="none" stroke="#ff8000" stroke-width="2" d="M183.5,-606.62C247.83,-606.62 263.17,-621.37 327.5,-621.37"/>
<path fill="none" stroke="#ff8000" stroke-width="2" d="M183.5,-608.62C246.45,-608.07 261.78,-622.82 327.5,-623.37"/>
<path fill="none" stroke="#000000" stroke-width="2" d="M183.5,-610.62C245.06,-609.51 260.39,-624.26 327.5,-625.37"/>
</g>
<!-- DB25&#45;&#45;ENC -->
<g id="edge9" class="edge">
<title>DB25:e&#45;&#45;ENC:w</title>
<path fill="none" stroke="#000000" stroke-width="2" d="M183.5,-578.88C249.56,-579.38 265.32,-588.13 327.5,-587.63"/>
<path fill="none" stroke="#90ee90" stroke-width="2" d="M183.5,-580.88C248.59,-581.13 264.35,-589.88 327.5,-589.63"/>
<path fill="none" stroke="#90ee90" stroke-width="2" d="M183.5,-582.88C247.62,-582.87 263.38,-591.62 327.5,-591.63"/>
<path fill="none" stroke="#90ee90" stroke-width="2" d="M183.5,-584.87C246.65,-584.62 262.41,-593.37 327.5,-593.62"/>
<path fill="none" stroke="#000000" stroke-width="2" d="M183.5,-586.87C245.68,-586.37 261.44,-595.12 327.5,-595.62"/>
</g>
<!-- DB25&#45;&#45;ENC -->
<g id="edge11" class="edge">
<title>DB25:e&#45;&#45;ENC:w</title>
<path fill="none" stroke="#000000" stroke-width="2" d="M183.5,-555.13C248.19,-555.18 264.17,-557.93 327.5,-557.88"/>
<path fill="none" stroke="#a0dfff" stroke-width="2" d="M183.5,-557.13C247.85,-557.15 263.83,-559.9 327.5,-559.88"/>
<path fill="none" stroke="#a0dfff" stroke-width="2" d="M183.5,-559.12C247.51,-559.13 263.49,-561.88 327.5,-561.88"/>
<path fill="none" stroke="#a0dfff" stroke-width="2" d="M183.5,-561.12C247.17,-561.1 263.15,-563.85 327.5,-563.87"/>
<path fill="none" stroke="#000000" stroke-width="2" d="M183.5,-563.12C246.83,-563.07 262.81,-565.82 327.5,-565.87"/>
</g>
<!-- DB25&#45;&#45;ENC -->
<g id="edge13" class="edge">
<title>DB25:e&#45;&#45;ENC:w</title>
<path fill="none" stroke="#000000" stroke-width="2" d="M183.5,-531.38C246.72,-531.46 262.69,-528.21 327.5,-528.13"/>
<path fill="none" stroke="#ffff00" stroke-width="2" d="M183.5,-533.38C247.12,-533.42 263.08,-530.17 327.5,-530.13"/>
<path fill="none" stroke="#ffff00" stroke-width="2" d="M183.5,-535.38C247.52,-535.38 263.48,-532.12 327.5,-532.12"/>
<path fill="none" stroke="#ffff00" stroke-width="2" d="M183.5,-537.37C247.92,-537.33 263.88,-534.08 327.5,-534.12"/>
<path fill="none" stroke="#000000" stroke-width="2" d="M183.5,-539.37C248.31,-539.29 264.28,-536.04 327.5,-536.12"/>
</g>
<!-- DB25&#45;&#45;ENC -->
<g id="edge15" class="edge">
<title>DB25:e&#45;&#45;ENC:w</title>
<path fill="none" stroke="#000000" stroke-width="2" d="M183.5,-507.63C245.6,-508.18 261.34,-498.93 327.5,-498.38"/>
<path fill="none" stroke="#ffffff" stroke-width="2" d="M183.5,-509.63C246.62,-509.9 262.35,-500.65 327.5,-500.38"/>
<path fill="none" stroke="#895956" stroke-width="2" d="M183.5,-511.62C247.63,-511.62 263.37,-502.37 327.5,-502.37"/>
<path fill="none" stroke="#ffffff" stroke-width="2" d="M183.5,-513.62C248.65,-513.35 264.38,-504.1 327.5,-504.37"/>
<path fill="none" stroke="#000000" stroke-width="2" d="M183.5,-515.62C249.66,-515.07 265.4,-505.82 327.5,-506.37"/>
</g>
<!-- LFWD -->
<g id="node8" class="node">
<title>LFWD</title>
<polygon fill="#ffffff" stroke="black" points="1951.75,-441.5 1650.25,-441.5 1650.25,-301 1951.75,-301 1951.75,-441.5"/>
<polygon fill="none" stroke="black" points="1650.25,-417.75 1650.25,-441.5 1951.75,-441.5 1951.75,-417.75 1650.25,-417.75"/>
<text text-anchor="start" x="1781.5" y="-424.2" font-family="arial" font-size="14.00">LFWD</text>
<polygon fill="none" stroke="black" points="1650.25,-394 1650.25,-417.75 1951.75,-417.75 1951.75,-394 1650.25,-394"/>
<text text-anchor="start" x="1793.88" y="-400.45" font-family="arial" font-size="14.00">1x</text>
<text text-anchor="start" x="1707.75" y="-378.7" font-family="arial" font-size="14.00"> </text>
<text text-anchor="start" x="1652.25" y="-358.95" font-family="arial" font-size="14.00">DB25:10:Fwd Limit</text>
<text text-anchor="start" x="1771" y="-358.95" font-family="arial" font-size="14.00"> &#160;&#160;&#160;&#160;1:BU &#160;&#160;&#160;</text>
<text text-anchor="start" x="1838.75" y="-358.95" font-family="arial" font-size="14.00">MIC2981:1:In Fwd</text>
<polygon fill="#000000" stroke="none" points="1650.25,-352.5 1650.25,-354.5 1951.75,-354.5 1951.75,-352.5 1650.25,-352.5"/>
<polygon fill="#0066ff" stroke="none" points="1650.25,-350.5 1650.25,-352.5 1951.75,-352.5 1951.75,-350.5 1650.25,-350.5"/>
<polygon fill="#0066ff" stroke="none" points="1650.25,-348.5 1650.25,-350.5 1951.75,-350.5 1951.75,-348.5 1650.25,-348.5"/>
<polygon fill="#0066ff" stroke="none" points="1650.25,-346.5 1650.25,-348.5 1951.75,-348.5 1951.75,-346.5 1650.25,-346.5"/>
<polygon fill="#000000" stroke="none" points="1650.25,-344.5 1650.25,-346.5 1951.75,-346.5 1951.75,-344.5 1650.25,-344.5"/>
<text text-anchor="start" x="1707.75" y="-329.2" font-family="arial" font-size="14.00"> </text>
<polygon fill="none" stroke="black" points="1650.25,-301 1650.25,-324.75 1951.75,-324.75 1951.75,-301 1650.25,-301"/>
<text text-anchor="start" x="1728.25" y="-307.45" font-family="arial" font-size="14.00">Fwd limit → MIC2981 in</text>
</g>
<!-- DB25&#45;&#45;LFWD -->
<g id="edge17" class="edge">
<title>DB25:e&#45;&#45;LFWD:w</title>
<path fill="none" stroke="#000000" stroke-width="2" d="M183.5,-483.88C246.83,-486.63 257.71,-453.37 326.76,-438.32 845.27,-342.02 985.37,-412.47 1505.88,-363.27 1568.02,-358.08 1583.33,-346.33 1650.25,-345.5"/>
<path fill="none" stroke="#0066ff" stroke-width="2" d="M183.5,-485.88C248.73,-487.25 259.61,-453.99 327.13,-440.28 844.37,-343.8 984.47,-414.26 1506.06,-365.26 1569.24,-359.67 1584.55,-347.91 1650.25,-347.5"/>
<path fill="none" stroke="#0066ff" stroke-width="2" d="M183.5,-487.88C250.64,-487.88 261.51,-454.61 327.5,-442.25 843.47,-345.59 983.57,-416.05 1506.25,-367.25 1570.46,-361.26 1585.77,-349.5 1650.25,-349.5"/>
<path fill="none" stroke="#0066ff" stroke-width="2" d="M183.5,-489.87C252.54,-488.5 263.41,-455.23 327.87,-444.22 842.57,-347.38 982.68,-417.84 1506.44,-369.24 1571.67,-362.84 1586.98,-351.09 1650.25,-351.5"/>
<path fill="none" stroke="#000000" stroke-width="2" d="M183.5,-491.87C254.44,-489.12 265.31,-455.85 328.24,-446.18 841.68,-349.16 981.78,-419.62 1506.62,-371.23 1572.89,-364.43 1588.2,-352.67 1650.25,-353.5"/>
</g>
<!-- LREV -->
<g id="node9" class="node">
<title>LREV</title>
<polygon fill="#ffffff" stroke="black" points="1506.25,-355.5 1209.25,-355.5 1209.25,-215 1506.25,-215 1506.25,-355.5"/>
<polygon fill="none" stroke="black" points="1209.25,-331.75 1209.25,-355.5 1506.25,-355.5 1506.25,-331.75 1209.25,-331.75"/>
<text text-anchor="start" x="1340.12" y="-338.2" font-family="arial" font-size="14.00">LREV</text>
<polygon fill="none" stroke="black" points="1209.25,-308 1209.25,-331.75 1506.25,-331.75 1506.25,-308 1209.25,-308"/>
<text text-anchor="start" x="1350.62" y="-314.45" font-family="arial" font-size="14.00">1x</text>
<text text-anchor="start" x="1266" y="-292.7" font-family="arial" font-size="14.00"> </text>
<text text-anchor="start" x="1211.25" y="-272.95" font-family="arial" font-size="14.00">DB25:12:Rev Limit</text>
<text text-anchor="start" x="1328.5" y="-272.95" font-family="arial" font-size="14.00"> &#160;&#160;&#160;&#160;1:VT &#160;&#160;&#160;</text>
<text text-anchor="start" x="1394.75" y="-272.95" font-family="arial" font-size="14.00">MIC2981:2:In Rev</text>
<polygon fill="#000000" stroke="none" points="1209.25,-266.5 1209.25,-268.5 1506.25,-268.5 1506.25,-266.5 1209.25,-266.5"/>
<polygon fill="#8000ff" stroke="none" points="1209.25,-264.5 1209.25,-266.5 1506.25,-266.5 1506.25,-264.5 1209.25,-264.5"/>
<polygon fill="#8000ff" stroke="none" points="1209.25,-262.5 1209.25,-264.5 1506.25,-264.5 1506.25,-262.5 1209.25,-262.5"/>
<polygon fill="#8000ff" stroke="none" points="1209.25,-260.5 1209.25,-262.5 1506.25,-262.5 1506.25,-260.5 1209.25,-260.5"/>
<polygon fill="#000000" stroke="none" points="1209.25,-258.5 1209.25,-260.5 1506.25,-260.5 1506.25,-258.5 1209.25,-258.5"/>
<text text-anchor="start" x="1266" y="-243.2" font-family="arial" font-size="14.00"> </text>
<polygon fill="none" stroke="black" points="1209.25,-215 1209.25,-238.75 1506.25,-238.75 1506.25,-215 1209.25,-215"/>
<text text-anchor="start" x="1285.75" y="-221.45" font-family="arial" font-size="14.00">Rev limit → MIC2981 in</text>
</g>
<!-- DB25&#45;&#45;LREV -->
<g id="edge19" class="edge">
<title>DB25:e&#45;&#45;LREV:w</title>
<path fill="none" stroke="#000000" stroke-width="2" d="M183.5,-460.13C255.18,-464.3 252.24,-398.91 326.15,-369.48 373.51,-352.66 1159.42,-259.53 1209.25,-259.5"/>
<path fill="none" stroke="#8000ff" stroke-width="2" d="M183.5,-462.13C257.18,-464.21 254.24,-398.82 326.83,-371.37 373.75,-354.64 1159.65,-261.51 1209.25,-261.5"/>
<path fill="none" stroke="#8000ff" stroke-width="2" d="M183.5,-464.12C259.18,-464.12 256.24,-398.73 327.5,-373.25 373.98,-356.63 1159.89,-263.5 1209.25,-263.5"/>
<path fill="none" stroke="#8000ff" stroke-width="2" d="M183.5,-466.12C261.18,-464.04 258.24,-398.64 328.17,-375.13 374.22,-358.62 1160.12,-265.49 1209.25,-265.5"/>
<path fill="none" stroke="#000000" stroke-width="2" d="M183.5,-468.12C263.17,-463.95 260.24,-398.55 328.85,-377.02 374.45,-360.6 1160.36,-267.47 1209.25,-267.5"/>
</g>
<!-- LPWR -->
<g id="node16" class="node">
<title>LPWR</title>
<polygon fill="#ffffff" stroke="black" points="633.5,-305.5 392,-305.5 392,-165 633.5,-165 633.5,-305.5"/>
<polygon fill="none" stroke="black" points="392,-281.75 392,-305.5 633.5,-305.5 633.5,-281.75 392,-281.75"/>
<text text-anchor="start" x="492.88" y="-288.2" font-family="arial" font-size="14.00">LPWR</text>
<polygon fill="none" stroke="black" points="392,-258 392,-281.75 633.5,-281.75 633.5,-258 392,-258"/>
<text text-anchor="start" x="505.62" y="-264.45" font-family="arial" font-size="14.00">1x</text>
<text text-anchor="start" x="433.38" y="-242.7" font-family="arial" font-size="14.00"> </text>
<text text-anchor="start" x="394" y="-222.95" font-family="arial" font-size="14.00">DB25:13:Viso</text>
<text text-anchor="start" x="480.5" y="-222.95" font-family="arial" font-size="14.00"> &#160;&#160;&#160;&#160;1:RD &#160;&#160;&#160;</text>
<text text-anchor="start" x="549" y="-222.95" font-family="arial" font-size="14.00">EXT5V:1:+5V</text>
<polygon fill="#000000" stroke="none" points="392,-216.5 392,-218.5 633.5,-218.5 633.5,-216.5 392,-216.5"/>
<polygon fill="#ff0000" stroke="none" points="392,-214.5 392,-216.5 633.5,-216.5 633.5,-214.5 392,-214.5"/>
<polygon fill="#ff0000" stroke="none" points="392,-212.5 392,-214.5 633.5,-214.5 633.5,-212.5 392,-212.5"/>
<polygon fill="#ff0000" stroke="none" points="392,-210.5 392,-212.5 633.5,-212.5 633.5,-210.5 392,-210.5"/>
<polygon fill="#000000" stroke="none" points="392,-208.5 392,-210.5 633.5,-210.5 633.5,-208.5 392,-208.5"/>
<text text-anchor="start" x="433.38" y="-193.2" font-family="arial" font-size="14.00"> </text>
<polygon fill="none" stroke="black" points="392,-165 392,-188.75 633.5,-188.75 633.5,-165 392,-165"/>
<text text-anchor="start" x="468.88" y="-171.45" font-family="arial" font-size="14.00">Viso → Ext 5V</text>
</g>
<!-- DB25&#45;&#45;LPWR -->
<g id="edge33" class="edge">
<title>DB25:e&#45;&#45;LPWR:w</title>
<path fill="none" stroke="#000000" stroke-width="2" d="M183.5,-436.38C316.3,-441.49 250.51,-214.61 391,-209.5"/>
<path fill="none" stroke="#ff0000" stroke-width="2" d="M183.5,-438.38C318.23,-440.93 252.43,-214.06 391,-211.5"/>
<path fill="none" stroke="#ff0000" stroke-width="2" d="M183.5,-440.38C320.15,-440.38 254.35,-213.5 391,-213.5"/>
<path fill="none" stroke="#ff0000" stroke-width="2" d="M183.5,-442.37C322.07,-439.82 256.27,-212.94 391,-215.5"/>
<path fill="none" stroke="#000000" stroke-width="2" d="M183.5,-444.37C323.99,-439.26 258.2,-212.39 391,-217.5"/>
</g>
<!-- LGND -->
<g id="node17" class="node">
<title>LGND</title>
<polygon fill="#ffffff" stroke="black" points="636.12,-140.5 389.38,-140.5 389.38,0 636.12,0 636.12,-140.5"/>
<polygon fill="none" stroke="black" points="389.38,-116.75 389.38,-140.5 636.12,-140.5 636.12,-116.75 389.38,-116.75"/>
<text text-anchor="start" x="493.62" y="-123.2" font-family="arial" font-size="14.00">LGND</text>
<polygon fill="none" stroke="black" points="389.38,-93 389.38,-116.75 636.12,-116.75 636.12,-93 389.38,-93"/>
<text text-anchor="start" x="505.62" y="-99.45" font-family="arial" font-size="14.00">1x</text>
<text text-anchor="start" x="431.12" y="-77.7" font-family="arial" font-size="14.00"> </text>
<text text-anchor="start" x="391.38" y="-57.95" font-family="arial" font-size="14.00">DB25:22:Ciso</text>
<text text-anchor="start" x="478.62" y="-57.95" font-family="arial" font-size="14.00"> &#160;&#160;&#160;&#160;1:BK &#160;&#160;&#160;</text>
<text text-anchor="start" x="545.62" y="-57.95" font-family="arial" font-size="14.00">EXT5V:2:GND</text>
<polygon fill="#000000" stroke="none" points="389.38,-51.5 389.38,-53.5 636.12,-53.5 636.12,-51.5 389.38,-51.5"/>
<polygon fill="#000000" stroke="none" points="389.38,-49.5 389.38,-51.5 636.12,-51.5 636.12,-49.5 389.38,-49.5"/>
<polygon fill="#000000" stroke="none" points="389.38,-47.5 389.38,-49.5 636.12,-49.5 636.12,-47.5 389.38,-47.5"/>
<polygon fill="#000000" stroke="none" points="389.38,-45.5 389.38,-47.5 636.12,-47.5 636.12,-45.5 389.38,-45.5"/>
<polygon fill="#000000" stroke="none" points="389.38,-43.5 389.38,-45.5 636.12,-45.5 636.12,-43.5 389.38,-43.5"/>
<text text-anchor="start" x="431.12" y="-28.2" font-family="arial" font-size="14.00"> </text>
<polygon fill="none" stroke="black" points="389.38,0 389.38,-23.75 636.12,-23.75 636.12,0 389.38,0"/>
<text text-anchor="start" x="451.25" y="-6.45" font-family="arial" font-size="14.00">Ciso → Ext 5V GND</text>
</g>
<!-- DB25&#45;&#45;LGND -->
<g id="edge35" class="edge">
<title>DB25:e&#45;&#45;LGND:w</title>
<path fill="none" stroke="#000000" stroke-width="2" d="M183.5,-412.63C367.11,-418.3 197.5,-50.17 388.38,-44.5"/>
<path fill="none" stroke="#000000" stroke-width="2" d="M183.5,-414.63C368.93,-417.46 199.32,-49.34 388.38,-46.5"/>
<path fill="none" stroke="#000000" stroke-width="2" d="M183.5,-416.62C370.74,-416.62 201.13,-48.5 388.38,-48.5"/>
<path fill="none" stroke="#000000" stroke-width="2" d="M183.5,-418.62C372.56,-415.79 202.95,-47.66 388.38,-50.5"/>
<path fill="none" stroke="#000000" stroke-width="2" d="M183.5,-420.62C374.38,-414.95 204.77,-46.83 388.38,-52.5"/>
</g>
<!-- MC508_ENC -->
<g id="node2" class="node">
<title>MC508_ENC</title>
<polygon fill="#ffffff" stroke="black" points="1058.5,-761.5 848.75,-761.5 848.75,-429 1058.5,-429 1058.5,-761.5"/>
<polygon fill="none" stroke="black" points="848.75,-737.75 848.75,-761.5 1058.5,-761.5 1058.5,-737.75 848.75,-737.75"/>
<text text-anchor="start" x="913.5" y="-744.2" font-family="arial" font-size="14.00">MC508_ENC</text>
<polygon fill="none" stroke="black" points="848.75,-714 848.75,-737.75 960.75,-737.75 960.75,-714 848.75,-714"/>
<text text-anchor="start" x="879.25" y="-720.45" font-family="arial" font-size="14.00">MDR&#45;20</text>
<polygon fill="none" stroke="black" points="960.75,-714 960.75,-737.75 1058.5,-737.75 1058.5,-714 960.75,-714"/>
<text text-anchor="start" x="991.25" y="-720.45" font-family="arial" font-size="14.00">11&#45;pin</text>
<polygon fill="none" stroke="black" points="848.75,-690.25 848.75,-714 902.67,-714 902.67,-690.25 848.75,-690.25"/>
<text text-anchor="start" x="871.96" y="-696.7" font-family="arial" font-size="14.00">1</text>
<polygon fill="none" stroke="black" points="902.67,-690.25 902.67,-714 1004.58,-714 1004.58,-690.25 902.67,-690.25"/>
<text text-anchor="start" x="931.88" y="-696.7" font-family="arial" font-size="14.00">Enc A+</text>
<polygon fill="none" stroke="black" points="1004.58,-690.25 1004.58,-714 1058.5,-714 1058.5,-690.25 1004.58,-690.25"/>
<text text-anchor="start" x="1027.79" y="-696.7" font-family="arial" font-size="14.00">1</text>
<polygon fill="none" stroke="black" points="848.75,-666.5 848.75,-690.25 902.67,-690.25 902.67,-666.5 848.75,-666.5"/>
<text text-anchor="start" x="871.96" y="-672.95" font-family="arial" font-size="14.00">2</text>
<polygon fill="none" stroke="black" points="902.67,-666.5 902.67,-690.25 1004.58,-690.25 1004.58,-666.5 902.67,-666.5"/>
<text text-anchor="start" x="934.12" y="-672.95" font-family="arial" font-size="14.00">/Enc A</text>
<polygon fill="none" stroke="black" points="1004.58,-666.5 1004.58,-690.25 1058.5,-690.25 1058.5,-666.5 1004.58,-666.5"/>
<text text-anchor="start" x="1027.79" y="-672.95" font-family="arial" font-size="14.00">2</text>
<polygon fill="none" stroke="black" points="848.75,-642.75 848.75,-666.5 902.67,-666.5 902.67,-642.75 848.75,-642.75"/>
<text text-anchor="start" x="871.96" y="-649.2" font-family="arial" font-size="14.00">3</text>
<polygon fill="none" stroke="black" points="902.67,-642.75 902.67,-666.5 1004.58,-666.5 1004.58,-642.75 902.67,-642.75"/>
<text text-anchor="start" x="931.5" y="-649.2" font-family="arial" font-size="14.00">Enc B+</text>
<polygon fill="none" stroke="black" points="1004.58,-642.75 1004.58,-666.5 1058.5,-666.5 1058.5,-642.75 1004.58,-642.75"/>
<text text-anchor="start" x="1027.79" y="-649.2" font-family="arial" font-size="14.00">3</text>
<polygon fill="none" stroke="black" points="848.75,-619 848.75,-642.75 902.67,-642.75 902.67,-619 848.75,-619"/>
<text text-anchor="start" x="871.96" y="-625.45" font-family="arial" font-size="14.00">4</text>
<polygon fill="none" stroke="black" points="902.67,-619 902.67,-642.75 1004.58,-642.75 1004.58,-619 902.67,-619"/>
<text text-anchor="start" x="933.75" y="-625.45" font-family="arial" font-size="14.00">/Enc B</text>
<polygon fill="none" stroke="black" points="1004.58,-619 1004.58,-642.75 1058.5,-642.75 1058.5,-619 1004.58,-619"/>
<text text-anchor="start" x="1027.79" y="-625.45" font-family="arial" font-size="14.00">4</text>
<polygon fill="none" stroke="black" points="848.75,-595.25 848.75,-619 902.67,-619 902.67,-595.25 848.75,-595.25"/>
<text text-anchor="start" x="868.58" y="-601.7" font-family="arial" font-size="14.00">11</text>
<polygon fill="none" stroke="black" points="902.67,-595.25 902.67,-619 1004.58,-619 1004.58,-595.25 902.67,-595.25"/>
<text text-anchor="start" x="931.88" y="-601.7" font-family="arial" font-size="14.00">Enc Z+</text>
<polygon fill="none" stroke="black" points="1004.58,-595.25 1004.58,-619 1058.5,-619 1058.5,-595.25 1004.58,-595.25"/>
<text text-anchor="start" x="1024.42" y="-601.7" font-family="arial" font-size="14.00">11</text>
<polygon fill="none" stroke="black" points="848.75,-571.5 848.75,-595.25 902.67,-595.25 902.67,-571.5 848.75,-571.5"/>
<text text-anchor="start" x="868.21" y="-577.95" font-family="arial" font-size="14.00">12</text>
<polygon fill="none" stroke="black" points="902.67,-571.5 902.67,-595.25 1004.58,-595.25 1004.58,-571.5 902.67,-571.5"/>
<text text-anchor="start" x="934.12" y="-577.95" font-family="arial" font-size="14.00">/Enc Z</text>
<polygon fill="none" stroke="black" points="1004.58,-571.5 1004.58,-595.25 1058.5,-595.25 1058.5,-571.5 1004.58,-571.5"/>
<text text-anchor="start" x="1024.04" y="-577.95" font-family="arial" font-size="14.00">12</text>
<polygon fill="none" stroke="black" points="848.75,-547.75 848.75,-571.5 902.67,-571.5 902.67,-547.75 848.75,-547.75"/>
<text text-anchor="start" x="871.96" y="-554.2" font-family="arial" font-size="14.00">5</text>
<polygon fill="none" stroke="black" points="902.67,-547.75 902.67,-571.5 1004.58,-571.5 1004.58,-547.75 902.67,-547.75"/>
<text text-anchor="start" x="927.75" y="-554.2" font-family="arial" font-size="14.00">+5V Enc</text>
<polygon fill="none" stroke="black" points="1004.58,-547.75 1004.58,-571.5 1058.5,-571.5 1058.5,-547.75 1004.58,-547.75"/>
<text text-anchor="start" x="1027.79" y="-554.2" font-family="arial" font-size="14.00">5</text>
<polygon fill="none" stroke="black" points="848.75,-524 848.75,-547.75 902.67,-547.75 902.67,-524 848.75,-524"/>
<text text-anchor="start" x="868.21" y="-530.45" font-family="arial" font-size="14.00">15</text>
<polygon fill="none" stroke="black" points="902.67,-524 902.67,-547.75 1004.58,-547.75 1004.58,-524 902.67,-524"/>
<text text-anchor="start" x="945.38" y="-530.45" font-family="arial" font-size="14.00">0V</text>
<polygon fill="none" stroke="black" points="1004.58,-524 1004.58,-547.75 1058.5,-547.75 1058.5,-524 1004.58,-524"/>
<text text-anchor="start" x="1024.04" y="-530.45" font-family="arial" font-size="14.00">15</text>
<polygon fill="none" stroke="black" points="848.75,-500.25 848.75,-524 902.67,-524 902.67,-500.25 848.75,-500.25"/>
<text text-anchor="start" x="871.96" y="-506.7" font-family="arial" font-size="14.00">9</text>
<polygon fill="none" stroke="black" points="902.67,-500.25 902.67,-524 1004.58,-524 1004.58,-500.25 902.67,-500.25"/>
<text text-anchor="start" x="932.62" y="-506.7" font-family="arial" font-size="14.00">Input A</text>
<polygon fill="none" stroke="black" points="1004.58,-500.25 1004.58,-524 1058.5,-524 1058.5,-500.25 1004.58,-500.25"/>
<text text-anchor="start" x="1027.79" y="-506.7" font-family="arial" font-size="14.00">9</text>
<polygon fill="none" stroke="black" points="848.75,-476.5 848.75,-500.25 902.67,-500.25 902.67,-476.5 848.75,-476.5"/>
<text text-anchor="start" x="868.21" y="-482.95" font-family="arial" font-size="14.00">20</text>
<polygon fill="none" stroke="black" points="902.67,-476.5 902.67,-500.25 1004.58,-500.25 1004.58,-476.5 902.67,-476.5"/>
<text text-anchor="start" x="932.25" y="-482.95" font-family="arial" font-size="14.00">Input B</text>
<polygon fill="none" stroke="black" points="1004.58,-476.5 1004.58,-500.25 1058.5,-500.25 1058.5,-476.5 1004.58,-476.5"/>
<text text-anchor="start" x="1024.04" y="-482.95" font-family="arial" font-size="14.00">20</text>
<polygon fill="none" stroke="black" points="848.75,-452.75 848.75,-476.5 902.67,-476.5 902.67,-452.75 848.75,-452.75"/>
<text text-anchor="start" x="868.21" y="-459.2" font-family="arial" font-size="14.00">10</text>
<polygon fill="none" stroke="black" points="902.67,-452.75 902.67,-476.5 1004.58,-476.5 1004.58,-452.75 902.67,-452.75"/>
<text text-anchor="start" x="922.12" y="-459.2" font-family="arial" font-size="14.00">Input Com</text>
<polygon fill="none" stroke="black" points="1004.58,-452.75 1004.58,-476.5 1058.5,-476.5 1058.5,-452.75 1004.58,-452.75"/>
<text text-anchor="start" x="1024.04" y="-459.2" font-family="arial" font-size="14.00">10</text>
<polygon fill="none" stroke="black" points="848.75,-429 848.75,-452.75 1058.5,-452.75 1058.5,-429 848.75,-429"/>
<text text-anchor="start" x="852.75" y="-435.45" font-family="arial" font-size="14.00">MC508 Encoder Port (ATYPE 76)</text>
</g>
<!-- ICOM_SCSI -->
<g id="node12" class="node">
<title>ICOM_SCSI</title>
<polygon fill="#ffffff" stroke="black" points="1480.75,-807.5 1234.75,-807.5 1234.75,-667 1480.75,-667 1480.75,-807.5"/>
<polygon fill="none" stroke="black" points="1234.75,-783.75 1234.75,-807.5 1480.75,-807.5 1480.75,-783.75 1234.75,-783.75"/>
<text text-anchor="start" x="1319.88" y="-790.2" font-family="arial" font-size="14.00">ICOM_SCSI</text>
<polygon fill="none" stroke="black" points="1234.75,-760 1234.75,-783.75 1480.75,-783.75 1480.75,-760 1234.75,-760"/>
<text text-anchor="start" x="1350.62" y="-766.45" font-family="arial" font-size="14.00">1x</text>
<text text-anchor="start" x="1317.75" y="-744.7" font-family="arial" font-size="14.00"> </text>
<text text-anchor="start" x="1236.75" y="-724.95" font-family="arial" font-size="14.00">MC508_ENC:10:Input Com</text>
<text text-anchor="start" x="1406.5" y="-724.95" font-family="arial" font-size="14.00"> &#160;&#160;&#160;&#160;1:WH &#160;&#160;&#160;</text>
<polygon fill="#000000" stroke="none" points="1234.75,-718.5 1234.75,-720.5 1480.75,-720.5 1480.75,-718.5 1234.75,-718.5"/>
<polygon fill="#ffffff" stroke="none" points="1234.75,-716.5 1234.75,-718.5 1480.75,-718.5 1480.75,-716.5 1234.75,-716.5"/>
<polygon fill="#ffffff" stroke="none" points="1234.75,-714.5 1234.75,-716.5 1480.75,-716.5 1480.75,-714.5 1234.75,-714.5"/>
<polygon fill="#ffffff" stroke="none" points="1234.75,-712.5 1234.75,-714.5 1480.75,-714.5 1480.75,-712.5 1234.75,-712.5"/>
<polygon fill="#000000" stroke="none" points="1234.75,-710.5 1234.75,-712.5 1480.75,-712.5 1480.75,-710.5 1234.75,-710.5"/>
<text text-anchor="start" x="1317.75" y="-695.2" font-family="arial" font-size="14.00"> </text>
<polygon fill="none" stroke="black" points="1234.75,-667 1234.75,-690.75 1480.75,-690.75 1480.75,-667 1234.75,-667"/>
<text text-anchor="start" x="1294.38" y="-673.45" font-family="arial" font-size="14.00">Input Com SCSI wire</text>
</g>
<!-- MC508_ENC&#45;&#45;ICOM_SCSI -->
<g id="edge25" class="edge">
<title>MC508_ENC:e&#45;&#45;ICOM_SCSI:w</title>
<path fill="none" stroke="#000000" stroke-width="2" d="M1059.5,-460.63C1198.99,-466.07 1101.72,-716.95 1233.75,-711.5"/>
<path fill="none" stroke="#ffffff" stroke-width="2" d="M1059.5,-462.63C1197.12,-465.35 1099.86,-716.22 1233.75,-713.5"/>
<path fill="none" stroke="#ffffff" stroke-width="2" d="M1059.5,-464.62C1195.26,-464.62 1097.99,-715.5 1233.75,-715.5"/>
<path fill="none" stroke="#ffffff" stroke-width="2" d="M1059.5,-466.62C1193.39,-463.9 1096.13,-714.78 1233.75,-717.5"/>
<path fill="none" stroke="#000000" stroke-width="2" d="M1059.5,-468.62C1191.53,-463.18 1094.26,-714.05 1233.75,-719.5"/>
</g>
<!-- MIC2981 -->
<g id="node3" class="node">
<title>MIC2981</title>
<polygon fill="#ffffff" stroke="black" points="3382.25,-593.12 3132,-593.12 3132,-379.38 3382.25,-379.38 3382.25,-593.12"/>
<polygon fill="none" stroke="black" points="3132,-569.38 3132,-593.12 3382.25,-593.12 3382.25,-569.38 3132,-569.38"/>
<text text-anchor="start" x="3229.38" y="-575.83" font-family="arial" font-size="14.00">MIC2981</text>
<polygon fill="none" stroke="black" points="3132,-545.62 3132,-569.38 3263.12,-569.38 3263.12,-545.62 3132,-545.62"/>
<text text-anchor="start" x="3176.56" y="-552.08" font-family="arial" font-size="14.00">DIP&#45;18</text>
<polygon fill="none" stroke="black" points="3263.12,-545.62 3263.12,-569.38 3382.25,-569.38 3382.25,-545.62 3263.12,-545.62"/>
<text text-anchor="start" x="3307.69" y="-552.08" font-family="arial" font-size="14.00">6&#45;pin</text>
<polygon fill="none" stroke="black" points="3132,-521.88 3132,-545.62 3203.17,-545.62 3203.17,-521.88 3132,-521.88"/>
<text text-anchor="start" x="3163.83" y="-528.33" font-family="arial" font-size="14.00">1</text>
<polygon fill="none" stroke="black" points="3203.17,-521.88 3203.17,-545.62 3311.08,-545.62 3311.08,-521.88 3203.17,-521.88"/>
<text text-anchor="start" x="3236.88" y="-528.33" font-family="arial" font-size="14.00">In Fwd</text>
<polygon fill="none" stroke="black" points="3311.08,-521.88 3311.08,-545.62 3382.25,-545.62 3382.25,-521.88 3311.08,-521.88"/>
<text text-anchor="start" x="3342.92" y="-528.33" font-family="arial" font-size="14.00">1</text>
<polygon fill="none" stroke="black" points="3132,-498.12 3132,-521.88 3203.17,-521.88 3203.17,-498.12 3132,-498.12"/>
<text text-anchor="start" x="3163.83" y="-504.57" font-family="arial" font-size="14.00">2</text>
<polygon fill="none" stroke="black" points="3203.17,-498.12 3203.17,-521.88 3311.08,-521.88 3311.08,-498.12 3203.17,-498.12"/>
<text text-anchor="start" x="3237.62" y="-504.57" font-family="arial" font-size="14.00">In Rev</text>
<polygon fill="none" stroke="black" points="3311.08,-498.12 3311.08,-521.88 3382.25,-521.88 3382.25,-498.12 3311.08,-498.12"/>
<text text-anchor="start" x="3342.92" y="-504.57" font-family="arial" font-size="14.00">2</text>
<polygon fill="none" stroke="black" points="3132,-474.38 3132,-498.12 3203.17,-498.12 3203.17,-474.38 3132,-474.38"/>
<text text-anchor="start" x="3163.83" y="-480.82" font-family="arial" font-size="14.00">9</text>
<polygon fill="none" stroke="black" points="3203.17,-474.38 3203.17,-498.12 3311.08,-498.12 3311.08,-474.38 3203.17,-474.38"/>
<text text-anchor="start" x="3249.25" y="-480.82" font-family="arial" font-size="14.00">Vs</text>
<polygon fill="none" stroke="black" points="3311.08,-474.38 3311.08,-498.12 3382.25,-498.12 3382.25,-474.38 3311.08,-474.38"/>
<text text-anchor="start" x="3342.92" y="-480.82" font-family="arial" font-size="14.00">9</text>
<polygon fill="none" stroke="black" points="3132,-450.62 3132,-474.38 3203.17,-474.38 3203.17,-450.62 3132,-450.62"/>
<text text-anchor="start" x="3160.08" y="-457.07" font-family="arial" font-size="14.00">10</text>
<polygon fill="none" stroke="black" points="3203.17,-450.62 3203.17,-474.38 3311.08,-474.38 3311.08,-450.62 3203.17,-450.62"/>
<text text-anchor="start" x="3241.75" y="-457.07" font-family="arial" font-size="14.00">GND</text>
<polygon fill="none" stroke="black" points="3311.08,-450.62 3311.08,-474.38 3382.25,-474.38 3382.25,-450.62 3311.08,-450.62"/>
<text text-anchor="start" x="3339.17" y="-457.07" font-family="arial" font-size="14.00">10</text>
<polygon fill="none" stroke="black" points="3132,-426.88 3132,-450.62 3203.17,-450.62 3203.17,-426.88 3132,-426.88"/>
<text text-anchor="start" x="3160.46" y="-433.32" font-family="arial" font-size="14.00">11</text>
<polygon fill="none" stroke="black" points="3203.17,-426.88 3203.17,-450.62 3311.08,-450.62 3311.08,-426.88 3203.17,-426.88"/>
<text text-anchor="start" x="3231.25" y="-433.32" font-family="arial" font-size="14.00">Out Fwd</text>
<polygon fill="none" stroke="black" points="3311.08,-426.88 3311.08,-450.62 3382.25,-450.62 3382.25,-426.88 3311.08,-426.88"/>
<text text-anchor="start" x="3339.54" y="-433.32" font-family="arial" font-size="14.00">11</text>
<polygon fill="none" stroke="black" points="3132,-403.12 3132,-426.88 3203.17,-426.88 3203.17,-403.12 3132,-403.12"/>
<text text-anchor="start" x="3160.08" y="-409.57" font-family="arial" font-size="14.00">18</text>
<polygon fill="none" stroke="black" points="3203.17,-403.12 3203.17,-426.88 3311.08,-426.88 3311.08,-403.12 3203.17,-403.12"/>
<text text-anchor="start" x="3232" y="-409.57" font-family="arial" font-size="14.00">Out Rev</text>
<polygon fill="none" stroke="black" points="3311.08,-403.12 3311.08,-426.88 3382.25,-426.88 3382.25,-403.12 3311.08,-403.12"/>
<text text-anchor="start" x="3339.17" y="-409.57" font-family="arial" font-size="14.00">18</text>
<polygon fill="none" stroke="black" points="3132,-379.38 3132,-403.12 3382.25,-403.12 3382.25,-379.38 3132,-379.38"/>
<text text-anchor="start" x="3136" y="-385.82" font-family="arial" font-size="14.00">MIC2981/82YN High&#45;Side Source Driver</text>
</g>
<!-- UFWD -->
<g id="node10" class="node">
<title>UFWD</title>
<polygon fill="#ffffff" stroke="black" points="3884.38,-604.5 3540.88,-604.5 3540.88,-464 3884.38,-464 3884.38,-604.5"/>
<polygon fill="none" stroke="black" points="3540.88,-580.75 3540.88,-604.5 3884.38,-604.5 3884.38,-580.75 3540.88,-580.75"/>
<text text-anchor="start" x="3692" y="-587.2" font-family="arial" font-size="14.00">UFWD</text>
<polygon fill="none" stroke="black" points="3540.88,-557 3540.88,-580.75 3884.38,-580.75 3884.38,-557 3540.88,-557"/>
<text text-anchor="start" x="3705.5" y="-563.45" font-family="arial" font-size="14.00">1x</text>
<text text-anchor="start" x="3605.5" y="-541.7" font-family="arial" font-size="14.00"> </text>
<text text-anchor="start" x="3542.88" y="-521.95" font-family="arial" font-size="14.00">MIC2981:11:Out Fwd</text>
<text text-anchor="start" x="3675.88" y="-521.95" font-family="arial" font-size="14.00"> &#160;&#160;&#160;&#160;1:GY &#160;&#160;&#160;</text>
<text text-anchor="start" x="3745.12" y="-521.95" font-family="arial" font-size="14.00">MC508_ENC:9:Input A</text>
<polygon fill="#000000" stroke="none" points="3540.88,-515.5 3540.88,-517.5 3884.38,-517.5 3884.38,-515.5 3540.88,-515.5"/>
<polygon fill="#999999" stroke="none" points="3540.88,-513.5 3540.88,-515.5 3884.38,-515.5 3884.38,-513.5 3540.88,-513.5"/>
<polygon fill="#999999" stroke="none" points="3540.88,-511.5 3540.88,-513.5 3884.38,-513.5 3884.38,-511.5 3540.88,-511.5"/>
<polygon fill="#999999" stroke="none" points="3540.88,-509.5 3540.88,-511.5 3884.38,-511.5 3884.38,-509.5 3540.88,-509.5"/>
<polygon fill="#000000" stroke="none" points="3540.88,-507.5 3540.88,-509.5 3884.38,-509.5 3884.38,-507.5 3540.88,-507.5"/>
<text text-anchor="start" x="3605.5" y="-492.2" font-family="arial" font-size="14.00"> </text>
<polygon fill="none" stroke="black" points="3540.88,-464 3540.88,-487.75 3884.38,-487.75 3884.38,-464 3540.88,-464"/>
<text text-anchor="start" x="3617.75" y="-470.45" font-family="arial" font-size="14.00">MIC2981 out → MC508 Input A</text>
</g>
<!-- MIC2981&#45;&#45;UFWD -->
<g id="edge21" class="edge">
<title>MIC2981:e&#45;&#45;UFWD:w</title>
<path fill="none" stroke="#000000" stroke-width="2" d="M3382.25,-434.75C3463.59,-438.59 3466.53,-512.34 3539.88,-508.5"/>
<path fill="none" stroke="#999999" stroke-width="2" d="M3382.25,-436.75C3461.59,-438.67 3464.53,-512.42 3539.88,-510.5"/>
<path fill="none" stroke="#999999" stroke-width="2" d="M3382.25,-438.75C3459.59,-438.75 3462.53,-512.5 3539.88,-512.5"/>
<path fill="none" stroke="#999999" stroke-width="2" d="M3382.25,-440.75C3457.6,-438.83 3460.53,-512.58 3539.88,-514.5"/>
<path fill="none" stroke="#000000" stroke-width="2" d="M3382.25,-442.75C3455.6,-438.91 3458.53,-512.66 3539.88,-516.5"/>
</g>
<!-- UREV -->
<g id="node11" class="node">
<title>UREV</title>
<polygon fill="#ffffff" stroke="black" points="3899,-437.5 3526.25,-437.5 3526.25,-297 3899,-297 3899,-437.5"/>
<polygon fill="none" stroke="black" points="3526.25,-413.75 3526.25,-437.5 3899,-437.5 3899,-413.75 3526.25,-413.75"/>
<text text-anchor="start" x="3693.88" y="-420.2" font-family="arial" font-size="14.00">UREV</text>
<polygon fill="none" stroke="black" points="3526.25,-390 3526.25,-413.75 3899,-413.75 3899,-390 3526.25,-390"/>
<text text-anchor="start" x="3705.5" y="-396.45" font-family="arial" font-size="14.00">1x</text>
<text text-anchor="start" x="3590.5" y="-374.7" font-family="arial" font-size="14.00"> </text>
<text text-anchor="start" x="3528.25" y="-354.95" font-family="arial" font-size="14.00">MIC2981:18:Out Rev</text>
<text text-anchor="start" x="3660.5" y="-354.95" font-family="arial" font-size="14.00"> &#160;&#160;&#160;&#160;1:WHBU &#160;&#160;&#160;</text>
<text text-anchor="start" x="3751.5" y="-354.95" font-family="arial" font-size="14.00">MC508_ENC:20:Input B</text>
<polygon fill="#000000" stroke="none" points="3526.25,-348.5 3526.25,-350.5 3899,-350.5 3899,-348.5 3526.25,-348.5"/>
<polygon fill="#ffffff" stroke="none" points="3526.25,-346.5 3526.25,-348.5 3899,-348.5 3899,-346.5 3526.25,-346.5"/>
<polygon fill="#0066ff" stroke="none" points="3526.25,-344.5 3526.25,-346.5 3899,-346.5 3899,-344.5 3526.25,-344.5"/>
<polygon fill="#ffffff" stroke="none" points="3526.25,-342.5 3526.25,-344.5 3899,-344.5 3899,-342.5 3526.25,-342.5"/>
<polygon fill="#000000" stroke="none" points="3526.25,-340.5 3526.25,-342.5 3899,-342.5 3899,-340.5 3526.25,-340.5"/>
<text text-anchor="start" x="3590.5" y="-325.2" font-family="arial" font-size="14.00"> </text>
<polygon fill="none" stroke="black" points="3526.25,-297 3526.25,-320.75 3899,-320.75 3899,-297 3526.25,-297"/>
<text text-anchor="start" x="3617.38" y="-303.45" font-family="arial" font-size="14.00">MIC2981 out → MC508 Input B</text>
</g>
<!-- MIC2981&#45;&#45;UREV -->
<g id="edge23" class="edge">
<title>MIC2981:e&#45;&#45;UREV:w</title>
<path fill="none" stroke="#000000" stroke-width="2" d="M3382.25,-411C3449.32,-414.89 3451.19,-345.39 3526.25,-341.5"/>
<path fill="none" stroke="#ffffff" stroke-width="2" d="M3382.25,-413C3451.31,-414.95 3453.19,-345.45 3526.25,-343.5"/>
<path fill="none" stroke="#0066ff" stroke-width="2" d="M3382.25,-415C3453.31,-415 3455.19,-345.5 3526.25,-345.5"/>
<path fill="none" stroke="#ffffff" stroke-width="2" d="M3382.25,-417C3455.31,-415.05 3457.19,-345.55 3526.25,-347.5"/>
<path fill="none" stroke="#000000" stroke-width="2" d="M3382.25,-419C3457.31,-415.11 3459.18,-345.61 3526.25,-349.5"/>
</g>
<!-- UGND -->
<g id="node15" class="node">
<title>UGND</title>
<polygon fill="#ffffff" stroke="black" points="3804.5,-770.5 3620.75,-770.5 3620.75,-630 3804.5,-630 3804.5,-770.5"/>
<polygon fill="none" stroke="black" points="3620.75,-746.75 3620.75,-770.5 3804.5,-770.5 3804.5,-746.75 3620.75,-746.75"/>
<text text-anchor="start" x="3692.38" y="-753.2" font-family="arial" font-size="14.00">UGND</text>
<polygon fill="none" stroke="black" points="3620.75,-723 3620.75,-746.75 3804.5,-746.75 3804.5,-723 3620.75,-723"/>
<text text-anchor="start" x="3705.5" y="-729.45" font-family="arial" font-size="14.00">1x</text>
<text text-anchor="start" x="3675.25" y="-707.7" font-family="arial" font-size="14.00"> </text>
<text text-anchor="start" x="3622.75" y="-687.95" font-family="arial" font-size="14.00">MIC2981:10:GND</text>
<text text-anchor="start" x="3735.5" y="-687.95" font-family="arial" font-size="14.00"> &#160;&#160;&#160;&#160;1:BK &#160;&#160;&#160;</text>
<polygon fill="#000000" stroke="none" points="3620.75,-681.5 3620.75,-683.5 3804.5,-683.5 3804.5,-681.5 3620.75,-681.5"/>
<polygon fill="#000000" stroke="none" points="3620.75,-679.5 3620.75,-681.5 3804.5,-681.5 3804.5,-679.5 3620.75,-679.5"/>
<polygon fill="#000000" stroke="none" points="3620.75,-677.5 3620.75,-679.5 3804.5,-679.5 3804.5,-677.5 3620.75,-677.5"/>
<polygon fill="#000000" stroke="none" points="3620.75,-675.5 3620.75,-677.5 3804.5,-677.5 3804.5,-675.5 3620.75,-675.5"/>
<polygon fill="#000000" stroke="none" points="3620.75,-673.5 3620.75,-675.5 3804.5,-675.5 3804.5,-673.5 3620.75,-673.5"/>
<text text-anchor="start" x="3675.25" y="-658.2" font-family="arial" font-size="14.00"> </text>
<polygon fill="none" stroke="black" points="3620.75,-630 3620.75,-653.75 3804.5,-653.75 3804.5,-630 3620.75,-630"/>
<text text-anchor="start" x="3634.62" y="-636.45" font-family="arial" font-size="14.00">MIC2981 GND → 24V 0V</text>
</g>
<!-- MIC2981&#45;&#45;UGND -->
<g id="edge31" class="edge">
<title>MIC2981:e&#45;&#45;UGND:w</title>
<path fill="none" stroke="#000000" stroke-width="2" d="M3382.25,-458.5C3528.84,-463.37 3480.97,-679.37 3619.75,-674.5"/>
<path fill="none" stroke="#000000" stroke-width="2" d="M3382.25,-460.5C3526.88,-462.93 3479.02,-678.93 3619.75,-676.5"/>
<path fill="none" stroke="#000000" stroke-width="2" d="M3382.25,-462.5C3524.93,-462.5 3477.07,-678.5 3619.75,-678.5"/>
<path fill="none" stroke="#000000" stroke-width="2" d="M3382.25,-464.5C3522.98,-462.07 3475.12,-678.07 3619.75,-680.5"/>
<path fill="none" stroke="#000000" stroke-width="2" d="M3382.25,-466.5C3521.03,-461.63 3473.16,-677.63 3619.75,-682.5"/>
</g>
<!-- TIE_0V -->
<g id="node4" class="node">
<title>TIE_0V</title>
<polygon fill="#ffffff" stroke="black" points="1838.75,-740 1763.25,-740 1763.25,-692.5 1838.75,-692.5 1838.75,-740"/>
<polygon fill="none" stroke="black" points="1763.25,-716.25 1763.25,-740 1838.75,-740 1838.75,-716.25 1763.25,-716.25"/>
<text text-anchor="start" x="1782.62" y="-722.7" font-family="arial" font-size="14.00">Splice</text>
<polygon fill="none" stroke="black" points="1763.25,-692.5 1763.25,-716.25 1838.75,-716.25 1838.75,-692.5 1763.25,-692.5"/>
<text text-anchor="start" x="1767.25" y="-698.95" font-family="arial" font-size="14.00">0V tie point</text>
</g>
<!-- ICOM_TIE -->
<g id="node13" class="node">
<title>ICOM_TIE</title>
<polygon fill="#ffffff" stroke="black" points="2256.25,-857.5 2095.75,-857.5 2095.75,-717 2256.25,-717 2256.25,-857.5"/>
<polygon fill="none" stroke="black" points="2095.75,-833.75 2095.75,-857.5 2256.25,-857.5 2256.25,-833.75 2095.75,-833.75"/>
<text text-anchor="start" x="2143.38" y="-840.2" font-family="arial" font-size="14.00">ICOM_TIE</text>
<polygon fill="none" stroke="black" points="2095.75,-810 2095.75,-833.75 2256.25,-833.75 2256.25,-810 2095.75,-810"/>
<text text-anchor="start" x="2168.88" y="-816.45" font-family="arial" font-size="14.00">1x</text>
<text text-anchor="start" x="2097.75" y="-794.7" font-family="arial" font-size="14.00"> </text>
<text text-anchor="start" x="2105.5" y="-774.95" font-family="arial" font-size="14.00"> &#160;&#160;&#160;&#160;1:BK &#160;&#160;&#160;</text>
<text text-anchor="start" x="2172.5" y="-774.95" font-family="arial" font-size="14.00">EXT24V:2:0V</text>
<polygon fill="#000000" stroke="none" points="2095.75,-768.5 2095.75,-770.5 2256.25,-770.5 2256.25,-768.5 2095.75,-768.5"/>
<polygon fill="#000000" stroke="none" points="2095.75,-766.5 2095.75,-768.5 2256.25,-768.5 2256.25,-766.5 2095.75,-766.5"/>
<polygon fill="#000000" stroke="none" points="2095.75,-764.5 2095.75,-766.5 2256.25,-766.5 2256.25,-764.5 2095.75,-764.5"/>
<polygon fill="#000000" stroke="none" points="2095.75,-762.5 2095.75,-764.5 2256.25,-764.5 2256.25,-762.5 2095.75,-762.5"/>
<polygon fill="#000000" stroke="none" points="2095.75,-760.5 2095.75,-762.5 2256.25,-762.5 2256.25,-760.5 2095.75,-760.5"/>
<text text-anchor="start" x="2097.75" y="-745.2" font-family="arial" font-size="14.00"> </text>
<polygon fill="none" stroke="black" points="2095.75,-717 2095.75,-740.75 2256.25,-740.75 2256.25,-717 2095.75,-717"/>
<text text-anchor="start" x="2111.5" y="-723.45" font-family="arial" font-size="14.00">Input Com → 24V 0V</text>
</g>
<!-- TIE_0V&#45;&#45;ICOM_TIE -->
<g id="edge27" class="edge">
<title>TIE_0V:e&#45;&#45;ICOM_TIE:w</title>
<path fill="none" stroke="#000000" stroke-width="2" d="M1839.75,-712.25C1959.2,-714.48 1983.47,-763.73 2095.75,-761.5"/>
<path fill="none" stroke="#000000" stroke-width="2" d="M1839.75,-714.25C1957.41,-715.37 1981.68,-764.62 2095.75,-763.5"/>
<path fill="none" stroke="#000000" stroke-width="2" d="M1839.75,-716.25C1955.61,-716.25 1979.89,-765.5 2095.75,-765.5"/>
<path fill="none" stroke="#000000" stroke-width="2" d="M1839.75,-718.25C1953.82,-717.13 1978.09,-766.38 2095.75,-767.5"/>
<path fill="none" stroke="#000000" stroke-width="2" d="M1839.75,-720.25C1952.03,-718.02 1976.3,-767.27 2095.75,-769.5"/>
</g>
<!-- EXT24V -->
<g id="node5" class="node">
<title>EXT24V</title>
<polygon fill="#ffffff" stroke="black" points="2585.25,-841.62 2400.25,-841.62 2400.25,-722.88 2585.25,-722.88 2585.25,-841.62"/>
<polygon fill="none" stroke="black" points="2400.25,-817.88 2400.25,-841.62 2585.25,-841.62 2585.25,-817.88 2400.25,-817.88"/>
<text text-anchor="start" x="2467.62" y="-824.33" font-family="arial" font-size="14.00">EXT24V</text>
<polygon fill="none" stroke="black" points="2400.25,-794.12 2400.25,-817.88 2519.38,-817.88 2519.38,-794.12 2400.25,-794.12"/>
<text text-anchor="start" x="2418.19" y="-800.58" font-family="arial" font-size="14.00">Power Supply</text>
<polygon fill="none" stroke="black" points="2519.38,-794.12 2519.38,-817.88 2585.25,-817.88 2585.25,-794.12 2519.38,-794.12"/>
<text text-anchor="start" x="2537.31" y="-800.58" font-family="arial" font-size="14.00">2&#45;pin</text>
<polygon fill="none" stroke="black" points="2400.25,-770.38 2400.25,-794.12 2453.67,-794.12 2453.67,-770.38 2400.25,-770.38"/>
<text text-anchor="start" x="2423.21" y="-776.83" font-family="arial" font-size="14.00">1</text>
<polygon fill="none" stroke="black" points="2453.67,-770.38 2453.67,-794.12 2531.83,-794.12 2531.83,-770.38 2453.67,-770.38"/>
<text text-anchor="start" x="2476.62" y="-776.83" font-family="arial" font-size="14.00">+24V</text>
<polygon fill="none" stroke="black" points="2531.83,-770.38 2531.83,-794.12 2585.25,-794.12 2585.25,-770.38 2531.83,-770.38"/>
<text text-anchor="start" x="2554.79" y="-776.83" font-family="arial" font-size="14.00">1</text>
<polygon fill="none" stroke="black" points="2400.25,-746.62 2400.25,-770.38 2453.67,-770.38 2453.67,-746.62 2400.25,-746.62"/>
<text text-anchor="start" x="2423.21" y="-753.08" font-family="arial" font-size="14.00">2</text>
<polygon fill="none" stroke="black" points="2453.67,-746.62 2453.67,-770.38 2531.83,-770.38 2531.83,-746.62 2453.67,-746.62"/>
<text text-anchor="start" x="2484.5" y="-753.08" font-family="arial" font-size="14.00">0V</text>
<polygon fill="none" stroke="black" points="2531.83,-746.62 2531.83,-770.38 2585.25,-770.38 2585.25,-746.62 2531.83,-746.62"/>
<text text-anchor="start" x="2554.79" y="-753.08" font-family="arial" font-size="14.00">2</text>
<polygon fill="none" stroke="black" points="2400.25,-722.88 2400.25,-746.62 2585.25,-746.62 2585.25,-722.88 2400.25,-722.88"/>
<text text-anchor="start" x="2404.25" y="-729.33" font-family="arial" font-size="14.00">External 24V (MC508 supply)</text>
</g>
<!-- V24 -->
<g id="node14" class="node">
<title>V24</title>
<polygon fill="#ffffff" stroke="black" points="2988,-865.5 2729.25,-865.5 2729.25,-725 2988,-725 2988,-865.5"/>
<polygon fill="none" stroke="black" points="2729.25,-841.75 2729.25,-865.5 2988,-865.5 2988,-841.75 2729.25,-841.75"/>
<text text-anchor="start" x="2846.62" y="-848.2" font-family="arial" font-size="14.00">V24</text>
<polygon fill="none" stroke="black" points="2729.25,-818 2729.25,-841.75 2988,-841.75 2988,-818 2729.25,-818"/>
<text text-anchor="start" x="2851.5" y="-824.45" font-family="arial" font-size="14.00">1x</text>
<text text-anchor="start" x="2778.12" y="-802.7" font-family="arial" font-size="14.00"> </text>
<text text-anchor="start" x="2731.25" y="-782.95" font-family="arial" font-size="14.00">EXT24V:1:+24V</text>
<text text-anchor="start" x="2832.75" y="-782.95" font-family="arial" font-size="14.00"> &#160;&#160;&#160;&#160;1:YE &#160;&#160;&#160;</text>
<text text-anchor="start" x="2899.75" y="-782.95" font-family="arial" font-size="14.00">MIC2981:9:Vs</text>
<polygon fill="#000000" stroke="none" points="2729.25,-776.5 2729.25,-778.5 2988,-778.5 2988,-776.5 2729.25,-776.5"/>
<polygon fill="#ffff00" stroke="none" points="2729.25,-774.5 2729.25,-776.5 2988,-776.5 2988,-774.5 2729.25,-774.5"/>
<polygon fill="#ffff00" stroke="none" points="2729.25,-772.5 2729.25,-774.5 2988,-774.5 2988,-772.5 2729.25,-772.5"/>
<polygon fill="#ffff00" stroke="none" points="2729.25,-770.5 2729.25,-772.5 2988,-772.5 2988,-770.5 2729.25,-770.5"/>
<polygon fill="#000000" stroke="none" points="2729.25,-768.5 2729.25,-770.5 2988,-770.5 2988,-768.5 2729.25,-768.5"/>
<text text-anchor="start" x="2778.12" y="-753.2" font-family="arial" font-size="14.00"> </text>
<polygon fill="none" stroke="black" points="2729.25,-725 2729.25,-748.75 2988,-748.75 2988,-725 2729.25,-725"/>
<text text-anchor="start" x="2794.12" y="-731.45" font-family="arial" font-size="14.00">+24V → MIC2981 Vs</text>
</g>
<!-- EXT24V&#45;&#45;V24 -->
<g id="edge29" class="edge">
<title>EXT24V:e&#45;&#45;V24:w</title>
<path fill="none" stroke="#000000" stroke-width="2" d="M2585.25,-778.25C2647.43,-778.75 2663.19,-770 2729.25,-769.5"/>
<path fill="none" stroke="#ffff00" stroke-width="2" d="M2585.25,-780.25C2648.4,-780.5 2664.16,-771.75 2729.25,-771.5"/>
<path fill="none" stroke="#ffff00" stroke-width="2" d="M2585.25,-782.25C2649.37,-782.25 2665.13,-773.5 2729.25,-773.5"/>
<path fill="none" stroke="#ffff00" stroke-width="2" d="M2585.25,-784.25C2650.34,-784 2666.1,-775.25 2729.25,-775.5"/>
<path fill="none" stroke="#000000" stroke-width="2" d="M2585.25,-786.25C2651.31,-785.75 2667.07,-777 2729.25,-777.5"/>
</g>
<!-- EXT5V -->
<g id="node6" class="node">
<title>EXT5V</title>
<polygon fill="#ffffff" stroke="black" points="1065.25,-202.62 842,-202.62 842,-83.88 1065.25,-83.88 1065.25,-202.62"/>
<polygon fill="none" stroke="black" points="842,-178.88 842,-202.62 1065.25,-202.62 1065.25,-178.88 842,-178.88"/>
<text text-anchor="start" x="932.25" y="-185.32" font-family="arial" font-size="14.00">EXT5V</text>
<polygon fill="none" stroke="black" points="842,-155.12 842,-178.88 980.25,-178.88 980.25,-155.12 842,-155.12"/>
<text text-anchor="start" x="869.5" y="-161.57" font-family="arial" font-size="14.00">Power Supply</text>
<polygon fill="none" stroke="black" points="980.25,-155.12 980.25,-178.88 1065.25,-178.88 1065.25,-155.12 980.25,-155.12"/>
<text text-anchor="start" x="1007.75" y="-161.57" font-family="arial" font-size="14.00">2&#45;pin</text>
<polygon fill="none" stroke="black" points="842,-131.38 842,-155.12 942,-155.12 942,-131.38 842,-131.38"/>
<text text-anchor="start" x="888.25" y="-137.82" font-family="arial" font-size="14.00">1</text>
<polygon fill="none" stroke="black" points="942,-131.38 942,-155.12 1065.25,-155.12 1065.25,-131.38 942,-131.38"/>
<text text-anchor="start" x="991.25" y="-137.82" font-family="arial" font-size="14.00">+5V</text>
<polygon fill="none" stroke="black" points="842,-107.62 842,-131.38 942,-131.38 942,-107.62 842,-107.62"/>
<text text-anchor="start" x="888.25" y="-114.08" font-family="arial" font-size="14.00">2</text>
<polygon fill="none" stroke="black" points="942,-107.62 942,-131.38 1065.25,-131.38 1065.25,-107.62 942,-107.62"/>
<text text-anchor="start" x="988.25" y="-114.08" font-family="arial" font-size="14.00">GND</text>
<polygon fill="none" stroke="black" points="842,-83.88 842,-107.62 1065.25,-107.62 1065.25,-83.88 842,-83.88"/>
<text text-anchor="start" x="846" y="-90.33" font-family="arial" font-size="14.00">External 5V (opto&#45;interrupter power)</text>
</g>
<!-- ENC&#45;&#45;MC508_ENC -->
<g id="edge2" class="edge">
<title>ENC:e&#45;&#45;MC508_ENC:w</title>
<path fill="none" stroke="#000000" stroke-width="2" d="M698,-706.63C762.82,-707.07 779.25,-698.57 847.75,-698.13"/>
<path fill="none" stroke="#000000" stroke-width="2" d="M698,-708.63C763.74,-708.85 780.17,-700.35 847.75,-700.13"/>
<path fill="none" stroke="#000000" stroke-width="2" d="M698,-710.62C764.66,-710.63 781.09,-702.13 847.75,-702.12"/>
<path fill="none" stroke="#000000" stroke-width="2" d="M698,-712.62C765.58,-712.4 782.01,-703.9 847.75,-704.12"/>
<path fill="none" stroke="#000000" stroke-width="2" d="M698,-714.62C766.5,-714.18 782.93,-705.68 847.75,-706.12"/>
</g>
<!-- ENC&#45;&#45;MC508_ENC -->
<g id="edge4" class="edge">
<title>ENC:e&#45;&#45;MC508_ENC:w</title>
<path fill="none" stroke="#000000" stroke-width="2" d="M698,-676.88C763.97,-676.92 780.59,-674.42 847.75,-674.38"/>
<path fill="none" stroke="#895956" stroke-width="2" d="M698,-678.88C764.27,-678.9 780.89,-676.4 847.75,-676.38"/>
<path fill="none" stroke="#895956" stroke-width="2" d="M698,-680.88C764.56,-680.88 781.19,-678.38 847.75,-678.38"/>
<path fill="none" stroke="#895956" stroke-width="2" d="M698,-682.87C764.86,-682.85 781.48,-680.35 847.75,-680.37"/>
<path fill="none" stroke="#000000" stroke-width="2" d="M698,-684.87C765.16,-684.83 781.78,-682.33 847.75,-682.37"/>
</g>
<!-- ENC&#45;&#45;MC508_ENC -->
<g id="edge6" class="edge">
<title>ENC:e&#45;&#45;MC508_ENC:w</title>
<path fill="none" stroke="#000000" stroke-width="2" d="M698,-647.13C765.4,-647.21 782,-650.71 847.75,-650.63"/>
<path fill="none" stroke="#ff0000" stroke-width="2" d="M698,-649.13C764.99,-649.17 781.59,-652.67 847.75,-652.63"/>
<path fill="none" stroke="#ff0000" stroke-width="2" d="M698,-651.12C764.57,-651.12 781.18,-654.62 847.75,-654.62"/>
<path fill="none" stroke="#ff0000" stroke-width="2" d="M698,-653.12C764.16,-653.08 780.76,-656.58 847.75,-656.62"/>
<path fill="none" stroke="#000000" stroke-width="2" d="M698,-655.12C763.75,-655.04 780.35,-658.54 847.75,-658.62"/>
</g>
<!-- ENC&#45;&#45;MC508_ENC -->
<g id="edge8" class="edge">
<title>ENC:e&#45;&#45;MC508_ENC:w</title>
<path fill="none" stroke="#000000" stroke-width="2" d="M698,-617.38C766.7,-617.92 783.07,-627.42 847.75,-626.88"/>
<path fill="none" stroke="#ff8000" stroke-width="2" d="M698,-619.38C765.69,-619.65 782.06,-629.15 847.75,-628.88"/>
<path fill="none" stroke="#ff8000" stroke-width="2" d="M698,-621.38C764.69,-621.38 781.06,-630.88 847.75,-630.88"/>
<path fill="none" stroke="#ff8000" stroke-width="2" d="M698,-623.37C763.69,-623.1 780.06,-632.6 847.75,-632.87"/>
<path fill="none" stroke="#000000" stroke-width="2" d="M698,-625.37C762.68,-624.83 779.05,-634.33 847.75,-634.87"/>
</g>
<!-- ENC&#45;&#45;MC508_ENC -->
<g id="edge10" class="edge">
<title>ENC:e&#45;&#45;MC508_ENC:w</title>
<path fill="none" stroke="#000000" stroke-width="2" d="M698,-587.63C767.7,-588.76 783.63,-604.26 847.75,-603.13"/>
<path fill="none" stroke="#90ee90" stroke-width="2" d="M698,-589.63C766.31,-590.19 782.23,-605.69 847.75,-605.13"/>
<path fill="none" stroke="#90ee90" stroke-width="2" d="M698,-591.62C764.91,-591.62 780.84,-607.12 847.75,-607.12"/>
<path fill="none" stroke="#90ee90" stroke-width="2" d="M698,-593.62C763.52,-593.06 779.44,-608.56 847.75,-609.12"/>
<path fill="none" stroke="#000000" stroke-width="2" d="M698,-595.62C762.12,-594.49 778.05,-609.99 847.75,-611.12"/>
</g>
<!-- ENC&#45;&#45;MC508_ENC -->
<g id="edge12" class="edge">
<title>ENC:e&#45;&#45;MC508_ENC:w</title>
<path fill="none" stroke="#000000" stroke-width="2" d="M698,-557.88C768.5,-559.56 783.77,-581.06 847.75,-579.38"/>
<path fill="none" stroke="#a0dfff" stroke-width="2" d="M698,-559.88C766.87,-560.72 782.14,-582.22 847.75,-581.38"/>
<path fill="none" stroke="#a0dfff" stroke-width="2" d="M698,-561.88C765.24,-561.88 780.51,-583.38 847.75,-583.38"/>
<path fill="none" stroke="#a0dfff" stroke-width="2" d="M698,-563.87C763.61,-563.03 778.88,-584.53 847.75,-585.37"/>
<path fill="none" stroke="#000000" stroke-width="2" d="M698,-565.87C761.98,-564.19 777.25,-585.69 847.75,-587.37"/>
</g>
<!-- ENC&#45;&#45;MC508_ENC -->
<g id="edge14" class="edge">
<title>ENC:e&#45;&#45;MC508_ENC:w</title>
<path fill="none" stroke="#000000" stroke-width="2" d="M698,-528.13C769.21,-530.27 783.62,-557.77 847.75,-555.63"/>
<path fill="none" stroke="#ffff00" stroke-width="2" d="M698,-530.13C767.44,-531.2 781.85,-558.7 847.75,-557.63"/>
<path fill="none" stroke="#ffff00" stroke-width="2" d="M698,-532.13C765.67,-532.12 780.08,-559.62 847.75,-559.63"/>
<path fill="none" stroke="#ffff00" stroke-width="2" d="M698,-534.12C763.9,-533.05 778.31,-560.55 847.75,-561.62"/>
<path fill="none" stroke="#000000" stroke-width="2" d="M698,-536.12C762.13,-533.98 776.54,-561.48 847.75,-563.62"/>
</g>
<!-- ENC&#45;&#45;MC508_ENC -->
<g id="edge16" class="edge">
<title>ENC:e&#45;&#45;MC508_ENC:w</title>
<path fill="none" stroke="#000000" stroke-width="2" d="M698,-498.38C769.92,-500.89 783.27,-534.39 847.75,-531.88"/>
<path fill="none" stroke="#ffffff" stroke-width="2" d="M698,-500.38C768.06,-501.63 781.41,-535.13 847.75,-533.88"/>
<path fill="none" stroke="#895956" stroke-width="2" d="M698,-502.38C766.2,-502.38 779.55,-535.88 847.75,-535.87"/>
<path fill="none" stroke="#ffffff" stroke-width="2" d="M698,-504.37C764.34,-503.12 777.69,-536.62 847.75,-537.87"/>
<path fill="none" stroke="#000000" stroke-width="2" d="M698,-506.37C762.48,-503.86 775.83,-537.36 847.75,-539.87"/>
</g>
<!-- LFWD&#45;&#45;MIC2981 -->
<g id="edge18" class="edge">
<title>LFWD:e&#45;&#45;MIC2981:w</title>
<path fill="none" stroke="#000000" stroke-width="2" d="M1951.75,-345.5C2486.02,-347.34 2604.46,-531.59 3132,-529.75"/>
<path fill="none" stroke="#0066ff" stroke-width="2" d="M1951.75,-347.5C2484.34,-348.42 2602.77,-532.67 3132,-531.75"/>
<path fill="none" stroke="#0066ff" stroke-width="2" d="M1951.75,-349.5C2482.66,-349.5 2601.09,-533.75 3132,-533.75"/>
<path fill="none" stroke="#0066ff" stroke-width="2" d="M1951.75,-351.5C2480.98,-350.58 2599.41,-534.83 3132,-535.75"/>
<path fill="none" stroke="#000000" stroke-width="2" d="M1951.75,-353.5C2479.29,-351.66 2597.73,-535.91 3132,-537.75"/>
</g>
<!-- LREV&#45;&#45;MIC2981 -->
<g id="edge20" class="edge">
<title>LREV:e&#45;&#45;MIC2981:w</title>
<path fill="none" stroke="#000000" stroke-width="2" d="M1506.25,-259.5C1803.51,-259.5 1877.82,-260.25 2175,-260.25 2175,-260.25 2175,-260.25 2493.75,-260.25 2648.1,-261.03 2982.39,-506.78 3132,-506"/>
<path fill="none" stroke="#8000ff" stroke-width="2" d="M1506.25,-261.5C1803.49,-261.5 1877.8,-262.25 2175,-262.25 2175,-262.25 2175,-262.25 2493.75,-262.25 2646.92,-262.64 2981.2,-508.39 3132,-508"/>
<path fill="none" stroke="#8000ff" stroke-width="2" d="M1506.25,-263.5C1803.47,-263.5 1877.78,-264.25 2175,-264.25 2175,-264.25 2175,-264.25 2493.75,-264.25 2645.73,-264.25 2980.02,-510 3132,-510"/>
<path fill="none" stroke="#8000ff" stroke-width="2" d="M1506.25,-265.5C1803.45,-265.5 1877.76,-266.25 2175,-266.25 2175,-266.25 2175,-266.25 2493.75,-266.25 2644.55,-265.86 2978.83,-511.61 3132,-512"/>
<path fill="none" stroke="#000000" stroke-width="2" d="M1506.25,-267.5C1803.43,-267.5 1877.74,-268.25 2175,-268.25 2175,-268.25 2175,-268.25 2493.75,-268.25 2643.36,-267.47 2977.65,-513.22 3132,-514"/>
</g>
<!-- UFWD&#45;&#45;MC508_ENC -->
<g id="edge22" class="edge">
<title>UFWD:e&#45;&#45;MC508_ENC:w</title>
<path fill="none" stroke="#000000" stroke-width="2" d="M3885.38,-508.5C3903.02,-513.34 3895.87,-479.93 3881.58,-466.86 3857.3,-441.29 3576.73,-454.42 3542.3,-467.74 3456.55,-496.67 3473.54,-568.65 3383.76,-608.95 3274.35,-653.2 2975.64,-634.24 2859.62,-634.25 1800,-634.25 1800,-634.25 1800,-634.25 1528.55,-633.5 1462.11,-586 1207.98,-501.04 1135.69,-475.07 1126.57,-445.7 1057.66,-432.91 1012.25,-423.11 881.22,-400.18 851.56,-431.85 826.39,-455.77 814.72,-512.92 847.75,-508.13"/>
<path fill="none" stroke="#999999" stroke-width="2" d="M3885.38,-510.5C3904.98,-512.92 3897.82,-479.51 3882.98,-465.43 3857.2,-439.29 3576.64,-452.42 3541.59,-465.87 3454.6,-497.13 3471.59,-569.11 3383.01,-607.1 3274.48,-651.2 2975.77,-632.25 2859.62,-632.25 1800,-632.25 1800,-632.25 1800,-632.25 1529.71,-631.88 1463.27,-584.37 1208.61,-499.15 1137.6,-474.48 1128.48,-445.11 1058.08,-430.95 1012.59,-421.14 881.56,-398.21 850.16,-430.42 824.43,-455.37 812.76,-512.52 847.75,-510.13"/>
<path fill="none" stroke="#999999" stroke-width="2" d="M3885.38,-512.5C3906.94,-512.5 3899.78,-479.09 3884.37,-464 3857.11,-437.29 3576.54,-450.42 3540.87,-464 3452.65,-497.59 3469.64,-569.56 3382.25,-605.25 3274.61,-649.2 2975.9,-630.25 2859.62,-630.25 1800,-630.25 1800,-630.25 1800,-630.25 1530.87,-630.25 1464.44,-582.75 1209.25,-497.25 1139.51,-473.89 1130.39,-444.52 1058.5,-429 1012.94,-419.17 881.91,-396.24 848.75,-429 822.47,-454.97 810.8,-512.12 847.75,-512.12"/>
<path fill="none" stroke="#999999" stroke-width="2" d="M3885.38,-514.5C3908.89,-512.08 3901.73,-478.67 3885.77,-462.57 3857.02,-435.29 3576.45,-448.42 3540.16,-462.13 3450.71,-498.05 3467.7,-570.02 3381.49,-603.4 3274.73,-647.21 2976.02,-628.25 2859.62,-628.25 1800,-628.25 1800,-628.25 1800,-628.25 1532.04,-628.62 1465.6,-581.12 1209.89,-495.35 1141.42,-473.29 1132.3,-443.92 1058.92,-427.05 1013.28,-417.2 882.25,-394.27 847.34,-427.58 820.51,-454.57 808.84,-511.73 847.75,-514.12"/>
<path fill="none" stroke="#000000" stroke-width="2" d="M3885.38,-516.5C3910.85,-511.66 3903.69,-478.25 3887.17,-461.14 3856.92,-433.3 3576.36,-446.42 3539.45,-460.26 3448.76,-498.51 3465.75,-570.48 3380.74,-601.55 3274.86,-645.21 2976.15,-626.26 2859.62,-626.25 1800,-626.25 1800,-626.25 1800,-626.25 1533.2,-627 1466.76,-579.49 1210.52,-493.46 1143.33,-472.7 1134.21,-443.33 1059.34,-425.09 1013.63,-415.23 882.6,-392.3 845.94,-426.15 818.55,-454.17 806.88,-511.33 847.75,-516.12"/>
</g>
<!-- UREV&#45;&#45;MC508_ENC -->
<g id="edge24" class="edge">
<title>UREV:e&#45;&#45;MC508_ENC:w</title>
<path fill="none" stroke="#000000" stroke-width="2" d="M3900,-341.5C3917.65,-346.34 3910.49,-312.93 3896.2,-299.86 3783.74,-183.62 3694.8,-291.36 3526.45,-301 2825.71,-335.33 2655.92,-422.05 1951.95,-457.25 1817.46,-463.85 1783.76,-459.97 1650.17,-457.25 1386.28,-451.78 1320.86,-438.31 1058.42,-433 1010.95,-431.93 881.04,-400.21 851.55,-431.85 833.85,-448.33 825.27,-489.2 847.75,-484.38"/>
<path fill="none" stroke="#ffffff" stroke-width="2" d="M3900,-343.5C3919.6,-345.92 3912.45,-312.51 3897.6,-298.43 3782.2,-182.34 3693.26,-290.08 3526.35,-299 2824.8,-333.55 2655.01,-420.27 1951.85,-455.25 1817.69,-461.86 1783.99,-457.98 1650.21,-455.25 1386.68,-449.82 1321.26,-436.35 1058.46,-431 1011.42,-429.99 881.51,-398.26 850.15,-430.43 831.89,-447.92 823.31,-488.79 847.75,-486.38"/>
<path fill="none" stroke="#0066ff" stroke-width="2" d="M3900,-345.5C3921.56,-345.5 3914.4,-312.09 3899,-297 3780.65,-181.07 3691.71,-288.81 3526.25,-297 2823.89,-331.76 2654.11,-418.49 1951.75,-453.25 1817.91,-459.87 1784.22,-455.99 1650.25,-453.25 1387.08,-447.86 1321.67,-434.39 1058.5,-429 1011.9,-428.05 881.99,-396.32 848.75,-429 829.93,-447.5 821.36,-488.38 847.75,-488.37"/>
<path fill="none" stroke="#ffffff" stroke-width="2" d="M3900,-347.5C3923.52,-345.08 3916.36,-311.67 3900.4,-295.57 3779.11,-179.8 3690.17,-287.54 3526.15,-295 2822.99,-329.98 2653.2,-416.7 1951.65,-451.25 1818.14,-457.89 1784.45,-454.01 1650.29,-451.25 1387.49,-445.9 1322.07,-432.43 1058.54,-427 1012.37,-426.1 882.46,-394.38 847.35,-427.57 827.97,-447.09 819.4,-487.96 847.75,-490.37"/>
<path fill="none" stroke="#000000" stroke-width="2" d="M3900,-349.5C3925.47,-344.66 3918.31,-311.25 3901.8,-294.14 3777.57,-178.52 3688.63,-286.26 3526.05,-293 2822.08,-328.2 2652.29,-414.92 1951.55,-449.25 1818.37,-455.9 1784.68,-452.02 1650.33,-449.25 1387.89,-443.94 1322.47,-430.47 1058.58,-425 1012.85,-424.16 882.93,-392.43 845.95,-426.15 826.02,-446.68 817.44,-487.55 847.75,-492.37"/>
</g>
<!-- ICOM_SCSI&#45;&#45;TIE_0V -->
<g id="edge26" class="edge">
<title>ICOM_SCSI:e&#45;&#45;TIE_0V:w</title>
<path fill="none" stroke="#000000" stroke-width="2" d="M1481.75,-711.5C1606.51,-711.5 1637.68,-712.25 1762.25,-712.25"/>
<path fill="none" stroke="#ffffff" stroke-width="2" d="M1481.75,-713.5C1606.47,-713.5 1637.63,-714.25 1762.25,-714.25"/>
<path fill="none" stroke="#ffffff" stroke-width="2" d="M1481.75,-715.5C1606.42,-715.5 1637.58,-716.25 1762.25,-716.25"/>
<path fill="none" stroke="#ffffff" stroke-width="2" d="M1481.75,-717.5C1606.37,-717.5 1637.53,-718.25 1762.25,-718.25"/>
<path fill="none" stroke="#000000" stroke-width="2" d="M1481.75,-719.5C1606.32,-719.5 1637.49,-720.25 1762.25,-720.25"/>
</g>
<!-- ICOM_TIE&#45;&#45;EXT24V -->
<g id="edge28" class="edge">
<title>ICOM_TIE:e&#45;&#45;EXT24V:w</title>
<path fill="none" stroke="#000000" stroke-width="2" d="M2256.25,-761.5C2318.71,-761.84 2334.56,-754.84 2400.25,-754.5"/>
<path fill="none" stroke="#000000" stroke-width="2" d="M2256.25,-763.5C2319.52,-763.67 2335.37,-756.67 2400.25,-756.5"/>
<path fill="none" stroke="#000000" stroke-width="2" d="M2256.25,-765.5C2320.33,-765.5 2336.17,-758.5 2400.25,-758.5"/>
<path fill="none" stroke="#000000" stroke-width="2" d="M2256.25,-767.5C2321.13,-767.33 2336.98,-760.33 2400.25,-760.5"/>
<path fill="none" stroke="#000000" stroke-width="2" d="M2256.25,-769.5C2321.94,-769.16 2337.79,-762.16 2400.25,-762.5"/>
</g>
<!-- V24&#45;&#45;MIC2981 -->
<g id="edge30" class="edge">
<title>V24:e&#45;&#45;MIC2981:w</title>
<path fill="none" stroke="#000000" stroke-width="2" d="M2988,-769.5C3127.22,-775.27 2985.6,-488.02 3132,-482.25"/>
<path fill="none" stroke="#ffff00" stroke-width="2" d="M2988,-771.5C3129.02,-774.38 2987.4,-487.13 3132,-484.25"/>
<path fill="none" stroke="#ffff00" stroke-width="2" d="M2988,-773.5C3130.81,-773.5 2989.19,-486.25 3132,-486.25"/>
<path fill="none" stroke="#ffff00" stroke-width="2" d="M2988,-775.5C3132.6,-772.62 2990.98,-485.37 3132,-488.25"/>
<path fill="none" stroke="#000000" stroke-width="2" d="M2988,-777.5C3134.4,-771.73 2992.78,-484.48 3132,-490.25"/>
</g>
<!-- UGND&#45;&#45;TIE_0V -->
<g id="edge32" class="edge">
<title>UGND:e&#45;&#45;TIE_0V:w</title>
<path fill="none" stroke="#000000" stroke-width="2" d="M3805.5,-674.5C3823.15,-679.34 3815.99,-645.93 3801.7,-632.86 3776.25,-605.32 3662.47,-632.25 3620.91,-634 3515.6,-638.12 3489.44,-645.67 3382.53,-653.24 3151.12,-669.38 3093.3,-684.13 2859.62,-684.25 2491.75,-684.25 2491.75,-684.25 2491.75,-684.25 2316.08,-684.19 2271.92,-691.81 2096.14,-709.23 1983.04,-720.08 1955.74,-735.73 1839.02,-743.99 1808.32,-744.84 1790.52,-765.81 1760.48,-742.89 1751.73,-733.62 1747.8,-717.18 1762.25,-712.25"/>
<path fill="none" stroke="#000000" stroke-width="2" d="M3805.5,-676.5C3825.1,-678.92 3817.95,-645.51 3803.1,-631.43 3775.79,-603.37 3662.01,-630.3 3620.83,-632 3515.05,-636.2 3488.89,-643.75 3382.39,-651.25 3150.63,-667.44 3092.81,-682.19 2859.62,-682.25 2491.75,-682.25 2491.75,-682.25 2491.75,-682.25 2315.74,-682.22 2271.58,-689.84 2095.95,-707.24 1982.04,-718.35 1954.75,-734 1838.88,-742 1806.79,-743.55 1789,-764.52 1761.87,-741.44 1753.68,-733.15 1749.74,-716.72 1762.25,-714.25"/>
<path fill="none" stroke="#000000" stroke-width="2" d="M3805.5,-678.5C3827.06,-678.5 3819.9,-645.09 3804.5,-630 3775.33,-601.43 3661.55,-628.36 3620.75,-630 3514.49,-634.28 3488.34,-641.82 3382.25,-649.25 3150.13,-665.5 3092.31,-680.25 2859.62,-680.25 2491.75,-680.25 2491.75,-680.25 2491.75,-680.25 2315.4,-680.25 2271.24,-687.87 2095.75,-705.25 1981.05,-716.61 1953.75,-732.26 1838.75,-740 1805.27,-742.25 1787.47,-763.22 1763.25,-740 1755.62,-732.69 1751.69,-716.25 1762.25,-716.25"/>
<path fill="none" stroke="#000000" stroke-width="2" d="M3805.5,-680.5C3829.02,-678.08 3821.86,-644.67 3805.9,-628.57 3774.87,-599.48 3661.09,-626.41 3620.67,-628 3513.94,-632.36 3487.78,-639.9 3382.11,-647.25 3149.64,-663.56 3091.82,-678.31 2859.62,-678.25 2491.75,-678.25 2491.75,-678.25 2491.75,-678.25 2315.06,-678.28 2270.9,-685.9 2095.55,-703.26 1980.05,-714.88 1952.76,-730.53 1838.62,-738 1803.75,-740.96 1785.95,-761.93 1764.63,-738.56 1757.57,-732.22 1753.63,-715.78 1762.25,-718.25"/>
<path fill="none" stroke="#000000" stroke-width="2" d="M3805.5,-682.5C3830.97,-677.66 3823.81,-644.25 3807.3,-627.14 3774.41,-597.53 3660.63,-624.46 3620.59,-626 3513.38,-630.44 3487.23,-637.98 3381.97,-645.26 3149.14,-661.62 3091.32,-676.37 2859.62,-676.25 2491.75,-676.25 2491.75,-676.25 2491.75,-676.25 2314.72,-676.31 2270.56,-683.93 2095.36,-701.27 1979.06,-713.14 1951.76,-728.79 1838.48,-736.01 1802.22,-739.66 1784.42,-760.63 1766.02,-737.11 1759.51,-731.76 1755.57,-715.32 1762.25,-720.25"/>
</g>
<!-- LPWR&#45;&#45;EXT5V -->
<g id="edge34" class="edge">
<title>LPWR:e&#45;&#45;EXT5V:w</title>
<path fill="none" stroke="#000000" stroke-width="2" d="M634.5,-209.5C727.93,-212.78 740.7,-142.53 842,-139.25"/>
<path fill="none" stroke="#ff0000" stroke-width="2" d="M634.5,-211.5C729.9,-213.14 742.67,-142.89 842,-141.25"/>
<path fill="none" stroke="#ff0000" stroke-width="2" d="M634.5,-213.5C731.86,-213.5 744.64,-143.25 842,-143.25"/>
<path fill="none" stroke="#ff0000" stroke-width="2" d="M634.5,-215.5C733.83,-213.86 746.6,-143.61 842,-145.25"/>
<path fill="none" stroke="#000000" stroke-width="2" d="M634.5,-217.5C735.8,-214.22 748.57,-143.97 842,-147.25"/>
</g>
<!-- LGND&#45;&#45;EXT5V -->
<g id="edge36" class="edge">
<title>LGND:e&#45;&#45;EXT5V:w</title>
<path fill="none" stroke="#000000" stroke-width="2" d="M637.12,-44.5C737.44,-47.83 749.57,-118.83 842,-115.5"/>
<path fill="none" stroke="#000000" stroke-width="2" d="M637.12,-46.5C735.46,-48.16 747.6,-119.16 842,-117.5"/>
<path fill="none" stroke="#000000" stroke-width="2" d="M637.12,-48.5C733.49,-48.5 745.63,-119.5 842,-119.5"/>
<path fill="none" stroke="#000000" stroke-width="2" d="M637.12,-50.5C731.52,-48.84 743.66,-119.84 842,-121.5"/>
<path fill="none" stroke="#000000" stroke-width="2" d="M637.12,-52.5C729.55,-49.17 741.69,-120.17 842,-123.5"/>
</g>
</g>
</svg>
