<?xml version="1.0" encoding="UTF-8" standalone="no"?>
<!DOCTYPE svg PUBLIC "-//W3C//DTD SVG 1.1//EN"
 "http://www.w3.org/Graphics/SVG/1.1/DTD/svg11.dtd">
<!-- Generated by graphviz version 15.0.0 (20260523.1842)
 -->
<!-- Pages: 1 -->
<svg width="3908pt" height="867pt"
 viewBox="0.00 0.00 3908.00 867.00" xmlns="http://www.w3.org/2000/svg" xmlns:xlink="http://www.w3.org/1999/xlink">
<g id="graph0" class="graph" transform="scale(1 1) rotate(0) translate(4 862.5)">
<polygon fill="#ffffff" stroke="none" points="-4,4 -4,-862.5 3904.37,-862.5 3904.37,4 -4,4"/>
<!-- DB25 -->
<g id="node1" class="node">
<title>DB25</title>
<polygon fill="#ffffff" stroke="black" points="183.5,-737.25 0,-737.25 0,-357.25 183.5,-357.25 183.5,-737.25"/>
<polygon fill="none" stroke="black" points="0,-713.5 0,-737.25 183.5,-737.25 183.5,-713.5 0,-713.5"/>
<text xml:space="preserve" text-anchor="start" x="74.88" y="-720.5" font-family="arial" font-size="14.00">DB25</text>
<polygon fill="none" stroke="black" points="0,-689.75 0,-713.5 99.17,-713.5 99.17,-689.75 0,-689.75"/>
<text xml:space="preserve" text-anchor="start" x="4.21" y="-696.75" font-family="arial" font-size="14.00">D&#45;Sub 25 Male</text>
<polygon fill="none" stroke="black" points="99.17,-689.75 99.17,-713.5 137.58,-713.5 137.58,-689.75 99.17,-689.75"/>
<text xml:space="preserve" text-anchor="start" x="103.38" y="-696.75" font-family="arial" font-size="14.00">male</text>
<polygon fill="none" stroke="black" points="137.58,-689.75 137.58,-713.5 183.5,-713.5 183.5,-689.75 137.58,-689.75"/>
<text xml:space="preserve" text-anchor="start" x="141.79" y="-696.75" font-family="arial" font-size="14.00">13&#45;pin</text>
<polygon fill="none" stroke="black" points="0,-666 0,-689.75 116.12,-689.75 116.12,-666 0,-666"/>
<text xml:space="preserve" text-anchor="start" x="36.31" y="-673" font-family="arial" font-size="14.00">Enc A+</text>
<polygon fill="none" stroke="black" points="116.12,-666 116.12,-689.75 183.5,-689.75 183.5,-666 116.12,-666"/>
<text xml:space="preserve" text-anchor="start" x="146.06" y="-673" font-family="arial" font-size="14.00">1</text>
<polygon fill="none" stroke="black" points="0,-642.25 0,-666 116.12,-666 116.12,-642.25 0,-642.25"/>
<text xml:space="preserve" text-anchor="start" x="38.19" y="-649.25" font-family="arial" font-size="14.00">Enc A&#45;</text>
<polygon fill="none" stroke="black" points="116.12,-642.25 116.12,-666 183.5,-666 183.5,-642.25 116.12,-642.25"/>
<text xml:space="preserve" text-anchor="start" x="142.31" y="-649.25" font-family="arial" font-size="14.00">14</text>
<polygon fill="none" stroke="black" points="0,-618.5 0,-642.25 116.12,-642.25 116.12,-618.5 0,-618.5"/>
<text xml:space="preserve" text-anchor="start" x="35.94" y="-625.5" font-family="arial" font-size="14.00">Enc B+</text>
<polygon fill="none" stroke="black" points="116.12,-618.5 116.12,-642.25 183.5,-642.25 183.5,-618.5 116.12,-618.5"/>
<text xml:space="preserve" text-anchor="start" x="146.06" y="-625.5" font-family="arial" font-size="14.00">2</text>
<polygon fill="none" stroke="black" points="0,-594.75 0,-618.5 116.12,-618.5 116.12,-594.75 0,-594.75"/>
<text xml:space="preserve" text-anchor="start" x="37.81" y="-601.75" font-family="arial" font-size="14.00">Enc B&#45;</text>
<polygon fill="none" stroke="black" points="116.12,-594.75 116.12,-618.5 183.5,-618.5 183.5,-594.75 116.12,-594.75"/>
<text xml:space="preserve" text-anchor="start" x="142.31" y="-601.75" font-family="arial" font-size="14.00">15</text>
<polygon fill="none" stroke="black" points="0,-571 0,-594.75 116.12,-594.75 116.12,-571 0,-571"/>
<text xml:space="preserve" text-anchor="start" x="36.31" y="-578" font-family="arial" font-size="14.00">Enc Z+</text>
<polygon fill="none" stroke="black" points="116.12,-571 116.12,-594.75 183.5,-594.75 183.5,-571 116.12,-571"/>
<text xml:space="preserve" text-anchor="start" x="146.06" y="-578" font-family="arial" font-size="14.00">3</text>
<polygon fill="none" stroke="black" points="0,-547.25 0,-571 116.12,-571 116.12,-547.25 0,-547.25"/>
<text xml:space="preserve" text-anchor="start" x="38.19" y="-554.25" font-family="arial" font-size="14.00">Enc Z&#45;</text>
<polygon fill="none" stroke="black" points="116.12,-547.25 116.12,-571 183.5,-571 183.5,-547.25 116.12,-547.25"/>
<text xml:space="preserve" text-anchor="start" x="142.31" y="-554.25" font-family="arial" font-size="14.00">16</text>
<polygon fill="none" stroke="black" points="0,-523.5 0,-547.25 116.12,-547.25 116.12,-523.5 0,-523.5"/>
<text xml:space="preserve" text-anchor="start" x="45.69" y="-530.5" font-family="arial" font-size="14.00">+5V</text>
<polygon fill="none" stroke="black" points="116.12,-523.5 116.12,-547.25 183.5,-547.25 183.5,-523.5 116.12,-523.5"/>
<text xml:space="preserve" text-anchor="start" x="146.06" y="-530.5" font-family="arial" font-size="14.00">4</text>
<polygon fill="none" stroke="black" points="0,-499.75 0,-523.5 116.12,-523.5 116.12,-499.75 0,-499.75"/>
<text xml:space="preserve" text-anchor="start" x="30.69" y="-506.75" font-family="arial" font-size="14.00">Dig GND</text>
<polygon fill="none" stroke="black" points="116.12,-499.75 116.12,-523.5 183.5,-523.5 183.5,-499.75 116.12,-499.75"/>
<text xml:space="preserve" text-anchor="start" x="142.31" y="-506.75" font-family="arial" font-size="14.00">17</text>
<polygon fill="none" stroke="black" points="0,-476 0,-499.75 116.12,-499.75 116.12,-476 0,-476"/>
<text xml:space="preserve" text-anchor="start" x="29.94" y="-483" font-family="arial" font-size="14.00">Pos Limit</text>
<polygon fill="none" stroke="black" points="116.12,-476 116.12,-499.75 183.5,-499.75 183.5,-476 116.12,-476"/>
<text xml:space="preserve" text-anchor="start" x="142.31" y="-483" font-family="arial" font-size="14.00">10</text>
<polygon fill="none" stroke="black" points="0,-452.25 0,-476 116.12,-476 116.12,-452.25 0,-452.25"/>
<text xml:space="preserve" text-anchor="start" x="29.19" y="-459.25" font-family="arial" font-size="14.00">Neg Limit</text>
<polygon fill="none" stroke="black" points="116.12,-452.25 116.12,-476 183.5,-476 183.5,-452.25 116.12,-452.25"/>
<text xml:space="preserve" text-anchor="start" x="142.31" y="-459.25" font-family="arial" font-size="14.00">12</text>
<polygon fill="none" stroke="black" points="0,-428.5 0,-452.25 116.12,-452.25 116.12,-428.5 0,-428.5"/>
<text xml:space="preserve" text-anchor="start" x="44.94" y="-435.5" font-family="arial" font-size="14.00">Viso</text>
<polygon fill="none" stroke="black" points="116.12,-428.5 116.12,-452.25 183.5,-452.25 183.5,-428.5 116.12,-428.5"/>
<text xml:space="preserve" text-anchor="start" x="142.31" y="-435.5" font-family="arial" font-size="14.00">13</text>
<polygon fill="none" stroke="black" points="0,-404.75 0,-428.5 116.12,-428.5 116.12,-404.75 0,-404.75"/>
<text xml:space="preserve" text-anchor="start" x="44.56" y="-411.75" font-family="arial" font-size="14.00">Ciso</text>
<polygon fill="none" stroke="black" points="116.12,-404.75 116.12,-428.5 183.5,-428.5 183.5,-404.75 116.12,-404.75"/>
<text xml:space="preserve" text-anchor="start" x="142.31" y="-411.75" font-family="arial" font-size="14.00">22</text>
<polygon fill="none" stroke="black" points="0,-381 0,-404.75 116.12,-404.75 116.12,-381 0,-381"/>
<text xml:space="preserve" text-anchor="start" x="26.19" y="-388" font-family="arial" font-size="14.00">Home N/C</text>
<polygon fill="none" stroke="black" points="116.12,-381 116.12,-404.75 183.5,-404.75 183.5,-381 116.12,-381"/>
<text xml:space="preserve" text-anchor="start" x="142.69" y="-388" font-family="arial" font-size="14.00">11</text>
<polygon fill="none" stroke="black" points="0,-357.25 0,-381 183.5,-381 183.5,-357.25 0,-357.25"/>
<text xml:space="preserve" text-anchor="start" x="4" y="-364.25" font-family="arial" font-size="14.00">Stage cable (from UMI&#45;7774)</text>
</g>
<!-- ENC -->
<g id="node7" class="node">
<title>ENC</title>
<polygon fill="#ffffff" stroke="black" points="698,-802.62 327.5,-802.62 327.5,-453.88 698,-453.88 698,-802.62"/>
<polygon fill="none" stroke="black" points="327.5,-778.88 327.5,-802.62 698,-802.62 698,-778.88 327.5,-778.88"/>
<text xml:space="preserve" text-anchor="start" x="498.5" y="-785.88" font-family="arial" font-size="14.00">ENC</text>
<polygon fill="none" stroke="black" points="327.5,-755.12 327.5,-778.88 698,-778.88 698,-755.12 327.5,-755.12"/>
<text xml:space="preserve" text-anchor="start" x="505.62" y="-762.12" font-family="arial" font-size="14.00">8x</text>
<text xml:space="preserve" text-anchor="start" x="383.12" y="-740.38" font-family="arial" font-size="14.00"> </text>
<text xml:space="preserve" text-anchor="start" x="338.88" y="-720.62" font-family="arial" font-size="14.00">DB25:1:Enc A+</text>
<text xml:space="preserve" text-anchor="start" x="463.25" y="-720.62" font-family="arial" font-size="14.00"> &#160;&#160;&#160;&#160;1:BK &#160;&#160;&#160;</text>
<text xml:space="preserve" text-anchor="start" x="553.12" y="-720.62" font-family="arial" font-size="14.00">MC508_ENC:1:Enc A+</text>
<polygon fill="#000000" stroke="none" points="327.5,-713.62 327.5,-715.62 698,-715.62 698,-713.62 327.5,-713.62"/>
<polygon fill="#000000" stroke="none" points="327.5,-711.62 327.5,-713.62 698,-713.62 698,-711.62 327.5,-711.62"/>
<polygon fill="#000000" stroke="none" points="327.5,-709.62 327.5,-711.62 698,-711.62 698,-709.62 327.5,-709.62"/>
<polygon fill="#000000" stroke="none" points="327.5,-707.62 327.5,-709.62 698,-709.62 698,-707.62 327.5,-707.62"/>
<polygon fill="#000000" stroke="none" points="327.5,-705.62 327.5,-707.62 698,-707.62 698,-705.62 327.5,-705.62"/>
<text xml:space="preserve" text-anchor="start" x="337" y="-690.88" font-family="arial" font-size="14.00">DB25:14:Enc A&#45;</text>
<text xml:space="preserve" text-anchor="start" x="462.88" y="-690.88" font-family="arial" font-size="14.00"> &#160;&#160;&#160;&#160;2:BN &#160;&#160;&#160;</text>
<text xml:space="preserve" text-anchor="start" x="555.38" y="-690.88" font-family="arial" font-size="14.00">MC508_ENC:2:/Enc A</text>
<polygon fill="#000000" stroke="none" points="327.5,-683.88 327.5,-685.88 698,-685.88 698,-683.88 327.5,-683.88"/>
<polygon fill="#895956" stroke="none" points="327.5,-681.88 327.5,-683.88 698,-683.88 698,-681.88 327.5,-681.88"/>
<polygon fill="#895956" stroke="none" points="327.5,-679.88 327.5,-681.88 698,-681.88 698,-679.88 327.5,-679.88"/>
<polygon fill="#895956" stroke="none" points="327.5,-677.88 327.5,-679.88 698,-679.88 698,-677.88 327.5,-677.88"/>
<polygon fill="#000000" stroke="none" points="327.5,-675.88 327.5,-677.88 698,-677.88 698,-675.88 327.5,-675.88"/>
<text xml:space="preserve" text-anchor="start" x="338.5" y="-661.12" font-family="arial" font-size="14.00">DB25:2:Enc B+</text>
<text xml:space="preserve" text-anchor="start" x="462.5" y="-661.12" font-family="arial" font-size="14.00"> &#160;&#160;&#160;&#160;3:RD &#160;&#160;&#160;</text>
<text xml:space="preserve" text-anchor="start" x="552.75" y="-661.12" font-family="arial" font-size="14.00">MC508_ENC:3:Enc B+</text>
<polygon fill="#000000" stroke="none" points="327.5,-654.12 327.5,-656.12 698,-656.12 698,-654.12 327.5,-654.12"/>
<polygon fill="#ff0000" stroke="none" points="327.5,-652.12 327.5,-654.12 698,-654.12 698,-652.12 327.5,-652.12"/>
<polygon fill="#ff0000" stroke="none" points="327.5,-650.12 327.5,-652.12 698,-652.12 698,-650.12 327.5,-650.12"/>
<polygon fill="#ff0000" stroke="none" points="327.5,-648.12 327.5,-650.12 698,-650.12 698,-648.12 327.5,-648.12"/>
<polygon fill="#000000" stroke="none" points="327.5,-646.12 327.5,-648.12 698,-648.12 698,-646.12 327.5,-646.12"/>
<text xml:space="preserve" text-anchor="start" x="336.62" y="-631.38" font-family="arial" font-size="14.00">DB25:15:Enc B&#45;</text>
<text xml:space="preserve" text-anchor="start" x="461" y="-631.38" font-family="arial" font-size="14.00"> &#160;&#160;&#160;&#160;4:OG &#160;&#160;&#160;</text>
<text xml:space="preserve" text-anchor="start" x="555" y="-631.38" font-family="arial" font-size="14.00">MC508_ENC:4:/Enc B</text>
<polygon fill="#000000" stroke="none" points="327.5,-624.38 327.5,-626.38 698,-626.38 698,-624.38 327.5,-624.38"/>
<polygon fill="#ff8000" stroke="none" points="327.5,-622.38 327.5,-624.38 698,-624.38 698,-622.38 327.5,-622.38"/>
<polygon fill="#ff8000" stroke="none" points="327.5,-620.38 327.5,-622.38 698,-622.38 698,-620.38 327.5,-620.38"/>
<polygon fill="#ff8000" stroke="none" points="327.5,-618.38 327.5,-620.38 698,-620.38 698,-618.38 327.5,-618.38"/>
<polygon fill="#000000" stroke="none" points="327.5,-616.38 327.5,-618.38 698,-618.38 698,-616.38 327.5,-616.38"/>
<text xml:space="preserve" text-anchor="start" x="338.88" y="-601.62" font-family="arial" font-size="14.00">DB25:3:Enc Z+</text>
<text xml:space="preserve" text-anchor="start" x="444.5" y="-601.62" font-family="arial" font-size="14.00"> &#160;&#160;&#160;&#160;5:#90EE90 &#160;&#160;&#160;</text>
<text xml:space="preserve" text-anchor="start" x="549.75" y="-601.62" font-family="arial" font-size="14.00">MC508_ENC:11:Enc Z+</text>
<polygon fill="#000000" stroke="none" points="327.5,-594.62 327.5,-596.62 698,-596.62 698,-594.62 327.5,-594.62"/>
<polygon fill="#90ee90" stroke="none" points="327.5,-592.62 327.5,-594.62 698,-594.62 698,-592.62 327.5,-592.62"/>
<polygon fill="#90ee90" stroke="none" points="327.5,-590.62 327.5,-592.62 698,-592.62 698,-590.62 327.5,-590.62"/>
<polygon fill="#90ee90" stroke="none" points="327.5,-588.62 327.5,-590.62 698,-590.62 698,-588.62 327.5,-588.62"/>
<polygon fill="#000000" stroke="none" points="327.5,-586.62 327.5,-588.62 698,-588.62 698,-586.62 327.5,-586.62"/>
<text xml:space="preserve" text-anchor="start" x="337" y="-571.88" font-family="arial" font-size="14.00">DB25:16:Enc Z&#45;</text>
<text xml:space="preserve" text-anchor="start" x="464" y="-571.88" font-family="arial" font-size="14.00"> &#160;&#160;&#160;&#160;6:LB &#160;&#160;&#160;</text>
<text xml:space="preserve" text-anchor="start" x="551.62" y="-571.88" font-family="arial" font-size="14.00">MC508_ENC:12:/Enc Z</text>
<polygon fill="#000000" stroke="none" points="327.5,-564.88 327.5,-566.88 698,-566.88 698,-564.88 327.5,-564.88"/>
<polygon fill="#a0dfff" stroke="none" points="327.5,-562.88 327.5,-564.88 698,-564.88 698,-562.88 327.5,-562.88"/>
<polygon fill="#a0dfff" stroke="none" points="327.5,-560.88 327.5,-562.88 698,-562.88 698,-560.88 327.5,-560.88"/>
<polygon fill="#a0dfff" stroke="none" points="327.5,-558.88 327.5,-560.88 698,-560.88 698,-558.88 327.5,-558.88"/>
<polygon fill="#000000" stroke="none" points="327.5,-556.88 327.5,-558.88 698,-558.88 698,-556.88 327.5,-556.88"/>
<text xml:space="preserve" text-anchor="start" x="348.25" y="-542.12" font-family="arial" font-size="14.00">DB25:4:+5V</text>
<text xml:space="preserve" text-anchor="start" x="463.25" y="-542.12" font-family="arial" font-size="14.00"> &#160;&#160;&#160;&#160;7:YE &#160;&#160;&#160;</text>
<text xml:space="preserve" text-anchor="start" x="549" y="-542.12" font-family="arial" font-size="14.00">MC508_ENC:5:+5V Enc</text>
<polygon fill="#000000" stroke="none" points="327.5,-535.12 327.5,-537.12 698,-537.12 698,-535.12 327.5,-535.12"/>
<polygon fill="#ffff00" stroke="none" points="327.5,-533.12 327.5,-535.12 698,-535.12 698,-533.12 327.5,-533.12"/>
<polygon fill="#ffff00" stroke="none" points="327.5,-531.12 327.5,-533.12 698,-533.12 698,-531.12 327.5,-531.12"/>
<polygon fill="#ffff00" stroke="none" points="327.5,-529.12 327.5,-531.12 698,-531.12 698,-529.12 327.5,-529.12"/>
<polygon fill="#000000" stroke="none" points="327.5,-527.12 327.5,-529.12 698,-529.12 698,-527.12 327.5,-527.12"/>
<text xml:space="preserve" text-anchor="start" x="329.5" y="-512.38" font-family="arial" font-size="14.00">DB25:17:Dig GND</text>
<text xml:space="preserve" text-anchor="start" x="451.25" y="-512.38" font-family="arial" font-size="14.00"> &#160;&#160;&#160;&#160;8:WHBN &#160;&#160;&#160;</text>
<text xml:space="preserve" text-anchor="start" x="562.88" y="-512.38" font-family="arial" font-size="14.00">MC508_ENC:15:0V</text>
<polygon fill="#000000" stroke="none" points="327.5,-505.38 327.5,-507.38 698,-507.38 698,-505.38 327.5,-505.38"/>
<polygon fill="#ffffff" stroke="none" points="327.5,-503.38 327.5,-505.38 698,-505.38 698,-503.38 327.5,-503.38"/>
<polygon fill="#895956" stroke="none" points="327.5,-501.38 327.5,-503.38 698,-503.38 698,-501.38 327.5,-501.38"/>
<polygon fill="#ffffff" stroke="none" points="327.5,-499.38 327.5,-501.38 698,-501.38 698,-499.38 327.5,-499.38"/>
<polygon fill="#000000" stroke="none" points="327.5,-497.38 327.5,-499.38 698,-499.38 698,-497.38 327.5,-497.38"/>
<text xml:space="preserve" text-anchor="start" x="383.12" y="-482.62" font-family="arial" font-size="14.00"> </text>
<polygon fill="none" stroke="black" points="327.5,-453.88 327.5,-477.62 698,-477.62 698,-453.88 327.5,-453.88"/>
<text xml:space="preserve" text-anchor="start" x="435.12" y="-460.88" font-family="arial" font-size="14.00">Encoder adapter (8 wires)</text>
</g>
<!-- DB25&#45;&#45;ENC -->
<g id="edge1" class="edge">
<title>DB25:e&#45;&#45;ENC:w</title>
<path fill="none" stroke="#000000" stroke-width="2" d="M183.5,-673.88C252.86,-676.43 265.59,-709.18 327.5,-706.63"/>
<path fill="none" stroke="#000000" stroke-width="2" d="M183.5,-675.88C251,-677.15 263.73,-709.9 327.5,-708.63"/>
<path fill="none" stroke="#000000" stroke-width="2" d="M183.5,-677.88C249.13,-677.88 261.87,-710.62 327.5,-710.62"/>
<path fill="none" stroke="#000000" stroke-width="2" d="M183.5,-679.87C247.27,-678.6 260,-711.35 327.5,-712.62"/>
<path fill="none" stroke="#000000" stroke-width="2" d="M183.5,-681.87C245.41,-679.32 258.14,-712.07 327.5,-714.62"/>
</g>
<!-- DB25&#45;&#45;ENC -->
<g id="edge3" class="edge">
<title>DB25:e&#45;&#45;ENC:w</title>
<path fill="none" stroke="#000000" stroke-width="2" d="M183.5,-650.13C252.15,-652.29 265.96,-679.04 327.5,-676.88"/>
<path fill="none" stroke="#895956" stroke-width="2" d="M183.5,-652.13C250.37,-653.21 264.18,-679.96 327.5,-678.88"/>
<path fill="none" stroke="#895956" stroke-width="2" d="M183.5,-654.12C248.59,-654.12 262.41,-680.88 327.5,-680.88"/>
<path fill="none" stroke="#895956" stroke-width="2" d="M183.5,-656.12C246.82,-655.04 260.63,-681.79 327.5,-682.87"/>
<path fill="none" stroke="#000000" stroke-width="2" d="M183.5,-658.12C245.04,-655.96 258.85,-682.71 327.5,-684.87"/>
</g>
<!-- DB25&#45;&#45;ENC -->
<g id="edge5" class="edge">
<title>DB25:e&#45;&#45;ENC:w</title>
<path fill="none" stroke="#000000" stroke-width="2" d="M183.5,-626.38C251.43,-628.07 266.1,-648.82 327.5,-647.13"/>
<path fill="none" stroke="#ff0000" stroke-width="2" d="M183.5,-628.38C249.79,-629.22 264.47,-649.97 327.5,-649.13"/>
<path fill="none" stroke="#ff0000" stroke-width="2" d="M183.5,-630.38C248.16,-630.38 262.84,-651.13 327.5,-651.12"/>
<path fill="none" stroke="#ff0000" stroke-width="2" d="M183.5,-632.37C246.53,-631.53 261.21,-652.28 327.5,-653.12"/>
<path fill="none" stroke="#000000" stroke-width="2" d="M183.5,-634.37C244.9,-632.68 259.57,-653.43 327.5,-655.12"/>
</g>
<!-- DB25&#45;&#45;ENC -->
<g id="edge7" class="edge">
<title>DB25:e&#45;&#45;ENC:w</title>
<path fill="none" stroke="#000000" stroke-width="2" d="M183.5,-602.63C250.61,-603.74 265.94,-618.49 327.5,-617.38"/>
<path fill="none" stroke="#ff8000" stroke-width="2" d="M183.5,-604.63C249.22,-605.18 264.55,-619.93 327.5,-619.38"/>
<path fill="none" stroke="#ff8000" stroke-width="2" d="M183.5,-606.62C247.83,-606.62 263.17,-621.37 327.5,-621.37"/>
<path fill="none" stroke="#ff8000" stroke-width="2" d="M183.5,-608.62C246.45,-608.07 261.78,-622.82 327.5,-623.37"/>
<path fill="none" stroke="#000000" stroke-width="2" d="M183.5,-610.62C245.06,-609.51 260.39,-624.26 327.5,-625.37"/>
</g>
<!-- DB25&#45;&#45;ENC -->
<g id="edge9" class="edge">
<title>DB25:e&#45;&#45;ENC:w</title>
<path fill="none" stroke="#000000" stroke-width="2" d="M183.5,-578.88C249.56,-579.38 265.32,-588.13 327.5,-587.63"/>
<path fill="none" stroke="#90ee90" stroke-width="2" d="M183.5,-580.88C248.59,-581.13 264.35,-589.88 327.5,-589.63"/>
<path fill="none" stroke="#90ee90" stroke-width="2" d="M183.5,-582.88C247.62,-582.87 263.38,-591.62 327.5,-591.63"/>
<path fill="none" stroke="#90ee90" stroke-width="2" d="M183.5,-584.87C246.65,-584.62 262.41,-593.37 327.5,-593.62"/>
<path fill="none" stroke="#000000" stroke-width="2" d="M183.5,-586.87C245.68,-586.37 261.44,-595.12 327.5,-595.62"/>
</g>
<!-- DB25&#45;&#45;ENC -->
<g id="edge11" class="edge">
<title>DB25:e&#45;&#45;ENC:w</title>
<path fill="none" stroke="#000000" stroke-width="2" d="M183.5,-555.13C248.19,-555.18 264.17,-557.93 327.5,-557.88"/>
<path fill="none" stroke="#a0dfff" stroke-width="2" d="M183.5,-557.13C247.85,-557.15 263.83,-559.9 327.5,-559.88"/>
<path fill="none" stroke="#a0dfff" stroke-width="2" d="M183.5,-559.12C247.51,-559.13 263.49,-561.88 327.5,-561.88"/>
<path fill="none" stroke="#a0dfff" stroke-width="2" d="M183.5,-561.12C247.17,-561.1 263.15,-563.85 327.5,-563.87"/>
<path fill="none" stroke="#000000" stroke-width="2" d="M183.5,-563.12C246.83,-563.07 262.81,-565.82 327.5,-565.87"/>
</g>
<!-- DB25&#45;&#45;ENC -->
<g id="edge13" class="edge">
<title>DB25:e&#45;&#45;ENC:w</title>
<path fill="none" stroke="#000000" stroke-width="2" d="M183.5,-531.38C246.72,-531.46 262.69,-528.21 327.5,-528.13"/>
<path fill="none" stroke="#ffff00" stroke-width="2" d="M183.5,-533.38C247.12,-533.42 263.08,-530.17 327.5,-530.13"/>
<path fill="none" stroke="#ffff00" stroke-width="2" d="M183.5,-535.38C247.52,-535.38 263.48,-532.12 327.5,-532.12"/>
<path fill="none" stroke="#ffff00" stroke-width="2" d="M183.5,-537.37C247.92,-537.33 263.88,-534.08 327.5,-534.12"/>
<path fill="none" stroke="#000000" stroke-width="2" d="M183.5,-539.37C248.31,-539.29 264.28,-536.04 327.5,-536.12"/>
</g>
<!-- DB25&#45;&#45;ENC -->
<g id="edge15" class="edge">
<title>DB25:e&#45;&#45;ENC:w</title>
<path fill="none" stroke="#000000" stroke-width="2" d="M183.5,-507.63C245.6,-508.18 261.34,-498.93 327.5,-498.38"/>
<path fill="none" stroke="#ffffff" stroke-width="2" d="M183.5,-509.63C246.62,-509.9 262.35,-500.65 327.5,-500.38"/>
<path fill="none" stroke="#895956" stroke-width="2" d="M183.5,-511.62C247.63,-511.62 263.37,-502.37 327.5,-502.37"/>
<path fill="none" stroke="#ffffff" stroke-width="2" d="M183.5,-513.62C248.65,-513.35 264.38,-504.1 327.5,-504.37"/>
<path fill="none" stroke="#000000" stroke-width="2" d="M183.5,-515.62C249.66,-515.07 265.4,-505.82 327.5,-506.37"/>
</g>
<!-- LPOS -->
<g id="node8" class="node">
<title>LPOS</title>
<polygon fill="#ffffff" stroke="black" points="1948.75,-441.5 1651.75,-441.5 1651.75,-301 1948.75,-301 1948.75,-441.5"/>
<polygon fill="none" stroke="black" points="1651.75,-417.75 1651.75,-441.5 1948.75,-441.5 1948.75,-417.75 1651.75,-417.75"/>
<text xml:space="preserve" text-anchor="start" x="1781.88" y="-424.75" font-family="arial" font-size="14.00">LPOS</text>
<polygon fill="none" stroke="black" points="1651.75,-394 1651.75,-417.75 1948.75,-417.75 1948.75,-394 1651.75,-394"/>
<text xml:space="preserve" text-anchor="start" x="1793.12" y="-401" font-family="arial" font-size="14.00">1x</text>
<text xml:space="preserve" text-anchor="start" x="1708.12" y="-379.25" font-family="arial" font-size="14.00"> </text>
<text xml:space="preserve" text-anchor="start" x="1653.75" y="-359.5" font-family="arial" font-size="14.00">DB25:10:Pos Limit</text>
<text xml:space="preserve" text-anchor="start" x="1770.25" y="-359.5" font-family="arial" font-size="14.00"> &#160;&#160;&#160;&#160;1:BU &#160;&#160;&#160;</text>
<text xml:space="preserve" text-anchor="start" x="1838" y="-359.5" font-family="arial" font-size="14.00">MIC2981:1:In Pos</text>
<polygon fill="#000000" stroke="none" points="1651.75,-352.5 1651.75,-354.5 1948.75,-354.5 1948.75,-352.5 1651.75,-352.5"/>
<polygon fill="#0066ff" stroke="none" points="1651.75,-350.5 1651.75,-352.5 1948.75,-352.5 1948.75,-350.5 1651.75,-350.5"/>
<polygon fill="#0066ff" stroke="none" points="1651.75,-348.5 1651.75,-350.5 1948.75,-350.5 1948.75,-348.5 1651.75,-348.5"/>
<polygon fill="#0066ff" stroke="none" points="1651.75,-346.5 1651.75,-348.5 1948.75,-348.5 1948.75,-346.5 1651.75,-346.5"/>
<polygon fill="#000000" stroke="none" points="1651.75,-344.5 1651.75,-346.5 1948.75,-346.5 1948.75,-344.5 1651.75,-344.5"/>
<text xml:space="preserve" text-anchor="start" x="1708.12" y="-329.75" font-family="arial" font-size="14.00"> </text>
<polygon fill="none" stroke="black" points="1651.75,-301 1651.75,-324.75 1948.75,-324.75 1948.75,-301 1651.75,-301"/>
<text xml:space="preserve" text-anchor="start" x="1728.62" y="-308" font-family="arial" font-size="14.00">Pos limit → MIC2981 in</text>
</g>
<!-- DB25&#45;&#45;LPOS -->
<g id="edge17" class="edge">
<title>DB25:e&#45;&#45;LPOS:w</title>
<path fill="none" stroke="#000000" stroke-width="2" d="M183.5,-483.88C246.83,-486.63 257.71,-453.37 326.76,-438.32 845.93,-341.92 986.21,-412.52 1507.38,-363.27 1569.52,-358.09 1584.83,-346.33 1651.75,-345.5"/>
<path fill="none" stroke="#0066ff" stroke-width="2" d="M183.5,-485.88C248.73,-487.25 259.61,-453.99 327.13,-440.28 845.03,-343.7 985.31,-414.3 1507.56,-365.26 1570.74,-359.67 1586.05,-347.91 1651.75,-347.5"/>
<path fill="none" stroke="#0066ff" stroke-width="2" d="M183.5,-487.88C250.64,-487.88 261.51,-454.61 327.5,-442.25 844.13,-345.49 984.41,-416.09 1507.75,-367.25 1571.96,-361.26 1587.27,-349.5 1651.75,-349.5"/>
<path fill="none" stroke="#0066ff" stroke-width="2" d="M183.5,-489.87C252.54,-488.5 263.41,-455.23 327.87,-444.22 843.23,-347.28 983.51,-417.88 1507.94,-369.24 1573.17,-362.84 1588.48,-351.09 1651.75,-351.5"/>
<path fill="none" stroke="#000000" stroke-width="2" d="M183.5,-491.87C254.44,-489.12 265.31,-455.85 328.24,-446.18 842.33,-349.06 982.61,-419.66 1508.12,-371.23 1574.39,-364.43 1589.7,-352.67 1651.75,-353.5"/>
</g>
<!-- LNEG -->
<g id="node9" class="node">
<title>LNEG</title>
<polygon fill="#ffffff" stroke="black" points="1507.75,-355.5 1209.25,-355.5 1209.25,-215 1507.75,-215 1507.75,-355.5"/>
<polygon fill="none" stroke="black" points="1209.25,-331.75 1209.25,-355.5 1507.75,-355.5 1507.75,-331.75 1209.25,-331.75"/>
<text xml:space="preserve" text-anchor="start" x="1339.75" y="-338.75" font-family="arial" font-size="14.00">LNEG</text>
<polygon fill="none" stroke="black" points="1209.25,-308 1209.25,-331.75 1507.75,-331.75 1507.75,-308 1209.25,-308"/>
<text xml:space="preserve" text-anchor="start" x="1351.38" y="-315" font-family="arial" font-size="14.00">1x</text>
<text xml:space="preserve" text-anchor="start" x="1266.38" y="-293.25" font-family="arial" font-size="14.00"> </text>
<text xml:space="preserve" text-anchor="start" x="1211.25" y="-273.5" font-family="arial" font-size="14.00">DB25:12:Neg Limit</text>
<text xml:space="preserve" text-anchor="start" x="1329.25" y="-273.5" font-family="arial" font-size="14.00"> &#160;&#160;&#160;&#160;1:VT &#160;&#160;&#160;</text>
<text xml:space="preserve" text-anchor="start" x="1395.5" y="-273.5" font-family="arial" font-size="14.00">MIC2981:2:In Neg</text>
<polygon fill="#000000" stroke="none" points="1209.25,-266.5 1209.25,-268.5 1507.75,-268.5 1507.75,-266.5 1209.25,-266.5"/>
<polygon fill="#8000ff" stroke="none" points="1209.25,-264.5 1209.25,-266.5 1507.75,-266.5 1507.75,-264.5 1209.25,-264.5"/>
<polygon fill="#8000ff" stroke="none" points="1209.25,-262.5 1209.25,-264.5 1507.75,-264.5 1507.75,-262.5 1209.25,-262.5"/>
<polygon fill="#8000ff" stroke="none" points="1209.25,-260.5 1209.25,-262.5 1507.75,-262.5 1507.75,-260.5 1209.25,-260.5"/>
<polygon fill="#000000" stroke="none" points="1209.25,-258.5 1209.25,-260.5 1507.75,-260.5 1507.75,-258.5 1209.25,-258.5"/>
<text xml:space="preserve" text-anchor="start" x="1266.38" y="-243.75" font-family="arial" font-size="14.00"> </text>
<polygon fill="none" stroke="black" points="1209.25,-215 1209.25,-238.75 1507.75,-238.75 1507.75,-215 1209.25,-215"/>
<text xml:space="preserve" text-anchor="start" x="1286.12" y="-222" font-family="arial" font-size="14.00">Neg limit → MIC2981 in</text>
</g>
<!-- DB25&#45;&#45;LNEG -->
<g id="edge19" class="edge">
<title>DB25:e&#45;&#45;LNEG:w</title>
<path fill="none" stroke="#000000" stroke-width="2" d="M183.5,-460.13C255.18,-464.3 252.24,-398.91 326.15,-369.48 373.51,-352.66 1159.42,-259.53 1209.25,-259.5"/>
<path fill="none" stroke="#8000ff" stroke-width="2" d="M183.5,-462.13C257.18,-464.21 254.24,-398.82 326.83,-371.37 373.75,-354.64 1159.65,-261.51 1209.25,-261.5"/>
<path fill="none" stroke="#8000ff" stroke-width="2" d="M183.5,-464.12C259.18,-464.12 256.24,-398.73 327.5,-373.25 373.98,-356.63 1159.89,-263.5 1209.25,-263.5"/>
<path fill="none" stroke="#8000ff" stroke-width="2" d="M183.5,-466.12C261.18,-464.04 258.24,-398.64 328.17,-375.13 374.22,-358.62 1160.12,-265.49 1209.25,-265.5"/>
<path fill="none" stroke="#000000" stroke-width="2" d="M183.5,-468.12C263.17,-463.95 260.24,-398.55 328.85,-377.02 374.45,-360.6 1160.36,-267.47 1209.25,-267.5"/>
</g>
<!-- LPWR -->
<g id="node16" class="node">
<title>LPWR</title>
<polygon fill="#ffffff" stroke="black" points="633.5,-305.5 392,-305.5 392,-165 633.5,-165 633.5,-305.5"/>
<polygon fill="none" stroke="black" points="392,-281.75 392,-305.5 633.5,-305.5 633.5,-281.75 392,-281.75"/>
<text xml:space="preserve" text-anchor="start" x="492.88" y="-288.75" font-family="arial" font-size="14.00">LPWR</text>
<polygon fill="none" stroke="black" points="392,-258 392,-281.75 633.5,-281.75 633.5,-258 392,-258"/>
<text xml:space="preserve" text-anchor="start" x="505.62" y="-265" font-family="arial" font-size="14.00">1x</text>
<text xml:space="preserve" text-anchor="start" x="433.38" y="-243.25" font-family="arial" font-size="14.00"> </text>
<text xml:space="preserve" text-anchor="start" x="394" y="-223.5" font-family="arial" font-size="14.00">DB25:13:Viso</text>
<text xml:space="preserve" text-anchor="start" x="480.5" y="-223.5" font-family="arial" font-size="14.00"> &#160;&#160;&#160;&#160;1:RD &#160;&#160;&#160;</text>
<text xml:space="preserve" text-anchor="start" x="549" y="-223.5" font-family="arial" font-size="14.00">EXT5V:1:+5V</text>
<polygon fill="#000000" stroke="none" points="392,-216.5 392,-218.5 633.5,-218.5 633.5,-216.5 392,-216.5"/>
<polygon fill="#ff0000" stroke="none" points="392,-214.5 392,-216.5 633.5,-216.5 633.5,-214.5 392,-214.5"/>
<polygon fill="#ff0000" stroke="none" points="392,-212.5 392,-214.5 633.5,-214.5 633.5,-212.5 392,-212.5"/>
<polygon fill="#ff0000" stroke="none" points="392,-210.5 392,-212.5 633.5,-212.5 633.5,-210.5 392,-210.5"/>
<polygon fill="#000000" stroke="none" points="392,-208.5 392,-210.5 633.5,-210.5 633.5,-208.5 392,-208.5"/>
<text xml:space="preserve" text-anchor="start" x="433.38" y="-193.75" font-family="arial" font-size="14.00"> </text>
<polygon fill="none" stroke="black" points="392,-165 392,-188.75 633.5,-188.75 633.5,-165 392,-165"/>
<text xml:space="preserve" text-anchor="start" x="468.88" y="-172" font-family="arial" font-size="14.00">Viso → Ext 5V</text>
</g>
<!-- DB25&#45;&#45;LPWR -->
<g id="edge33" class="edge">
<title>DB25:e&#45;&#45;LPWR:w</title>
<path fill="none" stroke="#000000" stroke-width="2" d="M183.5,-436.38C316.3,-441.49 250.51,-214.61 391,-209.5"/>
<path fill="none" stroke="#ff0000" stroke-width="2" d="M183.5,-438.38C318.23,-440.93 252.43,-214.06 391,-211.5"/>
<path fill="none" stroke="#ff0000" stroke-width="2" d="M183.5,-440.38C320.15,-440.38 254.35,-213.5 391,-213.5"/>
<path fill="none" stroke="#ff0000" stroke-width="2" d="M183.5,-442.37C322.07,-439.82 256.27,-212.94 391,-215.5"/>
<path fill="none" stroke="#000000" stroke-width="2" d="M183.5,-444.37C323.99,-439.26 258.2,-212.39 391,-217.5"/>
</g>
<!-- LGND -->
<g id="node17" class="node">
<title>LGND</title>
<polygon fill="#ffffff" stroke="black" points="636.12,-140.5 389.38,-140.5 389.38,0 636.12,0 636.12,-140.5"/>
<polygon fill="none" stroke="black" points="389.38,-116.75 389.38,-140.5 636.12,-140.5 636.12,-116.75 389.38,-116.75"/>
<text xml:space="preserve" text-anchor="start" x="493.62" y="-123.75" font-family="arial" font-size="14.00">LGND</text>
<polygon fill="none" stroke="black" points="389.38,-93 389.38,-116.75 636.12,-116.75 636.12,-93 389.38,-93"/>
<text xml:space="preserve" text-anchor="start" x="505.62" y="-100" font-family="arial" font-size="14.00">1x</text>
<text xml:space="preserve" text-anchor="start" x="431.12" y="-78.25" font-family="arial" font-size="14.00"> </text>
<text xml:space="preserve" text-anchor="start" x="391.38" y="-58.5" font-family="arial" font-size="14.00">DB25:22:Ciso</text>
<text xml:space="preserve" text-anchor="start" x="478.62" y="-58.5" font-family="arial" font-size="14.00"> &#160;&#160;&#160;&#160;1:BK &#160;&#160;&#160;</text>
<text xml:space="preserve" text-anchor="start" x="545.62" y="-58.5" font-family="arial" font-size="14.00">EXT5V:2:GND</text>
<polygon fill="#000000" stroke="none" points="389.38,-51.5 389.38,-53.5 636.12,-53.5 636.12,-51.5 389.38,-51.5"/>
<polygon fill="#000000" stroke="none" points="389.38,-49.5 389.38,-51.5 636.12,-51.5 636.12,-49.5 389.38,-49.5"/>
<polygon fill="#000000" stroke="none" points="389.38,-47.5 389.38,-49.5 636.12,-49.5 636.12,-47.5 389.38,-47.5"/>
<polygon fill="#000000" stroke="none" points="389.38,-45.5 389.38,-47.5 636.12,-47.5 636.12,-45.5 389.38,-45.5"/>
<polygon fill="#000000" stroke="none" points="389.38,-43.5 389.38,-45.5 636.12,-45.5 636.12,-43.5 389.38,-43.5"/>
<text xml:space="preserve" text-anchor="start" x="431.12" y="-28.75" font-family="arial" font-size="14.00"> </text>
<polygon fill="none" stroke="black" points="389.38,0 389.38,-23.75 636.12,-23.75 636.12,0 389.38,0"/>
<text xml:space="preserve" text-anchor="start" x="451.25" y="-7" font-family="arial" font-size="14.00">Ciso → Ext 5V GND</text>
</g>
<!-- DB25&#45;&#45;LGND -->
<g id="edge35" class="edge">
<title>DB25:e&#45;&#45;LGND:w</title>
<path fill="none" stroke="#000000" stroke-width="2" d="M183.5,-412.63C367.11,-418.3 197.5,-50.17 388.38,-44.5"/>
<path fill="none" stroke="#000000" stroke-width="2" d="M183.5,-414.63C368.93,-417.46 199.32,-49.34 388.38,-46.5"/>
<path fill="none" stroke="#000000" stroke-width="2" d="M183.5,-416.62C370.74,-416.62 201.13,-48.5 388.38,-48.5"/>
<path fill="none" stroke="#000000" stroke-width="2" d="M183.5,-418.62C372.56,-415.79 202.95,-47.66 388.38,-50.5"/>
<path fill="none" stroke="#000000" stroke-width="2" d="M183.5,-420.62C374.38,-414.95 204.77,-46.83 388.38,-52.5"/>
</g>
<!-- MC508_ENC -->
<g id="node2" class="node">
<title>MC508_ENC</title>
<polygon fill="#ffffff" stroke="black" points="1058.5,-761.5 848.75,-761.5 848.75,-429 1058.5,-429 1058.5,-761.5"/>
<polygon fill="none" stroke="black" points="848.75,-737.75 848.75,-761.5 1058.5,-761.5 1058.5,-737.75 848.75,-737.75"/>
<text xml:space="preserve" text-anchor="start" x="913.5" y="-744.75" font-family="arial" font-size="14.00">MC508_ENC</text>
<polygon fill="none" stroke="black" points="848.75,-714 848.75,-737.75 960.75,-737.75 960.75,-714 848.75,-714"/>
<text xml:space="preserve" text-anchor="start" x="879.25" y="-721" font-family="arial" font-size="14.00">MDR&#45;20</text>
<polygon fill="none" stroke="black" points="960.75,-714 960.75,-737.75 1058.5,-737.75 1058.5,-714 960.75,-714"/>
<text xml:space="preserve" text-anchor="start" x="991.25" y="-721" font-family="arial" font-size="14.00">11&#45;pin</text>
<polygon fill="none" stroke="black" points="848.75,-690.25 848.75,-714 902.67,-714 902.67,-690.25 848.75,-690.25"/>
<text xml:space="preserve" text-anchor="start" x="871.96" y="-697.25" font-family="arial" font-size="14.00">1</text>
<polygon fill="none" stroke="black" points="902.67,-690.25 902.67,-714 1004.58,-714 1004.58,-690.25 902.67,-690.25"/>
<text xml:space="preserve" text-anchor="start" x="931.88" y="-697.25" font-family="arial" font-size="14.00">Enc A+</text>
<polygon fill="none" stroke="black" points="1004.58,-690.25 1004.58,-714 1058.5,-714 1058.5,-690.25 1004.58,-690.25"/>
<text xml:space="preserve" text-anchor="start" x="1027.79" y="-697.25" font-family="arial" font-size="14.00">1</text>
<polygon fill="none" stroke="black" points="848.75,-666.5 848.75,-690.25 902.67,-690.25 902.67,-666.5 848.75,-666.5"/>
<text xml:space="preserve" text-anchor="start" x="871.96" y="-673.5" font-family="arial" font-size="14.00">2</text>
<polygon fill="none" stroke="black" points="902.67,-666.5 902.67,-690.25 1004.58,-690.25 1004.58,-666.5 902.67,-666.5"/>
<text xml:space="preserve" text-anchor="start" x="934.12" y="-673.5" font-family="arial" font-size="14.00">/Enc A</text>
<polygon fill="none" stroke="black" points="1004.58,-666.5 1004.58,-690.25 1058.5,-690.25 1058.5,-666.5 1004.58,-666.5"/>
<text xml:space="preserve" text-anchor="start" x="1027.79" y="-673.5" font-family="arial" font-size="14.00">2</text>
<polygon fill="none" stroke="black" points="848.75,-642.75 848.75,-666.5 902.67,-666.5 902.67,-642.75 848.75,-642.75"/>
<text xml:space="preserve" text-anchor="start" x="871.96" y="-649.75" font-family="arial" font-size="14.00">3</text>
<polygon fill="none" stroke="black" points="902.67,-642.75 902.67,-666.5 1004.58,-666.5 1004.58,-642.75 902.67,-642.75"/>
<text xml:space="preserve" text-anchor="start" x="931.5" y="-649.75" font-family="arial" font-size="14.00">Enc B+</text>
<polygon fill="none" stroke="black" points="1004.58,-642.75 1004.58,-666.5 1058.5,-666.5 1058.5,-642.75 1004.58,-642.75"/>
<text xml:space="preserve" text-anchor="start" x="1027.79" y="-649.75" font-family="arial" font-size="14.00">3</text>
<polygon fill="none" stroke="black" points="848.75,-619 848.75,-642.75 902.67,-642.75 902.67,-619 848.75,-619"/>
<text xml:space="preserve" text-anchor="start" x="871.96" y="-626" font-family="arial" font-size="14.00">4</text>
<polygon fill="none" stroke="black" points="902.67,-619 902.67,-642.75 1004.58,-642.75 1004.58,-619 902.67,-619"/>
<text xml:space="preserve" text-anchor="start" x="933.75" y="-626" font-family="arial" font-size="14.00">/Enc B</text>
<polygon fill="none" stroke="black" points="1004.58,-619 1004.58,-642.75 1058.5,-642.75 1058.5,-619 1004.58,-619"/>
<text xml:space="preserve" text-anchor="start" x="1027.79" y="-626" font-family="arial" font-size="14.00">4</text>
<polygon fill="none" stroke="black" points="848.75,-595.25 848.75,-619 902.67,-619 902.67,-595.25 848.75,-595.25"/>
<text xml:space="preserve" text-anchor="start" x="868.58" y="-602.25" font-family="arial" font-size="14.00">11</text>
<polygon fill="none" stroke="black" points="902.67,-595.25 902.67,-619 1004.58,-619 1004.58,-595.25 902.67,-595.25"/>
<text xml:space="preserve" text-anchor="start" x="931.88" y="-602.25" font-family="arial" font-size="14.00">Enc Z+</text>
<polygon fill="none" stroke="black" points="1004.58,-595.25 1004.58,-619 1058.5,-619 1058.5,-595.25 1004.58,-595.25"/>
<text xml:space="preserve" text-anchor="start" x="1024.42" y="-602.25" font-family="arial" font-size="14.00">11</text>
<polygon fill="none" stroke="black" points="848.75,-571.5 848.75,-595.25 902.67,-595.25 902.67,-571.5 848.75,-571.5"/>
<text xml:space="preserve" text-anchor="start" x="868.21" y="-578.5" font-family="arial" font-size="14.00">12</text>
<polygon fill="none" stroke="black" points="902.67,-571.5 902.67,-595.25 1004.58,-595.25 1004.58,-571.5 902.67,-571.5"/>
<text xml:space="preserve" text-anchor="start" x="934.12" y="-578.5" font-family="arial" font-size="14.00">/Enc Z</text>
<polygon fill="none" stroke="black" points="1004.58,-571.5 1004.58,-595.25 1058.5,-595.25 1058.5,-571.5 1004.58,-571.5"/>
<text xml:space="preserve" text-anchor="start" x="1024.04" y="-578.5" font-family="arial" font-size="14.00">12</text>
<polygon fill="none" stroke="black" points="848.75,-547.75 848.75,-571.5 902.67,-571.5 902.67,-547.75 848.75,-547.75"/>
<text xml:space="preserve" text-anchor="start" x="871.96" y="-554.75" font-family="arial" font-size="14.00">5</text>
<polygon fill="none" stroke="black" points="902.67,-547.75 902.67,-571.5 1004.58,-571.5 1004.58,-547.75 902.67,-547.75"/>
<text xml:space="preserve" text-anchor="start" x="927.75" y="-554.75" font-family="arial" font-size="14.00">+5V Enc</text>
<polygon fill="none" stroke="black" points="1004.58,-547.75 1004.58,-571.5 1058.5,-571.5 1058.5,-547.75 1004.58,-547.75"/>
<text xml:space="preserve" text-anchor="start" x="1027.79" y="-554.75" font-family="arial" font-size="14.00">5</text>
<polygon fill="none" stroke="black" points="848.75,-524 848.75,-547.75 902.67,-547.75 902.67,-524 848.75,-524"/>
<text xml:space="preserve" text-anchor="start" x="868.21" y="-531" font-family="arial" font-size="14.00">15</text>
<polygon fill="none" stroke="black" points="902.67,-524 902.67,-547.75 1004.58,-547.75 1004.58,-524 902.67,-524"/>
<text xml:space="preserve" text-anchor="start" x="945.38" y="-531" font-family="arial" font-size="14.00">0V</text>
<polygon fill="none" stroke="black" points="1004.58,-524 1004.58,-547.75 1058.5,-547.75 1058.5,-524 1004.58,-524"/>
<text xml:space="preserve" text-anchor="start" x="1024.04" y="-531" font-family="arial" font-size="14.00">15</text>
<polygon fill="none" stroke="black" points="848.75,-500.25 848.75,-524 902.67,-524 902.67,-500.25 848.75,-500.25"/>
<text xml:space="preserve" text-anchor="start" x="871.96" y="-507.25" font-family="arial" font-size="14.00">9</text>
<polygon fill="none" stroke="black" points="902.67,-500.25 902.67,-524 1004.58,-524 1004.58,-500.25 902.67,-500.25"/>
<text xml:space="preserve" text-anchor="start" x="932.62" y="-507.25" font-family="arial" font-size="14.00">Input A</text>
<polygon fill="none" stroke="black" points="1004.58,-500.25 1004.58,-524 1058.5,-524 1058.5,-500.25 1004.58,-500.25"/>
<text xml:space="preserve" text-anchor="start" x="1027.79" y="-507.25" font-family="arial" font-size="14.00">9</text>
<polygon fill="none" stroke="black" points="848.75,-476.5 848.75,-500.25 902.67,-500.25 902.67,-476.5 848.75,-476.5"/>
<text xml:space="preserve" text-anchor="start" x="868.21" y="-483.5" font-family="arial" font-size="14.00">20</text>
<polygon fill="none" stroke="black" points="902.67,-476.5 902.67,-500.25 1004.58,-500.25 1004.58,-476.5 902.67,-476.5"/>
<text xml:space="preserve" text-anchor="start" x="932.25" y="-483.5" font-family="arial" font-size="14.00">Input B</text>
<polygon fill="none" stroke="black" points="1004.58,-476.5 1004.58,-500.25 1058.5,-500.25 1058.5,-476.5 1004.58,-476.5"/>
<text xml:space="preserve" text-anchor="start" x="1024.04" y="-483.5" font-family="arial" font-size="14.00">20</text>
<polygon fill="none" stroke="black" points="848.75,-452.75 848.75,-476.5 902.67,-476.5 902.67,-452.75 848.75,-452.75"/>
<text xml:space="preserve" text-anchor="start" x="868.21" y="-459.75" font-family="arial" font-size="14.00">10</text>
<polygon fill="none" stroke="black" points="902.67,-452.75 902.67,-476.5 1004.58,-476.5 1004.58,-452.75 902.67,-452.75"/>
<text xml:space="preserve" text-anchor="start" x="922.12" y="-459.75" font-family="arial" font-size="14.00">Input Com</text>
<polygon fill="none" stroke="black" points="1004.58,-452.75 1004.58,-476.5 1058.5,-476.5 1058.5,-452.75 1004.58,-452.75"/>
<text xml:space="preserve" text-anchor="start" x="1024.04" y="-459.75" font-family="arial" font-size="14.00">10</text>
<polygon fill="none" stroke="black" points="848.75,-429 848.75,-452.75 1058.5,-452.75 1058.5,-429 848.75,-429"/>
<text xml:space="preserve" text-anchor="start" x="852.75" y="-436" font-family="arial" font-size="14.00">MC508 Encoder Port (ATYPE 76)</text>
</g>
<!-- ICOM_SCSI -->
<g id="node12" class="node">
<title>ICOM_SCSI</title>
<polygon fill="#ffffff" stroke="black" points="1481.5,-800.5 1235.5,-800.5 1235.5,-660 1481.5,-660 1481.5,-800.5"/>
<polygon fill="none" stroke="black" points="1235.5,-776.75 1235.5,-800.5 1481.5,-800.5 1481.5,-776.75 1235.5,-776.75"/>
<text xml:space="preserve" text-anchor="start" x="1320.62" y="-783.75" font-family="arial" font-size="14.00">ICOM_SCSI</text>
<polygon fill="none" stroke="black" points="1235.5,-753 1235.5,-776.75 1481.5,-776.75 1481.5,-753 1235.5,-753"/>
<text xml:space="preserve" text-anchor="start" x="1351.38" y="-760" font-family="arial" font-size="14.00">1x</text>
<text xml:space="preserve" text-anchor="start" x="1318.5" y="-738.25" font-family="arial" font-size="14.00"> </text>
<text xml:space="preserve" text-anchor="start" x="1237.5" y="-718.5" font-family="arial" font-size="14.00">MC508_ENC:10:Input Com</text>
<text xml:space="preserve" text-anchor="start" x="1407.25" y="-718.5" font-family="arial" font-size="14.00"> &#160;&#160;&#160;&#160;1:WH &#160;&#160;&#160;</text>
<polygon fill="#000000" stroke="none" points="1235.5,-711.5 1235.5,-713.5 1481.5,-713.5 1481.5,-711.5 1235.5,-711.5"/>
<polygon fill="#ffffff" stroke="none" points="1235.5,-709.5 1235.5,-711.5 1481.5,-711.5 1481.5,-709.5 1235.5,-709.5"/>
<polygon fill="#ffffff" stroke="none" points="1235.5,-707.5 1235.5,-709.5 1481.5,-709.5 1481.5,-707.5 1235.5,-707.5"/>
<polygon fill="#ffffff" stroke="none" points="1235.5,-705.5 1235.5,-707.5 1481.5,-707.5 1481.5,-705.5 1235.5,-705.5"/>
<polygon fill="#000000" stroke="none" points="1235.5,-703.5 1235.5,-705.5 1481.5,-705.5 1481.5,-703.5 1235.5,-703.5"/>
<text xml:space="preserve" text-anchor="start" x="1318.5" y="-688.75" font-family="arial" font-size="14.00"> </text>
<polygon fill="none" stroke="black" points="1235.5,-660 1235.5,-683.75 1481.5,-683.75 1481.5,-660 1235.5,-660"/>
<text xml:space="preserve" text-anchor="start" x="1295.12" y="-667" font-family="arial" font-size="14.00">Input Com SCSI wire</text>
</g>
<!-- MC508_ENC&#45;&#45;ICOM_SCSI -->
<g id="edge25" class="edge">
<title>MC508_ENC:e&#45;&#45;ICOM_SCSI:w</title>
<path fill="none" stroke="#000000" stroke-width="2" d="M1059.5,-460.63C1196.65,-466.03 1104.84,-709.91 1234.5,-704.5"/>
<path fill="none" stroke="#ffffff" stroke-width="2" d="M1059.5,-462.63C1194.78,-465.33 1102.96,-709.2 1234.5,-706.5"/>
<path fill="none" stroke="#ffffff" stroke-width="2" d="M1059.5,-464.63C1192.91,-464.62 1101.09,-708.5 1234.5,-708.5"/>
<path fill="none" stroke="#ffffff" stroke-width="2" d="M1059.5,-466.62C1191.04,-463.92 1099.22,-707.8 1234.5,-710.5"/>
<path fill="none" stroke="#000000" stroke-width="2" d="M1059.5,-468.62C1189.16,-463.22 1097.35,-707.09 1234.5,-712.5"/>
</g>
<!-- MIC2981 -->
<g id="node3" class="node">
<title>MIC2981</title>
<polygon fill="#ffffff" stroke="black" points="3375.5,-586.12 3129,-586.12 3129,-372.38 3375.5,-372.38 3375.5,-586.12"/>
<polygon fill="none" stroke="black" points="3129,-562.38 3129,-586.12 3375.5,-586.12 3375.5,-562.38 3129,-562.38"/>
<text xml:space="preserve" text-anchor="start" x="3224.5" y="-569.38" font-family="arial" font-size="14.00">MIC2981</text>
<polygon fill="none" stroke="black" points="3129,-538.62 3129,-562.38 3286.75,-562.38 3286.75,-538.62 3129,-538.62"/>
<text xml:space="preserve" text-anchor="start" x="3158.38" y="-545.62" font-family="arial" font-size="14.00">High&#45;Side Driver</text>
<polygon fill="none" stroke="black" points="3286.75,-538.62 3286.75,-562.38 3375.5,-562.38 3375.5,-538.62 3286.75,-538.62"/>
<text xml:space="preserve" text-anchor="start" x="3316.12" y="-545.62" font-family="arial" font-size="14.00">6&#45;pin</text>
<polygon fill="none" stroke="black" points="3129,-514.88 3129,-538.62 3196.67,-538.62 3196.67,-514.88 3129,-514.88"/>
<text xml:space="preserve" text-anchor="start" x="3159.08" y="-521.88" font-family="arial" font-size="14.00">1</text>
<polygon fill="none" stroke="black" points="3196.67,-514.88 3196.67,-538.62 3307.83,-538.62 3307.83,-514.88 3196.67,-514.88"/>
<text xml:space="preserve" text-anchor="start" x="3233.12" y="-521.88" font-family="arial" font-size="14.00">In Pos</text>
<polygon fill="none" stroke="black" points="3307.83,-514.88 3307.83,-538.62 3375.5,-538.62 3375.5,-514.88 3307.83,-514.88"/>
<text xml:space="preserve" text-anchor="start" x="3337.92" y="-521.88" font-family="arial" font-size="14.00">1</text>
<polygon fill="none" stroke="black" points="3129,-491.12 3129,-514.88 3196.67,-514.88 3196.67,-491.12 3129,-491.12"/>
<text xml:space="preserve" text-anchor="start" x="3159.08" y="-498.12" font-family="arial" font-size="14.00">2</text>
<polygon fill="none" stroke="black" points="3196.67,-491.12 3196.67,-514.88 3307.83,-514.88 3307.83,-491.12 3196.67,-491.12"/>
<text xml:space="preserve" text-anchor="start" x="3232.38" y="-498.12" font-family="arial" font-size="14.00">In Neg</text>
<polygon fill="none" stroke="black" points="3307.83,-491.12 3307.83,-514.88 3375.5,-514.88 3375.5,-491.12 3307.83,-491.12"/>
<text xml:space="preserve" text-anchor="start" x="3337.92" y="-498.12" font-family="arial" font-size="14.00">2</text>
<polygon fill="none" stroke="black" points="3129,-467.38 3129,-491.12 3196.67,-491.12 3196.67,-467.38 3129,-467.38"/>
<text xml:space="preserve" text-anchor="start" x="3159.08" y="-474.38" font-family="arial" font-size="14.00">3</text>
<polygon fill="none" stroke="black" points="3196.67,-467.38 3196.67,-491.12 3307.83,-491.12 3307.83,-467.38 3196.67,-467.38"/>
<text xml:space="preserve" text-anchor="start" x="3244.38" y="-474.38" font-family="arial" font-size="14.00">Vs</text>
<polygon fill="none" stroke="black" points="3307.83,-467.38 3307.83,-491.12 3375.5,-491.12 3375.5,-467.38 3307.83,-467.38"/>
<text xml:space="preserve" text-anchor="start" x="3337.92" y="-474.38" font-family="arial" font-size="14.00">3</text>
<polygon fill="none" stroke="black" points="3129,-443.62 3129,-467.38 3196.67,-467.38 3196.67,-443.62 3129,-443.62"/>
<text xml:space="preserve" text-anchor="start" x="3159.08" y="-450.62" font-family="arial" font-size="14.00">4</text>
<polygon fill="none" stroke="black" points="3196.67,-443.62 3196.67,-467.38 3307.83,-467.38 3307.83,-443.62 3196.67,-443.62"/>
<text xml:space="preserve" text-anchor="start" x="3236.88" y="-450.62" font-family="arial" font-size="14.00">GND</text>
<polygon fill="none" stroke="black" points="3307.83,-443.62 3307.83,-467.38 3375.5,-467.38 3375.5,-443.62 3307.83,-443.62"/>
<text xml:space="preserve" text-anchor="start" x="3337.92" y="-450.62" font-family="arial" font-size="14.00">4</text>
<polygon fill="none" stroke="black" points="3129,-419.88 3129,-443.62 3196.67,-443.62 3196.67,-419.88 3129,-419.88"/>
<text xml:space="preserve" text-anchor="start" x="3159.08" y="-426.88" font-family="arial" font-size="14.00">5</text>
<polygon fill="none" stroke="black" points="3196.67,-419.88 3196.67,-443.62 3307.83,-443.62 3307.83,-419.88 3196.67,-419.88"/>
<text xml:space="preserve" text-anchor="start" x="3227.5" y="-426.88" font-family="arial" font-size="14.00">Out Pos</text>
<polygon fill="none" stroke="black" points="3307.83,-419.88 3307.83,-443.62 3375.5,-443.62 3375.5,-419.88 3307.83,-419.88"/>
<text xml:space="preserve" text-anchor="start" x="3337.92" y="-426.88" font-family="arial" font-size="14.00">5</text>
<polygon fill="none" stroke="black" points="3129,-396.12 3129,-419.88 3196.67,-419.88 3196.67,-396.12 3129,-396.12"/>
<text xml:space="preserve" text-anchor="start" x="3159.08" y="-403.12" font-family="arial" font-size="14.00">6</text>
<polygon fill="none" stroke="black" points="3196.67,-396.12 3196.67,-419.88 3307.83,-419.88 3307.83,-396.12 3196.67,-396.12"/>
<text xml:space="preserve" text-anchor="start" x="3226.75" y="-403.12" font-family="arial" font-size="14.00">Out Neg</text>
<polygon fill="none" stroke="black" points="3307.83,-396.12 3307.83,-419.88 3375.5,-419.88 3375.5,-396.12 3307.83,-396.12"/>
<text xml:space="preserve" text-anchor="start" x="3337.92" y="-403.12" font-family="arial" font-size="14.00">6</text>
<polygon fill="none" stroke="black" points="3129,-372.38 3129,-396.12 3375.5,-396.12 3375.5,-372.38 3129,-372.38"/>
<text xml:space="preserve" text-anchor="start" x="3133" y="-379.38" font-family="arial" font-size="14.00">MIC2981/82YN (one per 3&#45;axis system)</text>
</g>
<!-- UPOS -->
<g id="node10" class="node">
<title>UPOS</title>
<polygon fill="#ffffff" stroke="black" points="3869.75,-597.5 3535.25,-597.5 3535.25,-457 3869.75,-457 3869.75,-597.5"/>
<polygon fill="none" stroke="black" points="3535.25,-573.75 3535.25,-597.5 3869.75,-597.5 3869.75,-573.75 3535.25,-573.75"/>
<text xml:space="preserve" text-anchor="start" x="3683" y="-580.75" font-family="arial" font-size="14.00">UPOS</text>
<polygon fill="none" stroke="black" points="3535.25,-550 3535.25,-573.75 3869.75,-573.75 3869.75,-550 3535.25,-550"/>
<text xml:space="preserve" text-anchor="start" x="3695.38" y="-557" font-family="arial" font-size="14.00">1x</text>
<text xml:space="preserve" text-anchor="start" x="3595.38" y="-535.25" font-family="arial" font-size="14.00"> </text>
<text xml:space="preserve" text-anchor="start" x="3537.25" y="-515.5" font-family="arial" font-size="14.00">MIC2981:5:Out Pos</text>
<text xml:space="preserve" text-anchor="start" x="3661.25" y="-515.5" font-family="arial" font-size="14.00"> &#160;&#160;&#160;&#160;1:GY &#160;&#160;&#160;</text>
<text xml:space="preserve" text-anchor="start" x="3730.5" y="-515.5" font-family="arial" font-size="14.00">MC508_ENC:9:Input A</text>
<polygon fill="#000000" stroke="none" points="3535.25,-508.5 3535.25,-510.5 3869.75,-510.5 3869.75,-508.5 3535.25,-508.5"/>
<polygon fill="#999999" stroke="none" points="3535.25,-506.5 3535.25,-508.5 3869.75,-508.5 3869.75,-506.5 3535.25,-506.5"/>
<polygon fill="#999999" stroke="none" points="3535.25,-504.5 3535.25,-506.5 3869.75,-506.5 3869.75,-504.5 3535.25,-504.5"/>
<polygon fill="#999999" stroke="none" points="3535.25,-502.5 3535.25,-504.5 3869.75,-504.5 3869.75,-502.5 3535.25,-502.5"/>
<polygon fill="#000000" stroke="none" points="3535.25,-500.5 3535.25,-502.5 3869.75,-502.5 3869.75,-500.5 3535.25,-500.5"/>
<text xml:space="preserve" text-anchor="start" x="3595.38" y="-485.75" font-family="arial" font-size="14.00"> </text>
<polygon fill="none" stroke="black" points="3535.25,-457 3535.25,-480.75 3869.75,-480.75 3869.75,-457 3535.25,-457"/>
<text xml:space="preserve" text-anchor="start" x="3607.62" y="-464" font-family="arial" font-size="14.00">MIC2981 out → MC508 Input A</text>
</g>
<!-- MIC2981&#45;&#45;UPOS -->
<g id="edge21" class="edge">
<title>MIC2981:e&#45;&#45;UPOS:w</title>
<path fill="none" stroke="#000000" stroke-width="2" d="M3375.5,-427.75C3457.29,-431.58 3460.45,-505.33 3534.25,-501.5"/>
<path fill="none" stroke="#999999" stroke-width="2" d="M3375.5,-429.75C3455.3,-431.66 3458.45,-505.41 3534.25,-503.5"/>
<path fill="none" stroke="#999999" stroke-width="2" d="M3375.5,-431.75C3453.3,-431.75 3456.45,-505.5 3534.25,-505.5"/>
<path fill="none" stroke="#999999" stroke-width="2" d="M3375.5,-433.75C3451.3,-431.84 3454.45,-505.59 3534.25,-507.5"/>
<path fill="none" stroke="#000000" stroke-width="2" d="M3375.5,-435.75C3449.3,-431.92 3452.46,-505.67 3534.25,-509.5"/>
</g>
<!-- UNEG -->
<g id="node11" class="node">
<title>UNEG</title>
<polygon fill="#ffffff" stroke="black" points="3885.5,-430.5 3519.5,-430.5 3519.5,-290 3885.5,-290 3885.5,-430.5"/>
<polygon fill="none" stroke="black" points="3519.5,-406.75 3519.5,-430.5 3885.5,-430.5 3885.5,-406.75 3519.5,-406.75"/>
<text xml:space="preserve" text-anchor="start" x="3682.62" y="-413.75" font-family="arial" font-size="14.00">UNEG</text>
<polygon fill="none" stroke="black" points="3519.5,-383 3519.5,-406.75 3885.5,-406.75 3885.5,-383 3519.5,-383"/>
<text xml:space="preserve" text-anchor="start" x="3695.38" y="-390" font-family="arial" font-size="14.00">1x</text>
<text xml:space="preserve" text-anchor="start" x="3580.38" y="-368.25" font-family="arial" font-size="14.00"> </text>
<text xml:space="preserve" text-anchor="start" x="3521.5" y="-348.5" font-family="arial" font-size="14.00">MIC2981:6:Out Neg</text>
<text xml:space="preserve" text-anchor="start" x="3647" y="-348.5" font-family="arial" font-size="14.00"> &#160;&#160;&#160;&#160;1:WHBU &#160;&#160;&#160;</text>
<text xml:space="preserve" text-anchor="start" x="3738" y="-348.5" font-family="arial" font-size="14.00">MC508_ENC:20:Input B</text>
<polygon fill="#000000" stroke="none" points="3519.5,-341.5 3519.5,-343.5 3885.5,-343.5 3885.5,-341.5 3519.5,-341.5"/>
<polygon fill="#ffffff" stroke="none" points="3519.5,-339.5 3519.5,-341.5 3885.5,-341.5 3885.5,-339.5 3519.5,-339.5"/>
<polygon fill="#0066ff" stroke="none" points="3519.5,-337.5 3519.5,-339.5 3885.5,-339.5 3885.5,-337.5 3519.5,-337.5"/>
<polygon fill="#ffffff" stroke="none" points="3519.5,-335.5 3519.5,-337.5 3885.5,-337.5 3885.5,-335.5 3519.5,-335.5"/>
<polygon fill="#000000" stroke="none" points="3519.5,-333.5 3519.5,-335.5 3885.5,-335.5 3885.5,-333.5 3519.5,-333.5"/>
<text xml:space="preserve" text-anchor="start" x="3580.38" y="-318.75" font-family="arial" font-size="14.00"> </text>
<polygon fill="none" stroke="black" points="3519.5,-290 3519.5,-313.75 3885.5,-313.75 3885.5,-290 3519.5,-290"/>
<text xml:space="preserve" text-anchor="start" x="3607.25" y="-297" font-family="arial" font-size="14.00">MIC2981 out → MC508 Input B</text>
</g>
<!-- MIC2981&#45;&#45;UNEG -->
<g id="edge23" class="edge">
<title>MIC2981:e&#45;&#45;UNEG:w</title>
<path fill="none" stroke="#000000" stroke-width="2" d="M3375.5,-404C3442.57,-407.89 3444.44,-338.39 3519.5,-334.5"/>
<path fill="none" stroke="#ffffff" stroke-width="2" d="M3375.5,-406C3444.56,-407.95 3446.44,-338.45 3519.5,-336.5"/>
<path fill="none" stroke="#0066ff" stroke-width="2" d="M3375.5,-408C3446.56,-408 3448.44,-338.5 3519.5,-338.5"/>
<path fill="none" stroke="#ffffff" stroke-width="2" d="M3375.5,-410C3448.56,-408.05 3450.44,-338.55 3519.5,-340.5"/>
<path fill="none" stroke="#000000" stroke-width="2" d="M3375.5,-412C3450.56,-408.11 3452.43,-338.61 3519.5,-342.5"/>
</g>
<!-- UGND -->
<g id="node15" class="node">
<title>UGND</title>
<polygon fill="#ffffff" stroke="black" points="3790.62,-763.5 3614.38,-763.5 3614.38,-623 3790.62,-623 3790.62,-763.5"/>
<polygon fill="none" stroke="black" points="3614.38,-739.75 3614.38,-763.5 3790.62,-763.5 3790.62,-739.75 3614.38,-739.75"/>
<text xml:space="preserve" text-anchor="start" x="3682.25" y="-746.75" font-family="arial" font-size="14.00">UGND</text>
<polygon fill="none" stroke="black" points="3614.38,-716 3614.38,-739.75 3790.62,-739.75 3790.62,-716 3614.38,-716"/>
<text xml:space="preserve" text-anchor="start" x="3695.38" y="-723" font-family="arial" font-size="14.00">1x</text>
<text xml:space="preserve" text-anchor="start" x="3665.12" y="-701.25" font-family="arial" font-size="14.00"> </text>
<text xml:space="preserve" text-anchor="start" x="3616.38" y="-681.5" font-family="arial" font-size="14.00">MIC2981:4:GND</text>
<text xml:space="preserve" text-anchor="start" x="3721.62" y="-681.5" font-family="arial" font-size="14.00"> &#160;&#160;&#160;&#160;1:BK &#160;&#160;&#160;</text>
<polygon fill="#000000" stroke="none" points="3614.38,-674.5 3614.38,-676.5 3790.62,-676.5 3790.62,-674.5 3614.38,-674.5"/>
<polygon fill="#000000" stroke="none" points="3614.38,-672.5 3614.38,-674.5 3790.62,-674.5 3790.62,-672.5 3614.38,-672.5"/>
<polygon fill="#000000" stroke="none" points="3614.38,-670.5 3614.38,-672.5 3790.62,-672.5 3790.62,-670.5 3614.38,-670.5"/>
<polygon fill="#000000" stroke="none" points="3614.38,-668.5 3614.38,-670.5 3790.62,-670.5 3790.62,-668.5 3614.38,-668.5"/>
<polygon fill="#000000" stroke="none" points="3614.38,-666.5 3614.38,-668.5 3790.62,-668.5 3790.62,-666.5 3614.38,-666.5"/>
<text xml:space="preserve" text-anchor="start" x="3665.12" y="-651.75" font-family="arial" font-size="14.00"> </text>
<polygon fill="none" stroke="black" points="3614.38,-623 3614.38,-646.75 3790.62,-646.75 3790.62,-623 3614.38,-623"/>
<text xml:space="preserve" text-anchor="start" x="3624.5" y="-630" font-family="arial" font-size="14.00">MIC2981 GND → 24V 0V</text>
</g>
<!-- MIC2981&#45;&#45;UGND -->
<g id="edge31" class="edge">
<title>MIC2981:e&#45;&#45;UGND:w</title>
<path fill="none" stroke="#000000" stroke-width="2" d="M3375.5,-451.5C3522.21,-456.36 3474.48,-672.36 3613.38,-667.5"/>
<path fill="none" stroke="#000000" stroke-width="2" d="M3375.5,-453.5C3520.26,-455.93 3472.52,-671.93 3613.38,-669.5"/>
<path fill="none" stroke="#000000" stroke-width="2" d="M3375.5,-455.5C3518.3,-455.5 3470.57,-671.5 3613.38,-671.5"/>
<path fill="none" stroke="#000000" stroke-width="2" d="M3375.5,-457.5C3516.35,-455.07 3468.62,-671.07 3613.38,-673.5"/>
<path fill="none" stroke="#000000" stroke-width="2" d="M3375.5,-459.5C3514.4,-454.64 3466.66,-670.64 3613.38,-675.5"/>
</g>
<!-- TIE_0V -->
<g id="node4" class="node">
<title>TIE_0V</title>
<polygon fill="#ffffff" stroke="black" points="1838,-733 1762.5,-733 1762.5,-685.5 1838,-685.5 1838,-733"/>
<polygon fill="none" stroke="black" points="1762.5,-709.25 1762.5,-733 1838,-733 1838,-709.25 1762.5,-709.25"/>
<text xml:space="preserve" text-anchor="start" x="1781.88" y="-716.25" font-family="arial" font-size="14.00">Splice</text>
<polygon fill="none" stroke="black" points="1762.5,-685.5 1762.5,-709.25 1838,-709.25 1838,-685.5 1762.5,-685.5"/>
<text xml:space="preserve" text-anchor="start" x="1766.5" y="-692.5" font-family="arial" font-size="14.00">0V tie point</text>
</g>
<!-- ICOM_TIE -->
<g id="node13" class="node">
<title>ICOM_TIE</title>
<polygon fill="#ffffff" stroke="black" points="2253.25,-850.5 2092.75,-850.5 2092.75,-710 2253.25,-710 2253.25,-850.5"/>
<polygon fill="none" stroke="black" points="2092.75,-826.75 2092.75,-850.5 2253.25,-850.5 2253.25,-826.75 2092.75,-826.75"/>
<text xml:space="preserve" text-anchor="start" x="2140.38" y="-833.75" font-family="arial" font-size="14.00">ICOM_TIE</text>
<polygon fill="none" stroke="black" points="2092.75,-803 2092.75,-826.75 2253.25,-826.75 2253.25,-803 2092.75,-803"/>
<text xml:space="preserve" text-anchor="start" x="2165.88" y="-810" font-family="arial" font-size="14.00">1x</text>
<text xml:space="preserve" text-anchor="start" x="2094.75" y="-788.25" font-family="arial" font-size="14.00"> </text>
<text xml:space="preserve" text-anchor="start" x="2102.5" y="-768.5" font-family="arial" font-size="14.00"> &#160;&#160;&#160;&#160;1:BK &#160;&#160;&#160;</text>
<text xml:space="preserve" text-anchor="start" x="2169.5" y="-768.5" font-family="arial" font-size="14.00">EXT24V:2:0V</text>
<polygon fill="#000000" stroke="none" points="2092.75,-761.5 2092.75,-763.5 2253.25,-763.5 2253.25,-761.5 2092.75,-761.5"/>
<polygon fill="#000000" stroke="none" points="2092.75,-759.5 2092.75,-761.5 2253.25,-761.5 2253.25,-759.5 2092.75,-759.5"/>
<polygon fill="#000000" stroke="none" points="2092.75,-757.5 2092.75,-759.5 2253.25,-759.5 2253.25,-757.5 2092.75,-757.5"/>
<polygon fill="#000000" stroke="none" points="2092.75,-755.5 2092.75,-757.5 2253.25,-757.5 2253.25,-755.5 2092.75,-755.5"/>
<polygon fill="#000000" stroke="none" points="2092.75,-753.5 2092.75,-755.5 2253.25,-755.5 2253.25,-753.5 2092.75,-753.5"/>
<text xml:space="preserve" text-anchor="start" x="2094.75" y="-738.75" font-family="arial" font-size="14.00"> </text>
<polygon fill="none" stroke="black" points="2092.75,-710 2092.75,-733.75 2253.25,-733.75 2253.25,-710 2092.75,-710"/>
<text xml:space="preserve" text-anchor="start" x="2108.5" y="-717" font-family="arial" font-size="14.00">Input Com → 24V 0V</text>
</g>
<!-- TIE_0V&#45;&#45;ICOM_TIE -->
<g id="edge27" class="edge">
<title>TIE_0V:e&#45;&#45;ICOM_TIE:w</title>
<path fill="none" stroke="#000000" stroke-width="2" d="M1839,-705.25C1957.48,-707.5 1981.46,-756.75 2092.75,-754.5"/>
<path fill="none" stroke="#000000" stroke-width="2" d="M1839,-707.25C1955.68,-708.37 1979.67,-757.62 2092.75,-756.5"/>
<path fill="none" stroke="#000000" stroke-width="2" d="M1839,-709.25C1953.88,-709.25 1977.87,-758.5 2092.75,-758.5"/>
<path fill="none" stroke="#000000" stroke-width="2" d="M1839,-711.25C1952.08,-710.13 1976.07,-759.38 2092.75,-760.5"/>
<path fill="none" stroke="#000000" stroke-width="2" d="M1839,-713.25C1950.29,-711 1974.27,-760.25 2092.75,-762.5"/>
</g>
<!-- EXT24V -->
<g id="node5" class="node">
<title>EXT24V</title>
<polygon fill="#ffffff" stroke="black" points="2582.25,-834.62 2397.25,-834.62 2397.25,-715.88 2582.25,-715.88 2582.25,-834.62"/>
<polygon fill="none" stroke="black" points="2397.25,-810.88 2397.25,-834.62 2582.25,-834.62 2582.25,-810.88 2397.25,-810.88"/>
<text xml:space="preserve" text-anchor="start" x="2464.62" y="-817.88" font-family="arial" font-size="14.00">EXT24V</text>
<polygon fill="none" stroke="black" points="2397.25,-787.12 2397.25,-810.88 2516.38,-810.88 2516.38,-787.12 2397.25,-787.12"/>
<text xml:space="preserve" text-anchor="start" x="2415.19" y="-794.12" font-family="arial" font-size="14.00">Power Supply</text>
<polygon fill="none" stroke="black" points="2516.38,-787.12 2516.38,-810.88 2582.25,-810.88 2582.25,-787.12 2516.38,-787.12"/>
<text xml:space="preserve" text-anchor="start" x="2534.31" y="-794.12" font-family="arial" font-size="14.00">2&#45;pin</text>
<polygon fill="none" stroke="black" points="2397.25,-763.38 2397.25,-787.12 2450.67,-787.12 2450.67,-763.38 2397.25,-763.38"/>
<text xml:space="preserve" text-anchor="start" x="2420.21" y="-770.38" font-family="arial" font-size="14.00">1</text>
<polygon fill="none" stroke="black" points="2450.67,-763.38 2450.67,-787.12 2528.83,-787.12 2528.83,-763.38 2450.67,-763.38"/>
<text xml:space="preserve" text-anchor="start" x="2473.62" y="-770.38" font-family="arial" font-size="14.00">+24V</text>
<polygon fill="none" stroke="black" points="2528.83,-763.38 2528.83,-787.12 2582.25,-787.12 2582.25,-763.38 2528.83,-763.38"/>
<text xml:space="preserve" text-anchor="start" x="2551.79" y="-770.38" font-family="arial" font-size="14.00">1</text>
<polygon fill="none" stroke="black" points="2397.25,-739.62 2397.25,-763.38 2450.67,-763.38 2450.67,-739.62 2397.25,-739.62"/>
<text xml:space="preserve" text-anchor="start" x="2420.21" y="-746.62" font-family="arial" font-size="14.00">2</text>
<polygon fill="none" stroke="black" points="2450.67,-739.62 2450.67,-763.38 2528.83,-763.38 2528.83,-739.62 2450.67,-739.62"/>
<text xml:space="preserve" text-anchor="start" x="2481.5" y="-746.62" font-family="arial" font-size="14.00">0V</text>
<polygon fill="none" stroke="black" points="2528.83,-739.62 2528.83,-763.38 2582.25,-763.38 2582.25,-739.62 2528.83,-739.62"/>
<text xml:space="preserve" text-anchor="start" x="2551.79" y="-746.62" font-family="arial" font-size="14.00">2</text>
<polygon fill="none" stroke="black" points="2397.25,-715.88 2397.25,-739.62 2582.25,-739.62 2582.25,-715.88 2397.25,-715.88"/>
<text xml:space="preserve" text-anchor="start" x="2401.25" y="-722.88" font-family="arial" font-size="14.00">External 24V (MC508 supply)</text>
</g>
<!-- V24 -->
<g id="node14" class="node">
<title>V24</title>
<polygon fill="#ffffff" stroke="black" points="2985,-858.5 2726.25,-858.5 2726.25,-718 2985,-718 2985,-858.5"/>
<polygon fill="none" stroke="black" points="2726.25,-834.75 2726.25,-858.5 2985,-858.5 2985,-834.75 2726.25,-834.75"/>
<text xml:space="preserve" text-anchor="start" x="2843.62" y="-841.75" font-family="arial" font-size="14.00">V24</text>
<polygon fill="none" stroke="black" points="2726.25,-811 2726.25,-834.75 2985,-834.75 2985,-811 2726.25,-811"/>
<text xml:space="preserve" text-anchor="start" x="2848.5" y="-818" font-family="arial" font-size="14.00">1x</text>
<text xml:space="preserve" text-anchor="start" x="2775.12" y="-796.25" font-family="arial" font-size="14.00"> </text>
<text xml:space="preserve" text-anchor="start" x="2728.25" y="-776.5" font-family="arial" font-size="14.00">EXT24V:1:+24V</text>
<text xml:space="preserve" text-anchor="start" x="2829.75" y="-776.5" font-family="arial" font-size="14.00"> &#160;&#160;&#160;&#160;1:YE &#160;&#160;&#160;</text>
<text xml:space="preserve" text-anchor="start" x="2896.75" y="-776.5" font-family="arial" font-size="14.00">MIC2981:3:Vs</text>
<polygon fill="#000000" stroke="none" points="2726.25,-769.5 2726.25,-771.5 2985,-771.5 2985,-769.5 2726.25,-769.5"/>
<polygon fill="#ffff00" stroke="none" points="2726.25,-767.5 2726.25,-769.5 2985,-769.5 2985,-767.5 2726.25,-767.5"/>
<polygon fill="#ffff00" stroke="none" points="2726.25,-765.5 2726.25,-767.5 2985,-767.5 2985,-765.5 2726.25,-765.5"/>
<polygon fill="#ffff00" stroke="none" points="2726.25,-763.5 2726.25,-765.5 2985,-765.5 2985,-763.5 2726.25,-763.5"/>
<polygon fill="#000000" stroke="none" points="2726.25,-761.5 2726.25,-763.5 2985,-763.5 2985,-761.5 2726.25,-761.5"/>
<text xml:space="preserve" text-anchor="start" x="2775.12" y="-746.75" font-family="arial" font-size="14.00"> </text>
<polygon fill="none" stroke="black" points="2726.25,-718 2726.25,-741.75 2985,-741.75 2985,-718 2726.25,-718"/>
<text xml:space="preserve" text-anchor="start" x="2791.12" y="-725" font-family="arial" font-size="14.00">+24V → MIC2981 Vs</text>
</g>
<!-- EXT24V&#45;&#45;V24 -->
<g id="edge29" class="edge">
<title>EXT24V:e&#45;&#45;V24:w</title>
<path fill="none" stroke="#000000" stroke-width="2" d="M2582.25,-771.25C2644.43,-771.75 2660.19,-763 2726.25,-762.5"/>
<path fill="none" stroke="#ffff00" stroke-width="2" d="M2582.25,-773.25C2645.4,-773.5 2661.16,-764.75 2726.25,-764.5"/>
<path fill="none" stroke="#ffff00" stroke-width="2" d="M2582.25,-775.25C2646.37,-775.25 2662.13,-766.5 2726.25,-766.5"/>
<path fill="none" stroke="#ffff00" stroke-width="2" d="M2582.25,-777.25C2647.34,-777 2663.1,-768.25 2726.25,-768.5"/>
<path fill="none" stroke="#000000" stroke-width="2" d="M2582.25,-779.25C2648.31,-778.75 2664.07,-770 2726.25,-770.5"/>
</g>
<!-- EXT5V -->
<g id="node6" class="node">
<title>EXT5V</title>
<polygon fill="#ffffff" stroke="black" points="1065.25,-202.62 842,-202.62 842,-83.88 1065.25,-83.88 1065.25,-202.62"/>
<polygon fill="none" stroke="black" points="842,-178.88 842,-202.62 1065.25,-202.62 1065.25,-178.88 842,-178.88"/>
<text xml:space="preserve" text-anchor="start" x="932.25" y="-185.88" font-family="arial" font-size="14.00">EXT5V</text>
<polygon fill="none" stroke="black" points="842,-155.12 842,-178.88 980.25,-178.88 980.25,-155.12 842,-155.12"/>
<text xml:space="preserve" text-anchor="start" x="869.5" y="-162.12" font-family="arial" font-size="14.00">Power Supply</text>
<polygon fill="none" stroke="black" points="980.25,-155.12 980.25,-178.88 1065.25,-178.88 1065.25,-155.12 980.25,-155.12"/>
<text xml:space="preserve" text-anchor="start" x="1007.75" y="-162.12" font-family="arial" font-size="14.00">2&#45;pin</text>
<polygon fill="none" stroke="black" points="842,-131.38 842,-155.12 942,-155.12 942,-131.38 842,-131.38"/>
<text xml:space="preserve" text-anchor="start" x="888.25" y="-138.38" font-family="arial" font-size="14.00">1</text>
<polygon fill="none" stroke="black" points="942,-131.38 942,-155.12 1065.25,-155.12 1065.25,-131.38 942,-131.38"/>
<text xml:space="preserve" text-anchor="start" x="991.25" y="-138.38" font-family="arial" font-size="14.00">+5V</text>
<polygon fill="none" stroke="black" points="842,-107.62 842,-131.38 942,-131.38 942,-107.62 842,-107.62"/>
<text xml:space="preserve" text-anchor="start" x="888.25" y="-114.62" font-family="arial" font-size="14.00">2</text>
<polygon fill="none" stroke="black" points="942,-107.62 942,-131.38 1065.25,-131.38 1065.25,-107.62 942,-107.62"/>
<text xml:space="preserve" text-anchor="start" x="988.25" y="-114.62" font-family="arial" font-size="14.00">GND</text>
<polygon fill="none" stroke="black" points="842,-83.88 842,-107.62 1065.25,-107.62 1065.25,-83.88 842,-83.88"/>
<text xml:space="preserve" text-anchor="start" x="846" y="-90.88" font-family="arial" font-size="14.00">External 5V (opto&#45;interrupter power)</text>
</g>
<!-- ENC&#45;&#45;MC508_ENC -->
<g id="edge2" class="edge">
<title>ENC:e&#45;&#45;MC508_ENC:w</title>
<path fill="none" stroke="#000000" stroke-width="2" d="M698,-706.63C762.82,-707.07 779.25,-698.57 847.75,-698.13"/>
<path fill="none" stroke="#000000" stroke-width="2" d="M698,-708.63C763.74,-708.85 780.17,-700.35 847.75,-700.13"/>
<path fill="none" stroke="#000000" stroke-width="2" d="M698,-710.62C764.66,-710.63 781.09,-702.13 847.75,-702.12"/>
<path fill="none" stroke="#000000" stroke-width="2" d="M698,-712.62C765.58,-712.4 782.01,-703.9 847.75,-704.12"/>
<path fill="none" stroke="#000000" stroke-width="2" d="M698,-714.62C766.5,-714.18 782.93,-705.68 847.75,-706.12"/>
</g>
<!-- ENC&#45;&#45;MC508_ENC -->
<g id="edge4" class="edge">
<title>ENC:e&#45;&#45;MC508_ENC:w</title>
<path fill="none" stroke="#000000" stroke-width="2" d="M698,-676.88C763.97,-676.92 780.59,-674.42 847.75,-674.38"/>
<path fill="none" stroke="#895956" stroke-width="2" d="M698,-678.88C764.27,-678.9 780.89,-676.4 847.75,-676.38"/>
<path fill="none" stroke="#895956" stroke-width="2" d="M698,-680.88C764.56,-680.88 781.19,-678.38 847.75,-678.38"/>
<path fill="none" stroke="#895956" stroke-width="2" d="M698,-682.87C764.86,-682.85 781.48,-680.35 847.75,-680.37"/>
<path fill="none" stroke="#000000" stroke-width="2" d="M698,-684.87C765.16,-684.83 781.78,-682.33 847.75,-682.37"/>
</g>
<!-- ENC&#45;&#45;MC508_ENC -->
<g id="edge6" class="edge">
<title>ENC:e&#45;&#45;MC508_ENC:w</title>
<path fill="none" stroke="#000000" stroke-width="2" d="M698,-647.13C765.4,-647.21 782,-650.71 847.75,-650.63"/>
<path fill="none" stroke="#ff0000" stroke-width="2" d="M698,-649.13C764.99,-649.17 781.59,-652.67 847.75,-652.63"/>
<path fill="none" stroke="#ff0000" stroke-width="2" d="M698,-651.12C764.57,-651.12 781.18,-654.62 847.75,-654.62"/>
<path fill="none" stroke="#ff0000" stroke-width="2" d="M698,-653.12C764.16,-653.08 780.76,-656.58 847.75,-656.62"/>
<path fill="none" stroke="#000000" stroke-width="2" d="M698,-655.12C763.75,-655.04 780.35,-658.54 847.75,-658.62"/>
</g>
<!-- ENC&#45;&#45;MC508_ENC -->
<g id="edge8" class="edge">
<title>ENC:e&#45;&#45;MC508_ENC:w</title>
<path fill="none" stroke="#000000" stroke-width="2" d="M698,-617.38C766.7,-617.92 783.07,-627.42 847.75,-626.88"/>
<path fill="none" stroke="#ff8000" stroke-width="2" d="M698,-619.38C765.69,-619.65 782.06,-629.15 847.75,-628.88"/>
<path fill="none" stroke="#ff8000" stroke-width="2" d="M698,-621.38C764.69,-621.38 781.06,-630.88 847.75,-630.88"/>
<path fill="none" stroke="#ff8000" stroke-width="2" d="M698,-623.37C763.69,-623.1 780.06,-632.6 847.75,-632.87"/>
<path fill="none" stroke="#000000" stroke-width="2" d="M698,-625.37C762.68,-624.83 779.05,-634.33 847.75,-634.87"/>
</g>
<!-- ENC&#45;&#45;MC508_ENC -->
<g id="edge10" class="edge">
<title>ENC:e&#45;&#45;MC508_ENC:w</title>
<path fill="none" stroke="#000000" stroke-width="2" d="M698,-587.63C767.7,-588.76 783.63,-604.26 847.75,-603.13"/>
<path fill="none" stroke="#90ee90" stroke-width="2" d="M698,-589.63C766.31,-590.19 782.23,-605.69 847.75,-605.13"/>
<path fill="none" stroke="#90ee90" stroke-width="2" d="M698,-591.62C764.91,-591.62 780.84,-607.12 847.75,-607.12"/>
<path fill="none" stroke="#90ee90" stroke-width="2" d="M698,-593.62C763.52,-593.06 779.44,-608.56 847.75,-609.12"/>
<path fill="none" stroke="#000000" stroke-width="2" d="M698,-595.62C762.12,-594.49 778.05,-609.99 847.75,-611.12"/>
</g>
<!-- ENC&#45;&#45;MC508_ENC -->
<g id="edge12" class="edge">
<title>ENC:e&#45;&#45;MC508_ENC:w</title>
<path fill="none" stroke="#000000" stroke-width="2" d="M698,-557.88C768.5,-559.56 783.77,-581.06 847.75,-579.38"/>
<path fill="none" stroke="#a0dfff" stroke-width="2" d="M698,-559.88C766.87,-560.72 782.14,-582.22 847.75,-581.38"/>
<path fill="none" stroke="#a0dfff" stroke-width="2" d="M698,-561.88C765.24,-561.88 780.51,-583.38 847.75,-583.38"/>
<path fill="none" stroke="#a0dfff" stroke-width="2" d="M698,-563.87C763.61,-563.03 778.88,-584.53 847.75,-585.37"/>
<path fill="none" stroke="#000000" stroke-width="2" d="M698,-565.87C761.98,-564.19 777.25,-585.69 847.75,-587.37"/>
</g>
<!-- ENC&#45;&#45;MC508_ENC -->
<g id="edge14" class="edge">
<title>ENC:e&#45;&#45;MC508_ENC:w</title>
<path fill="none" stroke="#000000" stroke-width="2" d="M698,-528.13C769.21,-530.27 783.62,-557.77 847.75,-555.63"/>
<path fill="none" stroke="#ffff00" stroke-width="2" d="M698,-530.13C767.44,-531.2 781.85,-558.7 847.75,-557.63"/>
<path fill="none" stroke="#ffff00" stroke-width="2" d="M698,-532.13C765.67,-532.12 780.08,-559.62 847.75,-559.63"/>
<path fill="none" stroke="#ffff00" stroke-width="2" d="M698,-534.12C763.9,-533.05 778.31,-560.55 847.75,-561.62"/>
<path fill="none" stroke="#000000" stroke-width="2" d="M698,-536.12C762.13,-533.98 776.54,-561.48 847.75,-563.62"/>
</g>
<!-- ENC&#45;&#45;MC508_ENC -->
<g id="edge16" class="edge">
<title>ENC:e&#45;&#45;MC508_ENC:w</title>
<path fill="none" stroke="#000000" stroke-width="2" d="M698,-498.38C769.92,-500.89 783.27,-534.39 847.75,-531.88"/>
<path fill="none" stroke="#ffffff" stroke-width="2" d="M698,-500.38C768.06,-501.63 781.41,-535.13 847.75,-533.88"/>
<path fill="none" stroke="#895956" stroke-width="2" d="M698,-502.38C766.2,-502.38 779.55,-535.88 847.75,-535.87"/>
<path fill="none" stroke="#ffffff" stroke-width="2" d="M698,-504.37C764.34,-503.12 777.69,-536.62 847.75,-537.87"/>
<path fill="none" stroke="#000000" stroke-width="2" d="M698,-506.37C762.48,-503.86 775.83,-537.36 847.75,-539.87"/>
</g>
<!-- LPOS&#45;&#45;MIC2981 -->
<g id="edge18" class="edge">
<title>LPOS:e&#45;&#45;MIC2981:w</title>
<path fill="none" stroke="#000000" stroke-width="2" d="M1948.75,-345.5C2482.51,-347.27 2601.88,-524.52 3129,-522.75"/>
<path fill="none" stroke="#0066ff" stroke-width="2" d="M1948.75,-347.5C2480.85,-348.38 2600.22,-525.63 3129,-524.75"/>
<path fill="none" stroke="#0066ff" stroke-width="2" d="M1948.75,-349.5C2479.19,-349.5 2598.56,-526.75 3129,-526.75"/>
<path fill="none" stroke="#0066ff" stroke-width="2" d="M1948.75,-351.5C2477.53,-350.62 2596.9,-527.87 3129,-528.75"/>
<path fill="none" stroke="#000000" stroke-width="2" d="M1948.75,-353.5C2475.87,-351.73 2595.24,-528.98 3129,-530.75"/>
</g>
<!-- LNEG&#45;&#45;MIC2981 -->
<g id="edge20" class="edge">
<title>LNEG:e&#45;&#45;MIC2981:w</title>
<path fill="none" stroke="#000000" stroke-width="2" d="M1507.75,-259.5C1803.01,-259.5 1876.82,-260.25 2172,-260.25 2172,-260.25 2172,-260.25 2490.75,-260.25 2644.5,-260.99 2979.89,-499.74 3129,-499"/>
<path fill="none" stroke="#8000ff" stroke-width="2" d="M1507.75,-261.5C1802.99,-261.5 1876.8,-262.25 2172,-262.25 2172,-262.25 2172,-262.25 2490.75,-262.25 2643.34,-262.62 2978.73,-501.37 3129,-501"/>
<path fill="none" stroke="#8000ff" stroke-width="2" d="M1507.75,-263.5C1802.97,-263.5 1876.78,-264.25 2172,-264.25 2172,-264.25 2172,-264.25 2490.75,-264.25 2642.18,-264.25 2977.57,-503 3129,-503"/>
<path fill="none" stroke="#8000ff" stroke-width="2" d="M1507.75,-265.5C1802.95,-265.5 1876.76,-266.25 2172,-266.25 2172,-266.25 2172,-266.25 2490.75,-266.25 2641.02,-265.88 2976.41,-504.63 3129,-505"/>
<path fill="none" stroke="#000000" stroke-width="2" d="M1507.75,-267.5C1802.93,-267.5 1876.74,-268.25 2172,-268.25 2172,-268.25 2172,-268.25 2490.75,-268.25 2639.86,-267.51 2975.25,-506.26 3129,-507"/>
</g>
<!-- UPOS&#45;&#45;MC508_ENC -->
<g id="edge22" class="edge">
<title>UPOS:e&#45;&#45;MC508_ENC:w</title>
<path fill="none" stroke="#000000" stroke-width="2" d="M3870.75,-501.5C3888.4,-506.34 3881.24,-472.93 3866.95,-459.86 3843.39,-434.99 3570.2,-447.83 3536.67,-460.74 3450.52,-489.66 3467.19,-561.66 3377.01,-601.96 3268.31,-645.71 2971.82,-627.24 2856.62,-627.25 1799.25,-627.25 1799.25,-627.25 1799.25,-627.25 1528.99,-626.64 1461.83,-584.41 1208,-501.05 1135.56,-475.43 1126.56,-445.67 1057.66,-432.91 1012.25,-423.11 881.22,-400.18 851.56,-431.85 826.39,-455.77 814.72,-512.92 847.75,-508.13"/>
<path fill="none" stroke="#999999" stroke-width="2" d="M3870.75,-503.5C3890.35,-505.92 3883.2,-472.51 3868.35,-458.43 3843.29,-432.99 3570.1,-445.84 3535.96,-458.87 3448.57,-490.11 3465.25,-562.11 3376.25,-600.1 3268.43,-643.72 2971.94,-625.25 2856.62,-625.25 1799.25,-625.25 1799.25,-625.25 1799.25,-625.25 1530.05,-624.94 1462.9,-582.72 1208.63,-499.15 1137.47,-474.85 1128.48,-445.09 1058.08,-430.95 1012.59,-421.14 881.56,-398.21 850.16,-430.42 824.43,-455.37 812.76,-512.52 847.75,-510.13"/>
<path fill="none" stroke="#999999" stroke-width="2" d="M3870.75,-505.5C3892.31,-505.5 3885.15,-472.09 3869.75,-457 3843.2,-430.99 3570.01,-443.84 3535.25,-457 3446.62,-490.56 3463.3,-562.56 3375.5,-598.25 3268.56,-641.72 2972.06,-623.25 2856.62,-623.25 1799.25,-623.25 1799.25,-623.25 1799.25,-623.25 1531.11,-623.25 1463.96,-581.03 1209.25,-497.25 1139.39,-474.27 1130.39,-444.52 1058.5,-429 1012.94,-419.17 881.91,-396.24 848.75,-429 822.47,-454.97 810.8,-512.12 847.75,-512.12"/>
<path fill="none" stroke="#999999" stroke-width="2" d="M3870.75,-507.5C3894.27,-505.08 3887.11,-471.67 3871.15,-455.57 3843.11,-428.99 3569.91,-441.84 3534.54,-455.13 3444.67,-491.02 3461.35,-563.01 3374.75,-596.4 3268.68,-639.72 2972.19,-621.25 2856.62,-621.25 1799.25,-621.25 1799.25,-621.25 1799.25,-621.25 1532.18,-621.56 1465.03,-579.33 1209.87,-495.35 1141.3,-473.69 1132.31,-443.94 1058.92,-427.05 1013.28,-417.2 882.25,-394.27 847.34,-427.58 820.51,-454.57 808.84,-511.73 847.75,-514.12"/>
<path fill="none" stroke="#000000" stroke-width="2" d="M3870.75,-509.5C3896.22,-504.66 3889.06,-471.25 3872.55,-454.14 3843.01,-427 3569.82,-439.84 3533.83,-453.26 3442.72,-491.47 3459.4,-563.46 3373.99,-594.54 3268.81,-637.73 2972.31,-619.26 2856.62,-619.25 1799.25,-619.25 1799.25,-619.25 1799.25,-619.25 1533.24,-619.86 1466.09,-577.64 1210.5,-493.45 1143.21,-473.11 1134.22,-443.36 1059.34,-425.09 1013.63,-415.23 882.6,-392.3 845.94,-426.15 818.55,-454.17 806.88,-511.33 847.75,-516.12"/>
</g>
<!-- UNEG&#45;&#45;MC508_ENC -->
<g id="edge24" class="edge">
<title>UNEG:e&#45;&#45;MC508_ENC:w</title>
<path fill="none" stroke="#000000" stroke-width="2" d="M3886.5,-334.5C3904.15,-339.34 3896.99,-305.93 3882.7,-292.86 3772.38,-178.72 3685.03,-284.13 3519.71,-293.99 2820.46,-329.85 2651.57,-420.45 1948.96,-457.24 1816.43,-464.05 1783.23,-459.92 1651.67,-457.25 1387.11,-451.78 1321.53,-438.31 1058.42,-433 1010.95,-431.93 881.04,-400.21 851.55,-431.85 833.85,-448.33 825.27,-489.2 847.75,-484.38"/>
<path fill="none" stroke="#ffffff" stroke-width="2" d="M3886.5,-336.5C3906.1,-338.92 3898.95,-305.51 3884.1,-291.43 3770.84,-177.45 3683.49,-282.86 3519.6,-292 2819.51,-328.09 2650.63,-418.69 1948.85,-455.25 1816.68,-462.07 1783.48,-457.93 1651.71,-455.25 1387.52,-449.82 1321.93,-436.35 1058.46,-431 1011.42,-429.99 881.51,-398.26 850.15,-430.43 831.89,-447.92 823.31,-488.79 847.75,-486.38"/>
<path fill="none" stroke="#0066ff" stroke-width="2" d="M3886.5,-338.5C3908.06,-338.5 3900.9,-305.09 3885.5,-290 3769.3,-176.17 3681.95,-281.58 3519.5,-290 2818.57,-326.33 2649.68,-416.92 1948.75,-453.25 1816.93,-460.08 1783.72,-455.95 1651.75,-453.25 1387.92,-447.86 1322.33,-434.39 1058.5,-429 1011.9,-428.05 881.99,-396.32 848.75,-429 829.93,-447.5 821.36,-488.38 847.75,-488.37"/>
<path fill="none" stroke="#ffffff" stroke-width="2" d="M3886.5,-340.5C3910.02,-338.08 3902.86,-304.67 3886.9,-288.57 3767.76,-174.89 3680.41,-280.3 3519.4,-288 2817.62,-324.56 2648.74,-415.16 1948.65,-451.25 1817.17,-458.1 1783.97,-453.96 1651.79,-451.25 1388.32,-445.9 1322.73,-432.43 1058.54,-427 1012.37,-426.11 882.46,-394.38 847.35,-427.57 827.97,-447.09 819.4,-487.96 847.75,-490.37"/>
<path fill="none" stroke="#000000" stroke-width="2" d="M3886.5,-342.5C3911.97,-337.66 3904.81,-304.25 3888.3,-287.14 3766.22,-173.62 3678.87,-279.03 3519.29,-286.01 2816.68,-322.8 2647.79,-413.4 1948.54,-449.26 1817.42,-456.11 1784.22,-451.98 1651.83,-449.25 1388.72,-443.94 1323.14,-430.47 1058.58,-425 1012.85,-424.16 882.93,-392.43 845.95,-426.15 826.02,-446.68 817.44,-487.55 847.75,-492.37"/>
</g>
<!-- ICOM_SCSI&#45;&#45;TIE_0V -->
<g id="edge26" class="edge">
<title>ICOM_SCSI:e&#45;&#45;TIE_0V:w</title>
<path fill="none" stroke="#000000" stroke-width="2" d="M1482.5,-704.5C1606.6,-704.5 1637.6,-705.25 1761.5,-705.25"/>
<path fill="none" stroke="#ffffff" stroke-width="2" d="M1482.5,-706.5C1606.55,-706.5 1637.55,-707.25 1761.5,-707.25"/>
<path fill="none" stroke="#ffffff" stroke-width="2" d="M1482.5,-708.5C1606.5,-708.5 1637.5,-709.25 1761.5,-709.25"/>
<path fill="none" stroke="#ffffff" stroke-width="2" d="M1482.5,-710.5C1606.45,-710.5 1637.45,-711.25 1761.5,-711.25"/>
<path fill="none" stroke="#000000" stroke-width="2" d="M1482.5,-712.5C1606.4,-712.5 1637.4,-713.25 1761.5,-713.25"/>
</g>
<!-- ICOM_TIE&#45;&#45;EXT24V -->
<g id="edge28" class="edge">
<title>ICOM_TIE:e&#45;&#45;EXT24V:w</title>
<path fill="none" stroke="#000000" stroke-width="2" d="M2253.25,-754.5C2315.71,-754.84 2331.56,-747.84 2397.25,-747.5"/>
<path fill="none" stroke="#000000" stroke-width="2" d="M2253.25,-756.5C2316.52,-756.67 2332.37,-749.67 2397.25,-749.5"/>
<path fill="none" stroke="#000000" stroke-width="2" d="M2253.25,-758.5C2317.33,-758.5 2333.17,-751.5 2397.25,-751.5"/>
<path fill="none" stroke="#000000" stroke-width="2" d="M2253.25,-760.5C2318.13,-760.33 2333.98,-753.33 2397.25,-753.5"/>
<path fill="none" stroke="#000000" stroke-width="2" d="M2253.25,-762.5C2318.94,-762.16 2334.79,-755.16 2397.25,-755.5"/>
</g>
<!-- V24&#45;&#45;MIC2981 -->
<g id="edge30" class="edge">
<title>V24:e&#45;&#45;MIC2981:w</title>
<path fill="none" stroke="#000000" stroke-width="2" d="M2985,-762.5C3124.22,-768.27 2982.6,-481.02 3129,-475.25"/>
<path fill="none" stroke="#ffff00" stroke-width="2" d="M2985,-764.5C3126.02,-767.38 2984.4,-480.13 3129,-477.25"/>
<path fill="none" stroke="#ffff00" stroke-width="2" d="M2985,-766.5C3127.81,-766.5 2986.19,-479.25 3129,-479.25"/>
<path fill="none" stroke="#ffff00" stroke-width="2" d="M2985,-768.5C3129.6,-765.62 2987.98,-478.37 3129,-481.25"/>
<path fill="none" stroke="#000000" stroke-width="2" d="M2985,-770.5C3131.4,-764.73 2989.78,-477.48 3129,-483.25"/>
</g>
<!-- UGND&#45;&#45;TIE_0V -->
<g id="edge32" class="edge">
<title>UGND:e&#45;&#45;TIE_0V:w</title>
<path fill="none" stroke="#000000" stroke-width="2" d="M3791.62,-667.5C3809.27,-672.34 3802.12,-638.93 3787.83,-625.86 3763.57,-599.48 3654.43,-625.32 3614.54,-627 3509.05,-631.13 3482.85,-638.64 3375.78,-646.24 3146.04,-662.29 3088.65,-677.12 2856.62,-677.25 2488.75,-677.25 2488.75,-677.25 2488.75,-677.25 2313.07,-677.19 2268.9,-684.71 2093.15,-702.23 1981.05,-713.04 1954.02,-728.72 1838.27,-736.99 1807.57,-737.86 1789.77,-758.81 1759.73,-735.89 1750.98,-726.62 1747.05,-710.18 1761.5,-705.25"/>
<path fill="none" stroke="#000000" stroke-width="2" d="M3791.62,-669.5C3811.23,-671.92 3804.07,-638.51 3789.23,-624.43 3763.11,-597.54 3653.97,-623.37 3614.46,-625 3508.5,-629.2 3482.3,-636.72 3375.64,-644.25 3145.54,-660.35 3088.15,-675.19 2856.62,-675.25 2488.75,-675.25 2488.75,-675.25 2488.75,-675.25 2312.74,-675.22 2268.57,-682.74 2092.95,-700.24 1980.05,-711.31 1953.01,-726.99 1838.14,-735 1806.05,-736.57 1788.25,-757.52 1761.12,-734.44 1752.93,-726.15 1748.99,-709.72 1761.5,-707.25"/>
<path fill="none" stroke="#000000" stroke-width="2" d="M3791.62,-671.5C3813.19,-671.5 3806.03,-638.09 3790.62,-623 3762.65,-595.59 3653.51,-621.43 3614.37,-623 3507.95,-627.28 3481.75,-634.8 3375.5,-642.25 3145.04,-658.42 3087.65,-673.25 2856.62,-673.25 2488.75,-673.25 2488.75,-673.25 2488.75,-673.25 2312.4,-673.25 2268.23,-680.77 2092.75,-698.25 1979.04,-709.58 1952.01,-725.26 1838,-733 1804.52,-735.27 1786.72,-756.22 1762.5,-733 1754.87,-725.69 1750.94,-709.25 1761.5,-709.25"/>
<path fill="none" stroke="#000000" stroke-width="2" d="M3791.62,-673.5C3815.14,-671.08 3807.98,-637.67 3792.02,-621.57 3762.19,-593.65 3653.05,-619.48 3614.29,-621 3507.4,-625.36 3481.2,-632.87 3375.36,-640.25 3144.54,-656.48 3087.15,-671.31 2856.62,-671.25 2488.75,-671.25 2488.75,-671.25 2488.75,-671.25 2312.06,-671.28 2267.9,-678.79 2092.55,-696.26 1978.04,-707.85 1951,-723.53 1837.86,-731 1803,-733.98 1785.2,-754.93 1763.88,-731.56 1756.82,-725.22 1752.88,-708.78 1761.5,-711.25"/>
<path fill="none" stroke="#000000" stroke-width="2" d="M3791.62,-675.5C3817.1,-670.66 3809.94,-637.25 3793.42,-620.14 3761.72,-591.7 3652.59,-617.53 3614.21,-619 3506.85,-623.44 3480.65,-630.95 3375.22,-638.26 3144.04,-654.55 3086.65,-669.38 2856.62,-669.25 2488.75,-669.25 2488.75,-669.25 2488.75,-669.25 2311.73,-669.31 2267.56,-676.82 2092.35,-694.27 1977.04,-706.12 1950,-721.8 1837.73,-729.01 1801.47,-732.68 1783.67,-753.63 1765.27,-730.11 1758.76,-724.76 1754.82,-708.32 1761.5,-713.25"/>
</g>
<!-- LPWR&#45;&#45;EXT5V -->
<g id="edge34" class="edge">
<title>LPWR:e&#45;&#45;EXT5V:w</title>
<path fill="none" stroke="#000000" stroke-width="2" d="M634.5,-209.5C727.93,-212.78 740.7,-142.53 842,-139.25"/>
<path fill="none" stroke="#ff0000" stroke-width="2" d="M634.5,-211.5C729.9,-213.14 742.67,-142.89 842,-141.25"/>
<path fill="none" stroke="#ff0000" stroke-width="2" d="M634.5,-213.5C731.86,-213.5 744.64,-143.25 842,-143.25"/>
<path fill="none" stroke="#ff0000" stroke-width="2" d="M634.5,-215.5C733.83,-213.86 746.6,-143.61 842,-145.25"/>
<path fill="none" stroke="#000000" stroke-width="2" d="M634.5,-217.5C735.8,-214.22 748.57,-143.97 842,-147.25"/>
</g>
<!-- LGND&#45;&#45;EXT5V -->
<g id="edge36" class="edge">
<title>LGND:e&#45;&#45;EXT5V:w</title>
<path fill="none" stroke="#000000" stroke-width="2" d="M637.12,-44.5C737.44,-47.83 749.57,-118.83 842,-115.5"/>
<path fill="none" stroke="#000000" stroke-width="2" d="M637.12,-46.5C735.46,-48.16 747.6,-119.16 842,-117.5"/>
<path fill="none" stroke="#000000" stroke-width="2" d="M637.12,-48.5C733.49,-48.5 745.63,-119.5 842,-119.5"/>
<path fill="none" stroke="#000000" stroke-width="2" d="M637.12,-50.5C731.52,-48.84 743.66,-119.84 842,-121.5"/>
<path fill="none" stroke="#000000" stroke-width="2" d="M637.12,-52.5C729.55,-49.17 741.69,-120.17 842,-123.5"/>
</g>
</g>
</svg>
